<?xml version="1.0" encoding="utf-8"?>
<!-- Generator: Adobe Illustrator 25.0.1, SVG Export Plug-In . SVG Version: 6.00 Build 0)  -->
<svg version="1.1" id="Layer_1" xmlns="http://www.w3.org/2000/svg" xmlns:xlink="http://www.w3.org/1999/xlink" x="0px" y="0px"
	 viewBox="0 0 1920 1080" style="enable-background:new 0 0 1920 1080;" xml:space="preserve">
<style type="text/css">
	.st0{fill:#0000FF;}
	.st1{fill:#FF0000;}
	.st2{fill:none;stroke:#FF0000;stroke-width:5;stroke-linejoin:round;stroke-miterlimit:10;}
	.st3{fill:none;stroke:#FF0000;stroke-width:5;stroke-miterlimit:10;}
</style>
<g>
	<g>
		<g>
			<path d="M86.3,171.1l5-0.7h1l5.5,0.7v1.9H86.3V171.1z M89.3,142.4l3,1.2l-5.8-0.7v-1.9h7.2l19.9,27.4v5.1h-1.5L89.3,142.4z
				 M90.4,140.9l2.4,1.9v30.2h-2.4V140.9z M106.2,140.9h11.5v1.9l-4.8,0.7h-1l-5.8-0.7V140.9z M111.3,140.9h2.4v32.5l-2.4-2.4V140.9
				z"/>
			<path d="M129.7,160.5c2-0.7,5-1.6,7.4-2v1.7c-2.2,0.4-5,1.3-6.4,1.9c-4.3,1.7-4.8,3.5-4.8,4.9c0,2.5,1.7,3.6,3.9,3.6
				c1.7,0,2.6-0.6,5.7-2.8l1-0.7l0.7,1l-1.4,1.4c-2.9,2.9-4.5,4.2-7.4,4.2c-3.5,0-6.4-2-6.4-6C121.9,165,123.3,162.8,129.7,160.5z
				 M135.3,168.6v-10.9c0-4.7-1.3-5.9-4.5-5.9c-1.1,0-2.5,0.1-4.3,0.9l1.9-1.5l-1.2,4.1c-0.4,1.4-1.2,2.2-2.4,2.2
				c-1.3,0-2.1-0.7-2.2-1.9c0.9-3.6,4.5-5.9,9.3-5.9c4.9,0,7.3,2.3,7.3,8.3v10.2c0,2.2,0.7,2.9,1.8,2.9c0.8,0,1.3-0.4,1.9-1.1l1,1.1
				c-1.2,1.8-2.4,2.4-4.1,2.4C137,173.5,135.3,171.6,135.3,168.6z"/>
			<path d="M155,171.3c1.1,0,2-0.4,3.3-1.3l1.1,1.3c-1.2,1.5-3.2,2.4-5.6,2.4c-3.3,0-5.4-1.7-5.4-5.4c0-1.2,0-2.2,0-4v-11.4h-4v-2.1
				l6-0.8l-1.9,1.6l1.4-7.8h2.8l-0.4,8.4v15.6C152.3,170.2,153.4,171.3,155,171.3z M159,150.3v2.5h-8.5v-2.5H159z"/>
			<path d="M167.9,164.6c0,4.3,1.2,5.8,3.9,5.8c2.4,0,4.9-1.2,7.3-3.6h1v2.4h-2.4l1.7-0.7c-2.7,3.7-6,5.2-9.1,5.2
				c-3.8,0-6.2-2.3-6.2-8.6l0.1-12.7l1,0.9l-4.5-1v-1.7l6.9-0.6l0.5,0.5l-0.2,6.7V164.6z M179.3,173.4l-0.7-5.6l0.1-15.5l1,0.9
				l-4.5-1v-1.7l6.8-0.6l0.5,0.5l-0.1,6.7v14.4l-1.2-1.2l4.5,1v1.7L179.3,173.4z"/>
			<path d="M193.1,163v-2.3c0-2.6,0-4.1-0.1-6l-3.8-0.4v-1.7l6.5-2.9l0.7,0.5l0.6,6v6.8c0,3,0,7.9,0.1,10.1H193
				C193.1,170.9,193.1,166,193.1,163z M189.5,171.4l5.3-1h1l5.3,1v1.7h-11.5V171.4z M195.1,156.5h2.7l-1.2,0.3
				c1.5-4.5,4.5-7.2,7.3-7.2c1.4,0,2.8,0.7,3.4,1.6c0,2.3-0.9,3.5-2.8,3.5c-1.1,0-2-0.4-2.9-1.2l-1.3-1.1l2.4-0.5
				c-3,1.5-4.7,3.9-5.8,7.6h-1.8V156.5z"/>
			<path d="M217.7,160.5c2-0.7,5-1.6,7.4-2v1.7c-2.2,0.4-5,1.3-6.4,1.9c-4.3,1.7-4.8,3.5-4.8,4.9c0,2.5,1.7,3.6,3.9,3.6
				c1.7,0,2.6-0.6,5.7-2.8l1-0.7l0.7,1l-1.4,1.4c-2.9,2.9-4.5,4.2-7.4,4.2c-3.5,0-6.4-2-6.4-6C209.9,165,211.3,162.8,217.7,160.5z
				 M223.2,168.6v-10.9c0-4.7-1.3-5.9-4.5-5.9c-1.1,0-2.5,0.1-4.3,0.9l1.9-1.5l-1.2,4.1c-0.4,1.4-1.2,2.2-2.4,2.2
				c-1.3,0-2.1-0.7-2.2-1.9c0.9-3.6,4.5-5.9,9.3-5.9c4.9,0,7.3,2.3,7.3,8.3v10.2c0,2.2,0.7,2.9,1.8,2.9c0.8,0,1.3-0.4,1.9-1.1l1,1.1
				c-1.2,1.8-2.4,2.4-4.1,2.4C225,173.5,223.2,171.6,223.2,168.6z"/>
			<path d="M240.6,137.5l0.7,0.4l-0.2,6.8V163c0,3.4,0,6.7,0.1,10.1h-4.1c0.1-3.4,0.1-6.7,0.1-10.1v-21.1l-4-0.5v-1.7L240.6,137.5z
				 M245,171.4v1.7h-11.8v-1.7l5.4-1h1L245,171.4z"/>
			<path d="M276.1,165.5c0-3.1-1.9-4.5-6-6.1l-1.8-0.7c-4.9-1.9-8.3-4.7-8.3-9.6c0-5.5,4.7-8.9,10.8-8.9c3.2,0,5.8,1,7.8,2.5
				l-0.3,6.2h-2.9l-1.3-7.2l3.1,1.6v2.4c-2.4-2.3-4.1-3.1-6.7-3.1c-3.7,0-6.6,1.9-6.6,5.5c0,3,2,4.8,5.5,6.1l1.9,0.7
				c6.3,2.4,8.8,5.2,8.8,9.7c0,5.7-4.8,9.1-11.3,9.1c-3.6,0-7.1-1.2-9.3-2.5l0.3-6.7h2.9l1.2,7.4l-3.1-1.3v-2.3
				c3,2.2,4.6,3.1,7.9,3.1C273.1,171.4,276.1,169.3,276.1,165.5z"/>
			<path d="M295.9,182.9v1.7h-12.3v-1.7l5.4-1h1L295.9,182.9z M287.7,160.7c0-2.6,0-4.1-0.1-6l-3.8-0.4v-1.7l6.5-2.9l0.7,0.5
				l0.4,4.1l0.2,0.1v15l-0.1,0.3v4.8c0,3.4,0,6.8,0.1,10.2h-4c0.1-3.4,0.1-6.7,0.1-10.1V160.7z M297.5,152.3c-1.8,0-4.2,0.9-7.7,4.3
				l-0.4-0.9c2.8-4.2,5.9-6,9.2-6c5.1,0,9.1,4.5,9.1,11.9s-4.2,12.1-9.8,12.1c-2.9,0-5.9-1.3-8.4-6.3l0.4-0.8
				c2.5,3.2,4.8,4.5,7.2,4.5c3.6,0,6.6-2.8,6.6-9S301,152.3,297.5,152.3z"/>
			<path d="M331.9,158.8c0,1.1-0.1,2.1-0.3,2.7h-17.7v-2h11.4c2.3,0,2.8-1.1,2.8-2.4c0-2.7-2.3-5.2-5.3-5.2c-3.1,0-6.6,2.6-6.6,9.5
				c0,6.1,3.1,9.4,7.9,9.4c3.1,0,5-1.4,6.7-3.4l1.1,0.9c-1.7,3.4-4.8,5.6-9.2,5.6c-6.4,0-10.6-4.5-10.6-11.8c0-7.3,5-12.2,10.9-12.2
				C327.9,149.7,331.9,153,331.9,158.8z"/>
			<path d="M356.3,158.8c0,1.1-0.1,2.1-0.3,2.7h-17.7v-2h11.4c2.3,0,2.8-1.1,2.8-2.4c0-2.7-2.3-5.2-5.3-5.2c-3.1,0-6.6,2.6-6.6,9.5
				c0,6.1,3.1,9.4,7.9,9.4c3.1,0,5-1.4,6.7-3.4l1.1,0.9c-1.7,3.4-4.8,5.6-9.2,5.6c-6.4,0-10.6-4.5-10.6-11.8c0-7.3,5-12.2,10.9-12.2
				C352.4,149.7,356.3,153,356.3,158.8z"/>
			<path d="M364.7,161.3c0,6,3.2,9.4,7.7,9.4c2.8,0,5.2-1.3,6.7-3.7l1.2,0.6c-1.3,4-4.4,6.2-8.9,6.2c-6.6,0-10.7-4.6-10.7-12
				c0-7.5,5.3-12,11-12c4.3,0,7.8,2.6,8.4,6.2c-0.2,1.2-1,1.8-2.2,1.8c-1.6,0-2.2-1-2.5-2.2l-1.2-4.2l2.2,1.8
				c-1.6-0.9-3.3-1.2-4.6-1.2C367.7,151.8,364.7,155.2,364.7,161.3z"/>
			<path d="M387.2,141.9l-4-0.5v-1.7l7.2-2.2l0.7,0.4l-0.2,6.8v10.2l0.1,0.6v7.4c0,3,0,7.9,0.1,10.1h-4.1c0.1-2.2,0.1-7.1,0.1-10.1
				V141.9z M394.5,171.4v1.7h-11v-1.7l5.3-1h1L394.5,171.4z M405.8,158.6v4.4c0,3.1,0,7.9,0.1,10.1h-4.1c0.1-2.2,0.1-7,0.1-10.1v-4
				c0-4.5-1.2-5.9-4-5.9c-2.4,0-4.4,0.9-7.1,3.3h-1v-2.2h2.4l-2.2,0.9c2.3-3,6.2-5.4,9.6-5.4C403.9,149.7,405.8,152.2,405.8,158.6z
				 M404.5,170.4l4.8,1v1.7h-11v-1.7l5.3-1H404.5z"/>
		</g>
	</g>
</g>
<g>
	<g>
		<path d="M485.2,158.3l-18.5,10.8l-1.4-2.5l17.1-9.6v0.5l-17.1-9.6l1.4-2.5l18.5,10.8V158.3z"/>
	</g>
</g>
<g>
	<g>
		<g>
			<path class="st0" d="M594.3,142.8v-1.9h6.7v2.6h-0.5L594.3,142.8z M601,170.4v2.6h-6.7v-1.9l6.2-0.7H601z M598.9,155.8
				c0-4.9,0-9.9-0.1-14.9h4.6c-0.1,4.8-0.1,9.8-0.1,14.9v1.8c0,5.5,0,10.5,0.1,15.5h-4.6c0.1-4.8,0.1-9.8,0.1-14.9V155.8z
				 M614.3,140.9l2.2,2.4H601v-2.4h17.1l0.3,8.5h-2.7L614.3,140.9z M611.9,157.7H601v-2.2h10.8V157.7z M619.5,164.5l-0.3,8.5H601
				v-2.4h16.4l-2.2,2.4l1.5-8.5H619.5z M610.3,156l0.7-5.1h2.2v11.4h-2.2l-0.7-5.3V156z"/>
			<path class="st0" d="M626.7,170.6l4.5,0.8v1.7h-9.6v-1.7l4.1-0.8H626.7z M626.9,152.9l-5-0.8v-1.8h10.6v1.8l-4.6,0.8H626.9z
				 M622.8,173.1l10.1-12.4l1.6,1.1l-8.8,11.3H622.8z M627.9,150.3l6.8,9.7l9.1,13h-4.4l-7.1-10.2l-8.6-12.5H627.9z M644.4,150.3
				l-10,12.1l-1.6-1.2l8.5-10.9H644.4z M640.5,170.4l5.3,1v1.7h-11.6v-1.7l5.3-1H640.5z M640.2,152.9l-4-0.8v-1.8h9v1.8l-4,0.8
				H640.2z"/>
			<path class="st0" d="M657.3,171.3c1.1,0,2-0.4,3.3-1.3l1.1,1.3c-1.2,1.5-3.2,2.4-5.6,2.4c-3.3,0-5.4-1.7-5.4-5.4c0-1.2,0-2.2,0-4
				v-11.4h-4v-2.1l6-0.8l-1.9,1.6l1.4-7.8h2.8l-0.4,8.4v15.6C654.6,170.2,655.6,171.3,657.3,171.3z M661.2,150.3v2.5h-8.5v-2.5
				H661.2z"/>
			<path class="st0" d="M667.5,163v-2.3c0-2.6,0-4.1-0.1-6l-3.8-0.4v-1.7l6.5-2.9l0.7,0.5l0.6,6v6.8c0,3,0,7.9,0.1,10.1h-4.1
				C667.4,170.9,667.5,166,667.5,163z M663.9,171.4l5.3-1h1l5.3,1v1.7h-11.5V171.4z M669.4,156.5h2.7l-1.2,0.3
				c1.5-4.5,4.5-7.2,7.3-7.2c1.4,0,2.8,0.7,3.4,1.6c0,2.3-0.9,3.5-2.8,3.5c-1.1,0-2-0.4-2.9-1.2l-1.3-1.1l2.4-0.5
				c-3,1.5-4.7,3.9-5.8,7.6h-1.8V156.5z"/>
			<path class="st0" d="M692,160.5c2-0.7,5-1.6,7.4-2v1.7c-2.2,0.4-5,1.3-6.4,1.9c-4.3,1.7-4.8,3.5-4.8,4.9c0,2.5,1.7,3.6,3.9,3.6
				c1.7,0,2.6-0.6,5.7-2.8l1-0.7l0.7,1l-1.4,1.4c-2.9,2.9-4.5,4.2-7.4,4.2c-3.5,0-6.4-2-6.4-6C684.2,165,685.6,162.8,692,160.5z
				 M697.5,168.6v-10.9c0-4.7-1.3-5.9-4.5-5.9c-1.1,0-2.5,0.1-4.3,0.9l1.9-1.5l-1.2,4.1c-0.4,1.4-1.2,2.2-2.4,2.2
				c-1.3,0-2.1-0.7-2.2-1.9c0.9-3.6,4.5-5.9,9.3-5.9c4.9,0,7.3,2.3,7.3,8.3v10.2c0,2.2,0.7,2.9,1.8,2.9c0.8,0,1.3-0.4,1.9-1.1l1,1.1
				c-1.2,1.8-2.4,2.4-4.1,2.4C699.3,173.5,697.5,171.6,697.5,168.6z"/>
			<path class="st0" d="M712.4,161.3c0,6,3.2,9.4,7.7,9.4c2.8,0,5.2-1.3,6.7-3.7l1.2,0.6c-1.3,4-4.4,6.2-8.9,6.2
				c-6.6,0-10.7-4.6-10.7-12c0-7.5,5.3-12,11-12c4.3,0,7.8,2.6,8.4,6.2c-0.2,1.2-1,1.8-2.2,1.8c-1.6,0-2.2-1-2.5-2.2l-1.2-4.2
				l2.2,1.8c-1.6-0.9-3.3-1.2-4.6-1.2C715.4,151.8,712.4,155.2,712.4,161.3z"/>
			<path class="st0" d="M740.7,171.3c1.1,0,2-0.4,3.3-1.3l1.1,1.3c-1.2,1.5-3.2,2.4-5.6,2.4c-3.3,0-5.4-1.7-5.4-5.4c0-1.2,0-2.2,0-4
				v-11.4h-4v-2.1l6-0.8l-1.9,1.6l1.4-7.8h2.8l-0.4,8.4v15.6C738,170.2,739,171.3,740.7,171.3z M744.6,150.3v2.5H736v-2.5H744.6z"/>
			<path d="M783.7,168.3v2.6l-3,0.7l1.2-7.1h2.9l-0.2,7c-3,1.6-6.3,2.3-9.7,2.3c-9.7,0-16.2-7-16.2-16.8c0-9.6,6.8-16.8,16.2-16.8
				c2.6,0,6,0.4,9.3,2.3l0.2,7h-2.9l-1.2-7.1l3,0.7v2.9c-2.7-2.5-5.4-3.4-7.7-3.4c-6.5,0-11.7,5-11.7,14.4s4.7,14.4,11.4,14.4
				C777.9,171.4,780.9,170.6,783.7,168.3z"/>
			<path d="M795.1,164.6c0,4.3,1.2,5.8,3.9,5.8c2.4,0,4.9-1.2,7.3-3.6h1v2.4h-2.4l1.7-0.7c-2.7,3.7-6,5.2-9.1,5.2
				c-3.8,0-6.2-2.3-6.2-8.6l0.1-12.7l1,0.9l-4.5-1v-1.7l6.9-0.6l0.5,0.5l-0.2,6.7V164.6z M806.5,173.4l-0.7-5.6l0.1-15.5l1,0.9
				l-4.5-1v-1.7l6.8-0.6l0.5,0.5l-0.1,6.7v14.4l-1.2-1.2l4.5,1v1.7L806.5,173.4z"/>
			<path d="M836.7,158.8c0,1.1-0.1,2.1-0.3,2.7h-17.7v-2h11.4c2.3,0,2.8-1.1,2.8-2.4c0-2.7-2.3-5.2-5.3-5.2c-3.1,0-6.6,2.6-6.6,9.5
				c0,6.1,3.1,9.4,7.9,9.4c3.1,0,5-1.4,6.7-3.4l1.1,0.9c-1.7,3.4-4.8,5.6-9.2,5.6c-6.4,0-10.6-4.5-10.6-11.8c0-7.3,5-12.2,10.9-12.2
				C832.8,149.7,836.7,153,836.7,158.8z"/>
			<path d="M841.6,171.9l-0.2-5.2h2.5l1.3,5.7l-2.4-1.1v-1.6c1.7,1.3,3.5,2,5.9,2c3.7,0,5.4-1.5,5.4-3.7c0-2.1-1.4-3.1-4.5-4.2
				l-2.2-0.8c-3.5-1.3-5.8-3.2-5.8-6.4c0-3.5,2.9-6.7,8.3-6.7c2.6,0,4.6,0.7,6.7,2l-0.2,4.8h-2.4l-1-4.8l1.7,0.8v1.2
				c-1.5-1.2-3.2-1.8-4.9-1.8c-3,0-4.5,1.3-4.5,3.3c0,2.2,1.2,3,4.5,4.2l1.4,0.5c4.8,1.8,6.6,4,6.6,7c0,3.6-3.1,6.8-9.3,6.8
				C846,173.7,843.9,173.1,841.6,171.9z"/>
		</g>
	</g>
	<g>
		<g>
			<path d="M579.7,230.2c0-5.5,3.7-8.9,7.6-8.9c4.3,0,6.8,3.1,6.8,8c0,0.6-0.1,1.2-0.1,1.6h-11.5c0.2,3.6,2.4,5.9,5.7,5.9
				c1.6,0,3-0.5,4.2-1.4l1,1.9c-1.5,1-3.3,1.8-5.6,1.8C583.3,239.1,579.7,235.8,579.7,230.2z M591.6,228.8c0-3.4-1.5-5.3-4.2-5.3
				c-2.4,0-4.5,1.9-4.9,5.3H591.6z"/>
			<path d="M597,242c0-1.5,0.9-2.8,2.5-3.8V238c-0.9-0.5-1.5-1.5-1.5-2.8c0-1.4,1-2.5,1.9-3.2v-0.1c-1.1-0.9-2.2-2.5-2.2-4.6
				c0-3.7,2.9-6.1,6.4-6.1c0.9,0,1.8,0.2,2.4,0.4h5.9v2.2h-3.5c0.8,0.8,1.4,2,1.4,3.5c0,3.6-2.8,5.9-6.2,5.9c-0.8,0-1.8-0.2-2.5-0.6
				c-0.6,0.5-1.1,1.1-1.1,2c0,1.1,0.7,1.8,3,1.8h3.3c4,0,5.9,1.2,5.9,4.1c0,3.2-3.3,5.9-8.6,5.9C599.9,246.5,597,244.9,597,242z
				 M609.9,241.1c0-1.6-1.2-2.1-3.4-2.1h-2.9c-0.6,0-1.5-0.1-2.2-0.3c-1.2,0.9-1.7,1.9-1.7,2.9c0,1.8,1.8,3,4.9,3
				C607.7,244.5,609.9,242.9,609.9,241.1z M607.7,227.3c0-2.5-1.6-4-3.6-4s-3.6,1.5-3.6,4c0,2.5,1.7,4,3.6,4
				S607.7,229.8,607.7,227.3z"/>
			<path d="M615.4,236.9c0-1.3,0.9-2.2,2.1-2.2c1.1,0,2.1,0.9,2.1,2.2c0,1.3-0.9,2.2-2.1,2.2C616.3,239.1,615.4,238.2,615.4,236.9z"
				/>
			<path d="M628.8,215.7h3.1l3.7,12.4c0.8,2.7,1.4,4.9,2.2,7.6h0.1c0.9-2.7,1.4-4.9,2.2-7.6l3.7-12.4h3l-7.3,23h-3.4L628.8,215.7z"
				/>
			<path d="M648.4,230.2c0-5.7,3.7-8.9,7.9-8.9c4.2,0,7.9,3.3,7.9,8.9c0,5.6-3.7,8.9-7.9,8.9C652.2,239.1,648.4,235.8,648.4,230.2z
				 M661.2,230.2c0-3.9-2-6.6-4.9-6.6s-4.9,2.7-4.9,6.6c0,3.9,2,6.5,4.9,6.5S661.2,234.1,661.2,230.2z"/>
			<path d="M668.2,216.3c0-1.1,0.9-1.9,2-1.9s2,0.7,2,1.9c0,1.1-0.9,1.9-2,1.9S668.2,217.4,668.2,216.3z M668.7,221.7h2.9v17h-2.9
				V221.7z"/>
			<path d="M676,230.2c0-5.7,3.8-8.9,8.2-8.9c2.2,0,3.8,0.9,5,2l-1.5,1.9c-1-0.9-2-1.5-3.4-1.5c-3.1,0-5.3,2.7-5.3,6.6
				c0,3.9,2.1,6.5,5.3,6.5c1.6,0,2.9-0.8,4-1.7l1.2,1.9c-1.5,1.4-3.5,2.2-5.5,2.2C679.5,239.1,676,235.8,676,230.2z"/>
			<path d="M692,230.2c0-5.5,3.7-8.9,7.6-8.9c4.3,0,6.8,3.1,6.8,8c0,0.6-0.1,1.2-0.1,1.6h-11.5c0.2,3.6,2.4,5.9,5.7,5.9
				c1.6,0,3-0.5,4.2-1.4l1,1.9c-1.5,1-3.3,1.8-5.6,1.8C695.6,239.1,692,235.8,692,230.2z M703.9,228.8c0-3.4-1.5-5.3-4.2-5.3
				c-2.4,0-4.5,1.9-4.9,5.3H703.9z"/>
			<path d="M716.5,227.1c0-7.4,4-11.8,9.8-11.8s9.8,4.5,9.8,11.8c0,7.4-4,12-9.8,12S716.5,234.5,716.5,227.1z M733.2,227.1
				c0-5.7-2.7-9.3-6.8-9.3s-6.8,3.5-6.8,9.3s2.7,9.4,6.8,9.4S733.2,232.9,733.2,227.1z"/>
			<path d="M740.8,221.7h2.4l0.2,2.5h0.1c1.6-1.6,3.4-2.9,5.7-2.9c3.6,0,5.2,2.3,5.2,6.7v10.8h-2.9v-10.4c0-3.2-1-4.5-3.2-4.5
				c-1.7,0-2.9,0.9-4.7,2.6v12.3h-2.9V221.7z"/>
			<path d="M758.1,236.8l1.4-1.9c1.5,1.2,3,2,5,2c2.2,0,3.3-1.2,3.3-2.6c0-1.8-2-2.5-3.9-3.2c-2.4-0.9-5.1-2-5.1-4.9
				c0-2.7,2.2-4.8,5.9-4.8c2.1,0,4,0.9,5.3,1.9l-1.4,1.8c-1.2-0.9-2.4-1.5-3.9-1.5c-2.1,0-3.1,1.1-3.1,2.4c0,1.6,1.8,2.2,3.8,3
				c2.5,0.9,5.2,1.9,5.2,5.2c0,2.8-2.2,5.1-6.2,5.1C762,239.1,759.7,238.1,758.1,236.8z"/>
			<path d="M773.4,230.2c0-5.5,3.7-8.9,7.6-8.9c4.3,0,6.8,3.1,6.8,8c0,0.6-0.1,1.2-0.1,1.6h-11.5c0.2,3.6,2.4,5.9,5.7,5.9
				c1.6,0,3-0.5,4.2-1.4l1,1.9c-1.5,1-3.3,1.8-5.6,1.8C777,239.1,773.4,235.8,773.4,230.2z M785.3,228.8c0-3.4-1.5-5.3-4.2-5.3
				c-2.4,0-4.5,1.9-4.9,5.3H785.3z"/>
			<path d="M792.5,233.4V224H790v-2.2l2.7-0.2l0.3-4.8h2.4v4.8h4.6v2.3h-4.6v9.5c0,2.1,0.7,3.3,2.6,3.3c0.6,0,1.4-0.2,1.9-0.5
				l0.6,2.2c-1,0.3-2.1,0.6-3.2,0.6C793.7,239.1,792.5,236.8,792.5,233.4z"/>
			<path d="M815.9,218.2h-6.9v-2.5h16.8v2.5h-6.9v20.5h-2.9V218.2z"/>
			<path d="M829.1,216.3c0-1.1,0.9-1.9,2-1.9s2,0.7,2,1.9c0,1.1-0.9,1.9-2,1.9S829.1,217.4,829.1,216.3z M829.6,221.7h2.9v17h-2.9
				V221.7z"/>
			<path d="M838.2,221.7h2.4l0.2,2.5h0.1c1.5-1.6,3.3-2.9,5.3-2.9c2.6,0,4,1.2,4.7,3.2c1.8-1.9,3.5-3.2,5.6-3.2
				c3.5,0,5.2,2.3,5.2,6.7v10.8h-2.9v-10.4c0-3.2-1-4.5-3.2-4.5c-1.3,0-2.7,0.9-4.3,2.6v12.3h-2.9v-10.4c0-3.2-1-4.5-3.2-4.5
				c-1.3,0-2.7,0.9-4.3,2.6v12.3h-2.9V221.7z"/>
			<path d="M866,230.2c0-5.5,3.7-8.9,7.6-8.9c4.3,0,6.8,3.1,6.8,8c0,0.6-0.1,1.2-0.1,1.6h-11.5c0.2,3.6,2.4,5.9,5.7,5.9
				c1.6,0,3-0.5,4.2-1.4l1,1.9c-1.5,1-3.3,1.8-5.6,1.8C869.6,239.1,866,235.8,866,230.2z M877.9,228.8c0-3.4-1.5-5.3-4.2-5.3
				c-2.4,0-4.5,1.9-4.9,5.3H877.9z"/>
		</g>
	</g>
</g>
<g>
	<g>
		<path d="M1037.7,142.8v-1.9h6.7v2.6h-0.5L1037.7,142.8z M1044.9,170.4l6.2,0.7v1.9h-13.4v-1.9l6.2-0.7H1044.9z M1042.2,155.8
			c0-4.9,0-9.9-0.1-14.9h4.6c-0.1,4.8-0.1,9.8-0.1,14.9v2.9c0,4.9,0,9.4,0.1,14.4h-4.6c0.1-4.8,0.1-9.8,0.1-14.9V155.8z
			 M1049.1,160.3h-4.8v-2.2h5.5c5.9,0,8.2-3.1,8.2-7.7c0-4.7-2.6-7.3-8.4-7.3h-5.3v-2.2h6.2c8,0,12,3.9,12,9.6
			C1062.6,155.8,1058.9,160.3,1049.1,160.3z"/>
		<path d="M1073.8,160.5c2-0.7,5-1.6,7.4-2v1.7c-2.2,0.4-5,1.3-6.4,1.9c-4.3,1.7-4.8,3.5-4.8,4.9c0,2.5,1.7,3.6,3.9,3.6
			c1.7,0,2.6-0.6,5.7-2.8l1-0.7l0.7,1l-1.4,1.4c-2.9,2.9-4.5,4.2-7.4,4.2c-3.5,0-6.4-2-6.4-6C1065.9,165,1067.4,162.8,1073.8,160.5z
			 M1079.3,168.6v-10.9c0-4.7-1.3-5.9-4.5-5.9c-1.1,0-2.5,0.1-4.3,0.9l1.9-1.5l-1.2,4.1c-0.4,1.4-1.2,2.2-2.4,2.2
			c-1.3,0-2.1-0.7-2.2-1.9c0.9-3.6,4.5-5.9,9.3-5.9c4.9,0,7.3,2.3,7.3,8.3v10.2c0,2.2,0.7,2.9,1.8,2.9c0.8,0,1.3-0.4,1.9-1.1l1,1.1
			c-1.2,1.8-2.4,2.4-4.1,2.4C1081.1,173.5,1079.3,171.6,1079.3,168.6z"/>
		<path d="M1093.8,163v-2.3c0-2.6,0-4.1-0.1-6l-3.8-0.4v-1.7l6.5-2.9l0.7,0.5l0.6,6v6.8c0,3,0,7.9,0.1,10.1h-4.1
			C1093.7,170.9,1093.8,166,1093.8,163z M1090.2,171.4l5.3-1h1l5.3,1v1.7h-11.5V171.4z M1095.7,156.5h2.7l-1.2,0.3
			c1.5-4.5,4.5-7.2,7.3-7.2c1.4,0,2.8,0.7,3.4,1.6c0,2.3-0.9,3.5-2.8,3.5c-1.1,0-2-0.4-2.9-1.2l-1.3-1.1l2.4-0.5
			c-3,1.5-4.7,3.9-5.8,7.6h-1.8V156.5z"/>
		<path d="M1118.4,160.5c2-0.7,5-1.6,7.4-2v1.7c-2.2,0.4-5,1.3-6.4,1.9c-4.3,1.7-4.8,3.5-4.8,4.9c0,2.5,1.7,3.6,3.9,3.6
			c1.7,0,2.6-0.6,5.7-2.8l1-0.7l0.7,1l-1.4,1.4c-2.9,2.9-4.5,4.2-7.4,4.2c-3.5,0-6.4-2-6.4-6C1110.5,165,1111.9,162.8,1118.4,160.5z
			 M1123.9,168.6v-10.9c0-4.7-1.3-5.9-4.5-5.9c-1.1,0-2.5,0.1-4.3,0.9l1.9-1.5l-1.2,4.1c-0.4,1.4-1.2,2.2-2.4,2.2s-2.1-0.7-2.2-1.9
			c0.9-3.6,4.5-5.9,9.3-5.9c4.9,0,7.3,2.3,7.3,8.3v10.2c0,2.2,0.7,2.9,1.8,2.9c0.8,0,1.3-0.4,1.9-1.1l1,1.1
			c-1.2,1.8-2.4,2.4-4.1,2.4C1125.6,173.5,1123.9,171.6,1123.9,168.6z"/>
		<path d="M1138.2,173.1c0.1-2.2,0.1-7.1,0.1-10.1v-2.3c0-2.6,0-4.1-0.1-6l-3.8-0.4v-1.7l6.5-2.9l0.7,0.5l0.6,5.6v7.2
			c0,3,0,7.9,0.1,10.1H1138.2z M1145.7,171.4v1.7h-11v-1.7l5.3-1h1L1145.7,171.4z M1156.6,158.6v4.4c0,3.1,0,7.9,0.1,10.1h-4.1
			c0.1-2.2,0.1-7,0.1-10.1v-4c0-4.5-1.2-5.9-4-5.9c-2.4,0-4.2,1-6.9,3.3h-1v-2.2h2.4l-2.1,0.9c2.3-3,6-5.4,9.3-5.4
			C1154.6,149.7,1156.6,152.2,1156.6,158.6z M1155.3,170.4l4.8,1v1.7h-11v-1.7l5.3-1H1155.3z M1171,158v4.9c0,3.1,0,7.9,0.1,10.1
			h-4.1c0.1-2.2,0.1-7,0.1-10.1v-4.1c0-4.5-1.2-5.8-4.1-5.8c-2.2,0-4.2,0.9-6.9,3.3h-1.2v-1.7h2.6l-2.2,0.4c2.5-3.6,6-5.4,9.5-5.4
			C1168.7,149.7,1171,152.1,1171,158z M1169.7,170.4l4.8,1v1.7h-11v-1.7l5.3-1H1169.7z"/>
		<path d="M1197.9,158.8c0,1.1-0.1,2.1-0.3,2.7h-17.7v-2h11.4c2.3,0,2.8-1.1,2.8-2.4c0-2.7-2.3-5.2-5.3-5.2c-3.1,0-6.6,2.6-6.6,9.5
			c0,6.1,3.1,9.4,7.9,9.4c3.1,0,5-1.4,6.7-3.4l1.1,0.9c-1.7,3.4-4.8,5.6-9.2,5.6c-6.4,0-10.6-4.5-10.6-11.8c0-7.3,5-12.2,10.9-12.2
			C1194,149.7,1197.9,153,1197.9,158.8z"/>
		<path d="M1211.3,171.3c1.1,0,2-0.4,3.3-1.3l1.1,1.3c-1.2,1.5-3.2,2.4-5.6,2.4c-3.3,0-5.4-1.7-5.4-5.4c0-1.2,0-2.2,0-4v-11.4h-4
			v-2.1l6-0.8l-1.9,1.6l1.4-7.8h2.8l-0.4,8.4v15.6C1208.6,170.2,1209.7,171.3,1211.3,171.3z M1215.3,150.3v2.5h-8.5v-2.5H1215.3z"/>
		<path d="M1221.5,163v-2.3c0-2.6,0-4.1-0.1-6l-3.8-0.4v-1.7l6.5-2.9l0.7,0.5l0.6,6v6.8c0,3,0,7.9,0.1,10.1h-4.1
			C1221.5,170.9,1221.5,166,1221.5,163z M1217.9,171.4l5.3-1h1l5.3,1v1.7h-11.5V171.4z M1223.4,156.5h2.7l-1.2,0.3
			c1.5-4.5,4.5-7.2,7.3-7.2c1.4,0,2.8,0.7,3.4,1.6c0,2.3-0.9,3.5-2.8,3.5c-1.1,0-2-0.4-2.9-1.2l-1.3-1.1l2.4-0.5
			c-3,1.5-4.7,3.9-5.8,7.6h-1.8V156.5z"/>
		<path d="M1241.3,173.1c0.1-2.2,0.1-7.1,0.1-10.1v-2.3c0-2.6,0-4.1-0.1-6l-3.9-0.4v-1.7l7.2-2.9l0.7,0.5l-0.1,6.5v6.3
			c0,3,0,7.9,0.1,10.1H1241.3z M1248.7,171.4v1.7h-11v-1.7l5.3-1h1L1248.7,171.4z M1240.1,141.2c0-1.8,1.4-3,3.2-3s3.2,1.2,3.2,3
			c0,1.8-1.4,3-3.2,3S1240.1,143,1240.1,141.2z"/>
		<path d="M1256.3,161.3c0,6,3.2,9.4,7.7,9.4c2.8,0,5.2-1.3,6.7-3.7l1.2,0.6c-1.3,4-4.4,6.2-8.9,6.2c-6.6,0-10.7-4.6-10.7-12
			c0-7.5,5.3-12,11-12c4.3,0,7.8,2.6,8.4,6.2c-0.2,1.2-1,1.8-2.2,1.8c-1.6,0-2.2-1-2.5-2.2l-1.2-4.2l2.2,1.8
			c-1.6-0.9-3.3-1.2-4.6-1.2C1259.3,151.8,1256.3,155.2,1256.3,161.3z"/>
		<path d="M1283.7,160.5c2-0.7,5-1.6,7.4-2v1.7c-2.2,0.4-5,1.3-6.4,1.9c-4.3,1.7-4.8,3.5-4.8,4.9c0,2.5,1.7,3.6,3.9,3.6
			c1.7,0,2.6-0.6,5.7-2.8l1-0.7l0.7,1l-1.4,1.4c-2.9,2.9-4.5,4.2-7.4,4.2c-3.5,0-6.4-2-6.4-6C1275.8,165,1277.2,162.8,1283.7,160.5z
			 M1289.2,168.6v-10.9c0-4.7-1.3-5.9-4.5-5.9c-1.1,0-2.5,0.1-4.3,0.9l1.9-1.5l-1.2,4.1c-0.4,1.4-1.2,2.2-2.4,2.2
			c-1.3,0-2.1-0.7-2.2-1.9c0.9-3.6,4.5-5.9,9.3-5.9c4.9,0,7.3,2.3,7.3,8.3v10.2c0,2.2,0.7,2.9,1.8,2.9c0.8,0,1.3-0.4,1.9-1.1l1,1.1
			c-1.2,1.8-2.4,2.4-4.1,2.4C1290.9,173.5,1289.2,171.6,1289.2,168.6z"/>
		<path d="M1306.5,137.5l0.7,0.4l-0.2,6.8V163c0,3.4,0,6.7,0.1,10.1h-4.1c0.1-3.4,0.1-6.7,0.1-10.1v-21.1l-4-0.5v-1.7L1306.5,137.5z
			 M1311,171.4v1.7h-11.8v-1.7l5.4-1h1L1311,171.4z"/>
		<path d="M1320.7,137.5l0.7,0.4l-0.2,6.8V163c0,3.4,0,6.7,0.1,10.1h-4.1c0.1-3.4,0.1-6.7,0.1-10.1v-21.1l-4-0.5v-1.7L1320.7,137.5z
			 M1325.2,171.4v1.7h-11.8v-1.7l5.4-1h1L1325.2,171.4z"/>
		<path d="M1326.4,181.9c0.3-1.3,1.7-2,3.2-2c1.2,0,2.2,0.5,3.5,1.8l1.5,1.5l-1.9,1.1l-1.3-1.1c3.2-1.6,5.1-4.9,6.3-8.3l1.5-4.2
			l7.4-20.4h2.6l-8.5,22.5c-3.3,8.6-6,12.3-9.9,12.3C1328.4,185.1,1326.4,183.8,1326.4,181.9z M1331.3,152.7l-4.7-0.7v-1.7h11.4v1.7
			l-5.8,0.7H1331.3z M1338.4,175.6l-10-25.2h4.5l7.5,20.4L1338.4,175.6z M1346.6,152.7l-5.1-0.7v-1.7h9.4v1.7l-3.4,0.7H1346.6z"/>
		<path d="M1042.5,201.1l-6.2-0.7v-1.9h13v2.2l-5.8,0.5H1042.5z M1039.1,198.5h4.6l9.6,27.3h-1l9.2-27.3h2.6l-11,32.5h-1.9
			L1039.1,198.5z M1061.1,201.1l-4.8-0.5v-2.2h11.1v1.9l-5.3,0.7H1061.1z"/>
		<path d="M1078,218.1c2-0.7,5-1.6,7.4-2v1.7c-2.2,0.4-5,1.3-6.4,1.9c-4.3,1.7-4.8,3.5-4.8,4.9c0,2.5,1.7,3.6,3.9,3.6
			c1.7,0,2.6-0.6,5.7-2.8l1-0.7l0.7,1l-1.4,1.4c-2.9,2.9-4.5,4.2-7.4,4.2c-3.5,0-6.4-2-6.4-6C1070.1,222.6,1071.6,220.4,1078,218.1z
			 M1083.5,226.2v-10.9c0-4.7-1.3-5.9-4.5-5.9c-1.1,0-2.5,0.1-4.3,0.9l1.9-1.5l-1.2,4.1c-0.4,1.4-1.2,2.2-2.4,2.2
			c-1.3,0-2.1-0.7-2.2-1.9c0.9-3.6,4.5-5.9,9.3-5.9c4.9,0,7.3,2.3,7.3,8.3v10.2c0,2.2,0.7,2.9,1.8,2.9c0.8,0,1.3-0.4,1.9-1.1l1,1.1
			c-1.2,1.8-2.4,2.4-4.1,2.4C1085.2,231.1,1083.5,229.2,1083.5,226.2z"/>
		<path d="M1098,220.6v-2.3c0-2.6,0-4.1-0.1-6l-3.8-0.4v-1.7l6.5-2.9l0.7,0.5l0.6,6v6.8c0,3,0,7.9,0.1,10.1h-4.1
			C1097.9,228.5,1098,223.6,1098,220.6z M1094.4,229l5.3-1h1l5.3,1v1.7h-11.5V229z M1099.9,214.1h2.7l-1.2,0.3
			c1.5-4.5,4.5-7.2,7.3-7.2c1.4,0,2.8,0.7,3.4,1.6c0,2.3-0.9,3.5-2.8,3.5c-1.1,0-2-0.4-2.9-1.2l-1.3-1.1l2.4-0.5
			c-3,1.5-4.7,3.9-5.8,7.6h-1.8V214.1z"/>
		<path d="M1112.5,239.5c0.3-1.3,1.7-2,3.2-2c1.2,0,2.2,0.5,3.5,1.8l1.5,1.5l-1.9,1.1l-1.3-1.1c3.2-1.6,5.1-4.9,6.3-8.3l1.5-4.2
			l7.4-20.4h2.6l-8.5,22.5c-3.3,8.6-6,12.3-9.9,12.3C1114.5,242.7,1112.5,241.4,1112.5,239.5z M1117.4,210.3l-4.7-0.7v-1.7h11.4v1.7
			l-5.8,0.7H1117.4z M1124.5,233.2l-10-25.2h4.5l7.5,20.4L1124.5,233.2z M1132.7,210.3l-5.1-0.7v-1.7h9.4v1.7l-3.4,0.7H1132.7z"/>
		<path class="st0" d="M1166.9,223.1c0-3.1-1.9-4.5-6-6.1l-1.8-0.7c-4.9-1.9-8.3-4.7-8.3-9.6c0-5.5,4.7-8.9,10.8-8.9
			c3.2,0,5.8,1,7.8,2.5l-0.3,6.2h-2.9l-1.3-7.2l3.1,1.6v2.4c-2.4-2.3-4.1-3.1-6.7-3.1c-3.7,0-6.6,1.9-6.6,5.5c0,3,2,4.8,5.5,6.1
			l1.9,0.7c6.3,2.4,8.8,5.2,8.8,9.7c0,5.7-4.8,9.1-11.3,9.1c-3.6,0-7.1-1.2-9.3-2.5l0.3-6.7h2.9l1.2,7.4l-3.1-1.3v-2.3
			c3,2.2,4.6,3.1,7.9,3.1C1163.9,229,1166.9,226.9,1166.9,223.1z"/>
		<path class="st0" d="M1172.7,239.5c0.3-1.3,1.7-2,3.2-2c1.2,0,2.2,0.5,3.5,1.8l1.5,1.5l-1.9,1.1l-1.3-1.1c3.2-1.6,5.1-4.9,6.3-8.3
			l1.5-4.2l7.4-20.4h2.6l-8.5,22.5c-3.3,8.6-6,12.3-9.9,12.3C1174.7,242.7,1172.7,241.4,1172.7,239.5z M1177.6,210.3l-4.7-0.7v-1.7
			h11.4v1.7l-5.8,0.7H1177.6z M1184.7,233.2l-10-25.2h4.5l7.5,20.4L1184.7,233.2z M1192.9,210.3l-5.1-0.7v-1.7h9.4v1.7l-3.4,0.7
			H1192.9z"/>
		<path class="st0" d="M1202.7,230.7c0.1-2.2,0.1-7.1,0.1-10.1v-2.3c0-2.6,0-4.1-0.1-6l-3.8-0.4v-1.7l6.5-2.9l0.7,0.5l0.6,5.6v7.2
			c0,3,0,7.9,0.1,10.1H1202.7z M1210.2,229v1.7h-11V229l5.3-1h1L1210.2,229z M1221.3,216.2v4.4c0,3.1,0,7.9,0.1,10.1h-4.1
			c0.1-2.2,0.1-7,0.1-10.1v-4c0-4.5-1.2-5.9-4-5.9c-2.4,0-4.4,1-7.1,3.3h-1v-2.2h2.4l-2.1,0.9c2.3-3,6.1-5.4,9.5-5.4
			C1219.4,207.3,1221.3,209.8,1221.3,216.2z M1220,228l4.8,1v1.7h-11V229l5.3-1H1220z"/>
		<path class="st0" d="M1237.3,228.9c1.1,0,2-0.4,3.3-1.3l1.1,1.3c-1.2,1.5-3.2,2.4-5.6,2.4c-3.3,0-5.4-1.7-5.4-5.4c0-1.2,0-2.2,0-4
			v-11.4h-4v-2.1l6-0.8l-1.9,1.6l1.4-7.8h2.8l-0.4,8.4v15.6C1234.6,227.8,1235.6,228.9,1237.3,228.9z M1241.2,207.9v2.5h-8.5v-2.5
			H1241.2z"/>
		<path class="st0" d="M1247,199.5l-4-0.5v-1.7l7.2-2.2l0.7,0.4l-0.2,6.8v10.2l0.1,0.6v7.4c0,3,0,7.9,0.1,10.1h-4.1
			c0.1-2.2,0.1-7.1,0.1-10.1V199.5z M1254.2,229v1.7h-11V229l5.3-1h1L1254.2,229z M1265.6,216.2v4.4c0,3.1,0,7.9,0.1,10.1h-4.1
			c0.1-2.2,0.1-7,0.1-10.1v-4c0-4.5-1.2-5.9-4-5.9c-2.4,0-4.4,0.9-7.1,3.3h-1v-2.2h2.4l-2.2,0.9c2.3-3,6.2-5.4,9.6-5.4
			C1263.6,207.3,1265.6,209.8,1265.6,216.2z M1264.3,228l4.8,1v1.7h-11V229l5.3-1H1264.3z"/>
		<path class="st0" d="M1292.6,216.4c0,1.1-0.1,2.1-0.3,2.7h-17.7v-2h11.4c2.3,0,2.8-1.1,2.8-2.4c0-2.7-2.3-5.2-5.3-5.2
			c-3.1,0-6.6,2.6-6.6,9.5c0,6.1,3.1,9.4,7.9,9.4c3.1,0,5-1.4,6.7-3.4l1.1,0.9c-1.7,3.4-4.8,5.6-9.2,5.6c-6.4,0-10.6-4.5-10.6-11.8
			c0-7.3,5-12.2,10.9-12.2C1288.7,207.3,1292.6,210.6,1292.6,216.4z"/>
		<path class="st0" d="M1306,228.9c1.1,0,2-0.4,3.3-1.3l1.1,1.3c-1.2,1.5-3.2,2.4-5.6,2.4c-3.3,0-5.4-1.7-5.4-5.4c0-1.2,0-2.2,0-4
			v-11.4h-4v-2.1l6-0.8l-1.9,1.6l1.4-7.8h2.8l-0.4,8.4v15.6C1303.3,227.8,1304.4,228.9,1306,228.9z M1309.9,207.9v2.5h-8.5v-2.5
			H1309.9z"/>
		<path class="st0" d="M1315.8,230.7c0.1-2.2,0.1-7.1,0.1-10.1v-2.3c0-2.6,0-4.1-0.1-6l-3.9-0.4v-1.7l7.2-2.9l0.7,0.5l-0.1,6.5v6.3
			c0,3,0,7.9,0.1,10.1H1315.8z M1323.2,229v1.7h-11V229l5.3-1h1L1323.2,229z M1314.6,198.8c0-1.8,1.4-3,3.2-3c1.8,0,3.2,1.2,3.2,3
			c0,1.8-1.4,3-3.2,3C1316,201.9,1314.6,200.6,1314.6,198.8z"/>
		<path class="st0" d="M1344.7,207.9v1.7l-15.3,21.1v-2h13.8l-2.1,2l1.9-7.8h2.4l-0.5,7.8h-18.7V229l15.3-21.1v2h-12.6l1.7-2
			l-1.8,7.3l-2.4-0.2l0.4-7.2H1344.7z"/>
		<path class="st0" d="M1368.6,216.4c0,1.1-0.1,2.1-0.3,2.7h-17.7v-2h11.4c2.3,0,2.8-1.1,2.8-2.4c0-2.7-2.3-5.2-5.3-5.2
			c-3.1,0-6.6,2.6-6.6,9.5c0,6.1,3.1,9.4,7.9,9.4c3.1,0,5-1.4,6.7-3.4l1.1,0.9c-1.7,3.4-4.8,5.6-9.2,5.6c-6.4,0-10.6-4.5-10.6-11.8
			c0-7.3,5-12.2,10.9-12.2C1364.7,207.3,1368.6,210.6,1368.6,216.4z"/>
		<path class="st0" d="M1384.1,228.6c2.4,0,4.1-1.1,6.3-3.9l0.4,1.3c-1.8,3.3-4.1,5.2-7.8,5.2c-5.9,0-9.8-4.8-9.8-11.8
			c0-7.3,4.3-12.2,10.2-12.2c2.7,0,5.1,1.1,7.6,4.8l-0.5,1.2c-2.8-2.7-4.7-3.5-6.5-3.5c-3.6,0-6.7,2.9-6.7,9.5
			C1377.3,225.8,1380.2,228.6,1384.1,228.6z M1397.4,229v1.7l-7.3,0.5l-0.5-4.9v-14.1l0.1-0.6v-12.1l-4.1-0.5v-1.7l7.3-2.2l0.7,0.4
			l-0.2,6.8v28.3l-0.8-2.4L1397.4,229z"/>
		<path class="st0" d="M1054.2,280.7c0-3.1-1.9-4.5-6-6.1l-1.8-0.7c-4.9-1.9-8.3-4.7-8.3-9.6c0-5.5,4.7-8.9,10.8-8.9
			c3.2,0,5.8,1,7.8,2.5l-0.3,6.2h-2.9l-1.3-7.2l3.1,1.6v2.4c-2.4-2.3-4.1-3.1-6.7-3.1c-3.7,0-6.6,1.9-6.6,5.5c0,3,2,4.8,5.5,6.1
			l1.9,0.7c6.3,2.4,8.8,5.2,8.8,9.7c0,5.7-4.8,9.1-11.3,9.1c-3.6,0-7.1-1.2-9.3-2.5l0.3-6.7h2.9l1.2,7.4l-3.1-1.3v-2.3
			c3,2.2,4.6,3.1,7.9,3.1C1051.2,286.6,1054.2,284.5,1054.2,280.7z"/>
		<path class="st0" d="M1074,298.1v1.7h-12.3v-1.7l5.4-1h1L1074,298.1z M1065.7,275.9c0-2.6,0-4.1-0.1-6l-3.8-0.4v-1.7l6.5-2.9
			l0.7,0.5l0.4,4.1l0.2,0.1v15l-0.1,0.3v4.8c0,3.4,0,6.8,0.1,10.2h-4c0.1-3.4,0.1-6.7,0.1-10.1V275.9z M1075.5,267.5
			c-1.8,0-4.2,0.9-7.7,4.3l-0.4-0.9c2.8-4.2,5.9-6,9.2-6c5.1,0,9.1,4.5,9.1,11.9s-4.2,12.1-9.8,12.1c-2.9,0-5.9-1.3-8.4-6.3l0.4-0.8
			c2.5,3.2,4.8,4.5,7.2,4.5c3.6,0,6.6-2.8,6.6-9S1079.1,267.5,1075.5,267.5z"/>
		<path class="st0" d="M1109.9,274c0,1.1-0.1,2.1-0.3,2.7h-17.7v-2h11.4c2.3,0,2.8-1.1,2.8-2.4c0-2.7-2.3-5.2-5.3-5.2
			c-3.1,0-6.6,2.6-6.6,9.5c0,6.1,3.1,9.4,7.9,9.4c3.1,0,5-1.4,6.7-3.4l1.1,0.9c-1.7,3.4-4.8,5.6-9.2,5.6c-6.4,0-10.6-4.5-10.6-11.8
			c0-7.3,5-12.2,10.9-12.2C1106,264.9,1109.9,268.2,1109.9,274z"/>
		<path class="st0" d="M1134.3,274c0,1.1-0.1,2.1-0.3,2.7h-17.7v-2h11.4c2.3,0,2.8-1.1,2.8-2.4c0-2.7-2.3-5.2-5.3-5.2
			c-3.1,0-6.6,2.6-6.6,9.5c0,6.1,3.1,9.4,7.9,9.4c3.1,0,5-1.4,6.7-3.4l1.1,0.9c-1.7,3.4-4.8,5.6-9.2,5.6c-6.4,0-10.6-4.5-10.6-11.8
			c0-7.3,5-12.2,10.9-12.2C1130.4,264.9,1134.3,268.2,1134.3,274z"/>
		<path class="st0" d="M1142.8,276.5c0,6,3.2,9.4,7.7,9.4c2.8,0,5.2-1.3,6.7-3.7l1.2,0.6c-1.3,4-4.4,6.2-8.9,6.2
			c-6.6,0-10.7-4.6-10.7-12c0-7.5,5.3-12,11-12c4.3,0,7.8,2.6,8.4,6.2c-0.2,1.2-1,1.8-2.2,1.8c-1.6,0-2.2-1-2.5-2.2l-1.2-4.2
			l2.2,1.8c-1.6-0.9-3.3-1.2-4.6-1.2C1145.8,267,1142.8,270.4,1142.8,276.5z"/>
		<path class="st0" d="M1165.3,257.1l-4-0.5v-1.7l7.2-2.2l0.7,0.4l-0.2,6.8v10.2l0.1,0.6v7.4c0,3,0,7.9,0.1,10.1h-4.1
			c0.1-2.2,0.1-7.1,0.1-10.1V257.1z M1172.6,286.6v1.7h-11v-1.7l5.3-1h1L1172.6,286.6z M1183.9,273.8v4.4c0,3.1,0,7.9,0.1,10.1h-4.1
			c0.1-2.2,0.1-7,0.1-10.1v-4c0-4.5-1.2-5.9-4-5.9c-2.4,0-4.4,0.9-7.1,3.3h-1v-2.2h2.4l-2.2,0.9c2.3-3,6.2-5.4,9.6-5.4
			C1181.9,264.9,1183.9,267.4,1183.9,273.8z M1182.6,285.6l4.8,1v1.7h-11v-1.7l5.3-1H1182.6z"/>
	</g>
</g>
<g>
	<g>
		<path d="M978,158.3l-18.5,10.8l-1.4-2.5l17.1-9.6v0.5l-17.1-9.6l1.4-2.5l18.5,10.8V158.3z"/>
	</g>
</g>
<g>
	<g>
		<path d="M1470.8,158.3l-18.5,10.8l-1.4-2.5l17.1-9.6v0.5l-17.1-9.6l1.4-2.5l18.5,10.8V158.3z"/>
	</g>
</g>
<g>
	<g>
		<g>
			<path d="M1565.6,143.3l2.2-2.4l-1.5,8.5h-2.7l0.4-8.5h26.2l0.4,8.5h-2.7l-1.5-8.5l2.2,2.4H1565.6z M1577.5,170.4l6.7,0.7v1.9
				h-14.4v-1.9l6.7-0.7H1577.5z M1574.9,155.8c0-4.9,0-9.9-0.1-14.9h4.6c-0.1,4.8-0.1,9.8-0.1,14.9v2.4c0,4.9,0,9.9,0.1,14.9h-4.6
				c0.1-4.8,0.1-9.8,0.1-14.9V155.8z"/>
			<path d="M1613.5,158.8c0,1.1-0.1,2.1-0.3,2.7h-17.7v-2h11.4c2.3,0,2.8-1.1,2.8-2.4c0-2.7-2.3-5.2-5.3-5.2c-3.1,0-6.6,2.6-6.6,9.5
				c0,6.1,3.1,9.4,7.9,9.4c3.1,0,5-1.4,6.7-3.4l1.1,0.9c-1.7,3.4-4.8,5.6-9.2,5.6c-6.4,0-10.6-4.5-10.6-11.8c0-7.3,5-12.2,10.9-12.2
				C1609.6,149.7,1613.5,153,1613.5,158.8z"/>
			<path d="M1618.4,171.9l-0.2-5.2h2.5l1.3,5.7l-2.4-1.1v-1.6c1.7,1.3,3.5,2,5.9,2c3.7,0,5.4-1.5,5.4-3.7c0-2.1-1.4-3.1-4.5-4.2
				l-2.2-0.8c-3.5-1.3-5.8-3.2-5.8-6.4c0-3.5,2.9-6.7,8.3-6.7c2.6,0,4.6,0.7,6.7,2l-0.2,4.8h-2.4l-1-4.8l1.7,0.8v1.2
				c-1.5-1.2-3.2-1.8-4.9-1.8c-3,0-4.5,1.3-4.5,3.3c0,2.2,1.2,3,4.5,4.2l1.4,0.5c4.8,1.8,6.6,4,6.6,7c0,3.6-3.1,6.8-9.3,6.8
				C1622.8,173.7,1620.7,173.1,1618.4,171.9z"/>
			<path d="M1647.7,171.3c1.1,0,2-0.4,3.3-1.3l1.1,1.3c-1.2,1.5-3.2,2.4-5.6,2.4c-3.3,0-5.4-1.7-5.4-5.4c0-1.2,0-2.2,0-4v-11.4h-4
				v-2.1l6-0.8l-1.9,1.6l1.4-7.8h2.8l-0.4,8.4v15.6C1645,170.2,1646,171.3,1647.7,171.3z M1651.6,150.3v2.5h-8.5v-2.5H1651.6z"/>
			<path d="M1564.7,200.4v-1.9h6.7v2.6h-0.5L1564.7,200.4z M1571.9,228l6.2,0.7v1.9h-13.4v-1.9l6.2-0.7H1571.9z M1569.3,213.4
				c0-4.9,0-9.9-0.1-14.9h4.6c-0.1,4.8-0.1,9.8-0.1,14.9v2.9c0,4.9,0,9.4,0.1,14.4h-4.6c0.1-4.8,0.1-9.8,0.1-14.9V213.4z
				 M1576.2,217.9h-4.8v-2.2h5.5c5.9,0,8.2-3.1,8.2-7.7c0-4.7-2.6-7.3-8.4-7.3h-5.3v-2.2h6.2c8,0,12,3.9,12,9.6
				C1589.7,213.4,1586,217.9,1576.2,217.9z"/>
			<path d="M1596,199.5l-4-0.5v-1.7l7.2-2.2l0.7,0.4l-0.2,6.8v10.2l0.1,0.6v7.4c0,3,0,7.9,0.1,10.1h-4.1c0.1-2.2,0.1-7.1,0.1-10.1
				V199.5z M1603.3,229v1.7h-11V229l5.3-1h1L1603.3,229z M1614.6,216.2v4.4c0,3.1,0,7.9,0.1,10.1h-4.1c0.1-2.2,0.1-7,0.1-10.1v-4
				c0-4.5-1.2-5.9-4-5.9c-2.4,0-4.4,0.9-7.1,3.3h-1v-2.2h2.4l-2.2,0.9c2.3-3,6.2-5.4,9.6-5.4
				C1612.6,207.3,1614.6,209.8,1614.6,216.2z M1613.3,228l4.8,1v1.7h-11V229l5.3-1H1613.3z"/>
			<path d="M1621.8,219.4c0-8,5.4-12.1,10.9-12.1c5.4,0,10.9,4.1,10.9,12.1c0,8-5.5,11.9-10.9,11.9
				C1627.2,231.3,1621.8,227.3,1621.8,219.4z M1639.4,219.4c0-6.4-2.4-9.9-6.6-9.9c-4.3,0-6.6,3.5-6.6,9.9c0,6.4,2.4,9.7,6.6,9.7
				C1636.9,229.1,1639.4,225.8,1639.4,219.4z"/>
			<path d="M1651.4,230.7c0.1-2.2,0.1-7.1,0.1-10.1v-2.3c0-2.6,0-4.1-0.1-6l-3.8-0.4v-1.7l6.5-2.9l0.7,0.5l0.6,5.6v7.2
				c0,3,0,7.9,0.1,10.1H1651.4z M1658.9,229v1.7h-11V229l5.3-1h1L1658.9,229z M1670,216.2v4.4c0,3.1,0,7.9,0.1,10.1h-4.1
				c0.1-2.2,0.1-7,0.1-10.1v-4c0-4.5-1.2-5.9-4-5.9c-2.4,0-4.4,1-7.1,3.3h-1v-2.2h2.4l-2.1,0.9c2.3-3,6.1-5.4,9.5-5.4
				C1668,207.3,1670,209.8,1670,216.2z M1668.7,228l4.8,1v1.7h-11V229l5.3-1H1668.7z"/>
			<path d="M1697,216.4c0,1.1-0.1,2.1-0.3,2.7h-17.7v-2h11.4c2.3,0,2.8-1.1,2.8-2.4c0-2.7-2.3-5.2-5.3-5.2c-3.1,0-6.6,2.6-6.6,9.5
				c0,6.1,3.1,9.4,7.9,9.4c3.1,0,5-1.4,6.7-3.4l1.1,0.9c-1.7,3.4-4.8,5.6-9.2,5.6c-6.4,0-10.6-4.5-10.6-11.8c0-7.3,5-12.2,10.9-12.2
				C1693,207.3,1697,210.6,1697,216.4z"/>
			<path d="M1704.9,230.7c0.1-2.2,0.1-7.1,0.1-10.1v-2.3c0-2.6,0-4.1-0.1-6l-3.8-0.4v-1.7l6.5-2.9l0.7,0.5l0.6,5.6v7.2
				c0,3,0,7.9,0.1,10.1H1704.9z M1712.4,229v1.7h-11V229l5.3-1h1L1712.4,229z M1723.3,216.2v4.4c0,3.1,0,7.9,0.1,10.1h-4.1
				c0.1-2.2,0.1-7,0.1-10.1v-4c0-4.5-1.2-5.9-4-5.9c-2.4,0-4.2,1-6.9,3.3h-1v-2.2h2.4l-2.1,0.9c2.3-3,6-5.4,9.3-5.4
				C1721.3,207.3,1723.3,209.8,1723.3,216.2z M1722,228l4.8,1v1.7h-11V229l5.3-1H1722z M1737.7,215.6v4.9c0,3.1,0,7.9,0.1,10.1h-4.1
				c0.1-2.2,0.1-7,0.1-10.1v-4.1c0-4.5-1.2-5.8-4.1-5.8c-2.2,0-4.2,0.9-6.9,3.3h-1.2v-1.7h2.6l-2.2,0.4c2.5-3.6,6-5.4,9.5-5.4
				C1735.4,207.3,1737.7,209.7,1737.7,215.6z M1736.4,228l4.8,1v1.7h-11V229l5.3-1H1736.4z"/>
			<path d="M1764.6,216.4c0,1.1-0.1,2.1-0.3,2.7h-17.7v-2h11.4c2.3,0,2.8-1.1,2.8-2.4c0-2.7-2.3-5.2-5.3-5.2c-3.1,0-6.6,2.6-6.6,9.5
				c0,6.1,3.1,9.4,7.9,9.4c3.1,0,5-1.4,6.7-3.4l1.1,0.9c-1.7,3.4-4.8,5.6-9.2,5.6c-6.4,0-10.6-4.5-10.6-11.8c0-7.3,5-12.2,10.9-12.2
				C1760.7,207.3,1764.6,210.6,1764.6,216.4z"/>
			<path d="M1564.7,258v-1.9h13.4v1.9l-6.2,0.7h-1L1564.7,258z M1571.9,285.6l6.2,0.7v1.9h-13.4v-1.9l6.2-0.7H1571.9z M1569.3,271
				c0-4.9,0-9.9-0.1-14.9h4.6c-0.1,4.8-0.1,9.8-0.1,14.9v2.4c0,4.9,0,9.9,0.1,14.9h-4.6c0.1-4.8,0.1-9.8,0.1-14.9V271z"/>
			<path d="M1593.4,286.2c2.4,0,4.1-1.1,6.3-3.9l0.4,1.3c-1.8,3.3-4.1,5.2-7.8,5.2c-5.9,0-9.8-4.8-9.8-11.8
				c0-7.3,4.3-12.2,10.2-12.2c2.7,0,5.1,1.1,7.6,4.8l-0.5,1.2c-2.8-2.7-4.7-3.5-6.5-3.5c-3.6,0-6.7,2.9-6.7,9.5
				C1586.6,283.4,1589.5,286.2,1593.4,286.2z M1606.7,286.6v1.7l-7.3,0.5l-0.5-4.9v-14.1l0.1-0.6v-12.1l-4.1-0.5v-1.7l7.3-2.2
				l0.7,0.4l-0.2,6.8v28.3l-0.8-2.4L1606.7,286.6z"/>
			<path d="M1629.5,274c0,1.1-0.1,2.1-0.3,2.7h-17.7v-2h11.4c2.3,0,2.8-1.1,2.8-2.4c0-2.7-2.3-5.2-5.3-5.2c-3.1,0-6.6,2.6-6.6,9.5
				c0,6.1,3.1,9.4,7.9,9.4c3.1,0,5-1.4,6.7-3.4l1.1,0.9c-1.7,3.4-4.8,5.6-9.2,5.6c-6.4,0-10.6-4.5-10.6-11.8c0-7.3,5-12.2,10.9-12.2
				C1625.5,264.9,1629.5,268.2,1629.5,274z"/>
			<path d="M1637.4,288.3c0.1-2.2,0.1-7.1,0.1-10.1v-2.3c0-2.6,0-4.1-0.1-6l-3.8-0.4v-1.7l6.5-2.9l0.7,0.5l0.6,5.6v7.2
				c0,3,0,7.9,0.1,10.1H1637.4z M1644.9,286.6v1.7h-11v-1.7l5.3-1h1L1644.9,286.6z M1656,273.8v4.4c0,3.1,0,7.9,0.1,10.1h-4.1
				c0.1-2.2,0.1-7,0.1-10.1v-4c0-4.5-1.2-5.9-4-5.9c-2.4,0-4.4,1-7.1,3.3h-1v-2.2h2.4l-2.1,0.9c2.3-3,6.1-5.4,9.5-5.4
				C1654,264.9,1656,267.4,1656,273.8z M1654.7,285.6l4.8,1v1.7h-11v-1.7l5.3-1H1654.7z"/>
			<path d="M1671.9,286.5c1.1,0,2-0.4,3.3-1.3l1.1,1.3c-1.2,1.5-3.2,2.4-5.6,2.4c-3.3,0-5.4-1.7-5.4-5.4c0-1.2,0-2.2,0-4V268h-4
				v-2.1l6-0.8l-1.9,1.6l1.4-7.8h2.8l-0.4,8.4v15.6C1669.2,285.4,1670.3,286.5,1671.9,286.5z M1675.8,265.5v2.5h-8.5v-2.5H1675.8z"
				/>
			<path d="M1681.8,288.3c0.1-2.2,0.1-7.1,0.1-10.1v-2.3c0-2.6,0-4.1-0.1-6l-3.9-0.4v-1.7l7.2-2.9l0.7,0.5l-0.1,6.5v6.3
				c0,3,0,7.9,0.1,10.1H1681.8z M1689.1,286.6v1.7h-11v-1.7l5.3-1h1L1689.1,286.6z M1680.6,256.4c0-1.8,1.4-3,3.2-3s3.2,1.2,3.2,3
				c0,1.8-1.4,3-3.2,3S1680.6,258.2,1680.6,256.4z"/>
			<path d="M1696.4,278.2V268h-4v-2.1l5.4-0.7l-1.4,0.7c0.5-5.5,1.2-8.5,3.9-10.9c2.3-2.1,5-2.7,7.6-2.7c4.2,0,7.5,1.9,7.5,4.8
				c-0.2,1-1.1,1.8-2.4,1.8c-1.2,0-2.1-0.7-3-1.9l-2.5-3.4l1.1,0.4c-2.6,0-4.9,0.9-6.3,2.4c-1.9,2-2.5,5.1-2.1,11v10.8
				c0,3.4,0,6.7,0.1,10.1h-4.1C1696.3,284.9,1696.4,281.5,1696.4,278.2z M1692.4,286.6l5.4-1h1l5.9,1v1.7h-12.3V286.6z
				 M1698.3,265.5h15.3v2.5h-15.3V265.5z M1711.4,278.2v-2.4c0-3.4,0-5.3-0.1-7.8l-3.8-0.2v-1.7l7.2-1.2l0.7,0.5l-0.1,6.2v6.6
				c0,3,0,7.9,0.1,10.1h-4.1C1711.4,286.1,1711.4,281.2,1711.4,278.2z M1707.7,286.6l5.3-1h1l4.8,1v1.7h-11V286.6z"/>
			<path d="M1726.3,276.5c0,6,3.2,9.4,7.7,9.4c2.8,0,5.2-1.3,6.7-3.7l1.2,0.6c-1.3,4-4.4,6.2-8.9,6.2c-6.6,0-10.7-4.6-10.7-12
				c0-7.5,5.3-12,11-12c4.3,0,7.8,2.6,8.4,6.2c-0.2,1.2-1,1.8-2.2,1.8c-1.6,0-2.2-1-2.5-2.2l-1.2-4.2l2.2,1.8
				c-1.6-0.9-3.3-1.2-4.6-1.2C1729.3,267,1726.3,270.4,1726.3,276.5z"/>
			<path d="M1753.7,275.7c2-0.7,5-1.6,7.4-2v1.7c-2.2,0.4-5,1.3-6.4,1.9c-4.3,1.7-4.8,3.5-4.8,4.9c0,2.5,1.7,3.6,3.9,3.6
				c1.7,0,2.6-0.6,5.7-2.8l1-0.7l0.7,1l-1.4,1.4c-2.9,2.9-4.5,4.2-7.4,4.2c-3.5,0-6.4-2-6.4-6C1745.8,280.2,1747.2,278,1753.7,275.7
				z M1759.2,283.8v-10.9c0-4.7-1.3-5.9-4.5-5.9c-1.1,0-2.5,0.1-4.3,0.9l1.9-1.5l-1.2,4.1c-0.4,1.4-1.2,2.2-2.4,2.2
				c-1.3,0-2.1-0.7-2.2-1.9c0.9-3.6,4.5-5.9,9.3-5.9c4.9,0,7.3,2.3,7.3,8.3v10.2c0,2.2,0.7,2.9,1.8,2.9c0.8,0,1.3-0.4,1.9-1.1l1,1.1
				c-1.2,1.8-2.4,2.4-4.1,2.4C1760.9,288.7,1759.2,286.8,1759.2,283.8z"/>
			<path d="M1779,286.5c1.1,0,2-0.4,3.3-1.3l1.1,1.3c-1.2,1.5-3.2,2.4-5.6,2.4c-3.3,0-5.4-1.7-5.4-5.4c0-1.2,0-2.2,0-4V268h-4v-2.1
				l6-0.8l-1.9,1.6l1.4-7.8h2.8l-0.4,8.4v15.6C1776.3,285.4,1777.3,286.5,1779,286.5z M1782.9,265.5v2.5h-8.5v-2.5H1782.9z"/>
			<path d="M1788.8,288.3c0.1-2.2,0.1-7.1,0.1-10.1v-2.3c0-2.6,0-4.1-0.1-6l-3.9-0.4v-1.7l7.2-2.9l0.7,0.5l-0.1,6.5v6.3
				c0,3,0,7.9,0.1,10.1H1788.8z M1796.2,286.6v1.7h-11v-1.7l5.3-1h1L1796.2,286.6z M1787.6,256.4c0-1.8,1.4-3,3.2-3s3.2,1.2,3.2,3
				c0,1.8-1.4,3-3.2,3S1787.6,258.2,1787.6,256.4z"/>
			<path d="M1799.9,277c0-8,5.4-12.1,10.9-12.1c5.4,0,10.9,4.1,10.9,12.1c0,8-5.5,11.9-10.9,11.9
				C1805.4,288.9,1799.9,284.9,1799.9,277z M1817.5,277c0-6.4-2.4-9.9-6.6-9.9c-4.3,0-6.6,3.5-6.6,9.9c0,6.4,2.4,9.7,6.6,9.7
				C1815,286.7,1817.5,283.4,1817.5,277z"/>
			<path d="M1829.5,288.3c0.1-2.2,0.1-7.1,0.1-10.1v-2.3c0-2.6,0-4.1-0.1-6l-3.8-0.4v-1.7l6.5-2.9l0.7,0.5l0.6,5.6v7.2
				c0,3,0,7.9,0.1,10.1H1829.5z M1837,286.6v1.7h-11v-1.7l5.3-1h1L1837,286.6z M1848.1,273.8v4.4c0,3.1,0,7.9,0.1,10.1h-4.1
				c0.1-2.2,0.1-7,0.1-10.1v-4c0-4.5-1.2-5.9-4-5.9c-2.4,0-4.4,1-7.1,3.3h-1v-2.2h2.4l-2.1,0.9c2.3-3,6.1-5.4,9.5-5.4
				C1846.2,264.9,1848.1,267.4,1848.1,273.8z M1846.8,285.6l4.8,1v1.7h-11v-1.7l5.3-1H1846.8z"/>
		</g>
	</g>
</g>
<g>
	<g>
		<g>
			<path d="M86.3,613.9l5-0.7h1l5.5,0.7v1.9H86.3V613.9z M89.3,585.1l3,1.2l-5.8-0.7v-1.9h7.2l19.9,27.4v5.1h-1.5L89.3,585.1z
				 M90.4,583.7l2.4,1.9v30.2h-2.4V583.7z M106.2,583.7h11.5v1.9l-4.8,0.7h-1l-5.8-0.7V583.7z M111.3,583.7h2.4v32.5l-2.4-2.4V583.7
				z"/>
			<path d="M129.7,603.2c2-0.7,5-1.6,7.4-2v1.7c-2.2,0.4-5,1.3-6.4,1.9c-4.3,1.7-4.8,3.5-4.8,4.9c0,2.5,1.7,3.6,3.9,3.6
				c1.7,0,2.6-0.6,5.7-2.8l1-0.7l0.7,1l-1.4,1.4c-2.9,2.9-4.5,4.2-7.4,4.2c-3.5,0-6.4-2-6.4-6C121.9,607.8,123.3,605.6,129.7,603.2z
				 M135.3,611.4v-10.9c0-4.7-1.3-5.9-4.5-5.9c-1.1,0-2.5,0.1-4.3,0.9l1.9-1.5l-1.2,4.1c-0.4,1.4-1.2,2.2-2.4,2.2
				c-1.3,0-2.1-0.7-2.2-1.9c0.9-3.6,4.5-5.9,9.3-5.9c4.9,0,7.3,2.3,7.3,8.3v10.2c0,2.2,0.7,2.9,1.8,2.9c0.8,0,1.3-0.4,1.9-1.1l1,1.1
				c-1.2,1.8-2.4,2.4-4.1,2.4C137,616.3,135.3,614.4,135.3,611.4z"/>
			<path d="M155,614c1.1,0,2-0.4,3.3-1.3l1.1,1.3c-1.2,1.5-3.2,2.4-5.6,2.4c-3.3,0-5.4-1.7-5.4-5.4c0-1.2,0-2.2,0-4v-11.4h-4v-2.1
				l6-0.8l-1.9,1.6l1.4-7.8h2.8l-0.4,8.4v15.6C152.3,613,153.4,614,155,614z M159,593.1v2.5h-8.5v-2.5H159z"/>
			<path d="M167.9,607.3c0,4.3,1.2,5.8,3.9,5.8c2.4,0,4.9-1.2,7.3-3.6h1v2.4h-2.4l1.7-0.7c-2.7,3.7-6,5.2-9.1,5.2
				c-3.8,0-6.2-2.3-6.2-8.6l0.1-12.7l1,0.9l-4.5-1v-1.7l6.9-0.6l0.5,0.5l-0.2,6.7V607.3z M179.3,616.2l-0.7-5.6l0.1-15.5l1,0.9
				l-4.5-1v-1.7l6.8-0.6l0.5,0.5l-0.1,6.7v14.4l-1.2-1.2l4.5,1v1.7L179.3,616.2z"/>
			<path d="M193.1,605.7v-2.3c0-2.6,0-4.1-0.1-6l-3.8-0.4v-1.7l6.5-2.9l0.7,0.5l0.6,6v6.8c0,3,0,7.9,0.1,10.1H193
				C193.1,613.7,193.1,608.7,193.1,605.7z M189.5,614.1l5.3-1h1l5.3,1v1.7h-11.5V614.1z M195.1,599.3h2.7l-1.2,0.3
				c1.5-4.5,4.5-7.2,7.3-7.2c1.4,0,2.8,0.7,3.4,1.6c0,2.3-0.9,3.5-2.8,3.5c-1.1,0-2-0.4-2.9-1.2l-1.3-1.1l2.4-0.5
				c-3,1.5-4.7,3.9-5.8,7.6h-1.8V599.3z"/>
			<path d="M217.7,603.2c2-0.7,5-1.6,7.4-2v1.7c-2.2,0.4-5,1.3-6.4,1.9c-4.3,1.7-4.8,3.5-4.8,4.9c0,2.5,1.7,3.6,3.9,3.6
				c1.7,0,2.6-0.6,5.7-2.8l1-0.7l0.7,1l-1.4,1.4c-2.9,2.9-4.5,4.2-7.4,4.2c-3.5,0-6.4-2-6.4-6C209.9,607.8,211.3,605.6,217.7,603.2z
				 M223.2,611.4v-10.9c0-4.7-1.3-5.9-4.5-5.9c-1.1,0-2.5,0.1-4.3,0.9l1.9-1.5l-1.2,4.1c-0.4,1.4-1.2,2.2-2.4,2.2
				c-1.3,0-2.1-0.7-2.2-1.9c0.9-3.6,4.5-5.9,9.3-5.9c4.9,0,7.3,2.3,7.3,8.3v10.2c0,2.2,0.7,2.9,1.8,2.9c0.8,0,1.3-0.4,1.9-1.1l1,1.1
				c-1.2,1.8-2.4,2.4-4.1,2.4C225,616.3,223.2,614.4,223.2,611.4z"/>
			<path d="M240.6,580.3l0.7,0.4l-0.2,6.8v18.2c0,3.4,0,6.7,0.1,10.1h-4.1c0.1-3.4,0.1-6.7,0.1-10.1v-21.1l-4-0.5v-1.7L240.6,580.3z
				 M245,614.1v1.7h-11.8v-1.7l5.4-1h1L245,614.1z"/>
			<path d="M276.1,608.3c0-3.1-1.9-4.5-6-6.1l-1.8-0.7c-4.9-1.9-8.3-4.7-8.3-9.6c0-5.5,4.7-8.9,10.8-8.9c3.2,0,5.8,1,7.8,2.5
				l-0.3,6.2h-2.9l-1.3-7.2l3.1,1.6v2.4c-2.4-2.3-4.1-3.1-6.7-3.1c-3.7,0-6.6,1.9-6.6,5.5c0,3,2,4.8,5.5,6.1l1.9,0.7
				c6.3,2.4,8.8,5.2,8.8,9.7c0,5.7-4.8,9.1-11.3,9.1c-3.6,0-7.1-1.2-9.3-2.5l0.3-6.7h2.9l1.2,7.4l-3.1-1.3V611
				c3,2.2,4.6,3.1,7.9,3.1C273.1,614.1,276.1,612,276.1,608.3z"/>
			<path d="M295.9,625.7v1.7h-12.3v-1.7l5.4-1h1L295.9,625.7z M287.7,603.5c0-2.6,0-4.1-0.1-6l-3.8-0.4v-1.7l6.5-2.9l0.7,0.5
				l0.4,4.1l0.2,0.1v15l-0.1,0.3v4.8c0,3.4,0,6.8,0.1,10.2h-4c0.1-3.4,0.1-6.7,0.1-10.1V603.5z M297.5,595.1c-1.8,0-4.2,0.9-7.7,4.3
				l-0.4-0.9c2.8-4.2,5.9-6,9.2-6c5.1,0,9.1,4.5,9.1,11.9s-4.2,12.1-9.8,12.1c-2.9,0-5.9-1.3-8.4-6.3l0.4-0.8
				c2.5,3.2,4.8,4.5,7.2,4.5c3.6,0,6.6-2.8,6.6-9C303.5,598.6,301,595.1,297.5,595.1z"/>
			<path d="M331.9,601.6c0,1.1-0.1,2.1-0.3,2.7h-17.7v-2h11.4c2.3,0,2.8-1.1,2.8-2.4c0-2.7-2.3-5.2-5.3-5.2c-3.1,0-6.6,2.6-6.6,9.5
				c0,6.1,3.1,9.4,7.9,9.4c3.1,0,5-1.4,6.7-3.4l1.1,0.9c-1.7,3.4-4.8,5.6-9.2,5.6c-6.4,0-10.6-4.5-10.6-11.8c0-7.3,5-12.2,10.9-12.2
				C327.9,592.4,331.9,595.8,331.9,601.6z"/>
			<path d="M356.3,601.6c0,1.1-0.1,2.1-0.3,2.7h-17.7v-2h11.4c2.3,0,2.8-1.1,2.8-2.4c0-2.7-2.3-5.2-5.3-5.2c-3.1,0-6.6,2.6-6.6,9.5
				c0,6.1,3.1,9.4,7.9,9.4c3.1,0,5-1.4,6.7-3.4l1.1,0.9c-1.7,3.4-4.8,5.6-9.2,5.6c-6.4,0-10.6-4.5-10.6-11.8c0-7.3,5-12.2,10.9-12.2
				C352.4,592.4,356.3,595.8,356.3,601.6z"/>
			<path d="M364.7,604.1c0,6,3.2,9.4,7.7,9.4c2.8,0,5.2-1.3,6.7-3.7l1.2,0.6c-1.3,4-4.4,6.2-8.9,6.2c-6.6,0-10.7-4.6-10.7-12
				c0-7.5,5.3-12,11-12c4.3,0,7.8,2.6,8.4,6.2c-0.2,1.2-1,1.8-2.2,1.8c-1.6,0-2.2-1-2.5-2.2l-1.2-4.2l2.2,1.8
				c-1.6-0.9-3.3-1.2-4.6-1.2C367.7,594.6,364.7,597.9,364.7,604.1z"/>
			<path d="M387.2,584.6l-4-0.5v-1.7l7.2-2.2l0.7,0.4l-0.2,6.8v10.2l0.1,0.6v7.4c0,3,0,7.9,0.1,10.1h-4.1c0.1-2.2,0.1-7.1,0.1-10.1
				V584.6z M394.5,614.1v1.7h-11v-1.7l5.3-1h1L394.5,614.1z M405.8,601.3v4.4c0,3.1,0,7.9,0.1,10.1h-4.1c0.1-2.2,0.1-7,0.1-10.1v-4
				c0-4.5-1.2-5.9-4-5.9c-2.4,0-4.4,0.9-7.1,3.3h-1v-2.2h2.4l-2.2,0.9c2.3-3,6.2-5.4,9.6-5.4C403.9,592.4,405.8,595,405.8,601.3z
				 M404.5,613.2l4.8,1v1.7h-11v-1.7l5.3-1H404.5z"/>
		</g>
	</g>
</g>
<g>
	<g>
		<g>
			<path class="st1" d="M568.9,585.6v-1.9h6.7v2.6h-0.5L568.9,585.6z M575.6,613.2v2.6h-6.7v-1.9l6.2-0.7H575.6z M573.4,598.5
				c0-4.9,0-9.9-0.1-14.9h4.6c-0.1,4.8-0.1,9.8-0.1,14.9v1.8c0,5.5,0,10.5,0.1,15.5h-4.6c0.1-4.8,0.1-9.8,0.1-14.9V598.5z
				 M588.9,583.7l2.2,2.4h-15.5v-2.4h17.1l0.3,8.5h-2.7L588.9,583.7z M586.4,600.5h-10.8v-2.2h10.8V600.5z M594,607.3l-0.3,8.5
				h-18.1v-2.4H592l-2.2,2.4l1.5-8.5H594z M584.9,598.8l0.7-5.1h2.2v11.4h-2.2l-0.7-5.3V598.8z"/>
			<path class="st1" d="M598.2,614.6l-0.2-5.2h2.5l1.3,5.7l-2.4-1.1v-1.6c1.7,1.3,3.5,2,5.9,2c3.7,0,5.4-1.5,5.4-3.7
				c0-2.1-1.4-3.1-4.5-4.2l-2.2-0.8c-3.5-1.3-5.8-3.2-5.8-6.4c0-3.5,2.9-6.7,8.3-6.7c2.6,0,4.6,0.7,6.7,2l-0.2,4.8h-2.4l-1-4.8
				l1.7,0.8v1.2c-1.5-1.2-3.2-1.8-4.9-1.8c-3,0-4.5,1.3-4.5,3.3c0,2.2,1.2,3,4.5,4.2l1.4,0.5c4.8,1.8,6.6,4,6.6,7
				c0,3.6-3.1,6.8-9.3,6.8C602.6,616.4,600.5,615.8,598.2,614.6z"/>
			<path class="st1" d="M627.5,614c1.1,0,2-0.4,3.3-1.3l1.1,1.3c-1.2,1.5-3.2,2.4-5.6,2.4c-3.3,0-5.4-1.7-5.4-5.4c0-1.2,0-2.2,0-4
				v-11.4h-4v-2.1l6-0.8l-1.9,1.6l1.4-7.8h2.8l-0.4,8.4v15.6C624.8,613,625.8,614,627.5,614z M631.4,593.1v2.5h-8.5v-2.5H631.4z"/>
			<path class="st1" d="M637.3,615.8c0.1-2.2,0.1-7.1,0.1-10.1v-2.3c0-2.6,0-4.1-0.1-6l-3.9-0.4v-1.7l7.2-2.9l0.7,0.5l-0.1,6.5v6.3
				c0,3,0,7.9,0.1,10.1H637.3z M644.7,614.1v1.7h-11v-1.7l5.3-1h1L644.7,614.1z M636.1,584c0-1.8,1.4-3,3.2-3c1.8,0,3.2,1.2,3.2,3
				c0,1.8-1.4,3-3.2,3C637.5,587,636.1,585.8,636.1,584z"/>
			<path class="st1" d="M651.8,615.8c0.1-2.2,0.1-7.1,0.1-10.1v-2.3c0-2.6,0-4.1-0.1-6l-3.8-0.4v-1.7l6.5-2.9l0.7,0.5l0.6,5.6v7.2
				c0,3,0,7.9,0.1,10.1H651.8z M659.3,614.1v1.7h-11v-1.7l5.3-1h1L659.3,614.1z M670.1,601.3v4.4c0,3.1,0,7.9,0.1,10.1h-4.1
				c0.1-2.2,0.1-7,0.1-10.1v-4c0-4.5-1.2-5.9-4-5.9c-2.4,0-4.2,1-6.9,3.3h-1v-2.2h2.4l-2.1,0.9c2.3-3,6-5.4,9.3-5.4
				C668.2,592.4,670.1,595,670.1,601.3z M668.9,613.2l4.8,1v1.7h-11v-1.7l5.3-1H668.9z M684.5,600.8v4.9c0,3.1,0,7.9,0.1,10.1h-4.1
				c0.1-2.2,0.1-7,0.1-10.1v-4.1c0-4.5-1.2-5.8-4.1-5.8c-2.2,0-4.2,0.9-6.9,3.3h-1.2v-1.7h2.6l-2.2,0.4c2.5-3.6,6-5.4,9.5-5.4
				C682.3,592.4,684.5,594.8,684.5,600.8z M683.3,613.2l4.8,1v1.7h-11v-1.7l5.3-1H683.3z"/>
			<path class="st1" d="M699.6,603.2c2-0.7,5-1.6,7.4-2v1.7c-2.2,0.4-5,1.3-6.4,1.9c-4.3,1.7-4.8,3.5-4.8,4.9c0,2.5,1.7,3.6,3.9,3.6
				c1.7,0,2.6-0.6,5.7-2.8l1-0.7l0.7,1l-1.4,1.4c-2.9,2.9-4.5,4.2-7.4,4.2c-3.5,0-6.4-2-6.4-6C691.7,607.8,693.1,605.6,699.6,603.2z
				 M705.1,611.4v-10.9c0-4.7-1.3-5.9-4.5-5.9c-1.1,0-2.5,0.1-4.3,0.9l1.9-1.5l-1.2,4.1c-0.4,1.4-1.2,2.2-2.4,2.2
				c-1.3,0-2.1-0.7-2.2-1.9c0.9-3.6,4.5-5.9,9.3-5.9c4.9,0,7.3,2.3,7.3,8.3v10.2c0,2.2,0.7,2.9,1.8,2.9c0.8,0,1.3-0.4,1.9-1.1l1,1.1
				c-1.2,1.8-2.4,2.4-4.1,2.4C706.8,616.3,705.1,614.4,705.1,611.4z"/>
			<path class="st1" d="M724.9,614c1.1,0,2-0.4,3.3-1.3l1.1,1.3c-1.2,1.5-3.2,2.4-5.6,2.4c-3.3,0-5.4-1.7-5.4-5.4c0-1.2,0-2.2,0-4
				v-11.4h-4v-2.1l6-0.8l-1.9,1.6l1.4-7.8h2.8l-0.4,8.4v15.6C722.2,613,723.2,614,724.9,614z M728.8,593.1v2.5h-8.5v-2.5H728.8z"/>
			<path class="st1" d="M751.4,601.6c0,1.1-0.1,2.1-0.3,2.7h-17.7v-2h11.4c2.3,0,2.8-1.1,2.8-2.4c0-2.7-2.3-5.2-5.3-5.2
				c-3.1,0-6.6,2.6-6.6,9.5c0,6.1,3.1,9.4,7.9,9.4c3.1,0,5-1.4,6.7-3.4l1.1,0.9c-1.7,3.4-4.8,5.6-9.2,5.6c-6.4,0-10.6-4.5-10.6-11.8
				c0-7.3,5-12.2,10.9-12.2C747.5,592.4,751.4,595.8,751.4,601.6z"/>
			<path d="M792.3,611.1v2.6l-3,0.7l1.2-7.1h2.9l-0.2,7c-3,1.6-6.3,2.3-9.7,2.3c-9.7,0-16.2-7-16.2-16.8c0-9.6,6.8-16.8,16.2-16.8
				c2.6,0,6,0.4,9.3,2.3l0.2,7h-2.9l-1.2-7.1l3,0.7v2.9c-2.7-2.5-5.4-3.4-7.7-3.4c-6.5,0-11.7,5-11.7,14.4c0,9.4,4.7,14.4,11.4,14.4
				C786.5,614.1,789.6,613.3,792.3,611.1z"/>
			<path d="M803.7,607.3c0,4.3,1.2,5.8,3.9,5.8c2.4,0,4.9-1.2,7.3-3.6h1v2.4h-2.4l1.7-0.7c-2.7,3.7-6,5.2-9.1,5.2
				c-3.8,0-6.2-2.3-6.2-8.6l0.1-12.7l1,0.9l-4.5-1v-1.7l6.9-0.6l0.5,0.5l-0.2,6.7V607.3z M815.2,616.2l-0.7-5.6l0.1-15.5l1,0.9
				l-4.5-1v-1.7l6.8-0.6l0.5,0.5l-0.1,6.7v14.4l-1.2-1.2l4.5,1v1.7L815.2,616.2z"/>
			<path d="M845.3,601.6c0,1.1-0.1,2.1-0.3,2.7h-17.7v-2h11.4c2.3,0,2.8-1.1,2.8-2.4c0-2.7-2.3-5.2-5.3-5.2c-3.1,0-6.6,2.6-6.6,9.5
				c0,6.1,3.1,9.4,7.9,9.4c3.1,0,5-1.4,6.7-3.4l1.1,0.9c-1.7,3.4-4.8,5.6-9.2,5.6c-6.4,0-10.6-4.5-10.6-11.8c0-7.3,5-12.2,10.9-12.2
				C841.4,592.4,845.3,595.8,845.3,601.6z"/>
			<path d="M850.2,614.6l-0.2-5.2h2.5l1.3,5.7l-2.4-1.1v-1.6c1.7,1.3,3.5,2,5.9,2c3.7,0,5.4-1.5,5.4-3.7c0-2.1-1.4-3.1-4.5-4.2
				l-2.2-0.8c-3.5-1.3-5.8-3.2-5.8-6.4c0-3.5,2.9-6.7,8.3-6.7c2.6,0,4.6,0.7,6.7,2l-0.2,4.8h-2.4l-1-4.8l1.7,0.8v1.2
				c-1.5-1.2-3.2-1.8-4.9-1.8c-3,0-4.5,1.3-4.5,3.3c0,2.2,1.2,3,4.5,4.2l1.4,0.5c4.8,1.8,6.6,4,6.6,7c0,3.6-3.1,6.8-9.3,6.8
				C854.7,616.4,852.6,615.8,850.2,614.6z"/>
		</g>
	</g>
	<g>
		<g>
			<path d="M569.8,658.5h13.2v2.5h-10.3v7.7h8.8v2.5h-8.8v10.3h-2.9V658.5z"/>
			<path d="M586.9,664.4h2.4l0.2,3.1h0.1c1.2-2.2,2.9-3.5,4.8-3.5c0.8,0,1.3,0.1,1.8,0.3l-0.5,2.5c-0.6-0.2-1-0.3-1.7-0.3
				c-1.4,0-3.2,1-4.3,3.9v10.9h-2.9V664.4z"/>
			<path d="M597.7,673c0-5.7,3.7-8.9,7.9-8.9s7.9,3.3,7.9,8.9c0,5.6-3.7,8.9-7.9,8.9S597.7,678.6,597.7,673z M610.5,673
				c0-3.9-2-6.6-4.9-6.6s-4.9,2.7-4.9,6.6s2,6.5,4.9,6.5S610.5,676.9,610.5,673z"/>
			<path d="M618,664.4h2.4l0.2,2.5h0.1c1.5-1.6,3.3-2.9,5.3-2.9c2.6,0,4,1.2,4.7,3.2c1.8-1.9,3.5-3.2,5.6-3.2c3.5,0,5.2,2.3,5.2,6.7
				v10.8h-2.9V671c0-3.2-1-4.5-3.2-4.5c-1.3,0-2.7,0.9-4.3,2.6v12.3h-2.9V671c0-3.2-1-4.5-3.2-4.5c-1.3,0-2.7,0.9-4.3,2.6v12.3H618
				V664.4z"/>
			<path d="M651.5,664.4h3l3.2,9.7c0.5,1.7,1.1,3.4,1.6,5h0.1c0.5-1.6,1.1-3.4,1.6-5l3.2-9.7h2.8l-6,17h-3.3L651.5,664.4z"/>
			<path d="M669.3,677c0-3.7,3.2-5.6,10.5-6.3c0-2.2-0.7-4.3-3.5-4.3c-2,0-3.7,0.9-5.1,1.8l-1.1-2c1.6-1,4-2.2,6.7-2.2
				c4.2,0,5.9,2.8,5.9,7v10.4h-2.4l-0.2-2h-0.1c-1.6,1.3-3.5,2.5-5.6,2.5C671.4,681.9,669.3,680.1,669.3,677z M679.7,677.3v-4.7
				c-5.7,0.7-7.6,2.1-7.6,4.3c0,1.9,1.3,2.7,3,2.7C676.7,679.6,678.1,678.8,679.7,677.3z"/>
			<path d="M688,664.4h2.4l0.2,3.1h0.1c1.2-2.2,2.9-3.5,4.8-3.5c0.8,0,1.3,0.1,1.8,0.3l-0.5,2.5c-0.6-0.2-1-0.3-1.7-0.3
				c-1.4,0-3.2,1-4.3,3.9v10.9H688V664.4z"/>
			<path d="M699.6,659.1c0-1.1,0.9-1.9,2-1.9s2,0.7,2,1.9c0,1.1-0.9,1.9-2,1.9S699.6,660.2,699.6,659.1z M700.1,664.4h2.9v17h-2.9
				V664.4z"/>
			<path d="M707.7,677c0-3.7,3.2-5.6,10.5-6.3c0-2.2-0.7-4.3-3.5-4.3c-2,0-3.7,0.9-5.1,1.8l-1.1-2c1.6-1,4-2.2,6.7-2.2
				c4.2,0,5.9,2.8,5.9,7v10.4h-2.4l-0.2-2h-0.1c-1.6,1.3-3.5,2.5-5.6,2.5C709.8,681.9,707.7,680.1,707.7,677z M718.1,677.3v-4.7
				c-5.7,0.7-7.6,2.1-7.6,4.3c0,1.9,1.3,2.7,3,2.7C715.1,679.6,716.5,678.8,718.1,677.3z"/>
			<path d="M726.4,664.4h2.4l0.2,2.5h0.1c1.6-1.6,3.4-2.9,5.7-2.9c3.6,0,5.2,2.3,5.2,6.7v10.8h-2.9V671c0-3.2-1-4.5-3.2-4.5
				c-1.7,0-2.9,0.9-4.7,2.6v12.3h-2.9V664.4z"/>
			<path d="M744.3,673c0-5.7,3.8-8.9,8.2-8.9c2.2,0,3.8,0.9,5,2l-1.5,1.9c-1-0.9-2-1.5-3.4-1.5c-3.1,0-5.3,2.7-5.3,6.6
				s2.1,6.5,5.3,6.5c1.6,0,2.9-0.8,4-1.7l1.2,1.9c-1.5,1.4-3.5,2.2-5.5,2.2C747.7,681.9,744.3,678.6,744.3,673z"/>
			<path d="M760.2,673c0-5.5,3.7-8.9,7.6-8.9c4.3,0,6.8,3.1,6.8,8c0,0.6-0.1,1.2-0.1,1.6h-11.5c0.2,3.6,2.4,5.9,5.7,5.9
				c1.6,0,3-0.5,4.2-1.4l1,1.9c-1.5,1-3.3,1.8-5.6,1.8C763.8,681.9,760.2,678.6,760.2,673z M772.1,671.6c0-3.4-1.5-5.3-4.2-5.3
				c-2.4,0-4.5,1.9-4.9,5.3H772.1z"/>
			<path d="M785.3,659.1c0-1.1,0.9-1.9,2-1.9s2,0.7,2,1.9c0,1.1-0.9,1.9-2,1.9S785.3,660.2,785.3,659.1z M785.8,664.4h2.9v17h-2.9
				V664.4z"/>
			<path d="M794.4,664.4h2.4l0.2,2.5h0.1c1.6-1.6,3.4-2.9,5.7-2.9c3.6,0,5.2,2.3,5.2,6.7v10.8h-2.9V671c0-3.2-1-4.5-3.2-4.5
				c-1.7,0-2.9,0.9-4.7,2.6v12.3h-2.9V664.4z"/>
			<path d="M570.1,718.2v-9.4h-2.5v-2.2l2.7-0.2l0.3-4.8h2.4v4.8h4.6v2.3H573v9.5c0,2.1,0.7,3.3,2.6,3.3c0.6,0,1.4-0.2,1.9-0.5
				l0.6,2.2c-1,0.3-2.1,0.6-3.2,0.6C571.3,723.9,570.1,721.6,570.1,718.2z"/>
			<path d="M581.4,706.4h2.4l0.2,3.1h0.1c1.2-2.2,2.9-3.5,4.8-3.5c0.8,0,1.3,0.1,1.8,0.3l-0.5,2.5c-0.6-0.2-1-0.3-1.7-0.3
				c-1.4,0-3.2,1-4.3,3.9v10.9h-2.9V706.4z"/>
			<path d="M592.5,719c0-3.7,3.2-5.6,10.5-6.3c0-2.2-0.7-4.3-3.5-4.3c-2,0-3.7,0.9-5.1,1.8l-1.1-2c1.6-1,4-2.2,6.7-2.2
				c4.2,0,5.9,2.8,5.9,7v10.4h-2.4l-0.2-2h-0.1c-1.6,1.3-3.5,2.5-5.6,2.5C594.6,723.9,592.5,722.1,592.5,719z M602.9,719.3v-4.7
				c-5.7,0.7-7.6,2.1-7.6,4.3c0,1.9,1.3,2.7,3,2.7C599.9,721.6,601.3,720.8,602.9,719.3z"/>
			<path d="M610.7,701.1c0-1.1,0.9-1.9,2-1.9s2,0.7,2,1.9c0,1.1-0.9,1.9-2,1.9S610.7,702.2,610.7,701.1z M611.2,706.4h2.9v17h-2.9
				V706.4z"/>
			<path d="M619.8,706.4h2.4l0.2,2.5h0.1c1.6-1.6,3.4-2.9,5.7-2.9c3.6,0,5.2,2.3,5.2,6.7v10.8h-2.9V713c0-3.2-1-4.5-3.2-4.5
				c-1.7,0-2.9,0.9-4.7,2.6v12.3h-2.9V706.4z"/>
			<path d="M638.4,701.1c0-1.1,0.9-1.9,2-1.9s2,0.7,2,1.9c0,1.1-0.9,1.9-2,1.9S638.4,702.2,638.4,701.1z M638.9,706.4h2.9v17h-2.9
				V706.4z"/>
			<path d="M647.6,706.4h2.4l0.2,2.5h0.1c1.6-1.6,3.4-2.9,5.7-2.9c3.6,0,5.2,2.3,5.2,6.7v10.8h-2.9V713c0-3.2-1-4.5-3.2-4.5
				c-1.7,0-2.9,0.9-4.7,2.6v12.3h-2.9V706.4z"/>
			<path d="M665.4,726.7c0-1.5,0.9-2.8,2.5-3.8v-0.1c-0.9-0.5-1.5-1.5-1.5-2.8c0-1.4,1-2.5,1.9-3.2v-0.1c-1.1-0.9-2.2-2.5-2.2-4.6
				c0-3.7,2.9-6.1,6.4-6.1c0.9,0,1.8,0.2,2.4,0.4h5.9v2.2h-3.5c0.8,0.8,1.4,2,1.4,3.5c0,3.6-2.8,5.9-6.2,5.9c-0.8,0-1.8-0.2-2.5-0.6
				c-0.6,0.5-1.1,1.1-1.1,2c0,1.1,0.7,1.8,3,1.8h3.3c4,0,5.9,1.2,5.9,4.1c0,3.2-3.3,5.9-8.6,5.9
				C668.3,731.3,665.4,729.7,665.4,726.7z M678.2,725.8c0-1.6-1.2-2.1-3.4-2.1h-2.9c-0.6,0-1.5-0.1-2.2-0.3
				c-1.2,0.9-1.7,1.9-1.7,2.9c0,1.8,1.8,3,4.9,3C676.1,729.3,678.2,727.6,678.2,725.8z M676.1,712.1c0-2.5-1.6-4-3.6-4
				s-3.6,1.5-3.6,4c0,2.5,1.7,4,3.6,4S676.1,714.6,676.1,712.1z"/>
			<path d="M690.1,715c0-5.5,3.5-8.9,7.4-8.9c2,0,3.3,0.7,4.8,2l-0.1-2.9v-6.6h2.9v24.9h-2.4l-0.2-2h-0.1c-1.3,1.3-3.1,2.4-5.2,2.4
				C692.9,723.9,690.1,720.6,690.1,715z M702.1,719.1v-8.9c-1.5-1.3-2.8-1.8-4.1-1.8c-2.7,0-4.9,2.6-4.9,6.5c0,4.1,1.7,6.5,4.7,6.5
				C699.3,721.5,700.7,720.7,702.1,719.1z"/>
			<path d="M709.7,719c0-3.7,3.2-5.6,10.5-6.3c0-2.2-0.7-4.3-3.5-4.3c-2,0-3.7,0.9-5.1,1.8l-1.1-2c1.6-1,4-2.2,6.7-2.2
				c4.2,0,5.9,2.8,5.9,7v10.4h-2.4l-0.2-2h-0.1c-1.6,1.3-3.5,2.5-5.6,2.5C711.8,723.9,709.7,722.1,709.7,719z M720.2,719.3v-4.7
				c-5.7,0.7-7.6,2.1-7.6,4.3c0,1.9,1.3,2.7,3,2.7C717.2,721.6,718.5,720.8,720.2,719.3z"/>
			<path d="M728.9,718.2v-9.4h-2.5v-2.2l2.7-0.2l0.3-4.8h2.4v4.8h4.6v2.3h-4.6v9.5c0,2.1,0.7,3.3,2.6,3.3c0.6,0,1.4-0.2,1.9-0.5
				l0.6,2.2c-1,0.3-2.1,0.6-3.2,0.6C730.1,723.9,728.9,721.6,728.9,718.2z"/>
			<path d="M739.2,719c0-3.7,3.2-5.6,10.5-6.3c0-2.2-0.7-4.3-3.5-4.3c-2,0-3.7,0.9-5.1,1.8l-1.1-2c1.6-1,4-2.2,6.7-2.2
				c4.2,0,5.9,2.8,5.9,7v10.4h-2.4l-0.2-2h-0.1c-1.6,1.3-3.5,2.5-5.6,2.5C741.3,723.9,739.2,722.1,739.2,719z M749.6,719.3v-4.7
				c-5.7,0.7-7.6,2.1-7.6,4.3c0,1.9,1.3,2.7,3,2.7C746.6,721.6,748,720.8,749.6,719.3z"/>
			<path d="M763.1,717.5c0-6.8,10.5-7.9,10.5-12.9c0-1.3-0.6-2.5-2.2-2.5c-1.7,0-2.8,1.4-2.8,3.3c0,4.3,4.7,10,9.1,13.3
				c1.8,1.4,3.6,2.3,5.1,2.7l-0.8,2.4c-1.8-0.5-3.9-1.6-6-3.2c-5-3.9-9.9-10.3-9.9-15.2c0-3.1,2.1-5.5,5.3-5.5
				c2.8,0,4.5,1.9,4.5,4.5c0,5.9-10,7.7-10,12.7c0,2.6,2,4.2,4.5,4.2c1.9,0,3.7-1.1,5.3-2.7c1.9-2,3.3-4.7,4.1-7.8h2.7
				c-1,3.4-2.6,6.6-4.8,9.2c-1.9,2.1-4.4,3.6-7.6,3.6C766,723.9,763.1,721.2,763.1,717.5z"/>
			<path d="M569.6,748.4h2.4l0.2,2h0.1c1.5-1.3,3.5-2.4,5.4-2.4c4.4,0,6.7,3.4,6.7,8.7c0,5.8-3.5,9.2-7.4,9.2c-1.6,0-3.2-0.7-4.7-2
				l0.1,3v5.8h-2.9V748.4z M581.5,756.7c0-3.8-1.3-6.3-4.5-6.3c-1.4,0-2.9,0.8-4.5,2.3v8.9c1.5,1.3,3,1.8,4.1,1.8
				C579.4,763.5,581.5,760.9,581.5,756.7z"/>
			<path d="M587.7,757c0-5.5,3.7-9,7.6-9c4.3,0,6.8,3.1,6.8,8c0,0.6-0.1,1.2-0.1,1.6h-11.5c0.2,3.6,2.4,5.9,5.7,5.9
				c1.6,0,3-0.5,4.2-1.4l1,1.9c-1.5,1-3.3,1.8-5.6,1.8C591.3,765.9,587.7,762.6,587.7,757z M599.6,755.6c0-3.4-1.5-5.3-4.2-5.3
				c-2.4,0-4.5,1.9-4.9,5.3H599.6z"/>
			<path d="M606.4,748.4h2.4l0.2,3.1h0.1c1.2-2.2,2.9-3.5,4.8-3.5c0.8,0,1.3,0.1,1.8,0.4l-0.5,2.5c-0.6-0.2-1-0.3-1.7-0.3
				c-1.4,0-3.2,1-4.3,3.9v10.9h-2.9V748.4z"/>
			<path d="M619,760.2v-9.4h-2.5v-2.2l2.7-0.2l0.3-4.8h2.4v4.8h4.6v2.3h-4.6v9.5c0,2.1,0.7,3.3,2.6,3.3c0.6,0,1.4-0.2,1.9-0.5
				l0.6,2.2c-1,0.3-2.1,0.6-3.2,0.6C620.2,765.9,619,763.6,619,760.2z"/>
			<path d="M630.1,759.2v-10.8h2.9v10.4c0,3.2,1,4.5,3.2,4.5c1.7,0,2.9-0.9,4.6-2.9v-12.1h2.9v17h-2.4l-0.2-2.7h-0.1
				c-1.6,1.9-3.3,3.1-5.6,3.1C631.7,765.9,630.1,763.6,630.1,759.2z"/>
			<path d="M649.4,748.4h2.4l0.2,3.1h0.1c1.2-2.2,2.9-3.5,4.8-3.5c0.8,0,1.3,0.1,1.8,0.4l-0.5,2.5c-0.6-0.2-1-0.3-1.7-0.3
				c-1.4,0-3.2,1-4.3,3.9v10.9h-2.9V748.4z"/>
			<path d="M664.2,763.7L664.2,763.7l-0.4,1.8h-2.3v-24.9h2.9v6.8l-0.1,3.1c1.6-1.3,3.5-2.4,5.3-2.4c4.4,0,6.8,3.4,6.8,8.7
				c0,5.8-3.5,9.2-7.4,9.2C667.5,765.9,665.7,765.1,664.2,763.7z M673.4,756.7c0-3.8-1.3-6.3-4.5-6.3c-1.4,0-2.9,0.8-4.5,2.3v8.9
				c1.5,1.3,3,1.8,4.1,1.8C671.4,763.5,673.4,760.9,673.4,756.7z"/>
			<path d="M679.8,761c0-3.7,3.2-5.6,10.5-6.3c0-2.2-0.7-4.3-3.5-4.3c-2,0-3.7,0.9-5.1,1.8l-1.1-2c1.6-1,4-2.2,6.7-2.2
				c4.2,0,5.9,2.8,5.9,7v10.4h-2.4l-0.2-2h-0.1c-1.6,1.3-3.5,2.5-5.6,2.5C682,765.9,679.8,764.1,679.8,761z M690.3,761.3v-4.7
				c-5.7,0.7-7.6,2.1-7.6,4.3c0,1.9,1.3,2.7,3,2.7C687.3,763.6,688.6,762.8,690.3,761.3z"/>
			<path d="M699,760.2v-9.4h-2.5v-2.2l2.7-0.2l0.3-4.8h2.4v4.8h4.6v2.3h-4.6v9.5c0,2.1,0.7,3.3,2.6,3.3c0.6,0,1.4-0.2,1.9-0.5
				l0.6,2.2c-1,0.3-2.1,0.6-3.2,0.6C700.2,765.9,699,763.6,699,760.2z"/>
			<path d="M709.8,743.1c0-1.1,0.9-1.9,2-1.9s2,0.7,2,1.9c0,1.1-0.9,1.9-2,1.9S709.8,744.2,709.8,743.1z M710.3,748.4h2.9v17h-2.9
				V748.4z"/>
			<path d="M717.7,757c0-5.7,3.7-9,7.9-9c4.2,0,7.9,3.3,7.9,9c0,5.6-3.7,8.9-7.9,8.9C721.4,765.9,717.7,762.6,717.7,757z M730.5,757
				c0-3.9-2-6.6-4.9-6.6s-4.9,2.7-4.9,6.6s2,6.5,4.9,6.5S730.5,760.9,730.5,757z"/>
			<path d="M737.9,748.4h2.4l0.2,2.5h0.1c1.6-1.6,3.4-2.9,5.7-2.9c3.6,0,5.2,2.3,5.2,6.7v10.8h-2.9V755c0-3.2-1-4.5-3.2-4.5
				c-1.7,0-2.9,0.9-4.7,2.6v12.3h-2.9V748.4z"/>
			<path d="M755.2,763.5l1.4-1.9c1.5,1.2,3,2,5,2c2.2,0,3.3-1.2,3.3-2.6c0-1.8-2-2.5-3.9-3.2c-2.4-0.9-5.1-2-5.1-4.9
				c0-2.7,2.2-4.8,5.9-4.8c2.1,0,4,0.9,5.3,1.9l-1.4,1.8c-1.2-0.9-2.4-1.5-3.9-1.5c-2.1,0-3.1,1.1-3.1,2.4c0,1.6,1.8,2.2,3.8,3
				c2.5,0.9,5.2,1.9,5.2,5.2c0,2.8-2.2,5.1-6.2,5.1C759.1,765.9,756.8,764.9,755.2,763.5z"/>
		</g>
	</g>
</g>
<g>
	<g>
		<path class="st1" d="M1038.5,586.1l2.2-2.4l-1.5,8.5h-2.7l0.4-8.5h26.2l0.4,8.5h-2.7l-1.5-8.5l2.2,2.4H1038.5z M1050.4,613.2
			l6.7,0.7v1.9h-14.4v-1.9l6.7-0.7H1050.4z M1047.8,598.5c0-4.9,0-9.9-0.1-14.9h4.6c-0.1,4.8-0.1,9.8-0.1,14.9v2.4
			c0,4.9,0,9.9,0.1,14.9h-4.6c0.1-4.8,0.1-9.8,0.1-14.9V598.5z"/>
		<path class="st1" d="M1070.1,605.7v-2.3c0-2.6,0-4.1-0.1-6l-3.8-0.4v-1.7l6.5-2.9l0.7,0.5l0.6,6v6.8c0,3,0,7.9,0.1,10.1h-4.1
			C1070,613.7,1070.1,608.7,1070.1,605.7z M1066.5,614.1l5.3-1h1l5.3,1v1.7h-11.5V614.1z M1072,599.3h2.7l-1.2,0.3
			c1.5-4.5,4.5-7.2,7.3-7.2c1.4,0,2.8,0.7,3.4,1.6c0,2.3-0.9,3.5-2.8,3.5c-1.1,0-2-0.4-2.9-1.2l-1.3-1.1l2.4-0.5
			c-3,1.5-4.7,3.9-5.8,7.6h-1.8V599.3z"/>
		<path class="st1" d="M1094.7,603.2c2-0.7,5-1.6,7.4-2v1.7c-2.2,0.4-5,1.3-6.4,1.9c-4.3,1.7-4.8,3.5-4.8,4.9c0,2.5,1.7,3.6,3.9,3.6
			c1.7,0,2.6-0.6,5.7-2.8l1-0.7l0.7,1l-1.4,1.4c-2.9,2.9-4.5,4.2-7.4,4.2c-3.5,0-6.4-2-6.4-6
			C1086.8,607.8,1088.2,605.6,1094.7,603.2z M1100.2,611.4v-10.9c0-4.7-1.3-5.9-4.5-5.9c-1.1,0-2.5,0.1-4.3,0.9l1.9-1.5l-1.2,4.1
			c-0.4,1.4-1.2,2.2-2.4,2.2s-2.1-0.7-2.2-1.9c0.9-3.6,4.5-5.9,9.3-5.9c4.9,0,7.3,2.3,7.3,8.3v10.2c0,2.2,0.7,2.9,1.8,2.9
			c0.8,0,1.3-0.4,1.9-1.1l1,1.1c-1.2,1.8-2.4,2.4-4.1,2.4C1101.9,616.3,1100.2,614.4,1100.2,611.4z"/>
		<path class="st1" d="M1114.3,615.8c0.1-2.2,0.1-7.1,0.1-10.1v-2.3c0-2.6,0-4.1-0.1-6l-3.9-0.4v-1.7l7.2-2.9l0.7,0.5l-0.1,6.5v6.3
			c0,3,0,7.9,0.1,10.1H1114.3z M1121.7,614.1v1.7h-11v-1.7l5.3-1h1L1121.7,614.1z M1113.1,584c0-1.8,1.4-3,3.2-3
			c1.8,0,3.2,1.2,3.2,3c0,1.8-1.4,3-3.2,3C1114.5,587,1113.1,585.8,1113.1,584z"/>
		<path class="st1" d="M1128.7,615.8c0.1-2.2,0.1-7.1,0.1-10.1v-2.3c0-2.6,0-4.1-0.1-6l-3.8-0.4v-1.7l6.5-2.9l0.7,0.5l0.6,5.6v7.2
			c0,3,0,7.9,0.1,10.1H1128.7z M1136.2,614.1v1.7h-11v-1.7l5.3-1h1L1136.2,614.1z M1147.3,601.3v4.4c0,3.1,0,7.9,0.1,10.1h-4.1
			c0.1-2.2,0.1-7,0.1-10.1v-4c0-4.5-1.2-5.9-4-5.9c-2.4,0-4.4,1-7.1,3.3h-1v-2.2h2.4l-2.1,0.9c2.3-3,6.1-5.4,9.5-5.4
			C1145.3,592.4,1147.3,595,1147.3,601.3z M1146,613.2l4.8,1v1.7h-11v-1.7l5.3-1H1146z"/>
		<path d="M1166.5,586.1l2.2-2.4l-1.5,8.5h-2.7l0.4-8.5h26.2l0.4,8.5h-2.7l-1.5-8.5l2.2,2.4H1166.5z M1178.4,613.2l6.7,0.7v1.9
			h-14.4v-1.9l6.7-0.7H1178.4z M1175.8,598.5c0-4.9,0-9.9-0.1-14.9h4.6c-0.1,4.8-0.1,9.8-0.1,14.9v2.4c0,4.9,0,9.9,0.1,14.9h-4.6
			c0.1-4.8,0.1-9.8,0.1-14.9V598.5z"/>
		<path d="M1194.6,604.5c0-8,5.4-12.1,10.9-12.1c5.4,0,10.9,4.1,10.9,12.1s-5.5,11.9-10.9,11.9
			C1200,616.4,1194.6,612.5,1194.6,604.5z M1212.2,604.5c0-6.4-2.4-9.9-6.6-9.9c-4.3,0-6.6,3.5-6.6,9.9s2.4,9.7,6.6,9.7
			C1209.7,614.3,1212.2,611,1212.2,604.5z"/>
		<path d="M1232.1,585.6v-1.9h13.4v1.9l-6.2,0.7h-1L1232.1,585.6z M1239.3,613.2l6.2,0.7v1.9h-13.4v-1.9l6.2-0.7H1239.3z
			 M1236.6,598.5c0-4.9,0-9.9-0.1-14.9h4.6c-0.1,4.8-0.1,9.8-0.1,14.9v2.4c0,4.9,0,9.9,0.1,14.9h-4.6c0.1-4.8,0.1-9.8,0.1-14.9
			V598.5z"/>
		<path d="M1260.7,613.8c2.4,0,4.1-1.1,6.3-3.9l0.4,1.3c-1.8,3.3-4.1,5.2-7.8,5.2c-5.9,0-9.8-4.8-9.8-11.8c0-7.3,4.3-12.2,10.2-12.2
			c2.7,0,5.1,1.1,7.6,4.8l-0.5,1.2c-2.8-2.7-4.7-3.5-6.5-3.5c-3.6,0-6.7,2.9-6.7,9.5C1254,610.9,1256.8,613.8,1260.7,613.8z
			 M1274.1,614.1v1.7l-7.3,0.5l-0.5-4.9v-14.1l0.1-0.6v-12.1l-4.1-0.5v-1.7l7.3-2.2l0.7,0.4l-0.2,6.8v28.3l-0.8-2.4L1274.1,614.1z"
			/>
		<path d="M1296.8,601.6c0,1.1-0.1,2.1-0.3,2.7h-17.7v-2h11.4c2.3,0,2.8-1.1,2.8-2.4c0-2.7-2.3-5.2-5.3-5.2c-3.1,0-6.6,2.6-6.6,9.5
			c0,6.1,3.1,9.4,7.9,9.4c3.1,0,5-1.4,6.7-3.4l1.1,0.9c-1.7,3.4-4.8,5.6-9.2,5.6c-6.4,0-10.6-4.5-10.6-11.8c0-7.3,5-12.2,10.9-12.2
			C1292.9,592.4,1296.8,595.8,1296.8,601.6z"/>
		<path d="M1304.7,615.8c0.1-2.2,0.1-7.1,0.1-10.1v-2.3c0-2.6,0-4.1-0.1-6l-3.8-0.4v-1.7l6.5-2.9l0.7,0.5l0.6,5.6v7.2
			c0,3,0,7.9,0.1,10.1H1304.7z M1312.2,614.1v1.7h-11v-1.7l5.3-1h1L1312.2,614.1z M1323.3,601.3v4.4c0,3.1,0,7.9,0.1,10.1h-4.1
			c0.1-2.2,0.1-7,0.1-10.1v-4c0-4.5-1.2-5.9-4-5.9c-2.4,0-4.4,1-7.1,3.3h-1v-2.2h2.4l-2.1,0.9c2.3-3,6.1-5.4,9.5-5.4
			C1321.4,592.4,1323.3,595,1323.3,601.3z M1322,613.2l4.8,1v1.7h-11v-1.7l5.3-1H1322z"/>
		<path d="M1339.3,614c1.1,0,2-0.4,3.3-1.3l1.1,1.3c-1.2,1.5-3.2,2.4-5.6,2.4c-3.3,0-5.4-1.7-5.4-5.4c0-1.2,0-2.2,0-4v-11.4h-4v-2.1
			l6-0.8l-1.9,1.6l1.4-7.8h2.8l-0.4,8.4v15.6C1336.6,613,1337.6,614,1339.3,614z M1343.2,593.1v2.5h-8.5v-2.5H1343.2z"/>
		<path d="M1349.1,615.8c0.1-2.2,0.1-7.1,0.1-10.1v-2.3c0-2.6,0-4.1-0.1-6l-3.9-0.4v-1.7l7.2-2.9l0.7,0.5l-0.1,6.5v6.3
			c0,3,0,7.9,0.1,10.1H1349.1z M1356.5,614.1v1.7h-11v-1.7l5.3-1h1L1356.5,614.1z M1347.9,584c0-1.8,1.4-3,3.2-3s3.2,1.2,3.2,3
			c0,1.8-1.4,3-3.2,3S1347.9,585.8,1347.9,584z"/>
		<path d="M1363.7,595.6h-4v-2.1l5.4-0.7l-1.4,0.7c0.5-5.5,1.2-8.4,3.4-10.8c2.1-2.3,4.5-2.9,6.7-2.9c2.3,0,4.1,0.7,4.6,2.5
			c-0.1,1.2-1.2,2.1-2.9,2.1c-1.2,0-2.3-0.5-3.4-1.3l-2.4-1.8l4-1l1.1,1.4c-0.5-0.3-1.3-0.6-1.9-0.6c-1.4,0-3.1,1.1-4,2.7
			c-1.1,1.9-1.8,5.1-1.4,11v10.8c0,3.4,0,6.7,0.1,10.1h-4.1c0.1-3.4,0.1-6.7,0.1-10.1V595.6z M1372,614.1v1.7h-12.3v-1.7l5.4-1h1
			L1372,614.1z M1374.2,593.1v2.5h-8.5v-2.5H1374.2z"/>
		<path d="M1375,624.6c0.3-1.3,1.7-2,3.2-2c1.2,0,2.2,0.5,3.5,1.8l1.5,1.5l-1.9,1.1l-1.3-1.1c3.2-1.6,5.1-4.9,6.3-8.3l1.5-4.2
			l7.4-20.4h2.6l-8.5,22.5c-3.3,8.6-6,12.3-9.9,12.3C1377,627.8,1375,626.5,1375,624.6z M1379.9,595.5l-4.7-0.7v-1.7h11.4v1.7
			l-5.8,0.7H1379.9z M1387.1,618.3l-10-25.2h4.5l7.5,20.4L1387.1,618.3z M1395.2,595.5l-5.1-0.7v-1.7h9.4v1.7l-3.4,0.7H1395.2z"/>
		<path class="st1" d="M1037.4,671.5l5-0.7h1l5.5,0.7v1.9h-11.5V671.5z M1040.5,642.7l3,1.2l-5.8-0.7v-1.9h7.2l19.9,27.4v5.1h-1.5
			L1040.5,642.7z M1041.5,641.3l2.4,1.9v30.2h-2.4V641.3z M1057.4,641.3h11.5v1.9l-4.8,0.7h-1l-5.8-0.7V641.3z M1062.4,641.3h2.4
			v32.5l-2.4-2.4V641.3z"/>
		<path class="st1" d="M1080.9,660.8c2-0.7,5-1.6,7.4-2v1.7c-2.2,0.4-5,1.3-6.4,1.9c-4.3,1.7-4.8,3.5-4.8,4.9c0,2.5,1.7,3.6,3.9,3.6
			c1.7,0,2.6-0.6,5.7-2.8l1-0.7l0.7,1l-1.4,1.4c-2.9,2.9-4.5,4.2-7.4,4.2c-3.5,0-6.4-2-6.4-6C1073,665.4,1074.4,663.2,1080.9,660.8z
			 M1086.4,669v-10.9c0-4.7-1.3-5.9-4.5-5.9c-1.1,0-2.5,0.1-4.3,0.9l1.9-1.5l-1.2,4.1c-0.4,1.4-1.2,2.2-2.4,2.2s-2.1-0.7-2.2-1.9
			c0.9-3.6,4.5-5.9,9.3-5.9c4.9,0,7.3,2.3,7.3,8.3v10.2c0,2.2,0.7,2.9,1.8,2.9c0.8,0,1.3-0.4,1.9-1.1l1,1.1
			c-1.2,1.8-2.4,2.4-4.1,2.4C1088.1,673.9,1086.4,672,1086.4,669z"/>
		<path class="st1" d="M1106.2,671.6c1.1,0,2-0.4,3.3-1.3l1.1,1.3c-1.2,1.5-3.2,2.4-5.6,2.4c-3.3,0-5.4-1.7-5.4-5.4c0-1.2,0-2.2,0-4
			v-11.4h-4v-2.1l6-0.8l-1.9,1.6l1.4-7.8h2.8l-0.4,8.4v15.6C1103.5,670.6,1104.5,671.6,1106.2,671.6z M1110.1,650.7v2.5h-8.5v-2.5
			H1110.1z"/>
		<path class="st1" d="M1119,664.9c0,4.3,1.2,5.8,3.9,5.8c2.4,0,4.9-1.2,7.3-3.6h1v2.4h-2.4l1.7-0.7c-2.7,3.7-6,5.2-9.1,5.2
			c-3.8,0-6.2-2.3-6.2-8.6l0.1-12.7l1,0.9l-4.5-1V651l6.9-0.6l0.5,0.5l-0.2,6.7V664.9z M1130.5,673.8l-0.7-5.6l0.1-15.5l1,0.9
			l-4.5-1V651l6.8-0.6l0.5,0.5l-0.1,6.7v14.4l-1.2-1.2l4.5,1v1.7L1130.5,673.8z"/>
		<path class="st1" d="M1144.3,663.3v-2.3c0-2.6,0-4.1-0.1-6l-3.8-0.4v-1.7l6.5-2.9l0.7,0.5l0.6,6v6.8c0,3,0,7.9,0.1,10.1h-4.1
			C1144.2,671.3,1144.3,666.3,1144.3,663.3z M1140.7,671.7l5.3-1h1l5.3,1v1.7h-11.5V671.7z M1146.2,656.9h2.7l-1.2,0.3
			c1.5-4.5,4.5-7.2,7.3-7.2c1.4,0,2.8,0.7,3.4,1.6c0,2.3-0.9,3.5-2.8,3.5c-1.1,0-2-0.4-2.9-1.2l-1.3-1.1l2.4-0.5
			c-3,1.5-4.7,3.9-5.8,7.6h-1.8V656.9z"/>
		<path class="st1" d="M1168.9,660.8c2-0.7,5-1.6,7.4-2v1.7c-2.2,0.4-5,1.3-6.4,1.9c-4.3,1.7-4.8,3.5-4.8,4.9c0,2.5,1.7,3.6,3.9,3.6
			c1.7,0,2.6-0.6,5.7-2.8l1-0.7l0.7,1l-1.4,1.4c-2.9,2.9-4.5,4.2-7.4,4.2c-3.5,0-6.4-2-6.4-6C1161,665.4,1162.4,663.2,1168.9,660.8z
			 M1174.4,669v-10.9c0-4.7-1.3-5.9-4.5-5.9c-1.1,0-2.5,0.1-4.3,0.9l1.9-1.5l-1.2,4.1c-0.4,1.4-1.2,2.2-2.4,2.2
			c-1.3,0-2.1-0.7-2.2-1.9c0.9-3.6,4.5-5.9,9.3-5.9c4.9,0,7.3,2.3,7.3,8.3v10.2c0,2.2,0.7,2.9,1.8,2.9c0.8,0,1.3-0.4,1.9-1.1l1,1.1
			c-1.2,1.8-2.4,2.4-4.1,2.4C1176.1,673.9,1174.4,672,1174.4,669z"/>
		<path class="st1" d="M1191.7,637.9l0.7,0.4l-0.2,6.8v18.2c0,3.4,0,6.7,0.1,10.1h-4.1c0.1-3.4,0.1-6.7,0.1-10.1v-21.1l-4-0.5v-1.7
			L1191.7,637.9z M1196.2,671.7v1.7h-11.8v-1.7l5.4-1h1L1196.2,671.7z"/>
		<path class="st1" d="M1205.9,637.9l0.7,0.4l-0.2,6.8v18.2c0,3.4,0,6.7,0.1,10.1h-4.1c0.1-3.4,0.1-6.7,0.1-10.1v-21.1l-4-0.5v-1.7
			L1205.9,637.9z M1210.4,671.7v1.7h-11.8v-1.7l5.4-1h1L1210.4,671.7z"/>
		<path class="st1" d="M1211.6,682.2c0.3-1.3,1.7-2,3.2-2c1.2,0,2.2,0.5,3.5,1.8l1.5,1.5l-1.9,1.1l-1.3-1.1c3.2-1.6,5.1-4.9,6.3-8.3
			l1.5-4.2l7.4-20.4h2.6l-8.5,22.5c-3.3,8.6-6,12.3-9.9,12.3C1213.6,685.4,1211.6,684.1,1211.6,682.2z M1216.5,653.1l-4.7-0.7v-1.7
			h11.4v1.7l-5.8,0.7H1216.5z M1223.6,675.9l-10-25.2h4.5l7.5,20.5L1223.6,675.9z M1231.8,653.1l-5.1-0.7v-1.7h9.4v1.7l-3.4,0.7
			H1231.8z"/>
		<path class="st1" d="M1249.5,643.2v-1.9h6.7v2.6h-0.5L1249.5,643.2z M1256.7,670.8l6.2,0.7v1.9h-13.4v-1.9l6.2-0.7H1256.7z
			 M1254.1,656.1c0-4.9,0-9.9-0.1-14.9h4.6c-0.1,4.8-0.1,9.8-0.1,14.9v2.9c0,4.9,0,9.4,0.1,14.4h-4.6c0.1-4.8,0.1-9.8,0.1-14.9
			V656.1z M1261,660.7h-4.8v-2.2h5.5c5.9,0,8.2-3.1,8.2-7.7c0-4.7-2.6-7.3-8.4-7.3h-5.3v-2.2h6.2c8,0,12,3.9,12,9.6
			C1274.5,656.2,1270.8,660.7,1261,660.7z"/>
		<path class="st1" d="M1281.2,663.3v-2.3c0-2.6,0-4.1-0.1-6l-3.8-0.4v-1.7l6.5-2.9l0.7,0.5l0.6,6v6.8c0,3,0,7.9,0.1,10.1h-4.1
			C1281.2,671.3,1281.2,666.3,1281.2,663.3z M1277.6,671.7l5.3-1h1l5.3,1v1.7h-11.5V671.7z M1283.1,656.9h2.7l-1.2,0.3
			c1.5-4.5,4.5-7.2,7.3-7.2c1.4,0,2.8,0.7,3.4,1.6c0,2.3-0.9,3.5-2.8,3.5c-1.1,0-2-0.4-2.9-1.2l-1.3-1.1l2.4-0.5
			c-3,1.5-4.7,3.9-5.8,7.6h-1.8V656.9z"/>
		<path class="st1" d="M1297.9,662.1c0-8,5.4-12.1,10.9-12.1c5.4,0,10.9,4.1,10.9,12.1c0,8-5.5,11.9-10.9,11.9
			C1303.4,674,1297.9,670.1,1297.9,662.1z M1315.5,662.1c0-6.4-2.4-9.9-6.6-9.9c-4.3,0-6.6,3.5-6.6,9.9c0,6.4,2.4,9.7,6.6,9.7
			C1313,671.9,1315.5,668.6,1315.5,662.1z"/>
		<path class="st1" d="M1335.1,671.4c2.4,0,4.1-1.1,6.3-3.9l0.4,1.3c-1.8,3.3-4.1,5.2-7.8,5.2c-5.9,0-9.8-4.8-9.8-11.8
			c0-7.3,4.3-12.2,10.2-12.2c2.7,0,5.1,1.1,7.6,4.8l-0.5,1.2c-2.8-2.7-4.7-3.5-6.5-3.5c-3.6,0-6.7,2.9-6.7,9.5
			C1328.3,668.5,1331.2,671.4,1335.1,671.4z M1348.4,671.7v1.7l-7.3,0.5l-0.5-4.9v-14.1l0.1-0.6v-12.1l-4.1-0.5v-1.7l7.3-2.2
			l0.7,0.4l-0.2,6.8v28.3l-0.8-2.4L1348.4,671.7z"/>
		<path class="st1" d="M1357.5,664.9c0,4.3,1.2,5.8,3.9,5.8c2.4,0,4.9-1.2,7.3-3.6h1v2.4h-2.4l1.7-0.7c-2.7,3.7-6,5.2-9.1,5.2
			c-3.8,0-6.2-2.3-6.2-8.6l0.1-12.7l1,0.9l-4.5-1V651l6.9-0.6l0.5,0.5l-0.2,6.7V664.9z M1368.9,673.8l-0.7-5.6l0.1-15.5l1,0.9
			l-4.5-1V651l6.8-0.6l0.5,0.5l-0.1,6.7v14.4l-1.2-1.2l4.5,1v1.7L1368.9,673.8z"/>
		<path class="st1" d="M1383.1,661.7c0,6,3.2,9.4,7.7,9.4c2.8,0,5.2-1.3,6.7-3.7l1.2,0.6c-1.3,4-4.4,6.2-8.9,6.2
			c-6.6,0-10.7-4.6-10.7-12c0-7.5,5.3-12,11-12c4.3,0,7.8,2.6,8.4,6.2c-0.2,1.2-1,1.8-2.2,1.8c-1.6,0-2.2-1-2.5-2.2l-1.2-4.2
			l2.2,1.8c-1.6-0.9-3.3-1.2-4.6-1.2C1386.1,652.2,1383.1,655.5,1383.1,661.7z"/>
		<path class="st1" d="M1422.4,659.2c0,1.1-0.1,2.1-0.3,2.7h-17.7v-2h11.4c2.3,0,2.8-1.1,2.8-2.4c0-2.7-2.3-5.2-5.3-5.2
			c-3.1,0-6.6,2.6-6.6,9.5c0,6.1,3.1,9.4,7.9,9.4c3.1,0,5-1.4,6.7-3.4l1.1,0.9c-1.7,3.4-4.8,5.6-9.2,5.6c-6.4,0-10.6-4.5-10.6-11.8
			c0-7.3,5-12.2,10.9-12.2C1418.5,650,1422.4,653.4,1422.4,659.2z"/>
		<path class="st1" d="M1437.9,671.4c2.4,0,4.1-1.1,6.3-3.9l0.4,1.3c-1.8,3.3-4.1,5.2-7.8,5.2c-5.9,0-9.8-4.8-9.8-11.8
			c0-7.3,4.3-12.2,10.2-12.2c2.7,0,5.1,1.1,7.6,4.8l-0.5,1.2c-2.8-2.7-4.7-3.5-6.5-3.5c-3.6,0-6.7,2.9-6.7,9.5
			C1431.1,668.5,1434,671.4,1437.9,671.4z M1451.2,671.7v1.7l-7.3,0.5l-0.5-4.9v-14.1l0.1-0.6v-12.1l-4.1-0.5v-1.7l7.3-2.2l0.7,0.4
			l-0.2,6.8v28.3l-0.8-2.4L1451.2,671.7z"/>
		<path d="M1037.7,700.8v-1.9h6.7v2.6h-0.5L1037.7,700.8z M1044.9,728.4l6.2,0.7v1.9h-13.4v-1.9l6.2-0.7H1044.9z M1042.2,713.7
			c0-4.9,0-9.9-0.1-14.9h4.6c-0.1,4.8-0.1,9.8-0.1,14.9v2.9c0,4.9,0,9.4,0.1,14.4h-4.6c0.1-4.8,0.1-9.8,0.1-14.9V713.7z
			 M1049.1,718.3h-4.8v-2.2h5.5c5.9,0,8.2-3.1,8.2-7.7c0-4.7-2.6-7.3-8.4-7.3h-5.3v-2.2h6.2c8,0,12,3.9,12,9.6
			C1062.6,713.8,1058.9,718.3,1049.1,718.3z"/>
		<path d="M1068.9,699.8l-4-0.5v-1.7l7.2-2.2l0.7,0.4l-0.2,6.8v10.2l0.1,0.6v7.4c0,3,0,7.9,0.1,10.1h-4.1c0.1-2.2,0.1-7.1,0.1-10.1
			V699.8z M1076.2,729.3v1.7h-11v-1.7l5.3-1h1L1076.2,729.3z M1087.5,716.5v4.4c0,3.1,0,7.9,0.1,10.1h-4.1c0.1-2.2,0.1-7,0.1-10.1
			v-4c0-4.5-1.2-5.9-4-5.9c-2.4,0-4.4,0.9-7.1,3.3h-1v-2.2h2.4l-2.2,0.9c2.3-3,6.2-5.4,9.6-5.4
			C1085.6,707.6,1087.5,710.2,1087.5,716.5z M1086.3,728.4l4.8,1v1.7h-11v-1.7l5.3-1H1086.3z"/>
		<path d="M1094.7,719.7c0-8,5.4-12.1,10.9-12.1c5.4,0,10.9,4.1,10.9,12.1s-5.5,11.9-10.9,11.9
			C1100.2,731.6,1094.7,727.7,1094.7,719.7z M1112.3,719.7c0-6.4-2.4-9.9-6.6-9.9c-4.3,0-6.6,3.5-6.6,9.9s2.4,9.7,6.6,9.7
			C1109.9,729.5,1112.3,726.2,1112.3,719.7z"/>
		<path d="M1124.4,731c0.1-2.2,0.1-7.1,0.1-10.1v-2.3c0-2.6,0-4.1-0.1-6l-3.8-0.4v-1.7l6.5-2.9l0.7,0.5l0.6,5.6v7.2
			c0,3,0,7.9,0.1,10.1H1124.4z M1131.9,729.3v1.7h-11v-1.7l5.3-1h1L1131.9,729.3z M1142.9,716.5v4.4c0,3.1,0,7.9,0.1,10.1h-4.1
			c0.1-2.2,0.1-7,0.1-10.1v-4c0-4.5-1.2-5.9-4-5.9c-2.4,0-4.4,1-7.1,3.3h-1v-2.2h2.4l-2.1,0.9c2.3-3,6.1-5.4,9.5-5.4
			C1141,707.6,1142.9,710.2,1142.9,716.5z M1141.6,728.4l4.8,1v1.7h-11v-1.7l5.3-1H1141.6z"/>
		<path d="M1169.9,716.8c0,1.1-0.1,2.1-0.3,2.7h-17.7v-2h11.4c2.3,0,2.8-1.1,2.8-2.4c0-2.7-2.3-5.2-5.3-5.2c-3.1,0-6.6,2.6-6.6,9.5
			c0,6.1,3.1,9.4,7.9,9.4c3.1,0,5-1.4,6.7-3.4l1.1,0.9c-1.7,3.4-4.8,5.6-9.2,5.6c-6.4,0-10.6-4.5-10.6-11.8c0-7.3,5-12.2,10.9-12.2
			C1166,707.6,1169.9,711,1169.9,716.8z"/>
		<path d="M1177.8,731c0.1-2.2,0.1-7.1,0.1-10.1v-2.3c0-2.6,0-4.1-0.1-6l-3.8-0.4v-1.7l6.5-2.9l0.7,0.5l0.6,5.6v7.2
			c0,3,0,7.9,0.1,10.1H1177.8z M1185.3,729.3v1.7h-11v-1.7l5.3-1h1L1185.3,729.3z M1196.2,716.5v4.4c0,3.1,0,7.9,0.1,10.1h-4.1
			c0.1-2.2,0.1-7,0.1-10.1v-4c0-4.5-1.2-5.9-4-5.9c-2.4,0-4.2,1-6.9,3.3h-1v-2.2h2.4l-2.1,0.9c2.3-3,6-5.4,9.3-5.4
			C1194.2,707.6,1196.2,710.2,1196.2,716.5z M1194.9,728.4l4.8,1v1.7h-11v-1.7l5.3-1H1194.9z M1210.6,716v4.9c0,3.1,0,7.9,0.1,10.1
			h-4.1c0.1-2.2,0.1-7,0.1-10.1v-4.1c0-4.5-1.2-5.8-4.1-5.8c-2.2,0-4.2,0.9-6.9,3.3h-1.2v-1.7h2.6l-2.2,0.4c2.5-3.6,6-5.4,9.5-5.4
			C1208.4,707.6,1210.6,710,1210.6,716z M1209.3,728.4l4.8,1v1.7h-11v-1.7l5.3-1H1209.3z"/>
		<path d="M1237.6,716.8c0,1.1-0.1,2.1-0.3,2.7h-17.7v-2h11.4c2.3,0,2.8-1.1,2.8-2.4c0-2.7-2.3-5.2-5.3-5.2c-3.1,0-6.6,2.6-6.6,9.5
			c0,6.1,3.1,9.4,7.9,9.4c3.1,0,5-1.4,6.7-3.4l1.1,0.9c-1.7,3.4-4.8,5.6-9.2,5.6c-6.4,0-10.6-4.5-10.6-11.8c0-7.3,5-12.2,10.9-12.2
			C1233.7,707.6,1237.6,711,1237.6,716.8z"/>
		<path d="M1242.5,729.8l-0.2-5.2h2.5l1.3,5.7l-2.4-1.1v-1.6c1.7,1.3,3.5,2,5.9,2c3.7,0,5.4-1.5,5.4-3.7c0-2.1-1.4-3.1-4.5-4.2
			l-2.2-0.8c-3.5-1.3-5.8-3.2-5.8-6.4c0-3.5,2.9-6.7,8.3-6.7c2.6,0,4.6,0.7,6.7,2l-0.2,4.8h-2.4l-1-4.8l1.7,0.8v1.2
			c-1.5-1.2-3.2-1.8-4.9-1.8c-3,0-4.5,1.3-4.5,3.3c0,2.2,1.2,3,4.5,4.2l1.4,0.5c4.8,1.8,6.6,4,6.6,7c0,3.6-3.1,6.8-9.3,6.8
			C1246.9,731.6,1244.8,731,1242.5,729.8z"/>
	</g>
</g>
<g>
	<g>
		<g>
			<path d="M1565.6,586.1l2.2-2.4l-1.5,8.5h-2.7l0.4-8.5h26.2l0.4,8.5h-2.7l-1.5-8.5l2.2,2.4H1565.6z M1577.5,613.2l6.7,0.7v1.9
				h-14.4v-1.9l6.7-0.7H1577.5z M1574.9,598.5c0-4.9,0-9.9-0.1-14.9h4.6c-0.1,4.8-0.1,9.8-0.1,14.9v2.4c0,4.9,0,9.9,0.1,14.9h-4.6
				c0.1-4.8,0.1-9.8,0.1-14.9V598.5z"/>
			<path d="M1613.5,601.6c0,1.1-0.1,2.1-0.3,2.7h-17.7v-2h11.4c2.3,0,2.8-1.1,2.8-2.4c0-2.7-2.3-5.2-5.3-5.2c-3.1,0-6.6,2.6-6.6,9.5
				c0,6.1,3.1,9.4,7.9,9.4c3.1,0,5-1.4,6.7-3.4l1.1,0.9c-1.7,3.4-4.8,5.6-9.2,5.6c-6.4,0-10.6-4.5-10.6-11.8c0-7.3,5-12.2,10.9-12.2
				C1609.6,592.4,1613.5,595.8,1613.5,601.6z"/>
			<path d="M1618.4,614.6l-0.2-5.2h2.5l1.3,5.7l-2.4-1.1v-1.6c1.7,1.3,3.5,2,5.9,2c3.7,0,5.4-1.5,5.4-3.7c0-2.1-1.4-3.1-4.5-4.2
				l-2.2-0.8c-3.5-1.3-5.8-3.2-5.8-6.4c0-3.5,2.9-6.7,8.3-6.7c2.6,0,4.6,0.7,6.7,2l-0.2,4.8h-2.4l-1-4.8l1.7,0.8v1.2
				c-1.5-1.2-3.2-1.8-4.9-1.8c-3,0-4.5,1.3-4.5,3.3c0,2.2,1.2,3,4.5,4.2l1.4,0.5c4.8,1.8,6.6,4,6.6,7c0,3.6-3.1,6.8-9.3,6.8
				C1622.8,616.4,1620.7,615.8,1618.4,614.6z"/>
			<path d="M1647.7,614c1.1,0,2-0.4,3.3-1.3l1.1,1.3c-1.2,1.5-3.2,2.4-5.6,2.4c-3.3,0-5.4-1.7-5.4-5.4c0-1.2,0-2.2,0-4v-11.4h-4
				v-2.1l6-0.8l-1.9,1.6l1.4-7.8h2.8l-0.4,8.4v15.6C1645,613,1646,614,1647.7,614z M1651.6,593.1v2.5h-8.5v-2.5H1651.6z"/>
			<path d="M1564.7,643.2v-1.9h6.7v2.6h-0.5L1564.7,643.2z M1571.9,670.8l6.2,0.7v1.9h-13.4v-1.9l6.2-0.7H1571.9z M1569.3,656.1
				c0-4.9,0-9.9-0.1-14.9h4.6c-0.1,4.8-0.1,9.8-0.1,14.9v2.9c0,4.9,0,9.4,0.1,14.4h-4.6c0.1-4.8,0.1-9.8,0.1-14.9V656.1z
				 M1576.2,660.7h-4.8v-2.2h5.5c5.9,0,8.2-3.1,8.2-7.7c0-4.7-2.6-7.3-8.4-7.3h-5.3v-2.2h6.2c8,0,12,3.9,12,9.6
				C1589.7,656.2,1586,660.7,1576.2,660.7z"/>
			<path d="M1596,642.2l-4-0.5v-1.7l7.2-2.2l0.7,0.4l-0.2,6.8v10.2l0.1,0.6v7.4c0,3,0,7.9,0.1,10.1h-4.1c0.1-2.2,0.1-7.1,0.1-10.1
				V642.2z M1603.3,671.7v1.7h-11v-1.7l5.3-1h1L1603.3,671.7z M1614.6,658.9v4.4c0,3.1,0,7.9,0.1,10.1h-4.1c0.1-2.2,0.1-7,0.1-10.1
				v-4c0-4.5-1.2-5.9-4-5.9c-2.4,0-4.4,0.9-7.1,3.3h-1v-2.2h2.4l-2.2,0.9c2.3-3,6.2-5.4,9.6-5.4
				C1612.6,650,1614.6,652.6,1614.6,658.9z M1613.3,670.8l4.8,1v1.7h-11v-1.7l5.3-1H1613.3z"/>
			<path d="M1621.8,662.1c0-8,5.4-12.1,10.9-12.1c5.4,0,10.9,4.1,10.9,12.1s-5.5,11.9-10.9,11.9
				C1627.2,674,1621.8,670.1,1621.8,662.1z M1639.4,662.1c0-6.4-2.4-9.9-6.6-9.9c-4.3,0-6.6,3.5-6.6,9.9s2.4,9.7,6.6,9.7
				C1636.9,671.9,1639.4,668.6,1639.4,662.1z"/>
			<path d="M1651.4,673.4c0.1-2.2,0.1-7.1,0.1-10.1v-2.3c0-2.6,0-4.1-0.1-6l-3.8-0.4v-1.7l6.5-2.9l0.7,0.5l0.6,5.6v7.2
				c0,3,0,7.9,0.1,10.1H1651.4z M1658.9,671.7v1.7h-11v-1.7l5.3-1h1L1658.9,671.7z M1670,658.9v4.4c0,3.1,0,7.9,0.1,10.1h-4.1
				c0.1-2.2,0.1-7,0.1-10.1v-4c0-4.5-1.2-5.9-4-5.9c-2.4,0-4.4,1-7.1,3.3h-1v-2.2h2.4l-2.1,0.9c2.3-3,6.1-5.4,9.5-5.4
				C1668,650,1670,652.6,1670,658.9z M1668.7,670.8l4.8,1v1.7h-11v-1.7l5.3-1H1668.7z"/>
			<path d="M1697,659.2c0,1.1-0.1,2.1-0.3,2.7h-17.7v-2h11.4c2.3,0,2.8-1.1,2.8-2.4c0-2.7-2.3-5.2-5.3-5.2c-3.1,0-6.6,2.6-6.6,9.5
				c0,6.1,3.1,9.4,7.9,9.4c3.1,0,5-1.4,6.7-3.4l1.1,0.9c-1.7,3.4-4.8,5.6-9.2,5.6c-6.4,0-10.6-4.5-10.6-11.8c0-7.3,5-12.2,10.9-12.2
				C1693,650,1697,653.4,1697,659.2z"/>
			<path d="M1704.9,673.4c0.1-2.2,0.1-7.1,0.1-10.1v-2.3c0-2.6,0-4.1-0.1-6l-3.8-0.4v-1.7l6.5-2.9l0.7,0.5l0.6,5.6v7.2
				c0,3,0,7.9,0.1,10.1H1704.9z M1712.4,671.7v1.7h-11v-1.7l5.3-1h1L1712.4,671.7z M1723.3,658.9v4.4c0,3.1,0,7.9,0.1,10.1h-4.1
				c0.1-2.2,0.1-7,0.1-10.1v-4c0-4.5-1.2-5.9-4-5.9c-2.4,0-4.2,1-6.9,3.3h-1v-2.2h2.4l-2.1,0.9c2.3-3,6-5.4,9.3-5.4
				C1721.3,650,1723.3,652.6,1723.3,658.9z M1722,670.8l4.8,1v1.7h-11v-1.7l5.3-1H1722z M1737.7,658.4v4.9c0,3.1,0,7.9,0.1,10.1
				h-4.1c0.1-2.2,0.1-7,0.1-10.1v-4.1c0-4.5-1.2-5.8-4.1-5.8c-2.2,0-4.2,0.9-6.9,3.3h-1.2V655h2.6l-2.2,0.4c2.5-3.6,6-5.4,9.5-5.4
				C1735.4,650,1737.7,652.4,1737.7,658.4z M1736.4,670.8l4.8,1v1.7h-11v-1.7l5.3-1H1736.4z"/>
			<path d="M1764.6,659.2c0,1.1-0.1,2.1-0.3,2.7h-17.7v-2h11.4c2.3,0,2.8-1.1,2.8-2.4c0-2.7-2.3-5.2-5.3-5.2c-3.1,0-6.6,2.6-6.6,9.5
				c0,6.1,3.1,9.4,7.9,9.4c3.1,0,5-1.4,6.7-3.4l1.1,0.9c-1.7,3.4-4.8,5.6-9.2,5.6c-6.4,0-10.6-4.5-10.6-11.8c0-7.3,5-12.2,10.9-12.2
				C1760.7,650,1764.6,653.4,1764.6,659.2z"/>
			<path d="M1564.7,700.8v-1.9h13.4v1.9l-6.2,0.7h-1L1564.7,700.8z M1571.9,728.4l6.2,0.7v1.9h-13.4v-1.9l6.2-0.7H1571.9z
				 M1569.3,713.7c0-4.9,0-9.9-0.1-14.9h4.6c-0.1,4.8-0.1,9.8-0.1,14.9v2.4c0,4.9,0,9.9,0.1,14.9h-4.6c0.1-4.8,0.1-9.8,0.1-14.9
				V713.7z"/>
			<path d="M1593.4,729c2.4,0,4.1-1.1,6.3-3.9l0.4,1.3c-1.8,3.3-4.1,5.2-7.8,5.2c-5.9,0-9.8-4.8-9.8-11.8c0-7.3,4.3-12.2,10.2-12.2
				c2.7,0,5.1,1.1,7.6,4.8l-0.5,1.2c-2.8-2.7-4.7-3.5-6.5-3.5c-3.6,0-6.7,2.9-6.7,9.5C1586.6,726.1,1589.5,729,1593.4,729z
				 M1606.7,729.3v1.7l-7.3,0.5l-0.5-4.9v-14.1l0.1-0.6v-12.1l-4.1-0.5v-1.7l7.3-2.2l0.7,0.4l-0.2,6.8V731l-0.8-2.4L1606.7,729.3z"
				/>
			<path d="M1629.5,716.8c0,1.1-0.1,2.1-0.3,2.7h-17.7v-2h11.4c2.3,0,2.8-1.1,2.8-2.4c0-2.7-2.3-5.2-5.3-5.2c-3.1,0-6.6,2.6-6.6,9.5
				c0,6.1,3.1,9.4,7.9,9.4c3.1,0,5-1.4,6.7-3.4l1.1,0.9c-1.7,3.4-4.8,5.6-9.2,5.6c-6.4,0-10.6-4.5-10.6-11.8c0-7.3,5-12.2,10.9-12.2
				C1625.5,707.6,1629.5,711,1629.5,716.8z"/>
			<path d="M1637.4,731c0.1-2.2,0.1-7.1,0.1-10.1v-2.3c0-2.6,0-4.1-0.1-6l-3.8-0.4v-1.7l6.5-2.9l0.7,0.5l0.6,5.6v7.2
				c0,3,0,7.9,0.1,10.1H1637.4z M1644.9,729.3v1.7h-11v-1.7l5.3-1h1L1644.9,729.3z M1656,716.5v4.4c0,3.1,0,7.9,0.1,10.1h-4.1
				c0.1-2.2,0.1-7,0.1-10.1v-4c0-4.5-1.2-5.9-4-5.9c-2.4,0-4.4,1-7.1,3.3h-1v-2.2h2.4l-2.1,0.9c2.3-3,6.1-5.4,9.5-5.4
				C1654,707.6,1656,710.2,1656,716.5z M1654.7,728.4l4.8,1v1.7h-11v-1.7l5.3-1H1654.7z"/>
			<path d="M1671.9,729.2c1.1,0,2-0.4,3.3-1.3l1.1,1.3c-1.2,1.5-3.2,2.4-5.6,2.4c-3.3,0-5.4-1.7-5.4-5.4c0-1.2,0-2.2,0-4v-11.4h-4
				v-2.1l6-0.8l-1.9,1.6l1.4-7.8h2.8l-0.4,8.4v15.6C1669.2,728.2,1670.3,729.2,1671.9,729.2z M1675.8,708.3v2.5h-8.5v-2.5H1675.8z"
				/>
			<path d="M1681.8,731c0.1-2.2,0.1-7.1,0.1-10.1v-2.3c0-2.6,0-4.1-0.1-6l-3.9-0.4v-1.7l7.2-2.9l0.7,0.5l-0.1,6.5v6.3
				c0,3,0,7.9,0.1,10.1H1681.8z M1689.1,729.3v1.7h-11v-1.7l5.3-1h1L1689.1,729.3z M1680.6,699.2c0-1.8,1.4-3,3.2-3
				c1.8,0,3.2,1.2,3.2,3c0,1.8-1.4,3-3.2,3C1681.9,702.2,1680.6,701,1680.6,699.2z"/>
			<path d="M1696.4,720.9v-10.2h-4v-2.1l5.4-0.7l-1.4,0.7c0.5-5.5,1.2-8.5,3.9-10.9c2.3-2.1,5-2.7,7.6-2.7c4.2,0,7.5,1.9,7.5,4.8
				c-0.2,1-1.1,1.8-2.4,1.8c-1.2,0-2.1-0.7-3-1.9l-2.5-3.4l1.1,0.4c-2.6,0-4.9,0.9-6.3,2.4c-1.9,2-2.5,5.1-2.1,11v10.8
				c0,3.4,0,6.7,0.1,10.1h-4.1C1696.3,727.7,1696.4,724.3,1696.4,720.9z M1692.4,729.3l5.4-1h1l5.9,1v1.7h-12.3V729.3z
				 M1698.3,708.3h15.3v2.5h-15.3V708.3z M1711.4,720.9v-2.4c0-3.4,0-5.3-0.1-7.8l-3.8-0.2v-1.7l7.2-1.2l0.7,0.5l-0.1,6.2v6.6
				c0,3,0,7.9,0.1,10.1h-4.1C1711.4,728.9,1711.4,723.9,1711.4,720.9z M1707.7,729.3l5.3-1h1l4.8,1v1.7h-11V729.3z"/>
			<path d="M1726.3,719.3c0,6,3.2,9.4,7.7,9.4c2.8,0,5.2-1.3,6.7-3.7l1.2,0.6c-1.3,4-4.4,6.2-8.9,6.2c-6.6,0-10.7-4.6-10.7-12
				c0-7.5,5.3-12,11-12c4.3,0,7.8,2.6,8.4,6.2c-0.2,1.2-1,1.8-2.2,1.8c-1.6,0-2.2-1-2.5-2.2l-1.2-4.2l2.2,1.8
				c-1.6-0.9-3.3-1.2-4.6-1.2C1729.3,709.8,1726.3,713.1,1726.3,719.3z"/>
			<path d="M1753.7,718.4c2-0.7,5-1.6,7.4-2v1.7c-2.2,0.4-5,1.3-6.4,1.9c-4.3,1.7-4.8,3.5-4.8,4.9c0,2.5,1.7,3.6,3.9,3.6
				c1.7,0,2.6-0.6,5.7-2.8l1-0.7l0.7,1l-1.4,1.4c-2.9,2.9-4.5,4.2-7.4,4.2c-3.5,0-6.4-2-6.4-6C1745.8,723,1747.2,720.8,1753.7,718.4
				z M1759.2,726.6v-10.9c0-4.7-1.3-5.9-4.5-5.9c-1.1,0-2.5,0.1-4.3,0.9l1.9-1.5l-1.2,4.1c-0.4,1.4-1.2,2.2-2.4,2.2
				s-2.1-0.7-2.2-1.9c0.9-3.6,4.5-5.9,9.3-5.9c4.9,0,7.3,2.3,7.3,8.3v10.2c0,2.2,0.7,2.9,1.8,2.9c0.8,0,1.3-0.4,1.9-1.1l1,1.1
				c-1.2,1.8-2.4,2.4-4.1,2.4C1760.9,731.5,1759.2,729.6,1759.2,726.6z"/>
			<path d="M1779,729.2c1.1,0,2-0.4,3.3-1.3l1.1,1.3c-1.2,1.5-3.2,2.4-5.6,2.4c-3.3,0-5.4-1.7-5.4-5.4c0-1.2,0-2.2,0-4v-11.4h-4
				v-2.1l6-0.8l-1.9,1.6l1.4-7.8h2.8l-0.4,8.4v15.6C1776.3,728.2,1777.3,729.2,1779,729.2z M1782.9,708.3v2.5h-8.5v-2.5H1782.9z"/>
			<path d="M1788.8,731c0.1-2.2,0.1-7.1,0.1-10.1v-2.3c0-2.6,0-4.1-0.1-6l-3.9-0.4v-1.7l7.2-2.9l0.7,0.5l-0.1,6.5v6.3
				c0,3,0,7.9,0.1,10.1H1788.8z M1796.2,729.3v1.7h-11v-1.7l5.3-1h1L1796.2,729.3z M1787.6,699.2c0-1.8,1.4-3,3.2-3
				c1.8,0,3.2,1.2,3.2,3c0,1.8-1.4,3-3.2,3C1789,702.2,1787.6,701,1787.6,699.2z"/>
			<path d="M1799.9,719.7c0-8,5.4-12.1,10.9-12.1c5.4,0,10.9,4.1,10.9,12.1c0,8-5.5,11.9-10.9,11.9
				C1805.4,731.6,1799.9,727.7,1799.9,719.7z M1817.5,719.7c0-6.4-2.4-9.9-6.6-9.9c-4.3,0-6.6,3.5-6.6,9.9c0,6.4,2.4,9.7,6.6,9.7
				C1815,729.5,1817.5,726.2,1817.5,719.7z"/>
			<path d="M1829.5,731c0.1-2.2,0.1-7.1,0.1-10.1v-2.3c0-2.6,0-4.1-0.1-6l-3.8-0.4v-1.7l6.5-2.9l0.7,0.5l0.6,5.6v7.2
				c0,3,0,7.9,0.1,10.1H1829.5z M1837,729.3v1.7h-11v-1.7l5.3-1h1L1837,729.3z M1848.1,716.5v4.4c0,3.1,0,7.9,0.1,10.1h-4.1
				c0.1-2.2,0.1-7,0.1-10.1v-4c0-4.5-1.2-5.9-4-5.9c-2.4,0-4.4,1-7.1,3.3h-1v-2.2h2.4l-2.1,0.9c2.3-3,6.1-5.4,9.5-5.4
				C1846.2,707.6,1848.1,710.2,1848.1,716.5z M1846.8,728.4l4.8,1v1.7h-11v-1.7l5.3-1H1846.8z"/>
		</g>
	</g>
</g>
<g>
	<path class="st2" d="M404.8,563.9c30.7-25.9,150.5-120.7,328.5-118.7c156.5,1.8,298.8,103.9,298.8,103.9l-9.8-44.5"/>
	<line class="st2" x1="990.8" y1="559.1" x2="1032.1" y2="549.1"/>
</g>
<g>
	<path class="st2" d="M1538.5,760.3C1507.8,786.3,1388,881,1210,879c-156.5-1.8-298.8-103.9-298.8-103.9l9.8,44.5"/>
	<line class="st3" x1="952.5" y1="765.2" x2="911.1" y2="775.2"/>
</g>
<g>
	<g>
		<path class="st1" d="M1514.4,656.7l-20.7,10.2l-2.4-4.8l20.4-9.4v3.8l-20.4-9.4l2.4-4.8l20.7,10.2V656.7z"/>
	</g>
</g>
</svg>
