<?xml version="1.0" standalone="no"?>
<!DOCTYPE svg PUBLIC "-//W3C//DTD SVG 1.1//EN" "http://www.w3.org/Graphics/SVG/1.1/DTD/svg11.dtd">
<svg xmlns="http://www.w3.org/2000/svg">
<defs >
<font id="EBGaramond" horiz-adv-x="528" ><font-face
    font-family="EB Garamond"
    units-per-em="1000"
    panose-1="0 0 0 0 0 0 0 0 0 0"
    ascent="1007"
    descent="-298"
    alphabetic="0" />
<glyph unicode=" " horiz-adv-x="237" />
<glyph unicode="!" horiz-adv-x="290" d="M143 178Q131 178 124 189T112 228Q104 284 97 331T84 420T76 497T72 562Q72 595 93 622T147 649Q180 649 199 624T219 564Q219 534 215 498T204 421T189 331T172 228Q169 207 162 193T143 178ZM141 -14Q111 -14 90 7T69
58Q69 88 90 109T141 131Q171 131 192 110T214 58Q214 28 193 7T141 -14Z" />
<glyph unicode="&quot;" horiz-adv-x="398" d="M79 408Q73 408 71 418T68 436Q69 455 68 470T67 501Q67 524 66 545T63 585T61 618Q61 632 70 642T89 659Q106 671 119 677T150 683Q162 683 168 672T175 646Q175 616 163 576T136 498T109 439Q103 428 94 418T79
408ZM240 408Q234 408 232 418T229 436Q230 455 229 470T228 501Q228 524 227 545T224 585T222 618Q222 632 231 642T250 659Q267 671 280 677T311 683Q323 683 329 672T336 646Q336 616 324 576T297 498T270 439Q264 428 255 418T240 408Z" />
<glyph unicode="#" horiz-adv-x="484" d="M70 -93Q63 -93 59 -88T55 -75V-71L95 90L37 88Q27 87 21 94T15 107Q15 131 20 146T33 168T52 176L116 179L144 290L77 287Q67 287 62 293T56 307Q56 331 60 345T73 367T92 375L166 378L202 526Q205 542 215 547T242 552Q247
552 250 547T254 534Q254 531 253 530T252 526L217 381L331 386L368 537Q371 553 381 558T408 563Q413 563 416 558T420 545Q420 542 419 541T418 537L382 388L441 391Q452 392 458 386T465 371Q465 357 459 341T444 315T425 303L359 300L332 188L400 191Q412 192
418 186T425 171Q425 156 419 141T404 115T385 103L310 100L272 -55Q268 -70 260 -74T236 -78Q230 -78 226 -73T221 -60V-55L259 97L145 93L106 -71Q102 -85 94 -89T70 -93ZM167 181L281 185L308 298L195 293L167 181Z" />
<glyph unicode="$" horiz-adv-x="461" d="M177 -82Q165 -82 160 -74T155 -55L162 7Q163 11 162 12T156 15Q130 20 106 29T59 53Q52 58 47 63T39 75Q30 100 27 135T24 207Q24 219 42 219Q51 219 54 216T62 207Q76 158 101 123T160 72Q164 71 166 72T170 78L190
252Q191 257 189 261T180 269Q145 290 114 314T62 373T41 456Q41 504 64 542T130 603T224 633Q234 634 234 641L239 693Q240 703 250 707T275 712Q284 712 288 705T290 686Q289 680 288 672T287 656T285 640Q285 633 292 632Q317 628 338 621T373 608Q383 605 388
599T397 580Q402 561 405 534T408 474Q408 469 404 466T391 463Q384 463 376 466T366 476Q352 518 333 544T285 580Q278 581 277 574L259 419Q258 411 263 406T285 389Q335 360 365 332T410 272T424 197Q424 108 368 62T220 11Q214 11 213 5L205 -69Q204 -76 196
-79T177 -82ZM231 61Q265 67 281 90T298 142Q298 173 285 193T246 231Q239 235 238 226L221 72Q220 61 231 61ZM205 443Q211 437 211 445L226 572Q227 583 220 581Q194 575 180 557T165 506Q165 488 175 473T205 443Z" />
<glyph unicode="%" horiz-adv-x="702" d="M167 263Q126 263 95 285T46 347T27 436Q27 490 45 530T97 593T176 616Q218 616 249 594T297 533T315 445Q315 387 296 347T243 285T167 263ZM175 295Q192 295 201 315T213 367T217 435Q217 471 212 505T196 561T167 583Q151
583 142 563T130 512T126 445Q126 418 128 392T137 344T152 309T175 295ZM532 642Q540 656 552 660T581 664Q589 664 594 659T599 647Q599 643 598 642L188 -4Q182 -16 170 -19T143 -23Q135 -23 128 -19T121 -8Q121 -6 122 -4L532 642ZM527 -17Q486 -17 455 5T406
67T387 156Q387 210 405 250T457 313T536 336Q578 336 609 314T657 253T675 165Q675 107 656 67T603 5T527 -17ZM535 15Q552 15 561 35T573 87T577 155Q577 191 572 225T556 281T527 303Q511 303 502 283T490 232T486 165Q486 138 488 112T497 64T512 29T535 15Z"
/>
<glyph unicode="&amp;" horiz-adv-x="799" d="M208 -16Q167 -16 126 0T58 49T31 130Q31 190 72 245T189 336L209 346L201 355Q191 366 175 383T147 423T134 476Q134 511 157 539T221 583T315 600Q361 600 396 586T450 547T470 491Q470 446 442 420T364 376L342
368L362 347Q390 319 419 289T474 231L492 211L506 224Q526 243 540 263T562 302T570 331Q570 346 562 354T541 365Q534 369 528 372T521 384Q521 394 530 396T550 398Q563 398 579 396T612 392T646 390Q667 390 690 396T737 407T776 412Q783 412 787 408T792 399Q792
390 783 382T759 372Q727 367 705 352T667 320Q655 309 640 295T608 265T574 234T542 206T515 181L533 159Q565 120 593 94T652 67Q670 67 690 70T731 82Q736 84 742 86T754 88Q762 88 766 86T771 74Q771 60 750 39T691 2T607 -15Q568 -15 540 -5T488 25T439 76L421
97L415 91Q386 57 353 33T283 -3T208 -16ZM281 79Q306 79 334 85T387 117L394 124L379 143Q346 183 313 222T243 302L231 316L213 305Q194 296 183 280T168 245T163 205Q163 147 195 113T281 79ZM322 392L333 402Q347 413 354 437T361 487Q362 517 350 540T310
564Q292 564 277 549T261 511Q261 484 267 465T284 434T302 412L322 392Z" />
<glyph unicode="&apos;" horiz-adv-x="237" d="M79 408Q73 408 71 418T68 436Q69 455 68 470T67 501Q67 524 66 545T63 585T61 618Q61 632 70 642T89 659Q106 671 119 677T150 683Q162 683 168 672T175 646Q175 616 163 576T136 498T109 439Q103 428 94 418T79 408Z" />
<glyph unicode="(" horiz-adv-x="304" d="M239 -215Q222 -215 210 -203Q189 -182 166 -144T119 -56T77 49T47 161T36 267Q36 331 52 394T94 514T149 616T205 687Q212 695 225 700T250 706Q259 706 273 698T287 679Q287 677 283 671T273 657T266 647Q240 614 214
559T171 431T153 272Q153 215 162 153T186 32T220 -74T259 -145Q261 -147 267 -154T278 -168T284 -177Q284 -195 270 -205T239 -215Z" />
<glyph unicode=")" horiz-adv-x="304" d="M66 -215Q49 -215 35 -205T21 -177Q21 -175 26 -168T38 -154T45 -145Q65 -121 84 -74T118 32T142 153T151 272Q151 358 134 431T90 559T38 647Q37 649 32 656T22 670T17 679Q17 690 31 698T54 706Q67 706 80 701T100 687Q126
661 155 616T210 514T252 394T268 267Q268 217 257 161T227 50T186 -55T139 -143T94 -203Q82 -215 66 -215Z" />
<glyph unicode="*" horiz-adv-x="357" d="M196 352Q184 352 175 361T165 383L152 456Q143 452 124 440T86 417Q81 414 76 413T64 411Q53 411 45 418T36 437Q36 455 52 466L108 511Q101 517 82 526T44 546Q34 550 29 559T23 578Q23 595 36 601T69 601Q86 595 103
588T136 575Q135 593 135 610T133 648Q133 662 140 673T164 686Q176 685 185 676T195 654L204 582Q212 587 230 599T265 622Q270 626 276 628T288 630Q299 630 307 623T316 602Q316 586 302 574L247 527Q255 523 275 514T312 496Q322 492 328 484T335 466Q335 448
322 442T289 439Q272 445 255 451T221 463Q222 454 223 431T226 387Q226 375 219 364T196 352Z" />
<glyph unicode="+" horiz-adv-x="601" d="M284 -11Q280 -11 276 -6T271 5V208Q271 220 259 220H50Q43 220 39 224T34 232Q34 240 36 251T45 271T62 280H258Q267 280 269 283T271 293V473Q271 483 279 490T299 502T318 507Q325 507 329 501T333 485V293Q333 280
344 280H548Q557 280 563 277T570 265Q570 252 560 236T536 220H345Q333 220 333 208V17Q333 7 324 1T303 -8T284 -11Z" />
<glyph unicode="," horiz-adv-x="247" d="M47 -164Q22 -164 22 -148Q22 -141 28 -138T44 -132Q71 -125 90 -113T119 -84T130 -44Q130 -25 118 -15T89 0Q71 5 59 19T46 58Q46 84 67 101T115 119Q160 119 188 91T216 16Q216 -25 201 -57T162 -114T108 -151T47 -164Z" />
<glyph unicode="-" horiz-adv-x="316" d="M36 164Q26 163 26 174Q26 204 31 219T48 237Q102 245 161 253T275 265Q284 266 287 262T290 250Q290 220 286 208T270 194Q217 186 154 178T36 164Z" />
<glyph unicode="." horiz-adv-x="247" d="M122 -30Q90 -30 66 -7T42 50Q42 85 66 109T122 133Q158 133 181 109T205 50Q205 17 182 -6T122 -30Z" />
<glyph unicode="/" horiz-adv-x="406" d="M36 -62Q25 -62 19 -56T16 -43L325 646Q332 659 343 663T371 667Q384 667 389 660T391 646L81 -43Q76 -55 63 -58T36 -62Z" />
<glyph unicode="0" horiz-adv-x="529" d="M517 -14Q457 -14 413 14T340 88T296 191T282 302Q282 359 296 417T340 523T417 601T528 631Q588 631 632 603T705 529T748 427T763 317Q763 260 749 202T706 95T630 16T517 -14ZM532 31Q564 31 583 68T612 167T621 299Q621
352 614 403T593 495T559 561T512 586Q480 586 461 549T434 451T425 319Q425 266 431 215T451 123T485 56T532 31Z" />
<glyph unicode="1" horiz-adv-x="529" d="M117 -3Q111 -3 105 1T99 11Q99 27 118 32Q146 39 166 46T197 65T208 99V461Q208 485 196 497T164 516T122 525Q114 527 105 532T96 548Q96 561 105 566T127 573Q186 578 233 592T326 633Q328 634 331 635T337 636Q344
636 350 633T357 626Q357 613 355 597T352 553V98Q352 79 364 67T398 48T449 32Q457 29 462 25T467 12Q467 -2 452 -2Q429 -2 398 -1T336 1T283 2Q262 2 232 1T171 -1T117 -3Z" />
<glyph unicode="2" horiz-adv-x="529" d="M450 -4Q444 -4 421 -4T366 -2T301 0T243 1Q220 1 193 0T141 -1T100 -2T80 -3Q77 -3 69 2T60 14Q60 22 64 27T72 36L218 198Q271 256 297 314T323 442Q323 484 302 512T241 541Q206 541 175 521T122 478Q117 472 108 465T90
457Q82 457 79 463T76 480Q76 497 92 521T138 571T206 613T288 630Q340 630 375 607T430 546T449 463Q449 435 437 402T406 338T369 285Q354 268 332 246T285 200T239 157T204 124T191 109Q191 105 206 103Q224 101 249 100T296 99Q319 99 341 100T385 103Q407
105 423 111T452 130T475 163Q478 170 485 177T503 185Q511 185 514 179T514 165Q505 139 496 109T479 54T471 19Q470 7 461 2T450 -4Z" />
<glyph unicode="3" horiz-adv-x="529" d="M172 -38Q150 -38 127 -32T87 -14T71 11Q71 23 75 37T88 62T106 72Q115 72 121 68T134 56Q148 41 167 23T210 5Q242 5 268 22T309 72T325 148Q325 189 314 221T281 271T227 289Q202 289 187 281T162 268Q155 264 145 268T137
282Q142 301 154 314T179 334Q209 349 231 364T268 397T290 434T298 480Q298 512 276 535T220 559Q190 559 170 547T135 518T113 490T99 478Q92 478 85 486T78 502Q78 511 89 532T124 575T186 613T279 629Q319 629 352 614T405 572T425 508Q425 485 412 456T368
402T290 364Q287 363 287 361T291 358Q343 358 383 339T446 286T470 202Q470 147 445 103T378 28T283 -21T172 -38Z" />
<glyph unicode="4" horiz-adv-x="529" d="M215 -3Q209 -3 201 1T193 12Q193 22 200 26T216 32Q256 39 270 51T284 94V151Q284 156 278 158T267 161Q236 161 196 159T115 155T36 153Q31 153 26 155T21 161Q21 165 26 172Q33 181 37 186T46 198T56 212L303 607Q311
620 323 631T347 642H356Q364 642 365 635T363 621L128 248Q124 240 127 237T136 234H276Q279 234 281 236T284 241V361Q284 379 286 385T300 396Q327 409 358 413T401 417Q421 417 424 398T428 340V235Q428 228 433 228Q446 227 452 227T469 227Q484 227 496 227T526
229Q538 229 538 222Q538 214 534 199T525 172T515 159Q503 159 492 159T468 160Q458 160 454 160T442 158Q438 157 433 155T428 152V95Q428 67 441 55T493 32Q502 29 509 25T517 12Q517 6 511 2T496 -2Q474 -2 449 -1T399 1T354 2Q333 2 310 1T262 -1T215 -3Z"
/>
<glyph unicode="5" horiz-adv-x="529" d="M133 -38Q119 -38 102 -36T85 -23Q85 -11 98 -7T126 -1Q187 5 233 29T304 88T330 158Q330 196 311 224T251 274T141 317Q110 328 99 339T87 369Q87 383 93 408T106 462T121 513T130 545Q136 569 149 579T179 594Q198 599
230 604T299 615T364 625T404 629Q412 630 416 623T419 608Q417 594 409 577T395 544Q388 524 371 512T332 497Q316 495 291 495T241 493T196 491T167 488Q160 487 155 480T147 464T144 450Q144 445 147 442T155 437Q211 427 253 412T332 378Q396 348 424 302T452
200Q452 145 418 94T328 11Q308 0 277 -11T208 -30T133 -38Z" />
<glyph unicode="6" horiz-adv-x="529" d="M278 -14Q208 -14 161 12T90 84T66 193Q66 248 78 293T109 373T147 433T179 473Q202 501 240 530T328 587T432 633Q448 639 463 639T478 632Q477 622 468 616T442 601Q387 575 350 542T281 458Q267 434 248 395T216 305T202
197Q202 142 216 105T252 49T297 29Q327 29 348 60T369 150Q369 180 358 205T331 245T297 261Q284 261 275 259T257 253Q239 244 235 254T241 277Q248 284 253 288T264 298Q280 311 311 326T367 342Q405 342 437 323T489 272T509 200Q509 160 493 122T446 53T373
4T278 -14Z" />
<glyph unicode="7" horiz-adv-x="529" d="M168 -30Q156 -30 148 -21T139 2Q139 9 149 24T166 53L407 484Q411 492 408 495T396 498H172Q147 498 132 490T102 460Q98 455 91 443T73 420T53 409Q47 409 42 414T37 426Q37 433 42 450T48 473Q54 506 63 544T72 610Q72
621 80 624T93 627Q105 626 131 622T190 616Q214 616 246 616T308 615T359 614Q396 614 426 614T479 616T518 618Q522 618 525 611T528 597Q528 592 523 583T509 560T491 531L191 2Q186 -7 179 -18T168 -30Z" />
<glyph unicode="8" horiz-adv-x="529" d="M265 -13Q210 -13 163 7T88 62T60 143Q60 183 83 208T139 252T201 287Q210 292 208 295T197 304Q167 328 141 354T97 411T80 482Q80 527 111 560T192 611T294 629Q340 629 382 612T451 562T477 488Q477 449 459 425T417
389Q406 383 395 377T373 365Q357 355 357 350T367 339Q404 315 433 292T480 240T498 174Q498 117 466 75T382 10T265 -13ZM283 30Q319 30 342 56T365 119Q365 146 349 171T308 220T261 259Q256 264 253 266T245 269Q243 269 232 262Q211 242 203 216T194 150Q194
120 205 93T236 48T283 30ZM321 380Q337 397 343 428T350 492Q350 530 335 558T281 586Q261 586 245 577T219 550T208 510Q208 482 221 460T256 420T301 382Q307 377 312 377T321 380Z" />
<glyph unicode="9" horiz-adv-x="529" d="M81 -50Q66 -50 61 -45T55 -34Q55 -23 64 -17T83 -11Q119 -6 156 15T228 68T289 134Q310 161 332 199T370 286T386 389Q386 423 378 456T354 517T320 561T281 578Q257 578 240 566T215 529T206 466Q206 436 216 408T244
362T281 344Q295 344 305 347T324 354Q345 363 348 352T341 329Q336 322 331 317T319 306Q312 299 297 290T262 274T225 267Q187 267 151 286T91 339T67 417Q67 449 86 486T138 555T213 608T304 629Q347 629 385 611T453 560T500 486T517 400Q517 337 495 281T438
179T369 98Q345 76 309 50T231 2T150 -35T81 -50Z" />
<glyph unicode=":" horiz-adv-x="282" d="M132 246Q100 246 76 269T52 326Q52 361 76 385T132 409Q168 409 191 385T215 326Q215 293 192 270T132 246ZM132 -30Q100 -30 76 -7T52 50Q52 85 76 109T132 133Q168 133 191 109T215 50Q215 17 192 -6T132 -30Z" />
<glyph unicode=";" horiz-adv-x="247" d="M112 247Q80 247 56 270T32 327Q32 362 56 386T112 410Q148 410 171 386T195 327Q195 294 172 271T112 247ZM47 -164Q22 -164 22 -148Q22 -141 28 -138T44 -132Q71 -125 90 -113T119 -84T130 -44Q130 -25 118 -15T89 0Q71
5 59 19T46 58Q46 84 67 101T115 119Q160 119 188 91T216 16Q216 -25 201 -57T162 -114T108 -151T47 -164Z" />
<glyph unicode="&lt;" horiz-adv-x="541" d="M480 0L87 189Q71 197 55 206T38 220Q38 228 49 246T77 271L480 468Q484 471 487 471Q496 471 499 464T503 449Q503 435 493 421T467 399L136 238Q132 237 132 234T136 229L468 69Q485 62 494 48T503 19Q503 4 495 0T480 0Z" />
<glyph unicode="=" horiz-adv-x="629" d="M62 316Q55 316 51 320T46 328Q46 334 48 345T57 364T73 372H562Q571 372 577 368T583 357Q583 345 574 331T551 316H62ZM62 135Q55 135 51 139T46 148Q46 153 48 164T57 183T73 191H562Q571 191 577 187T583 176Q583
164 574 150T551 135H62Z" />
<glyph unicode="&gt;" horiz-adv-x="541" d="M62 465L455 276Q470 269 486 260T503 245Q503 238 493 220T464 194L61 -3Q57 -6 54 -6Q45 -6 42 1T38 16Q38 30 48 44T74 66L405 227Q409 229 409 231T405 236L73 396Q57 404 48 418T38 446Q38 461 46 465T62 465Z" />
<glyph unicode="?" horiz-adv-x="395" d="M146 173Q139 173 130 181T113 203Q105 219 98 241T90 292Q90 327 119 352T207 405Q237 419 254 436T271 481Q271 511 249 526T196 543Q175 543 164 539T147 532Q140 530 132 528T114 526Q100 526 86 540T63 575T54 612Q54
630 75 645T123 661Q163 661 200 641T270 587Q294 562 310 533T336 473T346 413Q346 373 331 350T298 318Q282 310 268 302T239 285T208 267Q186 255 179 241T167 197Q167 186 161 180T146 173ZM145 -14Q115 -14 94 7T73 58Q73 88 94 109T145 131Q175 131 196 110T217
58Q217 28 196 7T145 -14Z" />
<glyph unicode="@" horiz-adv-x="781" d="M398 -153Q326 -153 260 -129T143 -59T63 48T34 184Q34 271 65 337T151 447T277 514T426 537Q491 537 548 515T651 453T721 360T747 242Q747 179 717 131T638 54T537 26Q509 26 494 36T472 57T459 68Q454 68 436 57T389
34T323 22Q264 22 223 55T182 149Q182 221 214 274T301 355T420 384Q438 384 459 380T491 373Q500 371 508 368T519 365Q525 365 529 371T538 384T549 390Q551 390 559 389T574 386T580 380Q572 358 564 328T554 283L530 147Q529 140 528 134T527 121Q527 110 531
101T545 92Q580 92 610 108T658 154T677 225Q677 301 644 357T551 446T411 478Q350 478 295 459T196 402T128 313T103 195Q103 133 127 81T194 -11T292 -73T410 -95Q442 -95 480 -86T556 -61T621 -25Q629 -20 638 -15T654 -9Q679 -9 679 -27Q679 -39 652 -59T583
-102T492 -138T398 -153ZM363 76Q380 76 393 81T420 96Q429 103 434 114T444 148L466 262Q467 265 467 268T467 274Q467 303 446 321T394 339Q366 339 341 321T300 267T284 180Q284 143 296 120T326 87T363 76Z" />
<glyph unicode="A" horiz-adv-x="720" d="M22 -5Q11 -5 4 -2T-4 11Q-4 21 2 25T20 33Q49 41 70 58T103 100Q128 156 150 210T193 318T235 427T277 540Q292 581 296 599T302 621Q320 626 336 630T370 641Q388 648 400 659T419 676Q423 679 427 679T435 673Q438
667 440 661T445 646Q466 579 488 510T532 371T577 235T620 103Q626 83 638 69T667 47T703 33Q714 30 720 26T727 12Q727 5 721 1T707 -3Q687 -3 658 -2T598 1T545 2Q526 2 499 1T443 -1T395 -2Q386 -2 380 1T373 12Q373 21 380 26T397 33Q434 41 451 54T462 93Q458
112 452 133T441 175T429 217Q427 225 424 229T412 233H235Q228 233 224 229T218 216Q214 202 209 188T200 160T191 132T183 105Q176 75 189 59T245 33Q269 28 269 12Q269 5 264 2T246 -2Q217 -2 192 -1T137 1Q107 1 80 -2T22 -5ZM263 287H393Q408 287 408 294Q408
297 408 299T406 304L339 530Q336 541 333 541Q331 541 326 530L247 304Q245 300 245 296Q245 291 250 289T263 287Z" />
<glyph unicode="B" horiz-adv-x="626" d="M37 -5Q28 -5 23 -1T17 10Q17 25 39 31Q73 40 87 52T102 96V551Q102 583 89 597T41 619Q28 622 23 627T18 640Q18 646 24 650T39 655Q71 655 92 653T131 650T175 648Q198 648 217 650T259 655T317 657Q436 657 497 624T559
508Q559 477 545 450T509 404Q493 390 476 381T436 366Q432 365 432 361T436 356Q462 350 490 341T542 313T581 267T596 194Q596 138 579 106T537 56T491 28Q458 12 416 4T316 -4Q283 -4 250 -2T179 0Q158 0 133 -1T84 -3T37 -5ZM317 51Q347 51 373 69T415 117T431
187Q431 221 423 244T403 281T381 302Q373 309 353 316T302 324Q285 324 271 316T256 291V115Q256 82 272 67T317 51ZM296 369Q320 369 340 374T381 396Q388 403 400 424T413 487Q413 529 402 557T369 599T309 613Q281 613 269 603T256 571V404Q256 384 270 377T296
369Z" />
<glyph unicode="C" horiz-adv-x="709" d="M405 -14Q327 -14 259 9T139 76T58 181T29 316Q29 385 56 447T137 558T264 635T433 664Q465 664 497 660T560 647T616 630Q625 626 631 620T639 601Q643 568 645 537T647 481Q647 470 639 466T622 465T608 481Q601 504
592 527T563 567Q543 587 508 600T422 613Q371 613 330 591T259 531T213 445T197 345Q197 279 211 223T254 125T325 61T424 38Q498 38 544 69T621 166Q629 184 643 183T658 166Q658 153 656 135T648 95T636 52Q632 40 626 34T609 22Q571 6 519 -4T405 -14Z" />
<glyph unicode="D" horiz-adv-x="766" d="M382 -7Q348 -7 308 -5T232 -2T179 0Q159 0 135 0T86 -2T37 -3Q30 -3 24 0T18 11Q18 20 23 25T39 32Q77 40 91 52T105 97V551Q105 583 92 596T39 619Q29 621 24 626T18 640Q18 647 24 651T37 655Q60 655 85 654T135 652T180
650Q196 650 222 651T278 654T337 657T384 659Q460 659 524 636T637 569T713 466T740 336Q740 269 716 208T646 98T534 21T382 -7ZM367 44Q435 44 481 77T549 170T572 309Q572 376 558 430T516 524T448 584T356 606Q324 606 303 604T270 594T259 568V132Q259 99
271 80T308 53T367 44Z" />
<glyph unicode="E" horiz-adv-x="575" d="M41 -5Q31 -5 26 -1T20 10Q20 25 42 31Q76 40 90 52T105 96V551Q105 583 92 597T43 619Q30 622 25 627T20 640Q20 646 26 650T42 655Q67 655 93 654T144 652T192 650Q244 650 303 651T408 653Q440 653 461 656T486 660Q493
660 501 656T511 641Q515 605 521 571T527 511Q527 502 523 497T514 492Q509 492 504 496T495 508Q485 533 477 551T459 580Q447 591 430 601T387 611H312Q290 611 274 600T258 567V378Q258 366 265 360T283 354H371Q397 354 408 371T429 414Q436 433 449 433Q454
433 458 428T461 411Q460 399 459 385T458 357T457 330Q457 318 457 304T458 276T460 249Q462 235 459 229T450 222Q434 222 427 248Q418 278 407 294T376 310H283Q271 310 265 305T258 287V97Q258 67 271 55T311 43H397Q419 43 439 48T473 65Q490 79 504 100T530
145Q534 152 538 154T549 157Q554 157 556 151T559 138Q559 121 554 100T542 56T527 9Q525 2 519 -1T505 -4Q492 -4 457 -4T373 -2T274 -1T179 0Q159 0 135 -1T87 -3T41 -5Z" />
<glyph unicode="F" horiz-adv-x="546" d="M38 -3Q30 -3 24 0T18 11Q18 27 39 32Q77 40 91 52T105 98V546Q105 580 93 595T45 619Q32 622 27 627T22 640Q22 646 28 650T44 655Q68 655 94 654T145 652T193 650Q232 650 278 650T368 650Q409 650 442 655T497 661Q505
661 513 657T522 642Q524 619 525 594T526 546T527 507Q527 487 515 487Q510 487 504 491T495 503Q488 528 480 547T459 580Q446 594 429 600T387 606H312Q287 606 273 594T259 560Q259 542 259 518T259 475Q259 453 259 427T259 379Q259 366 265 361T282 355Q307
355 332 355T379 355Q405 355 417 370T438 407Q442 415 447 420T458 425Q463 425 467 419T471 403Q469 382 468 364T466 331Q466 312 467 299T470 262Q471 249 468 243T460 236Q452 236 446 243T436 260Q428 290 416 300T386 311Q375 311 363 311T339 311Q325 311
310 311T280 310Q269 310 264 304T258 287Q258 242 258 193T260 99Q260 67 277 54T336 32Q346 30 351 26T357 12Q357 5 353 1T339 -3Q317 -3 288 -2T231 1T183 2Q163 2 138 1T87 -1T38 -3Z" />
<glyph unicode="G" horiz-adv-x="719" d="M379 -14Q307 -14 244 9T132 77T56 181T29 314Q29 383 55 446T131 558T251 635T406 664Q427 664 454 661T511 653T565 642T607 628Q616 625 621 620T627 604Q632 569 635 538T639 486Q639 476 635 471T622 466Q610 466
605 472T595 487Q586 506 575 526T547 564Q535 576 519 587T478 605T420 612Q366 612 324 590T254 530T211 443T196 340Q196 273 209 218T247 122T309 61T395 39Q421 39 437 48T464 64Q474 72 480 89T487 129Q488 138 488 154T488 186T489 211Q489 222 485 231T467
246Q458 252 447 256T424 262T403 267Q395 268 387 274T379 289Q379 296 386 300T400 304Q423 304 450 303T505 301T553 299Q582 299 614 301T677 303Q684 303 689 300T694 288Q694 278 689 274T674 267Q646 260 636 249T622 218Q618 196 617 180T615 143V111Q615
106 619 101T628 91Q632 86 635 81T638 70Q638 64 634 58T619 49Q611 48 591 39T541 17T470 -5T379 -14Z" />
<glyph unicode="H" horiz-adv-x="801" d="M39 -3Q32 -3 26 0T19 11Q19 27 40 32Q75 40 87 52T100 97V551Q100 584 89 597T42 619Q20 624 20 640Q20 647 26 651T40 655Q63 655 87 654T134 652T177 650Q197 650 222 651T274 653T323 654Q341 654 341 639Q341 630
336 626T320 619Q280 608 267 594T254 550V370Q254 362 258 359T270 356H534Q547 356 547 370V550Q547 580 535 594T482 619Q471 622 466 626T460 639Q460 654 479 654Q501 654 528 653T581 651T627 650Q646 650 668 651T714 654T761 655Q769 655 775 651T781 640Q781
624 760 619Q724 610 713 597T701 551V98Q701 65 713 53T760 32Q781 27 781 11Q781 4 775 1T762 -3Q741 -3 717 -2T669 1T625 2Q605 2 580 1T527 -1T478 -3Q470 -3 465 1T460 12Q460 22 465 25T481 32Q519 42 533 55T547 98V285Q547 293 545 297T535 302H268Q254
302 254 286V99Q254 71 269 57T322 32Q332 29 337 26T343 12Q343 5 339 1T325 -3Q303 -3 276 -2T223 1T177 2Q157 2 133 1T84 -1T39 -3Z" />
<glyph unicode="I" horiz-adv-x="364" d="M36 -3Q28 -3 22 0T16 11Q16 27 37 32Q75 40 90 52T105 97V551Q105 583 92 596T39 619Q18 624 18 640Q18 647 24 651T38 655Q61 655 86 654T136 652T182 650Q202 650 227 651T279 653T328 654Q337 654 342 651T347 640Q347
630 342 626T325 619Q285 608 272 595T259 550V98Q259 69 273 56T327 32Q337 29 342 25T348 12Q348 5 344 1T330 -3Q308 -3 281 -2T228 1T182 2Q161 2 136 1T85 -1T36 -3Z" />
<glyph unicode="J" horiz-adv-x="370" d="M57 -200Q-82 -200 -82 -142Q-82 -122 -65 -103T-31 -84Q-19 -84 -9 -90T11 -108Q30 -130 39 -144T61 -158Q91 -158 107 -120T123 7V551Q123 584 110 597T57 619Q36 624 36 640Q36 647 42 651T56 655Q79 655 104 654T154
652T200 650Q220 650 244 651T295 653T344 654Q353 654 357 651T362 640Q362 630 357 626T341 619Q301 608 289 595T277 550V86Q277 59 267 26T238 -41T197 -106Q167 -145 131 -172T57 -200Z" />
<glyph unicode="K" horiz-adv-x="763" d="M46 -6Q36 -6 27 -1T18 11Q18 27 44 32Q82 40 94 53T106 98V551Q106 584 93 597T39 619Q18 624 18 640Q18 647 24 651T38 655Q61 655 86 654T136 652T181 650Q201 650 226 651T277 653T326 654Q334 654 339 651T344 640Q344
630 339 626T322 619Q282 608 271 594T259 550V347Q259 339 262 335T269 331Q274 331 280 335T294 347L486 554Q494 563 499 570T505 585Q505 606 464 615Q453 618 448 623T442 637Q442 644 448 647T462 651H531Q565 651 597 651T662 653T729 654Q739 654 747 651T755
640Q755 630 745 626T725 619Q675 612 638 596T571 557Q541 534 513 508T457 453T398 395Q384 382 399 365L638 97Q652 82 665 70T697 49T741 32Q752 29 762 25T772 12Q772 5 762 0T734 -5Q704 -5 675 -3T616 0T555 2Q522 2 494 0T430 -3Q423 -3 417 1T410 12Q410
28 430 33Q470 41 472 60Q472 68 468 75T455 93L292 282Q285 290 279 294T268 298Q264 298 262 294T259 281Q259 236 259 192T262 100Q263 82 267 69T282 48T320 32Q331 29 339 25T347 12Q347 5 338 1T318 -4Q287 -4 264 -2T222 2T184 4Q163 4 144 2T103 -3T46
-6Z" />
<glyph unicode="L" horiz-adv-x="586" d="M42 -5Q32 -5 27 -1T21 10Q21 17 27 22T42 31Q76 40 90 52T105 95V553Q105 575 100 587T81 606T40 619Q19 624 19 640Q19 647 25 651T39 655Q62 655 87 654T137 652T182 650Q203 650 229 651T282 653T332 654Q341 654
345 651T350 640Q350 630 345 626T329 619Q288 608 274 596T259 553V103Q259 75 271 63T313 51H415Q437 51 454 58T486 78Q503 94 516 114T539 157Q549 177 554 183T566 189Q574 189 577 182T580 169Q580 167 578 160T576 149Q569 120 563 99T554 58T547 14Q546
7 543 1T531 -5Q510 -5 470 -4T381 -3T280 -1T184 0Q163 0 136 -1T84 -3T42 -5Z" />
<glyph unicode="M" horiz-adv-x="917" d="M44 -3Q32 -3 26 0T20 11Q20 20 28 22T48 29Q71 37 88 57T110 108Q116 154 122 221T136 366T148 518Q149 524 149 533T149 552Q149 570 144 580T125 598Q113 606 99 611T69 621Q57 624 50 629T43 642Q43 651 51 654T70
657Q85 657 107 656T155 655T209 653T260 652Q268 652 275 647T284 634Q291 615 297 598T310 561L457 210Q459 206 462 206T468 210L611 542Q618 577 622 599T631 634Q635 647 647 647H690Q732 649 777 653T849 658Q859 658 866 655T874 643Q874 634 868 630T851
623Q845 621 837 618T823 611Q797 599 785 584T774 534Q776 462 779 408T784 308T790 213T798 97Q800 71 819 56T871 32Q881 29 888 25T895 12Q895 5 889 1T874 -3Q852 -3 824 -2T768 1T720 2Q700 2 676 1T626 -1T578 -3Q569 -3 562 0T555 11Q555 20 562 25T579
32Q616 39 630 52T643 97Q640 159 638 220T635 341T630 457Q630 464 627 464T620 456L429 2Q424 -12 414 -10T400 0Q351 116 298 229T199 453Q196 462 190 460T182 446Q179 396 177 337T175 217T175 104Q175 76 193 59T250 32Q260 30 269 26T278 12Q278 5 270 1T253
-3Q226 -3 211 -2T184 0T151 1Q129 1 106 0T66 -2T44 -3Z" />
<glyph unicode="N" horiz-adv-x="809" d="M680 -19Q667 -19 638 -4T578 51Q554 76 528 105T473 165T415 228T356 291T298 354T243 414T193 468Q191 472 187 475T180 479Q176 479 175 472T173 460Q172 414 173 352T175 227T177 111Q177 79 197 61T256 32Q267 30
275 26T284 12Q284 5 276 1T259 -3Q232 -3 215 -2T184 0T148 1Q126 1 107 0T74 -2T55 -3Q48 -3 40 0T31 11Q31 20 39 24T57 32Q81 41 93 62T108 114Q112 151 116 212T125 349T129 508Q129 560 103 583T38 620Q30 622 20 627T10 642Q10 651 18 654T36 658Q54 658
76 657T124 656T176 654T230 653Q238 653 242 650T251 642Q273 617 298 588T352 528T409 464T466 398T522 334T576 274T624 220Q627 216 631 212T640 207Q648 207 648 222Q648 253 648 294T649 381T649 472T646 555Q645 582 626 595T572 618Q561 620 553 625T545
639Q545 646 553 649T570 653Q593 653 609 653T638 652T667 652Q687 652 701 652T731 654T774 655Q786 655 792 651T799 640Q799 625 773 620Q738 613 723 600T707 558Q707 522 707 481T704 397T701 312T698 230T697 158Q697 135 700 108T705 58T708 26Q708 1 701
-9T680 -19Z" />
<glyph unicode="O" horiz-adv-x="760" d="M375 -14Q306 -14 244 9T133 76T57 180T29 315Q29 383 51 445T119 557T230 635T384 664Q454 664 516 641T627 574T703 470T731 335Q731 268 708 205T640 93T529 15T375 -14ZM393 32Q450 32 488 64T546 153T565 284Q565
345 554 404T518 512T455 588T365 617Q309 617 271 585T213 497T194 367Q194 305 206 246T242 138T303 61T393 32Z" />
<glyph unicode="P" horiz-adv-x="607" d="M37 -3Q29 -3 23 0T17 11Q17 27 38 32Q76 40 90 52T105 98V546Q105 580 93 595T45 619Q32 622 27 627T22 640Q22 646 28 650T44 655Q67 655 90 654T136 652T179 650Q203 650 221 652T262 657T317 660Q439 660 510 609T582
467Q582 404 556 351T476 266T340 233Q314 233 301 241T287 260Q287 267 293 271T305 276Q316 276 324 274T346 271Q388 271 409 318T431 442Q431 534 401 575T317 616Q289 616 275 604T260 565L259 100Q259 68 276 55T335 32Q346 30 351 26T357 12Q357 5 352 1T338
-3Q316 -3 288 -2T231 1T183 2Q162 2 137 1T86 -1T37 -3Z" />
<glyph unicode="Q" horiz-adv-x="760" d="M729 -248Q670 -248 607 -228T491 -171Q454 -144 424 -122T358 -67Q337 -49 310 -26T244 11Q211 23 174 46T104 105T50 193T29 315Q29 383 51 445T119 557T230 635T384 664Q454 664 516 641T627 574T703 470T731 335Q731
266 708 203T637 90T521 13Q510 10 510 2Q510 -3 515 -7Q539 -30 562 -51T623 -103Q673 -142 715 -159T799 -176Q810 -176 819 -176T834 -174Q840 -172 845 -172T857 -171Q884 -171 884 -191Q884 -200 880 -206T864 -220Q843 -234 808 -241T729 -248ZM393 34Q479
34 522 101T565 284Q565 347 554 406T518 512T455 586T365 614Q280 614 237 548T194 367Q194 303 206 244T242 137T303 62T393 34Z" />
<glyph unicode="R" horiz-adv-x="760" d="M645 -21Q594 -21 559 -9T500 24T456 71Q434 100 414 129T373 192T331 270Q321 292 304 301Q295 307 286 309T270 311Q265 311 262 306T259 291V100Q259 69 276 55T335 32Q346 30 351 26T357 12Q357 5 352 1T338 -3Q316
-3 288 -2T231 1T183 2Q162 2 137 1T86 -1T37 -3Q29 -3 23 0T17 11Q17 27 38 32Q76 40 90 52T105 98V547Q105 571 101 585T83 606T45 619Q32 622 27 627T22 640Q22 646 28 650T44 655Q76 655 96 653T135 650T179 648Q202 648 219 650T259 655T317 657Q434 657 497
617T560 496Q560 451 541 421T492 371T432 341Q428 340 428 337T431 329Q461 285 489 244T548 167T610 101Q644 69 679 64T750 58Q765 58 765 40Q765 18 750 5T707 -15T645 -21ZM297 343Q335 343 360 360T398 406T411 474Q411 520 399 551T363 597T301 613Q279
613 270 596T260 521Q259 498 259 463T259 380Q259 360 269 352T297 343Z" />
<glyph unicode="S" horiz-adv-x="494" d="M219 -14Q176 -14 136 -4T61 28Q55 33 49 39T40 52Q30 79 27 118T24 197Q24 204 30 207T44 210Q54 210 57 208T65 198Q87 123 130 77T232 31Q264 31 284 45T316 82T327 128Q327 160 315 182T277 222T213 261Q171 285 132
311T68 376T43 471Q43 530 73 573T157 640T276 664Q314 664 348 656T404 640Q416 635 421 629T431 608Q436 587 439 557T443 491Q443 478 425 478Q416 478 409 482T399 494Q382 554 349 585T268 616Q238 616 217 606T186 576T175 526Q175 502 191 482T239 440T310
395Q364 363 396 332T442 267T457 187Q457 119 428 74T345 8T219 -14Z" />
<glyph unicode="T" horiz-adv-x="695" d="M206 -3Q199 -3 191 0T183 11Q183 20 190 25T207 32Q245 40 262 53T280 98V511Q280 550 278 568T273 593T264 602Q255 607 241 607T217 608H195Q163 608 135 593T89 554Q84 547 75 535T55 513T34 503Q26 503 23 508T20
521Q20 533 26 546Q45 584 54 611T66 673Q68 688 75 693T91 699Q98 699 106 686T123 665Q133 657 156 653T195 649H571Q596 649 613 654T640 664Q656 673 665 684T688 695Q694 695 696 691T699 678Q699 674 699 668T697 657Q692 638 687 621T679 587T676 554V534Q676
518 673 508T659 498Q650 498 644 507T631 538Q620 574 599 591T533 608H481Q464 608 454 601T438 571T433 502V99Q433 69 449 56T505 32Q515 29 522 25T529 12Q529 5 523 1T508 -3Q486 -3 459 -2T404 1T356 2Q335 2 309 1T256 -1T206 -3Z" />
<glyph unicode="U" horiz-adv-x="745" d="M373 -14Q279 -14 216 19T122 113T90 253V538Q90 566 77 589T39 618Q11 626 11 640Q11 647 18 651T37 655Q69 655 103 653T167 650Q195 650 234 652T302 654Q314 654 321 651T329 639Q329 628 314 623T282 610Q267 604
256 586T245 533V271Q245 203 267 159T325 94T407 73Q498 73 542 127T587 292Q587 318 587 350T588 417T587 483Q586 528 581 553T564 592T534 615Q523 621 509 625T494 639Q494 647 502 650T524 653Q560 653 578 652T620 651Q639 651 651 652T677 654T710 655Q722
655 729 652T736 640Q736 627 709 619Q676 610 663 589T647 531Q644 455 643 392T642 262Q641 181 606 119T509 21T373 -14Z" />
<glyph unicode="V" horiz-adv-x="706" d="M348 -17Q335 -17 328 -1Q321 14 311 39T293 86L96 550Q86 574 70 592T24 618Q14 622 7 626T0 640Q0 647 6 650T21 654Q41 654 67 653T121 651T167 650Q187 650 216 651T274 653T323 654Q332 654 341 651T350 640Q350
632 341 627T321 619Q292 612 278 604T264 579Q264 572 266 565T269 551L398 189Q400 183 402 182T408 190L525 497Q545 548 533 580T477 618Q466 620 456 625T446 640Q446 647 455 650T475 653Q496 653 510 653T537 652T571 651Q600 651 626 653T681 656Q692 656
701 653T711 640Q711 631 703 628T684 620Q652 612 633 590T595 523L443 159Q427 122 415 94T392 43T371 -1Q368 -10 363 -13T348 -17Z" />
<glyph unicode="W" horiz-adv-x="1020" d="M370 -17Q362 -17 358 -9T349 9L97 554Q86 578 72 594T29 618Q19 622 10 626T0 640Q0 647 9 650T26 654Q56 654 93 652T159 650Q189 650 220 652T281 654Q294 654 302 651T311 640Q311 631 303 627T279 619Q263 615 260
607T257 588Q257 582 259 572T262 559Q282 512 302 467T341 376T380 285T419 191Q424 180 427 179T436 190L491 294Q494 300 495 304T497 313Q497 317 496 321T492 332L389 551Q379 576 359 593T309 618Q299 622 293 626T286 640Q286 647 292 650T306 654Q326 654
352 653T403 651T448 650Q477 650 507 652T568 654Q583 654 592 651T601 640Q601 634 596 630T583 622T565 615Q547 611 545 601T546 579Q550 570 555 554T568 519T582 483T593 456Q600 441 603 444T611 456Q618 470 627 492T644 537T656 570Q661 578 661 589Q661
604 649 610T624 622T612 639Q612 645 615 649T635 653Q662 653 670 652T693 650Q709 651 723 653T766 655Q778 655 787 652T796 639Q796 629 788 626T769 619Q738 611 724 595T698 556Q688 537 676 513T653 464T630 417Q625 405 626 393T632 367L709 190Q712 181
715 183T721 192Q759 277 796 369T862 539Q872 564 873 573T874 588Q873 599 866 607T846 618Q836 621 826 626T815 640Q815 647 824 650T844 653Q874 653 886 652T914 651Q930 652 947 654T992 656Q1006 656 1016 653T1026 640Q1026 631 1016 628T995 620Q974
615 960 604T937 580T921 550L688 4Q685 -4 680 -9T668 -14Q660 -14 655 -10T644 5Q633 30 617 63T580 141T531 249Q528 256 524 255T517 248Q497 208 476 168T434 88T392 7Q388 -3 384 -10T370 -17Z" />
<glyph unicode="X" horiz-adv-x="750" d="M25 -7Q13 -7 4 -4T-5 9Q-5 19 3 22T22 30Q42 35 61 46T102 76T146 124L267 281Q280 297 280 314T267 350L125 550Q113 567 102 580T76 604T42 619Q32 622 25 626T18 640Q18 648 24 651T39 654Q84 654 132 651T228 648Q260
648 291 651T355 654Q364 654 373 651T383 640Q383 632 374 627T354 619Q324 612 310 604T295 579Q295 567 311 544L406 414Q416 401 423 400T440 412L523 526Q537 544 542 557T547 581Q547 594 537 603T503 618Q493 621 483 626T473 640Q473 647 482 650T504 653Q524
653 537 653T563 651T595 650Q624 650 646 653T697 657Q708 657 718 654T729 641Q729 631 720 628T699 621Q677 614 652 596T608 554L471 385Q460 371 459 360T470 332L637 95Q653 73 671 57T709 34Q720 32 732 26T745 9Q745 2 738 -1T719 -5Q682 -5 649 -4T586
0T523 1Q493 1 464 0T404 -2Q395 -2 386 2T377 13Q377 21 387 26T406 34Q425 39 444 48T463 74Q463 79 461 85T454 97L345 251Q333 269 324 271T301 254L207 119Q194 100 192 87T190 68Q192 54 203 45T236 32Q247 30 256 25T266 10Q266 3 258 0T237 -3Q208 -3 181
-2T135 -1Q105 -1 81 -4T25 -7Z" />
<glyph unicode="Y" horiz-adv-x="654" d="M193 -6Q180 -6 172 -2T164 10Q164 19 173 24T194 31Q232 39 247 58T262 110V248Q262 283 253 306T231 349L102 548Q94 562 83 576T58 601T24 618Q14 622 7 626T0 640Q0 647 6 650T21 654Q63 654 101 651T183 648Q216
648 245 651T308 654Q317 654 326 651T335 640Q335 632 326 627T306 619Q279 612 267 605T255 581Q255 566 266 546L369 369Q378 351 387 351Q391 351 395 355T405 369Q429 410 450 450T493 537Q498 547 501 558T505 578Q505 597 488 607T451 618Q441 620 431 625T420
640Q420 647 429 650T449 653Q478 653 501 651T551 649Q577 649 601 652T653 656Q664 656 673 653T683 640Q683 631 673 627T652 619Q622 612 601 594T565 551Q549 525 534 501T504 452T474 404T444 354Q436 340 430 325T420 294T416 257V110Q416 73 431 58T485
31Q497 28 505 24T514 11Q514 4 507 0T488 -5Q466 -5 439 -3T386 0T339 2Q318 2 293 1T242 -3T193 -6Z" />
<glyph unicode="Z" horiz-adv-x="596" d="M521 -4Q510 -4 483 -4T420 -3T341 -1T258 0Q222 -1 186 -1T113 -3L36 -5Q27 -5 24 8T22 24Q30 38 40 54T60 87T80 119Q116 177 152 234T224 348T296 462T368 577Q370 582 371 586T373 594Q373 598 370 601T357 604Q340
604 320 604T280 604Q260 604 243 604T209 604Q168 604 136 582T80 519Q74 508 64 497T39 485Q31 485 28 490T25 502Q25 508 27 515T32 529Q43 553 48 572T56 611T61 659Q63 674 67 680T83 686Q91 686 105 675T134 659Q152 652 172 651T220 649Q248 649 278 649T338
649Q356 649 386 650T450 651T516 653T565 654Q572 654 578 644T581 630L513 522Q479 469 446 414T379 303T314 193T249 89Q239 73 239 63Q239 57 244 54T261 50Q274 49 297 48T336 47Q378 47 409 50T467 64Q517 83 548 161Q552 168 556 171T568 174Q581 174 581
160Q581 148 578 131T569 93T559 52T548 15Q545 6 538 1T521 -4Z" />
<glyph unicode="[" horiz-adv-x="356" d="M150 -201Q134 -201 125 -199T113 -186T110 -150V649Q110 675 113 686T125 699T151 701L322 700Q330 700 337 698T345 684Q345 674 332 670T310 663L230 652Q220 651 216 644T211 629L210 -124Q210 -132 214 -138T228
-147L305 -160Q318 -161 329 -166T341 -180Q341 -192 335 -196T320 -200L150 -201Z" />
<glyph unicode="\" horiz-adv-x="406" d="M369 -62Q356 -62 343 -59T324 -43L14 646Q11 653 16 660T35 667Q51 667 62 663T80 646L389 -43Q392 -50 386 -56T369 -62Z" />
<glyph unicode="]" horiz-adv-x="356" d="M206 -201L36 -200Q29 -200 22 -196T15 -180Q15 -171 27 -166T52 -160L128 -147Q137 -145 141 -139T146 -124V629Q146 637 141 644T127 652L46 663Q38 665 25 669T12 684Q12 695 20 697T35 700L205 701Q223 701 231 699T243
686T246 649V-150Q246 -176 243 -186T232 -198T206 -201Z" />
<glyph unicode="^" horiz-adv-x="514" d="M55 250Q46 250 40 253T33 265Q33 269 35 273L252 608H259L479 273Q483 265 479 258T459 250Q445 250 433 260T411 283L261 503Q257 508 255 508T251 503L103 283Q94 269 81 260T55 250Z" />
<glyph unicode="_" horiz-adv-x="590" d="M567 -128Q577 -128 583 -132T590 -143Q590 -155 580 -171T556 -187H16Q10 -187 5 -182T0 -173Q0 -167 3 -156T12 -137T28 -128H567Z" />
<glyph unicode="`" horiz-adv-x="237" d="M195 453Q184 453 168 469Q148 490 126 514T82 563T41 609Q35 616 33 622T31 634Q31 646 48 652T90 658Q108 658 118 653T135 633Q143 618 155 591T180 534T200 486Q203 480 204 475T205 465Q205 453 195 453Z" />
<glyph unicode="a" horiz-adv-x="438" d="M129 -14Q102 -14 79 -1T43 33T29 79Q29 113 50 136T114 177L203 216Q223 225 227 232T232 258L233 315Q234 343 223 359T190 376Q177 376 164 371T144 358Q141 354 140 349T138 337Q138 331 139 323T140 308Q140 302
124 293T87 276T51 268Q44 268 39 274T33 289Q33 305 44 320T80 356Q106 378 137 395T198 422T250 432Q304 432 336 398T366 306L361 104Q360 81 369 65T391 49Q410 49 424 62Q427 65 430 65Q435 65 438 62T442 54Q442 42 424 23Q405 5 384 -4T340 -14Q284 -14
247 43H245Q212 13 186 0T129 -14ZM189 51Q200 51 207 54T221 66Q224 70 226 76T228 92L231 164Q231 174 228 177T221 180Q219 180 216 179T209 176Q180 162 166 148T152 101Q152 72 164 62T189 51Z" />
<glyph unicode="b" horiz-adv-x="542" d="M275 -14Q246 -14 222 -9T177 1Q162 6 150 9T129 12Q119 12 110 9T93 -1Q84 -8 79 -8Q70 -8 66 -4T61 5Q61 14 66 40T71 105L67 550Q67 576 60 596T28 622Q23 623 20 627T16 638Q16 643 19 647T27 652Q49 656 78 665T134
685T177 701Q187 705 191 705Q197 705 199 702T202 693Q202 687 200 668T197 630V416Q197 403 199 396T206 388Q237 409 270 420T334 432Q386 432 428 405T494 331T519 225Q519 155 488 101T403 16T275 -14ZM293 28Q320 28 339 51T368 114T379 199Q379 239 369
280T336 348T278 376Q260 376 236 371T197 353V140Q197 108 210 82T246 42T293 28Z" />
<glyph unicode="c" horiz-adv-x="411" d="M211 -14Q158 -14 116 14T49 91T24 201Q24 266 54 318T134 401T247 432Q329 432 383 378Q392 368 392 360Q392 354 383 343T363 322T344 313Q335 313 327 318T310 331Q284 353 258 366T212 380Q174 380 155 349T135 246Q135
197 150 162T195 107T265 88Q295 88 317 97T363 127Q368 130 371 133T380 136Q392 136 392 120Q392 116 391 109T384 92Q375 72 350 47T289 4T211 -14Z" />
<glyph unicode="d" horiz-adv-x="553" d="M358 -19Q355 -19 350 -13T344 -2Q346 13 347 26T349 51V57Q329 26 294 6T217 -14Q161 -14 118 14T49 90T24 195Q24 263 54 316T138 399T263 430Q278 430 294 428T325 421Q339 418 338 418Q342 418 342 431V550Q342 586
333 602T303 622Q291 625 291 637Q291 650 302 652Q339 660 378 672T443 696Q456 702 461 703T467 705Q478 705 478 693Q478 696 477 686T475 658T473 624L468 120Q468 86 473 71T491 56Q496 56 501 57T530 59Q544 60 544 49Q544 41 538 32T527 23Q491 19 452 10T375
-13Q369 -16 365 -17T358 -19ZM268 54Q283 54 305 62T342 85L341 306Q341 324 328 341T294 371T253 383Q229 383 209 364T176 309T163 222Q163 181 171 150T195 98T229 65T268 54Z" />
<glyph unicode="e" horiz-adv-x="417" d="M211 -14Q157 -14 115 14T48 92T23 205Q23 268 52 319T131 401T241 432Q284 432 318 414T372 364T393 294Q393 256 362 256H162Q148 256 142 248T135 221Q135 183 152 152T198 102T265 84Q294 84 318 95T367 125Q371 128
374 130T381 133Q391 133 391 120Q391 109 383 90Q373 65 350 41T291 1T211 -14ZM162 298H222Q250 298 261 299T281 303Q286 305 289 313T292 331Q292 358 274 375T228 392Q207 392 189 381T159 351T148 312Q148 298 162 298Z" />
<glyph unicode="f" horiz-adv-x="360" d="M41 -3Q34 -3 28 0T21 11Q21 19 26 23T40 31Q68 39 75 46T82 70V355Q72 355 59 355T30 357Q24 358 20 368T16 386Q16 390 19 392T25 396Q38 401 52 407T82 420Q86 501 112 556T176 644T258 691T339 706Q407 706 437 687T468
628Q468 605 458 592T429 578Q420 578 411 586T392 606Q375 625 352 642T297 660Q256 660 235 626T213 515V433Q213 425 218 422T229 419H342Q350 419 354 414T358 403Q358 394 356 384T350 367Q345 359 342 359H250Q228 359 221 354T213 337V87Q213 61 225 51T278
31Q298 28 298 13Q298 7 293 2T281 -3Q251 -3 214 -1T150 2Q133 2 116 1T80 -1T41 -3Z" />
<glyph unicode="g" horiz-adv-x="500" d="M216 -289Q118 -289 64 -259T9 -175Q9 -145 16 -127T48 -90Q67 -76 85 -62T116 -39L165 -56Q134 -74 117 -95T99 -144Q99 -185 133 -212T220 -239Q289 -239 318 -212Q336 -194 347 -172T358 -126Q358 -110 347 -100T308
-83T228 -71Q124 -61 80 -32T36 45Q36 54 41 63T63 84Q79 96 92 105T114 123T126 139L176 122Q156 115 144 103T131 82Q131 71 144 64T188 53T273 44Q381 35 430 11T479 -61Q479 -102 456 -142T395 -216T311 -269T216 -289ZM229 140Q261 140 279 175T298 269Q298
306 289 333T263 376T225 392Q206 392 190 376T165 334T155 272Q155 235 165 205T192 158T229 140ZM218 96Q174 96 132 117T62 177T34 262Q34 312 62 351T137 411T236 433Q267 433 294 426T355 414Q374 410 393 408T435 406Q450 406 465 407T490 409Q506 409 506
387Q506 368 493 351Q487 344 480 344H453Q427 344 418 336Q416 334 415 332T414 321T413 289Q413 237 386 193T315 123T218 96Z" />
<glyph unicode="h" horiz-adv-x="559" d="M37 -3Q17 -3 17 11Q17 24 40 31Q55 36 66 42T78 70V550Q78 577 71 597T39 622Q28 624 28 637Q28 650 38 652Q61 657 90 666T148 686T191 702Q199 705 204 705Q210 705 212 702T214 693Q214 688 213 679T210 656T208 624V393Q208
383 209 375T214 364Q229 377 250 392T298 420T360 432Q413 432 449 395T485 290V72Q485 51 496 44T521 31Q532 28 537 24T543 11Q543 -3 521 -3Q497 -3 482 -2T454 1T419 2Q397 2 385 1T360 -1T323 -3Q298 -3 298 12Q298 20 304 24T319 31Q332 36 343 44T354 74V271Q354
293 345 310T322 338T290 349Q275 349 257 344T222 327Q214 321 212 314T209 291V72Q209 52 219 45T242 32Q251 29 257 25T263 12Q263 -3 245 -3Q225 -3 208 -2T175 1T141 2Q124 2 108 1T74 -1T37 -3Z" />
<glyph unicode="i" horiz-adv-x="295" d="M37 -3Q31 -3 26 0T21 10Q21 18 26 23T39 30Q65 36 75 43T86 67V283Q86 317 76 331T43 349Q37 350 34 355T31 367Q31 382 42 384Q94 394 134 412T197 440Q213 448 217 448Q230 448 230 436Q229 419 226 394T220 341T217
289V68Q217 54 227 46T265 30Q273 27 278 23T283 11Q283 -2 268 -2Q249 -2 228 -1T188 1T150 2Q133 2 115 1T77 -1T37 -3ZM147 493Q116 493 93 516T69 571Q69 605 92 628T147 651Q182 651 205 628T228 571Q228 539 205 516T147 493Z" />
<glyph unicode="j" horiz-adv-x="266" d="M4 -287Q-15 -287 -25 -283T-36 -271Q-36 -264 -31 -259T-17 -250Q-1 -243 13 -232T40 -194Q50 -172 56 -141T65 -74T70 -5T71 52V283Q71 317 61 331T27 349Q22 350 19 355T16 367Q16 382 27 384Q78 394 119 412T181 440Q189
444 194 446T202 448Q214 448 214 436Q212 407 207 365T202 286L203 91Q203 60 201 19T191 -67T165 -152Q151 -186 124 -217T64 -267T4 -287ZM132 493Q101 493 78 516T54 571Q54 605 77 628T132 651Q167 651 190 628T213 571Q213 539 190 516T132 493Z" />
<glyph unicode="k" horiz-adv-x="546" d="M36 -3Q16 -3 16 11Q16 19 22 23T39 31Q54 36 65 42T77 70V550Q77 578 70 597T38 622Q27 624 27 637Q27 650 37 652Q62 657 91 666T148 686T190 702Q198 705 203 705Q209 705 211 702T213 693Q213 685 211 666T207 624L208
250Q208 238 217 238Q220 238 224 240T233 246Q270 278 299 311T338 359Q342 365 344 369T347 376Q347 381 339 386T315 394Q303 396 303 405Q303 414 310 416T325 419H374Q392 419 421 420T478 425T518 428Q529 428 529 417Q529 409 523 404T506 396Q489 392 466
382T420 359Q403 350 384 337T346 308T312 279Q307 274 307 268Q307 265 309 263T313 257Q337 226 359 196T403 139T448 84Q465 66 489 51T529 30Q537 27 546 23T556 11Q556 -3 534 -3Q474 -3 417 -2T309 0Q289 0 289 14Q289 22 295 26T311 34Q320 37 323 41T328
50Q328 54 325 59T316 72L219 206Q216 208 214 208Q208 207 208 201Q208 186 208 170T208 139Q208 123 208 105T208 69Q208 52 215 45T238 32Q246 29 252 25T259 12Q259 5 254 1T241 -3Q221 -3 205 -2T173 1T140 2Q123 2 107 1T73 -1T36 -3Z" />
<glyph unicode="l" horiz-adv-x="285" d="M36 -3Q27 -3 22 0T16 11Q16 19 22 23T39 31Q54 36 65 42T77 69V550Q77 577 70 597T37 622Q27 624 27 637Q27 650 36 652Q62 657 92 666T149 686T191 702Q199 705 204 705Q210 705 212 702T214 693Q214 686 212 667T208
624V71Q208 49 219 44T246 33Q257 29 263 25T269 13Q269 6 264 3T249 -1Q230 -1 212 0T176 1T140 2Q123 2 107 1T73 -1T36 -3Z" />
<glyph unicode="m" horiz-adv-x="807" d="M41 -3Q34 -3 28 0T21 11Q21 19 28 23T44 31Q59 36 70 42T82 69V298Q82 320 76 335T51 354Q47 355 44 359T40 372Q40 386 50 389Q75 395 102 403T155 421T200 442Q203 443 206 445T212 447Q221 447 221 436Q221 428 219
409T216 376Q216 366 218 364H220Q251 394 287 413T369 432Q400 432 426 411T465 355H469Q499 391 536 411T621 432Q652 432 677 415T717 365T732 289V69Q732 49 743 43T770 31Q778 28 784 24T790 11Q790 4 785 1T773 -3Q753 -3 736 -2T702 1T667 2Q650 2 635 1T605
-1T570 -3Q563 -3 558 0T553 11Q553 19 558 24T573 31Q586 35 593 41T600 63V268Q600 293 593 311T574 339T545 350Q532 350 517 345T486 326Q472 314 472 284V69Q472 49 480 43T503 31Q511 29 517 24T523 11Q523 4 518 1T506 -3Q486 -3 470 -2T440 1T407 2Q390
2 376 1T346 -1T310 -3Q304 -3 299 0T294 11Q294 19 299 23T313 31Q327 36 334 42T341 63V268Q341 293 334 310T315 338T286 349Q274 349 259 344T226 327Q213 318 213 288V69Q213 51 219 44T241 31Q249 28 254 24T260 11Q260 5 255 1T244 -3Q224 -3 209 -2T179
1T146 2Q129 2 113 1T79 -1T41 -3Z" />
<glyph unicode="n" horiz-adv-x="566" d="M41 -3Q34 -3 28 0T21 11Q21 19 28 23T44 31Q59 36 70 42T82 69V298Q82 320 76 335T51 354Q47 355 44 359T40 372Q40 386 50 389Q84 397 124 410T194 439Q198 441 203 444T212 447Q218 447 219 444T221 435Q221 427 219
410T216 378Q216 374 216 369T218 363Q252 396 287 414T368 432Q420 432 455 394T491 289V69Q491 49 502 43T529 31Q537 28 543 24T549 11Q549 4 544 1T532 -3Q512 -3 495 -2T461 1T426 2Q409 2 392 1T358 -1T321 -3Q315 -3 310 0T304 11Q304 19 310 23T324 31Q339
36 349 42T359 69V268Q359 306 342 327T295 350Q273 350 256 343T221 324Q217 320 215 315T213 305V69Q213 49 224 43T249 31Q269 25 269 11Q269 5 264 1T252 -3Q232 -3 215 -2T183 1T150 2Q133 2 116 1T80 -1T41 -3Z" />
<glyph unicode="o" horiz-adv-x="503" d="M237 -14Q177 -14 129 13T53 87T24 195Q24 243 42 286T92 362T167 414T259 433Q321 433 371 404T450 328T480 224Q480 160 453 106T372 19T237 -14ZM257 30Q278 30 293 38T319 64Q331 84 335 118T340 200Q340 254 328
296T295 364T244 389Q228 389 215 384T192 368Q175 348 169 311T162 220Q162 172 174 129T208 58T257 30Z" />
<glyph unicode="p" horiz-adv-x="551" d="M36 -262Q29 -262 23 -259T16 -248Q16 -240 22 -236T39 -228Q60 -221 68 -214T77 -190V289Q77 302 72 314T58 335T35 347Q29 349 26 352T23 365Q23 373 26 377T34 382Q69 390 109 403T178 430Q182 432 186 434T195 437Q201
437 202 434T204 425Q204 417 202 399T199 367Q199 357 201 355Q211 365 236 382T295 412T359 425Q413 425 450 397T508 324T528 230Q528 183 511 139T461 60T387 3T297 -18Q286 -18 271 -15T240 -7T211 3Q210 3 209 0T208 -7T207 -15V-181Q207 -194 213 -203T232
-217T261 -228Q271 -231 277 -235T283 -248Q283 -254 278 -258T266 -262Q236 -262 204 -260T145 -257Q128 -257 111 -258T75 -260T36 -262ZM294 28Q305 28 320 36T351 64T377 115T388 194Q388 249 377 281T350 330T318 351T289 357Q271 357 252 349T221 330T209
310Q209 302 209 279T209 228T208 177T207 145Q207 122 217 95T247 48T294 28Z" />
<glyph unicode="q" horiz-adv-x="536" d="M289 -287Q283 -287 278 -283T272 -273Q272 -265 278 -261T295 -253Q320 -246 332 -237T345 -205L346 15Q346 27 344 32T339 38Q337 37 335 37T330 34Q317 25 297 14T255 -6T212 -14Q158 -14 116 13T48 87T23 193Q23 256
50 310T133 399T271 433Q305 433 333 427T381 415T414 408Q424 408 433 412T450 424Q454 426 457 428T464 430Q473 430 478 426T483 418Q483 408 478 381T472 310L473 -214Q473 -231 482 -238T513 -252Q523 -255 529 -260T536 -273Q536 -280 530 -283T516 -287Q486
-287 460 -285T407 -282Q390 -282 370 -283T330 -285T289 -287ZM268 53Q289 53 311 59T346 81Q346 97 346 124T346 181T346 238T346 280Q346 328 318 359T253 390Q227 390 207 367T176 306T164 220Q164 186 171 156T191 103T224 66T268 53Z" />
<glyph unicode="r" horiz-adv-x="414" d="M42 -3Q34 -3 28 0T22 11Q22 19 28 23T45 31Q67 38 74 46T82 69V299Q82 320 77 333T52 352Q47 354 43 357T39 370Q39 384 51 387Q83 395 121 408T187 434Q192 438 199 441T210 445Q219 445 219 434Q219 429 219 414T218
382T216 355Q216 346 220 346Q235 367 255 387T300 420T347 433Q382 433 396 420T411 386Q411 371 403 353T381 322T353 309Q344 309 334 313T314 323Q304 327 295 331T277 336Q251 336 232 317T213 241V78Q213 58 225 49T266 31Q277 28 282 24T288 11Q288 -3 271
-3Q241 -3 209 -1T151 2Q134 2 117 1T81 -1T42 -3Z" />
<glyph unicode="s" horiz-adv-x="360" d="M165 -14Q132 -14 101 -6T45 20Q36 35 32 67T29 134Q29 146 49 146Q57 146 63 141T70 131Q89 89 114 60T174 30Q201 30 215 46T229 84Q229 110 209 127T159 160Q130 175 104 194T62 239T45 303Q45 342 66 371T124 416T206
433Q239 433 267 426T305 411Q313 401 318 374T323 313Q323 302 305 302Q298 302 291 307T281 317Q268 356 248 375T202 395Q180 395 162 381T144 343Q144 322 163 306T212 273Q277 239 305 208T333 124Q333 59 291 23T165 -14Z" />
<glyph unicode="t" horiz-adv-x="375" d="M219 -14Q153 -14 120 19T87 114V344Q87 353 81 357T56 362H43Q36 362 32 373T27 394Q27 396 28 399T33 404Q57 413 84 431T137 471T179 506Q186 511 191 515T204 519Q213 519 217 516T219 499L213 440Q212 428 218 424T237
419H356Q359 419 362 412T365 399Q365 385 361 372T352 359H259Q236 359 228 354T219 334V145Q219 99 236 77T283 54Q312 54 325 60T350 70Q354 72 356 72Q361 72 364 66T367 52Q367 46 346 30T292 0T219 -14Z" />
<glyph unicode="u" horiz-adv-x="551" d="M346 -21Q338 -21 338 -11Q338 1 340 21T343 52Q343 56 343 59T341 63Q314 30 272 8T183 -15Q152 -15 127 3T88 54T73 126V313Q73 336 65 350T33 369Q27 370 23 374T18 388Q18 395 22 399T33 405Q75 407 109 413T178 429Q183
430 188 431T199 433Q213 433 212 419Q208 396 206 381T204 342V150Q204 126 212 108T234 80T265 69Q281 69 296 73T326 91Q332 96 339 111T346 153V314Q346 332 339 343T320 362T292 370Q281 371 275 375T268 392Q268 402 275 407T292 412Q343 415 373 417T422
423T460 430Q463 431 467 432T473 433Q488 433 488 421Q488 418 487 414T484 406Q483 402 482 389T479 360T477 336V104Q477 81 482 74T495 66Q500 66 510 66T523 65Q532 65 537 60T542 47Q542 38 539 33T525 26Q477 22 439 10T372 -14Q366 -16 359 -18T346 -21Z"
/>
<glyph unicode="v" horiz-adv-x="483" d="M240 -21Q234 -21 228 -8T213 23Q205 41 196 63T179 104Q154 163 127 219T74 333Q65 355 53 370T23 392Q13 396 9 400T5 413Q5 421 13 423T29 425Q53 425 66 424T93 421T128 419Q149 419 165 420T199 423T240 425Q247
425 255 422T264 412Q264 403 257 400T241 393Q231 389 225 378T218 350Q218 341 218 334T222 318L289 153Q290 153 290 153T292 153L351 311Q355 320 356 328T357 343Q357 361 350 373T325 392Q316 395 310 398T303 411Q303 418 311 421T326 424Q353 423 366 422T395
421Q410 421 424 422T464 424Q471 424 479 422T488 412Q488 398 469 391Q451 385 436 369T410 329L332 133Q330 126 326 116T317 96T308 76T300 60Q297 53 290 37T276 5T263 -21H240Z" />
<glyph unicode="w" horiz-adv-x="752" d="M236 -30Q231 -30 227 -28T220 -20L75 333Q66 356 54 370T24 392Q14 396 10 400T5 413Q5 421 13 423T29 425Q52 425 66 424T93 421T127 419Q147 419 161 420T191 423T229 425Q235 425 243 422T252 412Q252 403 245 400T230
393Q219 389 214 380T209 354Q209 336 215 318L274 162Q274 160 276 160Q279 160 279 162L345 319Q348 325 349 332T351 348Q351 359 340 371T312 391Q302 395 298 399T293 412Q293 420 302 422T320 424Q344 424 368 422T408 420Q434 420 456 422T507 424Q514 424
522 421T531 411Q531 402 524 399T508 392Q497 388 490 381T483 359Q483 347 486 337T492 318L551 162Q552 159 555 159Q557 159 558 161L613 305Q617 315 619 326T620 346Q620 362 612 373T591 390Q583 393 576 396T569 409Q569 417 577 419T592 422Q621 421 633
421T661 420Q671 420 678 420T697 420T726 422Q733 422 741 420T750 411Q750 402 746 398T731 389Q713 383 698 367T674 328L533 -20Q529 -29 516 -29Q506 -29 501 -20L376 267Q375 269 373 269Q371 269 370 266L253 -20Q248 -30 236 -30Z" />
<glyph unicode="x" horiz-adv-x="505" d="M30 -4Q23 -4 15 -2T6 7Q6 16 10 20T25 29Q36 33 47 43T79 79L171 205Q177 213 177 218T172 231L97 342Q84 362 74 374T48 392Q38 395 34 399T29 413Q29 421 38 423T53 425Q78 425 91 424T117 421T153 419Q182 419 201
421T254 424Q260 424 269 422T278 411Q278 403 271 400T255 393Q245 389 236 384T227 369Q227 363 231 355T240 338L286 271Q291 262 295 271L326 324Q331 334 335 346T339 368Q339 384 321 391Q313 395 307 398T300 410Q300 418 309 420T324 423Q349 422 362 422T389
421Q404 421 415 422T453 425Q460 425 468 423T477 413Q477 405 473 401T458 392Q447 388 435 378T403 343L331 247Q325 238 325 233T331 221L415 89Q428 68 445 53T480 31Q490 28 494 24T499 10Q499 2 491 0T475 -2Q451 -2 434 -1T399 2T360 4Q330 4 306 2T247
-1Q223 -1 223 12Q223 21 229 24T246 31Q259 35 267 43T275 69Q275 79 273 86T263 105L212 180Q209 183 206 180L159 97Q156 91 151 80T145 58Q145 48 149 41T163 28Q171 25 178 22T185 10Q185 2 177 0T161 -3Q135 -3 124 -2T100 -1Q85 -1 71 -1T30 -4Z" />
<glyph unicode="y" horiz-adv-x="481" d="M85 -283Q59 -283 35 -265T11 -220Q11 -201 21 -183T52 -164Q68 -164 84 -169T116 -174Q131 -172 137 -167T151 -146Q158 -134 164 -123T179 -94T201 -48Q213 -21 213 0Q213 15 209 27T199 52L76 331Q67 354 56 369T26
390Q17 394 12 398T7 412Q7 419 16 421T32 423Q56 423 72 422T102 420T128 419Q150 419 165 420T197 422T237 423Q244 423 252 420T260 410Q260 401 253 398T237 390Q226 386 220 378T214 352Q214 344 216 333T225 306L287 155Q288 152 290 152Q291 152 293 155L344
308Q347 316 349 327T352 348Q352 365 342 375T321 390Q313 393 306 397T298 410Q298 417 306 420T321 423Q348 422 363 421T394 419Q404 419 412 419T433 421T462 423Q469 423 477 421T486 412Q486 403 482 399T468 390Q449 384 434 368T409 328L260 -30Q252 -50
242 -73T222 -122T200 -173T178 -224Q166 -253 141 -268T85 -283Z" />
<glyph unicode="z" horiz-adv-x="437" d="M44 -5Q40 -5 31 4T21 23Q21 29 28 41T46 66T62 90Q86 128 105 157T143 215T183 278T233 360Q235 364 235 368T223 372L168 373Q154 373 144 369T123 354Q119 350 110 338T90 310T72 283T59 267Q53 260 40 264T28 277Q31
288 37 312T48 364T53 411Q53 422 60 429T76 437Q84 437 95 427Q100 423 113 422T143 420Q154 420 165 420T184 421Q232 421 288 422T394 425Q402 425 407 418T414 401T412 386Q400 373 391 361T370 332L204 64Q200 57 202 53T218 49H281Q295 49 307 54T331 72Q347
89 357 105T385 154Q392 166 406 163T420 148Q420 142 417 126T409 90T399 49T387 11Q383 -5 368 -5Q344 -5 283 -2T132 1Q109 1 84 -2T44 -5Z" />
<glyph unicode="{" horiz-adv-x="373" d="M335 -152Q279 -151 231 -138T154 -96T129 -19Q132 21 142 68T152 157Q152 184 146 202T124 233T76 258Q65 263 56 266T46 280Q46 291 56 296T76 305Q96 314 112 324T138 353T148 406Q148 448 139 485T127 563Q124 610
153 644T231 696T334 714Q349 714 355 711T361 697Q361 687 349 683T324 675Q291 666 276 655T256 626T252 580Q252 560 257 532T268 474T274 422Q274 388 252 359T197 311T130 283Q126 282 128 281T132 279Q165 268 192 253T238 220T267 180T277 133Q277 111 271
82T259 24T253 -24Q253 -57 259 -75T281 -103T327 -117Q338 -119 349 -123T360 -137Q360 -146 353 -149T335 -152Z" />
<glyph unicode="|" horiz-adv-x="276" d="M105 -289Q97 -289 91 -281T84 -264V650Q84 664 94 674T120 692T149 702T167 705Q176 705 184 699T192 682V-245Q192 -260 181 -268T155 -281T126 -287T105 -289Z" />
<glyph unicode="}" horiz-adv-x="373" d="M38 -152Q28 -152 21 -149T13 -137Q13 -127 23 -123T46 -117Q76 -112 92 -103T114 -76T120 -24Q120 -4 114 24T102 81T96 133Q96 158 106 179T135 219T181 253T241 279Q243 280 245 281T243 283Q210 291 177 310T121 359T99
422Q99 445 104 474T115 531T121 580Q121 608 117 625T98 654T48 675Q37 679 25 683T12 697Q12 707 18 710T39 714Q92 714 141 696T219 644T245 563Q243 523 234 486T225 406Q225 372 234 353T260 324T297 305Q306 301 316 296T327 280Q327 269 317 266T297 258Q266
247 250 234T228 202T221 157Q221 115 231 68T244 -19Q247 -66 219 -95T143 -138T38 -152Z" />
<glyph unicode="~" horiz-adv-x="545" d="M365 249Q342 249 319 258T273 280Q248 292 222 302T168 313Q142 313 118 299T79 271T60 256Q53 256 46 268T38 286Q38 299 49 319T80 360T124 394T175 408Q199 408 223 399T271 377Q297 364 323 354T376 343Q396 343
414 352T448 372T473 393T485 402Q495 402 501 392T507 371Q507 357 495 337T462 296T416 263T365 249Z" />
<glyph unicode="&#xa0;" horiz-adv-x="237" />
<glyph unicode="&#xa1;" horiz-adv-x="290" d="M143 302Q155 302 162 288T172 252Q180 197 188 149T203 60T214 -17T219 -84Q219 -118 200 -143T147 -169Q115 -169 94 -142T72 -82Q73 -51 76 -17T84 59T96 148T112 252Q117 279 124 290T143 302ZM141 494Q171 494
192 473T214 422Q214 392 193 371T141 349Q111 349 90 370T69 422Q69 452 90 473T141 494Z" />
<glyph unicode="&#xa2;" horiz-adv-x="434" d="M205 -88Q197 -88 191 -83T185 -69L192 5Q147 13 109 40T47 113T24 218Q24 276 51 326T126 409T236 448L243 510Q244 520 252 525T271 531Q278 531 283 524T287 510L280 448Q313 445 346 432T405 392Q414 384 414
375Q414 353 396 339T357 325Q336 325 324 340Q310 358 299 369T275 387L247 121Q254 120 260 120T273 119Q310 119 342 132T388 169Q393 178 402 178Q415 178 415 163Q415 159 414 153T410 140Q389 84 348 46T235 2L229 -69Q227 -78 220 -83T205 -88ZM205 134L232
397H231Q197 397 176 380T145 332T135 264Q135 214 154 182T205 134Z" />
<glyph unicode="&#xa3;" horiz-adv-x="568" d="M53 294Q47 293 41 298T34 310Q34 318 43 327T66 338L428 362Q436 363 440 357T445 346Q445 340 432 330T404 318L53 294ZM348 -37Q302 -37 268 -16T205 27Q193 36 177 45T148 61T130 68Q126 68 116 58T95 33T76
5Q54 -26 25 -26Q12 -25 2 -14T-8 21Q-8 44 6 66T44 105T101 125Q109 126 112 130T119 141Q128 165 132 203T140 285T146 366Q150 411 165 457T210 542T288 605T405 629Q465 629 495 601T525 534Q525 513 513 496T483 469T451 459Q442 459 437 465T431 479Q431
486 432 495T434 516Q434 545 424 567T391 589Q367 589 349 566T318 491T294 354Q289 309 277 268T246 195T199 146Q196 145 197 140T202 134Q250 134 288 122T356 94Q387 80 411 69T457 57Q476 57 485 65T494 93Q494 106 489 123T480 156T475 182Q475 193 482
200T503 208Q529 208 542 189T555 142Q555 110 538 79T492 21T425 -21T348 -37Z" />
<glyph unicode="&#xa4;" horiz-adv-x="509" d="M65 45Q53 45 41 57T28 81Q28 86 32 90L89 147Q71 172 61 202T51 266Q51 301 61 331T90 388L32 446Q28 449 28 454Q28 465 40 478T65 491Q71 491 74 487L132 431Q158 451 190 463T260 475Q294 475 325 465T382 435L435
487Q439 491 444 491Q456 491 468 479T481 454Q481 449 478 445L425 392Q445 366 456 334T467 266Q467 231 457 200T427 142L479 91Q482 87 482 82Q482 70 469 58T444 45Q439 45 435 49L384 99Q330 58 260 58Q223 58 190 69T129 103L74 49Q71 45 65 45ZM259 117Q301
117 334 137T388 191T408 266Q408 308 388 342T335 396T259 416Q218 416 184 396T130 342T110 266Q110 225 130 191T184 137T259 117Z" />
<glyph unicode="&#xa5;" horiz-adv-x="653" d="M193 -6Q180 -6 172 -2T164 10Q164 19 173 24T194 31Q232 39 247 58T262 110L263 184H150Q143 184 137 189T132 201Q132 209 142 221T165 233L263 232V248Q263 256 263 262T261 274H150Q143 274 137 279T132 291Q132
300 142 311T165 323H247L102 548Q93 562 82 576T57 602T24 618Q14 622 7 626T0 640Q0 647 6 650T21 654Q63 654 101 651T183 648Q216 648 245 651T308 654Q317 654 326 651T335 640Q335 632 326 627T306 619Q280 612 268 604T256 580Q256 573 258 564T266 546L357
371Q367 354 375 354Q380 354 384 358T393 371Q403 389 414 409T437 450T461 494T485 538Q495 556 495 575Q495 595 479 605T443 618Q433 620 423 625T413 640Q413 647 422 650T442 653Q470 653 494 651T545 649Q575 649 599 652T651 656Q663 656 672 653T681 640Q681
631 673 628T654 620Q634 616 617 605T587 580T565 551Q549 525 533 499T501 447T471 397T443 352Q439 344 436 337T429 322H529Q536 322 541 316T545 305Q544 298 531 286T502 273H416V232L528 231Q536 231 541 226T545 214Q544 207 531 195T502 183H416V110Q416
73 431 58T485 31Q497 28 505 24T514 11Q514 4 507 0T488 -5Q466 -5 439 -3T386 0T339 2Q318 2 293 1T242 -3T193 -6Z" />
<glyph unicode="&#xa6;" horiz-adv-x="277" d="M107 -290Q98 -290 92 -282T85 -265V130Q85 144 96 154T122 170T151 180T168 184Q178 184 186 177T194 159V-246Q194 -261 183 -269T157 -282T127 -288T107 -290ZM105 255Q97 255 91 264T84 283V649Q84 664 94 674T120
692T149 702T167 705Q176 705 184 698T192 681V299Q192 285 181 277T155 264T126 257T105 255Z" />
<glyph unicode="&#xa7;" horiz-adv-x="443" d="M144 -148Q108 -148 86 -137T63 -108Q63 -100 69 -80T98 -43Q105 -39 114 -42T127 -50Q144 -65 169 -73T216 -81Q241 -81 254 -63T267 -12Q267 14 247 40T196 94T135 149Q82 196 56 240T29 329Q29 374 40 405T70
459T110 502Q120 540 143 571T200 621T271 640Q296 640 326 632T366 614Q372 609 377 604T382 590Q382 587 375 571T356 541T332 526Q324 526 316 533Q298 552 275 565T237 578Q205 578 192 561T179 520Q179 502 195 479T240 429T300 374Q333 346 357 315T395 245T409
152Q409 87 386 32T320 -66T213 -135Q198 -142 180 -145T144 -148ZM326 63Q327 59 330 59T335 63Q340 79 341 95T342 127Q342 170 315 212T247 292Q229 311 205 337T160 389T131 434Q130 438 127 437T122 434Q113 422 110 405T107 370Q107 331 132 290T199 210Q218
191 245 164T295 109T326 63Z" />
<glyph unicode="&#xa8;" horiz-adv-x="355" d="M273 494Q244 494 223 515T201 565Q201 595 222 616T273 637Q304 637 325 616T347 565Q347 536 326 515T273 494ZM78 494Q49 494 28 515T7 565Q7 595 28 616T78 637Q110 637 131 616T153 565Q153 536 132 515T78 494Z" />
<glyph unicode="&#xa9;" horiz-adv-x="681" d="M342 17Q278 17 222 41T123 107T56 206T32 327Q32 392 56 448T123 546T222 613T343 637Q407 637 463 613T562 547T628 448T653 327Q653 263 629 207T562 108T463 41T342 17ZM356 138Q300 138 255 162T184 227T158
322Q158 372 183 414T257 483T372 509Q398 509 425 503T472 487Q479 485 482 482T486 471Q489 449 489 433T489 398Q489 389 484 383T471 378Q466 378 461 382T454 394Q450 405 446 414T433 432Q423 443 407 450T367 458Q317 458 293 421T269 331Q269 288 278 256T309
206T368 187Q402 187 423 201T459 249Q463 258 469 261T481 262Q493 260 493 243Q493 225 490 211T481 177Q479 169 476 169T465 165Q446 155 418 147T356 138ZM342 66Q395 66 442 86T523 143T578 226T598 327Q598 379 578 425T523 507T442 562T343 583Q290 583
244 563T163 507T108 426T88 327Q88 274 107 227T162 143T243 87T342 66Z" />
<glyph unicode="&#xaa;" horiz-adv-x="350" d="M292 204Q298 204 303 200T309 189Q309 188 309 188T308 185Q302 174 293 167T270 159H46Q39 159 34 164T28 175Q28 182 37 193T58 204H292ZM115 283Q95 283 78 291T50 314T39 346Q39 368 53 383T98 411L158 434Q172
440 175 445T179 462V489Q179 508 173 516T153 525Q145 525 137 522T123 514Q119 509 120 501T122 486Q122 481 109 475T80 463T52 455Q45 454 43 459T43 474Q48 486 54 496T76 521Q88 530 108 540T150 558T193 566Q233 566 260 541T287 473L283 364Q283 353 287
341T302 329Q308 329 313 332T321 338Q323 339 324 339T326 340Q330 340 332 337T335 330Q335 324 330 317T320 307Q310 297 296 290T261 283Q233 283 218 294T191 320H190Q180 308 162 296T115 283ZM156 333Q161 333 165 335T171 339Q174 341 174 343T175 348L177
400Q177 406 174 407T165 407Q146 400 140 391T134 361Q134 342 141 338T156 333Z" />
<glyph unicode="&#xab;" horiz-adv-x="583" d="M320 16Q310 16 300 24T285 36Q255 64 232 84T185 119T137 148T76 180Q61 187 55 197T48 218Q48 228 58 233Q103 260 133 279T187 315T233 351T287 398Q291 402 301 410T321 419Q328 419 328 408Q328 404 326 400T322
392Q289 342 266 313T224 265T181 225Q174 220 174 218T181 210Q204 189 223 170T266 122T322 42Q324 39 326 35T328 28Q328 16 320 16ZM531 16Q521 16 511 24T496 36Q466 64 443 84T396 119T348 148T287 180Q272 187 266 197T259 218Q259 228 269 233Q314 260
344 279T398 315T444 351T498 398Q502 402 512 410T532 419Q539 419 539 408Q539 404 537 400T533 392Q500 342 477 313T435 265T392 225Q385 220 385 218T392 210Q415 189 434 170T477 122T533 42Q535 39 537 35T539 28Q539 16 531 16Z" />
<glyph unicode="&#xac;" horiz-adv-x="621" d="M498 42Q493 42 488 48T483 61V300Q483 316 469 316H53Q46 316 40 321T34 331Q34 339 37 352T47 377T67 388H538Q548 388 551 382T555 368V74Q555 63 544 56T520 45T498 42Z" />
<glyph unicode="&#xad;" horiz-adv-x="316" d="M36 164Q26 163 26 174Q26 204 31 219T48 237Q102 245 161 253T275 265Q284 266 287 262T290 250Q290 220 286 208T270 194Q217 186 154 178T36 164Z" />
<glyph unicode="&#xae;" horiz-adv-x="686" d="M344 17Q280 17 224 41T126 107T59 206T35 327Q35 392 59 448T125 546T224 613T345 637Q410 637 466 613T564 547T631 448T656 327Q656 263 632 207T564 108T465 41T344 17ZM344 66Q398 66 444 86T526 143T580 226T600
327Q600 379 581 425T526 507T444 562T345 582Q293 582 247 562T165 507T110 426T90 327Q90 274 110 227T164 143T245 87T344 66ZM472 171Q456 171 437 182T400 213T365 256T337 307Q335 312 331 315T319 318Q316 318 314 316T311 309L312 228Q312 213 321 207T351
196Q357 195 361 192T365 182Q365 177 362 174T353 170Q335 170 311 171T269 173Q258 173 245 173T220 171T194 170Q191 170 187 174T182 182Q182 188 186 191T195 196Q214 201 221 207T228 228V438Q228 451 225 457T216 467T198 474Q186 475 186 486Q186 494 197
494Q221 493 235 491T268 489Q288 489 302 491T345 494Q405 494 438 475T471 414Q471 380 452 363T410 335Q407 333 407 331T409 326Q425 286 447 260T491 222T527 210Q530 210 532 209T535 202Q535 189 520 180T472 171ZM330 354Q360 354 375 368T391 404Q391
432 377 445T337 458Q321 458 315 453T309 438V369Q309 361 314 358T330 354Z" />
<glyph unicode="&#xaf;" horiz-adv-x="355" d="M40 508Q31 508 26 513T20 525Q20 543 25 557T39 579T57 588H315Q324 588 329 583T334 570Q334 546 322 527T293 508H40Z" />
<glyph unicode="&#xb0;" horiz-adv-x="347" d="M175 381Q131 381 97 402T44 458T25 530Q25 569 44 600T97 651T175 670Q218 670 250 651T302 601T322 530Q322 493 303 459T251 403T175 381ZM174 437Q207 437 231 462T256 525Q256 563 232 587T174 611Q139 611
115 587T91 525Q91 487 115 462T174 437Z" />
<glyph unicode="&#xb1;" horiz-adv-x="600" d="M284 125Q280 125 276 130T271 142V344Q271 356 259 356H50Q43 356 39 360T34 369Q34 379 40 396T62 413H258Q267 413 269 416T271 426V596Q271 606 278 613T295 625T313 630Q320 630 324 624T328 609V426Q328 419
330 416T340 413H543Q552 413 558 410T565 398Q565 386 555 371T531 356H340Q328 356 328 345V153Q328 138 311 132T284 125ZM52 31Q45 31 40 36T34 45Q34 52 37 63T47 83T65 92H542Q552 92 559 88T566 75Q566 62 556 47T530 31H52Z" />
<glyph unicode="&#xb2;" horiz-adv-x="341" d="M275 438Q266 438 246 439T200 440T148 441Q128 441 103 441T59 439T37 438Q33 438 30 441T26 447Q26 451 30 456L68 497Q96 530 121 558T161 613T176 671Q176 691 163 704T128 718Q107 718 92 706T67 680Q59 667
49 667Q43 667 41 672T38 685Q38 700 53 722T98 760T168 776Q217 776 246 750T276 687Q276 666 266 645T236 601Q228 593 211 579T176 550T144 524T129 512Q129 510 132 509T138 508H233Q251 508 265 520T290 550Q292 554 295 558T306 562Q314 562 316 557T316
547Q304 518 296 488T287 452Q286 446 283 442T275 438Z" />
<glyph unicode="&#xb3;" horiz-adv-x="295" d="M96 435Q72 435 52 443T32 465Q32 477 37 488T50 500Q55 500 58 498T64 492Q73 482 86 472T113 462Q136 462 151 482T167 539Q167 560 154 580T114 601Q93 601 85 595T73 588Q67 588 62 589T57 597Q59 606 66 613T82
624T97 632Q135 652 146 667T158 701Q158 713 147 722T116 732Q99 732 84 724T59 705Q55 702 52 699T47 695Q43 695 39 700T34 710Q34 716 46 731T84 761T147 775Q181 775 210 757T239 708Q239 690 225 671T177 642Q175 641 175 640T177 639Q210 637 235 617T260
558Q260 521 237 493T176 450T96 435Z" />
<glyph unicode="&#xb4;" horiz-adv-x="237" d="M42 453Q32 453 32 465Q32 469 33 474T37 486Q45 505 57 534T82 590T102 633Q110 648 120 653T147 658Q171 658 188 652T206 634Q206 629 204 623T196 609Q177 588 156 563T113 514T69 469Q53 453 42 453Z" />
<glyph unicode="&#xb5;" horiz-adv-x="559" d="M141 -285Q122 -285 110 -274T90 -245T79 -213Q78 -204 78 -180T77 -125T76 -61T75 0Q75 61 75 109T73 195T70 264T69 324T69 385Q69 408 77 420T122 432Q159 432 181 423T204 389Q204 363 197 327T180 253T163 187T155
146Q155 130 161 117T179 97T203 90Q235 90 261 126T312 245Q315 281 316 311T318 365T322 407Q324 421 330 426T350 432Q386 432 409 425T444 405T456 379Q456 335 438 282T395 171Q395 152 405 137T432 113T471 104Q489 104 503 111T528 126T542 134Q546 134
550 131T554 122Q554 78 537 47T495 1T445 -15Q416 -14 394 18T368 95Q367 104 367 112T368 129H365Q362 123 350 101T319 52T283 7T251 -13Q234 -13 219 -3T189 22T162 49Q154 57 144 68T130 80Q117 80 117 53Q117 44 118 24T119 -20T121 -65T122 -101Q122 -120
137 -135T173 -164T209 -188T225 -210Q225 -225 211 -242T178 -272T141 -285Z" />
<glyph unicode="&#xb6;" horiz-adv-x="628" d="M308 -312Q267 -312 235 -296T184 -251T165 -186Q165 -147 185 -120T234 -78T291 -64Q323 -65 345 -79T367 -123Q367 -149 352 -166T317 -183Q305 -183 296 -176T278 -161Q270 -153 263 -147T251 -141Q239 -141 228
-154T216 -194Q216 -222 240 -246T313 -271Q336 -271 357 -260T393 -224T407 -160V38Q407 46 405 56T392 66Q318 66 251 85T131 143T47 234T16 355Q16 465 68 529T216 620T439 648Q470 648 502 647T559 643T593 640Q601 638 605 630T610 611Q610 602 606 588T594
574Q589 574 555 582T477 590Q469 590 463 582T457 565V-158Q457 -194 441 -229T392 -288T308 -312Z" />
<glyph unicode="&#xb7;" horiz-adv-x="255" d="M126 132Q94 132 70 155T46 212Q46 247 70 271T126 295Q162 295 185 271T209 212Q209 179 186 156T126 132Z" />
<glyph unicode="&#xb8;" horiz-adv-x="274" d="M93 -274Q71 -274 60 -265T49 -226Q49 -212 53 -207T66 -202Q78 -202 93 -210T133 -218Q148 -218 155 -208T162 -178Q162 -157 144 -146T106 -135Q93 -135 87 -140T73 -145Q67 -145 59 -139T51 -121Q51 -112 65 -96L155
8H199L163 -35Q158 -42 158 -45Q158 -50 170 -56Q195 -67 210 -87T225 -140Q225 -166 212 -190T178 -233T136 -263T93 -274Z" />
<glyph unicode="&#xb9;" horiz-adv-x="249" d="M47 440Q43 440 40 443T36 450Q36 456 39 460T47 464Q62 467 69 469T78 477T81 493V674Q81 695 69 705T43 717Q38 718 35 720T32 730Q32 745 47 746Q85 748 109 754T159 777Q160 778 164 780T170 782Q179 782 179
773Q179 767 177 758T175 730V493Q175 481 179 476T207 464Q212 463 215 461T218 451Q218 447 216 444T209 441Q196 441 181 441T151 442T126 443Q116 443 103 443T75 441T47 440Z" />
<glyph unicode="&#xba;" horiz-adv-x="327" d="M296 204Q301 204 307 200T313 189Q313 188 313 188T312 185Q305 174 296 167T274 159H33Q27 159 22 164T16 175Q16 182 25 193T46 204H296ZM180 283Q136 283 102 300T47 347T27 415Q27 459 49 493T109 546T195 566Q239
566 275 548T332 500T354 434Q354 393 335 359T276 304T180 283ZM193 321Q212 321 221 335T233 372T237 419Q237 445 231 470T214 511T186 527Q167 527 158 512T145 475T141 431Q141 403 147 378T166 337T193 321Z" />
<glyph unicode="&#xbb;" horiz-adv-x="583" d="M262 16Q255 16 255 28Q255 31 257 35T260 42Q294 93 317 121T360 169T402 210Q409 215 409 217T402 225Q379 245 360 264T318 313T260 392Q258 396 257 400T255 408Q255 419 261 419Q272 419 282 411T296 398Q326
371 349 352T396 315T449 279T525 233Q535 228 535 218Q535 207 529 197T507 180Q473 163 447 149T398 119T351 84T297 36Q293 32 283 24T262 16ZM51 16Q44 16 44 28Q44 31 46 35T49 42Q83 93 106 121T149 169T191 210Q198 215 198 217T191 225Q168 245 149 264T107
313T49 392Q47 396 46 400T44 408Q44 419 50 419Q61 419 71 411T85 398Q115 371 138 352T185 315T238 279T314 233Q324 228 324 218Q324 207 318 197T296 180Q262 163 236 149T187 119T140 84T86 36Q82 32 72 24T51 16Z" />
<glyph unicode="&#xbc;" horiz-adv-x="645" d="M47 278Q43 278 40 281T36 288Q36 294 39 298T47 302Q62 305 69 307T78 315T81 331V512Q81 533 69 543T43 555Q38 556 35 558T32 568Q32 583 47 584Q85 586 109 592T159 615Q160 616 164 618T170 620Q179 620 179
611Q179 605 177 596T175 568V331Q175 319 179 314T207 302Q212 301 215 299T218 289Q218 285 216 282T209 279Q196 279 181 279T151 280T126 281Q116 281 103 281T75 279T47 278ZM519 642Q527 656 539 660T568 664Q576 664 581 659T586 647Q586 643 585 642L175
-4Q169 -16 157 -19T130 -23Q122 -23 115 -19T108 -8Q108 -6 109 -4L519 642ZM498 -9Q487 -9 487 -1V85Q487 88 482 89T476 90Q439 90 407 89T334 88Q332 88 328 89T323 93Q323 94 324 95T326 98Q361 141 402 185T479 272Q489 283 506 301T544 339Q550 345 555
349T565 353Q568 353 569 350T570 344L569 138Q569 132 575 132H593Q599 132 608 132T624 133Q631 133 631 126Q631 117 625 105T614 92H579Q574 92 572 91T569 86V29Q569 21 554 12T521 -3T498 -9ZM407 133H482Q484 133 485 134T487 137V220Q487 221 486 221T484
220Q473 209 458 194T429 164T405 137Q403 133 407 133Z" />
<glyph unicode="&#xbd;" horiz-adv-x="719" d="M47 278Q43 278 40 281T36 288Q36 294 39 298T47 302Q62 305 69 307T78 315T81 331V512Q81 533 69 543T43 555Q38 556 35 558T32 568Q32 583 47 584Q85 586 109 592T159 615Q160 616 164 618T170 620Q179 620 179
611Q179 605 177 596T175 568V331Q175 319 179 314T207 302Q212 301 215 299T218 289Q218 285 216 282T209 279Q196 279 181 279T151 280T126 281Q116 281 103 281T75 279T47 278ZM519 642Q527 656 539 660T568 664Q576 664 581 659T586 647Q586 643 585 642L175
-4Q169 -16 157 -19T130 -23Q122 -23 115 -19T108 -8Q108 -6 109 -4L519 642ZM653 -16Q644 -16 624 -15T578 -14T526 -13Q506 -13 481 -13T437 -15T415 -16Q411 -16 408 -13T404 -7Q404 -3 408 2L446 43Q474 76 499 104T539 159T554 217Q554 237 541 250T506 264Q485
264 470 252T445 226Q437 213 427 213Q421 213 419 218T416 231Q416 246 431 268T476 306T546 322Q595 322 624 296T654 233Q654 212 644 191T614 147Q606 139 589 125T554 96T522 70T507 58Q507 56 510 55T516 54H611Q629 54 643 66T668 96Q670 100 673 104T684
108Q692 108 694 103T694 93Q682 64 674 34T665 -2Q664 -8 661 -12T653 -16Z" />
<glyph unicode="&#xbe;" horiz-adv-x="660" d="M96 275Q72 275 52 283T32 305Q32 317 37 328T50 340Q55 340 58 338T64 332Q73 322 86 312T113 302Q136 302 151 322T167 379Q167 400 154 420T114 441Q93 441 85 435T73 428Q67 428 62 429T57 437Q59 446 66 453T82
464T97 472Q135 492 146 507T158 541Q158 553 147 562T116 572Q99 572 84 564T59 545Q55 542 52 539T47 535Q43 535 39 540T34 550Q34 556 46 571T84 601T147 615Q181 615 210 597T239 548Q239 530 225 511T177 482Q175 481 175 480T177 479Q210 477 235 457T260
398Q260 361 237 333T176 290T96 275ZM531 642Q539 656 551 660T580 664Q588 664 593 659T598 647Q598 643 597 642L187 -4Q181 -16 169 -19T142 -23Q134 -23 127 -19T120 -8Q120 -6 121 -4L531 642ZM513 -9Q502 -9 502 -1V85Q502 88 497 89T491 90Q454 90 422
89T349 88Q347 88 343 89T338 93Q338 94 339 95T341 98Q376 141 417 185T494 272Q504 283 521 301T559 339Q565 345 570 349T580 353Q583 353 584 350T585 344L584 138Q584 132 590 132H608Q614 132 623 132T639 133Q646 133 646 126Q646 117 640 105T629 92H594Q589
92 587 91T584 86V29Q584 21 569 12T536 -3T513 -9ZM422 133H497Q499 133 500 134T502 137V220Q502 221 501 221T499 220Q488 209 473 194T444 164T420 137Q418 133 422 133Z" />
<glyph unicode="&#xbf;" horiz-adv-x="395" d="M249 307Q256 307 265 299T282 277Q290 261 297 239T305 188Q305 153 276 128T188 75Q158 62 141 44T123 -1Q123 -30 145 -46T199 -63Q220 -63 231 -59T248 -52Q256 -50 264 -48T281 -46Q296 -46 309 -60T331 -95T340
-132Q340 -150 320 -165T272 -181Q232 -181 195 -161T125 -107Q102 -82 85 -53T58 7T49 67Q49 107 64 130T97 162Q113 170 127 178T156 195T187 213Q209 225 216 239T227 283Q229 295 234 301T249 307ZM250 494Q280 494 301 473T322 422Q322 392 301 371T250 349Q220
349 199 370T177 422Q177 452 198 473T250 494Z" />
<glyph unicode="&#xc0;" horiz-adv-x="720" d="M405 682Q402 681 395 683T379 690Q341 714 297 739T214 789Q198 801 195 811Q194 820 208 828T241 842T267 849Q287 851 300 837Q330 807 355 776T406 712Q417 698 417 691Q417 684 405 682ZM22 -5Q11 -5 4 -2T-4
11Q-4 21 2 25T20 33Q49 41 70 58T103 100Q128 156 150 210T193 318T235 427T277 540Q292 581 296 599T302 621Q320 626 336 630T370 641Q388 648 400 659T419 676Q423 679 427 679T435 673Q438 667 440 661T445 646Q466 579 488 510T532 371T577 235T620 103Q626
83 638 69T667 47T703 33Q714 30 720 26T727 12Q727 5 721 1T707 -3Q687 -3 658 -2T598 1T545 2Q526 2 499 1T443 -1T395 -2Q386 -2 380 1T373 12Q373 21 380 26T397 33Q434 41 451 54T462 93Q458 112 452 133T441 175T429 217Q427 225 424 229T412 233H235Q228
233 224 229T218 216Q214 202 209 188T200 160T191 132T183 105Q176 75 189 59T245 33Q269 28 269 12Q269 5 264 2T246 -2Q217 -2 192 -1T137 1Q107 1 80 -2T22 -5ZM263 287H393Q408 287 408 294Q408 297 408 299T406 304L339 530Q336 541 333 541Q331 541 326
530L247 304Q245 300 245 296Q245 291 250 289T263 287Z" />
<glyph unicode="&#xc1;" horiz-adv-x="720" d="M22 -5Q11 -5 4 -2T-4 11Q-4 21 2 25T20 33Q49 41 70 58T103 100Q128 156 150 210T193 318T235 427T277 540Q292 581 296 599T302 621Q320 626 336 630T370 641Q388 648 400 659T419 676Q423 679 427 679T435 673Q438
667 440 661T445 646Q466 579 488 510T532 371T577 235T620 103Q626 83 638 69T667 47T703 33Q714 30 720 26T727 12Q727 5 721 1T707 -3Q687 -3 658 -2T598 1T545 2Q526 2 499 1T443 -1T395 -2Q386 -2 380 1T373 12Q373 21 380 26T397 33Q434 41 451 54T462 93Q458
112 452 133T441 175T429 217Q427 225 424 229T412 233H235Q228 233 224 229T218 216Q214 202 209 188T200 160T191 132T183 105Q176 75 189 59T245 33Q269 28 269 12Q269 5 264 2T246 -2Q217 -2 192 -1T137 1Q107 1 80 -2T22 -5ZM263 287H393Q408 287 408 294Q408
297 408 299T406 304L339 530Q336 541 333 541Q331 541 326 530L247 304Q245 300 245 296Q245 291 250 289T263 287ZM330 682Q318 684 318 691Q318 698 329 712Q354 745 379 776T434 837Q447 851 468 849Q476 848 493 842T526 828T539 811Q537 801 520 789Q482
764 438 739T355 690Q346 685 339 683T330 682Z" />
<glyph unicode="&#xc2;" horiz-adv-x="720" d="M22 -5Q11 -5 4 -2T-4 11Q-4 21 2 25T20 33Q49 41 70 58T103 100Q128 156 150 210T193 318T235 427T277 540Q292 581 296 599T302 621Q320 626 336 630T370 641Q388 648 400 659T419 676Q423 679 427 679T435 673Q438
667 440 661T445 646Q466 579 488 510T532 371T577 235T620 103Q626 83 638 69T667 47T703 33Q714 30 720 26T727 12Q727 5 721 1T707 -3Q687 -3 658 -2T598 1T545 2Q526 2 499 1T443 -1T395 -2Q386 -2 380 1T373 12Q373 21 380 26T397 33Q434 41 451 54T462 93Q458
112 452 133T441 175T429 217Q427 225 424 229T412 233H235Q228 233 224 229T218 216Q214 202 209 188T200 160T191 132T183 105Q176 75 189 59T245 33Q269 28 269 12Q269 5 264 2T246 -2Q217 -2 192 -1T137 1Q107 1 80 -2T22 -5ZM263 287H393Q408 287 408 294Q408
297 408 299T406 304L339 530Q336 541 333 541Q331 541 326 530L247 304Q245 300 245 296Q245 291 250 289T263 287ZM233 693Q214 693 214 705Q214 714 222 720L327 814Q344 830 354 836T377 843Q391 843 401 837T428 814L532 721Q539 715 539 705Q539 692 523
692Q516 692 500 697T462 710T422 726T389 742Q382 746 377 746T365 742Q353 735 334 727T293 711T256 698T233 693Z" />
<glyph unicode="&#xc3;" horiz-adv-x="720" d="M22 -5Q11 -5 4 -2T-4 11Q-4 21 2 25T20 33Q49 41 70 58T103 100Q128 156 150 210T193 318T235 427T277 540Q292 581 296 599T302 621Q320 626 336 630T370 641Q388 648 400 659T419 676Q423 679 427 679T435 673Q438
667 440 661T445 646Q466 579 488 510T532 371T577 235T620 103Q626 83 638 69T667 47T703 33Q714 30 720 26T727 12Q727 5 721 1T707 -3Q687 -3 658 -2T598 1T545 2Q526 2 499 1T443 -1T395 -2Q386 -2 380 1T373 12Q373 21 380 26T397 33Q434 41 451 54T462 93Q458
112 452 133T441 175T429 217Q427 225 424 229T412 233H235Q228 233 224 229T218 216Q214 202 209 188T200 160T191 132T183 105Q176 75 189 59T245 33Q269 28 269 12Q269 5 264 2T246 -2Q217 -2 192 -1T137 1Q107 1 80 -2T22 -5ZM263 287H393Q408 287 408 294Q408
297 408 299T406 304L339 530Q336 541 333 541Q331 541 326 530L247 304Q245 300 245 296Q245 291 250 289T263 287ZM239 691Q234 691 227 697T220 707Q220 713 229 729T251 763T278 794T298 808Q317 808 338 807T381 804Q400 803 421 802T465 801Q476 801 484
807T500 820Q508 828 512 835T520 842Q526 842 534 836T543 823Q543 820 539 813T525 795Q514 779 504 764T485 735Q479 726 470 724T454 721Q446 721 423 722T373 726T321 730T287 732Q279 732 271 726T257 713Q251 705 246 698T239 691Z" />
<glyph unicode="&#xc4;" horiz-adv-x="720" d="M22 -5Q11 -5 4 -2T-4 11Q-4 21 2 25T20 33Q49 41 70 58T103 100Q128 156 150 210T193 318T235 427T277 540Q292 581 296 599T302 621Q320 626 336 630T370 641Q388 648 400 659T419 676Q423 679 427 679T435 673Q438
667 440 661T445 646Q466 579 488 510T532 371T577 235T620 103Q626 83 638 69T667 47T703 33Q714 30 720 26T727 12Q727 5 721 1T707 -3Q687 -3 658 -2T598 1T545 2Q526 2 499 1T443 -1T395 -2Q386 -2 380 1T373 12Q373 21 380 26T397 33Q434 41 451 54T462 93Q458
112 452 133T441 175T429 217Q427 225 424 229T412 233H235Q228 233 224 229T218 216Q214 202 209 188T200 160T191 132T183 105Q176 75 189 59T245 33Q269 28 269 12Q269 5 264 2T246 -2Q217 -2 192 -1T137 1Q107 1 80 -2T22 -5ZM263 287H393Q408 287 408 294Q408
297 408 299T406 304L339 530Q336 541 333 541Q331 541 326 530L247 304Q245 300 245 296Q245 291 250 289T263 287ZM475 688Q446 688 425 709T404 759Q404 790 425 810T475 831Q507 831 528 811T550 759Q550 730 529 709T475 688ZM278 688Q249 688 228 709T206
759Q206 790 227 810T278 831Q309 831 330 811T352 759Q352 730 331 709T278 688Z" />
<glyph unicode="&#xc5;" horiz-adv-x="720" d="M22 -5Q11 -5 4 -2T-4 11Q-4 21 2 25T20 33Q49 41 70 58T103 100Q128 156 150 210T193 318T235 427T277 540Q292 581 296 599T302 621Q320 626 336 630T370 641Q388 648 400 659T419 676Q423 679 427 679T435 673Q438
667 440 661T445 646Q466 579 488 510T532 371T577 235T620 103Q626 83 638 69T667 47T703 33Q714 30 720 26T727 12Q727 5 721 1T707 -3Q687 -3 658 -2T598 1T545 2Q526 2 499 1T443 -1T395 -2Q386 -2 380 1T373 12Q373 21 380 26T397 33Q434 41 451 54T462 93Q458
112 452 133T441 175T429 217Q427 225 424 229T412 233H235Q228 233 224 229T218 216Q214 202 209 188T200 160T191 132T183 105Q176 75 189 59T245 33Q269 28 269 12Q269 5 264 2T246 -2Q217 -2 192 -1T137 1Q107 1 80 -2T22 -5ZM263 287H393Q408 287 408 294Q408
297 408 299T406 304L339 530Q336 541 333 541Q331 541 326 530L247 304Q245 300 245 296Q245 291 250 289T263 287ZM328 771Q328 750 343 735T381 720Q402 720 413 736T424 771Q424 793 410 808T373 823Q352 823 340 808T328 771ZM382 856Q422 856 454 836T487
778Q487 751 470 731T427 700T371 689Q330 689 298 710T265 769Q265 795 282 814T325 845T382 856Z" />
<glyph unicode="&#xc6;" horiz-adv-x="909" d="M22 -5Q10 -5 3 -2T-5 11Q-5 20 2 25T19 33Q47 42 71 61T109 103L403 598Q405 603 404 607T395 612L362 619Q352 622 348 627T343 639Q343 654 362 654Q394 654 435 652T511 650Q555 650 606 650T703 652T781 653T821
654Q828 654 836 650T845 635Q852 600 856 567T862 506Q862 497 858 493T848 488Q843 488 838 491T829 503Q818 533 809 554T787 588Q776 600 760 605T721 611H646Q624 611 609 600T593 568V373Q593 361 599 355T617 349Q640 349 662 349T704 350Q728 350 739 366T760
404Q766 414 771 420T783 427Q788 427 792 421T795 405Q794 384 793 365T791 326Q791 307 792 288T795 245Q796 231 793 225T785 219Q777 219 771 226T761 243Q752 273 740 289T711 305Q686 305 663 305T615 305Q604 305 599 299T593 282V99Q593 71 605 57T645
43H736Q748 43 761 45T785 53T806 64Q825 79 838 102T863 150Q866 158 869 162T878 166Q893 166 893 152Q893 125 884 85T864 9Q862 2 856 -1T841 -4Q830 -4 795 -4T711 -2T611 -1T514 0Q494 0 470 -1T421 -3T375 -5Q366 -5 361 -1T355 10Q355 25 377 31Q411 40
425 52T439 95V241Q439 247 436 253T421 259H280Q272 259 266 255T254 241Q238 209 223 174T197 110Q191 92 191 80Q191 61 206 51T254 33Q278 28 278 12Q278 5 273 2T255 -2Q226 -2 197 -1T138 1Q108 1 80 -2T22 -5ZM325 314H424Q430 314 434 318T439 327V548Q439
557 437 562T427 553L310 332Q306 325 309 319Q310 316 315 315T325 314Z" />
<glyph unicode="&#xc7;" horiz-adv-x="709" d="M405 -14Q327 -14 259 9T139 76T58 181T29 316Q29 385 56 447T137 558T264 635T433 664Q465 664 497 660T560 647T616 630Q625 626 631 620T639 601Q643 568 645 537T647 481Q647 470 639 466T622 465T608 481Q601
504 592 527T563 567Q543 587 508 600T422 613Q371 613 330 591T259 531T213 445T197 345Q197 279 211 223T254 125T325 61T424 38Q498 38 544 69T621 166Q629 184 643 183T658 166Q658 153 656 135T648 95T636 52Q632 40 626 34T609 22Q571 6 519 -4T405 -14ZM325
-275Q301 -275 288 -268T274 -232Q274 -215 280 -208T294 -201Q300 -201 311 -207T355 -214Q370 -214 384 -206T399 -176Q399 -157 388 -147T350 -136Q342 -136 338 -138T326 -141Q311 -141 304 -133T297 -119Q297 -112 298 -108T304 -100L396 8H442L406 -39Q395
-54 411 -60Q437 -70 456 -90T475 -143Q475 -178 451 -208T392 -256T325 -275Z" />
<glyph unicode="&#xc8;" horiz-adv-x="575" d="M327 682Q324 681 317 683T301 690Q263 714 219 739T136 789Q120 801 117 811Q116 820 130 828T163 842T188 849Q209 851 222 837Q252 807 277 776T328 712Q338 698 338 691Q338 684 327 682ZM41 -5Q31 -5 26 -1T20
10Q20 25 42 31Q76 40 90 52T105 96V551Q105 583 92 597T43 619Q30 622 25 627T20 640Q20 646 26 650T42 655Q67 655 93 654T144 652T192 650Q244 650 303 651T408 653Q440 653 461 656T486 660Q493 660 501 656T511 641Q515 605 521 571T527 511Q527 502 523 497T514
492Q509 492 504 496T495 508Q485 533 477 551T459 580Q447 591 430 601T387 611H312Q290 611 274 600T258 567V378Q258 366 265 360T283 354H371Q397 354 408 371T429 414Q436 433 449 433Q454 433 458 428T461 411Q460 399 459 385T458 357T457 330Q457 318 457
304T458 276T460 249Q462 235 459 229T450 222Q434 222 427 248Q418 278 407 294T376 310H283Q271 310 265 305T258 287V97Q258 67 271 55T311 43H397Q419 43 439 48T473 65Q490 79 504 100T530 145Q534 152 538 154T549 157Q554 157 556 151T559 138Q559 121 554
100T542 56T527 9Q525 2 519 -1T505 -4Q492 -4 457 -4T373 -2T274 -1T179 0Q159 0 135 -1T87 -3T41 -5Z" />
<glyph unicode="&#xc9;" horiz-adv-x="575" d="M41 -5Q31 -5 26 -1T20 10Q20 25 42 31Q76 40 90 52T105 96V551Q105 583 92 597T43 619Q30 622 25 627T20 640Q20 646 26 650T42 655Q67 655 93 654T144 652T192 650Q244 650 303 651T408 653Q440 653 461 656T486
660Q493 660 501 656T511 641Q515 605 521 571T527 511Q527 502 523 497T514 492Q509 492 504 496T495 508Q485 533 477 551T459 580Q447 591 430 601T387 611H312Q290 611 274 600T258 567V378Q258 366 265 360T283 354H371Q397 354 408 371T429 414Q436 433 449
433Q454 433 458 428T461 411Q460 399 459 385T458 357T457 330Q457 318 457 304T458 276T460 249Q462 235 459 229T450 222Q434 222 427 248Q418 278 407 294T376 310H283Q271 310 265 305T258 287V97Q258 67 271 55T311 43H397Q419 43 439 48T473 65Q490 79 504
100T530 145Q534 152 538 154T549 157Q554 157 556 151T559 138Q559 121 554 100T542 56T527 9Q525 2 519 -1T505 -4Q492 -4 457 -4T373 -2T274 -1T179 0Q159 0 135 -1T87 -3T41 -5ZM251 682Q239 684 239 691Q239 698 250 712Q275 745 300 776T355 837Q368 851
389 849Q397 848 414 842T447 828T460 811Q458 801 441 789Q403 764 359 739T276 690Q267 685 260 683T251 682Z" />
<glyph unicode="&#xca;" horiz-adv-x="575" d="M41 -5Q31 -5 26 -1T20 10Q20 25 42 31Q76 40 90 52T105 96V551Q105 583 92 597T43 619Q30 622 25 627T20 640Q20 646 26 650T42 655Q67 655 93 654T144 652T192 650Q244 650 303 651T408 653Q440 653 461 656T486
660Q493 660 501 656T511 641Q515 605 521 571T527 511Q527 502 523 497T514 492Q509 492 504 496T495 508Q485 533 477 551T459 580Q447 591 430 601T387 611H312Q290 611 274 600T258 567V378Q258 366 265 360T283 354H371Q397 354 408 371T429 414Q436 433 449
433Q454 433 458 428T461 411Q460 399 459 385T458 357T457 330Q457 318 457 304T458 276T460 249Q462 235 459 229T450 222Q434 222 427 248Q418 278 407 294T376 310H283Q271 310 265 305T258 287V97Q258 67 271 55T311 43H397Q419 43 439 48T473 65Q490 79 504
100T530 145Q534 152 538 154T549 157Q554 157 556 151T559 138Q559 121 554 100T542 56T527 9Q525 2 519 -1T505 -4Q492 -4 457 -4T373 -2T274 -1T179 0Q159 0 135 -1T87 -3T41 -5ZM155 693Q136 693 136 705Q136 714 144 720L249 814Q266 830 276 836T299 843Q313
843 323 837T350 814L454 721Q461 715 461 705Q461 692 445 692Q438 692 422 697T384 710T344 726T311 742Q304 746 299 746T287 742Q275 735 256 727T215 711T178 698T155 693Z" />
<glyph unicode="&#xcb;" horiz-adv-x="575" d="M41 -5Q31 -5 26 -1T20 10Q20 25 42 31Q76 40 90 52T105 96V551Q105 583 92 597T43 619Q30 622 25 627T20 640Q20 646 26 650T42 655Q67 655 93 654T144 652T192 650Q244 650 303 651T408 653Q440 653 461 656T486
660Q493 660 501 656T511 641Q515 605 521 571T527 511Q527 502 523 497T514 492Q509 492 504 496T495 508Q485 533 477 551T459 580Q447 591 430 601T387 611H312Q290 611 274 600T258 567V378Q258 366 265 360T283 354H371Q397 354 408 371T429 414Q436 433 449
433Q454 433 458 428T461 411Q460 399 459 385T458 357T457 330Q457 318 457 304T458 276T460 249Q462 235 459 229T450 222Q434 222 427 248Q418 278 407 294T376 310H283Q271 310 265 305T258 287V97Q258 67 271 55T311 43H397Q419 43 439 48T473 65Q490 79 504
100T530 145Q534 152 538 154T549 157Q554 157 556 151T559 138Q559 121 554 100T542 56T527 9Q525 2 519 -1T505 -4Q492 -4 457 -4T373 -2T274 -1T179 0Q159 0 135 -1T87 -3T41 -5ZM397 688Q368 688 347 709T326 759Q326 790 347 810T397 831Q429 831 450 811T472
759Q472 730 451 709T397 688ZM200 688Q171 688 150 709T128 759Q128 790 149 810T200 831Q231 831 252 811T274 759Q274 730 253 709T200 688Z" />
<glyph unicode="&#xcc;" horiz-adv-x="364" d="M213 682Q210 681 203 683T187 690Q149 714 105 739T22 789Q6 801 3 811Q2 820 16 828T49 842T74 849Q95 851 108 837Q138 807 163 776T214 712Q224 698 224 691Q224 684 213 682ZM36 -3Q28 -3 22 0T16 11Q16 27
37 32Q75 40 90 52T105 97V551Q105 583 92 596T39 619Q18 624 18 640Q18 647 24 651T38 655Q61 655 86 654T136 652T182 650Q202 650 227 651T279 653T328 654Q337 654 342 651T347 640Q347 630 342 626T325 619Q285 608 272 595T259 550V98Q259 69 273 56T327
32Q337 29 342 25T348 12Q348 5 344 1T330 -3Q308 -3 281 -2T228 1T182 2Q161 2 136 1T85 -1T36 -3Z" />
<glyph unicode="&#xcd;" horiz-adv-x="364" d="M36 -3Q28 -3 22 0T16 11Q16 27 37 32Q75 40 90 52T105 97V551Q105 583 92 596T39 619Q18 624 18 640Q18 647 24 651T38 655Q61 655 86 654T136 652T182 650Q202 650 227 651T279 653T328 654Q337 654 342 651T347
640Q347 630 342 626T325 619Q285 608 272 595T259 550V98Q259 69 273 56T327 32Q337 29 342 25T348 12Q348 5 344 1T330 -3Q308 -3 281 -2T228 1T182 2Q161 2 136 1T85 -1T36 -3ZM137 682Q125 684 125 691Q125 698 136 712Q161 745 186 776T241 837Q254 851 275
849Q283 848 300 842T333 828T346 811Q344 801 327 789Q289 764 245 739T162 690Q153 685 146 683T137 682Z" />
<glyph unicode="&#xce;" horiz-adv-x="364" d="M36 -3Q28 -3 22 0T16 11Q16 27 37 32Q75 40 90 52T105 97V551Q105 583 92 596T39 619Q18 624 18 640Q18 647 24 651T38 655Q61 655 86 654T136 652T182 650Q202 650 227 651T279 653T328 654Q337 654 342 651T347
640Q347 630 342 626T325 619Q285 608 272 595T259 550V98Q259 69 273 56T327 32Q337 29 342 25T348 12Q348 5 344 1T330 -3Q308 -3 281 -2T228 1T182 2Q161 2 136 1T85 -1T36 -3ZM41 693Q22 693 22 705Q22 714 30 720L135 814Q152 830 162 836T185 843Q199 843
209 837T236 814L340 721Q347 715 347 705Q347 692 331 692Q324 692 308 697T270 710T230 726T197 742Q190 746 185 746T173 742Q161 735 142 727T101 711T64 698T41 693Z" />
<glyph unicode="&#xcf;" horiz-adv-x="364" d="M36 -3Q28 -3 22 0T16 11Q16 27 37 32Q75 40 90 52T105 97V551Q105 583 92 596T39 619Q18 624 18 640Q18 647 24 651T38 655Q61 655 86 654T136 652T182 650Q202 650 227 651T279 653T328 654Q337 654 342 651T347
640Q347 630 342 626T325 619Q285 608 272 595T259 550V98Q259 69 273 56T327 32Q337 29 342 25T348 12Q348 5 344 1T330 -3Q308 -3 281 -2T228 1T182 2Q161 2 136 1T85 -1T36 -3ZM283 688Q254 688 233 709T212 759Q212 790 233 810T283 831Q315 831 336 811T358
759Q358 730 337 709T283 688ZM86 688Q57 688 36 709T14 759Q14 790 35 810T86 831Q117 831 138 811T160 759Q160 730 139 709T86 688Z" />
<glyph unicode="&#xd0;" horiz-adv-x="766" d="M58 306Q46 306 41 316T35 335Q35 348 43 356T63 364H365Q374 364 380 359T386 346Q386 345 386 344T385 341Q382 329 372 318T345 306H58ZM382 -7Q348 -7 308 -5T232 -2T179 0Q159 0 135 0T86 -2T37 -3Q30 -3 24
0T18 11Q18 20 23 25T39 32Q77 40 91 52T105 97V551Q105 583 92 596T39 619Q29 621 24 626T18 640Q18 647 24 651T37 655Q60 655 85 654T135 652T180 650Q196 650 222 651T278 654T337 657T384 659Q460 659 524 636T637 569T713 466T740 336Q740 269 716 208T646
98T534 21T382 -7ZM367 44Q435 44 481 77T549 170T572 309Q572 376 558 430T516 524T448 584T356 606Q324 606 303 604T270 594T259 568V132Q259 99 271 80T308 53T367 44Z" />
<glyph unicode="&#xd1;" horiz-adv-x="809" d="M680 -19Q667 -19 638 -4T578 51Q554 76 528 105T473 165T415 228T356 291T298 354T243 414T193 468Q191 472 187 475T180 479Q176 479 175 472T173 460Q172 414 173 352T175 227T177 111Q177 79 197 61T256 32Q267
30 275 26T284 12Q284 5 276 1T259 -3Q232 -3 215 -2T184 0T148 1Q126 1 107 0T74 -2T55 -3Q48 -3 40 0T31 11Q31 20 39 24T57 32Q81 41 93 62T108 114Q112 151 116 212T125 349T129 508Q129 560 103 583T38 620Q30 622 20 627T10 642Q10 651 18 654T36 658Q54
658 76 657T124 656T176 654T230 653Q238 653 242 650T251 642Q273 617 298 588T352 528T409 464T466 398T522 334T576 274T624 220Q627 216 631 212T640 207Q648 207 648 222Q648 253 648 294T649 381T649 472T646 555Q645 582 626 595T572 618Q561 620 553 625T545
639Q545 646 553 649T570 653Q593 653 609 653T638 652T667 652Q687 652 701 652T731 654T774 655Q786 655 792 651T799 640Q799 625 773 620Q738 613 723 600T707 558Q707 522 707 481T704 397T701 312T698 230T697 158Q697 135 700 108T705 58T708 26Q708 1 701
-9T680 -19ZM287 691Q282 691 275 697T268 707Q268 713 277 729T299 763T326 794T346 808Q365 808 386 807T429 804Q448 803 469 802T513 801Q524 801 532 807T548 820Q556 828 560 835T568 842Q574 842 582 836T591 823Q591 820 587 813T573 795Q562 779 552 764T533
735Q527 726 518 724T502 721Q494 721 471 722T421 726T369 730T335 732Q327 732 319 726T305 713Q299 705 294 698T287 691Z" />
<glyph unicode="&#xd2;" horiz-adv-x="760" d="M420 682Q417 681 410 683T394 690Q356 714 312 739T229 789Q213 801 210 811Q209 820 223 828T256 842T281 849Q302 851 315 837Q345 807 370 776T421 712Q431 698 431 691Q431 684 420 682ZM375 -14Q306 -14 244
9T133 76T57 180T29 315Q29 383 51 445T119 557T230 635T384 664Q454 664 516 641T627 574T703 470T731 335Q731 268 708 205T640 93T529 15T375 -14ZM393 32Q450 32 488 64T546 153T565 284Q565 345 554 404T518 512T455 588T365 617Q309 617 271 585T213 497T194
367Q194 305 206 246T242 138T303 61T393 32Z" />
<glyph unicode="&#xd3;" horiz-adv-x="760" d="M375 -14Q306 -14 244 9T133 76T57 180T29 315Q29 383 51 445T119 557T230 635T384 664Q454 664 516 641T627 574T703 470T731 335Q731 268 708 205T640 93T529 15T375 -14ZM393 32Q450 32 488 64T546 153T565 284Q565
345 554 404T518 512T455 588T365 617Q309 617 271 585T213 497T194 367Q194 305 206 246T242 138T303 61T393 32ZM344 682Q332 684 332 691Q332 698 343 712Q368 745 393 776T448 837Q461 851 482 849Q490 848 507 842T540 828T553 811Q551 801 534 789Q496 764
452 739T369 690Q360 685 353 683T344 682Z" />
<glyph unicode="&#xd4;" horiz-adv-x="760" d="M375 -14Q306 -14 244 9T133 76T57 180T29 315Q29 383 51 445T119 557T230 635T384 664Q454 664 516 641T627 574T703 470T731 335Q731 268 708 205T640 93T529 15T375 -14ZM393 32Q450 32 488 64T546 153T565 284Q565
345 554 404T518 512T455 588T365 617Q309 617 271 585T213 497T194 367Q194 305 206 246T242 138T303 61T393 32ZM248 693Q229 693 229 705Q229 714 237 720L342 814Q359 830 369 836T392 843Q406 843 416 837T443 814L547 721Q554 715 554 705Q554 692 538 692Q531
692 515 697T477 710T437 726T404 742Q397 746 392 746T380 742Q368 735 349 727T308 711T271 698T248 693Z" />
<glyph unicode="&#xd5;" horiz-adv-x="760" d="M375 -14Q306 -14 244 9T133 76T57 180T29 315Q29 383 51 445T119 557T230 635T384 664Q454 664 516 641T627 574T703 470T731 335Q731 268 708 205T640 93T529 15T375 -14ZM393 32Q450 32 488 64T546 153T565 284Q565
345 554 404T518 512T455 588T365 617Q309 617 271 585T213 497T194 367Q194 305 206 246T242 138T303 61T393 32ZM254 691Q249 691 242 697T235 707Q235 713 244 729T266 763T293 794T313 808Q332 808 353 807T396 804Q415 803 436 802T480 801Q491 801 499 807T515
820Q523 828 527 835T535 842Q541 842 549 836T558 823Q558 820 554 813T540 795Q529 779 519 764T500 735Q494 726 485 724T469 721Q461 721 438 722T388 726T336 730T302 732Q294 732 286 726T272 713Q266 705 261 698T254 691Z" />
<glyph unicode="&#xd6;" horiz-adv-x="760" d="M375 -14Q306 -14 244 9T133 76T57 180T29 315Q29 383 51 445T119 557T230 635T384 664Q454 664 516 641T627 574T703 470T731 335Q731 268 708 205T640 93T529 15T375 -14ZM393 32Q450 32 488 64T546 153T565 284Q565
345 554 404T518 512T455 588T365 617Q309 617 271 585T213 497T194 367Q194 305 206 246T242 138T303 61T393 32ZM490 688Q461 688 440 709T419 759Q419 790 440 810T490 831Q522 831 543 811T565 759Q565 730 544 709T490 688ZM293 688Q264 688 243 709T221 759Q221
790 242 810T293 831Q324 831 345 811T367 759Q367 730 346 709T293 688Z" />
<glyph unicode="&#xd7;" horiz-adv-x="539" d="M435 51Q426 51 418 59L276 200Q268 209 259 200L124 63Q120 59 115 57T105 56Q98 56 90 70T81 99Q81 110 87 116L215 243Q221 249 221 252T215 261L84 393Q79 399 79 407Q79 419 86 431T98 449Q102 453 108 453T119
447L260 305Q265 301 268 301T276 305L418 447Q424 453 431 453Q437 453 440 449Q445 442 452 431T459 408Q459 400 453 393L320 260Q313 252 320 244L455 112Q461 105 461 94Q461 83 454 67T435 51Z" />
<glyph unicode="&#xd8;" horiz-adv-x="762" d="M77 -14Q59 -14 45 -3T30 20Q30 39 46 54L688 656Q696 666 710 664T727 650Q729 644 731 638T733 624Q733 616 731 608T721 593L92 -8Q89 -10 86 -12T77 -14ZM375 -14Q306 -14 244 9T133 76T57 180T29 315Q29 383
51 445T119 557T230 635T384 664Q454 664 516 641T627 574T703 470T731 335Q731 268 708 205T640 93T529 15T375 -14ZM393 32Q450 32 488 64T546 153T565 284Q565 345 554 404T518 512T455 588T365 617Q309 617 271 585T213 497T194 367Q194 305 206 246T242 138T303
61T393 32Z" />
<glyph unicode="&#xd9;" horiz-adv-x="745" d="M434 682Q431 681 425 683T409 690Q371 714 327 739T244 789Q227 801 225 811Q223 820 238 828T270 842T296 849Q316 851 330 837Q359 807 384 776T435 712Q446 698 446 691Q446 684 434 682ZM373 -14Q279 -14 216
19T122 113T90 253V538Q90 566 77 589T39 618Q11 626 11 640Q11 647 18 651T37 655Q69 655 103 653T167 650Q195 650 234 652T302 654Q314 654 321 651T329 639Q329 628 314 623T282 610Q267 604 256 586T245 533V271Q245 203 267 159T325 94T407 73Q498 73 542
127T587 292Q587 318 587 350T588 417T587 483Q586 528 581 553T564 592T534 615Q523 621 509 625T494 639Q494 647 502 650T524 653Q560 653 578 652T620 651Q639 651 651 652T677 654T710 655Q722 655 729 652T736 640Q736 627 709 619Q676 610 663 589T647 531Q644
455 643 392T642 262Q641 181 606 119T509 21T373 -14Z" />
<glyph unicode="&#xda;" horiz-adv-x="745" d="M373 -14Q279 -14 216 19T122 113T90 253V538Q90 566 77 589T39 618Q11 626 11 640Q11 647 18 651T37 655Q69 655 103 653T167 650Q195 650 234 652T302 654Q314 654 321 651T329 639Q329 628 314 623T282 610Q267
604 256 586T245 533V271Q245 203 267 159T325 94T407 73Q498 73 542 127T587 292Q587 318 587 350T588 417T587 483Q586 528 581 553T564 592T534 615Q523 621 509 625T494 639Q494 647 502 650T524 653Q560 653 578 652T620 651Q639 651 651 652T677 654T710
655Q722 655 729 652T736 640Q736 627 709 619Q676 610 663 589T647 531Q644 455 643 392T642 262Q641 181 606 119T509 21T373 -14ZM359 682Q347 684 347 691Q347 698 358 712Q383 745 408 776T463 837Q476 851 497 849Q505 848 522 842T555 828T568 811Q566 801
549 789Q511 764 467 739T384 690Q375 685 368 683T359 682Z" />
<glyph unicode="&#xdb;" horiz-adv-x="745" d="M373 -14Q279 -14 216 19T122 113T90 253V538Q90 566 77 589T39 618Q11 626 11 640Q11 647 18 651T37 655Q69 655 103 653T167 650Q195 650 234 652T302 654Q314 654 321 651T329 639Q329 628 314 623T282 610Q267
604 256 586T245 533V271Q245 203 267 159T325 94T407 73Q498 73 542 127T587 292Q587 318 587 350T588 417T587 483Q586 528 581 553T564 592T534 615Q523 621 509 625T494 639Q494 647 502 650T524 653Q560 653 578 652T620 651Q639 651 651 652T677 654T710
655Q722 655 729 652T736 640Q736 627 709 619Q676 610 663 589T647 531Q644 455 643 392T642 262Q641 181 606 119T509 21T373 -14ZM262 693Q243 693 243 705Q243 714 251 720L356 814Q373 830 383 836T406 843Q420 843 430 837T457 814L561 721Q568 715 568 705Q568
692 552 692Q545 692 529 697T491 710T451 726T418 742Q411 746 406 746T394 742Q382 735 363 727T322 711T285 698T262 693Z" />
<glyph unicode="&#xdc;" horiz-adv-x="745" d="M373 -14Q279 -14 216 19T122 113T90 253V538Q90 566 77 589T39 618Q11 626 11 640Q11 647 18 651T37 655Q69 655 103 653T167 650Q195 650 234 652T302 654Q314 654 321 651T329 639Q329 628 314 623T282 610Q267
604 256 586T245 533V271Q245 203 267 159T325 94T407 73Q498 73 542 127T587 292Q587 318 587 350T588 417T587 483Q586 528 581 553T564 592T534 615Q523 621 509 625T494 639Q494 647 502 650T524 653Q560 653 578 652T620 651Q639 651 651 652T677 654T710
655Q722 655 729 652T736 640Q736 627 709 619Q676 610 663 589T647 531Q644 455 643 392T642 262Q641 181 606 119T509 21T373 -14ZM504 688Q475 688 454 709T433 759Q433 790 454 810T504 831Q536 831 557 811T579 759Q579 730 558 709T504 688ZM307 688Q278
688 257 709T235 759Q235 790 256 810T307 831Q338 831 359 811T381 759Q381 730 360 709T307 688Z" />
<glyph unicode="&#xdd;" horiz-adv-x="654" d="M193 -6Q180 -6 172 -2T164 10Q164 19 173 24T194 31Q232 39 247 58T262 110V248Q262 283 253 306T231 349L102 548Q94 562 83 576T58 601T24 618Q14 622 7 626T0 640Q0 647 6 650T21 654Q63 654 101 651T183 648Q216
648 245 651T308 654Q317 654 326 651T335 640Q335 632 326 627T306 619Q279 612 267 605T255 581Q255 566 266 546L369 369Q378 351 387 351Q391 351 395 355T405 369Q429 410 450 450T493 537Q498 547 501 558T505 578Q505 597 488 607T451 618Q441 620 431 625T420
640Q420 647 429 650T449 653Q478 653 501 651T551 649Q577 649 601 652T653 656Q664 656 673 653T683 640Q683 631 673 627T652 619Q622 612 601 594T565 551Q549 525 534 501T504 452T474 404T444 354Q436 340 430 325T420 294T416 257V110Q416 73 431 58T485
31Q497 28 505 24T514 11Q514 4 507 0T488 -5Q466 -5 439 -3T386 0T339 2Q318 2 293 1T242 -3T193 -6ZM325 682Q313 684 313 691Q313 698 324 712Q349 745 374 776T429 837Q442 851 463 849Q471 848 488 842T521 828T534 811Q532 801 515 789Q477 764 433 739T350
690Q341 685 334 683T325 682Z" />
<glyph unicode="&#xde;" horiz-adv-x="590" d="M36 -3Q29 -3 23 0T16 11Q16 27 38 32Q76 40 91 52T106 97V551Q106 582 94 596T42 619Q20 624 20 640Q20 647 26 651T40 655Q63 655 88 654T138 652T182 650Q202 650 228 651T281 653T330 654Q339 654 344 651T349
640Q349 630 344 626T327 619Q289 608 276 597T260 559V548Q260 545 261 542T266 539Q268 539 274 540T285 543T289 545Q307 550 326 551T366 553Q420 553 466 531T539 463T567 349Q567 278 532 229T437 154T307 128Q297 128 286 129T268 131Q260 131 260 122V98Q260
69 274 56T327 32Q338 29 343 25T349 12Q349 5 345 1T331 -3Q309 -3 282 -2T229 1T182 2Q162 2 137 1T85 -1T36 -3ZM299 168Q360 168 387 212T414 335Q414 388 403 427T371 487T321 509Q302 509 288 503T267 480T260 433V234Q260 192 273 180T299 168Z" />
<glyph unicode="&#xdf;" horiz-adv-x="580" d="M394 -14Q346 -14 322 3T297 47Q297 65 305 85T331 106Q339 106 346 101T366 82Q380 66 394 56T431 46Q445 46 460 56T476 87Q476 106 464 124T431 161T385 201Q358 225 336 246T301 288T287 334Q287 358 299 375T330
408T366 440Q388 461 402 487T416 546Q416 598 393 631T321 665Q268 665 241 621T213 472V74Q213 54 228 45T265 31Q273 29 279 24T285 11Q285 5 279 1T267 -3Q248 -3 227 -2T187 1T150 2Q133 2 116 1T80 -1T41 -3Q36 -3 29 0T21 11Q21 19 28 23T44 31Q59 36 70
43T82 71V355Q72 355 59 355T30 357Q24 358 20 368T16 386Q16 393 25 396Q39 401 53 406T82 419Q86 499 111 554T175 642T259 691T346 706Q388 706 420 691T472 650T492 595Q492 551 477 525T440 475Q423 456 412 435T401 375Q401 360 410 346T436 317T473 283Q497
264 516 244T546 203T558 156Q558 120 542 90T499 36T445 -1T394 -14Z" />
<glyph unicode="&#xe0;" horiz-adv-x="438" d="M259 453Q248 453 232 469Q212 490 190 514T147 563T106 609Q100 616 98 622T96 634Q96 646 113 652T154 658Q172 658 182 653T199 633Q207 618 220 591T245 534T265 486Q268 480 269 475T270 465Q270 453 259 453ZM129
-14Q102 -14 79 -1T43 33T29 79Q29 113 50 136T114 177L203 216Q223 225 227 232T232 258L233 315Q234 343 223 359T190 376Q177 376 164 371T144 358Q141 354 140 349T138 337Q138 331 139 323T140 308Q140 302 124 293T87 276T51 268Q44 268 39 274T33 289Q33
305 44 320T80 356Q106 378 137 395T198 422T250 432Q304 432 336 398T366 306L361 104Q360 81 369 65T391 49Q410 49 424 62Q427 65 430 65Q435 65 438 62T442 54Q442 42 424 23Q405 5 384 -4T340 -14Q284 -14 247 43H245Q212 13 186 0T129 -14ZM189 51Q200 51
207 54T221 66Q224 70 226 76T228 92L231 164Q231 174 228 177T221 180Q219 180 216 179T209 176Q180 162 166 148T152 101Q152 72 164 62T189 51Z" />
<glyph unicode="&#xe1;" horiz-adv-x="438" d="M129 -14Q102 -14 79 -1T43 33T29 79Q29 113 50 136T114 177L203 216Q223 225 227 232T232 258L233 315Q234 343 223 359T190 376Q177 376 164 371T144 358Q141 354 140 349T138 337Q138 331 139 323T140 308Q140
302 124 293T87 276T51 268Q44 268 39 274T33 289Q33 305 44 320T80 356Q106 378 137 395T198 422T250 432Q304 432 336 398T366 306L361 104Q360 81 369 65T391 49Q410 49 424 62Q427 65 430 65Q435 65 438 62T442 54Q442 42 424 23Q405 5 384 -4T340 -14Q284
-14 247 43H245Q212 13 186 0T129 -14ZM189 51Q200 51 207 54T221 66Q224 70 226 76T228 92L231 164Q231 174 228 177T221 180Q219 180 216 179T209 176Q180 162 166 148T152 101Q152 72 164 62T189 51ZM195 453Q185 453 185 465Q185 469 186 474T190 486Q198 505
210 534T235 590T255 633Q263 648 273 653T300 658Q324 658 341 652T359 634Q359 629 357 623T349 609Q330 588 309 563T266 514T222 469Q206 453 195 453Z" />
<glyph unicode="&#xe2;" horiz-adv-x="438" d="M223 671Q233 671 240 662T258 634Q268 618 278 600T300 563T321 527T339 494Q347 477 343 466T329 455Q322 455 312 463T288 487Q278 499 263 517T229 555Q225 558 224 558T218 555Q199 535 184 517T158 487Q145
472 135 464T118 455Q103 455 102 466T108 494Q115 509 125 526T145 562T167 598T188 632Q199 652 206 661T223 671ZM129 -14Q102 -14 79 -1T43 33T29 79Q29 113 50 136T114 177L203 216Q223 225 227 232T232 258L233 315Q234 343 223 359T190 376Q177 376 164
371T144 358Q141 354 140 349T138 337Q138 331 139 323T140 308Q140 302 124 293T87 276T51 268Q44 268 39 274T33 289Q33 305 44 320T80 356Q106 378 137 395T198 422T250 432Q304 432 336 398T366 306L361 104Q360 81 369 65T391 49Q410 49 424 62Q427 65 430
65Q435 65 438 62T442 54Q442 42 424 23Q405 5 384 -4T340 -14Q284 -14 247 43H245Q212 13 186 0T129 -14ZM189 51Q200 51 207 54T221 66Q224 70 226 76T228 92L231 164Q231 174 228 177T221 180Q219 180 216 179T209 176Q180 162 166 148T152 101Q152 72 164 62T189
51Z" />
<glyph unicode="&#xe3;" horiz-adv-x="438" d="M129 -14Q102 -14 79 -1T43 33T29 79Q29 113 50 136T114 177L203 216Q223 225 227 232T232 258L233 315Q234 343 223 359T190 376Q177 376 164 371T144 358Q141 354 140 349T138 337Q138 331 139 323T140 308Q140
302 124 293T87 276T51 268Q44 268 39 274T33 289Q33 305 44 320T80 356Q106 378 137 395T198 422T250 432Q304 432 336 398T366 306L361 104Q360 81 369 65T391 49Q410 49 424 62Q427 65 430 65Q435 65 438 62T442 54Q442 42 424 23Q405 5 384 -4T340 -14Q284
-14 247 43H245Q212 13 186 0T129 -14ZM189 51Q200 51 207 54T221 66Q224 70 226 76T228 92L231 164Q231 174 228 177T221 180Q219 180 216 179T209 176Q180 162 166 148T152 101Q152 72 164 62T189 51ZM95 465Q90 465 82 472T73 484Q73 490 85 507T113 545T145
581T168 597Q179 597 192 594T236 589Q258 588 276 587T304 585Q313 585 322 590T339 605Q350 617 354 623T363 630Q369 630 377 624T386 611Q386 607 380 600T364 579Q353 564 342 546T321 514Q315 506 306 503T290 500Q282 500 262 501T219 504T175 507T145 509Q137
509 132 506T122 496Q110 480 105 473T95 465Z" />
<glyph unicode="&#xe4;" horiz-adv-x="438" d="M129 -14Q102 -14 79 -1T43 33T29 79Q29 113 50 136T114 177L203 216Q223 225 227 232T232 258L233 315Q234 343 223 359T190 376Q177 376 164 371T144 358Q141 354 140 349T138 337Q138 331 139 323T140 308Q140
302 124 293T87 276T51 268Q44 268 39 274T33 289Q33 305 44 320T80 356Q106 378 137 395T198 422T250 432Q304 432 336 398T366 306L361 104Q360 81 369 65T391 49Q410 49 424 62Q427 65 430 65Q435 65 438 62T442 54Q442 42 424 23Q405 5 384 -4T340 -14Q284
-14 247 43H245Q212 13 186 0T129 -14ZM189 51Q200 51 207 54T221 66Q224 70 226 76T228 92L231 164Q231 174 228 177T221 180Q219 180 216 179T209 176Q180 162 166 148T152 101Q152 72 164 62T189 51ZM317 494Q288 494 267 515T245 565Q245 595 266 616T317 637Q348
637 369 616T391 565Q391 536 370 515T317 494ZM122 494Q93 494 72 515T51 565Q51 595 72 616T122 637Q154 637 175 616T197 565Q197 536 176 515T122 494Z" />
<glyph unicode="&#xe5;" horiz-adv-x="438" d="M129 -14Q102 -14 79 -1T43 33T29 79Q29 113 50 136T114 177L203 216Q223 225 227 232T232 258L233 315Q234 343 223 359T190 376Q177 376 164 371T144 358Q141 354 140 349T138 337Q138 331 139 323T140 308Q140
302 124 293T87 276T51 268Q44 268 39 274T33 289Q33 305 44 320T80 356Q106 378 137 395T198 422T250 432Q304 432 336 398T366 306L361 104Q360 81 369 65T391 49Q410 49 424 62Q427 65 430 65Q435 65 438 62T442 54Q442 42 424 23Q405 5 384 -4T340 -14Q284
-14 247 43H245Q212 13 186 0T129 -14ZM189 51Q200 51 207 54T221 66Q224 70 226 76T228 92L231 164Q231 174 228 177T221 180Q219 180 216 179T209 176Q180 162 166 148T152 101Q152 72 164 62T189 51ZM217 480Q177 480 147 505T116 574Q116 603 131 625T172 661T227
674Q267 674 297 650T328 583Q328 552 313 529T272 493T217 480ZM227 516Q247 516 257 534T268 575Q268 600 254 617T218 635Q197 635 187 618T176 576Q176 552 190 534T227 516Z" />
<glyph unicode="&#xe6;" horiz-adv-x="623" d="M134 -14Q106 -14 82 -2T44 32T29 77Q29 112 50 136T114 177L203 211Q223 220 228 227T233 252L234 313Q235 341 224 357T190 374Q177 374 163 367T143 353Q139 346 139 334Q139 328 139 321T140 308Q140 300 123
291T85 275T51 268Q44 268 39 274T34 289Q34 321 80 358Q98 373 126 390T186 420T247 433Q271 433 290 426T327 403Q331 400 334 400Q338 400 342 403Q364 416 389 424T447 433Q490 433 524 418T579 377T600 315Q600 299 594 291T576 281Q569 279 543 271T483 253T419
233T374 218Q370 217 367 212T363 200V172Q363 149 376 128T411 94T461 80Q489 80 518 92T570 133Q575 139 583 139Q594 139 594 126Q594 122 593 116T589 104Q560 51 519 19T402 -14Q362 -14 329 -2T266 39Q264 41 262 43T257 45Q253 45 249 41Q234 26 219 14T184
-6T134 -14ZM189 51Q200 51 207 55T221 66Q225 71 228 77T231 93V154Q231 163 230 167T225 172Q221 172 214 169Q196 162 183 152T161 130T152 101Q152 72 164 62T189 51ZM375 267Q402 275 427 282T484 299Q493 301 495 307T498 322Q498 350 484 370T436 391Q419
391 403 383T377 362T366 329L365 275Q365 270 368 268T375 267Z" />
<glyph unicode="&#xe7;" horiz-adv-x="411" d="M211 -14Q158 -14 116 14T49 91T24 201Q24 266 54 318T134 401T247 432Q329 432 383 378Q392 368 392 360Q392 354 383 343T363 322T344 313Q335 313 327 318T310 331Q284 353 258 366T212 380Q174 380 155 349T135
246Q135 197 150 162T195 107T265 88Q295 88 317 97T363 127Q368 130 371 133T380 136Q392 136 392 120Q392 116 391 109T384 92Q375 72 350 47T289 4T211 -14ZM159 -274Q137 -274 126 -265T115 -226Q115 -212 119 -207T132 -202Q144 -202 159 -210T199 -218Q214
-218 221 -208T228 -178Q228 -157 210 -146T172 -135Q159 -135 153 -140T139 -145Q133 -145 125 -139T117 -121Q117 -112 131 -96L221 8H265L229 -35Q224 -42 224 -45Q224 -50 236 -56Q261 -67 276 -87T291 -140Q291 -166 278 -190T244 -233T202 -263T159 -274Z"
/>
<glyph unicode="&#xe8;" horiz-adv-x="417" d="M272 453Q261 453 245 469Q225 490 203 514T159 563T118 609Q113 616 111 622T108 634Q108 646 125 652T167 658Q185 658 195 653T212 633Q220 618 232 591T258 534T278 486Q281 480 282 475T283 465Q283 453 272
453ZM211 -14Q157 -14 115 14T48 92T23 205Q23 268 52 319T131 401T241 432Q284 432 318 414T372 364T393 294Q393 256 362 256H162Q148 256 142 248T135 221Q135 183 152 152T198 102T265 84Q294 84 318 95T367 125Q371 128 374 130T381 133Q391 133 391 120Q391
109 383 90Q373 65 350 41T291 1T211 -14ZM162 298H222Q250 298 261 299T281 303Q286 305 289 313T292 331Q292 358 274 375T228 392Q207 392 189 381T159 351T148 312Q148 298 162 298Z" />
<glyph unicode="&#xe9;" horiz-adv-x="417" d="M211 -14Q157 -14 115 14T48 92T23 205Q23 268 52 319T131 401T241 432Q284 432 318 414T372 364T393 294Q393 256 362 256H162Q148 256 142 248T135 221Q135 183 152 152T198 102T265 84Q294 84 318 95T367 125Q371
128 374 130T381 133Q391 133 391 120Q391 109 383 90Q373 65 350 41T291 1T211 -14ZM162 298H222Q250 298 261 299T281 303Q286 305 289 313T292 331Q292 358 274 375T228 392Q207 392 189 381T159 351T148 312Q148 298 162 298ZM208 453Q198 453 198 465Q198
469 199 474T203 486Q211 505 223 534T248 590T268 633Q276 648 286 653T313 658Q337 658 354 652T372 634Q372 629 370 623T362 609Q343 588 322 563T279 514T235 469Q219 453 208 453Z" />
<glyph unicode="&#xea;" horiz-adv-x="417" d="M236 671Q246 671 253 662T271 634Q280 618 291 600T313 563T334 527T351 494Q360 477 356 466T342 455Q335 455 325 463T301 487Q291 499 276 517T242 555Q238 558 237 558T230 555Q212 535 197 517T171 487Q158
472 148 464T130 455Q116 455 114 466T121 494Q128 509 137 526T158 562T180 598T200 632Q212 652 219 661T236 671ZM211 -14Q157 -14 115 14T48 92T23 205Q23 268 52 319T131 401T241 432Q284 432 318 414T372 364T393 294Q393 256 362 256H162Q148 256 142 248T135
221Q135 183 152 152T198 102T265 84Q294 84 318 95T367 125Q371 128 374 130T381 133Q391 133 391 120Q391 109 383 90Q373 65 350 41T291 1T211 -14ZM162 298H222Q250 298 261 299T281 303Q286 305 289 313T292 331Q292 358 274 375T228 392Q207 392 189 381T159
351T148 312Q148 298 162 298Z" />
<glyph unicode="&#xeb;" horiz-adv-x="417" d="M211 -14Q157 -14 115 14T48 92T23 205Q23 268 52 319T131 401T241 432Q284 432 318 414T372 364T393 294Q393 256 362 256H162Q148 256 142 248T135 221Q135 183 152 152T198 102T265 84Q294 84 318 95T367 125Q371
128 374 130T381 133Q391 133 391 120Q391 109 383 90Q373 65 350 41T291 1T211 -14ZM162 298H222Q250 298 261 299T281 303Q286 305 289 313T292 331Q292 358 274 375T228 392Q207 392 189 381T159 351T148 312Q148 298 162 298ZM329 494Q300 494 279 515T257
565Q257 595 278 616T329 637Q360 637 381 616T403 565Q403 536 382 515T329 494ZM134 494Q105 494 84 515T63 565Q63 595 84 616T134 637Q166 637 187 616T209 565Q209 536 188 515T134 494Z" />
<glyph unicode="&#xec;" horiz-adv-x="295" d="M184 453Q173 453 157 469Q137 490 115 514T71 563T30 609Q25 616 23 622T20 634Q20 646 37 652T79 658Q97 658 107 653T124 633Q132 618 144 591T170 534T190 486Q192 480 193 475T194 465Q194 453 184 453ZM37
-3Q31 -3 26 0T21 10Q21 18 26 23T39 30Q65 36 75 43T86 67V283Q86 317 76 331T43 349Q37 350 34 355T31 367Q31 382 42 384Q94 394 134 412T197 440Q213 448 217 448Q230 448 230 436Q229 419 226 394T220 341T217 289V68Q217 54 227 46T265 30Q273 27 278 23T283
11Q283 -2 268 -2Q249 -2 228 -1T188 1T150 2Q133 2 115 1T77 -1T37 -3Z" />
<glyph unicode="&#xed;" horiz-adv-x="295" d="M37 -3Q31 -3 26 0T21 10Q21 18 26 23T39 30Q65 36 75 43T86 67V283Q86 317 76 331T43 349Q37 350 34 355T31 367Q31 382 42 384Q94 394 134 412T197 440Q213 448 217 448Q230 448 230 436Q229 419 226 394T220 341T217
289V68Q217 54 227 46T265 30Q273 27 278 23T283 11Q283 -2 268 -2Q249 -2 228 -1T188 1T150 2Q133 2 115 1T77 -1T37 -3ZM120 453Q110 453 110 465Q110 469 111 474T115 486Q123 505 135 534T160 590T180 633Q188 648 198 653T225 658Q249 658 266 652T284 634Q284
629 282 623T274 609Q255 588 234 563T191 514T147 469Q131 453 120 453Z" />
<glyph unicode="&#xee;" horiz-adv-x="295" d="M148 671Q158 671 165 662T183 634Q192 618 203 600T225 563T246 527T263 494Q271 477 267 466T253 455Q247 455 237 463T213 487Q203 499 188 517T153 555Q150 558 149 558T142 555Q124 535 109 517T83 487Q70 472
60 464T42 455Q28 455 26 466T32 494Q40 509 49 526T70 562T92 598T112 632Q124 652 131 661T148 671ZM37 -3Q31 -3 26 0T21 10Q21 18 26 23T39 30Q65 36 75 43T86 67V283Q86 317 76 331T43 349Q37 350 34 355T31 367Q31 382 42 384Q94 394 134 412T197 440Q213
448 217 448Q230 448 230 436Q229 419 226 394T220 341T217 289V68Q217 54 227 46T265 30Q273 27 278 23T283 11Q283 -2 268 -2Q249 -2 228 -1T188 1T150 2Q133 2 115 1T77 -1T37 -3Z" />
<glyph unicode="&#xef;" horiz-adv-x="295" d="M37 -3Q31 -3 26 0T21 10Q21 18 26 23T39 30Q65 36 75 43T86 67V283Q86 317 76 331T43 349Q37 350 34 355T31 367Q31 382 42 384Q94 394 134 412T197 440Q213 448 217 448Q230 448 230 436Q229 419 226 394T220 341T217
289V68Q217 54 227 46T265 30Q273 27 278 23T283 11Q283 -2 268 -2Q249 -2 228 -1T188 1T150 2Q133 2 115 1T77 -1T37 -3ZM241 494Q212 494 191 515T169 565Q169 595 190 616T241 637Q272 637 293 616T315 565Q315 536 294 515T241 494ZM46 494Q17 494 -4 515T-25
565Q-25 595 -4 616T46 637Q78 637 99 616T121 565Q121 536 100 515T46 494Z" />
<glyph unicode="&#xf0;" horiz-adv-x="514" d="M246 -14Q186 -14 135 12T52 86T21 195Q21 260 53 314T141 400T268 433Q277 433 284 432T298 427Q301 426 302 426T303 432Q296 457 286 488T264 540L139 474Q129 469 121 475T113 487Q113 503 118 511T133 526L238
579Q211 613 177 636T100 667Q89 669 78 673T66 688Q66 698 79 701T110 704Q166 704 221 684T324 624L431 681Q439 685 450 683T461 671Q461 658 456 649T436 631L363 591Q398 554 425 502T468 386T484 250Q484 206 469 160T423 75T349 11T246 -14ZM262 32Q289
32 306 51T334 113T344 226Q344 256 337 290T321 346Q305 367 288 376T249 385Q224 385 204 365T173 307T161 220Q161 173 175 130T212 60T262 32Z" />
<glyph unicode="&#xf1;" horiz-adv-x="566" d="M41 -3Q34 -3 28 0T21 11Q21 19 28 23T44 31Q59 36 70 42T82 69V298Q82 320 76 335T51 354Q47 355 44 359T40 372Q40 386 50 389Q84 397 124 410T194 439Q198 441 203 444T212 447Q218 447 219 444T221 435Q221 427
219 410T216 378Q216 374 216 369T218 363Q252 396 287 414T368 432Q420 432 455 394T491 289V69Q491 49 502 43T529 31Q537 28 543 24T549 11Q549 4 544 1T532 -3Q512 -3 495 -2T461 1T426 2Q409 2 392 1T358 -1T321 -3Q315 -3 310 0T304 11Q304 19 310 23T324
31Q339 36 349 42T359 69V268Q359 306 342 327T295 350Q273 350 256 343T221 324Q217 320 215 315T213 305V69Q213 49 224 43T249 31Q269 25 269 11Q269 5 264 1T252 -3Q232 -3 215 -2T183 1T150 2Q133 2 116 1T80 -1T41 -3ZM160 465Q155 465 147 472T138 484Q138
490 150 507T178 545T210 581T233 597Q244 597 257 594T301 589Q323 588 341 587T369 585Q378 585 387 590T404 605Q415 617 419 623T428 630Q434 630 442 624T451 611Q451 607 445 600T429 579Q418 564 407 546T386 514Q380 506 371 503T355 500Q347 500 327 501T284
504T240 507T210 509Q202 509 197 506T187 496Q175 480 170 473T160 465Z" />
<glyph unicode="&#xf2;" horiz-adv-x="503" d="M295 453Q284 453 268 469Q248 490 226 514T182 563T141 609Q136 616 134 622T131 634Q131 646 148 652T190 658Q208 658 218 653T235 633Q243 618 255 591T281 534T301 486Q304 480 305 475T306 465Q306 453 295
453ZM237 -14Q177 -14 129 13T53 87T24 195Q24 243 42 286T92 362T167 414T259 433Q321 433 371 404T450 328T480 224Q480 160 453 106T372 19T237 -14ZM257 30Q278 30 293 38T319 64Q331 84 335 118T340 200Q340 254 328 296T295 364T244 389Q228 389 215 384T192
368Q175 348 169 311T162 220Q162 172 174 129T208 58T257 30Z" />
<glyph unicode="&#xf3;" horiz-adv-x="503" d="M237 -14Q177 -14 129 13T53 87T24 195Q24 243 42 286T92 362T167 414T259 433Q321 433 371 404T450 328T480 224Q480 160 453 106T372 19T237 -14ZM257 30Q278 30 293 38T319 64Q331 84 335 118T340 200Q340 254
328 296T295 364T244 389Q228 389 215 384T192 368Q175 348 169 311T162 220Q162 172 174 129T208 58T257 30ZM231 453Q221 453 221 465Q221 469 222 474T226 486Q234 505 246 534T271 590T291 633Q299 648 309 653T336 658Q360 658 377 652T395 634Q395 629 393
623T385 609Q366 588 345 563T302 514T258 469Q242 453 231 453Z" />
<glyph unicode="&#xf4;" horiz-adv-x="503" d="M259 671Q269 671 276 662T294 634Q303 618 314 600T336 563T357 527T374 494Q383 477 379 466T364 455Q358 455 348 463T324 487Q314 499 299 517T265 555Q261 558 260 558T253 555Q235 535 220 517T194 487Q181
472 171 464T153 455Q139 455 137 466T144 494Q151 509 160 526T181 562T203 598T223 632Q235 652 242 661T259 671ZM237 -14Q177 -14 129 13T53 87T24 195Q24 243 42 286T92 362T167 414T259 433Q321 433 371 404T450 328T480 224Q480 160 453 106T372 19T237
-14ZM257 30Q278 30 293 38T319 64Q331 84 335 118T340 200Q340 254 328 296T295 364T244 389Q228 389 215 384T192 368Q175 348 169 311T162 220Q162 172 174 129T208 58T257 30Z" />
<glyph unicode="&#xf5;" horiz-adv-x="503" d="M237 -14Q177 -14 129 13T53 87T24 195Q24 243 42 286T92 362T167 414T259 433Q321 433 371 404T450 328T480 224Q480 160 453 106T372 19T237 -14ZM257 30Q278 30 293 38T319 64Q331 84 335 118T340 200Q340 254
328 296T295 364T244 389Q228 389 215 384T192 368Q175 348 169 311T162 220Q162 172 174 129T208 58T257 30ZM125 465Q120 465 112 472T103 484Q103 490 115 507T143 545T175 581T198 597Q209 597 222 594T266 589Q288 588 306 587T334 585Q343 585 352 590T369
605Q380 617 384 623T393 630Q399 630 407 624T416 611Q416 607 410 600T394 579Q383 564 372 546T351 514Q345 506 336 503T320 500Q312 500 292 501T249 504T205 507T175 509Q167 509 162 506T152 496Q140 480 135 473T125 465Z" />
<glyph unicode="&#xf6;" horiz-adv-x="503" d="M237 -14Q177 -14 129 13T53 87T24 195Q24 243 42 286T92 362T167 414T259 433Q321 433 371 404T450 328T480 224Q480 160 453 106T372 19T237 -14ZM257 30Q278 30 293 38T319 64Q331 84 335 118T340 200Q340 254
328 296T295 364T244 389Q228 389 215 384T192 368Q175 348 169 311T162 220Q162 172 174 129T208 58T257 30ZM352 494Q323 494 302 515T280 565Q280 595 301 616T352 637Q383 637 404 616T426 565Q426 536 405 515T352 494ZM157 494Q128 494 107 515T86 565Q86
595 107 616T157 637Q189 637 210 616T232 565Q232 536 211 515T157 494Z" />
<glyph unicode="&#xf7;" horiz-adv-x="600" d="M55 254Q49 254 43 258T37 266Q37 272 40 283T50 302T68 311H540Q549 311 556 307T563 297Q563 283 553 269T527 254H55ZM304 65Q276 65 256 85T235 133Q235 163 255 183T304 204Q334 204 354 184T375 133Q375 105
355 85T304 65ZM303 350Q275 350 255 370T234 418Q234 448 254 468T303 489Q333 489 353 469T374 418Q374 390 354 370T303 350Z" />
<glyph unicode="&#xf8;" horiz-adv-x="501" d="M52 -15Q41 -15 32 -9T22 7Q22 28 35 39L442 424Q451 433 463 433Q480 433 480 410Q480 403 477 393T466 375L76 -5Q71 -9 66 -12T52 -15ZM237 -14Q177 -14 129 13T53 87T24 195Q24 243 42 286T92 362T167 414T259
433Q321 433 371 404T450 328T480 224Q480 160 453 106T372 19T237 -14ZM257 30Q278 30 293 38T319 64Q331 84 335 118T340 200Q340 254 328 296T295 364T244 389Q228 389 215 384T192 368Q175 348 169 311T162 220Q162 172 174 129T208 58T257 30Z" />
<glyph unicode="&#xf9;" horiz-adv-x="551" d="M319 453Q308 453 292 469Q272 490 250 514T207 563T166 609Q160 616 158 622T156 634Q156 646 173 652T214 658Q232 658 242 653T259 633Q267 618 280 591T305 534T325 486Q328 480 329 475T330 465Q330 453 319
453ZM346 -21Q338 -21 338 -11Q338 1 340 21T343 52Q343 56 343 59T341 63Q314 30 272 8T183 -15Q152 -15 127 3T88 54T73 126V313Q73 336 65 350T33 369Q27 370 23 374T18 388Q18 395 22 399T33 405Q75 407 109 413T178 429Q183 430 188 431T199 433Q213 433 212
419Q208 396 206 381T204 342V150Q204 126 212 108T234 80T265 69Q281 69 296 73T326 91Q332 96 339 111T346 153V314Q346 332 339 343T320 362T292 370Q281 371 275 375T268 392Q268 402 275 407T292 412Q343 415 373 417T422 423T460 430Q463 431 467 432T473
433Q488 433 488 421Q488 418 487 414T484 406Q483 402 482 389T479 360T477 336V104Q477 81 482 74T495 66Q500 66 510 66T523 65Q532 65 537 60T542 47Q542 38 539 33T525 26Q477 22 439 10T372 -14Q366 -16 359 -18T346 -21Z" />
<glyph unicode="&#xfa;" horiz-adv-x="551" d="M346 -21Q338 -21 338 -11Q338 1 340 21T343 52Q343 56 343 59T341 63Q314 30 272 8T183 -15Q152 -15 127 3T88 54T73 126V313Q73 336 65 350T33 369Q27 370 23 374T18 388Q18 395 22 399T33 405Q75 407 109 413T178
429Q183 430 188 431T199 433Q213 433 212 419Q208 396 206 381T204 342V150Q204 126 212 108T234 80T265 69Q281 69 296 73T326 91Q332 96 339 111T346 153V314Q346 332 339 343T320 362T292 370Q281 371 275 375T268 392Q268 402 275 407T292 412Q343 415 373
417T422 423T460 430Q463 431 467 432T473 433Q488 433 488 421Q488 418 487 414T484 406Q483 402 482 389T479 360T477 336V104Q477 81 482 74T495 66Q500 66 510 66T523 65Q532 65 537 60T542 47Q542 38 539 33T525 26Q477 22 439 10T372 -14Q366 -16 359 -18T346
-21ZM255 453Q245 453 245 465Q245 469 246 474T250 486Q258 505 270 534T295 590T315 633Q323 648 333 653T360 658Q384 658 401 652T419 634Q419 629 417 623T409 609Q390 588 369 563T326 514T282 469Q266 453 255 453Z" />
<glyph unicode="&#xfb;" horiz-adv-x="551" d="M283 671Q293 671 300 662T318 634Q328 618 338 600T360 563T381 527T399 494Q407 477 403 466T389 455Q382 455 372 463T348 487Q338 499 323 517T289 555Q285 558 284 558T278 555Q259 535 244 517T218 487Q205
472 195 464T178 455Q163 455 162 466T168 494Q175 509 185 526T206 562T227 598T248 632Q259 652 266 661T283 671ZM346 -21Q338 -21 338 -11Q338 1 340 21T343 52Q343 56 343 59T341 63Q314 30 272 8T183 -15Q152 -15 127 3T88 54T73 126V313Q73 336 65 350T33
369Q27 370 23 374T18 388Q18 395 22 399T33 405Q75 407 109 413T178 429Q183 430 188 431T199 433Q213 433 212 419Q208 396 206 381T204 342V150Q204 126 212 108T234 80T265 69Q281 69 296 73T326 91Q332 96 339 111T346 153V314Q346 332 339 343T320 362T292
370Q281 371 275 375T268 392Q268 402 275 407T292 412Q343 415 373 417T422 423T460 430Q463 431 467 432T473 433Q488 433 488 421Q488 418 487 414T484 406Q483 402 482 389T479 360T477 336V104Q477 81 482 74T495 66Q500 66 510 66T523 65Q532 65 537 60T542
47Q542 38 539 33T525 26Q477 22 439 10T372 -14Q366 -16 359 -18T346 -21Z" />
<glyph unicode="&#xfc;" horiz-adv-x="551" d="M346 -21Q338 -21 338 -11Q338 1 340 21T343 52Q343 56 343 59T341 63Q314 30 272 8T183 -15Q152 -15 127 3T88 54T73 126V313Q73 336 65 350T33 369Q27 370 23 374T18 388Q18 395 22 399T33 405Q75 407 109 413T178
429Q183 430 188 431T199 433Q213 433 212 419Q208 396 206 381T204 342V150Q204 126 212 108T234 80T265 69Q281 69 296 73T326 91Q332 96 339 111T346 153V314Q346 332 339 343T320 362T292 370Q281 371 275 375T268 392Q268 402 275 407T292 412Q343 415 373
417T422 423T460 430Q463 431 467 432T473 433Q488 433 488 421Q488 418 487 414T484 406Q483 402 482 389T479 360T477 336V104Q477 81 482 74T495 66Q500 66 510 66T523 65Q532 65 537 60T542 47Q542 38 539 33T525 26Q477 22 439 10T372 -14Q366 -16 359 -18T346
-21ZM377 494Q348 494 327 515T305 565Q305 595 326 616T377 637Q408 637 429 616T451 565Q451 536 430 515T377 494ZM182 494Q153 494 132 515T111 565Q111 595 132 616T182 637Q214 637 235 616T257 565Q257 536 236 515T182 494Z" />
<glyph unicode="&#xfd;" horiz-adv-x="481" d="M85 -283Q59 -283 35 -265T11 -220Q11 -201 21 -183T52 -164Q68 -164 84 -169T116 -174Q131 -172 137 -167T151 -146Q158 -134 164 -123T179 -94T201 -48Q213 -21 213 0Q213 15 209 27T199 52L76 331Q67 354 56 369T26
390Q17 394 12 398T7 412Q7 419 16 421T32 423Q56 423 72 422T102 420T128 419Q150 419 165 420T197 422T237 423Q244 423 252 420T260 410Q260 401 253 398T237 390Q226 386 220 378T214 352Q214 344 216 333T225 306L287 155Q288 152 290 152Q291 152 293 155L344
308Q347 316 349 327T352 348Q352 365 342 375T321 390Q313 393 306 397T298 410Q298 417 306 420T321 423Q348 422 363 421T394 419Q404 419 412 419T433 421T462 423Q469 423 477 421T486 412Q486 403 482 399T468 390Q449 384 434 368T409 328L260 -30Q252 -50
242 -73T222 -122T200 -173T178 -224Q166 -253 141 -268T85 -283ZM251 453Q241 453 241 465Q241 469 242 474T246 486Q254 505 266 534T291 590T311 633Q319 648 329 653T356 658Q380 658 397 652T415 634Q415 629 413 623T405 609Q386 588 365 563T322 514T278
469Q262 453 251 453Z" />
<glyph unicode="&#xfe;" horiz-adv-x="548" d="M36 -262Q29 -262 22 -259T15 -248Q15 -240 22 -236T38 -228Q60 -221 68 -214T77 -189V550Q77 576 70 596T37 622Q27 624 27 637Q27 650 36 652Q62 657 91 667T148 687T191 702Q195 704 197 704T203 705Q209 705
211 702T213 693Q213 686 211 667T207 624L208 409Q208 396 208 385T209 363Q223 374 247 389T301 414T359 425Q412 425 450 397T508 324T528 230Q528 183 510 139T460 60T387 3T296 -18Q279 -18 255 -12T211 3Q210 3 209 0T208 -7T207 -15V-180Q207 -202 219 -211T257
-228Q268 -231 274 -235T280 -248Q280 -254 275 -258T262 -262Q242 -262 222 -261T182 -258T144 -257Q127 -257 110 -258T74 -260T36 -262ZM293 28Q304 28 320 36T351 64T376 115T387 194Q387 249 376 281T350 330T318 351T289 357Q270 357 255 350T227 329Q219
322 214 307T208 262V121Q208 108 212 87T226 52Q234 43 251 36T293 28Z" />
<glyph unicode="&#xff;" horiz-adv-x="481" d="M85 -283Q59 -283 35 -265T11 -220Q11 -201 21 -183T52 -164Q68 -164 84 -169T116 -174Q131 -172 137 -167T151 -146Q158 -134 164 -123T179 -94T201 -48Q213 -21 213 0Q213 15 209 27T199 52L76 331Q67 354 56 369T26
390Q17 394 12 398T7 412Q7 419 16 421T32 423Q56 423 72 422T102 420T128 419Q150 419 165 420T197 422T237 423Q244 423 252 420T260 410Q260 401 253 398T237 390Q226 386 220 378T214 352Q214 344 216 333T225 306L287 155Q288 152 290 152Q291 152 293 155L344
308Q347 316 349 327T352 348Q352 365 342 375T321 390Q313 393 306 397T298 410Q298 417 306 420T321 423Q348 422 363 421T394 419Q404 419 412 419T433 421T462 423Q469 423 477 421T486 412Q486 403 482 399T468 390Q449 384 434 368T409 328L260 -30Q252 -50
242 -73T222 -122T200 -173T178 -224Q166 -253 141 -268T85 -283ZM372 494Q343 494 322 515T300 565Q300 595 321 616T372 637Q403 637 424 616T446 565Q446 536 425 515T372 494ZM177 494Q148 494 127 515T106 565Q106 595 127 616T177 637Q209 637 230 616T252
565Q252 536 231 515T177 494Z" />
<glyph unicode="&#x2013;" horiz-adv-x="632" d="M54 182Q48 182 43 186T38 195Q38 201 40 212T49 232T66 241H572Q582 241 588 237T594 226Q594 213 584 198T561 182H54Z" />
<glyph unicode="&#x2014;" horiz-adv-x="960" d="M42 182Q35 182 30 186T25 195Q25 201 28 212T37 232T53 241H912Q922 241 928 237T934 226Q934 213 925 198T901 182H42Z" />
<glyph unicode="&#x2018;" horiz-adv-x="239" d="M188 698Q213 698 213 682Q213 675 207 672T191 666Q165 660 146 648T116 618T105 578Q105 560 117 549T146 534Q164 529 176 515T189 476Q189 451 168 433T120 415Q75 415 47 444T18 518Q18 559 33 592T73 649T127
685T188 698Z" />
<glyph unicode="&#x2019;" horiz-adv-x="239" d="M51 409Q26 409 26 425Q26 432 32 435T48 441Q75 448 94 460T123 489T134 529Q134 548 122 558T93 573Q75 578 63 592T50 631Q50 657 71 674T119 692Q164 692 192 664T220 589Q220 548 205 516T166 459T112 422T51 409Z" />
<glyph unicode="&#x201a;" horiz-adv-x="239" d="M51 -164Q26 -164 26 -148Q26 -141 32 -138T48 -132Q75 -125 94 -113T123 -84T134 -44Q134 -25 122 -15T93 0Q75 5 63 19T50 58Q50 84 71 101T119 119Q164 119 192 91T220 16Q220 -25 205 -57T166 -114T112 -151T51 -164Z" />
<glyph unicode="&#x201c;" horiz-adv-x="439" d="M395 699Q421 699 421 683Q421 676 415 673T399 667Q373 661 353 649T323 619T312 579Q312 561 325 550T354 535Q372 530 384 516T397 477Q397 451 376 433T327 415Q282 415 254 444T226 519Q226 559 241 592T280
649T335 686T395 699ZM195 699Q220 699 220 683Q220 676 214 673T198 667Q172 661 153 649T123 619T112 579Q112 561 124 550T153 535Q171 530 183 516T196 477Q196 451 175 433T126 415Q81 415 53 444T25 519Q25 559 40 592T80 649T134 686T195 699Z" />
<glyph unicode="&#x201d;" horiz-adv-x="439" d="M51 409Q26 409 26 425Q26 432 32 435T48 441Q75 448 94 460T123 489T134 529Q134 548 122 558T93 573Q75 578 63 592T50 631Q50 657 71 674T119 692Q164 692 192 664T220 589Q220 548 205 516T166 459T112 422T51
409ZM251 409Q226 409 226 425Q226 432 232 435T248 441Q275 448 294 460T323 489T334 529Q334 548 322 558T293 573Q275 578 263 592T250 631Q250 657 271 674T319 692Q364 692 392 664T420 589Q420 548 405 516T366 459T312 422T251 409Z" />
<glyph unicode="&#x201e;" horiz-adv-x="439" d="M51 -164Q26 -164 26 -148Q26 -141 32 -138T48 -132Q75 -125 94 -113T123 -84T134 -44Q134 -25 122 -15T93 0Q75 5 63 19T50 58Q50 84 71 101T119 119Q164 119 192 91T220 16Q220 -25 205 -57T166 -114T112 -151T51
-164ZM251 -164Q226 -164 226 -148Q226 -141 232 -138T248 -132Q275 -125 294 -113T323 -84T334 -44Q334 -25 322 -15T293 0Q275 5 263 19T250 58Q250 84 271 101T319 119Q364 119 392 91T420 16Q420 -25 405 -57T366 -114T312 -151T251 -164Z" />
<glyph unicode="&#x2022;" horiz-adv-x="373" d="M187 205Q145 205 111 225T57 279T37 354Q37 397 57 431T111 485T187 505Q229 505 262 485T316 431T337 354Q337 313 317 279T263 225T187 205Z" />
<glyph unicode="&#x2039;" horiz-adv-x="372" d="M320 16Q310 16 300 24T285 36Q255 64 232 84T185 119T137 148T76 180Q61 187 55 197T48 218Q48 228 58 233Q103 260 133 279T187 315T233 351T287 398Q291 402 301 410T321 419Q328 419 328 408Q328 404 326 400T322
392Q289 342 266 313T224 265T181 225Q174 220 174 218T181 210Q204 189 223 170T266 122T322 42Q324 39 326 35T328 28Q328 16 320 16Z" />
<glyph unicode="&#x203a;" horiz-adv-x="372" d="M51 16Q44 16 44 28Q44 31 46 35T49 42Q83 93 106 121T149 169T191 210Q198 215 198 217T191 225Q168 245 149 264T107 313T49 392Q47 396 46 400T44 408Q44 419 50 419Q61 419 71 411T85 398Q115 371 138 352T185
315T238 279T314 233Q324 228 324 218Q324 207 318 197T296 180Q262 163 236 149T187 119T140 84T86 36Q82 32 72 24T51 16Z" />
</font>
</defs>
</svg>
