<?xml version="1.0" standalone="no"?>
<!DOCTYPE svg PUBLIC "-//W3C//DTD SVG 1.1//EN" "http://www.w3.org/Graphics/SVG/1.1/DTD/svg11.dtd">
<svg xmlns="http://www.w3.org/2000/svg">
<defs >
<font id="EBGaramond" horiz-adv-x="523" ><font-face
    font-family="EB Garamond"
    units-per-em="1000"
    panose-1="0 0 0 0 0 0 0 0 0 0"
    ascent="1007"
    descent="-298"
    alphabetic="0" />
<glyph unicode=" " horiz-adv-x="237" />
<glyph unicode="!" horiz-adv-x="302" d="M138 178Q126 178 122 189T123 228Q133 284 142 332T160 421T175 490T185 538Q192 566 205 591T239 633T284 649Q303 649 316 634T332 590T319 520Q316 510 304 483T274 417T232 330T183 228Q172 207 161 193T138 178ZM83
-14Q59 -14 42 3T25 44Q25 78 51 104T113 130Q143 130 159 110T175 68Q175 35 148 11T83 -14Z" />
<glyph unicode="&quot;" horiz-adv-x="398" d="M142 408Q135 408 136 418T140 436Q146 455 149 469T158 499Q168 532 174 561T188 617Q193 632 205 642T229 659Q249 671 264 677T297 683Q309 683 311 671T308 643Q301 619 285 590T251 533T214 480T181 439Q172
428 160 418T142 408ZM303 408Q296 408 297 418T301 436Q307 455 310 469T319 499Q329 532 335 561T349 617Q354 632 366 642T390 659Q410 671 425 677T458 683Q470 683 472 671T469 643Q462 619 446 590T412 533T375 480T342 439Q333 428 321 418T303 408Z" />
<glyph unicode="#" horiz-adv-x="478" d="M-11 -95Q-17 -95 -21 -89T-22 -77L-20 -72L59 88L0 86Q-10 85 -13 92T-16 106Q-10 129 -2 144T16 166T37 174L107 177L156 289L89 286Q80 285 76 292T73 305Q78 329 86 344T105 366T126 374L200 377L273 525Q279 541
294 545T325 550Q330 550 332 545T332 532Q331 530 330 529T328 525L258 380L375 384L450 536Q456 552 468 556T497 561Q503 561 505 556T505 543Q504 541 503 540T502 536L430 387L488 390Q500 391 505 385T508 370Q505 355 495 340T474 314T451 302L386 299L330
186L399 189Q410 190 415 184T419 169Q415 154 406 139T384 113T362 101L287 98L211 -57Q205 -72 197 -75T173 -79Q167 -79 162 -74T157 -62L158 -57L234 96L116 91L36 -72Q30 -87 17 -91T-11 -95ZM159 179L277 183L331 296L215 292L159 179Z" />
<glyph unicode="$" horiz-adv-x="549" d="M228 -14Q191 -14 158 -10T97 6Q82 12 72 15T58 19Q52 19 45 17T33 12Q26 8 19 4T7 0Q2 0 -7 8T-17 23Q-17 31 -6 55T19 114T38 187Q41 205 46 212T63 220Q77 220 80 205T83 157Q83 125 97 94T140 42T212 22Q254 22 284
38T331 80T347 137Q347 159 339 178T307 221T241 282Q190 326 165 366T140 468Q140 524 172 568T260 638T388 664Q424 664 454 658T505 645Q526 639 538 636T563 632Q579 632 589 638Q596 642 603 644T617 647Q628 647 630 640T627 625Q617 611 603 585T577 529T557
467Q554 456 550 449T535 442Q525 442 521 452T516 483Q516 549 482 589T392 629Q354 629 329 613T290 571T277 521Q277 497 286 478T317 436T381 381Q443 331 465 289T488 196Q488 145 457 97T368 17T228 -14ZM122 -96Q108 -96 105 -87T106 -66L431 705Q436 715
450 720T479 726Q489 726 490 718T486 696L158 -82Q156 -89 146 -92T122 -96Z" />
<glyph unicode="%" horiz-adv-x="731" d="M190 263Q150 263 124 286T92 354T106 465Q119 504 146 538T212 594T295 616Q336 616 360 592T389 524T377 423Q362 376 334 340T269 284T190 263ZM196 295Q213 295 228 315T258 365T281 426Q290 456 296 484T305 535T303
570T285 583Q270 583 254 564T223 513T199 450Q189 418 183 390T175 341T179 307T196 295ZM94 -21Q80 -21 75 -10T78 11L686 653Q694 662 707 665T734 669Q749 669 754 660T752 643L146 4Q133 -9 121 -15T94 -21ZM496 -17Q456 -17 430 6T398 74T412 185Q425 224
452 258T518 314T601 336Q642 336 666 312T695 244T683 143Q668 96 640 60T575 4T496 -17ZM502 15Q519 15 534 35T564 85T587 146Q596 176 602 204T611 255T609 290T591 303Q576 303 560 284T529 233T505 170Q495 138 489 110T481 61T485 27T502 15Z" />
<glyph unicode="&amp;" horiz-adv-x="852" d="M418 -14Q324 -14 249 19T130 112T86 250Q86 322 115 380T195 472T307 506Q366 505 394 480T422 416Q422 391 408 370T368 336T311 322Q263 322 225 348T165 420T142 527Q142 582 171 625T249 693T357 718Q411 717
442 689T473 612Q473 586 459 571T420 555Q407 555 394 567T381 593Q381 615 366 632T331 650Q293 650 265 635T220 592T204 525Q204 366 309 366Q339 366 355 381T372 419Q372 440 356 455T308 470Q240 470 202 426T163 308Q163 256 192 210T285 136T450 107Q538
107 598 136T690 213T722 320Q722 368 691 403T593 437Q559 436 535 413T510 360Q510 341 524 329T561 316Q570 316 577 323T592 339Q600 347 607 353T625 359Q650 359 662 346T674 313Q674 282 653 263T600 243Q541 243 504 275T467 357Q467 414 492 450T558 505T648
524H730Q813 524 847 548T882 625Q882 654 865 668T829 682Q815 682 808 677T801 665Q801 659 805 653T816 643Q825 637 829 628T834 610Q834 592 820 576T779 560Q751 560 736 579T721 625Q721 647 732 668T767 704T824 718Q866 718 896 688T926 594Q926 550 908
513T856 453T778 429Q754 428 749 425T747 416Q762 391 768 363T775 303Q775 206 730 135T603 25T418 -14Z" />
<glyph unicode="&apos;" horiz-adv-x="237" d="M142 408Q135 408 136 418T140 436Q146 455 149 469T158 499Q168 532 174 561T188 617Q193 632 205 642T229 659Q249 671 264 677T297 683Q309 683 311 671T308 643Q301 619 285 590T251 533T214 480T181 439Q172
428 160 418T142 408Z" />
<glyph unicode="(" horiz-adv-x="300" d="M124 -215Q95 -215 73 -170Q51 -125 39 -61T27 74Q27 197 68 313T186 527T369 692Q393 706 411 706Q431 706 431 693Q431 689 428 684T416 672Q347 617 291 544T195 387T132 213T110 34Q110 -25 117 -67T132 -138T143
-189Q144 -200 139 -207T124 -215Z" />
<glyph unicode=")" horiz-adv-x="300" d="M198 706Q227 706 250 662Q272 616 284 552T296 418Q296 294 255 178T136 -36T-47 -201Q-71 -215 -89 -215Q-109 -215 -109 -202Q-109 -198 -105 -193T-94 -181Q-25 -125 31 -53T127 104T190 279T212 457Q212 516 205
558T190 629T179 680Q178 691 183 698T198 706Z" />
<glyph unicode="*" horiz-adv-x="360" d="M232 357Q215 357 209 370T205 402Q207 410 209 419T214 438T219 457T223 472Q214 473 191 471T148 466Q132 464 120 471T108 491Q108 505 118 514T138 524Q145 526 154 528T173 532T192 537T208 541Q203 550 190 566T164
600Q156 613 156 625Q156 637 163 645T183 653Q190 653 197 650T211 639Q223 625 235 612T260 587Q266 604 273 620T288 654Q293 664 301 671T320 679Q335 679 342 666T346 635Q343 626 340 614T333 589T325 565Q332 565 347 568T378 573T405 575Q420 575 429 569T438
551Q438 540 431 530T410 516Q393 512 376 507T340 497Q345 489 359 473T385 442Q390 436 393 429T396 415Q396 404 389 396T370 388Q364 388 356 390T341 399Q329 413 316 425T289 450Q286 441 278 420T261 379Q257 370 250 364T232 357Z" />
<glyph unicode="+" horiz-adv-x="597" d="M292 -11Q288 -11 284 -6T279 5V208Q279 220 268 220H58Q52 220 47 224T42 232Q42 240 45 251T54 271T70 280H266Q275 280 277 283T279 293V473Q279 483 287 490T307 502T326 507Q333 507 337 501T341 485V293Q341 286
344 283T353 280H557Q565 280 571 276T578 265Q577 252 568 236T544 220H353Q341 220 341 208V17Q341 7 332 1T311 -8T292 -11Z" />
<glyph unicode="," horiz-adv-x="268" d="M-46 -159Q-57 -159 -63 -155T-66 -143Q-64 -135 -56 -130T-37 -123Q-10 -117 13 -103T51 -68T65 -28Q65 -14 56 -7T35 5Q24 9 15 18T6 43Q6 74 29 96T85 119Q120 119 144 97T168 34Q168 1 151 -34T102 -97T32 -142T-46 -159Z" />
<glyph unicode="-" horiz-adv-x="321" d="M31 164Q25 163 22 167T19 176Q19 203 34 219T61 237Q116 245 177 252T293 265Q303 266 304 261T306 249Q306 240 300 228T285 206T267 194Q212 187 149 178T31 164Z" />
<glyph unicode="." horiz-adv-x="268" d="M66 -30Q40 -30 21 -10T2 35Q2 61 15 83T51 120T99 134Q132 134 149 111T166 63Q166 39 153 18T117 -17T66 -30Z" />
<glyph unicode="/" horiz-adv-x="277" d="M-44 -60Q-54 -60 -60 -53T-62 -40L333 646Q341 659 353 662T380 663Q393 663 397 655T398 641L2 -45Q-5 -57 -18 -59T-44 -60Z" />
<glyph unicode="0" horiz-adv-x="529" d="M237 -14Q184 -14 148 10T95 79T78 181T99 302Q119 369 154 428T234 533T334 604T448 631Q503 631 539 606T592 536T609 436T587 317Q565 246 529 186T447 81T347 11T237 -14ZM262 26Q285 26 308 48T354 109T397 197T434
299Q450 351 459 402T469 496T459 563T423 588Q392 588 361 551T302 451T253 319Q237 267 227 216T216 121T226 52T262 26Z" />
<glyph unicode="1" horiz-adv-x="529" d="M44 -3Q38 -3 34 0T31 11Q33 20 39 25T55 32Q98 42 125 54T163 98L272 451Q284 490 265 504T212 526Q205 528 199 532T194 547Q197 559 208 565T231 573Q271 576 309 583T384 603T456 631Q460 633 465 635T473 637Q480
637 483 634T484 626Q480 613 472 597T456 553L315 96Q309 77 315 66T339 48T380 32Q387 29 392 25T396 12Q395 6 388 2T372 -2Q350 -2 319 -1T258 1T208 2Q187 2 157 1T97 -1T44 -3Z" />
<glyph unicode="2" horiz-adv-x="529" d="M386 -4Q375 -3 359 -3T322 -1T278 0T230 1Q203 1 166 1T92 0T27 -1T-9 -3Q-19 -3 -15 5T-4 20L219 203Q283 255 320 298T375 380T392 455Q392 502 367 522T308 542Q269 542 240 522T185 475Q178 468 172 461T161 454Q157
454 154 459T152 474Q153 496 171 523T220 576T291 618T376 633Q451 632 494 597T537 507Q537 468 520 432T473 364T409 300Q393 286 364 264T301 216T236 167T184 128T162 110Q160 107 164 106T174 103Q192 100 213 100T256 99Q278 99 305 100T354 103Q376 105
394 111T428 130T460 163Q465 170 475 177T495 185Q502 185 503 178T501 163Q485 141 471 118T445 76T425 42T413 19Q409 7 399 2T386 -4Z" />
<glyph unicode="3" horiz-adv-x="529" d="M104 -38Q57 -38 32 -26T6 7Q6 30 15 44T40 59Q46 59 57 54T80 40Q97 31 116 23T154 15Q200 15 234 44T287 118T306 212Q306 245 291 267T243 289Q218 289 200 281T172 268Q163 264 156 267T148 280Q148 293 159 303T184
320T209 334Q238 347 267 364T320 401T360 444T375 494Q375 520 360 540T315 561Q275 561 248 537T201 484Q196 476 191 473T181 469Q174 469 167 480T159 501Q159 510 174 530T217 574T285 613T374 629Q419 629 449 614T495 575T511 524Q511 496 494 471T450 425T391
386T328 356Q324 355 324 353T327 350Q362 349 393 334T443 293T462 232Q462 194 439 156T378 85T291 23Q246 -3 199 -20T104 -38Z" />
<glyph unicode="4" horiz-adv-x="529" d="M394 -3Q389 -3 385 0T382 11Q384 19 390 24T407 32Q450 40 467 51T495 93L511 147Q513 155 509 158T499 161Q468 161 428 159T347 155T268 153Q264 153 263 160T264 172Q274 181 280 187T293 198T306 212L672 607Q685
620 700 631T727 642H753Q757 642 755 637T748 627T743 621L403 255Q395 247 397 244T406 241H532Q536 241 538 243T542 247L581 374Q587 392 591 398T608 409Q639 422 671 425T714 429Q735 429 733 410T718 353L683 242Q681 235 686 235Q699 234 705 234T722 234Q737
234 749 234T778 236Q783 236 786 234T788 229Q786 221 777 204T758 173T744 159Q732 159 722 159T698 160Q688 160 683 160T671 159Q664 158 660 156T654 145L639 96Q629 67 639 55T686 32Q693 29 696 25T698 12Q696 6 691 2T677 -2Q655 -2 630 -1T581 1T536 2Q505
2 467 0T394 -3Z" />
<glyph unicode="5" horiz-adv-x="529" d="M64 -38Q31 -38 17 -20T3 16Q3 29 7 37T19 46Q36 46 47 36T82 16Q92 12 102 10T132 8Q169 8 202 18T260 48T300 98T315 167Q315 198 301 223T258 270T181 316Q157 329 147 335T137 353Q137 358 138 361T140 370Q145 384
158 409T187 463T217 514T236 545Q249 569 265 579T299 594Q318 598 350 603T418 615T482 625T522 629Q538 629 538 610Q538 601 531 584T512 547T484 513T449 498Q431 497 403 495T345 493T292 491T260 488Q253 487 246 480T233 465T225 450Q222 441 232 437Q290
416 340 387T420 320T451 234Q451 175 419 126T332 39T208 -18T64 -38Z" />
<glyph unicode="6" horiz-adv-x="529" d="M228 -14Q134 -14 93 36T51 163Q51 230 83 297T168 424T290 533T431 614T576 657Q593 659 607 658T621 648Q621 639 617 634T593 624Q540 611 483 575T373 488T276 379T208 261T182 147Q182 89 200 59T260 28Q292 28 317
48T357 105T372 193Q371 231 351 250T306 270Q295 270 286 268T267 261Q245 251 245 260T259 285Q276 304 297 318T342 340T384 348Q435 348 467 316T499 229Q499 192 481 150T426 70T340 9T228 -14Z" />
<glyph unicode="7" horiz-adv-x="529" d="M84 -30Q72 -30 63 -21T54 2Q54 10 68 25T95 53L468 484Q475 492 472 495T462 498H255Q229 498 212 490T174 461Q166 454 152 442T122 429Q108 429 110 442T122 470Q139 503 158 540T187 605Q191 616 200 619T214 622Q226
621 250 620T304 616Q328 616 360 616T424 615T474 614Q511 614 540 614T592 616T630 618Q635 618 639 611T642 596Q640 589 624 573T585 531L116 2Q107 -7 97 -18T84 -30Z" />
<glyph unicode="8" horiz-adv-x="529" d="M200 -13Q145 -13 108 6T52 55T30 121Q30 171 54 203T120 258T215 304Q226 309 224 312T217 321Q198 346 181 367T155 410T145 453Q145 486 164 517T217 573T292 614T382 629Q432 629 465 613T516 571T534 519Q535 495
522 469T483 419T421 375Q411 370 399 364T377 351Q365 345 365 342T373 331Q414 287 438 251T463 168Q463 134 442 102T384 43T299 2T200 -13ZM215 23Q259 23 291 53T324 138Q324 170 309 203T262 274Q258 279 256 281T250 284Q247 284 235 276Q201 251 182 226T153
173T144 110Q145 91 152 71T176 37T215 23ZM350 371Q372 389 389 415T415 470T425 523Q425 553 411 572T360 592Q334 592 314 580T282 545T270 492Q270 461 286 431T329 372Q334 367 338 367T350 371Z" />
<glyph unicode="9" horiz-adv-x="531" d="M61 -16Q45 -18 31 -16T16 -6Q16 3 21 8T45 17Q92 27 140 50T234 108T319 186T388 278T435 380T452 487Q452 530 432 558T371 587Q339 587 313 566T271 508T257 427Q258 391 279 368T325 345Q339 345 348 348T366 355Q388
364 388 354Q388 350 385 345T375 332Q356 312 335 298Q322 290 307 283T277 272T248 267Q197 267 165 296T132 380Q132 419 156 462T221 542T314 604T424 629Q468 629 500 606T552 546T571 462Q571 416 551 365T496 262T413 163T309 78T189 15T61 -16Z" />
<glyph unicode=":" horiz-adv-x="268" d="M151 246Q125 246 106 266T87 311Q87 337 100 359T136 396T184 410Q217 410 234 387T251 339Q251 315 238 294T202 259T151 246ZM66 -30Q40 -30 21 -10T2 35Q2 61 15 83T51 120T99 134Q132 134 149 111T166 63Q166 39
153 18T117 -17T66 -30Z" />
<glyph unicode=";" horiz-adv-x="268" d="M-46 -159Q-57 -159 -63 -155T-66 -143Q-64 -135 -56 -130T-37 -123Q-10 -117 13 -103T51 -68T65 -28Q65 -14 56 -7T35 5Q24 9 15 18T6 43Q6 74 29 96T85 119Q120 119 144 97T168 34Q168 1 151 -34T102 -97T32 -142T-46
-159ZM151 246Q125 246 106 266T87 311Q87 337 100 359T136 396T184 410Q217 410 234 387T251 339Q251 315 238 294T202 259T151 246Z" />
<glyph unicode="&lt;" horiz-adv-x="598" d="M506 -1L87 189Q71 197 55 206T38 220Q38 228 49 246T77 271L501 467Q514 473 521 467T529 448Q529 434 519 421T493 399L136 238Q132 237 132 234T136 229L494 69Q511 62 520 48T529 20Q529 5 522 1T506 -1Z" />
<glyph unicode="=" horiz-adv-x="633" d="M67 316Q60 316 56 320T51 328Q51 334 53 345T62 364T79 372H588Q597 372 603 368T610 357Q610 345 600 331T578 316H67ZM67 135Q60 135 56 139T51 148Q51 153 53 164T62 183T79 191H588Q597 191 603 187T610 176Q610
164 600 150T578 135H67Z" />
<glyph unicode="&gt;" horiz-adv-x="598" d="M84 4Q75 0 68 4T60 24Q60 38 70 52T96 73L452 233Q457 235 457 238T452 242L94 403Q79 411 70 425T60 453Q60 461 63 468T75 475Q77 475 79 475T82 473L501 279Q517 273 534 263T551 248Q551 241 541 223T511 197L84 4Z" />
<glyph unicode="?" horiz-adv-x="388" d="M165 177Q158 177 145 189T120 221T109 262Q109 296 119 324T163 377T265 425Q317 441 347 465T377 522Q377 550 360 566T303 583Q290 583 277 576T251 564Q243 560 233 555T212 550Q195 550 184 561T173 591Q173 624
200 642T265 661Q306 661 340 638T397 573T419 472Q419 444 405 417T368 369T315 335L222 296Q195 285 186 274T176 244Q176 236 177 229T180 214Q182 207 184 201T186 188Q186 181 180 179T165 177ZM131 -14Q108 -14 92 3T76 43Q76 77 101 103T160 129Q188 129
203 110T218 68Q218 35 193 11T131 -14Z" />
<glyph unicode="@" horiz-adv-x="793" d="M296 -154Q212 -154 148 -124T48 -40T12 87Q12 159 39 226T114 350T225 448T363 513T517 537Q574 537 622 520T706 472T761 401T780 314Q780 259 757 207T693 114T601 48T494 24Q471 24 459 32T443 51T438 71Q438 85 434
83T421 75Q410 66 390 54T343 32T284 22Q231 22 201 52T171 127Q172 178 197 225T266 309T366 366T484 384Q497 383 509 382T534 377Q545 374 553 372T567 368Q577 367 585 379T604 391Q607 391 616 390T635 386T643 380Q628 358 612 330T588 286L518 143Q509 124
509 107T534 90Q583 90 621 120T683 200T706 307Q706 358 682 397T611 457T497 479Q422 479 350 450T218 370T123 253T88 113Q88 50 117 3T198 -70T320 -96Q390 -96 452 -78T563 -30Q576 -22 586 -17T605 -12Q610 -12 614 -16T619 -28Q619 -40 592 -61T519 -103T416
-139T296 -154ZM332 76Q349 76 366 84T399 105Q409 112 418 123T439 156L493 264Q498 275 501 284T504 301Q504 321 489 331T439 342Q404 342 374 324T322 276T288 212T275 147Q275 115 292 96T332 76Z" />
<glyph unicode="A" horiz-adv-x="747" d="M-43 -5Q-55 -5 -61 -2T-66 11Q-64 21 -57 26T-37 33Q-18 38 7 46T55 68T95 100Q161 174 224 247T350 393T476 539Q494 559 505 578T525 611T539 624Q564 624 587 629T627 645Q644 655 657 664T680 673Q689 673 691 655T688
613L589 114Q582 80 596 62T647 32Q659 29 666 26T674 12Q674 5 663 1T643 -3Q623 -3 596 -2T541 1T491 2Q471 2 444 1T390 -1T342 -2Q321 -2 323 12Q323 21 331 26T350 34Q375 39 391 46T417 66T433 100L463 221Q465 230 461 235T447 240H295Q286 240 279 235T266
222L197 133Q173 103 168 83T175 52T213 34Q222 32 230 27T238 12Q237 5 228 2T206 -2Q177 -2 149 -1T91 1Q61 1 24 -2T-43 -5ZM341 285H461Q469 285 473 288T479 299L527 518Q529 525 529 530T525 536Q524 536 520 534T512 528L329 304Q320 294 321 290T341 285Z"
/>
<glyph unicode="B" horiz-adv-x="627" d="M-26 -5Q-43 -5 -43 7Q-43 14 -35 20T-14 31Q23 41 40 52T69 96L210 551Q221 584 211 597T170 619Q160 621 156 625T152 634Q152 643 160 648T180 654Q210 654 229 652T266 649T308 647Q330 647 350 649T393 652T448 654Q510
654 552 639T616 596T638 526Q638 496 623 469T581 421T523 386T455 364Q450 363 449 360T452 354Q510 334 546 297T582 197Q582 142 557 104T487 41T383 7T258 -4Q219 -4 186 -2T115 1Q95 1 70 0T21 -3T-26 -5ZM268 28Q299 32 328 50T379 97T415 159T429 226Q429
271 405 301T333 331Q312 331 302 326T287 308L223 101Q220 89 220 75T225 52Q231 44 242 36T268 28ZM340 364Q363 364 381 369T419 382Q454 407 479 446T505 536Q505 571 483 598T425 626Q403 626 392 619T374 593L313 389Q306 364 340 364Z" />
<glyph unicode="C" horiz-adv-x="665" d="M317 -14Q264 -14 218 6T136 61T81 145T61 251Q61 341 96 416T192 546T334 633T508 664Q542 664 569 658T617 644Q636 638 647 635T671 631Q678 631 683 632T696 637Q704 642 711 644T725 647Q735 647 737 641T733 625Q720
608 705 578T678 516T658 458Q656 449 651 443T635 436Q626 436 622 449T619 483Q621 505 616 528T597 570Q581 596 557 612T506 628Q455 628 410 601T329 529T268 426T228 307T214 186Q214 145 224 115T252 64T296 35T354 25Q395 25 431 42T501 92T566 166Q574
177 579 184T592 192Q599 192 604 185T606 166Q600 144 590 114T566 56T542 10T524 -9Q515 -9 510 -6T499 2Q493 6 485 8T463 11Q452 11 439 8T409 -1Q391 -5 368 -9T317 -14Z" />
<glyph unicode="D" horiz-adv-x="733" d="M306 -7Q271 -7 232 -4T160 1T109 3Q90 3 65 2T13 -1T-36 -3Q-43 -3 -47 0T-51 11Q-46 28 -23 32Q5 37 21 44T47 64T63 97L206 553Q212 576 208 588T190 606T152 619Q143 621 140 626T138 640Q140 647 147 651T162 655Q197
655 237 653T308 650Q328 650 348 651T392 653T450 654Q544 654 609 618T708 521T743 384Q743 305 709 235T615 111T476 25T306 -7ZM306 30Q360 30 410 62T499 147T561 267T584 401Q584 479 566 526T514 595T435 616Q412 616 398 612T375 598T362 572L227 123Q216
88 226 68T259 39T306 30Z" />
<glyph unicode="E" horiz-adv-x="573" d="M-38 -5Q-48 -5 -51 -1T-54 10Q-51 25 -26 31Q12 41 30 52T58 96L198 551Q209 585 200 598T156 619Q144 622 140 627T137 640Q139 646 149 650T179 655Q192 655 213 654T259 651T304 649L469 650Q514 650 541 653T584
659T604 662Q611 662 616 657T622 642Q622 630 616 608T603 561T595 514Q595 504 590 499T579 494Q575 494 571 498T564 512Q559 568 546 591T494 615H416Q391 615 376 601T347 543L299 379Q295 365 299 360T317 354H408Q434 355 452 370T486 412Q491 421 499 426T514
432Q520 432 522 426T519 408Q510 387 502 368T489 329Q483 310 478 291T468 248Q464 235 460 228T450 221Q443 221 438 229T434 246Q435 278 428 295T402 313H302Q290 313 282 308T270 289L219 114Q208 74 219 55T270 36H357Q378 36 398 43T437 62Q457 75 475
101T511 155Q516 162 519 165T529 168Q535 168 537 163T539 145Q539 135 531 110T511 56T485 9Q480 2 473 -1T456 -4Q445 -4 417 -4T349 -3T267 -2T180 -1T102 0Q81 0 56 -1T7 -3T-38 -5Z" />
<glyph unicode="F" horiz-adv-x="535" d="M-25 -3Q-32 -3 -37 0T-40 11Q-38 20 -31 25T-13 32Q28 40 45 52T72 97L213 551Q223 583 215 597T177 618Q162 622 158 627T156 640Q157 646 165 650T187 655Q212 655 250 653T318 650H478Q547 650 582 657T631 664Q638
664 644 660T648 645Q647 639 646 633T642 621Q637 602 627 572T611 506Q610 496 606 491T595 486Q589 486 586 490T583 504Q582 529 579 549T565 584Q556 599 541 607T504 616L437 617Q413 618 396 606T372 572Q369 564 361 538T344 479T326 420T313 381Q310 369
316 360T352 351H399Q460 352 495 407Q501 416 508 421T522 426Q527 426 529 420T528 404Q511 363 500 330T481 258Q478 245 473 239T463 232Q456 232 452 239T447 256Q447 287 439 299T412 311Q403 311 385 311T348 311T321 311Q304 311 294 304T280 283L226 101Q220
77 223 64T244 43T293 32Q302 31 305 26T307 12Q305 5 299 1T284 -3Q263 -3 232 -2T171 1T121 2Q90 2 50 0T-25 -3Z" />
<glyph unicode="G" horiz-adv-x="726" d="M339 -14Q266 -14 208 10T112 82T63 195T74 343Q89 409 128 467T226 569T359 638T519 664Q553 664 579 658T626 644Q644 638 655 635T679 631Q685 631 691 632T704 637Q712 642 719 644T732 647Q743 647 744 640T740 625Q727
608 713 580T687 521T667 465Q665 455 660 449T644 442Q623 442 626 483Q628 513 625 538T607 583Q594 602 568 615T511 629Q465 629 421 608T337 544T265 438T211 292Q196 235 201 186T229 100T286 42T365 21Q403 21 429 46T466 102L499 214Q502 226 500 235T483
251Q470 256 453 260T424 267Q416 269 409 274T404 289Q406 296 414 300T431 304Q453 304 481 302T536 297T583 295Q612 295 641 299T714 303Q731 303 727 288Q725 279 719 275T701 267Q671 261 658 251T633 220Q625 204 616 182T600 140T594 113Q594 102 599 94T614
74Q606 57 574 42T500 13T414 -7T339 -14Z" />
<glyph unicode="H" horiz-adv-x="780" d="M-27 -3Q-34 -3 -38 0T-41 11Q-39 20 -32 25T-14 32Q21 41 37 52T63 93L206 551Q216 584 209 597T168 619Q159 621 155 626T154 640Q156 647 163 651T178 655Q201 655 224 654T270 652T312 650Q332 650 357 651T410 653T458
654Q476 654 472 640Q469 630 463 626T444 619Q415 611 399 603T373 583T358 550L302 366Q298 352 313 352H559Q572 352 576 367L632 550Q641 580 633 592T589 619Q581 622 577 626T575 640Q577 647 583 650T598 654Q619 654 645 653T697 651T742 650Q762 650 784
651T831 654T877 655Q884 655 889 651T892 640Q887 624 864 619Q827 610 812 597T786 551L644 94Q635 64 644 52T684 32Q693 30 697 25T699 11Q697 4 689 1T674 -3Q654 -3 631 -2T585 1T541 2Q522 2 496 1T443 -1T394 -3Q377 -3 380 12Q383 21 390 25T408 32Q448
43 466 56T493 98L551 290Q554 297 553 301T545 306H297Q282 306 277 290L219 99Q210 68 220 57T265 32Q274 29 278 25T279 12Q278 5 272 1T257 -3Q235 -3 209 -2T158 1T112 2Q92 2 68 1T19 -1T-27 -3Z" />
<glyph unicode="I" horiz-adv-x="378" d="M-26 -3Q-33 -3 -38 0T-41 11Q-36 27 -14 32Q27 41 45 53T73 97L214 551Q224 583 215 596T169 619Q160 621 156 626T155 640Q156 647 164 651T179 655Q201 655 226 654T275 652T320 650Q340 650 365 651T418 653T467 654Q484
654 480 640Q478 630 471 626T452 619Q423 611 407 603T381 583T366 550L238 134Q227 97 225 78T233 51T266 36Q287 31 293 26T297 12Q296 5 290 1T275 -3Q253 -3 225 -2T168 1T120 2Q89 2 49 0T-26 -3Z" />
<glyph unicode="J" horiz-adv-x="378" d="M-70 -200Q-141 -200 -170 -184T-200 -143Q-200 -114 -190 -95T-162 -75Q-149 -75 -133 -88T-100 -118Q-82 -133 -65 -147T-32 -161Q-15 -161 -1 -143T28 -84T63 20L227 551Q237 584 228 597T183 619Q174 621 170 626T169
640Q170 647 177 651T192 655Q215 655 240 654T289 652T334 650Q353 650 378 651T430 653T478 654Q495 654 491 640Q489 630 482 626T464 619Q435 611 419 603T395 583T380 550L231 68Q222 37 209 10T180 -42T144 -87T103 -126Q65 -159 21 -179T-70 -200Z" />
<glyph unicode="K" horiz-adv-x="762" d="M-18 -6Q-28 -6 -35 -1T-42 11Q-37 27 -9 32Q31 40 46 53T72 98L212 551Q222 584 213 597T168 619Q159 621 156 624T152 635Q152 643 161 649T185 655Q203 655 226 654T274 652T318 650Q337 650 362 651T414 653T462 654Q478
654 478 643Q478 632 469 627T448 619Q419 611 403 604T379 584T365 550L309 370Q307 360 310 357T324 354Q343 354 364 366T410 401L569 551Q580 562 587 570T597 586Q600 596 588 603T560 614Q548 617 543 621T538 634Q538 643 546 647T564 651H639Q689 651 735
652T836 654Q857 654 857 640Q857 631 844 626T821 619Q769 615 731 600T660 557Q626 530 591 501T520 441T451 377Q442 368 441 362T443 347Q492 244 530 185T599 93Q619 70 640 58T685 36Q696 32 707 27T718 13Q718 5 709 0T681 -5Q652 -5 627 -4T579 -1T526
1Q504 1 485 1T446 -1T403 -2Q395 -2 388 2T380 13Q380 24 389 29T412 36Q430 39 433 49T434 71T425 96L332 286Q323 305 315 313T301 321Q295 321 293 318T289 309L228 100Q219 69 225 56T266 32Q275 29 281 26T287 14Q287 5 276 1T253 -4Q222 -4 200 -2T159 2T120
4Q90 4 61 -1T-18 -6Z" />
<glyph unicode="L" horiz-adv-x="579" d="M-22 -5Q-32 -5 -35 -1T-38 10Q-35 25 -10 31Q26 41 45 52T75 96L216 553Q226 585 217 597T172 619Q163 621 160 626T158 640Q159 647 166 651T181 655Q204 655 229 654T278 652T322 650Q343 650 369 651T423 653T472
654Q489 654 485 640Q483 630 476 626T458 619Q428 612 411 605T385 585T369 553L245 147Q225 83 234 61T273 38H309Q352 38 385 48T443 74Q470 94 489 120T525 178Q529 186 534 191T546 196Q551 196 554 191T557 178Q557 164 551 141T535 94T515 48T496 13Q492
7 487 1T473 -5Q452 -5 411 -4T318 -3T215 -1T119 0Q88 0 48 -2T-22 -5Z" />
<glyph unicode="M" horiz-adv-x="988" d="M358 -14Q353 -14 349 -8T344 9Q344 125 339 236T326 460Q325 472 318 469T304 453Q268 381 236 309T176 164Q161 122 158 95T164 53T193 33Q202 31 210 27T215 12Q213 5 204 2T185 -2Q159 -2 144 -1T116 0T82 1Q60 1
37 0T-5 -2T-28 -4Q-52 -4 -48 11Q-45 19 -35 22T-14 29Q11 37 30 48T70 84T114 158L283 501Q302 539 303 562T285 599T218 624Q205 627 198 630T191 643Q191 653 203 655T227 658Q247 658 283 657T356 655T419 653Q444 653 451 639T458 602T457 555L471 217Q472
206 477 204T492 212Q547 268 599 332T698 460T781 573Q794 594 804 609T822 637Q830 650 843 650H890Q916 650 941 652T989 656T1028 658Q1039 658 1046 655T1053 644Q1053 635 1040 628T1001 614Q976 609 960 598T934 569T916 525Q889 423 865 318T820 108Q813
76 827 58T870 33Q879 30 884 26T887 12Q886 6 879 2T862 -2Q841 -2 813 -1T757 1T709 3Q688 3 664 2T614 -1T565 -3Q557 -3 552 1T547 11Q550 20 558 25T577 33Q617 43 634 55T661 98Q680 158 695 214T724 326T752 440Q754 445 751 445T741 438L484 141L384 6Q379
-1 372 -7T358 -14Z" />
<glyph unicode="N" horiz-adv-x="781" d="M5 -3Q-2 -3 -8 0T-14 11Q-11 20 -3 24T17 31Q50 40 70 59T102 111L251 513Q264 549 260 571T235 606T173 621Q159 623 152 628T144 642Q144 649 155 653T176 658Q198 658 230 657T298 655T361 653Q374 653 382 648T395
632L593 191Q595 187 598 183T605 178Q612 178 617 193Q620 200 625 217T639 259T655 314T672 376T688 439T702 500Q715 562 697 586T624 621Q605 624 606 637Q607 643 616 647T633 651Q672 651 701 648T747 645Q767 645 784 647T822 650T869 652Q889 652 889 638Q889
631 878 627T854 620Q830 615 814 607T785 577T758 514Q753 497 745 471T727 414T707 349T685 279T664 211T645 150Q636 122 637 106T651 68Q656 60 662 51T675 34Q683 27 688 24T694 14Q694 5 689 3T675 0Q648 0 630 -2T597 -5T564 -7Q536 -8 522 5T497 46Q489
66 473 105T436 192T395 291T355 384T325 457T308 491Q307 495 304 499T298 504Q293 504 289 497T283 482Q270 449 253 402T218 301T186 198T162 110Q154 74 166 58T221 32Q230 30 237 26T242 12Q241 5 232 1T213 -3Q186 -3 171 -2T144 0T116 1Q94 1 70 0T28 -2T5
-3Z" />
<glyph unicode="O" horiz-adv-x="692" d="M294 -14Q225 -14 172 18T88 109T57 242Q57 323 88 398T176 534T307 629T470 664Q539 664 592 632T676 541T707 408Q707 328 676 252T588 116T456 21T294 -14ZM294 24Q337 24 377 53T452 132T513 240T553 359T568 468Q568
511 558 548T525 607T468 630Q425 630 385 600T311 521T251 411T211 291T196 181Q196 139 206 103T237 46T294 24Z" />
<glyph unicode="P" horiz-adv-x="624" d="M-18 -3Q-25 -3 -31 0T-37 11Q-37 20 -27 25T-5 32Q35 41 53 53T81 98L221 548Q232 583 221 597T175 620Q163 622 157 627T152 640Q154 646 164 650T184 655Q203 655 227 654T277 651T321 650Q336 651 356 652T401 655T449
657Q519 657 568 633T643 566T668 468Q666 417 643 375T579 301T486 251T370 233Q346 233 336 238T325 255Q325 262 331 265T347 270Q358 272 367 274T389 278Q434 286 465 317T512 390T529 475Q529 533 515 563T477 605T424 617Q414 617 407 613T391 592T372 540L236
100Q225 68 240 55T295 32Q304 30 311 26T318 12Q318 5 307 1T284 -3Q263 -3 234 -2T177 1T129 2Q98 2 57 0T-18 -3Z" />
<glyph unicode="Q" horiz-adv-x="701" d="M566 -286Q510 -286 452 -260T336 -203Q286 -175 239 -154T149 -133Q133 -133 118 -135T93 -142Q79 -148 67 -155T46 -162Q38 -162 34 -157T29 -145Q29 -134 48 -121T99 -94T165 -66T231 -39T283 -16Q385 40 448 115T540
281T569 468Q569 517 559 551T526 604T467 623Q425 623 385 595T310 520T251 414T211 296T196 181Q196 141 207 105T248 46T331 22Q342 22 354 22T380 26L345 -11Q334 -12 322 -13T296 -14Q226 -14 173 18T89 109T58 242Q58 323 89 398T176 534T307 629T470 664Q539
664 593 632T677 541T708 408Q708 332 677 263T589 135T457 29Q413 1 375 -19T293 -57T184 -95L181 -88Q205 -76 233 -70T287 -63Q324 -63 370 -82T464 -125Q514 -149 558 -170T633 -192Q663 -192 686 -178T725 -142Q737 -125 746 -125T758 -132T757 -153Q748 -173
729 -196T684 -240T627 -273T566 -286Z" />
<glyph unicode="R" horiz-adv-x="758" d="M-14 -3Q-21 -3 -26 0T-30 11Q-25 27 -2 32Q38 40 56 52T85 98L226 552Q234 576 232 588T218 607T181 619Q169 622 161 626T153 639Q153 647 167 651T190 655Q218 655 239 653T280 650T322 648Q345 648 364 650T407 654T462
657Q528 657 571 638T635 585T657 508Q657 461 632 424T567 363T482 328Q472 324 477 315Q488 286 499 261T523 212T545 168T567 125Q583 91 608 70T667 47Q680 46 691 42T703 25Q703 9 675 4T573 -1Q522 -1 491 10T442 42T416 88Q405 118 395 145T376 201T357
265Q352 281 344 290T318 300Q308 300 303 295T294 280L238 100Q228 68 241 55T292 32Q302 30 306 26T308 12Q305 5 300 1T285 -3Q263 -3 235 -2T179 1T132 2Q101 2 61 0T-14 -3ZM350 326Q384 326 413 339T465 377T500 439T513 521Q513 564 490 593T434 623Q422
623 413 619T396 596T375 536L322 364Q316 344 323 335T350 326Z" />
<glyph unicode="S" horiz-adv-x="526" d="M219 -14Q183 -14 152 -10T92 6Q78 12 69 15T56 19Q49 19 43 17T31 12Q24 8 18 4T7 0Q1 0 -7 8T-16 23Q-16 31 -5 55T18 114T36 187Q42 220 62 220Q75 220 78 205T81 157Q81 125 94 95T134 45T204 26Q264 26 297 58T331
138Q331 160 323 179T294 223T232 283Q184 326 159 367T134 468Q134 524 165 568T249 638T372 664Q406 664 434 658T485 645Q505 639 517 636T541 632Q555 632 566 638Q573 642 580 644T593 647Q604 647 606 640T602 625Q591 611 578 585T554 529T535 467Q532 456
527 449T512 442Q503 442 499 452T494 483Q494 549 462 587T376 626Q341 626 317 611T280 571T268 521Q268 497 276 478T304 436T365 380Q425 330 447 288T469 196Q469 145 439 97T354 17T219 -14Z" />
<glyph unicode="T" horiz-adv-x="676" d="M131 -3Q124 -3 118 0T113 11Q116 20 124 25T144 32Q184 40 204 53T235 98L366 523Q383 581 382 597T364 613H317Q282 613 249 594T191 550Q184 542 172 530T146 507T122 497Q114 497 113 502T112 515Q114 520 117 527T126
542Q155 577 170 605T199 669Q203 682 210 688T226 694Q236 694 247 686T267 670Q276 665 285 660T311 652T362 649H639Q680 649 703 652T737 659T752 665Q771 672 783 682T808 693Q821 693 816 678Q815 673 813 668T808 657Q790 627 776 595T750 526Q745 510 740
502T725 493Q715 493 712 501T708 529Q707 570 691 591T633 613H583Q568 613 558 607T539 581T518 525L387 99Q378 69 390 56T438 32Q447 29 452 25T455 12Q453 5 446 1T431 -3Q409 -3 382 -2T328 1T281 2Q261 2 234 1T180 -1T131 -3Z" />
<glyph unicode="U" horiz-adv-x="712" d="M315 -14Q251 -14 203 5T127 60T93 145T105 255L192 538Q201 566 196 589T167 618Q141 626 145 640Q146 647 156 651T177 655Q208 655 241 653T304 650Q332 650 371 652T439 654Q465 654 461 639Q457 628 441 623T406
610Q388 604 372 585T344 531L250 237Q233 184 245 144T288 82T361 60Q416 60 460 88T537 162T587 262Q602 305 613 342T633 408T646 450Q661 509 662 542T655 591T630 615Q620 621 607 625T596 639Q597 647 606 650T629 653Q653 653 669 653T699 652T730 651Q749
651 761 652T785 654T817 655Q828 655 834 652T838 640Q834 627 804 619Q780 613 765 603T740 576T718 529Q694 459 674 393T630 256Q604 176 564 115T463 20T315 -14Z" />
<glyph unicode="V" horiz-adv-x="726" d="M184 -17Q151 -17 146 17T152 111Q176 234 193 342T222 553Q224 581 216 595T182 616Q166 622 157 625T147 639Q147 647 156 650T181 654Q211 654 250 652T319 650Q338 650 365 651T419 653T467 654Q475 654 483 651T489
640Q487 631 476 626T454 619Q419 611 405 600T384 555L313 170Q312 164 312 162T316 159Q318 159 320 162T327 171L576 469Q619 520 631 550T634 596T603 619Q593 621 585 626T580 640Q582 647 592 650T613 654Q643 654 665 653T717 651Q746 651 770 654T823 657Q834
657 843 653T853 641Q853 632 840 628T815 620Q784 612 755 592T699 541L337 129Q320 108 298 84T252 36T211 -2T184 -17Z" />
<glyph unicode="W" horiz-adv-x="1111" d="M197 -17Q179 -17 170 2T160 52T163 114Q172 171 180 226T197 336T212 444T225 548Q228 571 225 583T211 603T183 616Q168 622 158 625T147 639Q147 647 156 650T182 654Q212 654 247 652T312 650Q332 650 361 651T419
653T468 654Q476 654 484 651T491 640Q488 631 477 626T455 618Q431 614 417 607T396 588T385 552Q371 466 354 376T322 199Q320 185 324 184T340 195L576 479Q595 502 608 523T621 565Q621 587 612 598T579 616Q563 622 553 625T543 639Q543 647 552 650T577 654Q597
654 621 653T669 651T712 650Q731 650 760 651T818 654T868 655Q893 655 893 641Q893 632 882 627T859 619Q821 612 805 600T782 554L719 197Q717 183 722 184T738 198L951 470Q991 521 1001 551T1004 597T977 619Q967 622 959 626T954 640Q956 647 966 650T987
654Q1007 654 1026 653T1064 652T1102 651Q1132 651 1155 654T1209 657Q1220 657 1229 653T1238 641Q1238 632 1225 627T1200 620Q1169 613 1137 592T1079 541L727 133Q696 96 669 63T621 8T586 -14Q569 -14 560 -6T548 19T546 58T553 111Q563 165 574 227T597
351T617 463L341 131Q324 111 306 86T268 37T231 -2T197 -17Z" />
<glyph unicode="X" horiz-adv-x="713" d="M-8 -7Q-19 -7 -29 -4T-40 9Q-40 19 -30 23T-9 30Q7 34 24 42T65 71T120 128L277 309Q291 326 295 339T292 376L240 550Q233 574 221 588T194 610T161 619Q150 620 144 625T137 640Q137 647 144 650T159 654Q204 654 242
651T321 648Q355 648 386 651T450 654Q459 654 468 651T477 640Q477 632 468 627T447 619Q417 612 404 596T401 544L445 395Q449 381 457 381T474 392L562 504Q593 543 602 567T605 603T577 618Q567 620 558 625T548 640Q548 647 557 650T577 653Q599 653 619 652T663
650Q691 650 713 653T765 657Q776 657 786 654T796 641Q796 631 786 628T766 621Q751 617 733 608T697 586T665 558L490 360Q477 344 474 332T476 298L541 95Q546 78 557 66T582 46T613 34Q623 32 635 26T647 9Q647 2 640 -1T621 -5Q584 -5 555 -4T499 -1T441 1Q411
1 383 0T325 -2Q316 -2 307 2T298 13Q298 21 308 26T328 34Q361 42 374 56T379 97L327 281Q323 293 315 293T299 284L186 133Q160 98 157 78T166 47T200 32Q211 29 220 24T229 10Q229 4 220 1T200 -3Q171 -3 152 -2T103 0Q73 0 48 -3T-8 -7Z" />
<glyph unicode="Y" horiz-adv-x="652" d="M120 -6Q107 -6 102 -2T97 10Q99 19 109 24T133 31Q173 39 194 58T224 110L268 250Q277 278 277 300T268 351L208 553Q201 575 190 591T160 614Q142 620 135 625T130 640Q132 647 140 650T156 654Q198 654 232 651T310
648Q338 648 367 651T430 654Q439 654 446 651T452 640Q451 632 440 627T418 619Q372 609 360 594T355 546L397 364Q401 348 404 343T412 338Q416 338 422 343T436 358Q470 398 505 443T575 533Q604 567 603 589T560 618Q550 620 542 625T536 640Q538 647 548 650T569
653Q592 653 614 651T664 649Q694 649 720 652T773 656Q784 656 792 653T797 640Q795 631 786 628T765 621Q744 615 723 605T683 582T652 555Q623 521 594 488T535 421T477 357Q458 337 446 313T423 258L378 110Q366 73 375 58T420 31Q432 28 439 24T443 11Q442
4 433 0T413 -5Q391 -5 365 -3T313 0T267 2Q246 2 221 1T169 -3T120 -6Z" />
<glyph unicode="Z" horiz-adv-x="641" d="M503 -4Q493 -4 466 -4T397 -2T307 0T208 1Q156 1 114 0T38 -3T-27 -6Q-36 -7 -36 6T-32 22Q-20 37 -7 53T21 87T50 119Q103 177 155 236T258 355T363 475T471 595Q476 602 477 608T463 615Q453 616 435 616T396 614T356
611T326 609Q288 604 252 585T181 522Q172 509 163 499T138 489Q130 489 129 494T128 507Q130 513 132 520T138 534Q154 564 164 589T185 638Q191 654 197 660T216 667Q245 667 282 659T364 649Q395 649 421 649T477 649Q507 649 545 650T619 653T679 654Q687 654
690 644T690 629L594 522Q545 469 495 412T395 298T295 183T196 69Q173 43 202 42Q219 42 254 42T322 43Q351 43 378 46T428 54T471 69Q503 82 530 104T582 161Q588 168 593 171T604 174Q610 174 613 170T615 158Q611 146 602 129T582 91T559 52T537 15Q531 6 523
1T503 -4Z" />
<glyph unicode="[" horiz-adv-x="374" d="M11 -201Q-5 -201 -13 -199T-21 -186T-12 -149L233 644Q241 669 247 681T263 697T289 701L474 700Q482 700 486 696T488 681Q485 669 473 664T452 658Q434 657 417 656T382 653Q359 652 343 634T320 597Q304 545 286 488T249
371T212 251T176 132T139 14T105 -97Q99 -116 104 -133T133 -151Q145 -152 155 -153T177 -155T200 -157Q208 -158 216 -163T221 -180Q218 -191 211 -195T195 -200L11 -201Z" />
<glyph unicode="\" horiz-adv-x="398" d="M277 -64Q263 -64 252 -60T238 -43L149 648Q148 655 156 662T177 669Q192 668 202 664T215 646L303 -45Q304 -52 296 -58T277 -64Z" />
<glyph unicode="]" horiz-adv-x="375" d="M389 703Q406 703 413 701T421 688T412 651L167 -142Q160 -167 154 -179T138 -195T111 -199L-74 -198Q-81 -198 -86 -194T-88 -179Q-85 -167 -73 -162T-52 -156Q-34 -154 -17 -153T18 -151Q42 -150 58 -132T80 -95Q97
-42 114 15T151 131T188 251T225 370T261 488T295 599Q302 618 296 635T267 653Q256 654 246 655T224 657T200 659Q192 660 184 665T179 682Q182 693 190 697T205 702L389 703Z" />
<glyph unicode="^" horiz-adv-x="515" d="M72 250Q64 250 58 253T51 265Q51 269 53 273L270 608H277L496 273Q501 265 496 258T477 250Q463 250 451 260T429 283L278 503Q274 508 272 508T268 503L121 283Q111 269 99 260T72 250Z" />
<glyph unicode="_" horiz-adv-x="583" d="M453 -128Q462 -128 467 -133T471 -145Q470 -158 457 -172T430 -187H-106Q-113 -187 -115 -182T-118 -173Q-118 -167 -113 -156T-99 -137T-80 -128H453Z" />
<glyph unicode="`" horiz-adv-x="237" d="M301 470Q294 470 286 475T271 487L164 607Q154 618 148 627T141 646Q141 656 151 667T176 686T200 695Q211 695 219 687T237 660L310 502Q315 491 314 481T301 470Z" />
<glyph unicode="a" horiz-adv-x="541" d="M38 -14Q24 -14 10 -7T-14 13T-24 37Q-24 67 -6 103T53 192T164 323Q208 370 246 399T302 428Q329 428 361 402Q368 394 369 394T371 393Q373 393 373 393T377 400Q384 414 387 420T392 432Q398 443 417 443Q432 443 449
436T479 419T491 400Q491 394 489 390L389 118Q380 92 400 92Q411 92 435 109T483 152Q485 154 485 154T488 155Q492 155 495 151T499 139Q499 125 481 101T432 51Q396 21 361 4T302 -14Q287 -14 272 -6T246 15T236 41Q236 47 241 64Q242 69 246 79T255 100T265
124T275 147Q278 153 275 155T268 155Q217 96 176 59T101 4T38 -14ZM143 92Q160 92 197 123T272 203Q305 242 323 272T342 316Q342 325 322 342Q312 349 302 354T285 360Q270 360 243 342T192 300Q171 280 153 250T124 187T113 127Q113 111 121 102T143 92Z" />
<glyph unicode="b" horiz-adv-x="526" d="M180 -13Q123 -13 92 15T61 95Q61 115 65 138T79 189L189 539Q196 564 198 575T201 599Q201 609 194 615T167 628Q145 636 145 644Q145 651 150 655T172 665Q191 671 216 678T266 692T310 703T335 707Q361 707 361 694Q361
681 359 673T351 653Q341 629 330 602T307 542T280 467T250 376T214 263Q212 255 214 254T221 260Q279 342 337 387T440 433Q477 433 502 408T527 349Q527 300 507 249T451 151T371 67T277 9T180 -13ZM210 26Q223 26 241 38T278 72T314 118Q336 153 355 193T387
269T400 325Q400 338 393 346T373 355Q352 355 318 328T244 245Q208 195 188 153T167 89Q167 68 180 47T210 26Z" />
<glyph unicode="c" horiz-adv-x="366" d="M145 -14Q108 -14 78 4T29 53T11 122Q12 170 26 216T64 301T122 370T195 416T282 433Q320 433 344 416T368 373Q368 354 355 336T327 317Q319 317 313 323T297 347Q287 365 275 377T249 390Q228 390 208 371T171 321T144
251T133 174Q132 137 151 117T203 96Q230 96 253 108T294 142Q298 148 303 151T313 154Q323 154 323 143Q323 119 307 92T265 40T207 1T145 -14Z" />
<glyph unicode="d" horiz-adv-x="563" d="M77 -14Q43 -14 21 10T-2 70Q-2 107 12 150T53 239T115 328Q159 379 201 406T280 434Q304 434 324 423T364 398Q371 394 374 393T381 391Q385 391 388 400L435 550Q443 574 446 584T449 597T450 600T449 605Q449 615 439
623T409 640Q396 645 392 648T387 655Q387 662 393 666T417 677Q429 680 453 685T503 696T551 704T580 707Q605 707 605 693Q605 684 604 676T596 653L415 116Q414 111 413 108T412 101Q412 91 419 91Q426 91 441 100T474 124T507 154Q510 157 510 157T512 158Q525
158 524 143Q524 128 510 108T474 66T424 27T372 -3T328 -14Q313 -14 298 -6T272 16T261 42Q261 47 266 65Q271 76 277 92T291 122T302 143T303 142Q306 149 302 151T294 146Q226 63 174 25T77 -14ZM163 84Q183 84 208 100T259 144T305 204T340 270T353 329Q353
356 342 370T310 384Q292 384 269 365T221 316T177 251T144 180T132 117Q132 101 140 93T163 84Z" />
<glyph unicode="e" horiz-adv-x="380" d="M136 -15Q109 -15 79 1T28 45T7 107Q7 169 30 227T91 332T177 405T276 433Q334 433 360 411T386 359Q386 325 364 301T306 259T229 231T151 212Q146 211 144 209T140 202Q138 195 137 187T134 170Q133 135 152 109T210
83Q238 83 261 97T307 136Q318 147 324 147Q334 147 334 137Q334 134 334 130T331 123Q312 87 284 56T219 5T136 -15ZM158 247Q178 253 200 261T242 282T274 316T289 364Q289 376 282 386T261 397Q243 397 226 385T192 352T166 306T151 253Q150 245 158 247Z" />
<glyph unicode="f" horiz-adv-x="383" d="M-68 -291Q-138 -291 -169 -267T-201 -215Q-201 -190 -184 -174T-149 -158Q-140 -158 -129 -172T-107 -201Q-97 -216 -85 -229T-55 -243Q-40 -243 -29 -231T-7 -195T13 -138L149 346Q153 364 135 364L75 363Q65 363 61
367T57 380Q57 388 66 401T91 415L154 418Q162 418 166 432L174 457Q203 548 247 602T343 681T439 706Q484 706 515 685T546 631Q546 605 533 583T500 561Q483 561 476 577T460 614Q452 634 441 649T410 665Q391 665 375 647T346 598T321 528Q315 507 311 488T302
452Q301 447 301 443T299 433Q298 424 303 421T315 418Q342 418 365 419T413 421Q423 421 423 407Q423 402 418 393T407 376T396 368L315 365Q298 364 290 359T277 341Q247 234 216 122T154 -99Q145 -133 119 -166T59 -228T-9 -274T-68 -291Z" />
<glyph unicode="g" horiz-adv-x="468" d="M121 -290Q59 -290 9 -277T-72 -240T-102 -186Q-102 -158 -76 -136T-7 -95T89 -63Q101 -59 91 -54Q71 -42 54 -24T37 15Q37 37 60 54T118 90Q124 94 127 97T131 103Q131 107 121 111Q103 120 85 135T56 171T44 219Q44
251 59 287T102 357T172 412T269 433Q288 433 305 428T336 416Q352 409 365 404T386 398Q403 398 419 402T451 410T480 414Q487 414 496 409T506 387Q506 369 499 357T479 345Q470 345 459 347T435 350T411 352Q406 352 402 351T400 341Q402 334 402 328T403 314Q403
274 387 235T343 164T276 113T191 94Q182 94 173 94T158 93Q148 86 148 76Q148 65 158 54T187 29Q206 17 231 2T281 -30T330 -61Q354 -77 367 -95T380 -134Q380 -164 358 -191T298 -241T215 -276T121 -290ZM164 -254Q190 -254 214 -246T253 -222T268 -189Q268 -178
261 -166T240 -145Q219 -131 190 -114T143 -87Q135 -83 128 -83Q122 -83 118 -84T108 -87Q60 -101 36 -120T11 -174Q11 -195 27 -213T78 -243T164 -254ZM174 134Q191 132 210 148T246 191T277 249T299 310T308 360Q308 379 301 390T281 401Q265 401 248 385T213
342T182 285T160 226T151 177Q151 155 157 145T174 134Z" />
<glyph unicode="h" horiz-adv-x="563" d="M99 -15Q90 -15 78 -9T55 8T45 33Q45 50 48 66T59 105L193 539Q198 554 201 569T204 596Q204 610 192 617T165 629Q158 631 152 634T146 644Q146 649 150 653T172 665Q184 668 207 675T257 689T304 702T334 707Q342 707
351 706T360 694Q360 682 358 673T351 654L212 229Q210 222 214 222T222 227Q259 284 301 331T385 406T468 434Q509 434 529 409T550 346Q550 294 537 246T500 154T449 76Q442 67 423 53T379 23T332 -3T298 -14Q285 -14 271 -6T247 13T237 32Q237 37 242 48T256
70T272 80Q283 80 288 75T302 62Q310 56 317 50T335 43Q345 43 356 63T379 116T398 187T412 261T417 324Q417 341 411 351T391 361Q378 361 358 341T315 285T265 208T213 123T163 43Q145 13 129 -1T99 -15Z" />
<glyph unicode="i" horiz-adv-x="332" d="M86 -14Q62 -14 44 4T25 40Q25 45 26 50T30 61Q59 125 84 187T133 307Q135 313 128 313Q121 313 110 309T88 297T65 284Q52 276 46 280T40 292Q40 299 53 313T88 345T134 380T182 410T222 430Q236 436 251 429T276 409T280
384L168 108Q167 104 166 100T165 93Q165 89 167 87T172 85Q181 85 199 97T239 125T274 155Q277 158 278 158Q283 158 287 154T291 144Q291 126 270 100T216 47T149 4T86 -14ZM269 760Q247 760 232 777T217 817Q217 851 241 877T301 903Q325 903 338 884T351 842Q351
811 327 786T269 760Z" />
<glyph unicode="j" horiz-adv-x="311" d="M-130 -290Q-182 -290 -203 -273T-225 -236Q-223 -218 -214 -206T-193 -185T-172 -177Q-157 -177 -146 -188T-126 -211Q-117 -221 -108 -229T-83 -237Q-58 -237 -38 -203T0 -116L124 267Q132 294 129 302T117 311Q105
311 93 306T65 294Q54 290 47 292T40 302Q40 310 45 315T60 327Q82 345 111 361T171 391T227 414T265 431Q279 437 293 425T303 399Q297 381 284 351T259 286L145 -62Q129 -110 95 -151T18 -223T-64 -272T-130 -290ZM262 506Q240 506 225 523T210 563Q210 597 234
623T294 649Q318 649 331 630T344 588Q344 557 320 532T262 506Z" />
<glyph unicode="k" horiz-adv-x="535" d="M332 -15Q312 -15 297 -3T274 35L231 160Q227 174 221 180T208 187Q201 187 198 181T189 161Q183 147 177 130T163 95T149 61T136 28Q130 15 114 4T75 -7Q60 -7 42 6T23 45Q23 55 25 65T31 84L178 536Q183 552 187 566T191
596Q191 618 167 628Q159 631 153 634T146 643Q146 649 150 653T170 663Q182 668 205 675T253 689T299 702T329 707Q336 707 345 706T354 694Q354 681 352 673T346 654L222 300Q219 292 224 292T234 297Q260 334 293 365T364 414T443 433Q473 433 492 420T511 379Q511
355 496 331T456 285T403 245T343 215Q333 212 339 198L377 113Q381 106 387 97T404 87Q419 87 440 103T476 140Q481 146 483 149T489 152Q494 152 495 148T497 139Q497 116 481 90T438 39T384 0T332 -15ZM239 211Q265 211 292 224T342 256T380 296T394 333Q394
347 385 352T361 358Q343 358 321 341T278 301T243 255T229 224Q229 220 232 216T239 211Z" />
<glyph unicode="l" horiz-adv-x="313" d="M70 -14Q47 -14 30 4T13 41Q13 49 18 63L187 562Q199 596 195 610T174 629Q161 633 157 638T151 649Q151 655 153 659T165 666Q188 673 214 678T264 688T303 698Q308 700 317 702T334 705T346 707Q352 707 355 700T357
687Q356 680 352 668T344 643L162 120Q160 116 160 113T159 106Q159 93 171 93Q180 93 194 103T225 128T254 157Q256 159 258 161T262 163Q269 163 271 157T273 147Q273 131 259 111T222 68T171 28T117 -2T70 -14Z" />
<glyph unicode="m" horiz-adv-x="831" d="M100 -15Q91 -15 77 -8T53 11T43 42Q44 47 46 55T51 72L157 325Q161 336 159 342T145 348Q135 348 114 342T67 310Q63 305 56 305T47 315Q47 322 54 334T70 358T87 377Q112 400 140 416T215 433Q238 433 253 420T271 386T264
342L207 210Q204 203 209 202T218 208Q255 270 290 321T363 402T442 433Q480 433 498 410T515 353T496 283L482 251Q478 244 485 243T496 248Q526 298 559 339T628 407T706 433Q745 433 760 411T772 354T753 282L684 120Q672 89 688 89Q694 89 704 95T727 111T750
129T767 142Q772 148 777 152T786 157Q789 157 792 154T796 145Q795 135 791 125T778 106Q735 55 679 21T566 -14Q557 -14 544 -8T522 10T518 33L654 334Q662 350 657 359T643 370Q629 370 612 351T570 298Q551 270 526 229T473 142T415 48Q404 30 388 16T355 -6T329
-15Q320 -15 309 -8T289 10T280 31Q280 36 283 48T292 76L400 337Q407 354 403 362T389 371Q378 371 356 351T305 289Q290 269 274 241T240 182T204 117T169 53Q151 20 135 3T100 -15Z" />
<glyph unicode="n" horiz-adv-x="598" d="M116 -14Q108 -14 96 -8T72 10T55 37T57 69L158 320Q168 345 149 345Q142 345 129 344T99 336T68 310Q64 305 56 305T47 315Q47 322 53 334T69 358T86 377Q110 400 144 416T225 433Q250 433 263 420T280 388T275 347L222
216Q219 209 227 208T240 213Q276 276 311 325T383 404T463 433Q502 433 519 411T538 358T526 297L451 120Q438 89 455 89Q461 89 472 95T495 109T517 126T533 140Q538 145 543 150T552 155Q555 155 558 152T562 143Q562 123 549 107Q519 72 483 45T407 2T333 -14Q320
-14 307 -6T287 15T285 40Q318 113 353 184T416 331Q423 349 421 358T408 368Q395 368 380 352T347 312T312 262Q303 250 287 225T252 168T215 106T182 50Q166 23 150 5T116 -14Z" />
<glyph unicode="o" horiz-adv-x="458" d="M155 -14Q117 -14 84 4T30 54T10 128Q10 174 29 227T87 326T178 403T300 433Q367 433 407 395T448 290Q448 244 429 192T371 93T279 16T155 -14ZM174 25Q194 25 214 47T253 105T287 186T310 274T319 354Q319 375 311 385T285
396Q268 396 248 375T209 317T175 237T149 150T139 69Q139 47 149 36T174 25Z" />
<glyph unicode="p" horiz-adv-x="528" d="M-100 -285Q-105 -285 -108 -282T-111 -274Q-110 -266 -104 -262T-89 -255Q-58 -247 -44 -239T-22 -207L148 312Q151 322 153 331T154 345T140 347Q120 342 106 337T68 324Q60 321 52 322T43 334Q43 344 51 351T69 362Q85
368 105 378T164 403Q171 406 177 413T189 441Q205 489 231 511T288 534Q307 534 314 523T315 486L304 447Q302 437 302 431T307 426Q320 429 333 431T361 433Q414 433 450 416T504 367T522 297Q522 244 499 190T436 89T345 14T238 -14Q220 -14 206 -7T183 6Q170
16 164 14T151 -7L97 -197Q91 -216 102 -229T149 -251Q155 -252 161 -256T168 -271Q168 -276 162 -279T146 -283Q130 -283 105 -282T58 -281T20 -281Q-5 -281 -39 -283T-100 -285ZM238 24Q257 24 283 45T334 102T377 185T394 281Q394 335 372 357T313 380Q307 380
301 380T287 378L201 110Q196 95 196 81T202 55Q208 41 214 33T238 24Z" />
<glyph unicode="q" horiz-adv-x="543" d="M108 -288Q104 -289 101 -285T97 -275Q98 -267 104 -263T119 -256Q150 -248 164 -239T188 -206Q205 -161 225 -105T266 11T309 131Q312 139 308 140T297 134Q254 79 221 47T157 0T92 -14Q55 -14 31 13T6 81Q6 125 24 170T73
259T141 342Q185 385 235 412T329 440Q346 440 362 433T386 412Q394 403 399 398T409 394Q418 394 427 408L435 421Q451 444 467 453T497 462Q512 462 516 439T503 361L316 -198Q309 -220 318 -231T347 -246Q365 -249 373 -253T381 -264Q381 -269 374 -272T357
-276Q306 -276 259 -277T174 -282T108 -288ZM162 60Q177 60 195 72T232 106T272 154T309 208Q336 248 355 281T375 336Q375 348 369 360T353 382T330 392Q311 392 286 369T235 310T187 232T152 153T139 90Q139 76 144 68T162 60Z" />
<glyph unicode="r" horiz-adv-x="457" d="M94 -15Q85 -15 71 -9T47 7T36 31Q36 38 38 46T43 63L144 325Q148 335 146 341T133 348Q113 348 101 340T74 321Q69 317 62 317T53 326Q51 347 69 368T115 404Q137 418 162 425T212 433Q240 433 252 418T265 376T249 317L211
226Q207 219 213 218T223 224Q258 286 291 333T359 407T430 434Q462 434 478 416T495 370Q495 344 483 319T454 279T420 263Q409 263 403 273T393 305Q390 322 384 335T366 349Q348 349 331 327T290 264Q282 252 268 227T236 172T202 113T173 63Q154 29 133 7T94
-15Z" />
<glyph unicode="s" horiz-adv-x="317" d="M69 -14Q27 -14 1 5T-25 55Q-25 81 -14 98T17 116Q25 116 35 107T57 84Q72 70 90 54T127 38Q143 38 150 47T159 74Q160 89 145 113T114 161Q96 187 83 216T69 273Q69 300 87 327T133 379T189 418T235 433Q260 433 283
422T322 397T338 370Q338 359 328 344T304 317T279 305Q267 305 258 314T240 334Q231 347 218 356T190 366Q176 366 168 357T160 335Q160 327 168 314T189 286T213 253Q242 216 255 191T268 140Q268 119 251 93T206 42T142 2T69 -14Z" />
<glyph unicode="t" horiz-adv-x="364" d="M94 -14Q78 -14 64 -4T41 20T32 46Q32 53 34 61T43 87L137 339Q143 356 139 361T126 367L78 369Q61 370 57 376T53 389Q53 391 60 399T78 415T101 423H150Q165 423 169 427T183 448L211 504Q219 519 232 533T261 557T288
567Q304 567 309 552T309 521L285 444Q282 429 285 425T300 421Q313 421 329 420T363 416Q385 413 389 408T394 395Q394 392 389 385T367 376Q354 375 340 374T307 371Q289 370 280 366T266 352L191 145Q184 124 184 114T188 101T199 98Q211 98 230 111T268 142T300
172Q303 174 305 175T308 175Q313 173 315 168T317 156Q314 140 298 119T258 74T204 31T147 -1T94 -14Z" />
<glyph unicode="u" horiz-adv-x="596" d="M114 -14Q94 -14 77 3T52 44T53 86L146 298Q153 313 152 321T143 329Q138 329 122 320T90 298T66 278Q53 266 45 266T36 275Q36 285 41 294T54 313Q83 349 115 376T181 418T246 434Q260 434 274 421T295 391T295 359Q276
317 248 258T185 122Q178 107 179 96T190 85Q200 85 219 106T263 161T314 228Q333 252 351 278T384 328T411 372Q428 398 441 415T472 433Q491 433 506 422T528 396T530 367L430 108Q427 100 427 93T433 86Q441 86 461 98T504 128T540 159Q543 162 544 162Q549
162 553 158T557 147Q557 134 543 117T507 80T460 44T411 16T368 4Q354 -1 340 3T315 16T298 34Q296 38 296 45T299 61Q307 79 317 101T339 150T361 204Q364 213 359 213T349 207Q320 167 290 128T229 57T169 6T114 -14Z" />
<glyph unicode="v" horiz-adv-x="477" d="M155 -14Q117 -14 93 3T63 50T71 120L133 289Q138 304 134 309T126 314Q116 314 99 304T72 285Q65 279 60 275T52 271Q38 271 38 283Q38 288 44 297T59 319Q74 337 97 357T146 394T196 423T237 434Q250 434 261 425T278
404T281 384L202 135Q192 101 198 85T233 68Q254 68 281 87T332 138T373 203T389 269Q389 294 381 311T358 342Q348 352 343 360T338 379Q338 388 354 400T393 423T430 434Q446 434 458 414T471 351Q471 309 454 265T408 178T343 98Q298 50 251 18T155 -14Z" />
<glyph unicode="w" horiz-adv-x="694" d="M138 -14Q110 -14 89 4T63 60T78 148L133 292Q138 306 135 310T129 314Q123 314 107 307T76 290Q69 286 63 282T53 278Q40 278 40 291Q40 296 45 305T61 326Q78 343 101 361T149 396T198 423T239 434Q256 434 267 425T279
394T265 333L190 136Q178 102 190 85T224 68Q237 68 253 80T287 114T318 161T343 216Q348 227 350 240T354 267T359 298T366 332Q367 341 374 355T394 381Q410 395 424 402T467 410Q480 410 488 401T499 372T491 320Q481 288 465 259T435 205Q425 186 419 166T414
130Q413 104 423 86T459 68Q483 68 506 86T550 135T583 200T596 270Q596 289 592 303T580 331Q571 348 564 359T557 376Q557 384 573 398T610 423T646 434Q662 434 675 414T688 351Q688 309 671 264T625 175T561 91Q521 44 476 15T387 -14Q352 -14 331 6T307 60T316
135L320 102Q298 67 270 41T208 1T138 -14Z" />
<glyph unicode="x" horiz-adv-x="497" d="M34 -14Q9 -14 -3 0T-15 34Q-15 49 -8 65T11 91T34 102Q39 102 45 97T55 85Q59 80 66 76T83 71Q92 71 102 76T124 94Q133 104 145 117T169 145T191 171Q196 178 197 183T195 198L157 327Q155 335 152 339T143 344Q132
344 116 331T80 294Q78 292 75 290T68 287Q64 287 61 290T57 299Q57 318 68 341T99 385T143 419T196 433Q221 433 234 415T257 366L286 274Q289 262 299 275L358 357Q387 398 412 415T460 433Q486 433 503 414T521 379Q521 362 513 347T492 323T471 313Q459 313
455 317T446 329Q442 337 437 342T421 347Q413 347 401 342T369 316Q355 302 341 282T311 238Q307 229 304 221T305 200L333 98Q338 82 343 77T355 71Q363 71 378 84T412 128Q418 136 425 136Q429 136 431 133T434 121Q434 106 424 84T395 39T352 1T302 -14Q274
-14 256 6T231 50Q227 69 222 94T212 139Q210 145 208 147T200 143Q185 122 171 100T141 58Q116 23 87 5T34 -14Z" />
<glyph unicode="y" horiz-adv-x="482" d="M-47 -289Q-75 -289 -98 -274T-121 -226Q-121 -208 -113 -191T-90 -163T-61 -152Q-50 -152 -38 -159T-15 -175Q-3 -183 10 -190T40 -198Q70 -198 99 -168T150 -90Q169 -48 177 6T186 122Q186 205 177 254T155 324T133
346Q124 346 114 334T94 305T79 279Q77 274 72 265T60 256Q57 256 54 263T51 284Q51 312 64 339T99 389T145 425T192 439Q221 439 238 419T269 362Q283 319 293 251T298 83Q297 65 301 66T313 80Q348 146 361 227T373 415Q373 423 385 431T406 440Q415 440 430
432T458 409T471 375Q471 313 436 231T337 55T190 -130Q151 -173 108 -209T24 -267T-47 -289Z" />
<glyph unicode="z" horiz-adv-x="471" d="M265 -33Q235 -33 210 -19T164 12Q144 28 127 41T93 54Q67 54 52 36T37 -5Q37 -15 32 -17T21 -20Q13 -20 7 -10T-1 11Q-2 22 3 37T25 65L320 320L356 318Q341 304 316 296T274 287Q254 287 236 300T200 328Q184 340 169
349T139 359Q124 359 117 344T109 312Q109 299 112 289T121 270Q129 259 121 251Q113 244 96 237T72 230Q66 230 56 241T46 273Q46 309 62 331T108 375Q122 387 143 400T185 423T219 433Q241 433 258 427T299 414Q318 407 338 402T378 396Q394 396 402 400T424
416Q430 421 439 427T456 434Q462 434 468 429T474 419Q474 412 463 398T437 371L144 100L118 111Q132 123 145 132T173 141Q196 141 217 128T258 97Q277 81 296 67T335 52Q348 52 355 62T367 87T371 121Q371 141 373 154T384 168Q398 168 412 155T426 112Q426
92 408 67T362 19T309 -18T265 -33Z" />
<glyph unicode="{" horiz-adv-x="389" d="M221 -152Q179 -152 140 -145T73 -121T34 -80T37 -19Q47 7 59 40T84 106T105 167Q118 209 108 231T66 267Q57 272 50 274T43 287Q44 296 54 300T79 310Q105 319 123 329T156 358T181 411Q194 453 203 497T223 581Q232
616 258 641T321 683T402 706T487 714Q497 714 503 709T506 693Q502 681 489 679T465 676Q414 676 381 656T331 586Q325 567 319 537T307 475T294 421Q278 368 231 331T125 283Q119 282 125 279Q175 268 201 231T211 141Q204 119 191 88T166 26T148 -24Q133 -73
152 -90T222 -116Q233 -118 243 -119T253 -132Q253 -143 242 -147T221 -152Z" />
<glyph unicode="|" horiz-adv-x="276" d="M103 -289Q94 -289 88 -281T81 -264V650Q81 664 92 674T118 692T147 702T164 705Q174 705 182 699T190 682V-245Q190 -260 179 -268T153 -281T123 -287T103 -289Z" />
<glyph unicode="}" horiz-adv-x="389" d="M213 714Q255 714 293 707T360 683T399 642T397 581Q387 555 374 522T349 457T328 395Q315 353 325 331T367 295Q377 291 383 289T390 275Q390 266 380 262T354 252Q328 243 310 233T277 204T252 151Q239 109 230 66T210
-19Q202 -54 176 -79T112 -121T32 -144T-53 -152Q-63 -152 -69 -146T-73 -131Q-69 -119 -56 -117T-32 -114Q20 -114 53 -94T102 -24Q108 -4 114 26T126 87T140 141Q156 194 203 231T309 279Q314 280 309 283Q258 294 232 331T222 421Q230 444 242 475T267 536T286
586Q300 635 281 652T212 678Q201 680 191 681T180 694Q181 705 192 709T213 714Z" />
<glyph unicode="~" horiz-adv-x="545" d="M96 255Q90 254 82 267T75 285Q76 293 89 311T123 350T170 386T219 402Q242 402 265 394T316 376Q338 369 362 363T413 356Q434 356 452 363T487 380Q501 388 509 395T524 402Q531 402 538 389T544 371Q544 364 531 346T496
307T450 271T400 255Q381 255 359 261T313 276Q286 285 258 293T205 301Q182 301 158 290T117 268T96 255Z" />
<glyph unicode="&#xa0;" horiz-adv-x="237" />
<glyph unicode="&#xa1;" horiz-adv-x="303" d="M183 302Q196 302 199 291T198 252Q188 196 179 148T161 59T146 -10T136 -58Q130 -86 116 -111T82 -153T37 -169Q19 -169 5 -154T-11 -109T2 -40Q5 -30 17 -3T47 63T89 150T138 252Q149 274 160 288T183 302ZM238
494Q263 494 280 477T297 436Q297 403 271 377T208 350Q178 350 162 370T146 412Q146 445 173 469T238 494Z" />
<glyph unicode="&#xa2;" horiz-adv-x="431" d="M119 -82Q111 -82 106 -77T105 -63L127 -11Q75 3 45 45T15 150Q15 199 38 248T101 339T195 406T308 432L331 487Q335 497 345 502T365 508Q373 508 376 502T375 487L352 431Q376 429 402 419T446 394T464 362Q463
350 452 338T424 317T393 308Q382 308 375 311T362 324Q355 342 347 354T329 373L219 104Q224 103 230 103T244 102Q280 102 316 115T374 153Q382 162 391 162Q400 162 400 153T393 133Q354 66 300 28T170 -14L150 -63Q145 -71 136 -76T119 -82ZM178 114L288 381Q255
380 228 364T180 321T148 262T137 196Q137 169 148 147T178 114Z" />
<glyph unicode="&#xa3;" horiz-adv-x="622" d="M105 288Q99 287 93 292T86 304Q86 313 95 325T118 338L484 362Q492 363 497 357T501 346Q501 338 489 326T461 312L105 288ZM339 -37Q297 -37 266 -21T208 14Q182 34 160 51T112 68Q83 47 65 30T28 -5Q19 -15 4
-13T-24 0T-36 25Q-36 46 -14 69T44 109T118 127Q141 160 159 199T193 285T224 382Q247 451 287 507T388 596T526 629Q584 629 615 612T656 569T657 517T628 474T578 456Q567 456 564 459T561 470Q561 478 571 491T582 532Q582 554 570 571T530 588Q505 588 486
577T450 538T414 467T374 356Q358 310 334 266T278 190T206 141Q204 140 204 138T206 134Q244 134 269 120T315 89Q337 71 356 56T406 40Q436 40 462 57T489 108Q489 125 481 134T472 157Q472 175 486 185T514 195Q537 195 548 183T560 141Q560 112 546 81T503
24T433 -20T339 -37Z" />
<glyph unicode="&#xa4;" horiz-adv-x="499" d="M208 58Q160 58 126 77T73 129T54 205Q54 255 77 303T141 389T231 451T336 474Q388 474 421 454T471 399T488 325Q488 280 469 233T413 147T324 83T208 58ZM24 52Q12 52 1 67T-9 93Q-7 98 2 105L79 163L113 113L36
56Q32 53 30 53T24 52ZM394 52Q386 53 379 63L331 128L379 164L428 98Q432 93 432 91T433 86Q433 74 420 63T394 52ZM226 117Q266 117 301 133T366 177T411 239T427 310Q427 355 398 385T318 415Q278 415 242 399T177 354T133 292T116 223Q116 178 145 148T226
117ZM163 365L107 440Q105 444 105 447Q105 458 120 470T149 480Q154 479 157 475L211 401L163 365ZM461 377L424 425L494 476Q498 478 501 479T507 480Q522 480 533 467T541 441Q540 436 537 432L461 377Z" />
<glyph unicode="&#xa5;" horiz-adv-x="646" d="M116 -6Q103 -6 98 -2T93 10Q95 19 105 24T129 31Q169 39 190 58T220 110L243 184H133Q127 184 121 189T116 201Q117 209 127 221T150 233L258 232L263 248Q265 255 267 261T270 274H165Q158 274 153 279T148 291Q149
300 159 311T182 323H270Q269 330 268 336T264 349L204 555Q197 577 186 594T147 618Q139 621 133 625T130 640Q132 647 139 650T155 654Q197 654 230 651T307 648Q335 648 364 651T426 654Q435 654 442 651T448 640Q446 632 435 627T414 619Q371 609 358 593T351
546L386 371Q390 355 393 350T401 345Q405 345 410 350T425 366Q447 391 470 420T518 479T565 538Q592 570 590 592T549 618Q539 620 531 625T525 640Q527 647 537 650T558 653Q587 653 610 651T660 649Q690 649 715 652T768 656Q779 656 786 653T792 640Q789 631
780 628T759 620Q738 616 718 605T681 580T651 551Q605 499 560 449T472 352Q466 344 460 337T448 322H544Q552 322 556 316T560 304Q558 297 545 285T516 273H424L411 232L517 231Q524 231 528 225T532 214Q530 206 517 195T489 183H396L374 110Q362 73 371 58T416
31Q428 28 435 24T439 11Q437 4 429 0T408 -5Q387 -5 361 -3T309 0T263 2Q242 2 217 1T165 -3T116 -6Z" />
<glyph unicode="&#xa6;" horiz-adv-x="277" d="M105 -290Q96 -290 90 -282T83 -265V130Q83 144 94 154T120 170T149 180T166 184Q176 184 183 177T191 159V-246Q191 -261 181 -269T155 -282T125 -288T105 -290ZM103 255Q94 255 88 264T81 283V649Q81 664 92 674T118
692T147 702T164 705Q174 705 182 698T190 681V299Q190 285 179 277T153 264T123 257T103 255Z" />
<glyph unicode="&#xa7;" horiz-adv-x="440" d="M40 -148Q10 -148 -9 -139T-29 -116Q-29 -103 -18 -86T8 -55T35 -41Q46 -42 55 -47T75 -61Q85 -69 98 -75T132 -81Q154 -81 171 -70T197 -39T207 5Q207 46 185 83T136 157Q111 193 91 229T70 303Q70 348 87 383T134
447T198 502Q220 540 252 571T322 621T397 640Q419 640 442 635T480 619T495 595Q495 585 482 569T452 539T426 526Q419 526 411 534T392 554Q381 564 369 572T341 581Q321 581 303 571T275 543T264 505Q264 471 287 437T339 366Q364 333 383 297T402 218Q402 158
368 96T282 -20Q245 -58 205 -87T122 -132T40 -148ZM276 63Q276 59 280 59T285 63Q298 86 307 109T317 157Q320 199 305 233T266 301Q251 322 237 343T212 387T198 434Q198 438 195 437T189 434Q172 417 163 394T153 336Q153 305 172 273T215 206Q229 185 243 161T267
113T276 63Z" />
<glyph unicode="&#xa8;" horiz-adv-x="456" d="M414 495Q391 495 377 510T363 549Q363 574 376 594T411 626T457 638Q483 638 497 623T512 584Q512 548 483 522T414 495ZM216 495Q193 495 179 510T165 549Q165 574 178 594T213 626T259 638Q285 638 299 623T314
584Q314 548 285 522T216 495Z" />
<glyph unicode="&#xa9;" horiz-adv-x="681" d="M375 17Q311 17 255 41T157 107T90 206T66 327Q66 392 90 448T156 546T255 613T376 637Q441 637 497 613T595 547T662 448T686 327Q686 263 662 207T595 108T496 41T375 17ZM389 138Q333 138 286 162T209 227T180
322Q180 372 208 414T287 483T405 509Q431 509 458 503T506 487Q512 485 515 482T519 471Q522 449 522 433T523 398Q523 389 518 384T505 378Q499 378 494 382T487 394Q483 405 479 414T466 432Q456 443 441 450T400 458Q350 458 326 421T302 331Q302 288 312 256T343
206T401 187Q436 187 457 201T492 249Q496 258 502 261T514 262Q526 260 526 243Q526 225 523 211T515 177Q512 169 509 169T499 165Q479 155 451 147T389 138ZM375 66Q428 66 475 86T557 143T611 226T631 327Q631 379 612 425T557 507T475 562T376 582Q324 582
278 562T196 507T141 426T121 327Q121 274 140 227T195 143T276 87T375 66Z" />
<glyph unicode="&#xaa;" horiz-adv-x="349" d="M37 159Q30 159 25 164T20 174Q20 182 29 193T51 204H280Q286 204 291 200T296 189Q296 179 283 169T256 159H37ZM128 283Q102 283 84 298T66 332Q66 368 89 386T149 416L222 440Q238 445 243 449T251 467L257 489Q262
506 261 516T242 526Q234 526 225 523T210 514Q204 509 204 500T201 485Q200 481 189 476T164 466T138 458T119 455Q114 455 114 461T118 474Q125 486 135 497T165 522Q181 531 203 541T250 559T296 566Q338 566 355 541T359 473L322 364Q317 352 318 341T331 329Q337
329 342 332T352 338Q355 340 358 340Q360 340 362 338T364 333Q364 326 355 318T341 307Q327 298 311 291T275 283Q257 283 246 288T229 302T218 321H217Q202 308 180 296T128 283ZM184 332Q189 332 194 334T203 338Q206 340 208 343T212 351L231 406Q233 412
230 414T221 414Q199 406 186 395T167 359Q164 350 168 341T184 332Z" />
<glyph unicode="&#xab;" horiz-adv-x="622" d="M284 16Q274 16 266 24T254 36Q232 61 211 81T168 119T123 153T72 186Q60 194 55 197T49 207Q49 214 57 219T72 227Q132 254 182 282T279 340T375 406Q380 410 385 413T399 417Q412 417 409 408T398 388Q358 344
321 313T250 258T186 216Q178 210 178 208T183 200Q201 181 220 158T258 107T293 43Q298 33 294 25T284 16ZM495 16Q485 16 477 24T465 36Q443 61 422 81T379 119T334 153T283 186Q271 194 266 197T260 207Q260 214 268 219T283 227Q343 254 393 282T490 340T586
406Q591 410 596 413T610 417Q623 417 620 408T609 388Q569 344 532 313T461 258T397 216Q389 210 389 208T394 200Q412 181 431 158T469 107T504 43Q509 33 505 25T495 16Z" />
<glyph unicode="&#xac;" horiz-adv-x="600" d="M498 42Q493 42 488 48T483 61V300Q483 316 469 316H53Q46 316 40 321T34 331Q34 339 37 352T47 377T67 388H538Q548 388 551 382T555 368V74Q555 63 544 56T520 45T498 42Z" />
<glyph unicode="&#xad;" horiz-adv-x="321" d="M31 164Q25 163 22 167T19 176Q19 203 34 219T61 237Q116 245 177 252T293 265Q303 266 304 261T306 249Q306 240 300 228T285 206T267 194Q212 187 149 178T31 164Z" />
<glyph unicode="&#xae;" horiz-adv-x="709" d="M390 17Q326 17 270 41T171 107T104 206T80 327Q80 392 104 448T171 546T270 613T391 637Q456 637 512 613T610 547T677 448T701 327Q701 263 677 207T610 108T511 41T390 17ZM390 66Q443 66 490 86T571 143T626
226T646 327Q646 379 626 425T571 507T490 562T391 582Q339 582 293 562T211 507T156 426T136 327Q136 274 155 227T210 143T291 87T390 66ZM517 171Q501 171 483 182T446 213T411 256T382 307Q380 312 376 315T365 318Q361 318 359 316T357 309V228Q357 213 367
207T397 196Q402 195 406 192T410 182Q410 177 407 174T398 170Q381 170 356 171T314 173Q304 173 291 173T265 171T240 170Q236 170 232 174T228 182Q228 188 232 191T241 196Q259 201 266 207T273 228V438Q273 451 271 457T262 467T244 474Q231 475 231 486Q231
494 243 494Q267 493 281 491T314 489Q334 489 348 491T391 494Q451 494 484 475T517 414Q517 380 498 363T455 335Q452 333 452 331T455 326Q471 286 493 260T537 222T572 210Q575 210 578 209T581 202Q581 189 565 180T517 171ZM376 354Q406 354 421 368T437
404Q437 432 423 445T383 458Q367 458 361 453T355 438V369Q355 361 360 358T376 354Z" />
<glyph unicode="&#xaf;" horiz-adv-x="355" d="M139 516Q130 516 127 520T124 533Q124 548 133 562T153 585T174 594H426Q447 594 447 581Q447 570 438 555T417 528T392 516H139Z" />
<glyph unicode="&#xb0;" horiz-adv-x="347" d="M274 381Q231 381 197 402T143 458T124 530Q124 569 143 600T196 651T274 670Q317 670 350 651T402 601T421 530Q421 493 402 459T350 403T274 381ZM273 437Q307 437 331 462T355 525Q355 563 331 587T273 611Q239
611 215 587T190 525Q190 487 214 462T273 437Z" />
<glyph unicode="&#xb1;" horiz-adv-x="598" d="M284 125Q280 125 276 130T271 142V344Q271 356 259 356H50Q43 356 39 360T34 369Q34 379 40 396T62 413H258Q267 413 269 416T271 426V596Q271 606 278 613T295 625T313 630Q320 630 324 624T328 609V426Q328 419
330 416T340 413H543Q552 413 558 409T565 398Q564 385 555 371T531 356H340Q328 356 328 345V153Q328 138 311 132T284 125ZM52 31Q45 31 40 36T34 45Q34 52 37 63T47 83T65 92H542Q552 92 559 87T566 75Q566 61 556 46T530 31H52Z" />
<glyph unicode="&#xb2;" horiz-adv-x="339" d="M343 438Q329 438 293 439T218 441Q199 441 174 441T130 439T107 438Q99 438 99 444Q99 450 106 455L168 507Q242 571 281 611T321 682Q321 698 310 708T279 718Q259 718 240 706T208 680Q204 675 200 671T191 667Q184
667 184 672T185 684Q195 709 218 730T272 763T334 775Q375 775 399 757T423 700Q423 673 403 650T357 603Q347 595 326 581T281 551T239 524T220 512Q219 511 221 510T228 508H323Q341 508 359 520T392 550Q395 554 400 557T412 561Q419 561 420 557T415 543Q399
522 388 502T369 469T359 452Q357 446 352 442T343 438Z" />
<glyph unicode="&#xb3;" horiz-adv-x="302" d="M168 435Q144 435 128 442T114 462Q117 474 125 485T141 497Q149 497 156 492T171 482Q177 476 187 471T203 466Q218 466 234 477T263 509T275 551Q275 568 266 586T238 605Q217 605 207 597T191 589Q185 589 182
592T180 601Q182 607 191 613T211 625T229 635Q275 654 293 668T312 700Q312 713 304 722T275 731Q258 731 243 723T215 706Q209 702 206 699T200 695Q196 695 194 700T192 710Q197 718 214 733T259 762T325 775Q362 775 381 758T400 716Q400 689 373 670T311 641Q309
640 309 639T310 638Q338 638 356 617T374 569Q374 542 355 518T304 475T237 446T168 435Z" />
<glyph unicode="&#xb4;" horiz-adv-x="237" d="M156 470Q144 470 143 480T147 502L220 660Q229 679 237 687T257 695Q267 695 281 687T305 667T316 646Q316 637 310 628T293 607L186 487Q179 480 172 475T156 470Z" />
<glyph unicode="&#xb5;" horiz-adv-x="571" d="M17 -288Q-3 -288 -15 -276T-32 -246T-37 -213Q-37 -185 -31 -150T-14 -76T8 0Q13 13 25 40T44 92Q47 102 55 130T73 197T95 276T115 352T130 409Q134 421 145 427T168 433Q194 433 215 422T248 394T257 366Q255
355 243 332T212 278T174 215T137 156Q133 145 130 137T127 125Q127 110 139 94T174 78Q200 80 225 98T276 144T325 206Q344 257 360 301T396 398Q403 418 412 425T432 433Q449 433 471 424T509 402T525 376Q524 366 512 343T481 289T437 224T386 158Q377 130 394
114T444 98Q463 98 482 107T516 125T534 135Q539 135 541 132T544 123Q541 81 519 50T466 2T405 -15Q385 -15 368 -2T343 33T339 84Q341 93 343 102T351 120L348 121Q344 115 329 94T292 48T249 5T207 -13Q172 -13 156 5T120 49Q117 53 111 61T99 78T88 86Q82 86
77 80T67 59Q64 50 60 32T52 -9T49 -52Q49 -80 58 -108T81 -157Q92 -171 100 -182T109 -203Q109 -212 98 -226T72 -254T42 -278T17 -288Z" />
<glyph unicode="&#xb6;" horiz-adv-x="608" d="M121 -287Q62 -287 26 -258T-11 -183Q-11 -135 9 -102T64 -50T138 -32Q170 -32 190 -47T211 -95Q211 -127 191 -146T141 -166Q128 -166 116 -161T92 -149Q84 -144 76 -140T59 -135Q48 -135 42 -146T35 -172Q35 -198
56 -219T121 -241Q185 -241 229 -203T294 -95L345 64Q348 72 346 78T336 84Q243 84 177 121T85 227T82 388Q103 473 141 525T239 603T378 638T562 647Q591 647 621 646T674 644T705 640Q713 638 715 630T714 612Q710 602 705 593T692 583Q689 583 679 585T653 590T619
595T582 597Q573 597 565 590T553 572L352 -82Q335 -137 307 -184T234 -259T121 -287ZM345 130Q349 130 353 133T360 144L501 583Q501 584 501 584T501 585Q501 590 495 591T484 593Q464 593 447 589T410 567T371 506T325 385Q286 264 286 203Q286 164 301 147T345
130Z" />
<glyph unicode="&#xb7;" horiz-adv-x="255" d="M110 132Q84 132 65 152T46 197Q46 223 59 245T95 282T143 296Q176 296 193 273T210 225Q210 201 197 180T161 145T110 132Z" />
<glyph unicode="&#xb8;" horiz-adv-x="237" d="M-35 -281Q-60 -281 -81 -271T-114 -246T-126 -217Q-126 -180 -96 -180Q-83 -180 -70 -187T-45 -206Q-31 -217 -22 -225T1 -233Q11 -233 16 -227T21 -213Q21 -198 11 -189T-11 -168Q-23 -157 -34 -142T-46 -112Q-46
-95 -27 -71T22 -24T80 17H119Q81 -11 67 -30T53 -63Q53 -73 63 -84T86 -106Q99 -118 108 -130T117 -155Q117 -171 102 -192T64 -234T14 -268T-35 -281Z" />
<glyph unicode="&#xb9;" horiz-adv-x="253" d="M117 438Q113 438 111 440T110 447Q111 453 115 457T125 462Q147 466 154 470T166 491L225 684Q232 705 220 715T194 728Q184 730 186 739Q191 755 207 756Q244 759 278 761T339 775Q341 776 345 778T351 780Q360
780 357 771Q356 765 351 756T340 728L267 491Q263 478 265 474T289 462Q294 460 296 458T296 449Q295 444 292 442T284 439Q273 439 256 439T224 440T199 441Q186 441 161 440T117 438Z" />
<glyph unicode="&#xba;" horiz-adv-x="381" d="M47 159Q40 159 35 164T30 175Q30 182 39 193T61 204H298Q304 204 309 200T314 189Q314 179 301 169T275 159H47ZM207 289Q140 289 109 329T93 431Q104 473 134 504T208 554T304 572Q370 572 400 533T416 434Q408
394 382 361T312 309T207 289ZM226 325Q241 325 253 335T274 361T291 395T302 432Q310 458 311 481T306 519T284 535Q269 535 257 525T234 499T217 464T206 429Q199 402 199 379T205 340T226 325Z" />
<glyph unicode="&#xbb;" horiz-adv-x="636" d="M349 417Q359 417 367 409T379 397Q401 372 422 352T465 314T510 280T560 247Q573 239 578 235T584 225Q584 219 576 214T561 206Q501 179 451 151T355 93T257 27Q252 23 247 20T234 16Q221 16 224 25T235 45Q275
89 312 120T383 175T446 217Q455 223 455 225T450 233Q432 253 413 275T376 326T340 390Q336 400 340 408T349 417ZM138 417Q148 417 156 409T168 397Q190 372 211 352T254 314T299 280T349 247Q362 239 367 235T373 225Q373 219 365 214T350 206Q290 179 240 151T144
93T46 27Q41 23 36 20T23 16Q10 16 13 25T24 45Q64 89 101 120T172 175T235 217Q244 223 244 225T239 233Q221 253 202 275T165 326T129 390Q125 400 129 408T138 417Z" />
<glyph unicode="&#xbc;" horiz-adv-x="684" d="M68 278Q64 278 62 280T61 287Q62 293 66 297T76 302Q98 306 105 310T117 331L176 524Q183 545 171 555T145 568Q135 570 137 579Q142 595 158 596Q195 599 229 601T290 615Q292 616 296 618T302 620Q311 620 308
611Q307 605 302 596T291 568L218 331Q214 318 216 314T240 302Q245 300 247 298T247 289Q246 284 243 282T235 279Q224 279 207 279T175 280T150 281Q137 281 112 280T68 278ZM68 -21Q54 -21 49 -10T52 11L660 653Q668 662 681 665T708 669Q723 669 728 660T726
643L120 4Q107 -9 95 -15T68 -21ZM475 -9Q463 -9 466 -1L491 79Q494 90 483 90Q446 90 409 89T331 88Q327 88 327 92T331 101Q376 142 429 186T532 270Q546 281 575 300T629 339Q637 345 643 349T654 353Q657 353 657 350T657 344L592 138Q590 134 597 134Q615
134 626 134T642 135Q647 135 647 128Q646 120 635 106T620 92Q613 92 604 92T587 93Q578 93 575 85L559 29Q557 23 546 17T519 4T492 -5T475 -9ZM419 135H503Q507 135 509 139L539 230Q539 231 538 231T535 230Q521 219 498 202T453 167T419 139Q416 135 419 135Z"
/>
<glyph unicode="&#xbd;" horiz-adv-x="720" d="M68 278Q64 278 62 280T61 287Q62 293 66 297T76 302Q98 306 105 310T117 331L176 524Q183 545 171 555T145 568Q135 570 137 579Q142 595 158 596Q195 599 229 601T290 615Q292 616 296 618T302 620Q311 620 308
611Q307 605 302 596T291 568L218 331Q214 318 216 314T240 302Q245 300 247 298T247 289Q246 284 243 282T235 279Q224 279 207 279T175 280T150 281Q137 281 112 280T68 278ZM65 -21Q51 -21 46 -10T49 11L657 653Q665 662 678 665T705 669Q720 669 725 660T723
643L117 4Q104 -9 92 -15T65 -21ZM584 -16Q570 -16 534 -15T459 -13Q440 -13 415 -13T371 -15T348 -16Q340 -16 340 -10Q340 -4 347 1L409 53Q483 117 522 157T562 228Q562 244 551 254T520 264Q500 264 481 252T449 226Q445 221 441 217T432 213Q425 213 425 218T426
230Q436 255 459 276T513 309T575 321Q616 321 640 303T664 246Q664 219 644 196T598 149Q588 141 567 127T522 97T480 70T461 58Q460 57 462 56T469 54H564Q582 54 600 66T633 96Q636 100 641 103T653 107Q660 107 661 103T656 89Q640 68 629 48T610 15T600 -2Q598
-8 593 -12T584 -16Z" />
<glyph unicode="&#xbe;" horiz-adv-x="699" d="M118 275Q94 275 78 282T64 302Q67 314 75 325T91 337Q99 337 106 332T121 322Q127 316 137 311T153 306Q168 306 184 317T213 349T225 391Q225 408 216 426T188 445Q167 445 157 437T141 429Q135 429 132 432T130
441Q132 447 141 453T161 465T179 475Q225 494 243 508T262 540Q262 553 254 562T225 571Q208 571 193 563T165 546Q159 542 156 539T150 535Q146 535 144 540T142 550Q147 558 164 573T209 602T275 615Q312 615 331 598T350 556Q350 529 323 510T261 481Q259 480
259 479T260 478Q288 478 306 457T324 409Q324 382 305 358T254 315T187 286T118 275ZM88 -21Q74 -21 69 -10T72 11L680 653Q688 662 701 665T728 669Q743 669 748 660T746 643L140 4Q127 -9 115 -15T88 -21ZM490 -9Q478 -9 481 -1L506 79Q509 90 498 90Q461 90
424 89T346 88Q342 88 342 92T346 101Q391 142 444 186T547 270Q561 281 590 300T644 339Q652 345 658 349T669 353Q672 353 672 350T672 344L607 138Q605 134 612 134Q630 134 641 134T657 135Q662 135 662 128Q661 120 650 106T635 92Q628 92 619 92T602 93Q593
93 590 85L574 29Q572 23 561 17T534 4T507 -5T490 -9ZM434 135H518Q522 135 524 139L554 230Q554 231 553 231T550 230Q536 219 513 202T468 167T434 139Q431 135 434 135Z" />
<glyph unicode="&#xbf;" horiz-adv-x="388" d="M244 306Q251 306 264 294T288 262T299 221Q299 188 289 160T245 106T144 58Q92 42 62 19T31 -39Q31 -66 48 -83T105 -100Q119 -100 132 -93T157 -81Q165 -77 176 -72T196 -67Q213 -67 224 -78T235 -108Q235 -140
208 -159T143 -178Q103 -178 68 -155T12 -89T-10 11Q-10 39 3 66T40 114T93 148L186 187Q214 198 223 209T232 239Q232 247 232 254T229 269Q227 277 225 283T222 295Q222 303 229 304T244 306ZM278 497Q301 497 317 480T333 440Q333 406 308 380T249 354Q220 354
205 374T190 415Q190 448 216 472T278 497Z" />
<glyph unicode="&#xc0;" horiz-adv-x="747" d="M-43 -5Q-55 -5 -61 -2T-66 11Q-64 21 -57 26T-37 33Q-18 38 7 46T55 68T95 100Q161 174 224 247T350 393T476 539Q494 559 505 578T525 611T539 624Q564 624 587 629T627 645Q644 655 657 664T680 673Q689 673 691
655T688 613L589 114Q582 80 596 62T647 32Q659 29 666 26T674 12Q674 5 663 1T643 -3Q623 -3 596 -2T541 1T491 2Q471 2 444 1T390 -1T342 -2Q321 -2 323 12Q323 21 331 26T350 34Q375 39 391 46T417 66T433 100L463 221Q465 230 461 235T447 240H295Q286 240
279 235T266 222L197 133Q173 103 168 83T175 52T213 34Q222 32 230 27T238 12Q237 5 228 2T206 -2Q177 -2 149 -1T91 1Q61 1 24 -2T-43 -5ZM341 285H461Q469 285 473 288T479 299L527 518Q529 525 529 530T525 536Q524 536 520 534T512 528L329 304Q320 294 321
290T341 285ZM691 694Q688 694 681 694T664 699Q624 720 579 743T494 789Q477 799 475 810Q473 818 487 826T518 842T542 851Q563 856 577 842Q607 812 633 781T689 723Q701 712 701 703Q701 694 691 694Z" />
<glyph unicode="&#xc1;" horiz-adv-x="747" d="M-43 -5Q-55 -5 -61 -2T-66 11Q-64 21 -57 26T-37 33Q-18 38 7 46T55 68T95 100Q161 174 224 247T350 393T476 539Q494 559 505 578T525 611T539 624Q564 624 587 629T627 645Q644 655 657 664T680 673Q689 673 691
655T688 613L589 114Q582 80 596 62T647 32Q659 29 666 26T674 12Q674 5 663 1T643 -3Q623 -3 596 -2T541 1T491 2Q471 2 444 1T390 -1T342 -2Q321 -2 323 12Q323 21 331 26T350 34Q375 39 391 46T417 66T433 100L463 221Q465 230 461 235T447 240H295Q286 240
279 235T266 222L197 133Q173 103 168 83T175 52T213 34Q222 32 230 27T238 12Q237 5 228 2T206 -2Q177 -2 149 -1T91 1Q61 1 24 -2T-43 -5ZM341 285H461Q469 285 473 288T479 299L527 518Q529 525 529 530T525 536Q524 536 520 534T512 528L329 304Q320 294 321
290T341 285ZM606 684Q595 684 594 692Q593 699 602 713Q624 749 647 782T696 848Q708 862 729 862Q737 862 755 858T789 847T803 831Q802 820 786 808Q750 780 709 750T631 694Q622 688 616 686T606 684Z" />
<glyph unicode="&#xc2;" horiz-adv-x="747" d="M-43 -5Q-55 -5 -61 -2T-66 11Q-64 21 -57 26T-37 33Q-18 38 7 46T55 68T95 100Q161 174 224 247T350 393T476 539Q494 559 505 578T525 611T539 624Q564 624 587 629T627 645Q644 655 657 664T680 673Q689 673 691
655T688 613L589 114Q582 80 596 62T647 32Q659 29 666 26T674 12Q674 5 663 1T643 -3Q623 -3 596 -2T541 1T491 2Q471 2 444 1T390 -1T342 -2Q321 -2 323 12Q323 21 331 26T350 34Q375 39 391 46T417 66T433 100L463 221Q465 230 461 235T447 240H295Q286 240
279 235T266 222L197 133Q173 103 168 83T175 52T213 34Q222 32 230 27T238 12Q237 5 228 2T206 -2Q177 -2 149 -1T91 1Q61 1 24 -2T-43 -5ZM341 285H461Q469 285 473 288T479 299L527 518Q529 525 529 530T525 536Q524 536 520 534T512 528L329 304Q320 294 321
290T341 285ZM506 693Q486 693 490 705Q492 713 503 720L634 814Q656 830 667 836T692 843Q706 843 714 836T735 814L812 721Q816 717 816 713T815 705Q813 692 795 692Q787 692 766 701T722 722T684 742Q672 749 658 742Q645 736 624 728T579 711T536 698T506
693Z" />
<glyph unicode="&#xc3;" horiz-adv-x="747" d="M-43 -5Q-55 -5 -61 -2T-66 11Q-64 21 -57 26T-37 33Q-18 38 7 46T55 68T95 100Q161 174 224 247T350 393T476 539Q494 559 505 578T525 611T539 624Q564 624 587 629T627 645Q644 655 657 664T680 673Q689 673 691
655T688 613L589 114Q582 80 596 62T647 32Q659 29 666 26T674 12Q674 5 663 1T643 -3Q623 -3 596 -2T541 1T491 2Q471 2 444 1T390 -1T342 -2Q321 -2 323 12Q323 21 331 26T350 34Q375 39 391 46T417 66T433 100L463 221Q465 230 461 235T447 240H295Q286 240
279 235T266 222L197 133Q173 103 168 83T175 52T213 34Q222 32 230 27T238 12Q237 5 228 2T206 -2Q177 -2 149 -1T91 1Q61 1 24 -2T-43 -5ZM341 285H461Q469 285 473 288T479 299L527 518Q529 525 529 530T525 536Q524 536 520 534T512 528L329 304Q320 294 321
290T341 285ZM524 691Q519 691 512 697T505 707Q505 713 514 729T536 763T563 794T583 808Q602 808 623 807T666 804Q685 803 706 802T750 801Q761 801 769 807T785 820Q793 828 797 835T805 842Q811 842 819 836T828 823Q828 820 824 813T810 795Q799 779 789
764T770 735Q764 726 755 724T739 721Q731 721 708 722T658 726T606 730T572 732Q564 732 556 726T542 713Q536 705 531 698T524 691Z" />
<glyph unicode="&#xc4;" horiz-adv-x="747" d="M-43 -5Q-55 -5 -61 -2T-66 11Q-64 21 -57 26T-37 33Q-18 38 7 46T55 68T95 100Q161 174 224 247T350 393T476 539Q494 559 505 578T525 611T539 624Q564 624 587 629T627 645Q644 655 657 664T680 673Q689 673 691
655T688 613L589 114Q582 80 596 62T647 32Q659 29 666 26T674 12Q674 5 663 1T643 -3Q623 -3 596 -2T541 1T491 2Q471 2 444 1T390 -1T342 -2Q321 -2 323 12Q323 21 331 26T350 34Q375 39 391 46T417 66T433 100L463 221Q465 230 461 235T447 240H295Q286 240
279 235T266 222L197 133Q173 103 168 83T175 52T213 34Q222 32 230 27T238 12Q237 5 228 2T206 -2Q177 -2 149 -1T91 1Q61 1 24 -2T-43 -5ZM341 285H461Q469 285 473 288T479 299L527 518Q529 525 529 530T525 536Q524 536 520 534T512 528L329 304Q320 294 321
290T341 285ZM753 689Q728 689 711 706T693 744Q693 780 720 806T787 832Q813 832 829 814T845 770Q845 749 832 730T798 700T753 689ZM554 689Q528 689 512 706T495 745Q495 780 521 806T588 832Q613 832 629 814T646 770Q646 738 619 714T554 689Z" />
<glyph unicode="&#xc5;" horiz-adv-x="747" d="M-43 -5Q-55 -5 -61 -2T-66 11Q-64 21 -57 26T-37 33Q-18 38 7 46T55 68T95 100Q161 174 224 247T350 393T476 539Q494 559 505 578T525 611T539 624Q564 624 587 629T627 645Q644 655 657 664T680 673Q689 673 691
655T688 613L589 114Q582 80 596 62T647 32Q659 29 666 26T674 12Q674 5 663 1T643 -3Q623 -3 596 -2T541 1T491 2Q471 2 444 1T390 -1T342 -2Q321 -2 323 12Q323 21 331 26T350 34Q375 39 391 46T417 66T433 100L463 221Q465 230 461 235T447 240H295Q286 240
279 235T266 222L197 133Q173 103 168 83T175 52T213 34Q222 32 230 27T238 12Q237 5 228 2T206 -2Q177 -2 149 -1T91 1Q61 1 24 -2T-43 -5ZM341 285H461Q469 285 473 288T479 299L527 518Q529 525 529 530T525 536Q524 536 520 534T512 528L329 304Q320 294 321
290T341 285ZM645 696Q610 696 581 712T551 759Q551 807 589 836T682 865Q705 865 727 858T763 835T778 800Q778 751 740 724T645 696ZM658 727Q685 727 699 748T714 794Q714 810 702 820T672 830Q644 830 628 809T612 764Q612 748 625 738T658 727Z" />
<glyph unicode="&#xc6;" horiz-adv-x="893" d="M-45 -5Q-56 -5 -62 -2T-66 11Q-63 20 -55 25T-35 33Q-5 42 24 61T75 103L517 598Q522 603 521 607T512 612L462 621Q442 625 442 639Q442 646 450 650T470 654Q491 654 523 653T587 651T642 650Q673 650 708 650T778
649Q830 649 863 652T917 659T949 663Q957 663 963 659T968 643Q965 614 959 577T946 513Q943 503 937 499T926 494Q921 494 917 497T912 509Q911 535 908 552T899 582Q892 594 876 604T834 614H749Q724 614 711 599T691 563Q683 536 673 503T654 436T637 376Q633
362 637 356T653 349Q676 349 697 349T740 350Q764 350 780 366T811 404Q819 413 825 418T837 425Q842 427 845 423T846 409Q839 391 834 374T822 339Q814 315 809 293T797 244Q793 230 789 224T779 218Q771 218 767 225T762 242Q764 272 756 289T730 307Q706 307
683 307T636 307Q625 307 618 301T606 281Q594 240 580 191T553 98Q545 70 553 56T588 42H676Q698 42 719 48T757 66Q778 80 795 100T829 144Q835 151 840 153T851 156Q857 156 860 152T861 141Q855 122 843 98T817 50T792 9Q788 2 781 -1T765 -4Q754 -4 719 -4T636
-2T537 -1T443 0Q423 0 399 -1T350 -3T305 -5Q295 -5 291 -1T289 10Q293 25 317 31Q353 40 371 52T399 96Q410 132 422 172T445 246Q447 253 446 258T434 264H302Q294 264 287 261T271 246Q254 226 235 201T197 152T165 110Q148 85 148 70T161 47T198 33Q208 31
212 26T215 12Q213 5 207 2T189 -2Q159 -2 130 -1T72 1Q43 1 15 -2T-45 -5ZM347 310H450Q460 310 464 314T469 323L530 537Q531 541 531 544T527 548Q523 548 518 541L338 327Q328 316 332 313T347 310Z" />
<glyph unicode="&#xc7;" horiz-adv-x="665" d="M317 -14Q264 -14 218 6T136 61T81 145T61 251Q61 341 96 416T192 546T334 633T508 664Q542 664 569 658T617 644Q636 638 647 635T671 631Q678 631 683 632T696 637Q704 642 711 644T725 647Q735 647 737 641T733
625Q720 608 705 578T678 516T658 458Q656 449 651 443T635 436Q626 436 622 449T619 483Q621 505 616 528T597 570Q581 596 557 612T506 628Q455 628 410 601T329 529T268 426T228 307T214 186Q214 145 224 115T252 64T296 35T354 25Q395 25 431 42T501 92T566
166Q574 177 579 184T592 192Q599 192 604 185T606 166Q600 144 590 114T566 56T542 10T524 -9Q515 -9 510 -6T499 2Q493 6 485 8T463 11Q452 11 439 8T409 -1Q391 -5 368 -9T317 -14ZM242 -281Q217 -281 196 -271T163 -246T151 -217Q151 -180 181 -180Q194 -180
207 -187T232 -206Q246 -217 255 -225T278 -233Q288 -233 293 -227T298 -213Q298 -198 288 -189T266 -168Q254 -157 243 -142T231 -112Q231 -95 250 -71T299 -24T357 17H396Q358 -11 344 -30T330 -63Q330 -73 340 -84T363 -106Q376 -118 385 -130T394 -155Q394
-171 379 -192T341 -234T291 -268T242 -281Z" />
<glyph unicode="&#xc8;" horiz-adv-x="573" d="M-38 -5Q-48 -5 -51 -1T-54 10Q-51 25 -26 31Q12 41 30 52T58 96L198 551Q209 585 200 598T156 619Q144 622 140 627T137 640Q139 646 149 650T179 655Q192 655 213 654T259 651T304 649L469 650Q514 650 541 653T584
659T604 662Q611 662 616 657T622 642Q622 630 616 608T603 561T595 514Q595 504 590 499T579 494Q575 494 571 498T564 512Q559 568 546 591T494 615H416Q391 615 376 601T347 543L299 379Q295 365 299 360T317 354H408Q434 355 452 370T486 412Q491 421 499 426T514
432Q520 432 522 426T519 408Q510 387 502 368T489 329Q483 310 478 291T468 248Q464 235 460 228T450 221Q443 221 438 229T434 246Q435 278 428 295T402 313H302Q290 313 282 308T270 289L219 114Q208 74 219 55T270 36H357Q378 36 398 43T437 62Q457 75 475
101T511 155Q516 162 519 165T529 168Q535 168 537 163T539 145Q539 135 531 110T511 56T485 9Q480 2 473 -1T456 -4Q445 -4 417 -4T349 -3T267 -2T180 -1T102 0Q81 0 56 -1T7 -3T-38 -5ZM451 694Q448 694 441 694T424 699Q384 720 339 743T254 789Q237 799 235
810Q233 818 247 826T278 842T302 851Q323 856 337 842Q367 812 393 781T449 723Q461 712 461 703Q461 694 451 694Z" />
<glyph unicode="&#xc9;" horiz-adv-x="573" d="M-38 -5Q-48 -5 -51 -1T-54 10Q-51 25 -26 31Q12 41 30 52T58 96L198 551Q209 585 200 598T156 619Q144 622 140 627T137 640Q139 646 149 650T179 655Q192 655 213 654T259 651T304 649L469 650Q514 650 541 653T584
659T604 662Q611 662 616 657T622 642Q622 630 616 608T603 561T595 514Q595 504 590 499T579 494Q575 494 571 498T564 512Q559 568 546 591T494 615H416Q391 615 376 601T347 543L299 379Q295 365 299 360T317 354H408Q434 355 452 370T486 412Q491 421 499 426T514
432Q520 432 522 426T519 408Q510 387 502 368T489 329Q483 310 478 291T468 248Q464 235 460 228T450 221Q443 221 438 229T434 246Q435 278 428 295T402 313H302Q290 313 282 308T270 289L219 114Q208 74 219 55T270 36H357Q378 36 398 43T437 62Q457 75 475
101T511 155Q516 162 519 165T529 168Q535 168 537 163T539 145Q539 135 531 110T511 56T485 9Q480 2 473 -1T456 -4Q445 -4 417 -4T349 -3T267 -2T180 -1T102 0Q81 0 56 -1T7 -3T-38 -5ZM366 684Q355 684 354 692Q353 699 362 713Q384 749 407 782T456 848Q468
862 489 862Q497 862 515 858T549 847T563 831Q562 820 546 808Q510 780 469 750T391 694Q382 688 376 686T366 684Z" />
<glyph unicode="&#xca;" horiz-adv-x="573" d="M-38 -5Q-48 -5 -51 -1T-54 10Q-51 25 -26 31Q12 41 30 52T58 96L198 551Q209 585 200 598T156 619Q144 622 140 627T137 640Q139 646 149 650T179 655Q192 655 213 654T259 651T304 649L469 650Q514 650 541 653T584
659T604 662Q611 662 616 657T622 642Q622 630 616 608T603 561T595 514Q595 504 590 499T579 494Q575 494 571 498T564 512Q559 568 546 591T494 615H416Q391 615 376 601T347 543L299 379Q295 365 299 360T317 354H408Q434 355 452 370T486 412Q491 421 499 426T514
432Q520 432 522 426T519 408Q510 387 502 368T489 329Q483 310 478 291T468 248Q464 235 460 228T450 221Q443 221 438 229T434 246Q435 278 428 295T402 313H302Q290 313 282 308T270 289L219 114Q208 74 219 55T270 36H357Q378 36 398 43T437 62Q457 75 475
101T511 155Q516 162 519 165T529 168Q535 168 537 163T539 145Q539 135 531 110T511 56T485 9Q480 2 473 -1T456 -4Q445 -4 417 -4T349 -3T267 -2T180 -1T102 0Q81 0 56 -1T7 -3T-38 -5ZM265 693Q245 693 249 705Q251 713 262 720L393 814Q415 830 426 836T451
843Q465 843 473 836T494 814L571 721Q575 717 575 713T574 705Q572 692 554 692Q546 692 525 701T481 722T443 742Q431 749 417 742Q404 736 383 728T338 711T295 698T265 693Z" />
<glyph unicode="&#xcb;" horiz-adv-x="573" d="M-38 -5Q-48 -5 -51 -1T-54 10Q-51 25 -26 31Q12 41 30 52T58 96L198 551Q209 585 200 598T156 619Q144 622 140 627T137 640Q139 646 149 650T179 655Q192 655 213 654T259 651T304 649L469 650Q514 650 541 653T584
659T604 662Q611 662 616 657T622 642Q622 630 616 608T603 561T595 514Q595 504 590 499T579 494Q575 494 571 498T564 512Q559 568 546 591T494 615H416Q391 615 376 601T347 543L299 379Q295 365 299 360T317 354H408Q434 355 452 370T486 412Q491 421 499 426T514
432Q520 432 522 426T519 408Q510 387 502 368T489 329Q483 310 478 291T468 248Q464 235 460 228T450 221Q443 221 438 229T434 246Q435 278 428 295T402 313H302Q290 313 282 308T270 289L219 114Q208 74 219 55T270 36H357Q378 36 398 43T437 62Q457 75 475
101T511 155Q516 162 519 165T529 168Q535 168 537 163T539 145Q539 135 531 110T511 56T485 9Q480 2 473 -1T456 -4Q445 -4 417 -4T349 -3T267 -2T180 -1T102 0Q81 0 56 -1T7 -3T-38 -5ZM513 689Q488 689 471 706T453 744Q453 780 480 806T547 832Q573 832 589
814T605 770Q605 749 592 730T558 700T513 689ZM314 689Q288 689 272 706T255 745Q255 780 281 806T348 832Q373 832 389 814T406 770Q406 738 379 714T314 689Z" />
<glyph unicode="&#xcc;" horiz-adv-x="378" d="M-26 -3Q-33 -3 -38 0T-41 11Q-36 27 -14 32Q27 41 45 53T73 97L214 551Q224 583 215 596T169 619Q160 621 156 626T155 640Q156 647 164 651T179 655Q201 655 226 654T275 652T320 650Q340 650 365 651T418 653T467
654Q484 654 480 640Q478 630 471 626T452 619Q423 611 407 603T381 583T366 550L238 134Q227 97 225 78T233 51T266 36Q287 31 293 26T297 12Q296 5 290 1T275 -3Q253 -3 225 -2T168 1T120 2Q89 2 49 0T-26 -3ZM375 694Q372 694 365 694T348 699Q308 720 263 743T178
789Q161 799 159 810Q157 818 171 826T202 842T226 851Q247 856 261 842Q291 812 317 781T373 723Q385 712 385 703Q385 694 375 694Z" />
<glyph unicode="&#xcd;" horiz-adv-x="378" d="M-26 -3Q-33 -3 -38 0T-41 11Q-36 27 -14 32Q27 41 45 53T73 97L214 551Q224 583 215 596T169 619Q160 621 156 626T155 640Q156 647 164 651T179 655Q201 655 226 654T275 652T320 650Q340 650 365 651T418 653T467
654Q484 654 480 640Q478 630 471 626T452 619Q423 611 407 603T381 583T366 550L238 134Q227 97 225 78T233 51T266 36Q287 31 293 26T297 12Q296 5 290 1T275 -3Q253 -3 225 -2T168 1T120 2Q89 2 49 0T-26 -3ZM290 684Q279 684 278 692Q277 699 286 713Q308 749
331 782T380 848Q392 862 413 862Q421 862 439 858T473 847T487 831Q486 820 470 808Q434 780 393 750T315 694Q306 688 300 686T290 684Z" />
<glyph unicode="&#xce;" horiz-adv-x="378" d="M-26 -3Q-33 -3 -38 0T-41 11Q-36 27 -14 32Q27 41 45 53T73 97L214 551Q224 583 215 596T169 619Q160 621 156 626T155 640Q156 647 164 651T179 655Q201 655 226 654T275 652T320 650Q340 650 365 651T418 653T467
654Q484 654 480 640Q478 630 471 626T452 619Q423 611 407 603T381 583T366 550L238 134Q227 97 225 78T233 51T266 36Q287 31 293 26T297 12Q296 5 290 1T275 -3Q253 -3 225 -2T168 1T120 2Q89 2 49 0T-26 -3ZM189 693Q169 693 173 705Q175 713 186 720L317 814Q339
830 350 836T375 843Q389 843 397 836T418 814L495 721Q499 717 499 713T498 705Q496 692 478 692Q470 692 449 701T405 722T367 742Q355 749 341 742Q328 736 307 728T262 711T219 698T189 693Z" />
<glyph unicode="&#xcf;" horiz-adv-x="378" d="M-26 -3Q-33 -3 -38 0T-41 11Q-36 27 -14 32Q27 41 45 53T73 97L214 551Q224 583 215 596T169 619Q160 621 156 626T155 640Q156 647 164 651T179 655Q201 655 226 654T275 652T320 650Q340 650 365 651T418 653T467
654Q484 654 480 640Q478 630 471 626T452 619Q423 611 407 603T381 583T366 550L238 134Q227 97 225 78T233 51T266 36Q287 31 293 26T297 12Q296 5 290 1T275 -3Q253 -3 225 -2T168 1T120 2Q89 2 49 0T-26 -3ZM437 689Q412 689 395 706T377 744Q377 780 404 806T471
832Q497 832 513 814T529 770Q529 749 516 730T482 700T437 689ZM238 689Q212 689 196 706T179 745Q179 780 205 806T272 832Q297 832 313 814T330 770Q330 738 303 714T238 689Z" />
<glyph unicode="&#xd0;" horiz-adv-x="733" d="M66 306Q54 306 53 316T53 335Q57 348 67 356T89 364H397Q406 364 411 358T413 346Q403 328 388 317T360 306H66ZM306 -7Q271 -7 232 -4T160 1T109 3Q90 3 65 2T13 -1T-36 -3Q-43 -3 -47 0T-51 11Q-46 28 -23 32Q5
37 21 44T47 64T63 97L206 553Q212 576 208 588T190 606T152 619Q143 621 140 626T138 640Q140 647 147 651T162 655Q197 655 237 653T308 650Q328 650 348 651T392 653T450 654Q544 654 609 618T708 521T743 384Q743 305 709 235T615 111T476 25T306 -7ZM306 30Q360
30 410 62T499 147T561 267T584 401Q584 479 566 526T514 595T435 616Q412 616 398 612T375 598T362 572L227 123Q216 88 226 68T259 39T306 30Z" />
<glyph unicode="&#xd1;" horiz-adv-x="781" d="M5 -3Q-2 -3 -8 0T-14 11Q-11 20 -3 24T17 31Q50 40 70 59T102 111L251 513Q264 549 260 571T235 606T173 621Q159 623 152 628T144 642Q144 649 155 653T176 658Q198 658 230 657T298 655T361 653Q374 653 382 648T395
632L593 191Q595 187 598 183T605 178Q612 178 617 193Q620 200 625 217T639 259T655 314T672 376T688 439T702 500Q715 562 697 586T624 621Q605 624 606 637Q607 643 616 647T633 651Q672 651 701 648T747 645Q767 645 784 647T822 650T869 652Q889 652 889 638Q889
631 878 627T854 620Q830 615 814 607T785 577T758 514Q753 497 745 471T727 414T707 349T685 279T664 211T645 150Q636 122 637 106T651 68Q656 60 662 51T675 34Q683 27 688 24T694 14Q694 5 689 3T675 0Q648 0 630 -2T597 -5T564 -7Q536 -8 522 5T497 46Q489
66 473 105T436 192T395 291T355 384T325 457T308 491Q307 495 304 499T298 504Q293 504 289 497T283 482Q270 449 253 402T218 301T186 198T162 110Q154 74 166 58T221 32Q230 30 237 26T242 12Q241 5 232 1T213 -3Q186 -3 171 -2T144 0T116 1Q94 1 70 0T28 -2T5
-3ZM411 691Q406 691 399 697T392 707Q392 713 401 729T423 763T450 794T470 808Q489 808 510 807T553 804Q572 803 593 802T637 801Q648 801 656 807T672 820Q680 828 684 835T692 842Q698 842 706 836T715 823Q715 820 711 813T697 795Q686 779 676 764T657 735Q651
726 642 724T626 721Q618 721 595 722T545 726T493 730T459 732Q451 732 443 726T429 713Q423 705 418 698T411 691Z" />
<glyph unicode="&#xd2;" horiz-adv-x="692" d="M294 -14Q225 -14 172 18T88 109T57 242Q57 323 88 398T176 534T307 629T470 664Q539 664 592 632T676 541T707 408Q707 328 676 252T588 116T456 21T294 -14ZM294 24Q337 24 377 53T452 132T513 240T553 359T568
468Q568 511 558 548T525 607T468 630Q425 630 385 600T311 521T251 411T211 291T196 181Q196 139 206 103T237 46T294 24ZM546 694Q543 694 536 694T519 699Q479 720 434 743T349 789Q332 799 330 810Q328 818 342 826T373 842T397 851Q418 856 432 842Q462 812
488 781T544 723Q556 712 556 703Q556 694 546 694Z" />
<glyph unicode="&#xd3;" horiz-adv-x="692" d="M294 -14Q225 -14 172 18T88 109T57 242Q57 323 88 398T176 534T307 629T470 664Q539 664 592 632T676 541T707 408Q707 328 676 252T588 116T456 21T294 -14ZM294 24Q337 24 377 53T452 132T513 240T553 359T568
468Q568 511 558 548T525 607T468 630Q425 630 385 600T311 521T251 411T211 291T196 181Q196 139 206 103T237 46T294 24ZM461 684Q450 684 449 692Q448 699 457 713Q479 749 502 782T551 848Q563 862 584 862Q592 862 610 858T644 847T658 831Q657 820 641 808Q605
780 564 750T486 694Q477 688 471 686T461 684Z" />
<glyph unicode="&#xd4;" horiz-adv-x="692" d="M294 -14Q225 -14 172 18T88 109T57 242Q57 323 88 398T176 534T307 629T470 664Q539 664 592 632T676 541T707 408Q707 328 676 252T588 116T456 21T294 -14ZM294 24Q337 24 377 53T452 132T513 240T553 359T568
468Q568 511 558 548T525 607T468 630Q425 630 385 600T311 521T251 411T211 291T196 181Q196 139 206 103T237 46T294 24ZM360 693Q340 693 344 705Q346 713 357 720L488 814Q510 830 521 836T546 843Q560 843 568 836T589 814L666 721Q670 717 670 713T669 705Q667
692 649 692Q641 692 620 701T576 722T538 742Q526 749 512 742Q499 736 478 728T433 711T390 698T360 693Z" />
<glyph unicode="&#xd5;" horiz-adv-x="692" d="M294 -14Q225 -14 172 18T88 109T57 242Q57 323 88 398T176 534T307 629T470 664Q539 664 592 632T676 541T707 408Q707 328 676 252T588 116T456 21T294 -14ZM294 24Q337 24 377 53T452 132T513 240T553 359T568
468Q568 511 558 548T525 607T468 630Q425 630 385 600T311 521T251 411T211 291T196 181Q196 139 206 103T237 46T294 24ZM379 691Q374 691 367 697T360 707Q360 713 369 729T391 763T418 794T438 808Q457 808 478 807T521 804Q540 803 561 802T605 801Q616 801
624 807T640 820Q648 828 652 835T660 842Q666 842 674 836T683 823Q683 820 679 813T665 795Q654 779 644 764T625 735Q619 726 610 724T594 721Q586 721 563 722T513 726T461 730T427 732Q419 732 411 726T397 713Q391 705 386 698T379 691Z" />
<glyph unicode="&#xd6;" horiz-adv-x="692" d="M294 -14Q225 -14 172 18T88 109T57 242Q57 323 88 398T176 534T307 629T470 664Q539 664 592 632T676 541T707 408Q707 328 676 252T588 116T456 21T294 -14ZM294 24Q337 24 377 53T452 132T513 240T553 359T568
468Q568 511 558 548T525 607T468 630Q425 630 385 600T311 521T251 411T211 291T196 181Q196 139 206 103T237 46T294 24ZM608 689Q583 689 566 706T548 744Q548 780 575 806T642 832Q668 832 684 814T700 770Q700 749 687 730T653 700T608 689ZM409 689Q383 689
367 706T350 745Q350 780 376 806T443 832Q468 832 484 814T501 770Q501 738 474 714T409 689Z" />
<glyph unicode="&#xd7;" horiz-adv-x="574" d="M464 50Q454 50 446 58L303 200Q295 209 286 200L151 63Q147 59 142 57T132 56Q125 56 117 70T108 99Q108 110 114 116L242 243Q248 249 248 252T242 261L113 392Q107 398 107 406Q107 418 114 430T126 448Q130 452
137 451T148 445L287 305Q292 301 295 301T303 305L445 447Q451 453 458 453Q464 453 467 449Q472 442 479 431T486 408Q486 400 480 393L347 260Q340 252 347 244L483 110Q490 104 490 93Q490 82 482 66T464 50Z" />
<glyph unicode="&#xd8;" horiz-adv-x="696" d="M34 -14Q17 -14 5 -2T-7 23Q-7 44 11 58L120 146L171 182L587 544L624 568L727 652Q735 657 742 660T755 664Q767 664 774 655T782 633Q782 607 765 591L666 509L600 462L185 96L148 71L59 -2Q53 -7 47 -10T34 -14ZM294
-14Q225 -14 172 18T88 109T57 242Q57 323 88 398T176 534T307 629T470 664Q539 664 592 632T676 541T707 408Q707 328 676 252T588 116T456 21T294 -14ZM294 24Q337 24 377 53T452 132T513 240T553 359T568 468Q568 511 558 548T525 607T468 630Q425 630 385 600T311
521T251 411T211 291T196 181Q196 139 206 103T237 46T294 24Z" />
<glyph unicode="&#xd9;" horiz-adv-x="712" d="M315 -14Q251 -14 203 5T127 60T93 145T105 255L192 538Q201 566 196 589T167 618Q141 626 145 640Q146 647 156 651T177 655Q208 655 241 653T304 650Q332 650 371 652T439 654Q465 654 461 639Q457 628 441 623T406
610Q388 604 372 585T344 531L250 237Q233 184 245 144T288 82T361 60Q416 60 460 88T537 162T587 262Q602 305 613 342T633 408T646 450Q661 509 662 542T655 591T630 615Q620 621 607 625T596 639Q597 647 606 650T629 653Q653 653 669 653T699 652T730 651Q749
651 761 652T785 654T817 655Q828 655 834 652T838 640Q834 627 804 619Q780 613 765 603T740 576T718 529Q694 459 674 393T630 256Q604 176 564 115T463 20T315 -14ZM583 694Q580 694 573 694T556 699Q516 720 471 743T386 789Q369 799 367 810Q365 818 379 826T410
842T434 851Q455 856 469 842Q499 812 525 781T581 723Q593 712 593 703Q593 694 583 694Z" />
<glyph unicode="&#xda;" horiz-adv-x="712" d="M315 -14Q251 -14 203 5T127 60T93 145T105 255L192 538Q201 566 196 589T167 618Q141 626 145 640Q146 647 156 651T177 655Q208 655 241 653T304 650Q332 650 371 652T439 654Q465 654 461 639Q457 628 441 623T406
610Q388 604 372 585T344 531L250 237Q233 184 245 144T288 82T361 60Q416 60 460 88T537 162T587 262Q602 305 613 342T633 408T646 450Q661 509 662 542T655 591T630 615Q620 621 607 625T596 639Q597 647 606 650T629 653Q653 653 669 653T699 652T730 651Q749
651 761 652T785 654T817 655Q828 655 834 652T838 640Q834 627 804 619Q780 613 765 603T740 576T718 529Q694 459 674 393T630 256Q604 176 564 115T463 20T315 -14ZM498 684Q487 684 486 692Q485 699 494 713Q516 749 539 782T588 848Q600 862 621 862Q629 862
647 858T681 847T695 831Q694 820 678 808Q642 780 601 750T523 694Q514 688 508 686T498 684Z" />
<glyph unicode="&#xdb;" horiz-adv-x="712" d="M315 -14Q251 -14 203 5T127 60T93 145T105 255L192 538Q201 566 196 589T167 618Q141 626 145 640Q146 647 156 651T177 655Q208 655 241 653T304 650Q332 650 371 652T439 654Q465 654 461 639Q457 628 441 623T406
610Q388 604 372 585T344 531L250 237Q233 184 245 144T288 82T361 60Q416 60 460 88T537 162T587 262Q602 305 613 342T633 408T646 450Q661 509 662 542T655 591T630 615Q620 621 607 625T596 639Q597 647 606 650T629 653Q653 653 669 653T699 652T730 651Q749
651 761 652T785 654T817 655Q828 655 834 652T838 640Q834 627 804 619Q780 613 765 603T740 576T718 529Q694 459 674 393T630 256Q604 176 564 115T463 20T315 -14ZM398 693Q378 693 382 705Q384 713 395 720L526 814Q548 830 559 836T584 843Q598 843 606 836T627
814L704 721Q708 717 708 713T707 705Q705 692 687 692Q679 692 658 701T614 722T576 742Q564 749 550 742Q537 736 516 728T471 711T428 698T398 693Z" />
<glyph unicode="&#xdc;" horiz-adv-x="712" d="M315 -14Q251 -14 203 5T127 60T93 145T105 255L192 538Q201 566 196 589T167 618Q141 626 145 640Q146 647 156 651T177 655Q208 655 241 653T304 650Q332 650 371 652T439 654Q465 654 461 639Q457 628 441 623T406
610Q388 604 372 585T344 531L250 237Q233 184 245 144T288 82T361 60Q416 60 460 88T537 162T587 262Q602 305 613 342T633 408T646 450Q661 509 662 542T655 591T630 615Q620 621 607 625T596 639Q597 647 606 650T629 653Q653 653 669 653T699 652T730 651Q749
651 761 652T785 654T817 655Q828 655 834 652T838 640Q834 627 804 619Q780 613 765 603T740 576T718 529Q694 459 674 393T630 256Q604 176 564 115T463 20T315 -14ZM645 689Q620 689 603 706T585 744Q585 780 612 806T679 832Q705 832 721 814T737 770Q737 749
724 730T690 700T645 689ZM446 689Q420 689 404 706T387 745Q387 780 413 806T480 832Q505 832 521 814T538 770Q538 738 511 714T446 689Z" />
<glyph unicode="&#xdd;" horiz-adv-x="652" d="M120 -6Q107 -6 102 -2T97 10Q99 19 109 24T133 31Q173 39 194 58T224 110L268 250Q277 278 277 300T268 351L208 553Q201 575 190 591T160 614Q142 620 135 625T130 640Q132 647 140 650T156 654Q198 654 232 651T310
648Q338 648 367 651T430 654Q439 654 446 651T452 640Q451 632 440 627T418 619Q372 609 360 594T355 546L397 364Q401 348 404 343T412 338Q416 338 422 343T436 358Q470 398 505 443T575 533Q604 567 603 589T560 618Q550 620 542 625T536 640Q538 647 548 650T569
653Q592 653 614 651T664 649Q694 649 720 652T773 656Q784 656 792 653T797 640Q795 631 786 628T765 621Q744 615 723 605T683 582T652 555Q623 521 594 488T535 421T477 357Q458 337 446 313T423 258L378 110Q366 73 375 58T420 31Q432 28 439 24T443 11Q442
4 433 0T413 -5Q391 -5 365 -3T313 0T267 2Q246 2 221 1T169 -3T120 -6ZM457 684Q446 684 445 692Q444 699 453 713Q475 749 498 782T547 848Q559 862 580 862Q588 862 606 858T640 847T654 831Q653 820 637 808Q601 780 560 750T482 694Q473 688 467 686T457 684Z"
/>
<glyph unicode="&#xde;" horiz-adv-x="615" d="M-26 -3Q-33 -3 -38 0T-41 11Q-36 27 -14 32Q27 41 45 53T73 97L214 551Q224 583 215 596T169 619Q160 621 156 626T155 640Q156 647 164 651T179 655Q201 655 226 654T275 652T320 650Q340 650 365 651T418 653T467
654Q484 654 480 640Q478 630 471 626T452 619Q423 611 407 603T381 583T366 550L358 523L291 547Q311 549 342 551T408 553Q477 553 526 528T601 459T625 357Q623 308 599 267T534 194T439 146T322 128Q298 128 287 133T276 150Q276 157 282 161T298 166Q309 168
318 169T341 171Q380 177 407 198T452 248T478 308T487 364Q487 419 473 451T436 498T388 512Q375 512 366 507T349 484T329 431L226 98Q218 69 228 57T273 32Q282 29 286 25T287 12Q286 5 280 1T265 -3Q243 -3 217 -2T166 1T120 2Q89 2 49 0T-26 -3Z" />
<glyph unicode="&#xdf;" horiz-adv-x="570" d="M-90 -290Q-120 -290 -148 -284T-193 -262T-211 -219Q-211 -194 -195 -176T-159 -157Q-150 -157 -141 -167T-121 -191Q-109 -206 -97 -224T-65 -242Q-39 -242 -25 -213T7 -113Q14 -83 21 -51T37 16T52 83T67 147Q79
200 92 253T120 359Q153 484 215 560T359 671T531 706Q608 706 642 683T677 624Q677 596 662 573T622 530T572 493T523 460Q499 443 477 428T442 394T429 351Q429 337 436 319T454 281T473 244Q487 217 501 190T516 137Q516 113 497 84T448 32Q424 13 393 0T327
-14Q286 -14 259 4T232 51Q232 74 243 92T274 111Q284 111 295 101T315 78Q327 64 339 49T368 34Q384 34 395 45T407 74Q407 95 397 118T371 166Q354 193 340 221T326 276Q326 315 342 345T384 401T438 450Q463 470 485 489T525 529T552 570T562 613Q562 637 547
653T495 670Q453 670 416 650T349 592T296 504T259 394Q246 339 230 273T198 139T170 14Q156 -51 130 -106T69 -202T-8 -267T-90 -290Z" />
<glyph unicode="&#xe0;" horiz-adv-x="541" d="M349 470Q342 470 334 475T319 487L212 607Q202 618 196 627T189 646Q189 656 199 667T224 686T248 695Q259 695 267 687T285 660L358 502Q363 491 362 481T349 470ZM38 -14Q24 -14 10 -7T-14 13T-24 37Q-24 67 -6
103T53 192T164 323Q208 370 246 399T302 428Q329 428 361 402Q368 394 369 394T371 393Q373 393 373 393T377 400Q384 414 387 420T392 432Q398 443 417 443Q432 443 449 436T479 419T491 400Q491 394 489 390L389 118Q380 92 400 92Q411 92 435 109T483 152Q485
154 485 154T488 155Q492 155 495 151T499 139Q499 125 481 101T432 51Q396 21 361 4T302 -14Q287 -14 272 -6T246 15T236 41Q236 47 241 64Q242 69 246 79T255 100T265 124T275 147Q278 153 275 155T268 155Q217 96 176 59T101 4T38 -14ZM143 92Q160 92 197 123T272
203Q305 242 323 272T342 316Q342 325 322 342Q312 349 302 354T285 360Q270 360 243 342T192 300Q171 280 153 250T124 187T113 127Q113 111 121 102T143 92Z" />
<glyph unicode="&#xe1;" horiz-adv-x="541" d="M38 -14Q24 -14 10 -7T-14 13T-24 37Q-24 67 -6 103T53 192T164 323Q208 370 246 399T302 428Q329 428 361 402Q368 394 369 394T371 393Q373 393 373 393T377 400Q384 414 387 420T392 432Q398 443 417 443Q432
443 449 436T479 419T491 400Q491 394 489 390L389 118Q380 92 400 92Q411 92 435 109T483 152Q485 154 485 154T488 155Q492 155 495 151T499 139Q499 125 481 101T432 51Q396 21 361 4T302 -14Q287 -14 272 -6T246 15T236 41Q236 47 241 64Q242 69 246 79T255
100T265 124T275 147Q278 153 275 155T268 155Q217 96 176 59T101 4T38 -14ZM143 92Q160 92 197 123T272 203Q305 242 323 272T342 316Q342 325 322 342Q312 349 302 354T285 360Q270 360 243 342T192 300Q171 280 153 250T124 187T113 127Q113 111 121 102T143
92ZM325 470Q313 470 312 480T316 502L389 660Q398 679 406 687T426 695Q436 695 450 687T474 667T485 646Q485 637 479 628T462 607L355 487Q348 480 341 475T325 470Z" />
<glyph unicode="&#xe2;" horiz-adv-x="541" d="M404 688Q414 688 418 678T429 647Q434 630 438 613T448 578T457 544T463 512Q467 496 463 484T444 471Q429 471 415 503Q409 517 399 536T377 575Q373 581 365 575Q343 554 320 535T282 502Q266 488 254 480T235
471Q224 471 224 484Q224 490 227 497T238 513Q255 534 274 557T314 603T353 647Q369 666 382 677T404 688ZM38 -14Q24 -14 10 -7T-14 13T-24 37Q-24 67 -6 103T53 192T164 323Q208 370 246 399T302 428Q329 428 361 402Q368 394 369 394T371 393Q373 393 373 393T377
400Q384 414 387 420T392 432Q398 443 417 443Q432 443 449 436T479 419T491 400Q491 394 489 390L389 118Q380 92 400 92Q411 92 435 109T483 152Q485 154 485 154T488 155Q492 155 495 151T499 139Q499 125 481 101T432 51Q396 21 361 4T302 -14Q287 -14 272
-6T246 15T236 41Q236 47 241 64Q242 69 246 79T255 100T265 124T275 147Q278 153 275 155T268 155Q217 96 176 59T101 4T38 -14ZM143 92Q160 92 197 123T272 203Q305 242 323 272T342 316Q342 325 322 342Q312 349 302 354T285 360Q270 360 243 342T192 300Q171
280 153 250T124 187T113 127Q113 111 121 102T143 92Z" />
<glyph unicode="&#xe3;" horiz-adv-x="541" d="M38 -14Q24 -14 10 -7T-14 13T-24 37Q-24 67 -6 103T53 192T164 323Q208 370 246 399T302 428Q329 428 361 402Q368 394 369 394T371 393Q373 393 373 393T377 400Q384 414 387 420T392 432Q398 443 417 443Q432
443 449 436T479 419T491 400Q491 394 489 390L389 118Q380 92 400 92Q411 92 435 109T483 152Q485 154 485 154T488 155Q492 155 495 151T499 139Q499 125 481 101T432 51Q396 21 361 4T302 -14Q287 -14 272 -6T246 15T236 41Q236 47 241 64Q242 69 246 79T255
100T265 124T275 147Q278 153 275 155T268 155Q217 96 176 59T101 4T38 -14ZM143 92Q160 92 197 123T272 203Q305 242 323 272T342 316Q342 325 322 342Q312 349 302 354T285 360Q270 360 243 342T192 300Q171 280 153 250T124 187T113 127Q113 111 121 102T143
92ZM222 467Q218 467 209 474T200 486Q200 492 212 509T240 546T272 582T294 597Q305 597 318 594T362 589Q384 588 402 587T430 585Q448 585 465 604Q475 616 479 622T488 629Q493 629 501 622T510 610Q510 606 504 598T490 579Q479 563 468 546T447 514Q441 506
432 503T416 500Q408 500 389 501T346 504T301 507T269 509Q258 509 250 499Q238 483 232 475T222 467Z" />
<glyph unicode="&#xe4;" horiz-adv-x="541" d="M38 -14Q24 -14 10 -7T-14 13T-24 37Q-24 67 -6 103T53 192T164 323Q208 370 246 399T302 428Q329 428 361 402Q368 394 369 394T371 393Q373 393 373 393T377 400Q384 414 387 420T392 432Q398 443 417 443Q432
443 449 436T479 419T491 400Q491 394 489 390L389 118Q380 92 400 92Q411 92 435 109T483 152Q485 154 485 154T488 155Q492 155 495 151T499 139Q499 125 481 101T432 51Q396 21 361 4T302 -14Q287 -14 272 -6T246 15T236 41Q236 47 241 64Q242 69 246 79T255
100T265 124T275 147Q278 153 275 155T268 155Q217 96 176 59T101 4T38 -14ZM143 92Q160 92 197 123T272 203Q305 242 323 272T342 316Q342 325 322 342Q312 349 302 354T285 360Q270 360 243 342T192 300Q171 280 153 250T124 187T113 127Q113 111 121 102T143
92ZM440 495Q417 495 403 510T389 549Q389 574 402 594T437 626T483 638Q509 638 523 623T538 584Q538 548 509 522T440 495ZM242 495Q219 495 205 510T191 549Q191 574 204 594T239 626T285 638Q311 638 325 623T340 584Q340 548 311 522T242 495Z" />
<glyph unicode="&#xe5;" horiz-adv-x="541" d="M38 -14Q24 -14 10 -7T-14 13T-24 37Q-24 67 -6 103T53 192T164 323Q208 370 246 399T302 428Q329 428 361 402Q368 394 369 394T371 393Q373 393 373 393T377 400Q384 414 387 420T392 432Q398 443 417 443Q432
443 449 436T479 419T491 400Q491 394 489 390L389 118Q380 92 400 92Q411 92 435 109T483 152Q485 154 485 154T488 155Q492 155 495 151T499 139Q499 125 481 101T432 51Q396 21 361 4T302 -14Q287 -14 272 -6T246 15T236 41Q236 47 241 64Q242 69 246 79T255
100T265 124T275 147Q278 153 275 155T268 155Q217 96 176 59T101 4T38 -14ZM143 92Q160 92 197 123T272 203Q305 242 323 272T342 316Q342 325 322 342Q312 349 302 354T285 360Q270 360 243 342T192 300Q171 280 153 250T124 187T113 127Q113 111 121 102T143
92ZM340 482Q308 482 283 499T258 547Q258 583 277 612T329 658T398 676Q430 676 455 659T480 612Q480 576 461 547T411 500T340 482ZM355 519Q373 519 387 532T410 565T419 599Q419 616 409 626T383 637Q365 637 351 624T328 593T319 558Q319 542 328 531T355
519Z" />
<glyph unicode="&#xe6;" horiz-adv-x="565" d="M37 -14Q26 -14 12 -8T-12 9T-22 37Q-22 84 6 136T84 240T194 332Q237 361 278 382T358 414T436 426L360 358Q321 358 286 346T210 305Q182 284 160 254T124 192T111 134Q111 110 119 101T138 92Q153 92 178 114T233
175L251 137Q203 83 167 50T100 1T37 -14ZM339 -15Q314 -15 286 2T239 49T219 118Q218 177 236 233T289 335T368 406T466 433Q517 433 541 412T565 359Q565 325 543 299T488 255T419 230T355 226Q347 226 346 216Q345 204 343 194T341 170Q341 135 360 109T409
83Q434 83 455 97T495 137Q505 149 511 149Q520 149 520 137Q520 135 520 131T517 123Q500 87 475 56T416 5T339 -15ZM363 258Q372 258 389 264T426 284T458 317T472 366Q472 377 468 387T450 398Q436 398 422 388T396 359T373 317T357 264Q356 258 363 258Z" />
<glyph unicode="&#xe7;" horiz-adv-x="366" d="M145 -14Q108 -14 78 4T29 53T11 122Q12 170 26 216T64 301T122 370T195 416T282 433Q320 433 344 416T368 373Q368 354 355 336T327 317Q319 317 313 323T297 347Q287 365 275 377T249 390Q228 390 208 371T171
321T144 251T133 174Q132 137 151 117T203 96Q230 96 253 108T294 142Q298 148 303 151T313 154Q323 154 323 143Q323 119 307 92T265 40T207 1T145 -14ZM48 -281Q23 -281 2 -271T-31 -246T-43 -217Q-43 -180 -13 -180Q0 -180 13 -187T38 -206Q52 -217 61 -225T84
-233Q94 -233 99 -227T104 -213Q104 -198 94 -189T72 -168Q60 -157 49 -142T37 -112Q37 -95 56 -71T105 -24T163 17H202Q164 -11 150 -30T136 -63Q136 -73 146 -84T169 -106Q182 -118 191 -130T200 -155Q200 -171 185 -192T147 -234T97 -268T48 -281Z" />
<glyph unicode="&#xe8;" horiz-adv-x="380" d="M305 470Q299 470 291 475T276 487L168 607Q158 618 152 627T146 646Q146 656 156 667T181 686T205 695Q216 695 224 687T241 660L315 502Q319 491 318 481T305 470ZM136 -15Q109 -15 79 1T28 45T7 107Q7 169 30
227T91 332T177 405T276 433Q334 433 360 411T386 359Q386 325 364 301T306 259T229 231T151 212Q146 211 144 209T140 202Q138 195 137 187T134 170Q133 135 152 109T210 83Q238 83 261 97T307 136Q318 147 324 147Q334 147 334 137Q334 134 334 130T331 123Q312
87 284 56T219 5T136 -15ZM158 247Q178 253 200 261T242 282T274 316T289 364Q289 376 282 386T261 397Q243 397 226 385T192 352T166 306T151 253Q150 245 158 247Z" />
<glyph unicode="&#xe9;" horiz-adv-x="380" d="M136 -15Q109 -15 79 1T28 45T7 107Q7 169 30 227T91 332T177 405T276 433Q334 433 360 411T386 359Q386 325 364 301T306 259T229 231T151 212Q146 211 144 209T140 202Q138 195 137 187T134 170Q133 135 152 109T210
83Q238 83 261 97T307 136Q318 147 324 147Q334 147 334 137Q334 134 334 130T331 123Q312 87 284 56T219 5T136 -15ZM158 247Q178 253 200 261T242 282T274 316T289 364Q289 376 282 386T261 397Q243 397 226 385T192 352T166 306T151 253Q150 245 158 247ZM281
470Q269 470 268 480T272 502L345 660Q354 679 362 687T382 695Q392 695 406 687T430 667T441 646Q441 637 435 628T418 607L311 487Q304 480 297 475T281 470Z" />
<glyph unicode="&#xea;" horiz-adv-x="380" d="M361 688Q370 688 375 678T385 647Q390 630 395 613T404 578T413 544T420 512Q423 496 419 484T400 471Q386 471 371 503Q365 517 356 536T333 575Q330 581 322 575Q299 554 276 535T239 502Q222 488 211 480T191
471Q181 471 181 484Q181 490 184 497T194 513Q211 534 231 557T271 603T309 647Q326 666 338 677T361 688ZM136 -15Q109 -15 79 1T28 45T7 107Q7 169 30 227T91 332T177 405T276 433Q334 433 360 411T386 359Q386 325 364 301T306 259T229 231T151 212Q146 211
144 209T140 202Q138 195 137 187T134 170Q133 135 152 109T210 83Q238 83 261 97T307 136Q318 147 324 147Q334 147 334 137Q334 134 334 130T331 123Q312 87 284 56T219 5T136 -15ZM158 247Q178 253 200 261T242 282T274 316T289 364Q289 376 282 386T261 397Q243
397 226 385T192 352T166 306T151 253Q150 245 158 247Z" />
<glyph unicode="&#xeb;" horiz-adv-x="380" d="M136 -15Q109 -15 79 1T28 45T7 107Q7 169 30 227T91 332T177 405T276 433Q334 433 360 411T386 359Q386 325 364 301T306 259T229 231T151 212Q146 211 144 209T140 202Q138 195 137 187T134 170Q133 135 152 109T210
83Q238 83 261 97T307 136Q318 147 324 147Q334 147 334 137Q334 134 334 130T331 123Q312 87 284 56T219 5T136 -15ZM158 247Q178 253 200 261T242 282T274 316T289 364Q289 376 282 386T261 397Q243 397 226 385T192 352T166 306T151 253Q150 245 158 247ZM397
495Q374 495 360 510T346 549Q346 574 359 594T394 626T440 638Q466 638 480 623T495 584Q495 548 466 522T397 495ZM199 495Q176 495 162 510T148 549Q148 574 161 594T196 626T242 638Q268 638 282 623T297 584Q297 548 268 522T199 495Z" />
<glyph unicode="&#xec;" horiz-adv-x="332" d="M271 468Q265 468 257 472T242 484L134 605Q124 616 118 625T112 644Q112 653 122 664T147 684T171 693Q182 693 190 685T207 658L281 499Q286 489 285 479T271 468ZM86 -14Q62 -14 44 4T25 40Q25 45 26 50T30 61Q59
125 84 187T133 307Q135 313 128 313Q121 313 110 309T88 297T65 284Q52 276 46 280T40 292Q40 299 53 313T88 345T134 380T182 410T222 430Q236 436 251 429T276 409T280 384L168 108Q167 104 166 100T165 93Q165 89 167 87T172 85Q181 85 199 97T239 125T274
155Q277 158 278 158Q283 158 287 154T291 144Q291 126 270 100T216 47T149 4T86 -14Z" />
<glyph unicode="&#xed;" horiz-adv-x="332" d="M86 -14Q62 -14 44 4T25 40Q25 45 26 50T30 61Q59 125 84 187T133 307Q135 313 128 313Q121 313 110 309T88 297T65 284Q52 276 46 280T40 292Q40 299 53 313T88 345T134 380T182 410T222 430Q236 436 251 429T276
409T280 384L168 108Q167 104 166 100T165 93Q165 89 167 87T172 85Q181 85 199 97T239 125T274 155Q277 158 278 158Q283 158 287 154T291 144Q291 126 270 100T216 47T149 4T86 -14ZM248 468Q236 468 235 478T239 500L312 658Q321 677 329 685T349 693Q359 693
373 685T397 665T408 644Q408 635 402 626T385 605L278 485Q271 478 264 473T248 468Z" />
<glyph unicode="&#xee;" horiz-adv-x="332" d="M327 685Q336 685 341 676T352 645Q356 628 361 611T370 575T379 541T386 510Q389 494 385 482T367 469Q352 469 337 501Q331 514 322 533T300 572Q296 578 288 572Q265 552 243 533T205 500Q189 486 177 478T157
469Q147 469 147 481Q147 487 150 494T160 511Q177 532 197 554T237 600T275 644Q292 663 305 674T327 685ZM86 -14Q62 -14 44 4T25 40Q25 45 26 50T30 61Q59 125 84 187T133 307Q135 313 128 313Q121 313 110 309T88 297T65 284Q52 276 46 280T40 292Q40 299 53
313T88 345T134 380T182 410T222 430Q236 436 251 429T276 409T280 384L168 108Q167 104 166 100T165 93Q165 89 167 87T172 85Q181 85 199 97T239 125T274 155Q277 158 278 158Q283 158 287 154T291 144Q291 126 270 100T216 47T149 4T86 -14Z" />
<glyph unicode="&#xef;" horiz-adv-x="332" d="M86 -14Q62 -14 44 4T25 40Q25 45 26 50T30 61Q59 125 84 187T133 307Q135 313 128 313Q121 313 110 309T88 297T65 284Q52 276 46 280T40 292Q40 299 53 313T88 345T134 380T182 410T222 430Q236 436 251 429T276
409T280 384L168 108Q167 104 166 100T165 93Q165 89 167 87T172 85Q181 85 199 97T239 125T274 155Q277 158 278 158Q283 158 287 154T291 144Q291 126 270 100T216 47T149 4T86 -14ZM363 492Q340 492 326 507T312 546Q312 571 325 591T360 623T406 635Q432 635
446 620T461 581Q461 545 432 519T363 492ZM165 492Q142 492 128 507T114 546Q114 571 127 591T162 623T208 635Q234 635 248 620T263 581Q263 545 234 519T165 492Z" />
<glyph unicode="&#xf0;" horiz-adv-x="449" d="M136 -14Q101 -14 72 3T26 51T12 120Q15 170 35 223T91 325T176 403T289 433Q297 433 304 432T318 428Q322 427 326 425T333 423Q337 423 340 440T343 473Q343 509 335 534L222 476Q209 470 202 475T195 488Q197
503 201 517T219 539L323 592Q311 624 293 642T245 666Q231 669 225 673T218 685Q218 697 228 701T254 705Q308 705 349 686T417 631L511 679Q518 683 529 681T540 668Q540 655 534 640T513 617L446 583Q470 525 470 460Q470 397 453 331T405 203T332 92T240 15T136
-14ZM157 25Q177 25 199 47T242 105T281 185T311 272T326 350Q327 373 320 384T295 396Q278 396 256 374T213 316T172 236T141 150T125 72Q123 49 132 37T157 25Z" />
<glyph unicode="&#xf1;" horiz-adv-x="598" d="M116 -14Q108 -14 96 -8T72 10T55 37T57 69L158 320Q168 345 149 345Q142 345 129 344T99 336T68 310Q64 305 56 305T47 315Q47 322 53 334T69 358T86 377Q110 400 144 416T225 433Q250 433 263 420T280 388T275
347L222 216Q219 209 227 208T240 213Q276 276 311 325T383 404T463 433Q502 433 519 411T538 358T526 297L451 120Q438 89 455 89Q461 89 472 95T495 109T517 126T533 140Q538 145 543 150T552 155Q555 155 558 152T562 143Q562 123 549 107Q519 72 483 45T407
2T333 -14Q320 -14 307 -6T287 15T285 40Q318 113 353 184T416 331Q423 349 421 358T408 368Q395 368 380 352T347 312T312 262Q303 250 287 225T252 168T215 106T182 50Q166 23 150 5T116 -14ZM253 467Q249 467 240 474T231 486Q231 492 243 509T271 546T303 582T325
597Q336 597 349 594T393 589Q415 588 433 587T461 585Q479 585 496 604Q506 616 510 622T519 629Q524 629 532 622T541 610Q541 606 535 598T521 579Q510 563 499 546T478 514Q472 506 463 503T447 500Q439 500 420 501T377 504T332 507T300 509Q289 509 281 499Q269
483 263 475T253 467Z" />
<glyph unicode="&#xf2;" horiz-adv-x="458" d="M338 470Q331 470 323 475T308 487L201 607Q191 618 185 627T178 646Q178 656 188 667T213 686T237 695Q248 695 256 687T274 660L347 502Q352 491 351 481T338 470ZM155 -14Q117 -14 84 4T30 54T10 128Q10 174 29
227T87 326T178 403T300 433Q367 433 407 395T448 290Q448 244 429 192T371 93T279 16T155 -14ZM174 25Q194 25 214 47T253 105T287 186T310 274T319 354Q319 375 311 385T285 396Q268 396 248 375T209 317T175 237T149 150T139 69Q139 47 149 36T174 25Z" />
<glyph unicode="&#xf3;" horiz-adv-x="458" d="M155 -14Q117 -14 84 4T30 54T10 128Q10 174 29 227T87 326T178 403T300 433Q367 433 407 395T448 290Q448 244 429 192T371 93T279 16T155 -14ZM174 25Q194 25 214 47T253 105T287 186T310 274T319 354Q319 375
311 385T285 396Q268 396 248 375T209 317T175 237T149 150T139 69Q139 47 149 36T174 25ZM314 470Q302 470 301 480T305 502L378 660Q387 679 395 687T415 695Q425 695 439 687T463 667T474 646Q474 637 468 628T451 607L344 487Q337 480 330 475T314 470Z" />
<glyph unicode="&#xf4;" horiz-adv-x="458" d="M393 688Q403 688 407 678T418 647Q423 630 427 613T437 578T446 544T452 512Q456 496 452 484T433 471Q418 471 403 503Q397 517 388 536T366 575Q362 581 354 575Q332 554 309 535T271 502Q255 488 243 480T224
471Q213 471 213 484Q213 490 216 497T227 513Q244 534 263 557T303 603T342 647Q358 666 371 677T393 688ZM155 -14Q117 -14 84 4T30 54T10 128Q10 174 29 227T87 326T178 403T300 433Q367 433 407 395T448 290Q448 244 429 192T371 93T279 16T155 -14ZM174 25Q194
25 214 47T253 105T287 186T310 274T319 354Q319 375 311 385T285 396Q268 396 248 375T209 317T175 237T149 150T139 69Q139 47 149 36T174 25Z" />
<glyph unicode="&#xf5;" horiz-adv-x="458" d="M155 -14Q117 -14 84 4T30 54T10 128Q10 174 29 227T87 326T178 403T300 433Q367 433 407 395T448 290Q448 244 429 192T371 93T279 16T155 -14ZM174 25Q194 25 214 47T253 105T287 186T310 274T319 354Q319 375
311 385T285 396Q268 396 248 375T209 317T175 237T149 150T139 69Q139 47 149 36T174 25ZM202 467Q198 467 189 474T180 486Q180 492 192 509T220 546T252 582T274 597Q285 597 298 594T342 589Q364 588 382 587T410 585Q428 585 445 604Q455 616 459 622T468
629Q473 629 481 622T490 610Q490 606 484 598T470 579Q459 563 448 546T427 514Q421 506 412 503T396 500Q388 500 369 501T326 504T281 507T249 509Q238 509 230 499Q218 483 212 475T202 467Z" />
<glyph unicode="&#xf6;" horiz-adv-x="458" d="M155 -14Q117 -14 84 4T30 54T10 128Q10 174 29 227T87 326T178 403T300 433Q367 433 407 395T448 290Q448 244 429 192T371 93T279 16T155 -14ZM174 25Q194 25 214 47T253 105T287 186T310 274T319 354Q319 375
311 385T285 396Q268 396 248 375T209 317T175 237T149 150T139 69Q139 47 149 36T174 25ZM429 495Q406 495 392 510T378 549Q378 574 391 594T426 626T472 638Q498 638 512 623T527 584Q527 548 498 522T429 495ZM231 495Q208 495 194 510T180 549Q180 574 193
594T228 626T274 638Q300 638 314 623T329 584Q329 548 300 522T231 495Z" />
<glyph unicode="&#xf7;" horiz-adv-x="595" d="M72 254Q65 254 60 258T54 266Q54 272 57 283T66 302T85 311H563Q572 311 579 307T586 297Q586 283 576 269T550 254H72ZM324 65Q296 65 276 85T255 133Q255 163 275 183T324 204Q354 204 374 184T395 133Q395 105
375 85T324 65ZM323 350Q295 350 275 370T254 418Q254 448 274 468T323 489Q353 489 373 469T394 418Q394 390 374 370T323 350Z" />
<glyph unicode="&#xf8;" horiz-adv-x="433" d="M-7 -14Q-17 -13 -27 -7T-36 10Q-33 31 -21 41L45 96L87 124L327 346L373 374L433 425Q438 429 443 431T455 433Q465 432 467 426T471 409Q471 401 467 391T455 375L387 315L324 271L101 58L71 41L17 -5Q12 -10 8
-12T-7 -14ZM155 -14Q117 -14 84 4T30 54T10 128Q10 174 29 227T87 326T178 403T300 433Q367 433 407 395T448 290Q448 244 429 192T371 93T279 16T155 -14ZM174 25Q194 25 214 47T253 105T287 186T310 274T319 354Q319 375 311 385T285 396Q268 396 248 375T209
317T175 237T149 150T139 69Q139 47 149 36T174 25Z" />
<glyph unicode="&#xf9;" horiz-adv-x="596" d="M411 470Q404 470 396 475T381 487L274 607Q264 618 258 627T252 646Q252 656 262 667T286 686T310 695Q322 695 330 687T347 660L420 502Q425 491 424 481T411 470ZM114 -14Q94 -14 77 3T52 44T53 86L146 298Q153
313 152 321T143 329Q138 329 122 320T90 298T66 278Q53 266 45 266T36 275Q36 285 41 294T54 313Q83 349 115 376T181 418T246 434Q260 434 274 421T295 391T295 359Q276 317 248 258T185 122Q178 107 179 96T190 85Q200 85 219 106T263 161T314 228Q333 252 351
278T384 328T411 372Q428 398 441 415T472 433Q491 433 506 422T528 396T530 367L430 108Q427 100 427 93T433 86Q441 86 461 98T504 128T540 159Q543 162 544 162Q549 162 553 158T557 147Q557 134 543 117T507 80T460 44T411 16T368 4Q354 -1 340 3T315 16T298
34Q296 38 296 45T299 61Q307 79 317 101T339 150T361 204Q364 213 359 213T349 207Q320 167 290 128T229 57T169 6T114 -14Z" />
<glyph unicode="&#xfa;" horiz-adv-x="596" d="M114 -14Q94 -14 77 3T52 44T53 86L146 298Q153 313 152 321T143 329Q138 329 122 320T90 298T66 278Q53 266 45 266T36 275Q36 285 41 294T54 313Q83 349 115 376T181 418T246 434Q260 434 274 421T295 391T295
359Q276 317 248 258T185 122Q178 107 179 96T190 85Q200 85 219 106T263 161T314 228Q333 252 351 278T384 328T411 372Q428 398 441 415T472 433Q491 433 506 422T528 396T530 367L430 108Q427 100 427 93T433 86Q441 86 461 98T504 128T540 159Q543 162 544
162Q549 162 553 158T557 147Q557 134 543 117T507 80T460 44T411 16T368 4Q354 -1 340 3T315 16T298 34Q296 38 296 45T299 61Q307 79 317 101T339 150T361 204Q364 213 359 213T349 207Q320 167 290 128T229 57T169 6T114 -14ZM387 470Q375 470 374 480T378 502L451
660Q460 679 468 687T488 695Q498 695 512 687T536 667T547 646Q547 637 541 628T524 607L417 487Q410 480 403 475T387 470Z" />
<glyph unicode="&#xfb;" horiz-adv-x="596" d="M466 688Q476 688 480 678T491 647Q496 630 500 613T510 578T519 544T525 512Q529 496 525 484T506 471Q491 471 477 503Q471 517 461 536T439 575Q435 581 427 575Q405 554 382 535T344 502Q328 488 316 480T297
471Q286 471 286 484Q286 490 289 497T300 513Q317 534 336 557T376 603T415 647Q431 666 444 677T466 688ZM114 -14Q94 -14 77 3T52 44T53 86L146 298Q153 313 152 321T143 329Q138 329 122 320T90 298T66 278Q53 266 45 266T36 275Q36 285 41 294T54 313Q83 349
115 376T181 418T246 434Q260 434 274 421T295 391T295 359Q276 317 248 258T185 122Q178 107 179 96T190 85Q200 85 219 106T263 161T314 228Q333 252 351 278T384 328T411 372Q428 398 441 415T472 433Q491 433 506 422T528 396T530 367L430 108Q427 100 427
93T433 86Q441 86 461 98T504 128T540 159Q543 162 544 162Q549 162 553 158T557 147Q557 134 543 117T507 80T460 44T411 16T368 4Q354 -1 340 3T315 16T298 34Q296 38 296 45T299 61Q307 79 317 101T339 150T361 204Q364 213 359 213T349 207Q320 167 290 128T229
57T169 6T114 -14Z" />
<glyph unicode="&#xfc;" horiz-adv-x="596" d="M114 -14Q94 -14 77 3T52 44T53 86L146 298Q153 313 152 321T143 329Q138 329 122 320T90 298T66 278Q53 266 45 266T36 275Q36 285 41 294T54 313Q83 349 115 376T181 418T246 434Q260 434 274 421T295 391T295
359Q276 317 248 258T185 122Q178 107 179 96T190 85Q200 85 219 106T263 161T314 228Q333 252 351 278T384 328T411 372Q428 398 441 415T472 433Q491 433 506 422T528 396T530 367L430 108Q427 100 427 93T433 86Q441 86 461 98T504 128T540 159Q543 162 544
162Q549 162 553 158T557 147Q557 134 543 117T507 80T460 44T411 16T368 4Q354 -1 340 3T315 16T298 34Q296 38 296 45T299 61Q307 79 317 101T339 150T361 204Q364 213 359 213T349 207Q320 167 290 128T229 57T169 6T114 -14ZM502 495Q479 495 465 510T451 549Q451
574 464 594T499 626T545 638Q571 638 585 623T600 584Q600 548 571 522T502 495ZM304 495Q281 495 267 510T253 549Q253 574 266 594T301 626T347 638Q373 638 387 623T402 584Q402 548 373 522T304 495Z" />
<glyph unicode="&#xfd;" horiz-adv-x="482" d="M-47 -289Q-75 -289 -98 -274T-121 -226Q-121 -208 -113 -191T-90 -163T-61 -152Q-50 -152 -38 -159T-15 -175Q-3 -183 10 -190T40 -198Q70 -198 99 -168T150 -90Q169 -48 177 6T186 122Q186 205 177 254T155 324T133
346Q124 346 114 334T94 305T79 279Q77 274 72 265T60 256Q57 256 54 263T51 284Q51 312 64 339T99 389T145 425T192 439Q221 439 238 419T269 362Q283 319 293 251T298 83Q297 65 301 66T313 80Q348 146 361 227T373 415Q373 423 385 431T406 440Q415 440 430
432T458 409T471 375Q471 313 436 231T337 55T190 -130Q151 -173 108 -209T24 -267T-47 -289ZM290 470Q278 470 277 480T281 502L354 660Q363 679 371 687T391 695Q401 695 415 687T439 667T450 646Q450 637 444 628T427 607L320 487Q313 480 306 475T290 470Z"
/>
<glyph unicode="&#xfe;" horiz-adv-x="531" d="M-128 -285Q-132 -285 -135 -282T-138 -274Q-137 -266 -131 -262T-116 -255Q-86 -247 -71 -239T-50 -207L191 539Q196 554 199 569T203 599Q203 612 193 617T169 628Q161 631 154 634T147 644Q147 650 151 654T171
664Q183 668 206 675T256 689T303 702T332 707Q340 707 349 706T358 694Q358 682 356 673T349 653Q339 621 326 584T298 507T269 426T240 342T214 261Q212 252 214 252T221 259Q258 317 296 355T373 413T445 433Q478 433 503 410T528 344Q528 292 509 241T456 144T377
63T279 8T173 -13Q154 -13 133 -8T99 1L135 35L67 -204Q61 -226 77 -235T121 -254Q128 -256 132 -259T134 -271Q133 -277 128 -279T116 -282Q99 -282 76 -282T30 -281T-8 -281Q-33 -281 -66 -283T-128 -285ZM215 26Q226 26 243 38T280 72T316 120Q330 142 345 172T373
233T392 290T394 332Q391 338 385 340T368 340T346 329Q329 326 306 306T259 256T214 194T180 132T167 86Q167 63 182 45T215 26Z" />
<glyph unicode="&#xff;" horiz-adv-x="482" d="M-47 -289Q-75 -289 -98 -274T-121 -226Q-121 -208 -113 -191T-90 -163T-61 -152Q-50 -152 -38 -159T-15 -175Q-3 -183 10 -190T40 -198Q70 -198 99 -168T150 -90Q169 -48 177 6T186 122Q186 205 177 254T155 324T133
346Q124 346 114 334T94 305T79 279Q77 274 72 265T60 256Q57 256 54 263T51 284Q51 312 64 339T99 389T145 425T192 439Q221 439 238 419T269 362Q283 319 293 251T298 83Q297 65 301 66T313 80Q348 146 361 227T373 415Q373 423 385 431T406 440Q415 440 430
432T458 409T471 375Q471 313 436 231T337 55T190 -130Q151 -173 108 -209T24 -267T-47 -289ZM405 495Q382 495 368 510T354 549Q354 574 367 594T402 626T448 638Q474 638 488 623T503 584Q503 548 474 522T405 495ZM207 495Q184 495 170 510T156 549Q156 574
169 594T204 626T250 638Q276 638 290 623T305 584Q305 548 276 522T207 495Z" />
<glyph unicode="&#x2013;" horiz-adv-x="626" d="M46 182Q39 182 36 186T33 195Q35 201 41 212T56 232T75 241H576Q586 241 590 237T593 226Q589 213 575 198T547 182H46Z" />
<glyph unicode="&#x2014;" horiz-adv-x="949" d="M33 182Q27 182 24 186T21 195Q23 201 29 212T44 232T63 241H911Q921 241 926 237T928 226Q924 213 910 198T882 182H33Z" />
<glyph unicode="&#x2018;" horiz-adv-x="268" d="M349 691Q361 691 366 687T370 675Q367 667 360 663T341 655Q313 650 290 635T253 601T238 560Q238 547 247 539T269 527Q280 523 288 514T297 489Q297 458 274 436T218 413Q183 413 159 435T135 497Q135 531 153
565T202 628T271 674T349 691Z" />
<glyph unicode="&#x2019;" horiz-adv-x="268" d="M131 413Q120 413 114 417T111 429Q113 437 121 442T140 449Q167 455 190 469T228 504T242 544Q242 558 233 565T212 577Q201 581 192 590T183 615Q183 646 206 668T262 691Q297 691 321 669T345 606Q345 573 328
538T279 475T209 430T131 413Z" />
<glyph unicode="&#x201a;" horiz-adv-x="268" d="M-46 -159Q-57 -159 -63 -155T-66 -143Q-64 -135 -56 -130T-37 -123Q-10 -117 13 -103T51 -68T65 -28Q65 -14 56 -7T35 5Q24 9 15 18T6 43Q6 74 29 96T85 119Q120 119 144 97T168 34Q168 1 151 -34T102 -97T32
-142T-46 -159Z" />
<glyph unicode="&#x201c;" horiz-adv-x="470" d="M552 692Q563 692 568 688T572 676Q570 668 562 664T543 656Q516 651 493 636T455 602T440 561Q440 548 449 540T471 528Q482 524 490 515T499 490Q499 459 476 437T420 414Q385 414 361 436T337 498Q337 532 355
566T404 629T473 675T552 692ZM350 692Q361 692 367 688T370 676Q368 668 360 664T341 656Q314 651 291 636T253 602T239 561Q239 548 248 540T269 528Q280 524 288 515T297 490Q297 459 274 437T218 414Q183 414 159 436T135 498Q135 532 153 566T202 629T271
675T350 692Z" />
<glyph unicode="&#x201d;" horiz-adv-x="470" d="M131 414Q120 414 114 418T111 430Q113 438 121 443T140 450Q167 456 190 470T228 505T242 545Q242 559 233 566T212 578Q201 582 192 591T183 616Q183 647 206 669T262 692Q297 692 321 670T345 607Q345 574 328
539T279 476T209 431T131 414ZM333 414Q322 414 316 418T313 430Q315 438 323 443T342 450Q369 456 392 470T430 505T444 545Q444 559 435 566T414 578Q403 582 394 591T385 616Q385 647 408 669T464 692Q499 692 523 670T547 607Q547 574 530 539T481 476T411
431T333 414Z" />
<glyph unicode="&#x201e;" horiz-adv-x="470" d="M-46 -159Q-57 -159 -63 -155T-66 -143Q-64 -135 -56 -130T-37 -123Q-10 -117 13 -103T51 -68T65 -28Q65 -14 56 -7T35 5Q24 9 15 18T6 43Q6 74 29 96T85 119Q120 119 144 97T168 34Q168 1 151 -34T102 -97T32
-142T-46 -159ZM156 -159Q145 -159 139 -155T136 -143Q138 -135 146 -130T165 -123Q192 -117 215 -103T253 -68T267 -28Q267 -14 258 -7T237 5Q226 9 217 18T208 43Q208 74 231 96T287 119Q322 119 346 97T370 34Q370 1 353 -34T304 -97T234 -142T156 -159Z" />
<glyph unicode="&#x2022;" horiz-adv-x="373" d="M198 206Q166 206 139 222T96 266T80 325Q80 372 104 413T169 479T258 504Q297 504 324 485T366 437T381 376Q381 330 356 292T290 230T198 206Z" />
<glyph unicode="&#x2039;" horiz-adv-x="411" d="M284 16Q274 16 266 24T254 36Q232 61 211 81T168 119T123 153T72 186Q60 194 55 197T49 207Q49 214 57 219T72 227Q132 254 182 282T279 340T375 406Q380 410 385 413T399 417Q412 417 409 408T398 388Q358 344
321 313T250 258T186 216Q178 210 178 208T183 200Q201 181 220 158T258 107T293 43Q298 33 294 25T284 16Z" />
<glyph unicode="&#x203a;" horiz-adv-x="411" d="M131 417Q141 417 149 409T161 397Q183 372 204 352T247 314T292 280T342 247Q355 239 360 235T366 225Q366 219 358 214T343 206Q282 179 232 151T136 93T39 27Q34 23 29 20T15 16Q3 16 6 25T17 45Q57 89 94 120T165
175T228 217Q237 223 237 225T232 233Q214 253 195 275T157 326T122 390Q118 400 122 408T131 417Z" />
</font>
</defs>
</svg>
