<?xml version="1.0" encoding="utf-8"?>
<!-- Generator: Adobe Illustrator 25.0.1, SVG Export Plug-In . SVG Version: 6.00 Build 0)  -->
<svg version="1.1" xmlns="http://www.w3.org/2000/svg" xmlns:xlink="http://www.w3.org/1999/xlink" x="0px" y="0px"
	 viewBox="0 0 1920 1080" style="enable-background:new 0 0 1920 1080;" xml:space="preserve">
<style type="text/css">
	.st0{fill:#FFFFFF;stroke:#231F20;stroke-width:3;stroke-miterlimit:10;}
	.st1{fill:#FFFFFF;}
	.st2{fill:none;stroke:#231F20;stroke-width:3;stroke-miterlimit:10;}
	.st3{fill:#231F20;}
</style>
<g id="Layer_1">
	<g>
		<circle class="st0" cx="399.4" cy="540" r="122.8"/>
		<path class="st0" d="M302.6,615.5c19.1-33.6,55.3-56.3,96.8-56.3c41.5,0,77.6,22.7,96.8,56.3"/>
		<circle class="st0" cx="399.4" cy="513.4" r="45.8"/>
	</g>
	<g id="ENiWr2.tif">
		<g>
			<path class="st1" d="M1524.3,645.7c-2.2,0-4.4,0-6.6,0c0-69.9,0-139.9,0-209.8c0-1.3,0.3-1.6,1.6-1.6c61.8,0,123.7,0,185.5,0
				c0,2.3,0,4.7,0,7c-1.7-5-5.3-6.7-10.5-6.7c-30.8,0.1-61.5,0.1-92.3,0.1c-24.7,0-49.4,0-74.1,0c-6.7,0-9.7,3.1-9.7,9.8
				c0,4.5,0,8.9,0,13.4c0,3.8,0,7.7,0,11.5c0,2.3,1.2,3.6,3.1,3.6c1.9,0,3.1-1.3,3.1-3.5c0-0.5,0-1,0-1.4c0-7.7,0-15.4,0-23.1
				c0-3.9,0.2-4.1,4-4.1c55.3,0,110.7,0,166,0c3.9,0,4.1,0.2,4.1,4c0,38.5,0,77,0,115.6c0,0.8-0.2,1.8,0.1,2.4
				c0.5,1,1.2,2.3,2.1,2.6c0.9,0.3,2.2-0.5,3.3-1c0.3-0.1,0.5-0.6,0.8-0.9c0,3.6,0,7.1,0,10.7c-1-1.5-2.3-2.7-4.2-2
				c-1.9,0.7-2.1,2.3-2.1,4.1c0,0.5,0,1.1,0,1.6c0,19.2,0,38.3,0,57.5c0,3.6-0.3,3.9-3.9,3.9c-55.5,0-110.9,0-166.4,0
				c-3.5,0-3.8-0.3-3.8-3.9c0-50.3,0-100.5,0-150.8c0-0.8,0-1.7-0.1-2.5c-0.2-1.6-1.1-2.6-2.8-2.8c-1.8-0.1-2.8,0.8-3.2,2.5
				c-0.1,0.6-0.1,1.2-0.1,1.8c0,50.9,0,101.8,0,152.7c0,1,0.1,2.1,0.3,3.1C1519.1,642.8,1521.6,644.4,1524.3,645.7z M1633.9,524.7
				c-16.8,0-33.6,0-50.4,0c-3.3,0-4.8,1-4.9,3.1c0,2.2,1.5,3.2,4.8,3.2c33.8,0,67.5,0,101.3,0c0.8,0,1.9,0.1,2.4-0.3
				c0.9-0.7,2-1.8,2.2-2.8c0.3-1.4-0.7-2.6-2.2-3c-0.9-0.2-1.8-0.2-2.7-0.2C1667.6,524.7,1650.8,524.7,1633.9,524.7z M1634,555.7
				c16.8,0,33.6,0,50.4,0c3.3,0,4.9-1,4.9-3.1c0-2.1-1.6-3.2-4.8-3.2c-33.8,0-67.5,0-101.3,0c-0.8,0-1.7,0-2.4,0.3
				c-1.5,0.4-2.5,1.6-2.1,3c0.3,1.1,1.3,2.1,2.3,2.7c0.6,0.4,1.7,0.3,2.6,0.3C1600.4,555.7,1617.2,555.7,1634,555.7z M1634.1,467.3
				c16.7,0,33.5,0,50.2,0c0.7,0,1.4,0,2.1,0c1.8-0.2,3-1.4,3-3c0-1.6-1.2-2.9-3-3.1c-0.5-0.1-1.1,0-1.6,0c-33.8,0-67.7,0-101.5,0
				c-0.7,0-1.4-0.1-2.1,0.1c-1.7,0.4-2.7,1.4-2.6,3.2c0.1,1.7,1.1,2.6,2.7,2.9c0.7,0.1,1.4,0.1,2.1,0.1
				C1600.3,467.3,1617.2,467.3,1634.1,467.3z M1634.1,613.1c-14.5,0-29,0-43.4,0c-2.8,0-5.6,0-8.4,0c-2.2,0-3.6,1.3-3.6,3.1
				c0,1.8,1.4,3,3.6,3.1c0.3,0,0.7,0,1,0c33.8,0,67.7,0,101.5,0c3.1,0,4.7-1.1,4.6-3.1c0-2.1-1.5-3.1-4.7-3.1
				C1667.8,613.1,1650.9,613.1,1634.1,613.1z M1633.9,511.5c8.2,0,16.5,0,24.7,0c9.1,0,18.1,0,27.2,0c2.2,0,3.6-1.3,3.6-3.1
				c0-1.7-1.4-2.9-3.5-3.1c-0.4,0-0.8,0-1.2,0c-33.8,0-67.7,0-101.5,0c-3.1,0-4.6,1.1-4.6,3.2c0,2.1,1.5,3.1,4.7,3.1
				C1600.2,511.5,1617,511.5,1633.9,511.5z M1634,569c-17.2,0-34.3,0-51.5,0c-2.5,0-4,1.2-3.9,3.2c0,1.9,1.4,3,3.9,3.1
				c0.3,0,0.5,0,0.8,0c33.8,0,67.5,0,101.3,0c3.2,0,4.8-1.1,4.8-3.2c-0.1-2.1-1.6-3-4.7-3C1667.8,569,1650.9,569,1634,569z
				 M1633.9,593.6c-16.7,0-33.5,0-50.2,0c-0.8,0-1.7,0-2.5,0.1c-1.6,0.2-2.4,1.2-2.6,2.8c-0.1,1.5,0.6,2.7,2.1,3.1
				c0.8,0.2,1.8,0.3,2.6,0.3c33.7,0,67.4,0,101.1,0c3.3,0,4.9-1,4.9-3.1c0-2.1-1.5-3.1-4.8-3.1
				C1667.7,593.6,1650.8,593.6,1633.9,593.6z M1566.3,518.2C1566.3,518.2,1566.3,518.2,1566.3,518.2c0-2.7,0.1-5.5,0-8.2
				c-0.1-4.8-3.2-8.1-7.9-8.3c-5.8-0.2-11.5-0.2-17.3,0c-4.7,0.2-7.8,3.6-7.9,8.3c0,5.5-0.1,11,0,16.5c0,4.4,2.9,7.9,7.2,8
				c6.2,0.3,12.3,0.3,18.5,0c4.4-0.2,7.2-3.5,7.3-7.9C1566.4,523.8,1566.3,521,1566.3,518.2z M1566.4,562.3c0-2.7,0.1-5.5,0-8.2
				c-0.1-4.7-3-8-7.7-8.2c-5.9-0.2-11.8-0.2-17.7,0c-4.7,0.2-7.6,3.6-7.6,8.3c0,5.4,0,10.8,0,16.3c0,4.7,3.1,8.2,7.8,8.4
				c5.8,0.2,11.5,0.2,17.3,0c4.7-0.2,7.8-3.5,7.9-8.3C1566.4,567.8,1566.4,565,1566.4,562.3z M1566.3,473.9c0-2.8,0.1-5.6,0-8.4
				c-0.1-4.6-3.4-7.9-8-8c-5.7-0.1-11.4-0.1-17.1,0c-4.5,0.1-7.9,3.5-7.9,8c-0.1,5.6-0.1,11.2,0,16.9c0.1,4.6,3.3,8,7.9,8.1
				c5.8,0.1,11.5,0.1,17.3,0c4.5-0.1,7.7-3.4,7.8-7.9C1566.4,479.6,1566.3,476.8,1566.3,473.9z M1566.3,606.6c0-2.9,0.1-5.8,0-8.6
				c-0.1-4.5-3.3-7.8-7.8-7.9c-5.8-0.1-11.7-0.1-17.5,0c-4.5,0.1-7.7,3.5-7.7,8c-0.1,5.6-0.1,11.2,0,16.9c0.1,4.6,3.5,8,8.1,8.1
				c5.6,0.1,11.2,0.1,16.9,0c4.6-0.1,7.9-3.4,8-8C1566.4,612.2,1566.3,609.4,1566.3,606.6z M1617.1,486.8c11.6,0,23.2,0,34.8,0
				c2.4,0,3.8-1.3,3.8-3.2c0-1.8-1.5-3-3.7-3.1c-0.3,0-0.7,0-1,0c-22.5,0-45,0-67.5,0c-3.3,0-4.8,1-4.7,3.2c0,2.1,1.5,3,4.7,3
				C1594.6,486.8,1605.8,486.8,1617.1,486.8z M1675.6,486.8c3.4,0,6.7,0,10.1,0c2.3,0,3.6-1.2,3.7-3c0-1.9-1.4-3.2-3.8-3.2
				c-6.7,0-13.3,0-20,0c-2.4,0-3.8,1.3-3.8,3.2c0,1.9,1.4,3,3.9,3.1C1669,486.8,1672.3,486.8,1675.6,486.8z"/>
			<path d="M1524.3,645.7c-2.7-1.3-5.2-2.9-5.8-6.1c-0.2-1-0.3-2-0.3-3.1c0-50.9,0-101.8,0-152.7c0-0.6,0-1.3,0.1-1.8
				c0.4-1.7,1.5-2.6,3.2-2.5c1.7,0.1,2.6,1.1,2.8,2.8c0.1,0.8,0.1,1.6,0.1,2.5c0,50.3,0,100.5,0,150.8c0,3.6,0.3,3.9,3.8,3.9
				c55.5,0,110.9,0,166.4,0c3.5,0,3.9-0.3,3.9-3.9c0-19.2,0-38.3,0-57.5c0-0.5,0-1.1,0-1.6c-0.1-1.7,0.1-3.4,2.1-4.1
				c2-0.7,3.2,0.4,4.2,2c0,21.6,0,43.1,0,64.7c-1.1,3.3-3.3,5.5-6.6,6.6C1640.2,645.7,1582.2,645.7,1524.3,645.7z"/>
			<path d="M1704.7,563.7c-0.2,0.3-0.4,0.8-0.8,0.9c-1.1,0.4-2.3,1.3-3.3,1c-0.9-0.3-1.7-1.6-2.1-2.6c-0.3-0.7-0.1-1.6-0.1-2.4
				c0-38.5,0-77,0-115.6c0-3.8-0.2-4-4.1-4c-55.3,0-110.7,0-166,0c-3.8,0-4,0.2-4,4.1c0,7.7,0,15.4,0,23.1c0,0.5,0,1,0,1.4
				c-0.1,2.2-1.2,3.6-3.1,3.5c-1.9,0-3-1.4-3.1-3.6c0-3.8,0-7.7,0-11.5c0-4.5,0-8.9,0-13.4c0-6.8,3-9.8,9.7-9.8
				c24.7,0,49.4,0,74.1,0c30.8,0,61.5,0.1,92.3-0.1c5.2,0,8.7,1.6,10.5,6.7C1704.7,482.1,1704.7,522.9,1704.7,563.7z"/>
			<path class="st1" d="M1698.1,645.7c3.3-1.1,5.5-3.3,6.6-6.6c0,1.9,0,3.8,0,5.8c0,0.3-0.5,0.8-0.8,0.8
				C1701.9,645.7,1700,645.7,1698.1,645.7z"/>
			<path d="M1633.9,524.7c16.8,0,33.6,0,50.4,0c0.9,0,1.8,0,2.7,0.2c1.6,0.3,2.5,1.5,2.2,3c-0.2,1.1-1.3,2.1-2.2,2.8
				c-0.5,0.4-1.6,0.3-2.4,0.3c-33.8,0-67.5,0-101.3,0c-3.3,0-4.8-1-4.8-3.2c0-2.1,1.5-3.1,4.9-3.1
				C1600.3,524.7,1617.1,524.7,1633.9,524.7z"/>
			<path d="M1634,555.7c-16.8,0-33.6,0-50.4,0c-0.9,0-2,0.2-2.6-0.3c-1-0.7-2-1.7-2.3-2.7c-0.4-1.5,0.6-2.6,2.1-3
				c0.8-0.2,1.6-0.3,2.4-0.3c33.8,0,67.5,0,101.3,0c3.2,0,4.8,1.1,4.8,3.2c0,2.1-1.6,3.1-4.9,3.1
				C1667.7,555.7,1650.9,555.7,1634,555.7z"/>
			<path d="M1634.1,467.3c-16.9,0-33.8,0-50.6,0c-0.7,0-1.4,0-2.1-0.1c-1.6-0.2-2.6-1.2-2.7-2.9c-0.1-1.8,0.9-2.8,2.6-3.2
				c0.7-0.1,1.4-0.1,2.1-0.1c33.8,0,67.7,0,101.5,0c0.5,0,1.1,0,1.6,0c1.8,0.2,3,1.5,3,3.1c0,1.6-1.3,2.9-3,3c-0.7,0.1-1.4,0-2.1,0
				C1667.5,467.3,1650.8,467.3,1634.1,467.3z"/>
			<path d="M1634.1,613.1c16.9,0,33.8,0,50.6,0c3.2,0,4.7,1,4.7,3.1c0,2.1-1.5,3.1-4.6,3.1c-33.8,0-67.7,0-101.5,0c-0.3,0-0.7,0-1,0
				c-2.2-0.1-3.6-1.2-3.6-3.1c0-1.9,1.3-3.1,3.6-3.1c2.8,0,5.6,0,8.4,0C1605.1,613.1,1619.6,613.1,1634.1,613.1z"/>
			<path d="M1633.9,511.5c-16.9,0-33.8,0-50.6,0c-3.2,0-4.6-1-4.7-3.1c0-2.1,1.5-3.2,4.6-3.2c33.8,0,67.7,0,101.5,0
				c0.4,0,0.8,0,1.2,0c2.1,0.2,3.4,1.4,3.5,3.1c0,1.8-1.4,3.1-3.6,3.1c-9.1,0-18.1,0-27.2,0C1650.4,511.5,1642.2,511.5,1633.9,511.5
				z"/>
			<path d="M1634,569c16.9,0,33.8,0,50.6,0c3.2,0,4.7,1,4.7,3c0.1,2.1-1.5,3.2-4.8,3.2c-33.8,0-67.5,0-101.3,0c-0.3,0-0.5,0-0.8,0
				c-2.4-0.1-3.8-1.2-3.9-3.1c-0.1-2,1.4-3.2,3.9-3.2C1599.7,568.9,1616.9,569,1634,569z"/>
			<path d="M1633.9,593.6c16.9,0,33.8,0,50.6,0c3.3,0,4.9,1,4.8,3.1c0,2.1-1.6,3.1-4.9,3.1c-33.7,0-67.4,0-101.1,0
				c-0.9,0-1.8,0-2.6-0.3c-1.5-0.4-2.3-1.6-2.1-3.1c0.1-1.5,1-2.5,2.6-2.8c0.8-0.1,1.6-0.1,2.5-0.1
				C1600.4,593.6,1617.2,593.6,1633.9,593.6z"/>
			<path d="M1566.3,518.2c0,2.8,0.1,5.6,0,8.4c-0.1,4.4-3,7.7-7.3,7.9c-6.2,0.3-12.3,0.3-18.5,0c-4.3-0.2-7.1-3.7-7.2-8
				c-0.1-5.5-0.1-11,0-16.5c0-4.7,3.1-8.2,7.9-8.3c5.8-0.2,11.5-0.2,17.3,0c4.7,0.2,7.8,3.5,7.9,8.3
				C1566.4,512.7,1566.4,515.4,1566.3,518.2C1566.3,518.2,1566.3,518.2,1566.3,518.2z M1560.1,518.1c0-2.5,0-5.1,0-7.6
				c0-1.7-0.7-2.6-2.4-2.6c-5.3,0-10.6,0-15.8,0c-1.6,0-2.4,0.8-2.4,2.4c0,5.2,0,10.4,0,15.6c0,1.7,0.8,2.5,2.5,2.5
				c5.2,0,10.4,0,15.6,0c1.7,0,2.5-0.8,2.5-2.5C1560.1,523.3,1560.1,520.7,1560.1,518.1z"/>
			<path d="M1566.4,562.3c0,2.7,0.1,5.5,0,8.2c-0.1,4.8-3.2,8.1-7.9,8.3c-5.8,0.2-11.5,0.2-17.3,0c-4.7-0.2-7.8-3.6-7.8-8.4
				c0-5.4,0-10.8,0-16.3c0-4.7,3-8.1,7.6-8.3c5.9-0.3,11.8-0.3,17.7,0c4.7,0.2,7.6,3.5,7.7,8.2
				C1566.4,556.8,1566.4,559.6,1566.4,562.3z M1549.9,552c-2.6,0-5.2,0-7.8,0c-1.8,0-2.6,0.8-2.6,2.6c0,5.1,0,10.3,0,15.4
				c0,1.6,0.7,2.5,2.3,2.5c5.3,0,10.7,0,16,0c1.5,0,2.2-0.8,2.2-2.3c0-5.3,0-10.6,0-15.8c0-1.6-0.8-2.4-2.4-2.4
				C1555.1,552.1,1552.5,552.1,1549.9,552z"/>
			<path d="M1566.3,473.9c0,2.9,0.1,5.8,0,8.6c-0.1,4.5-3.3,7.8-7.8,7.9c-5.8,0.1-11.5,0.1-17.3,0c-4.6-0.1-7.8-3.5-7.9-8.1
				c-0.1-5.6-0.1-11.2,0-16.9c0.1-4.5,3.4-8,7.9-8c5.7-0.1,11.4-0.1,17.1,0c4.5,0.1,7.8,3.4,8,8
				C1566.4,468.3,1566.3,471.1,1566.3,473.9z M1560.1,474.1c0-2.5,0-5.1,0-7.6c0-2.2-0.6-2.8-2.8-2.8c-5,0-10,0-15,0
				c-1.9,0-2.8,0.8-2.8,2.7c0,5.1,0,10.2,0,15.2c0,1.9,0.8,2.7,2.7,2.7c5.1-0.1,10.2-0.1,15.2,0c2,0,2.7-0.8,2.7-2.7
				C1560.1,479,1560.1,476.6,1560.1,474.1z"/>
			<path d="M1566.3,606.6c0,2.8,0.1,5.6,0,8.4c-0.1,4.6-3.4,7.9-8,8c-5.6,0.1-11.2,0.1-16.9,0c-4.6-0.1-8-3.5-8.1-8.1
				c-0.1-5.6-0.1-11.2,0-16.9c0.1-4.5,3.3-7.9,7.7-8c5.8-0.1,11.7-0.1,17.5,0c4.5,0.1,7.6,3.4,7.8,7.9
				C1566.4,600.8,1566.3,603.7,1566.3,606.6z M1560.1,606.7c0-2.6-0.1-5.2,0-7.8c0.1-1.9-0.8-2.7-2.7-2.7c-5.1,0.1-10.2,0-15.2,0
				c-1.8,0-2.7,0.7-2.7,2.5c0,5.1,0,10.3,0,15.4c0,1.8,0.8,2.6,2.6,2.6c5.1,0,10.3,0,15.4,0c1.8,0,2.6-0.9,2.5-2.7
				C1560.1,611.7,1560.1,609.2,1560.1,606.7z"/>
			<path d="M1617.1,486.8c-11.2,0-22.5,0-33.7,0c-3.2,0-4.6-0.9-4.7-3c0-2.2,1.5-3.2,4.7-3.2c22.5,0,45,0,67.5,0c0.3,0,0.7,0,1,0
				c2.2,0.1,3.7,1.3,3.7,3.1c0.1,1.9-1.4,3.1-3.8,3.2C1640.2,486.8,1628.6,486.8,1617.1,486.8z"/>
			<path d="M1675.6,486.8c-3.3,0-6.6,0-9.9,0c-2.4,0-3.8-1.2-3.9-3.1c0-1.9,1.4-3.2,3.8-3.2c6.7,0,13.3,0,20,0
				c2.4,0,3.8,1.3,3.8,3.2c0,1.8-1.4,3-3.7,3C1682.3,486.8,1679,486.8,1675.6,486.8z"/>
			<path class="st1" d="M1560.1,518.1c0,2.6,0,5.2,0,7.8c0,1.7-0.7,2.5-2.5,2.5c-5.2,0-10.4,0-15.6,0c-1.7,0-2.5-0.8-2.5-2.5
				c0-5.2,0-10.4,0-15.6c0-1.6,0.8-2.4,2.4-2.4c5.3,0,10.6,0,15.8,0c1.7,0,2.4,0.9,2.4,2.6C1560.1,513,1560.1,515.5,1560.1,518.1z"
				/>
			<path class="st1" d="M1549.9,552c2.6,0,5.2,0,7.8,0c1.6,0,2.4,0.7,2.4,2.4c0,5.3,0,10.6,0,15.8c0,1.5-0.8,2.3-2.2,2.3
				c-5.3,0-10.7,0-16,0c-1.6,0-2.3-0.9-2.3-2.5c0-5.1,0-10.3,0-15.4c0-1.8,0.7-2.7,2.6-2.6C1544.7,552.1,1547.3,552,1549.9,552z"/>
			<path class="st1" d="M1560.1,474.1c0,2.5-0.1,4.9,0,7.4c0.1,1.9-0.7,2.8-2.7,2.7c-5.1-0.1-10.2-0.1-15.2,0
				c-1.9,0-2.7-0.8-2.7-2.7c0-5.1,0-10.2,0-15.2c0-1.9,0.9-2.7,2.8-2.7c5,0,10,0,15,0c2.2,0,2.8,0.6,2.8,2.8
				C1560.1,469,1560.1,471.5,1560.1,474.1z"/>
			<path class="st1" d="M1560.1,606.7c0,2.5,0,4.9,0,7.4c0,1.8-0.7,2.7-2.5,2.7c-5.1,0-10.3,0-15.4,0c-1.8,0-2.6-0.8-2.6-2.6
				c0-5.1,0-10.3,0-15.4c0-1.8,0.9-2.6,2.7-2.5c5.1,0,10.2,0.1,15.2,0c1.9,0,2.8,0.8,2.7,2.7
				C1560.1,601.5,1560.1,604.1,1560.1,606.7z"/>
		</g>
	</g>
	<g id="ENiWr2.tif_1_">
		<g>
			<path class="st1" d="M1524.5,911.7c-2.2,0-4.4,0-6.6,0c0-69.9,0-139.9,0-209.8c0-1.3,0.3-1.6,1.6-1.6c61.8,0,123.7,0,185.5,0
				c0,2.3,0,4.7,0,7c-1.7-5-5.3-6.7-10.5-6.7c-30.8,0.1-61.5,0.1-92.3,0.1c-24.7,0-49.4,0-74.1,0c-6.7,0-9.7,3.1-9.7,9.8
				c0,4.5,0,8.9,0,13.4c0,3.8,0,7.7,0,11.5c0,2.3,1.2,3.6,3.1,3.6c1.9,0,3.1-1.3,3.1-3.5c0-0.5,0-1,0-1.4c0-7.7,0-15.4,0-23.1
				c0-3.9,0.2-4.1,4-4.1c55.3,0,110.7,0,166,0c3.9,0,4.1,0.2,4.1,4c0,38.5,0,77,0,115.6c0,0.8-0.2,1.8,0.1,2.4
				c0.5,1,1.2,2.3,2.1,2.6c0.9,0.3,2.2-0.5,3.3-1c0.3-0.1,0.5-0.6,0.8-0.9c0,3.6,0,7.1,0,10.7c-1-1.5-2.3-2.7-4.2-2
				c-1.9,0.7-2.1,2.3-2.1,4.1c0,0.5,0,1.1,0,1.6c0,19.2,0,38.3,0,57.5c0,3.6-0.3,3.9-3.9,3.9c-55.5,0-110.9,0-166.4,0
				c-3.5,0-3.8-0.3-3.8-3.9c0-50.3,0-100.5,0-150.8c0-0.8,0-1.7-0.1-2.5c-0.2-1.6-1.1-2.6-2.8-2.8c-1.8-0.1-2.8,0.8-3.2,2.5
				c-0.1,0.6-0.1,1.2-0.1,1.8c0,50.9,0,101.8,0,152.7c0,1,0.1,2.1,0.3,3.1C1519.3,908.8,1521.8,910.4,1524.5,911.7z M1634.2,790.7
				c-16.8,0-33.6,0-50.4,0c-3.3,0-4.8,1-4.9,3.1c0,2.2,1.5,3.2,4.8,3.2c33.8,0,67.5,0,101.3,0c0.8,0,1.9,0.1,2.4-0.3
				c0.9-0.7,2-1.8,2.2-2.8c0.3-1.4-0.7-2.6-2.2-3c-0.9-0.2-1.8-0.2-2.7-0.2C1667.8,790.7,1651,790.7,1634.2,790.7z M1634.3,821.7
				c16.8,0,33.6,0,50.4,0c3.3,0,4.9-1,4.9-3.1c0-2.1-1.6-3.2-4.8-3.2c-33.8,0-67.5,0-101.3,0c-0.8,0-1.7,0-2.4,0.3
				c-1.5,0.4-2.5,1.6-2.1,3c0.3,1.1,1.3,2.1,2.3,2.7c0.6,0.4,1.7,0.3,2.6,0.3C1600.6,821.7,1617.5,821.7,1634.3,821.7z
				 M1634.3,733.3c16.7,0,33.5,0,50.2,0c0.7,0,1.4,0,2.1,0c1.8-0.2,3-1.4,3-3c0-1.6-1.2-2.9-3-3.1c-0.5-0.1-1.1,0-1.6,0
				c-33.8,0-67.7,0-101.5,0c-0.7,0-1.4-0.1-2.1,0.1c-1.7,0.4-2.7,1.4-2.6,3.2c0.1,1.7,1.1,2.6,2.7,2.9c0.7,0.1,1.4,0.1,2.1,0.1
				C1600.5,733.3,1617.4,733.3,1634.3,733.3z M1634.3,879.1c-14.5,0-29,0-43.4,0c-2.8,0-5.6,0-8.4,0c-2.2,0-3.6,1.3-3.6,3.1
				c0,1.8,1.4,3,3.6,3.1c0.3,0,0.7,0,1,0c33.8,0,67.7,0,101.5,0c3.1,0,4.7-1.1,4.6-3.1c0-2.1-1.5-3.1-4.7-3.1
				C1668,879.1,1651.2,879.1,1634.3,879.1z M1634.1,777.5c8.2,0,16.5,0,24.7,0c9.1,0,18.1,0,27.2,0c2.2,0,3.6-1.3,3.6-3.1
				c0-1.7-1.4-2.9-3.5-3.1c-0.4,0-0.8,0-1.2,0c-33.8,0-67.7,0-101.5,0c-3.1,0-4.6,1.1-4.6,3.2c0,2.1,1.5,3.1,4.7,3.1
				C1600.4,777.5,1617.3,777.5,1634.1,777.5z M1634.2,835c-17.2,0-34.3,0-51.5,0c-2.5,0-4,1.2-3.9,3.2c0,1.9,1.4,3,3.9,3.1
				c0.3,0,0.5,0,0.8,0c33.8,0,67.5,0,101.3,0c3.2,0,4.8-1.1,4.8-3.2c-0.1-2.1-1.6-3-4.7-3C1668,834.9,1651.1,834.9,1634.2,835z
				 M1634.1,859.6c-16.7,0-33.5,0-50.2,0c-0.8,0-1.7,0-2.5,0.1c-1.6,0.2-2.4,1.2-2.6,2.8c-0.1,1.5,0.6,2.7,2.1,3.1
				c0.8,0.2,1.8,0.3,2.6,0.3c33.7,0,67.4,0,101.1,0c3.3,0,4.9-1,4.9-3.1c0-2.1-1.5-3.1-4.8-3.1
				C1667.9,859.6,1651,859.6,1634.1,859.6z M1566.6,784.1C1566.6,784.1,1566.6,784.1,1566.6,784.1c0-2.7,0.1-5.5,0-8.2
				c-0.1-4.8-3.2-8.1-7.9-8.3c-5.8-0.2-11.5-0.2-17.3,0c-4.7,0.2-7.8,3.6-7.9,8.3c0,5.5-0.1,11,0,16.5c0,4.4,2.9,7.9,7.2,8
				c6.2,0.3,12.3,0.3,18.5,0c4.4-0.2,7.2-3.5,7.3-7.9C1566.6,789.8,1566.6,787,1566.6,784.1z M1566.6,828.3c0-2.7,0.1-5.5,0-8.2
				c-0.1-4.7-3-8-7.7-8.2c-5.9-0.2-11.8-0.2-17.7,0c-4.7,0.2-7.6,3.6-7.6,8.3c0,5.4,0,10.8,0,16.3c0,4.7,3.1,8.2,7.8,8.4
				c5.8,0.2,11.5,0.2,17.3,0c4.7-0.2,7.8-3.5,7.9-8.3C1566.6,833.8,1566.6,831,1566.6,828.3z M1566.6,739.9c0-2.8,0.1-5.6,0-8.4
				c-0.1-4.6-3.4-7.9-8-8c-5.7-0.1-11.4-0.1-17.1,0c-4.5,0.1-7.9,3.5-7.9,8c-0.1,5.6-0.1,11.2,0,16.9c0.1,4.6,3.3,8,7.9,8.1
				c5.8,0.1,11.5,0.1,17.3,0c4.5-0.1,7.7-3.4,7.8-7.9C1566.6,745.6,1566.6,742.8,1566.6,739.9z M1566.6,872.6c0-2.9,0.1-5.8,0-8.6
				c-0.1-4.5-3.3-7.8-7.8-7.9c-5.8-0.1-11.7-0.1-17.5,0c-4.5,0.1-7.7,3.5-7.7,8c-0.1,5.6-0.1,11.2,0,16.9c0.1,4.6,3.5,8,8.1,8.1
				c5.6,0.1,11.2,0.1,16.9,0c4.6-0.1,7.9-3.4,8-8C1566.6,878.2,1566.6,875.4,1566.6,872.6z M1617.3,752.8c11.6,0,23.2,0,34.8,0
				c2.4,0,3.8-1.3,3.8-3.2c0-1.8-1.5-3-3.7-3.1c-0.3,0-0.7,0-1,0c-22.5,0-45,0-67.5,0c-3.3,0-4.8,1-4.7,3.2c0,2.1,1.5,3,4.7,3
				C1594.8,752.8,1606,752.8,1617.3,752.8z M1675.8,752.8c3.4,0,6.7,0,10.1,0c2.3,0,3.6-1.2,3.7-3c0-1.9-1.4-3.2-3.8-3.2
				c-6.7,0-13.3,0-20,0c-2.4,0-3.8,1.3-3.8,3.2c0,1.9,1.4,3,3.9,3.1C1669.2,752.8,1672.5,752.8,1675.8,752.8z"/>
			<path d="M1524.5,911.7c-2.7-1.3-5.2-2.9-5.8-6.1c-0.2-1-0.3-2-0.3-3.1c0-50.9,0-101.8,0-152.7c0-0.6,0-1.3,0.1-1.8
				c0.4-1.7,1.5-2.6,3.2-2.5c1.7,0.1,2.6,1.1,2.8,2.8c0.1,0.8,0.1,1.6,0.1,2.5c0,50.3,0,100.5,0,150.8c0,3.6,0.3,3.9,3.8,3.9
				c55.5,0,110.9,0,166.4,0c3.5,0,3.9-0.3,3.9-3.9c0-19.2,0-38.3,0-57.5c0-0.5,0-1.1,0-1.6c-0.1-1.7,0.1-3.4,2.1-4.1
				c2-0.7,3.2,0.4,4.2,2c0,21.6,0,43.1,0,64.7c-1.1,3.3-3.3,5.5-6.6,6.6C1640.4,911.7,1582.4,911.7,1524.5,911.7z"/>
			<path d="M1704.9,829.7c-0.3,0.3-0.4,0.8-0.8,0.9c-1.1,0.4-2.3,1.3-3.3,1c-0.9-0.3-1.7-1.6-2.1-2.6c-0.3-0.7-0.1-1.6-0.1-2.4
				c0-38.5,0-77,0-115.6c0-3.8-0.2-4-4.1-4c-55.3,0-110.7,0-166,0c-3.8,0-4,0.2-4,4.1c0,7.7,0,15.4,0,23.1c0,0.5,0,1,0,1.4
				c-0.1,2.2-1.2,3.6-3.1,3.5c-1.9,0-3-1.4-3.1-3.6c0-3.8,0-7.7,0-11.5c0-4.5,0-8.9,0-13.4c0-6.8,3-9.8,9.7-9.8
				c24.7,0,49.4,0,74.1,0c30.8,0,61.5,0.1,92.3-0.1c5.2,0,8.7,1.6,10.5,6.7C1704.9,748.1,1704.9,788.9,1704.9,829.7z"/>
			<path class="st1" d="M1698.3,911.7c3.3-1.1,5.5-3.3,6.6-6.6c0,1.9,0,3.8,0,5.8c0,0.3-0.5,0.8-0.8,0.8
				C1702.2,911.7,1700.2,911.7,1698.3,911.7z"/>
			<path d="M1634.2,790.7c16.8,0,33.6,0,50.4,0c0.9,0,1.8,0,2.7,0.2c1.6,0.3,2.5,1.5,2.2,3c-0.2,1.1-1.3,2.1-2.2,2.8
				c-0.5,0.4-1.6,0.3-2.4,0.3c-33.8,0-67.5,0-101.3,0c-3.3,0-4.8-1-4.8-3.2c0-2.1,1.5-3.1,4.9-3.1
				C1600.5,790.7,1617.3,790.7,1634.2,790.7z"/>
			<path d="M1634.3,821.7c-16.8,0-33.6,0-50.4,0c-0.9,0-2,0.2-2.6-0.3c-1-0.7-2-1.7-2.3-2.7c-0.4-1.5,0.6-2.6,2.1-3
				c0.8-0.2,1.6-0.3,2.4-0.3c33.8,0,67.5,0,101.3,0c3.2,0,4.8,1.1,4.8,3.2c0,2.1-1.6,3.1-4.9,3.1
				C1667.9,821.7,1651.1,821.7,1634.3,821.7z"/>
			<path d="M1634.3,733.3c-16.9,0-33.8,0-50.6,0c-0.7,0-1.4,0-2.1-0.1c-1.6-0.2-2.6-1.2-2.7-2.9c-0.1-1.8,0.9-2.8,2.6-3.2
				c0.7-0.1,1.4-0.1,2.1-0.1c33.8,0,67.7,0,101.5,0c0.5,0,1.1,0,1.6,0c1.8,0.2,3,1.5,3,3.1c0,1.6-1.3,2.9-3,3c-0.7,0.1-1.4,0-2.1,0
				C1667.8,733.3,1651,733.3,1634.3,733.3z"/>
			<path d="M1634.3,879.1c16.9,0,33.8,0,50.6,0c3.2,0,4.7,1,4.7,3.1c0,2.1-1.5,3.1-4.6,3.1c-33.8,0-67.7,0-101.5,0c-0.3,0-0.7,0-1,0
				c-2.2-0.1-3.6-1.2-3.6-3.1c0-1.9,1.3-3.1,3.6-3.1c2.8,0,5.6,0,8.4,0C1605.3,879.1,1619.8,879.1,1634.3,879.1z"/>
			<path d="M1634.1,777.5c-16.9,0-33.8,0-50.6,0c-3.2,0-4.6-1-4.7-3.1c0-2.1,1.5-3.2,4.6-3.2c33.8,0,67.7,0,101.5,0
				c0.4,0,0.8,0,1.2,0c2.1,0.2,3.4,1.4,3.5,3.1c0,1.8-1.4,3.1-3.6,3.1c-9.1,0-18.1,0-27.2,0C1650.6,777.5,1642.4,777.5,1634.1,777.5
				z"/>
			<path d="M1634.2,835c16.9,0,33.8,0,50.6,0c3.2,0,4.7,1,4.7,3c0.1,2.1-1.5,3.2-4.8,3.2c-33.8,0-67.5,0-101.3,0c-0.3,0-0.5,0-0.8,0
				c-2.4-0.1-3.8-1.2-3.9-3.1c-0.1-2,1.4-3.2,3.9-3.2C1599.9,834.9,1617.1,835,1634.2,835z"/>
			<path d="M1634.1,859.6c16.9,0,33.8,0,50.6,0c3.3,0,4.9,1,4.8,3.1c0,2.1-1.6,3.1-4.9,3.1c-33.7,0-67.4,0-101.1,0
				c-0.9,0-1.8,0-2.6-0.3c-1.5-0.4-2.3-1.6-2.1-3.1c0.1-1.5,1-2.5,2.6-2.8c0.8-0.1,1.6-0.1,2.5-0.1
				C1600.6,859.6,1617.4,859.6,1634.1,859.6z"/>
			<path d="M1566.6,784.1c0,2.8,0.1,5.6,0,8.4c-0.1,4.4-3,7.7-7.3,7.9c-6.2,0.3-12.3,0.3-18.5,0c-4.3-0.2-7.1-3.7-7.2-8
				c-0.1-5.5-0.1-11,0-16.5c0-4.7,3.1-8.2,7.9-8.3c5.8-0.2,11.5-0.2,17.3,0c4.7,0.2,7.8,3.5,7.9,8.3
				C1566.6,778.7,1566.6,781.4,1566.6,784.1C1566.6,784.1,1566.6,784.1,1566.6,784.1z M1560.3,784.1c0-2.5,0-5.1,0-7.6
				c0-1.7-0.7-2.6-2.4-2.6c-5.3,0-10.6,0-15.8,0c-1.6,0-2.4,0.8-2.4,2.4c0,5.2,0,10.4,0,15.6c0,1.7,0.8,2.5,2.5,2.5
				c5.2,0,10.4,0,15.6,0c1.7,0,2.5-0.8,2.5-2.5C1560.3,789.3,1560.3,786.7,1560.3,784.1z"/>
			<path d="M1566.6,828.3c0,2.7,0.1,5.5,0,8.2c-0.1,4.8-3.2,8.1-7.9,8.3c-5.8,0.2-11.5,0.2-17.3,0c-4.7-0.2-7.8-3.6-7.8-8.4
				c0-5.4,0-10.8,0-16.3c0-4.7,3-8.1,7.6-8.3c5.9-0.3,11.8-0.3,17.7,0c4.7,0.2,7.6,3.5,7.7,8.2
				C1566.6,822.8,1566.6,825.5,1566.6,828.3z M1550.1,818c-2.6,0-5.2,0-7.8,0c-1.8,0-2.6,0.8-2.6,2.6c0,5.1,0,10.3,0,15.4
				c0,1.6,0.7,2.5,2.3,2.5c5.3,0,10.7,0,16,0c1.5,0,2.2-0.8,2.2-2.3c0-5.3,0-10.6,0-15.8c0-1.6-0.8-2.4-2.4-2.4
				C1555.4,818.1,1552.7,818,1550.1,818z"/>
			<path d="M1566.6,739.9c0,2.9,0.1,5.8,0,8.6c-0.1,4.5-3.3,7.8-7.8,7.9c-5.8,0.1-11.5,0.1-17.3,0c-4.6-0.1-7.8-3.5-7.9-8.1
				c-0.1-5.6-0.1-11.2,0-16.9c0.1-4.5,3.4-8,7.9-8c5.7-0.1,11.4-0.1,17.1,0c4.5,0.1,7.8,3.4,8,8
				C1566.6,734.2,1566.6,737.1,1566.6,739.9z M1560.3,740.1c0-2.5,0-5.1,0-7.6c0-2.2-0.6-2.8-2.8-2.8c-5,0-10,0-15,0
				c-1.9,0-2.8,0.8-2.8,2.7c0,5.1,0,10.2,0,15.2c0,1.9,0.8,2.7,2.7,2.7c5.1-0.1,10.2-0.1,15.2,0c2,0,2.7-0.8,2.7-2.7
				C1560.3,745,1560.3,742.6,1560.3,740.1z"/>
			<path d="M1566.6,872.6c0,2.8,0.1,5.6,0,8.4c-0.1,4.6-3.4,7.9-8,8c-5.6,0.1-11.2,0.1-16.9,0c-4.6-0.1-8-3.5-8.1-8.1
				c-0.1-5.6-0.1-11.2,0-16.9c0.1-4.5,3.3-7.9,7.7-8c5.8-0.1,11.7-0.1,17.5,0c4.5,0.1,7.6,3.4,7.8,7.9
				C1566.6,866.8,1566.6,869.7,1566.6,872.6z M1560.3,872.7c0-2.6-0.1-5.2,0-7.8c0.1-1.9-0.8-2.7-2.7-2.7c-5.1,0.1-10.2,0-15.2,0
				c-1.8,0-2.7,0.7-2.7,2.5c0,5.1,0,10.3,0,15.4c0,1.8,0.8,2.6,2.6,2.6c5.1,0,10.3,0,15.4,0c1.8,0,2.6-0.9,2.5-2.7
				C1560.3,877.7,1560.3,875.2,1560.3,872.7z"/>
			<path d="M1617.3,752.8c-11.2,0-22.5,0-33.7,0c-3.2,0-4.6-0.9-4.7-3c0-2.2,1.5-3.2,4.7-3.2c22.5,0,45,0,67.5,0c0.3,0,0.7,0,1,0
				c2.2,0.1,3.7,1.3,3.7,3.1c0.1,1.9-1.4,3.1-3.8,3.2C1640.4,752.8,1628.9,752.8,1617.3,752.8z"/>
			<path d="M1675.8,752.8c-3.3,0-6.6,0-9.9,0c-2.4,0-3.8-1.2-3.9-3.1c0-1.9,1.4-3.2,3.8-3.2c6.7,0,13.3,0,20,0
				c2.4,0,3.8,1.3,3.8,3.2c0,1.8-1.4,3-3.7,3C1682.6,752.8,1679.2,752.8,1675.8,752.8z"/>
			<path class="st1" d="M1560.3,784.1c0,2.6,0,5.2,0,7.8c0,1.7-0.7,2.5-2.5,2.5c-5.2,0-10.4,0-15.6,0c-1.7,0-2.5-0.8-2.5-2.5
				c0-5.2,0-10.4,0-15.6c0-1.6,0.8-2.4,2.4-2.4c5.3,0,10.6,0,15.8,0c1.7,0,2.4,0.9,2.4,2.6C1560.3,779,1560.3,781.5,1560.3,784.1z"
				/>
			<path class="st1" d="M1550.1,818c2.6,0,5.2,0,7.8,0c1.6,0,2.4,0.7,2.4,2.4c0,5.3,0,10.6,0,15.8c0,1.5-0.8,2.3-2.2,2.3
				c-5.3,0-10.7,0-16,0c-1.6,0-2.3-0.9-2.3-2.5c0-5.1,0-10.3,0-15.4c0-1.8,0.7-2.7,2.6-2.6C1544.9,818.1,1547.5,818,1550.1,818z"/>
			<path class="st1" d="M1560.3,740.1c0,2.5-0.1,4.9,0,7.4c0.1,1.9-0.7,2.8-2.7,2.7c-5.1-0.1-10.2-0.1-15.2,0
				c-1.9,0-2.7-0.8-2.7-2.7c0-5.1,0-10.2,0-15.2c0-1.9,0.9-2.7,2.8-2.7c5,0,10,0,15,0c2.2,0,2.8,0.6,2.8,2.8
				C1560.4,735,1560.3,737.5,1560.3,740.1z"/>
			<path class="st1" d="M1560.3,872.7c0,2.5,0,4.9,0,7.4c0,1.8-0.7,2.7-2.5,2.7c-5.1,0-10.3,0-15.4,0c-1.8,0-2.6-0.8-2.6-2.6
				c0-5.1,0-10.3,0-15.4c0-1.8,0.9-2.6,2.7-2.5c5.1,0,10.2,0.1,15.2,0c1.9,0,2.8,0.8,2.7,2.7
				C1560.3,867.5,1560.3,870.1,1560.3,872.7z"/>
		</g>
	</g>
	<g id="ENiWr2.tif_3_">
		<g>
			<path class="st1" d="M1524.2,379.7c-2.2,0-4.4,0-6.6,0c0-69.9,0-139.9,0-209.8c0-1.3,0.3-1.6,1.6-1.6c61.8,0,123.7,0,185.5,0
				c0,2.3,0,4.7,0,7c-1.7-5-5.3-6.7-10.5-6.7c-30.8,0.1-61.5,0.1-92.3,0.1c-24.7,0-49.4,0-74.1,0c-6.7,0-9.7,3.1-9.7,9.8
				c0,4.5,0,8.9,0,13.4c0,3.8,0,7.7,0,11.5c0,2.3,1.2,3.6,3.1,3.6c1.9,0,3.1-1.3,3.1-3.5c0-0.5,0-1,0-1.4c0-7.7,0-15.4,0-23.1
				c0-3.9,0.2-4.1,4-4.1c55.3,0,110.7,0,166,0c3.9,0,4.1,0.2,4.1,4c0,38.5,0,77,0,115.6c0,0.8-0.2,1.8,0.1,2.4
				c0.5,1,1.2,2.3,2.1,2.6c0.9,0.3,2.2-0.5,3.3-1c0.3-0.1,0.5-0.6,0.8-0.9c0,3.6,0,7.1,0,10.7c-1-1.5-2.3-2.7-4.2-2
				c-1.9,0.7-2.1,2.3-2.1,4.1c0,0.5,0,1.1,0,1.6c0,19.2,0,38.3,0,57.5c0,3.6-0.3,3.9-3.9,3.9c-55.5,0-110.9,0-166.4,0
				c-3.5,0-3.8-0.3-3.8-3.9c0-50.3,0-100.5,0-150.8c0-0.8,0-1.7-0.1-2.5c-0.2-1.6-1.1-2.6-2.8-2.8c-1.8-0.1-2.8,0.8-3.2,2.5
				c-0.1,0.6-0.1,1.2-0.1,1.8c0,50.9,0,101.8,0,152.7c0,1,0.1,2.1,0.3,3.1C1519.1,376.9,1521.6,378.4,1524.2,379.7z M1633.9,258.7
				c-16.8,0-33.6,0-50.4,0c-3.3,0-4.8,1-4.9,3.1c0,2.2,1.5,3.2,4.8,3.2c33.8,0,67.5,0,101.3,0c0.8,0,1.9,0.1,2.4-0.3
				c0.9-0.7,2-1.8,2.2-2.8c0.3-1.4-0.7-2.6-2.2-3c-0.9-0.2-1.8-0.2-2.7-0.2C1667.5,258.7,1650.7,258.7,1633.9,258.7z M1634,289.7
				c16.8,0,33.6,0,50.4,0c3.3,0,4.9-1,4.9-3.1c0-2.1-1.6-3.2-4.8-3.2c-33.8,0-67.5,0-101.3,0c-0.8,0-1.7,0-2.4,0.3
				c-1.5,0.4-2.5,1.6-2.1,3c0.3,1.1,1.3,2.1,2.3,2.7c0.6,0.4,1.7,0.3,2.6,0.3C1600.4,289.7,1617.2,289.7,1634,289.7z M1634,201.3
				c16.7,0,33.5,0,50.2,0c0.7,0,1.4,0,2.1,0c1.8-0.2,3-1.4,3-3c0-1.6-1.2-2.9-3-3.1c-0.5-0.1-1.1,0-1.6,0c-33.8,0-67.7,0-101.5,0
				c-0.7,0-1.4-0.1-2.1,0.1c-1.7,0.4-2.7,1.4-2.6,3.2c0.1,1.7,1.1,2.6,2.7,2.9c0.7,0.1,1.4,0.1,2.1,0.1
				C1600.3,201.3,1617.2,201.3,1634,201.3z M1634,347.1c-14.5,0-29,0-43.4,0c-2.8,0-5.6,0-8.4,0c-2.2,0-3.6,1.3-3.6,3.1
				c0,1.8,1.4,3,3.6,3.1c0.3,0,0.7,0,1,0c33.8,0,67.7,0,101.5,0c3.1,0,4.7-1.1,4.6-3.1c0-2.1-1.5-3.1-4.7-3.1
				C1667.8,347.1,1650.9,347.1,1634,347.1z M1633.9,245.5c8.2,0,16.5,0,24.7,0c9.1,0,18.1,0,27.2,0c2.2,0,3.6-1.3,3.6-3.1
				c0-1.7-1.4-2.9-3.5-3.1c-0.4,0-0.8,0-1.2,0c-33.8,0-67.7,0-101.5,0c-3.1,0-4.6,1.1-4.6,3.2c0,2.1,1.5,3.1,4.7,3.1
				C1600.2,245.5,1617,245.5,1633.9,245.5z M1634,303c-17.2,0-34.3,0-51.5,0c-2.5,0-4,1.2-3.9,3.2c0,1.9,1.4,3,3.9,3.1
				c0.3,0,0.5,0,0.8,0c33.8,0,67.5,0,101.3,0c3.2,0,4.8-1.1,4.8-3.2c-0.1-2.1-1.6-3-4.7-3C1667.8,303,1650.9,303,1634,303z
				 M1633.9,327.6c-16.7,0-33.5,0-50.2,0c-0.8,0-1.7,0-2.5,0.1c-1.6,0.2-2.4,1.2-2.6,2.8c-0.1,1.5,0.6,2.7,2.1,3.1
				c0.8,0.2,1.8,0.3,2.6,0.3c33.7,0,67.4,0,101.1,0c3.3,0,4.9-1,4.9-3.1c0-2.1-1.5-3.1-4.8-3.1
				C1667.7,327.6,1650.8,327.6,1633.9,327.6z M1566.3,252.2C1566.3,252.2,1566.3,252.2,1566.3,252.2c0-2.7,0.1-5.5,0-8.2
				c-0.1-4.8-3.2-8.1-7.9-8.3c-5.8-0.2-11.5-0.2-17.3,0c-4.7,0.2-7.8,3.6-7.9,8.3c0,5.5-0.1,11,0,16.5c0,4.4,2.9,7.9,7.2,8
				c6.2,0.3,12.3,0.3,18.5,0c4.4-0.2,7.2-3.5,7.3-7.9C1566.4,257.8,1566.3,255,1566.3,252.2z M1566.3,296.3c0-2.7,0.1-5.5,0-8.2
				c-0.1-4.7-3-8-7.7-8.2c-5.9-0.2-11.8-0.2-17.7,0c-4.7,0.2-7.6,3.6-7.6,8.3c0,5.4,0,10.8,0,16.3c0,4.7,3.1,8.2,7.8,8.4
				c5.8,0.2,11.5,0.2,17.3,0c4.7-0.2,7.8-3.5,7.9-8.3C1566.4,301.8,1566.3,299,1566.3,296.3z M1566.3,207.9c0-2.8,0.1-5.6,0-8.4
				c-0.1-4.6-3.4-7.9-8-8c-5.7-0.1-11.4-0.1-17.1,0c-4.5,0.1-7.9,3.5-7.9,8c-0.1,5.6-0.1,11.2,0,16.9c0.1,4.6,3.3,8,7.9,8.1
				c5.8,0.1,11.5,0.1,17.3,0c4.5-0.1,7.7-3.4,7.8-7.9C1566.4,213.6,1566.3,210.8,1566.3,207.9z M1566.3,340.6c0-2.9,0.1-5.8,0-8.6
				c-0.1-4.5-3.3-7.8-7.8-7.9c-5.8-0.1-11.7-0.1-17.5,0c-4.5,0.1-7.7,3.5-7.7,8c-0.1,5.6-0.1,11.2,0,16.9c0.1,4.6,3.5,8,8.1,8.1
				c5.6,0.1,11.2,0.1,16.9,0c4.6-0.1,7.9-3.4,8-8C1566.4,346.2,1566.3,343.4,1566.3,340.6z M1617,220.8c11.6,0,23.2,0,34.8,0
				c2.4,0,3.8-1.3,3.8-3.2c0-1.8-1.5-3-3.7-3.1c-0.3,0-0.7,0-1,0c-22.5,0-45,0-67.5,0c-3.3,0-4.8,1-4.7,3.2c0,2.1,1.5,3,4.7,3
				C1594.6,220.8,1605.8,220.8,1617,220.8z M1675.6,220.8c3.4,0,6.7,0,10.1,0c2.3,0,3.6-1.2,3.7-3c0-1.9-1.4-3.2-3.8-3.2
				c-6.7,0-13.3,0-20,0c-2.4,0-3.8,1.3-3.8,3.2c0,1.9,1.4,3,3.9,3.1C1669,220.8,1672.3,220.8,1675.6,220.8z"/>
			<path d="M1524.2,379.7c-2.7-1.3-5.2-2.9-5.8-6.1c-0.2-1-0.3-2-0.3-3.1c0-50.9,0-101.8,0-152.7c0-0.6,0-1.3,0.1-1.8
				c0.4-1.7,1.5-2.6,3.2-2.5c1.7,0.1,2.6,1.1,2.8,2.8c0.1,0.8,0.1,1.6,0.1,2.5c0,50.3,0,100.5,0,150.8c0,3.6,0.3,3.9,3.8,3.9
				c55.5,0,110.9,0,166.4,0c3.5,0,3.9-0.3,3.9-3.9c0-19.2,0-38.3,0-57.5c0-0.5,0-1.1,0-1.6c-0.1-1.7,0.1-3.4,2.1-4.1
				c2-0.7,3.2,0.4,4.2,2c0,21.6,0,43.1,0,64.7c-1.1,3.3-3.3,5.5-6.6,6.6C1640.1,379.7,1582.2,379.7,1524.2,379.7z"/>
			<path d="M1704.7,297.7c-0.2,0.3-0.4,0.8-0.8,0.9c-1.1,0.4-2.3,1.3-3.3,1c-0.9-0.3-1.7-1.6-2.1-2.6c-0.3-0.7-0.1-1.6-0.1-2.4
				c0-38.5,0-77,0-115.6c0-3.8-0.2-4-4.1-4c-55.3,0-110.7,0-166,0c-3.8,0-4,0.2-4,4.1c0,7.7,0,15.4,0,23.1c0,0.5,0,1,0,1.4
				c-0.1,2.2-1.2,3.6-3.1,3.5c-1.9,0-3-1.4-3.1-3.6c0-3.8,0-7.7,0-11.5c0-4.5,0-8.9,0-13.4c0-6.8,3-9.8,9.7-9.8
				c24.7,0,49.4,0,74.1,0c30.8,0,61.5,0.1,92.3-0.1c5.2,0,8.7,1.6,10.5,6.7C1704.7,216.1,1704.7,256.9,1704.7,297.7z"/>
			<path class="st1" d="M1698.1,379.7c3.3-1.1,5.5-3.3,6.6-6.6c0,1.9,0,3.8,0,5.8c0,0.3-0.5,0.8-0.8,0.8
				C1701.9,379.7,1700,379.7,1698.1,379.7z"/>
			<path d="M1633.9,258.7c16.8,0,33.6,0,50.4,0c0.9,0,1.8,0,2.7,0.2c1.6,0.3,2.5,1.5,2.2,3c-0.2,1.1-1.3,2.1-2.2,2.8
				c-0.5,0.4-1.6,0.3-2.4,0.3c-33.8,0-67.5,0-101.3,0c-3.3,0-4.8-1-4.8-3.2c0-2.1,1.5-3.1,4.9-3.1
				C1600.3,258.7,1617.1,258.7,1633.9,258.7z"/>
			<path d="M1634,289.7c-16.8,0-33.6,0-50.4,0c-0.9,0-2,0.2-2.6-0.3c-1-0.7-2-1.7-2.3-2.7c-0.4-1.5,0.6-2.6,2.1-3
				c0.8-0.2,1.6-0.3,2.4-0.3c33.8,0,67.5,0,101.3,0c3.2,0,4.8,1.1,4.8,3.2c0,2.1-1.6,3.1-4.9,3.1
				C1667.7,289.7,1650.8,289.7,1634,289.7z"/>
			<path d="M1634,201.3c-16.9,0-33.8,0-50.6,0c-0.7,0-1.4,0-2.1-0.1c-1.6-0.2-2.6-1.2-2.7-2.9c-0.1-1.8,0.9-2.8,2.6-3.2
				c0.7-0.1,1.4-0.1,2.1-0.1c33.8,0,67.7,0,101.5,0c0.5,0,1.1,0,1.6,0c1.8,0.2,3,1.5,3,3.1c0,1.6-1.3,2.9-3,3c-0.7,0.1-1.4,0-2.1,0
				C1667.5,201.3,1650.8,201.3,1634,201.3z"/>
			<path d="M1634,347.1c16.9,0,33.8,0,50.6,0c3.2,0,4.7,1,4.7,3.1c0,2.1-1.5,3.1-4.6,3.1c-33.8,0-67.7,0-101.5,0c-0.3,0-0.7,0-1,0
				c-2.2-0.1-3.6-1.2-3.6-3.1c0-1.9,1.3-3.1,3.6-3.1c2.8,0,5.6,0,8.4,0C1605.1,347.1,1619.6,347.1,1634,347.1z"/>
			<path d="M1633.9,245.5c-16.9,0-33.8,0-50.6,0c-3.2,0-4.6-1-4.7-3.1c0-2.1,1.5-3.2,4.6-3.2c33.8,0,67.7,0,101.5,0
				c0.4,0,0.8,0,1.2,0c2.1,0.2,3.4,1.4,3.5,3.1c0,1.8-1.4,3.1-3.6,3.1c-9.1,0-18.1,0-27.2,0C1650.4,245.5,1642.1,245.5,1633.9,245.5
				z"/>
			<path d="M1634,303c16.9,0,33.8,0,50.6,0c3.2,0,4.7,1,4.7,3c0.1,2.1-1.5,3.2-4.8,3.2c-33.8,0-67.5,0-101.3,0c-0.3,0-0.5,0-0.8,0
				c-2.4-0.1-3.8-1.2-3.9-3.1c-0.1-2,1.4-3.2,3.9-3.2C1599.7,303,1616.9,303,1634,303z"/>
			<path d="M1633.9,327.6c16.9,0,33.8,0,50.6,0c3.3,0,4.9,1,4.8,3.1c0,2.1-1.6,3.1-4.9,3.1c-33.7,0-67.4,0-101.1,0
				c-0.9,0-1.8,0-2.6-0.3c-1.5-0.4-2.3-1.6-2.1-3.1c0.1-1.5,1-2.5,2.6-2.8c0.8-0.1,1.6-0.1,2.5-0.1
				C1600.4,327.6,1617.2,327.6,1633.9,327.6z"/>
			<path d="M1566.3,252.2c0,2.8,0.1,5.6,0,8.4c-0.1,4.4-3,7.7-7.3,7.9c-6.2,0.3-12.3,0.3-18.5,0c-4.3-0.2-7.1-3.7-7.2-8
				c-0.1-5.5-0.1-11,0-16.5c0-4.7,3.1-8.2,7.9-8.3c5.8-0.2,11.5-0.2,17.3,0c4.7,0.2,7.8,3.5,7.9,8.3
				C1566.4,246.7,1566.3,249.4,1566.3,252.2C1566.3,252.2,1566.3,252.2,1566.3,252.2z M1560.1,252.1c0-2.5,0-5.1,0-7.6
				c0-1.7-0.7-2.6-2.4-2.6c-5.3,0-10.6,0-15.8,0c-1.6,0-2.4,0.8-2.4,2.4c0,5.2,0,10.4,0,15.6c0,1.7,0.8,2.5,2.5,2.5
				c5.2,0,10.4,0,15.6,0c1.7,0,2.5-0.8,2.5-2.5C1560.1,257.3,1560.1,254.7,1560.1,252.1z"/>
			<path d="M1566.3,296.3c0,2.7,0.1,5.5,0,8.2c-0.1,4.8-3.2,8.1-7.9,8.3c-5.8,0.2-11.5,0.2-17.3,0c-4.7-0.2-7.8-3.6-7.8-8.4
				c0-5.4,0-10.8,0-16.3c0-4.7,3-8.1,7.6-8.3c5.9-0.3,11.8-0.3,17.7,0c4.7,0.2,7.6,3.5,7.7,8.2
				C1566.4,290.8,1566.3,293.6,1566.3,296.3z M1549.9,286.1c-2.6,0-5.2,0-7.8,0c-1.8,0-2.6,0.8-2.6,2.6c0,5.1,0,10.3,0,15.4
				c0,1.6,0.7,2.5,2.3,2.5c5.3,0,10.7,0,16,0c1.5,0,2.2-0.8,2.2-2.3c0-5.3,0-10.6,0-15.8c0-1.6-0.8-2.4-2.4-2.4
				C1555.1,286.1,1552.5,286.1,1549.9,286.1z"/>
			<path d="M1566.3,207.9c0,2.9,0.1,5.8,0,8.6c-0.1,4.5-3.3,7.8-7.8,7.9c-5.8,0.1-11.5,0.1-17.3,0c-4.6-0.1-7.8-3.5-7.9-8.1
				c-0.1-5.6-0.1-11.2,0-16.9c0.1-4.5,3.4-8,7.9-8c5.7-0.1,11.4-0.1,17.1,0c4.5,0.1,7.8,3.4,8,8
				C1566.4,202.3,1566.3,205.1,1566.3,207.9z M1560.1,208.1c0-2.5,0-5.1,0-7.6c0-2.2-0.6-2.8-2.8-2.8c-5,0-10,0-15,0
				c-1.9,0-2.8,0.8-2.8,2.7c0,5.1,0,10.2,0,15.2c0,1.9,0.8,2.7,2.7,2.7c5.1-0.1,10.2-0.1,15.2,0c2,0,2.7-0.8,2.7-2.7
				C1560.1,213,1560.1,210.6,1560.1,208.1z"/>
			<path d="M1566.3,340.6c0,2.8,0.1,5.6,0,8.4c-0.1,4.6-3.4,7.9-8,8c-5.6,0.1-11.2,0.1-16.9,0c-4.6-0.1-8-3.5-8.1-8.1
				c-0.1-5.6-0.1-11.2,0-16.9c0.1-4.5,3.3-7.9,7.7-8c5.8-0.1,11.7-0.1,17.5,0c4.5,0.1,7.6,3.4,7.8,7.9
				C1566.4,334.8,1566.3,337.7,1566.3,340.6z M1560.1,340.7c0-2.6-0.1-5.2,0-7.8c0.1-1.9-0.8-2.7-2.7-2.7c-5.1,0.1-10.2,0-15.2,0
				c-1.8,0-2.7,0.7-2.7,2.5c0,5.1,0,10.3,0,15.4c0,1.8,0.8,2.6,2.6,2.6c5.1,0,10.3,0,15.4,0c1.8,0,2.6-0.9,2.5-2.7
				C1560.1,345.7,1560.1,343.2,1560.1,340.7z"/>
			<path d="M1617,220.8c-11.2,0-22.5,0-33.7,0c-3.2,0-4.6-0.9-4.7-3c0-2.2,1.5-3.2,4.7-3.2c22.5,0,45,0,67.5,0c0.3,0,0.7,0,1,0
				c2.2,0.1,3.7,1.3,3.7,3.1c0.1,1.9-1.4,3.1-3.8,3.2C1640.2,220.8,1628.6,220.8,1617,220.8z"/>
			<path d="M1675.6,220.8c-3.3,0-6.6,0-9.9,0c-2.4,0-3.8-1.2-3.9-3.1c0-1.9,1.4-3.2,3.8-3.2c6.7,0,13.3,0,20,0
				c2.4,0,3.8,1.3,3.8,3.2c0,1.8-1.4,3-3.7,3C1682.3,220.8,1679,220.8,1675.6,220.8z"/>
			<path class="st1" d="M1560.1,252.1c0,2.6,0,5.2,0,7.8c0,1.7-0.7,2.5-2.5,2.5c-5.2,0-10.4,0-15.6,0c-1.7,0-2.5-0.8-2.5-2.5
				c0-5.2,0-10.4,0-15.6c0-1.6,0.8-2.4,2.4-2.4c5.3,0,10.6,0,15.8,0c1.7,0,2.4,0.9,2.4,2.6C1560.1,247,1560.1,249.5,1560.1,252.1z"
				/>
			<path class="st1" d="M1549.9,286.1c2.6,0,5.2,0,7.8,0c1.6,0,2.4,0.7,2.4,2.4c0,5.3,0,10.6,0,15.8c0,1.5-0.8,2.3-2.2,2.3
				c-5.3,0-10.7,0-16,0c-1.6,0-2.3-0.9-2.3-2.5c0-5.1,0-10.3,0-15.4c0-1.8,0.7-2.7,2.6-2.6C1544.7,286.1,1547.3,286.1,1549.9,286.1z
				"/>
			<path class="st1" d="M1560.1,208.1c0,2.5-0.1,4.9,0,7.4c0.1,1.9-0.7,2.8-2.7,2.7c-5.1-0.1-10.2-0.1-15.2,0
				c-1.9,0-2.7-0.8-2.7-2.7c0-5.1,0-10.2,0-15.2c0-1.9,0.9-2.7,2.8-2.7c5,0,10,0,15,0c2.2,0,2.8,0.6,2.8,2.8
				C1560.1,203,1560.1,205.6,1560.1,208.1z"/>
			<path class="st1" d="M1560.1,340.7c0,2.5,0,4.9,0,7.4c0,1.8-0.7,2.7-2.5,2.7c-5.1,0-10.3,0-15.4,0c-1.8,0-2.6-0.8-2.6-2.6
				c0-5.1,0-10.3,0-15.4c0-1.8,0.9-2.6,2.7-2.5c5.1,0,10.2,0.1,15.2,0c1.9,0,2.8,0.8,2.7,2.7
				C1560.1,335.5,1560.1,338.1,1560.1,340.7z"/>
		</g>
	</g>
	<g>
		<g>
			<path d="M1477,966.1l-9.4-1.1v-2.9h19.4v2.9l-8.6,1.1H1477z M1501.7,962.1h2.3l13,40.4h-1.8l11.2-40.4h3.6l-13.1,48.7h-2.9
				l-13.8-41.1h2.3l-13,41.1h-2.8l-14-48.7h6.7l10.9,40.4h-2L1501.7,962.1z M1502.4,966.1l-9.2-1.1v-2.9h19.4v2.9l-8.8,1.1H1502.4z
				 M1526.2,966.1l-7.6-1.1v-2.9h16.4v2.9l-7.4,1.1H1526.2z"/>
			<path d="M1568.8,989c0,1.7-0.2,3.1-0.5,4h-26.6v-3h17.1c3.5,0,4.2-1.7,4.2-3.7c0-4.1-3.5-7.8-8-7.8c-4.6,0-9.9,3.9-9.9,14.2
				c0,9.1,4.6,14,11.8,14c4.6,0,7.5-2.1,10.1-5.1l1.7,1.3c-2.6,5.1-7.2,8.4-13.8,8.4c-9.6,0-15.9-6.7-15.9-17.6
				c0-11,7.5-18.4,16.4-18.4C1562.9,975.3,1568.8,980.3,1568.8,989z"/>
			<path d="M1574.6,1007.8l7.8-1.4l-2.4,4c0.1-3.2,0.2-10.7,0.2-15.1v-31.7l-6-0.7v-2.5l10.8-3.2l1,0.6l-0.3,10.2v13.8l0.2,0.9v22
				l-0.7,6.4l-10.7-0.7V1007.8z M1604.4,993.6c0-9.3-3.8-14.3-9.3-14.3c-2.6,0-6.1,1.2-11.4,6.4l-0.6-1.3c4.2-6.3,8.9-9.1,13.8-9.1
				c7.6,0,13.7,6.6,13.7,17.6s-6.3,18.4-14.8,18.4c-4.4,0-8.9-1.9-12.7-9.4l0.6-1.2c3.7,4.8,7.6,6.6,11,6.6
				C1599.9,1007.3,1604.4,1002.9,1604.4,993.6z"/>
			<path d="M1617.6,1008.6l-0.3-7.8h3.8l1.9,8.5l-3.5-1.7v-2.4c2.5,1.9,5.3,3,8.9,3c5.5,0,8.1-2.2,8.1-5.5c0-3.1-2.2-4.7-6.7-6.3
				l-3.3-1.2c-5.3-1.9-8.7-4.8-8.7-9.6c0-5.2,4.4-10,12.4-10c3.9,0,6.9,1.1,10,3l-0.3,7.3h-3.6l-1.4-7.3l2.6,1.2v1.9
				c-2.3-1.8-4.8-2.7-7.3-2.7c-4.5,0-6.8,1.9-6.8,5c0,3.2,1.8,4.5,6.7,6.3l2.2,0.8c7.2,2.7,9.9,6,9.9,10.5c0,5.3-4.7,10.2-13.9,10.2
				C1624.2,1011.3,1621.1,1010.4,1617.6,1008.6z"/>
			<path d="M1653,1010.4c0.1-3.2,0.2-10.7,0.2-15.1v-3.4c0-4-0.1-6.2-0.2-9.1l-5.9-0.6v-2.5l10.9-4.3l1.1,0.7l-0.2,9.7v9.5
				c0,4.5,0.1,11.9,0.2,15.1H1653z M1664.1,1007.8v2.5h-16.6v-2.5l7.9-1.4h1.4L1664.1,1007.8z M1651.2,962.6c0-2.7,2.1-4.5,4.8-4.5
				c2.7,0,4.8,1.8,4.8,4.5c0,2.7-2.1,4.5-4.8,4.5C1653.3,967.2,1651.2,965.3,1651.2,962.6z"/>
			<path d="M1682.9,1007.7c1.6,0,3-0.6,4.9-2l1.7,1.9c-1.8,2.3-4.8,3.7-8.4,3.7c-5,0-8.1-2.6-8.1-8.1c0-1.7,0.1-3.2,0.1-6V980h-6
				v-3.1l8.9-1.2l-2.9,2.4l2.2-11.7h4.2l-0.6,12.6v23.3C1678.8,1006.1,1680.4,1007.7,1682.9,1007.7z M1688.8,976.2v3.7h-12.8v-3.7
				H1688.8z"/>
			<path d="M1722.7,989c0,1.7-0.2,3.1-0.5,4h-26.6v-3h17.1c3.5,0,4.2-1.7,4.2-3.7c0-4.1-3.5-7.8-8-7.8c-4.6,0-9.9,3.9-9.9,14.2
				c0,9.1,4.6,14,11.8,14c4.6,0,7.5-2.1,10.1-5.1l1.7,1.3c-2.6,5.1-7.2,8.4-13.8,8.4c-9.6,0-15.9-6.7-15.9-17.6
				c0-11,7.5-18.4,16.4-18.4C1716.8,975.3,1722.7,980.3,1722.7,989z"/>
			<path d="M1730,1008.6l-0.3-7.8h3.8l1.9,8.5l-3.5-1.7v-2.4c2.5,1.9,5.3,3,8.9,3c5.5,0,8.1-2.2,8.1-5.5c0-3.1-2.2-4.7-6.7-6.3
				l-3.3-1.2c-5.3-1.9-8.7-4.8-8.7-9.6c0-5.2,4.4-10,12.4-10c3.9,0,6.9,1.1,10,3l-0.3,7.3h-3.6l-1.4-7.3l2.6,1.2v1.9
				c-2.3-1.8-4.8-2.7-7.3-2.7c-4.5,0-6.8,1.9-6.8,5c0,3.2,1.8,4.5,6.7,6.3l2.2,0.8c7.2,2.7,9.9,6,9.9,10.5c0,5.3-4.7,10.2-13.9,10.2
				C1736.6,1011.3,1733.5,1010.4,1730,1008.6z"/>
		</g>
	</g>
	<g>
		<g>
			<path d="M327.9,951.8v-2.9h20.2v2.9l-9.4,1.1h-1.4L327.9,951.8z M347.7,981l-15.8-32h7.5l13.1,28.4H350l13.5-28.4h3.7l-15.5,32
				H347.7z M350.4,993.2l10.1,1.1v2.9h-21.6v-2.9l10.1-1.1H350.4z M346.5,975.6h6.5c0,8.2,0,15.2,0.2,21.6h-6.9
				C346.5,990.9,346.5,983.8,346.5,975.6z M363.1,952.9l-8-1.1v-2.9h16.6v2.9l-7.2,1.1H363.1z"/>
			<path d="M375.7,980.2c0-12,8.1-18.1,16.4-18.1c8.1,0,16.4,6.2,16.4,18.1c0,12-8.3,17.9-16.4,17.9
				C383.8,998.1,375.7,992.2,375.7,980.2z M402.1,980.2c0-9.6-3.7-14.9-9.9-14.9c-6.4,0-9.9,5.3-9.9,14.9c0,9.6,3.5,14.6,9.9,14.6
				C398.4,994.9,402.1,989.9,402.1,980.2z"/>
			<path d="M424.4,984.4c0,6.4,1.9,8.6,5.8,8.6c3.7,0,7.4-1.8,11-5.4h1.5v3.7h-3.7l2.5-1.1c-4.1,5.5-9,7.8-13.7,7.8
				c-5.8,0-9.4-3.5-9.3-13l0.2-19l1.5,1.4l-6.7-1.4v-2.5l10.4-0.9l0.7,0.7l-0.4,10.1V984.4z M441.5,997.7l-1-8.4l0.2-23.2l1.5,1.4
				l-6.7-1.4v-2.5l10.2-0.9l0.7,0.7l-0.2,10.1v21.5l-1.7-1.7l6.7,1.4v2.5L441.5,997.7z"/>
		</g>
	</g>
</g>
<g id="direct">
	<g>
		<line x1="550.5" y1="490.5" x2="1470.8" y2="286"/>
		<g>
			<line class="st2" x1="550.5" y1="490.5" x2="1467.6" y2="286.7"/>
			<g>
				<polygon class="st3" points="1460.6,300.9 1458.1,299.2 1466.5,287 1453.8,279.5 1455.3,276.9 1470.8,286 				"/>
			</g>
		</g>
	</g>
	<g>
		<g>
			<line class="st2" x1="550.5" y1="545.7" x2="1452" y2="545.7"/>
			<g>
				<polygon class="st3" points="1442,558 1440,555.8 1450.8,545.7 1440,535.6 1442,533.4 1455.2,545.7 				"/>
			</g>
		</g>
	</g>
	<g>
		<line x1="550.5" y1="596.8" x2="1455.2" y2="818"/>
		<g>
			<line class="st2" x1="550.5" y1="596.8" x2="1452.1" y2="817.3"/>
			<g>
				<polygon class="st3" points="1439.5,826.8 1438,824.2 1450.9,817 1442.8,804.6 1445.3,803 1455.2,818 				"/>
			</g>
		</g>
	</g>
</g>
<g id="search">
	<g id="crhA1J.tif">
		<g>
			<path d="M831.1,657.3c0-86,0-172.1,0-258.3c40.4,0,80.7,0,121.1,0c0,86,0,172.1,0,258.3C911.6,657.3,871.4,657.3,831.1,657.3z
				 M839.3,443.2c35,0,69.9,0,104.7,0c0-6.7,0-13.2,0-20c-2.7,0-5.2,0-7.8,0c0-2.8,0-5.4,0-8.1c2.7,0,5.2,0,7.7,0c0-2.7,0-5.3,0-7.8
				c-35,0-69.8,0-104.7,0c0,2.7,0,5.2,0,7.9c2.7,0,5.2,0,7.8,0c0,2.8,0,5.4,0,8.1c-2.7,0-5.2,0-7.8,0
				C839.3,430,839.3,436.5,839.3,443.2z M944,613.1c-35,0-69.9,0-104.6,0c0,6.8,0,13.3,0,20.1c2.7,0,5.2,0,7.7,0c0,2.7,0,5.3,0,8
				c-2.7,0-5.2,0-7.7,0c0,2.7,0,5.3,0,7.8c35,0,69.8,0,104.7,0c0-2.7,0-5.2,0-7.9c-2.7,0-5.2,0-7.8,0c0-2.8,0-5.4,0-8.1
				c2.7,0,5.2,0,7.8,0C944,626.3,944,619.8,944,613.1z M944,451.6c-35,0-69.9,0-104.6,0c0,8.1,0,16,0,23.9c35,0,69.7,0,104.6,0
				C944,467.5,944,459.7,944,451.6z M839.3,604.6c35,0,69.9,0,104.7,0c0-8,0-15.9,0-23.9c-34.9,0-69.8,0-104.7,0
				C839.3,588.7,839.3,596.6,839.3,604.6z M839.3,572.4c35,0,69.9,0,104.6,0c0-8.1,0-16,0-23.9c-35,0-69.7,0-104.6,0
				C839.3,556.4,839.3,564.3,839.3,572.4z M944,516.2c-35,0-69.9,0-104.6,0c0,8.1,0,16,0,23.9c35,0,69.7,0,104.6,0
				C944,532.1,944,524.2,944,516.2z M839.4,483.8c0,8.1,0,16.1,0,23.9c35,0,69.8,0,104.6,0c0-8.1,0-15.9,0-23.9
				C909.1,483.8,874.3,483.8,839.4,483.8z"/>
			<path d="M968.3,399c40.4,0,80.7,0,121.1,0c0,86,0,172.1,0,258.1c-40.5,0-80.7,0-121.1,0C968.3,570.9,968.3,485,968.3,399z
				 M1081.2,407.2c-35,0-69.9,0-104.7,0c0,2.7,0,5.2,0,7.9c2.7,0,5.2,0,7.8,0c0,2.8,0,5.4,0,8.1c-2.7,0-5.2,0-7.7,0
				c0,6.8,0,13.4,0,19.9c35,0,69.8,0,104.7,0c0-6.7,0-13.2,0-20c-2.7,0-5.2,0-7.8,0c0-2.8,0-5.4,0-8.1c2.7,0,5.2,0,7.8,0
				C1081.2,412.4,1081.2,409.9,1081.2,407.2z M984.3,633.1c0,2.8,0,5.4,0,8.2c-2.7,0-5.3,0-7.8,0c0,2.8,0,5.3,0,7.8
				c35,0,69.8,0,104.6,0c0-2.7,0-5.3,0-8c-2.7,0-5.2,0-7.7,0c0-2.7,0-5.3,0-8.1c2.7,0,5.3,0,7.8,0c0-6.8,0-13.3,0-19.9
				c-35,0-69.8,0-104.6,0c0,6.7,0,13.3,0,20C979.2,633.1,981.6,633.1,984.3,633.1z M976.5,475.5c35,0,69.9,0,104.6,0
				c0-8.1,0-16,0-23.9c-35,0-69.7,0-104.6,0C976.5,459.6,976.5,467.4,976.5,475.5z M1081.2,580.8c-35,0-69.8,0-104.6,0
				c0,8.1,0,16,0,23.9c35,0,69.7,0,104.6,0C1081.2,596.7,1081.2,588.8,1081.2,580.8z M976.5,572.4c35,0,69.9,0,104.6,0
				c0-8.1,0-16,0-23.9c-35,0-69.7,0-104.6,0C976.5,556.4,976.5,564.3,976.5,572.4z M976.5,540.1c35,0,69.9,0,104.7,0
				c0-8,0-15.9,0-23.9c-34.9,0-69.8,0-104.7,0C976.5,524.2,976.5,532,976.5,540.1z M1081.2,483.9c-35,0-69.8,0-104.6,0
				c0,8.1,0,16,0,23.9c35,0,69.7,0,104.6,0C1081.2,499.8,1081.2,492,1081.2,483.9z"/>
			<path d="M855.5,415.2c24.1,0,48.1,0,72.3,0c0,2.5,0,5.1,0,7.8c-24,0-48.1,0-72.3,0C855.5,420.5,855.5,418,855.5,415.2z"/>
			<path d="M855.5,633.2c24.1,0,48.1,0,72.3,0c0,2.5,0,5.1,0,7.8c-24.1,0-48.1,0-72.3,0C855.5,638.5,855.5,636,855.5,633.2z"/>
			<path d="M912,459.6c8.1,0,15.9,0,23.9,0c0,2.6,0,5.1,0,7.8c-7.9,0-15.8,0-23.9,0C912,464.9,912,462.4,912,459.6z"/>
			<path d="M895.8,467.5c0-2.7,0-5.1,0-7.8c2.6,0,5.1,0,7.8,0c0,2.6,0,5.1,0,7.8C901,467.5,898.5,467.5,895.8,467.5z"/>
			<path d="M887.5,467.5c-2.6,0-5.1,0-7.7,0c0-2.5,0-5.1,0-7.8c2.5,0,5.1,0,7.7,0C887.5,462.2,887.5,464.7,887.5,467.5z"/>
			<path d="M871.3,467.5c-2.6,0-5.1,0-7.8,0c0-2.6,0-5.1,0-7.8c2.6,0,5.1,0,7.8,0C871.3,462.2,871.3,464.7,871.3,467.5z"/>
			<path d="M855.2,459.7c0,2.6,0,5.1,0,7.7c-2.6,0-5.2,0-7.8,0c0-2.6,0-5.1,0-7.7C849.9,459.7,852.4,459.7,855.2,459.7z"/>
			<path d="M935.9,596.6c-8,0-15.8,0-23.9,0c0-2.5,0-5.1,0-7.8c7.9,0,15.8,0,23.9,0C935.9,591.4,935.9,594,935.9,596.6z"/>
			<path d="M847.4,588.8c2.7,0,5.1,0,7.8,0c0,2.6,0,5.1,0,7.8c-2.5,0-5,0-7.8,0C847.4,594.1,847.4,591.5,847.4,588.8z"/>
			<path d="M871.3,596.6c-2.7,0-5.1,0-7.8,0c0-2.6,0-5.1,0-7.8c2.6,0,5.1,0,7.8,0C871.3,591.4,871.3,593.9,871.3,596.6z"/>
			<path d="M879.7,588.8c2.7,0,5.2,0,7.8,0c0,2.6,0,5.1,0,7.8c-2.5,0-5,0-7.8,0C879.7,594.1,879.7,591.5,879.7,588.8z"/>
			<path d="M895.9,588.8c2.6,0,5.1,0,7.7,0c0,2.6,0,5.2,0,7.8c-2.6,0-5,0-7.7,0C895.9,594.1,895.9,591.6,895.9,588.8z"/>
			<path d="M935.9,556.5c0,2.6,0,5.1,0,7.8c-7.9,0-15.9,0-23.9,0c0-2.5,0-5.1,0-7.8C919.9,556.5,927.8,556.5,935.9,556.5z"/>
			<path d="M847.4,556.4c2.7,0,5.1,0,7.7,0c0,2.6,0,5.1,0,7.8c-2.5,0-5,0-7.7,0C847.4,561.7,847.4,559.2,847.4,556.4z"/>
			<path d="M863.6,556.4c2.6,0,5.1,0,7.7,0c0,2.6,0,5.1,0,7.8c-2.5,0-5,0-7.7,0C863.6,561.7,863.6,559.1,863.6,556.4z"/>
			<path d="M879.7,556.5c2.6,0,5.1,0,7.7,0c0,2.6,0,5.2,0,7.8c-2.5,0-5,0-7.7,0C879.7,561.8,879.7,559.3,879.7,556.5z"/>
			<path d="M903.6,564.3c-2.6,0-5.1,0-7.7,0c0-2.5,0-5.1,0-7.8c2.5,0,5.1,0,7.7,0C903.6,559.1,903.6,561.6,903.6,564.3z"/>
			<path d="M935.9,524.3c0,2.7,0,5.2,0,7.8c-8,0-15.8,0-23.9,0c0-2.5,0-5,0-7.8C919.9,524.3,927.8,524.3,935.9,524.3z"/>
			<path d="M847.4,524.2c2.6,0,5.1,0,7.7,0c0,2.5,0,5.1,0,7.8c-2.5,0-5.1,0-7.7,0C847.4,529.5,847.4,527,847.4,524.2z"/>
			<path d="M871.2,532.1c-2.6,0-5.1,0-7.7,0c0-2.6,0-5.1,0-7.8c2.5,0,5,0,7.7,0C871.2,526.9,871.2,529.5,871.2,532.1z"/>
			<path d="M903.6,524.2c0,2.6,0,5.1,0,7.8c-2.6,0-5.1,0-7.8,0c0-2.5,0-5.1,0-7.8C898.4,524.2,900.9,524.2,903.6,524.2z"/>
			<path d="M879.7,524.2c2.6,0,5.1,0,7.7,0c0,2.6,0,5.2,0,7.8c-2.6,0-5,0-7.7,0C879.7,529.5,879.7,527,879.7,524.2z"/>
			<path d="M935.9,492c0,2.7,0,5.1,0,7.8c-8,0-15.8,0-23.9,0c0-2.5,0-5,0-7.8C919.9,492,927.8,492,935.9,492z"/>
			<path d="M903.6,492c0,2.6,0,5.1,0,7.7c-2.6,0-5.2,0-7.8,0c0-2.6,0-5.1,0-7.7C898.3,492,900.9,492,903.6,492z"/>
			<path d="M879.6,499.7c0-2.6,0-5.1,0-7.7c2.5,0,5.1,0,7.8,0c0,2.5,0,5.1,0,7.7C884.9,499.7,882.4,499.7,879.6,499.7z"/>
			<path d="M871.3,499.8c-2.7,0-5.1,0-7.7,0c0-2.6,0-5.1,0-7.8c2.5,0,5,0,7.7,0C871.3,494.5,871.3,497.1,871.3,499.8z"/>
			<path d="M855.2,492c0,2.6,0,5.1,0,7.7c-2.6,0-5.2,0-7.8,0c0-2.6,0-5,0-7.7C849.9,492,852.4,492,855.2,492z"/>
			<path d="M992.7,423c0-2.7,0-5.2,0-7.8c24.1,0,48.1,0,72.3,0c0,2.5,0,5,0,7.8C1041,423,1016.9,423,992.7,423z"/>
			<path d="M992.7,633.2c24.1,0,48.1,0,72.3,0c0,2.5,0,5.1,0,7.8c-24,0-48.1,0-72.3,0C992.7,638.5,992.7,636,992.7,633.2z"/>
			<path d="M1049.2,467.4c0-2.7,0-5.2,0-7.8c8,0,15.8,0,23.9,0c0,2.5,0,5,0,7.8C1065.2,467.4,1057.3,467.4,1049.2,467.4z"/>
			<path d="M992.4,467.5c-2.7,0-5.1,0-7.7,0c0-2.6,0-5.1,0-7.8c2.5,0,5,0,7.7,0C992.4,462.2,992.4,464.8,992.4,467.5z"/>
			<path d="M1033,467.4c0-2.6,0-5.1,0-7.7c2.5,0,5.1,0,7.8,0c0,2.5,0,5.1,0,7.7C1038.3,467.4,1035.8,467.4,1033,467.4z"/>
			<path d="M1000.7,459.6c2.6,0,5.1,0,7.8,0c0,2.6,0,5.1,0,7.8c-2.6,0-5.1,0-7.8,0C1000.7,464.9,1000.7,462.4,1000.7,459.6z"/>
			<path d="M1024.6,467.5c-2.6,0-5.1,0-7.7,0c0-2.6,0-5.1,0-7.8c2.5,0,5,0,7.7,0C1024.6,462.3,1024.6,464.9,1024.6,467.5z"/>
			<path d="M1073.1,588.8c0,2.7,0,5.1,0,7.8c-8,0-15.8,0-23.9,0c0-2.5,0-5,0-7.8C1057.1,588.8,1065,588.8,1073.1,588.8z"/>
			<path d="M992.4,596.6c-2.7,0-5.2,0-7.8,0c0-2.6,0-5.1,0-7.8c2.5,0,5.1,0,7.8,0C992.4,591.4,992.4,593.9,992.4,596.6z"/>
			<path d="M1000.7,588.8c2.6,0,5.1,0,7.8,0c0,2.6,0,5.1,0,7.8c-2.5,0-5.1,0-7.8,0C1000.7,594,1000.7,591.6,1000.7,588.8z"/>
			<path d="M1024.7,596.6c-2.7,0-5.2,0-7.8,0c0-2.6,0-5.1,0-7.8c2.5,0,5,0,7.8,0C1024.7,591.4,1024.7,593.9,1024.7,596.6z"/>
			<path d="M1033.1,588.8c2.6,0,5.1,0,7.7,0c0,2.6,0,5.2,0,7.8c-2.5,0-5,0-7.7,0C1033.1,594.1,1033.1,591.6,1033.1,588.8z"/>
			<path d="M1049.2,564.3c0-2.7,0-5.2,0-7.8c8,0,15.8,0,23.9,0c0,2.5,0,5,0,7.8C1065.2,564.3,1057.3,564.3,1049.2,564.3z"/>
			<path d="M992.4,556.5c0,2.6,0,5.1,0,7.8c-2.6,0-5.1,0-7.8,0c0-2.5,0-5.1,0-7.8C987.2,556.5,989.7,556.5,992.4,556.5z"/>
			<path d="M1000.7,564.3c0-2.7,0-5.2,0-7.8c2.6,0,5.1,0,7.8,0c0,2.5,0,5,0,7.8C1006,564.3,1003.5,564.3,1000.7,564.3z"/>
			<path d="M1024.7,556.5c0,2.6,0,5.1,0,7.7c-2.5,0-5.1,0-7.8,0c0-2.5,0-5.1,0-7.7C1019.4,556.5,1021.9,556.5,1024.7,556.5z"/>
			<path d="M1033,556.5c2.6,0,5.1,0,7.8,0c0,2.6,0,5.1,0,7.8c-2.6,0-5.1,0-7.8,0C1033,561.7,1033,559.3,1033,556.5z"/>
			<path d="M1073.2,524.3c0,2.7,0,5.1,0,7.8c-8,0-15.8,0-23.9,0c0-2.5,0-5,0-7.8C1057.1,524.3,1065,524.3,1073.2,524.3z"/>
			<path d="M984.5,532c0-2.7,0-5.1,0-7.7c2.6,0,5.1,0,7.8,0c0,2.5,0,5,0,7.7C989.8,532,987.3,532,984.5,532z"/>
			<path d="M1000.7,532c0-2.6,0-5.1,0-7.8c2.6,0,5.1,0,7.8,0c0,2.5,0,5.1,0,7.8C1006,532,1003.5,532,1000.7,532z"/>
			<path d="M1016.9,532c0-2.6,0-5.1,0-7.7c2.5,0,5.1,0,7.8,0c0,2.5,0,5.1,0,7.7C1022.1,532,1019.7,532,1016.9,532z"/>
			<path d="M1040.8,532.1c-2.7,0-5.1,0-7.7,0c0-2.6,0-5.1,0-7.8c2.5,0,5,0,7.7,0C1040.8,526.8,1040.8,529.4,1040.8,532.1z"/>
			<path d="M1049.1,499.7c0-2.6,0-5.1,0-7.7c8,0,15.9,0,24,0c0,2.5,0,5,0,7.7C1065.3,499.7,1057.3,499.7,1049.1,499.7z"/>
			<path d="M1033.1,491.9c2.6,0,5.1,0,7.7,0c0,2.6,0,5.2,0,7.8c-2.5,0-5,0-7.7,0C1033.1,497.3,1033.1,494.7,1033.1,491.9z"/>
			<path d="M1024.6,499.8c-2.6,0-5.1,0-7.7,0c0-2.6,0-5.2,0-7.8c2.5,0,5,0,7.7,0C1024.6,494.4,1024.6,497,1024.6,499.8z"/>
			<path d="M1008.6,499.8c-2.6,0-5.1,0-7.8,0c0-2.6,0-5.1,0-7.8c2.5,0,5.1,0,7.8,0C1008.6,494.5,1008.6,497,1008.6,499.8z"/>
			<path d="M984.6,499.7c0-2.6,0-5.1,0-7.7c2.6,0,5.2,0,7.8,0c0,2.6,0,5.1,0,7.7C989.9,499.7,987.3,499.7,984.6,499.7z"/>
		</g>
	</g>
	<g>
		<g>
			<path d="M892.3,994c-5,2.6-9.9,4.2-15.8,4.2c-14.4,0-24.2-10.7-24.2-25.2s9.9-25.2,24.5-25.2c6,0,10.4,1.1,14.5,3.5l0.3,10.4
				h-4.4l-1.8-10.7l4.5,1.4v4.1c-3.9-3.6-7.8-5.2-12.5-5.2c-10.1,0-17.5,7.8-17.5,21.6c0,13.7,6.8,21.5,18,21.5
				c4.1,0,7.1-0.9,11.2-3l-3.2,3.4v-4.2c0-5.5-0.1-11.1-0.2-16.6h6.9c-0.1,5.4-0.2,10.9-0.2,16.6V994z M878.1,977.1v-2.9h18.7v2.9
				l-7.9,0.7h-1.4L878.1,977.1z"/>
			<path d="M901.2,980.2c0-12,8.1-18.1,16.4-18.1c8.1,0,16.4,6.2,16.4,18.1c0,12-8.3,17.9-16.4,17.9
				C909.4,998.1,901.2,992.2,901.2,980.2z M927.6,980.2c0-9.6-3.7-14.9-9.9-14.9c-6.4,0-9.9,5.3-9.9,14.9c0,9.6,3.5,14.6,9.9,14.6
				C923.9,994.9,927.6,989.9,927.6,980.2z"/>
			<path d="M940.7,980.2c0-12,8.1-18.1,16.4-18.1c8.1,0,16.4,6.2,16.4,18.1c0,12-8.3,17.9-16.4,17.9
				C948.8,998.1,940.7,992.2,940.7,980.2z M967,980.2c0-9.6-3.7-14.9-9.9-14.9c-6.4,0-9.9,5.3-9.9,14.9c0,9.6,3.5,14.6,9.9,14.6
				C963.4,994.9,967,989.9,967,980.2z"/>
			<path d="M1006.8,1003.8c0-3.2-2-5.7-7.3-5.7H991c-1.2,0-2.5-0.1-3.6-0.2v-0.2c-3.7-0.8-5.5-2.7-5.5-5.7c0-2.5,1.7-5.3,6.6-9.5
				l1.6,1.1c-2.2,2.3-3.1,3.9-3.1,6c0,1.9,0.8,3.2,4.2,3.2h9.5c7.7,0,11.4,3.4,11.4,9.2c0,6.2-5.9,12.4-17.6,12.4
				c-10.4,0-14.9-3.6-14.9-8.8c0-3.5,2.2-6.2,9.5-9.3l0.4,0.4c-2.9,2.8-4,5-4,7.8c0,4.8,3.7,6.6,9.3,6.6
				C1002.5,1011.2,1006.8,1007.9,1006.8,1003.8z M994.1,962.1c7.3,0,12.8,3.9,12.8,11.8c0,7.6-5.6,11.8-12.9,11.8
				c-7.4,0-12.9-3.9-12.9-11.8C981.1,966.3,986.7,962.1,994.1,962.1z M986.7,974c0,5.3,2.6,8.9,7.1,8.9c4.7,0,7.5-3.8,7.5-9.1
				c0-5.1-2.6-8.7-7.1-8.7C989.6,965,986.7,968.7,986.7,974z M1011.2,962.1l1.1,0.7v4.5h-10.6v-1.9L1011.2,962.1z"/>
			<path d="M1026.8,943.9l1,0.6l-0.3,10.2V982c0,5,0.1,10.1,0.2,15.1h-6.2c0.1-5,0.2-10.1,0.2-15.1v-31.7l-6-0.7v-2.5L1026.8,943.9z
				 M1033.5,994.6v2.5h-17.7v-2.5l8.1-1.4h1.4L1033.5,994.6z"/>
			<path d="M1068.3,975.8c0,1.7-0.2,3.1-0.5,4h-26.6v-3h17.1c3.5,0,4.2-1.7,4.2-3.7c0-4.1-3.5-7.8-8-7.8c-4.6,0-9.9,3.9-9.9,14.2
				c0,9.1,4.6,14,11.8,14c4.6,0,7.5-2.1,10.1-5.1l1.7,1.3c-2.6,5.1-7.2,8.4-13.8,8.4c-9.6,0-15.9-6.7-15.9-17.6
				c0-11,7.5-18.4,16.4-18.4C1062.4,962.1,1068.3,967.1,1068.3,975.8z"/>
		</g>
	</g>
	<g>
		<g>
			<line class="st2" x1="541.9" y1="545.7" x2="786.5" y2="545.7"/>
			<g>
				<polygon class="st3" points="776.5,558 774.5,555.8 785.3,545.7 774.5,535.6 776.5,533.4 789.7,545.7 				"/>
			</g>
		</g>
	</g>
	<g>
		<line x1="1124.3" y1="486.8" x2="1492.9" y2="286.6"/>
		<g>
			<line class="st2" x1="1124.3" y1="486.8" x2="1490.1" y2="288.1"/>
			<g>
				<polygon class="st3" points="1487.2,303.7 1484.3,302.7 1489,288.7 1474.7,285 1475.5,282.1 1492.9,286.6 				"/>
			</g>
		</g>
	</g>
	<g>
		<g>
			<line class="st2" x1="1124.3" y1="545.7" x2="1478.8" y2="545.7"/>
			<g>
				<polygon class="st3" points="1468.9,558 1466.8,555.8 1477.7,545.7 1466.8,535.6 1468.9,533.4 1482.1,545.7 				"/>
			</g>
		</g>
	</g>
	<g>
		<line x1="1124.3" y1="599.9" x2="1475.9" y2="806"/>
		<g>
			<line class="st2" x1="1124.3" y1="599.9" x2="1473.1" y2="804.3"/>
			<g>
				<polygon class="st3" points="1458.3,809.9 1457.6,807 1472.1,803.8 1467.8,789.6 1470.7,788.7 1475.9,806 				"/>
			</g>
		</g>
	</g>
</g>
<g id="Data">
	<g>
		<g>
			<line class="st2" x1="960" y1="340.5" x2="960" y2="178.3"/>
			<g>
				<polygon class="st3" points="972.3,188.2 970.1,190.2 960,179.4 949.9,190.2 947.7,188.2 960,175 				"/>
			</g>
		</g>
	</g>
	<g>
		<g>
			<path d="M1006.7,241.2v-2.9h10.1v4h-0.7L1006.7,241.2z M1016.8,282.6v4h-10.1v-2.9l9.4-1.1H1016.8z M1013.5,260.7
				c0-7.4,0-14.9-0.2-22.3h6.9c-0.2,7.3-0.2,14.8-0.2,22.3v2.7c0,8.3,0,15.8,0.2,23.2h-6.9c0.2-7.3,0.2-14.8,0.2-23.2V260.7z
				 M1016.8,283.3h9.3c11.3,0,17.5-7.6,17.5-20.7c0-13.6-6.2-20.9-16.8-20.9h-9.9v-3.3h11.2c13.7,0,23.2,8.5,23.2,24.2
				c0,15.6-10.7,24-24.6,24h-9.7V283.3z"/>
			<path d="M1069.7,267.7c3-1.1,7.6-2.4,11.2-3v2.6c-3.2,0.6-7.5,2-9.6,2.9c-6.5,2.5-7.2,5.3-7.2,7.3c0,3.8,2.5,5.3,5.8,5.3
				c2.5,0,4-0.9,8.5-4.2l1.4-1.1l1,1.5l-2.1,2.1c-4.3,4.3-6.8,6.3-11.2,6.3c-5.3,0-9.6-3-9.6-9
				C1057.9,274.5,1060,271.2,1069.7,267.7z M1078,280v-16.4c0-7.1-2-8.8-6.8-8.8c-1.7,0-3.8,0.2-6.5,1.3l2.9-2.2l-1.9,6.2
				c-0.6,2.1-1.7,3.2-3.7,3.2c-1.9,0-3.1-1.1-3.2-2.9c1.4-5.5,6.7-8.9,13.9-8.9c7.4,0,11,3.4,11,12.5v15.3c0,3.2,1,4.4,2.7,4.4
				c1.2,0,2-0.6,2.8-1.6l1.4,1.6c-1.7,2.7-3.7,3.7-6.1,3.7C1080.6,287.3,1078,284.4,1078,280z"/>
			<path d="M1107.6,283.9c1.6,0,3-0.6,4.9-2l1.7,1.9c-1.8,2.3-4.8,3.7-8.4,3.7c-5,0-8.1-2.6-8.1-8.1c0-1.7,0.1-3.2,0.1-6v-17.1h-6
				v-3.1l8.9-1.2l-2.9,2.4l2.2-11.7h4.2l-0.6,12.6v23.3C1103.6,282.3,1105.2,283.9,1107.6,283.9z M1113.5,252.4v3.7h-12.8v-3.7
				H1113.5z"/>
			<path d="M1129.5,267.7c3-1.1,7.6-2.4,11.2-3v2.6c-3.2,0.6-7.5,2-9.6,2.9c-6.5,2.5-7.2,5.3-7.2,7.3c0,3.8,2.5,5.3,5.8,5.3
				c2.5,0,4-0.9,8.5-4.2l1.4-1.1l1,1.5l-2.1,2.1c-4.3,4.3-6.8,6.3-11.2,6.3c-5.3,0-9.6-3-9.6-9
				C1117.7,274.5,1119.9,271.2,1129.5,267.7z M1137.8,280v-16.4c0-7.1-2-8.8-6.8-8.8c-1.7,0-3.8,0.2-6.5,1.3l2.9-2.2l-1.9,6.2
				c-0.6,2.1-1.7,3.2-3.7,3.2c-1.9,0-3.1-1.1-3.2-2.9c1.4-5.5,6.7-8.9,13.9-8.9c7.4,0,11,3.4,11,12.5v15.3c0,3.2,1,4.4,2.7,4.4
				c1.2,0,2-0.6,2.8-1.6l1.4,1.6c-1.7,2.7-3.7,3.7-6.1,3.7C1140.4,287.3,1137.8,284.4,1137.8,280z"/>
		</g>
	</g>
	<g>
		<g>
			<path d="M936.6,116.1c0-4.5-2.6-6.7-8.7-8.9l-2.7-0.9c-7.6-2.7-12-6.6-12-13.8c0-7.3,6-13.1,14.3-13.1c7.3,0,13,4.3,13.5,10.5
				c-0.6,1.5-1.8,2.2-3.2,2.2c-1.6,0-3.4-1-4.2-4.8l-1.2-5.5l3.7,2.6c-3-1.2-5.6-1.6-7.8-1.6c-5.3,0-9.4,2.7-9.4,8.1
				c0,4.6,2.9,7.1,8,8.8l2.7,0.9c9.7,3.4,12.7,8.1,12.7,14c0,7.7-5.9,13.2-15.7,13.2c-7.7,0-13.5-4.2-13.8-10.5
				c0.6-1.4,1.7-2.2,3.2-2.2c1.7,0,3.3,0.9,4.2,4.8l1.2,5.5l-3.8-2.6c3.3,1.3,6.6,1.7,9.4,1.7C932.7,124.5,936.6,121.4,936.6,116.1z
				 M926.1,103.8h2.9v31.5h-2.9V103.8z M926.2,103.8V73h2.9v30.8H926.2z"/>
			<path d="M972.3,116.1c0-4.5-2.6-6.7-8.7-8.9l-2.7-0.9c-7.6-2.7-12-6.6-12-13.8c0-7.3,6-13.1,14.3-13.1c7.3,0,13,4.3,13.5,10.5
				c-0.6,1.5-1.8,2.2-3.2,2.2c-1.6,0-3.4-1-4.2-4.8L968,82l3.7,2.6c-3-1.2-5.6-1.6-7.8-1.6c-5.3,0-9.4,2.7-9.4,8.1
				c0,4.6,2.9,7.1,8,8.8l2.7,0.9c9.7,3.4,12.7,8.1,12.7,14c0,7.7-5.9,13.2-15.7,13.2c-7.7,0-13.5-4.2-13.8-10.5
				c0.6-1.4,1.7-2.2,3.2-2.2c1.7,0,3.3,0.9,4.2,4.8l1.2,5.5l-3.8-2.6c3.3,1.3,6.6,1.7,9.4,1.7C968.5,124.5,972.3,121.4,972.3,116.1z
				 M961.9,103.8h2.9v31.5h-2.9V103.8z M962,103.8V73h2.9v30.8H962z"/>
			<path d="M1008.1,116.1c0-4.5-2.6-6.7-8.7-8.9l-2.7-0.9c-7.6-2.7-12-6.6-12-13.8c0-7.3,6-13.1,14.3-13.1c7.3,0,13,4.3,13.5,10.5
				c-0.6,1.5-1.8,2.2-3.2,2.2c-1.6,0-3.4-1-4.2-4.8l-1.2-5.5l3.7,2.6c-3-1.2-5.6-1.6-7.8-1.6c-5.3,0-9.4,2.7-9.4,8.1
				c0,4.6,2.9,7.1,8,8.8l2.7,0.9c9.7,3.4,12.7,8.1,12.7,14c0,7.7-5.9,13.2-15.7,13.2c-7.7,0-13.5-4.2-13.8-10.5
				c0.6-1.4,1.7-2.2,3.2-2.2c1.7,0,3.3,0.9,4.2,4.8l1.2,5.5l-3.8-2.6c3.3,1.3,6.6,1.7,9.4,1.7
				C1004.3,124.5,1008.1,121.4,1008.1,116.1z M997.7,103.8h2.9v31.5h-2.9V103.8z M997.8,103.8V73h2.9v30.8H997.8z"/>
		</g>
	</g>
</g>
</svg>
