<svg xmlns="http://www.w3.org/2000/svg" xmlns:xlink="http://www.w3.org/1999/xlink" viewBox="0 0 1920 1080">
    <defs>
        <filter id="AI_BevelShadow_1" x="-20%" y="-20%" width="140%" height="140%" name="AI_BevelShadow_1">
            <feGaussianBlur result="blur" stdDeviation="4" in="SourceAlpha"/>
            <feOffset result="offsetBlur" dx="4" dy="4" in="blur"/>
            <feSpecularLighting result="specOut" surfaceScale="5" specularExponent="10" in="blur">
                <fePointLight x="-5000" y="-10000" z="-20000"/>
            </feSpecularLighting>
            <feComposite result="specOut" operator="in" in="specOut" in2="SourceAlpha"/>
            <feComposite result="litPaint" operator="arithmetic" k2="1" k3="1" in="SourceGraphic" in2="specOut"/>
            <feMerge>
                <feMergeNode in="offsetBlur"/>
                <feMergeNode in="litPaint"/>
            </feMerge>
        </filter>
        <clipPath id="clip-path">
            <circle cx="1199.59" cy="267.98" r="175.14" style="fill:none;stroke:#2a6f7f;stroke-miterlimit:10"/>
        </clipPath>
        <clipPath id="clip-path-2">
            <circle cx="856.61" cy="568.73" r="125.61" style="fill:none"/>
        </clipPath>
        <clipPath id="clip-path-3">
            <circle cx="1542.57" cy="568.73" r="125.61" style="fill:none"/>
        </clipPath>
        <clipPath id="clip-path-4">
            <circle cx="1199.59" cy="837.76" r="175.14" transform="translate(-241.03 1093.61) rotate(-45)"
                    style="fill:none;stroke:#2f0987;stroke-miterlimit:10"/>
        </clipPath>
    </defs>
    <g id="Layer_2" data-name="Layer 2">
        <rect id="rect-data" y="719.12" width="1920" height="360" style="fill:#2f0987"/>
        <rect id="rect-knowledge" width="1920" height="360"
              style="fill:#45b6d9;stroke:#000;stroke-linecap:round;stroke-linejoin:round"/>
        <rect id="rect-tools" y="360" width="1920" height="360"
              style="fill:#cf005d;stroke:#000;stroke-linecap:round;stroke-linejoin:round"/>
        <circle id="circle-cover" cx="1363.12" cy="540" r="855.29" style="fill:#fff"/>
    </g>
    <g id="knowledge">
        <g style="filter:url(#AI_BevelShadow_1)">
            <circle cx="1199.59" cy="267.98" r="175.14" style="fill:#fff"/>
        </g>
        <g style="clip-path:url(#clip-path)">
            <circle cx="1178.37" cy="458.79" r="2.25" style="fill:none;stroke:#2a6f7f;stroke-miterlimit:10"/>
            <circle cx="1330.87" cy="373.75" r="2.25" style="fill:none;stroke:#2a6f7f;stroke-miterlimit:10"/>
            <circle cx="1319.18" cy="380.5" r="2.25" style="fill:none;stroke:#2a6f7f;stroke-miterlimit:10"/>
            <path d="M1330.87,385a2.22,2.22,0,0,0-1.51.6l-.26.28a2.24,2.24,0,1,0,1.77-.88Z"
                  style="fill:none;stroke:#2a6f7f;stroke-miterlimit:10"/>
            <path d="M1329.1,385.88l.26-.28A1.73,1.73,0,0,0,1329.1,385.88Z"
                  style="fill:none;stroke:#2a6f7f;stroke-miterlimit:10"/>
            <path d="M1319.18,396.25a2.25,2.25,0,0,0,2.25-2.25,1.49,1.49,0,0,0,0-.21q-1.26,1.23-2.55,2.43C1319,396.23,1319.07,396.25,1319.18,396.25Z"
                  style="fill:none;stroke:#2a6f7f;stroke-miterlimit:10"/>
            <path d="M1319.18,391.75a2.25,2.25,0,0,0-.32,4.47q1.29-1.2,2.55-2.43A2.23,2.23,0,0,0,1319.18,391.75Z"
                  style="fill:none;stroke:#2a6f7f;stroke-miterlimit:10"/>
            <circle cx="1330.87" cy="400.75" r="2.25" style="fill:none;stroke:#2a6f7f;stroke-miterlimit:10"/>
            <circle cx="1319.18" cy="407.5" r="2.25" style="fill:none;stroke:#2a6f7f;stroke-miterlimit:10"/>
            <circle cx="1330.87" cy="414.25" r="2.25" style="fill:none;stroke:#2a6f7f;stroke-miterlimit:10"/>
            <circle cx="1319.18" cy="421" r="2.25" style="fill:none;stroke:#2a6f7f;stroke-miterlimit:10"/>
            <circle cx="1330.87" cy="427.75" r="2.25" style="fill:none;stroke:#2a6f7f;stroke-miterlimit:10"/>
            <circle cx="1319.18" cy="434.5" r="2.25" style="fill:none;stroke:#2a6f7f;stroke-miterlimit:10"/>
            <circle cx="1330.87" cy="441.25" r="2.25" style="fill:none;stroke:#2a6f7f;stroke-miterlimit:10"/>
            <circle cx="1319.18" cy="448" r="2.25" style="fill:none;stroke:#2a6f7f;stroke-miterlimit:10"/>
            <circle cx="1330.87" cy="454.75" r="2.25" style="fill:none;stroke:#2a6f7f;stroke-miterlimit:10"/>
            <circle cx="1319.18" cy="461.5" r="2.25" style="fill:none;stroke:#2a6f7f;stroke-miterlimit:10"/>
            <polyline id="Axo_Line_Conc" data-name="Axo Line Conc"
                      points="1150.78 427.29 1150.78 382.29 1306.66 292.29 1306.66 337.29"
                      style="fill:none;stroke:#2a6f7f;stroke-linecap:round;stroke-linejoin:round;stroke-width:2px"/>
            <polyline id="Axo_Line_Conc-2" data-name="Axo Line Conc"
                      points="1141.05 421 1141.05 375.97 1297.3 286.32 1297.3 327.83"
                      style="fill:none;stroke:#2a6f7f;stroke-linecap:round;stroke-linejoin:round;stroke-width:2px"/>
            <polyline id="Axo_Line_Conc-3" data-name="Axo Line Conc"
                      points="1102.32 421.79 1097.05 418.75 1136.33 396.07"
                      style="fill:none;stroke:#2a6f7f;stroke-linecap:round;stroke-linejoin:round"/>
            <line id="Axo_Line" data-name="Axo Line" x1="1143.52" y1="391.97" x2="1147.05" y2="389.93"
                  style="fill:none;stroke:#2a6f7f;stroke-linecap:round;stroke-linejoin:round"/>
            <polyline id="Axo_Line_Conc-4" data-name="Axo Line Conc"
                      points="1155.76 384.75 1186.24 367.15 1280.75 312.58 1289.87 317.85"
                      style="fill:none;stroke:#2a6f7f;stroke-linecap:round;stroke-linejoin:round;stroke-width:2px"/>
            <path d="M1201.87,261.16a7.55,7.55,0,1,0,7.55,7.55A7.56,7.56,0,0,0,1201.87,261.16Z"
                  style="fill:none;stroke:#2a6f7f;stroke-linecap:round;stroke-linejoin:round;stroke-width:2px"/>
            <g id="Axo_Line-2" data-name="Axo Line">
                <line x1="1201.87" y1="325.43" x2="1201.87" y2="322.43"
                      style="fill:none;stroke:#2a6f7f;stroke-linecap:round;stroke-linejoin:round"/>
                <line x1="1201.87" y1="315.61" x2="1201.87" y2="291.72"
                      style="fill:none;stroke:#2a6f7f;stroke-linecap:round;stroke-linejoin:round;stroke-dasharray:6.825263023376465,6.825263023376465"/>
                <line x1="1201.87" y1="288.31" x2="1201.87" y2="285.31"
                      style="fill:none;stroke:#2a6f7f;stroke-linecap:round;stroke-linejoin:round"/>
            </g>
            <circle cx="1204.16" cy="267.02" r="0.96"
                    style="fill:none;stroke:#2a6f7f;stroke-linecap:round;stroke-linejoin:round;stroke-dasharray:6"/>
            <line x1="1304.14" y1="147.67" x2="1318.16" y2="130.95"
                  style="fill:none;stroke:#2a6f7f;stroke-linecap:round;stroke-linejoin:round;stroke-dasharray:4"/>
            <line x1="1216.29" y1="189.82" x2="1219.6" y2="171.07"
                  style="fill:none;stroke:#2a6f7f;stroke-linecap:round;stroke-linejoin:round;stroke-dasharray:4"/>
            <line x1="1202.37" y1="116.29" x2="1202.37" y2="103.66"
                  style="fill:none;stroke:#2a6f7f;stroke-linecap:round;stroke-linejoin:round;stroke-dasharray:4"/>
            <line x1="1123.05" y1="173.99" x2="1115.67" y2="165.2"
                  style="fill:none;stroke:#2a6f7f;stroke-linecap:round;stroke-linejoin:round;stroke-dasharray:4"/>
            <line x1="1078.94" y1="268.2" x2="1047.88" y2="268.2"
                  style="fill:none;stroke:#2a6f7f;stroke-linecap:round;stroke-linejoin:round;stroke-dasharray:4"/>
        </g>
        <circle cx="1199.59" cy="267.98" r="175.14" style="fill:none;stroke:#2a6f7f;stroke-miterlimit:10"/>
        <g id="knowledge-sparkles">
            <line id="Axo_Line-3" data-name="Axo Line" x1="1215.97" y1="261.16" x2="1371.82" y2="171.17"
                  style="fill:none;stroke:#2a6f7f;stroke-linecap:round;stroke-linejoin:round"/>
            <line id="Axo_Line-4" data-name="Axo Line" x1="1214.44" y1="258.82" x2="1306.09" y2="178.19"
                  style="fill:none;stroke:#2a6f7f;stroke-linecap:round;stroke-linejoin:round"/>
            <line x1="1212.53" y1="256.79" x2="1303.27" y2="148.66"
                  style="fill:none;stroke:#2a6f7f;stroke-linecap:round;stroke-linejoin:round"/>
            <line id="Axo_Line-5" data-name="Axo Line" x1="1210.3" y1="255.12" x2="1266.04" y2="158.57"
                  style="fill:none;stroke:#2a6f7f;stroke-linecap:round;stroke-linejoin:round"/>
            <line id="Axo_Line-6" data-name="Axo Line" x1="1207.81" y1="253.86" x2="1238.01" y2="171.16"
                  style="fill:none;stroke:#2a6f7f;stroke-linecap:round;stroke-linejoin:round"/>
            <line x1="1205.14" y1="253.05" x2="1216.29" y2="189.82"
                  style="fill:none;stroke:#2a6f7f;stroke-linecap:round;stroke-linejoin:round"/>
            <line x1="1202.37" y1="252.72" x2="1202.37" y2="116.29"
                  style="fill:none;stroke:#2a6f7f;stroke-linecap:round;stroke-linejoin:round"/>
            <line id="Axo_Line-7" data-name="Axo Line" x1="1199.59" y1="252.88" x2="1185.14" y2="170.9"
                  style="fill:none;stroke:#2a6f7f;stroke-linecap:round;stroke-linejoin:round"/>
            <line id="Axo_Line-8" data-name="Axo Line" x1="1196.88" y1="253.51" x2="1163.86" y2="162.81"
                  style="fill:none;stroke:#2a6f7f;stroke-linecap:round;stroke-linejoin:round"/>
            <line id="Axo_Line-9" data-name="Axo Line" x1="1194.31" y1="254.61" x2="1152.69" y2="182.52"
                  style="fill:none;stroke:#2a6f7f;stroke-linecap:round;stroke-linejoin:round"/>
            <line x1="1191.98" y1="256.14" x2="1123.05" y2="173.99"
                  style="fill:none;stroke:#2a6f7f;stroke-linecap:round;stroke-linejoin:round"/>
            <line id="Axo_Line-10" data-name="Axo Line" x1="1189.94" y1="258.04" x2="1126.18" y2="204.54"
                  style="fill:none;stroke:#2a6f7f;stroke-linecap:round;stroke-linejoin:round"/>
            <line id="Axo_Line-11" data-name="Axo Line" x1="1188.27" y1="260.28" x2="1099.03" y2="208.75"
                  style="fill:none;stroke:#2a6f7f;stroke-linecap:round;stroke-linejoin:round"/>
            <line id="Axo_Line-12" data-name="Axo Line" x1="1187.02" y1="262.77" x2="1108.79" y2="234.29"
                  style="fill:none;stroke:#2a6f7f;stroke-linecap:round;stroke-linejoin:round"/>
            <line id="Axo_Line-13" data-name="Axo Line" x1="1186.21" y1="265.43" x2="1090.34" y2="248.53"
                  style="fill:none;stroke:#2a6f7f;stroke-linecap:round;stroke-linejoin:round"/>
            <line x1="1185.88" y1="268.2" x2="1078.94" y2="268.2"
                  style="fill:none;stroke:#2a6f7f;stroke-linecap:round;stroke-linejoin:round"/>
            <line id="Axo_Line-14" data-name="Axo Line" x1="1186.03" y1="270.99" x2="1060.06" y2="293.2"
                  style="fill:none;stroke:#2a6f7f;stroke-linecap:round;stroke-linejoin:round"/>
            <line id="Axo_Line-15" data-name="Axo Line" x1="1186.67" y1="273.7" x2="1026.45" y2="336.58"
                  style="fill:none;stroke:#2a6f7f;stroke-linecap:round;stroke-linejoin:round"/>
            <line id="Axo_Line-16" data-name="Axo Line" x1="1187.77" y1="276.27" x2="1060.09" y2="351.16"
                  style="fill:none;stroke:#2a6f7f;stroke-linecap:round;stroke-linejoin:round"/>
        </g>
        <circle cx="1199.59" cy="267.98" r="175.14"
                style="fill:none;stroke:#286877;stroke-linecap:round;stroke-linejoin:round;stroke-width:2px"/>
        <path d="M1372.84,293.82a326,326,0,0,1,129.2,156"
              style="fill:none;stroke:#231f20;stroke-linecap:round;stroke-linejoin:round;stroke-width:5px"/>
        <path d="M897.14,449.8A326,326,0,0,1,1025,294.67"
              style="fill:none;stroke:#231f20;stroke-linecap:round;stroke-linejoin:round;stroke-width:5px"/>
    </g>
    <g id="tools">
        <path d="M1495.31,734.5,1494,707a326.48,326.48,0,0,1-94.62,118.24"
              style="fill:none;stroke:#231f20;stroke-linecap:round;stroke-linejoin:round;stroke-width:5px"/>
        <line x1="1494.02" y1="706.99" x2="1471.19" y2="721.63"
              style="fill:none;stroke:#231f20;stroke-linecap:round;stroke-linejoin:round;stroke-width:5px"/>
        <path d="M990.73,798.86l7.57,24.72-22.75.76,22.75-.76a325.72,325.72,0,0,1-91.55-114.43"
              style="fill:none;stroke:#231f20;stroke-linecap:round;stroke-linejoin:round;stroke-width:5px"/>
        <g style="filter:url(#AI_BevelShadow_1)">
            <circle cx="856.61" cy="568.73" r="125.61" style="fill:#fff"/>
        </g>
        <g style="clip-path:url(#clip-path-2)">
            <line x1="826.53" y1="535.9" x2="815.76" y2="554.02"
                  style="fill:none;stroke:#cf005d;stroke-miterlimit:10;stroke-width:2px"/>
            <path d="M885.38,521.85V494a17.26,17.26,0,0,0-5.76-33.53h-46A17.26,17.26,0,0,0,827.84,494v29.55"
                  style="fill:none;stroke:#cf005d;stroke-miterlimit:10;stroke-width:2px"/>
            <line x1="926.49" y1="602.85" x2="918.46" y2="589.34"
                  style="fill:none;stroke:#cf005d;stroke-miterlimit:10;stroke-width:2px"/>
            <path d="M794.42,589.92l-13.88,23.35a28.76,28.76,0,0,0,24.67,43.57H886"
                  style="fill:none;stroke:#cf005d;stroke-miterlimit:10;stroke-width:2px"/>
            <path d="M857.78,575.63c-5-3.69-16.38-10.84-29.94-10.84"
                  style="fill:none;stroke:#cf005d;stroke-miterlimit:10"/>
            <path d="M839.59,578.62a48.6,48.6,0,0,1,9.2,4.77" style="fill:none;stroke:#cf005d;stroke-miterlimit:10"/>
            <path d="M815.65,621.75a58.93,58.93,0,0,0,57.5,15.09l85,85a28.92,28.92,0,0,0,40.9-40.9l-85-85a58.92,58.92,0,0,0-78.48-70.6,6.18,6.18,0,0,0-2.09,10.11l31.86,31.87-3.68,17.12-17.13,3.69-31.86-31.86a6.18,6.18,0,0,0-10.11,2.09A58.88,58.88,0,0,0,815.65,621.75Z"
                  style="fill:none;stroke:#cf005d;stroke-miterlimit:10;stroke-width:3px"/>
            <path d="M811.38,572.46l26.78,26.78a6.2,6.2,0,0,0,5.67,1.67l24.32-5.23a6.17,6.17,0,0,0,4.74-4.74l5.23-24.32a6.17,6.17,0,0,0-1.67-5.66l-26.79-26.79a46.56,46.56,0,0,1,51.54,61.44,6.18,6.18,0,0,0,1.46,6.42l87.67,87.68a16.56,16.56,0,0,1-23.42,23.42l-87.67-87.67a6.18,6.18,0,0,0-6.42-1.46,46.57,46.57,0,0,1-61.44-51.54Z"
                  style="fill:none;stroke:#cf005d;stroke-miterlimit:10"/>
        </g>
        <circle cx="856.61" cy="568.73" r="125.61"
                style="fill:none;stroke:#cf005d;stroke-linecap:round;stroke-linejoin:round;stroke-width:2px"/>
        <path d="M833.6,472h46a5.76,5.76,0,1,1,0,11.51h-46a5.76,5.76,0,1,1,0-11.51Z"
              style="fill:none;stroke:#cf005d;stroke-miterlimit:10"/>
        <line x1="825.14" y1="560.75" x2="834.74" y2="544.59" style="fill:none;stroke:#cf005d;stroke-miterlimit:10"/>
        <path d="M839.35,518.26V495h34.52v11.5h-5.75a5.75,5.75,0,0,0-4.38,9.49"
              style="fill:none;stroke:#cf005d;stroke-miterlimit:10"/>
        <path d="M874.36,645.33H805.21a17.26,17.26,0,0,1-14.79-26.16l8.17-13.75"
              style="fill:none;stroke:#cf005d;stroke-miterlimit:10"/>
        <g style="filter:url(#AI_BevelShadow_1)">
            <circle cx="1542.57" cy="568.73" r="125.61" style="fill:#fff"/>
        </g>
        <g style="clip-path:url(#clip-path-3)">
            <circle cx="1542.57" cy="579.48" r="52.88"
                    style="fill:none;stroke:#cf005d;stroke-linecap:round;stroke-linejoin:round"/>
            <path d="M1589.42,571.05a48.42,48.42,0,0,1,.69,6.06"
                  style="fill:none;stroke:#cf005d;stroke-linecap:round;stroke-linejoin:round;stroke-width:0.9px"/>
            <path d="M1556.42,533.93a47.71,47.71,0,0,1,32.3,33.85"
                  style="fill:none;stroke:#cf005d;stroke-linecap:round;stroke-linejoin:round;stroke-width:0.9px"/>
            <path d="M1499.51,629.63a67,67,0,0,1-7.1-7.1"
                  style="fill:none;stroke:#cf005d;stroke-linecap:round;stroke-linejoin:round;stroke-width:1.25px"/>
            <polyline points="1440.69 667.22 1485.62 622.28 1492.64 622.34 1497.64 617.34"
                      style="fill:none;stroke:#cf005d;stroke-miterlimit:10;stroke-width:3px"/>
            <polyline points="1454.83 681.36 1499.65 636.54 1499.71 629.41 1504.71 624.41"
                      style="fill:none;stroke:#cf005d;stroke-miterlimit:10;stroke-width:3px"/>
            <line x1="1495.31" y1="635.83" x2="1461.61" y2="669.53"
                  style="fill:none;stroke:#cf005d;stroke-miterlimit:10"/>
            <line x1="1490.73" y1="637.24" x2="1460.53" y2="667.44"
                  style="fill:none;stroke:#cf005d;stroke-miterlimit:10"/>
            <line x1="1483.43" y1="641.74" x2="1457.19" y2="667.97"
                  style="fill:none;stroke:#cf005d;stroke-miterlimit:10"/>
            <circle cx="1542.57" cy="579.48" r="58.76"
                    style="fill:none;stroke:#cf005d;stroke-linecap:round;stroke-linejoin:round;stroke-width:3px"/>
            <g id="analysis-subgroup">
                <path d="M1622.83,516.21V716.27a10,10,0,0,1-10,10H1472.31a10,10,0,0,1-10-10V690"
                      style="fill:none;stroke:#cf005d;stroke-miterlimit:10;stroke-width:2px"/>
                <path d="M1622.83,516.21H1604a10,10,0,0,1-10-10V487.33"
                      style="fill:none;stroke:#cf005d;stroke-miterlimit:10;stroke-width:2px"/>
                <path d="M1462.31,629.63V497.33a10,10,0,0,1,10-10H1594"
                      style="fill:none;stroke:#cf005d;stroke-miterlimit:10;stroke-width:2px"/>
                <path d="M1467.84,512.61v-9.76a10,10,0,0,1,10-10h186.75"
                      style="fill:none;stroke:#cf005d;stroke-miterlimit:10"/>
                <line x1="1467.84" y1="606.17" x2="1467.84" y2="524.31"
                      style="fill:none;stroke:#cf005d;stroke-miterlimit:10"/>
                <line x1="1518.51" y1="411.89" x2="1685.67" y2="579.05"
                      style="fill:none;stroke:#cf005d;stroke-miterlimit:10"/>
            </g>
        </g>
        <circle cx="1542.57" cy="568.73" r="125.61"
                style="fill:none;stroke:#cf005d;stroke-linecap:round;stroke-linejoin:round;stroke-width:2px"/>
        <circle cx="1552.59" cy="556.11" r="5.53" style="fill:none;stroke:#cf005d;stroke-miterlimit:10"/>
        <path d="M1552.81,551.69a4.43,4.43,0,0,1,4.19,4.1"
              style="fill:none;stroke:#cf005d;stroke-miterlimit:10;stroke-width:0.8px"/>
        <circle cx="1530.45" cy="598.73" r="5.53" style="fill:none;stroke:#cf005d;stroke-miterlimit:10"/>
        <path d="M1530.68,594.31a4.42,4.42,0,0,1,4.18,4.09"
              style="fill:none;stroke:#cf005d;stroke-miterlimit:10;stroke-width:0.8px"/>
        <circle cx="1576.56" cy="582.64" r="5.53" style="fill:none;stroke:#cf005d;stroke-miterlimit:10"/>
        <path d="M1576.79,578.22a4.43,4.43,0,0,1,4.18,4.1"
              style="fill:none;stroke:#cf005d;stroke-miterlimit:10;stroke-width:0.8px"/>
        <circle cx="1608.39" cy="542.68" r="5.53" style="fill:none;stroke:#cf005d;stroke-miterlimit:10"/>
        <path d="M1608.61,538.26a4.44,4.44,0,0,1,4.19,4.1"
              style="fill:none;stroke:#cf005d;stroke-miterlimit:10;stroke-width:0.8px"/>
        <circle cx="1504.71" cy="578.22" r="5.53" style="fill:none;stroke:#cf005d;stroke-miterlimit:10"/>
        <path d="M1504.94,573.81a4.41,4.41,0,0,1,4.18,4.09"
              style="fill:none;stroke:#cf005d;stroke-miterlimit:10;stroke-width:0.8px"/>
        <line x1="1600.02" y1="553.19" x2="1603.53" y2="548.79"
              style="fill:none;stroke:#cf005d;stroke-miterlimit:10;stroke-dasharray:5.634037017822266"/>
        <line x1="1581.44" y1="576.52" x2="1585.53" y2="571.38"
              style="fill:none;stroke:#cf005d;stroke-miterlimit:10;stroke-dasharray:6.578682899475098"/>
        <line x1="1557.59" y1="561.64" x2="1561.61" y2="566.09" style="fill:none;stroke:#cf005d;stroke-miterlimit:10"/>
        <line x1="1567.01" y1="572.07" x2="1571.03" y2="576.52" style="fill:none;stroke:#cf005d;stroke-miterlimit:10"/>
        <line x1="1534.01" y1="591.89" x2="1536.77" y2="586.56" style="fill:none;stroke:#cf005d;stroke-miterlimit:10"/>
        <line x1="1539.82" y1="580.7" x2="1544.39" y2="571.91"
              style="fill:none;stroke:#cf005d;stroke-miterlimit:10;stroke-dasharray:6.605795383453369,6.605795383453369"/>
        <line x1="1545.91" y1="568.97" x2="1548.67" y2="563.65" style="fill:none;stroke:#cf005d;stroke-miterlimit:10"/>
        <line x1="1510.87" y1="583.13" x2="1515.56" y2="586.87" style="fill:none;stroke:#cf005d;stroke-miterlimit:10"/>
        <line x1="1519.55" y1="590.05" x2="1524.25" y2="593.79" style="fill:none;stroke:#cf005d;stroke-miterlimit:10"/>
        <g id="tool-sparkles">
            <line x1="901.44" y1="609.42" x2="950.09" y2="658.07"
                  style="fill:none;stroke:#cf005d;stroke-miterlimit:10"/>
            <line x1="910.04" y1="625.88" x2="947.31" y2="663.14"
                  style="fill:none;stroke:#cf005d;stroke-miterlimit:10"/>
            <line x1="919.82" y1="644.51" x2="941.54" y2="666.23"
                  style="fill:none;stroke:#cf005d;stroke-miterlimit:10"/>
        </g>
        <g id="analysis-sparkles">
            <line x1="1617.34" y1="576.52" x2="1617.34" y2="678.25"
                  style="fill:none;stroke:#cf005d;stroke-miterlimit:10"/>
            <line x1="1612.8" y1="595.69" x2="1612.8" y2="683.08"
                  style="fill:none;stroke:#cf005d;stroke-miterlimit:10"/>
            <line x1="1606.83" y1="625.31" x2="1606.83" y2="685.81"
                  style="fill:none;stroke:#cf005d;stroke-miterlimit:10"/>
        </g>
    </g>
    <g id="data">
        <g style="filter:url(#AI_BevelShadow_1)">
            <circle cx="1199.59" cy="837.76" r="175.14" transform="translate(-241.03 1093.61) rotate(-45)"
                    style="fill:#fff"/>
        </g>
        <g style="clip-path:url(#clip-path-4)">
            <circle cx="791.53" cy="506.6" r="2.25" style="fill:none;stroke:#2f0987;stroke-miterlimit:10"/>
            <circle cx="791.53" cy="533.6" r="2.25" style="fill:none;stroke:#2f0987;stroke-miterlimit:10"/>
            <polyline id="Axo_Line_Conc-5" data-name="Axo Line Conc"
                      points="1110.35 649.04 851.88 798.27 851.88 820.75 863.02 814.31"
                      style="fill:none;stroke:#2f0987;stroke-linecap:round;stroke-linejoin:round;stroke-width:3px"/>
            <path d="M863.46,805.43c12.26-6.28,24.67-12.63,38.08-15.81s28.11-2.92,40.27,3.56,21,20.07,19.29,33.74c-2.42,19.36-22.47,30.36-36.79,43.6-7.74,7.16-14.41,19.11-8.2,27.63,5.78,7.94,18.39,6.22,26.64.9,16-10.33,24-29.38,37.35-42.95A70.08,70.08,0,0,1,1093,874.76c9.86,20.34,10.3,46,26.57,61.66,14.46,14,36.64,15.26,56.73,15.05,39.69-.42,81.34-13.2,105.16,20.74"
                  style="fill:none;stroke:#2f0987;stroke-linecap:round;stroke-linejoin:round;stroke-width:3px"/>
            <path d="M961.91,887.51c13.71-10.7,21.41-27.89,33.78-40.41a70.08,70.08,0,0,1,112.92,18.66c9.86,20.34,10.3,46,26.57,61.66,14.46,14,36.64,15.26,56.73,15.05,41.82-.44,85.82-14.6,108.84,26.62"
                  style="fill:none;stroke:#2f0987;stroke-linecap:round;stroke-linejoin:round"/>
            <path d="M905.5,784.18a101.86,101.86,0,0,1,11.62-3.56c13.41-3.17,28.12-2.92,40.28,3.56s21,20.07,19.29,33.74c-2.42,19.36-22.47,30.36-36.79,43.6-7.74,7.16-14.41,19.11-8.2,27.63a12.73,12.73,0,0,0,7.06,4.79"
                  style="fill:none;stroke:#2f0987;stroke-linecap:round;stroke-linejoin:round"/>
            <path d="M1319.52,966.45q1.14,2.55,2.2,5.34"
                  style="fill:none;stroke:#2f0987;stroke-linecap:round;stroke-linejoin:round"/>
            <line x1="1207.5" y1="933.47" x2="1306.66" y2="876.21"
                  style="fill:none;stroke:#2f0987;stroke-linecap:round;stroke-linejoin:round"/>
            <path d="M1124.2,856.76c9.86,20.34,10.3,46,26.57,61.66,7.1,6.84,16,10.65,25.7,12.72,10,2.15,20.8,2.43,31,2.33"
                  style="fill:none;stroke:#2f0987;stroke-linecap:round;stroke-linejoin:round"/>
            <path id="Axo_Line_Conc-6" data-name="Axo Line Conc"
                  d="M1101.57,830.28a72.11,72.11,0,0,1,13.55,12.5l94.63-54.64"
                  style="fill:none;stroke:#2f0987;stroke-linecap:round;stroke-linejoin:round"/>
            <path d="M1241.57,704a70.3,70.3,0,0,1,33.71-2.86,71.25,71.25,0,0,1,51.63,38.57c9.87,20.34,10.31,46,26.58,61.65,14.46,14,36.63,15.26,56.73,15,33.18-.35,66.86-8,92.1,7.56,6.52,4,16.62,18.82,22.11,30.76,11.75,25.55,42,31.07,59.58,36"
                  style="fill:none;stroke:#2f0987;stroke-linecap:round;stroke-linejoin:round;stroke-width:3px"/>
            <path d="M1226,713a70.34,70.34,0,0,1,33.72-2.86,71.29,71.29,0,0,1,51.63,38.57c9.86,20.34,10.3,46,26.57,61.65,14.46,14,36.64,15.26,56.73,15,45.35-.48,93.28-17.1,114.21,38.32"
                  style="fill:none;stroke:#2f0987;stroke-linecap:round;stroke-linejoin:round"/>
            <path d="M1097.36,670.4c12.26-6.29,24.66-12.63,38.07-15.81s28.12-2.93,40.27,3.55,21,20.08,19.29,33.75c-2.41,19.35-22.46,30.35-36.79,43.6-4.93,4.55-9.42,11-10.43,17.37"
                  style="fill:none;stroke:#2f0987;stroke-linecap:round;stroke-linejoin:round;stroke-width:3px"/>
            <path d="M1127.29,662.2c11.24-1.49,22.89-.36,32.82,4.94,12.16,6.49,21,20.08,19.3,33.75-2.42,19.35-22.47,30.35-36.8,43.6a37.27,37.27,0,0,0-9,12.59"
                  style="fill:none;stroke:#2f0987;stroke-linecap:round;stroke-linejoin:round"/>
            <polyline id="Axo_Line_Conc-7" data-name="Axo Line Conc"
                      points="1225.03 712.08 1262.44 690.48 1338.14 646.78"
                      style="fill:none;stroke:#2f0987;stroke-linecap:round;stroke-linejoin:round;stroke-width:0.5px"/>
            <line id="Axo_Line-17" data-name="Axo Line" x1="927.98" y1="768.63" x2="1072.28" y2="685.32"
                  style="fill:none;stroke:#2f0987;stroke-linecap:round;stroke-linejoin:round;stroke-width:0.5px"/>
            <line id="Axo_Line-18" data-name="Axo Line" x1="863.46" y1="798.25" x2="1109.74" y2="656.06"
                  style="fill:none;stroke:#2f0987;stroke-linecap:round;stroke-linejoin:round;stroke-width:0.5px"/>
            <line id="Axo_Line-19" data-name="Axo Line" x1="957.42" y1="764.5" x2="1057.62" y2="706.65"
                  style="fill:none;stroke:#2f0987;stroke-linecap:round;stroke-linejoin:round;stroke-width:0.5px"/>
            <line id="Axo_Line-20" data-name="Axo Line" x1="968.78" y1="773.23" x2="1087.01" y2="704.97"
                  style="fill:none;stroke:#2f0987;stroke-linecap:round;stroke-linejoin:round;stroke-width:0.5px"/>
            <line id="Axo_Line-21" data-name="Axo Line" x1="981.11" y1="782.33" x2="1078.56" y2="726.07"
                  style="fill:none;stroke:#2f0987;stroke-linecap:round;stroke-linejoin:round;stroke-width:0.5px"/>
            <line id="Axo_Line-22" data-name="Axo Line" x1="992.49" y1="802.08" x2="1044.51" y2="772.05"
                  style="fill:none;stroke:#2f0987;stroke-linecap:round;stroke-linejoin:round;stroke-width:0.5px"/>
            <line id="Axo_Line-23" data-name="Axo Line" x1="992.49" y1="807.08" x2="1054.05" y2="771.54"
                  style="fill:none;stroke:#2f0987;stroke-linecap:round;stroke-linejoin:round;stroke-width:0.5px"/>
            <line id="Axo_Line-24" data-name="Axo Line" x1="1141.89" y1="716.1" x2="1173" y2="698.13"
                  style="fill:none;stroke:#2f0987;stroke-linecap:round;stroke-linejoin:round;stroke-width:0.5px"/>
            <line id="Axo_Line-25" data-name="Axo Line" x1="1154.67" y1="713.4" x2="1171.56" y2="703.64"
                  style="fill:none;stroke:#2f0987;stroke-linecap:round;stroke-linejoin:round;stroke-width:0.5px"/>
            <line id="Axo_Line-26" data-name="Axo Line" x1="1168.13" y1="710.82" x2="1153.04" y2="719.53"
                  style="fill:none;stroke:#2f0987;stroke-linecap:round;stroke-linejoin:round;stroke-width:0.5px"/>
            <line id="Axo_Line-27" data-name="Axo Line" x1="978.35" y1="833.01" x2="1060.31" y2="785.7"
                  style="fill:none;stroke:#2f0987;stroke-linecap:round;stroke-linejoin:round;stroke-width:0.5px"/>
            <line id="Axo_Line-28" data-name="Axo Line" x1="973.37" y1="837.51" x2="1058.7" y2="788.25"
                  style="fill:none;stroke:#2f0987;stroke-linecap:round;stroke-linejoin:round;stroke-width:0.5px"/>
            <line id="Axo_Line-29" data-name="Axo Line" x1="967.03" y1="842.77" x2="1081.14" y2="776.89"
                  style="fill:none;stroke:#2f0987;stroke-linecap:round;stroke-linejoin:round;stroke-width:0.5px"/>
            <line id="Axo_Line-30" data-name="Axo Line" x1="949.28" y1="859.81" x2="1033.66" y2="811.09"
                  style="fill:none;stroke:#2f0987;stroke-linecap:round;stroke-linejoin:round;stroke-width:0.5px"/>
            <line id="Axo_Line-31" data-name="Axo Line" x1="944.99" y1="874.53" x2="969.22" y2="860.54"
                  style="fill:none;stroke:#2f0987;stroke-linecap:round;stroke-linejoin:round;stroke-width:0.5px"/>
            <line id="Axo_Line-32" data-name="Axo Line" x1="947.28" y1="880.15" x2="960.76" y2="872.37"
                  style="fill:none;stroke:#2f0987;stroke-linecap:round;stroke-linejoin:round;stroke-width:0.5px"/>
            <line id="Axo_Line-33" data-name="Axo Line" x1="951.34" y1="883.21" x2="956.75" y2="880.08"
                  style="fill:none;stroke:#2f0987;stroke-linecap:round;stroke-linejoin:round;stroke-width:0.5px"/>
            <line id="Axo_Line-34" data-name="Axo Line" x1="1376.8" y1="847.08" x2="1117.73" y2="996.66"
                  style="fill:none;stroke:#2f0987;stroke-linecap:round;stroke-linejoin:round;stroke-width:0.5px"/>
            <path d="M1239.34,867c7.1,6.84,16.05,10.64,25.7,12.71,10,2.15,20.8,2.44,31,2.33"
                  style="fill:none;stroke:#2f0987;stroke-linecap:round;stroke-linejoin:round;stroke-width:0.5px"/>
            <path d="M1244,864.29c7.09,6.84,16,10.64,25.7,12.71,10,2.15,20.79,2.44,31,2.33"
                  style="fill:none;stroke:#2f0987;stroke-linecap:round;stroke-linejoin:round;stroke-width:0.5px"/>
            <path d="M1217.51,900.52a69.71,69.71,0,0,0,7.78,2.13c10,2.15,20.8,2.44,31,2.33"
                  style="fill:none;stroke:#2f0987;stroke-linecap:round;stroke-linejoin:round;stroke-width:0.5px"/>
            <path d="M1222.19,897.83A70.67,70.67,0,0,0,1230,900c10,2.15,20.79,2.44,31,2.33"
                  style="fill:none;stroke:#2f0987;stroke-linecap:round;stroke-linejoin:round;stroke-width:0.5px"/>
            <path d="M1240.12,891.57c1,.27,2.05.51,3.1.73,10,2.15,20.79,2.44,31,2.33"
                  style="fill:none;stroke:#2f0987;stroke-linecap:round;stroke-linejoin:round;stroke-width:0.5px"/>
            <path d="M1248.69,886.62c1,.27,2.06.51,3.1.73,10,2.15,20.8,2.44,31,2.33"
                  style="fill:none;stroke:#2f0987;stroke-linecap:round;stroke-linejoin:round;stroke-width:0.5px"/>
            <path d="M1189.13,882.48c.82,1.33,1.69,2.63,2.62,3.88"
                  style="fill:none;stroke:#2f0987;stroke-linecap:round;stroke-linejoin:round;stroke-width:0.5px"/>
            <path d="M1186.69,878q1.14,2.28,2.44,4.44"
                  style="fill:none;stroke:#2f0987;stroke-linecap:round;stroke-linejoin:round;stroke-width:0.5px"/>
            <path d="M1184.47,873.11c.69,1.68,1.42,3.32,2.22,4.93"
                  style="fill:none;stroke:#2f0987;stroke-linecap:round;stroke-linejoin:round;stroke-width:0.5px"/>
            <path d="M1178.46,854.75a175.24,175.24,0,0,0,6,18.36"
                  style="fill:none;stroke:#2f0987;stroke-linecap:round;stroke-linejoin:round;stroke-width:0.5px"/>
            <path d="M1162.88,858.44c.63,2.13,1,3.57,1.65,5.7"
                  style="fill:none;stroke:#2f0987;stroke-linecap:round;stroke-linejoin:round"/>
            <path d="M1191,834.85q.95,2.89,1.81,5.82"
                  style="fill:none;stroke:#2f0987;stroke-linecap:round;stroke-linejoin:round"/>
            <line id="Axo_Line-35" data-name="Axo Line" x1="1131.25" y1="876.21" x2="1192.82" y2="840.67"
                  style="fill:none;stroke:#2f0987;stroke-linecap:round;stroke-linejoin:round;stroke-width:0.5px"/>
            <line id="Axo_Line-36" data-name="Axo Line" x1="1133.24" y1="882.21" x2="1164.77" y2="864"
                  style="fill:none;stroke:#2f0987;stroke-linecap:round;stroke-linejoin:round;stroke-width:0.5px"/>
            <line id="Axo_Line-37" data-name="Axo Line" x1="1184.47" y1="873.11" x2="1138.56" y2="899.61"
                  style="fill:none;stroke:#2f0987;stroke-linecap:round;stroke-linejoin:round;stroke-width:0.5px"/>
            <polyline id="Axo_Line_Conc-8" data-name="Axo Line Conc" points="1140.85 904.5 1186.69 878.04 1211.18 863.9"
                      style="fill:none;stroke:#2f0987;stroke-linecap:round;stroke-linejoin:round;stroke-width:0.5px"/>
            <line id="Axo_Line-38" data-name="Axo Line" x1="1143.3" y1="908.94" x2="1213.62" y2="868.34"
                  style="fill:none;stroke:#2f0987;stroke-linecap:round;stroke-linejoin:round;stroke-width:0.5px"/>
            <line id="Axo_Line-39" data-name="Axo Line" x1="1145.92" y1="912.87" x2="1212.96" y2="874.16"
                  style="fill:none;stroke:#2f0987;stroke-linecap:round;stroke-linejoin:round;stroke-width:0.5px"/>
            <path d="M1210.58,870.12c.81,1.33,1.68,2.63,2.62,3.88"
                  style="fill:none;stroke:#2f0987;stroke-linecap:round;stroke-linejoin:round"/>
            <path d="M1211.18,864.07q1.13,2.28,2.44,4.44"
                  style="fill:none;stroke:#2f0987;stroke-linecap:round;stroke-linejoin:round"/>
            <line id="Axo_Line-40" data-name="Axo Line" x1="1086.19" y1="821.96" x2="1174.22" y2="771.13"
                  style="fill:none;stroke:#2f0987;stroke-linecap:round;stroke-linejoin:round;stroke-width:0.5px"/>
            <line id="Axo_Line-41" data-name="Axo Line" x1="1211.52" y1="749.41" x2="1249.17" y2="727.68"
                  style="fill:none;stroke:#2f0987;stroke-linecap:round;stroke-linejoin:round;stroke-width:0.5px"/>
            <line id="Axo_Line-42" data-name="Axo Line" x1="1205.9" y1="745.73" x2="1230.2" y2="731.7"
                  style="fill:none;stroke:#2f0987;stroke-linecap:round;stroke-linejoin:round;stroke-width:0.5px"/>
            <line id="Axo_Line-43" data-name="Axo Line" x1="1101.57" y1="830.28" x2="1199.41" y2="773.8"
                  style="fill:none;stroke:#2f0987;stroke-linecap:round;stroke-linejoin:round;stroke-width:0.5px"/>
            <line id="Axo_Line-44" data-name="Axo Line" x1="980.66" y1="880.26" x2="1046.01" y2="842.53"
                  style="fill:none;stroke:#2f0987;stroke-linecap:round;stroke-linejoin:round"/>
            <line id="Axo_Line-45" data-name="Axo Line" x1="986.6" y1="865.75" x2="1031.78" y2="839.67"
                  style="fill:none;stroke:#2f0987;stroke-linecap:round;stroke-linejoin:round;stroke-width:0.5px"/>
            <line id="Axo_Line-46" data-name="Axo Line" x1="991.47" y1="858.44" x2="1023.02" y2="840.23"
                  style="fill:none;stroke:#2f0987;stroke-linecap:round;stroke-linejoin:round;stroke-width:0.5px"/>
            <line id="Axo_Line-47" data-name="Axo Line" x1="996.39" y1="852.71" x2="1015.29" y2="841.79"
                  style="fill:none;stroke:#2f0987;stroke-linecap:round;stroke-linejoin:round;stroke-width:0.5px"/>
            <line id="Axo_Line-48" data-name="Axo Line" x1="1297.89" y1="939.9" x2="1399.4" y2="881.29"
                  style="fill:none;stroke:#2f0987;stroke-linecap:round;stroke-linejoin:round;stroke-width:0.5px"/>
            <line id="Axo_Line_Conc-9" data-name="Axo Line Conc" x1="1306.66" y1="946.99" x2="1385.2" y2="901.65"
                  style="fill:none;stroke:#2f0987;stroke-linecap:round;stroke-linejoin:round;stroke-width:0.5px"/>
            <line id="Axo_Line-49" data-name="Axo Line" x1="1381.34" y1="917.33" x2="1347.78" y2="936.71"
                  style="fill:none;stroke:#2f0987;stroke-linecap:round;stroke-linejoin:round;stroke-width:0.5px"/>
            <line id="Axo_Line-50" data-name="Axo Line" x1="1376.8" y1="958.42" x2="1394.3" y2="948.32"
                  style="fill:none;stroke:#2f0987;stroke-linecap:round;stroke-linejoin:round;stroke-width:0.5px"/>
            <line id="Axo_Line-51" data-name="Axo Line" x1="1368.06" y1="946.99" x2="1347.4" y2="958.91"
                  style="fill:none;stroke:#2f0987;stroke-linecap:round;stroke-linejoin:round;stroke-width:0.5px"/>
            <line id="Axo_Line-52" data-name="Axo Line" x1="851.88" y1="839.67" x2="906.22" y2="808.29"
                  style="fill:none;stroke:#2f0987;stroke-linecap:round;stroke-linejoin:round;stroke-width:0.5px"/>
            <line id="Axo_Line-53" data-name="Axo Line" x1="851.87" y1="848.89" x2="925.3" y2="806.5"
                  style="fill:none;stroke:#2f0987;stroke-linecap:round;stroke-linejoin:round;stroke-width:0.5px"/>
        </g>
        <circle cx="1199.59" cy="837.76" r="175.14" transform="translate(-241.03 1093.61) rotate(-45)"
                style="fill:none;stroke:#2f0987;stroke-miterlimit:10"/>
        <circle cx="1199.59" cy="837.76" r="175.14" transform="translate(-241.03 1093.61) rotate(-45)"
                style="fill:none;stroke:#2f0987;stroke-linecap:round;stroke-linejoin:round;stroke-width:2px"/>
        <line id="Axo_Line-54" data-name="Axo Line" x1="1039.26" y1="768.59" x2="1118.34" y2="722.94"
              style="fill:none;stroke:#2f0987;stroke-linecap:round;stroke-linejoin:round;stroke-width:0.5px"/>
        <line id="Axo_Line-55" data-name="Axo Line" x1="1031.02" y1="790.08" x2="1086.19" y2="758.23"
              style="fill:none;stroke:#2f0987;stroke-linecap:round;stroke-linejoin:round;stroke-width:0.5px"/>
        <line id="Axo_Line-56" data-name="Axo Line" x1="1026.59" y1="810.3" x2="1117.95" y2="757.56"
              style="fill:none;stroke:#2f0987;stroke-linecap:round;stroke-linejoin:round;stroke-width:0.5px"/>
        <line id="Axo_Line-57" data-name="Axo Line" x1="1129.36" y1="870.02" x2="1210.39" y2="823.23"
              style="fill:none;stroke:#2f0987;stroke-linecap:round;stroke-linejoin:round;stroke-width:0.5px"/>
        <line id="Axo_Line-58" data-name="Axo Line" x1="1057.59" y1="817.42" x2="1111.67" y2="786.2"
              style="fill:none;stroke:#2f0987;stroke-linecap:round;stroke-linejoin:round;stroke-width:0.5px"/>
        <line id="Axo_Line-59" data-name="Axo Line" x1="1093.84" y1="825.49" x2="1166.05" y2="783.8"
              style="fill:none;stroke:#2f0987;stroke-linecap:round;stroke-linejoin:round;stroke-width:0.5px"/>
        <line id="Axo_Line-60" data-name="Axo Line" x1="1112.61" y1="839.94" x2="1173.71" y2="804.67"
              style="fill:none;stroke:#2f0987;stroke-linecap:round;stroke-linejoin:round;stroke-width:0.5px"/>
        <line id="Axo_Line-61" data-name="Axo Line" x1="1107.36" y1="834.85" x2="1169.55" y2="798.94"
              style="fill:none;stroke:#2f0987;stroke-linecap:round;stroke-linejoin:round;stroke-width:0.5px"/>
        <line id="Axo_Line-62" data-name="Axo Line" x1="1052.8" y1="817.86" x2="1195.24" y2="735.63"
              style="fill:none;stroke:#2f0987;stroke-linecap:round;stroke-linejoin:round;stroke-width:0.5px"/>
        <g id="data-sparkles">
            <line id="Axo_Line_Conc-10" data-name="Axo Line Conc" x1="1024.73" y1="827.72" x2="1225.03" y2="712.08"
                  style="fill:none;stroke:#2f0987;stroke-linecap:round;stroke-linejoin:round;stroke-width:0.5px"/>
            <line id="Axo_Line-63" data-name="Axo Line" x1="1029.72" y1="794.97" x2="1133.58" y2="735.01"
                  style="fill:none;stroke:#2f0987;stroke-linecap:round;stroke-linejoin:round;stroke-width:0.5px"/>
            <line id="Axo_Line-64" data-name="Axo Line" x1="1026.59" y1="812.48" x2="1086.82" y2="777.7"
                  style="fill:none;stroke:#2f0987;stroke-linecap:round;stroke-linejoin:round;stroke-width:0.5px"/>
            <path d="M1208.4,817.26c.76,2,1.46,4,2.12,6"
                  style="fill:none;stroke:#2f0987;stroke-linecap:round;stroke-linejoin:round"/>
            <line id="Axo_Line-65" data-name="Axo Line" x1="1127.3" y1="864.07" x2="1208.39" y2="817.26"
                  style="fill:none;stroke:#2f0987;stroke-linecap:round;stroke-linejoin:round;stroke-width:0.5px"/>
            <line id="Axo_Line-66" data-name="Axo Line" x1="1196.3" y1="891.84" x2="1280.69" y2="843.11"
                  style="fill:none;stroke:#2f0987;stroke-linecap:round;stroke-linejoin:round;stroke-width:0.5px"/>
            <line id="Axo_Line-67" data-name="Axo Line" x1="1217.51" y1="900.52" x2="1297.89" y2="854.12"
                  style="fill:none;stroke:#2f0987;stroke-linecap:round;stroke-linejoin:round;stroke-width:0.5px"/>
            <line id="Axo_Line-68" data-name="Axo Line" x1="1240.12" y1="891.57" x2="1338.99" y2="834.49"
                  style="fill:none;stroke:#2f0987;stroke-linecap:round;stroke-linejoin:round;stroke-width:0.5px"/>
            <line id="Axo_Line-69" data-name="Axo Line" x1="1064.25" y1="817.36" x2="1133.16" y2="777.57"
                  style="fill:none;stroke:#2f0987;stroke-linecap:round;stroke-linejoin:round;stroke-width:0.5px"/>
            <line id="Axo_Line-70" data-name="Axo Line" x1="1082.85" y1="810.8" x2="1185.14" y2="751.74"
                  style="fill:none;stroke:#2f0987;stroke-linecap:round;stroke-linejoin:round;stroke-width:0.5px"/>
            <line id="Axo_Line-71" data-name="Axo Line" x1="1078.56" y1="819.48" x2="1147.53" y2="779.66"
                  style="fill:none;stroke:#2f0987;stroke-linecap:round;stroke-linejoin:round;stroke-width:0.5px"/>
            <line id="Axo_Line-72" data-name="Axo Line" x1="1048.73" y1="818.5" x2="1147.69" y2="761.36"
                  style="fill:none;stroke:#2f0987;stroke-linecap:round;stroke-linejoin:round;stroke-width:0.5px"/>
            <line id="Axo_Line-73" data-name="Axo Line" x1="1045.14" y1="819.26" x2="1113.54" y2="779.77"
                  style="fill:none;stroke:#2f0987;stroke-linecap:round;stroke-linejoin:round;stroke-width:0.5px"/>
            <line id="Axo_Line-74" data-name="Axo Line" x1="1109.88" y1="837.16" x2="1171.31" y2="801.69"
                  style="fill:none;stroke:#2f0987;stroke-linecap:round;stroke-linejoin:round;stroke-width:0.5px"/>
            <line id="Axo_Line-75" data-name="Axo Line" x1="1277.7" y1="932.29" x2="1369.81" y2="879.11"
                  style="fill:none;stroke:#2f0987;stroke-linecap:round;stroke-linejoin:round;stroke-width:0.5px"/>
            <line id="Axo_Line-76" data-name="Axo Line" x1="1288.83" y1="935.37" x2="1360" y2="894.28"
                  style="fill:none;stroke:#2f0987;stroke-linecap:round;stroke-linejoin:round;stroke-width:0.5px"/>
        </g>
    </g>
</svg>
