<?xml version="1.0" encoding="utf-8"?>
<!-- Generator: Adobe Illustrator 25.0.1, SVG Export Plug-In . SVG Version: 6.00 Build 0)  -->
<svg version="1.1" id="Layer_1" xmlns="http://www.w3.org/2000/svg" xmlns:xlink="http://www.w3.org/1999/xlink" x="0px" y="0px"
	 viewBox="0 0 1920 1080" style="enable-background:new 0 0 1920 1080;" xml:space="preserve">
<style type="text/css">
	.st0{fill:#FF0000;}
	.st1{fill:#FF2020;}
</style>
<g>
	<path class="st0" d="M1279.9,666.2c3.4-7.2,3.1-25.6,3.3-34.8c-17.1,11.9-34.3-0.8-28.2-21.1c0.8-2.1,3.6-8.4,7.1-6.8
		c4,2.1,4,9.9,1.1,13.3c-2.2,2.6,0.3,8.4,7.9,6.5c3.9-1,8.8-4.3,11.7-7.3c-1.5-22.7-6.1-48.2,0.7-71.9c0.9-2.9,2.5-6.7,5.5-8.3
		c6.6-3.3,14.5,10.2,20.2,19.8c3.8,6.5,8.7,15.3,12.3,21.9l0.3-0.2c2.5-1.8,5.1-3.7,8-5.1c8.5-4.2,16.2-0.3,19,9.2
		c0.8,3.2,1,7.4-1.6,9.9c-2.2,2.2-5.2,0.1-5.8-2.5c-1.2-3.2-2.2-4.4-6.1-4c-2.7,0.8-5.1,2.3-7.5,3.9c4.1,7,8.5,14.1,13.6,20.6
		c3.2,4.2,7.2,9.1,12.7,10.5c10.7,2.8,5.9,14.4,2.1,14.6c-12.9,0.8-25.2-20.4-31.7-30.7c-1.6-2.8-3.2-5.5-4.8-8.5
		c-3.2,3-6.3,6.3-9.3,9.4c-6.3,6.7-11.7,14.2-18.7,20.3c0.2,8.8,0.2,17.7-0.3,26.6c-0.6,8.1-0.7,17.7-5.3,25
		C1280.7,684,1276.4,673.9,1279.9,666.2z M1291.3,608.6c5.4-5.4,10-11.3,15.1-16.9c2.4-2.5,4.8-5.1,7.2-7.2
		c-4.8-9.4-13.4-28.3-22.1-34.7c-2.4,9.2-2.2,19.3-2.1,30.8C1289.5,589.3,1291.1,600.1,1291.3,608.6z"/>
	<path class="st0" d="M1424.4,550.2l-20.4,12c3.1,7.5,6.3,14.8,9.7,23.1c2.7,5.8-3.3,16.4-7.4,7.3c-3.6-8.3-7-16.7-10.7-25.4
		l-22.5,13.2c-4.8,2.8-7.9-10.6-2.4-13.8l19.7-11.6l-7.3-16.7c-2.2-5.6,2.9-16.6,7.4-7.3c2.6,6.1,5.1,12.2,8.3,19.1l23.2-13.6
		C1427,533.5,1430.2,546.8,1424.4,550.2z"/>
</g>
<g>
	<g>
		<g>
			<g>
				<g>
					<path class="st1" d="M1501.6,589.4c-0.1,1.5,1.2,0.9,1.4,1.2C1502.6,588.1,1501.3,589.5,1501.6,589.4z"/>
					<polygon class="st1" points="1496.8,565.7 1497.3,566 1495.5,562.8 					"/>
					<path class="st1" d="M1491.7,544c-0.7,1.3-0.1,3.2,0.8,5.3c0.9,2.1,1.9,4.4,1.9,6.4l-0.3,0.7l2.1,1.4c-0.7-2.3-1.6-5-2.5-7.4
						C1492.7,548,1491.9,545.7,1491.7,544z"/>
					<path class="st1" d="M1492,531.1c-0.5,1-1.6-2.2,0.8,2.7c0-0.3,0-0.4,0-0.6C1492.6,532.8,1492.3,532.2,1492,531.1z"/>
					<path class="st1" d="M1492.8,533.3C1493.7,535.5,1492.9,531.6,1492.8,533.3L1492.8,533.3z"/>
					<path class="st1" d="M1488,523.2l2,2.6c0.2-0.8-0.9-3.5-0.1-2.6C1488.1,520.3,1488,521.2,1488,523.2z"/>
					<path class="st1" d="M1485.3,521.2c0.3,0.4,0.7,0.9,1,1.3C1486.4,522.2,1486.3,521.7,1485.3,521.2z"/>
					<path class="st1" d="M1488.3,525.4l-2-2.9c-0.1,0.6-0.7,0.9,0.9,1.3C1486.5,523.9,1487.3,524.2,1488.3,525.4z"/>
					<path class="st1" d="M1488.8,527.3c0.2,0.9,0.4,1.9,0.3,2.4c-0.1,0.5-0.4,0.3-1.3-1c1.3,2.7,2.1,3.7,2.4,3.4
						c0.1-0.2,0.1-0.7-0.1-1.5C1489.9,529.8,1489.6,528.7,1488.8,527.3z"/>
					<path class="st1" d="M1489.2,543.6c0,0.8,0.1,1.6,0.1,2.4l1.2,1.7c-0.3-0.4-0.5-1.5-0.6-2.5
						C1489.7,544.2,1489.5,543.4,1489.2,543.6z"/>
					<path class="st1" d="M1479.5,505.3c-0.5,0.1-0.5,1.5-0.8,2c0.6,0.6,1.1,1.1,1.7,1.7C1480,507.8,1479,505.8,1479.5,505.3z"/>
					<path class="st1" d="M1478.7,507.3l-2.5-2.5C1477.7,507.5,1478.4,507.7,1478.7,507.3z"/>
					<path class="st1" d="M1482.9,521.7l1,1.1l1,1.1l1.9,2.2c-1.4-1.8-2.8-3.7-4.4-5.4L1482.9,521.7z"/>
					<path class="st1" d="M1471.9,494.1c0.7,0.3,1.3,0.7,2,1l-1.7-1l-1.7-0.9L1471.9,494.1z"/>
					<path class="st1" d="M1466.2,487.2c1.6,0.6-0.2-2.5,1.2-1.7c-1.7-1.8-3.6-2.9-5.4-3.8C1463.7,483,1465,484.7,1466.2,487.2z"/>
					<path class="st1" d="M1459.2,480.2c0.8,0.6,1.8,1.1,2.9,1.6C1461.2,481.2,1460.2,480.6,1459.2,480.2z"/>
					<path class="st1" d="M1473,499.8c0.1-0.4,0.4-1.2-0.5-3l-0.2,1.9C1472.5,499,1472.7,499.4,1473,499.8z"/>
					<path class="st1" d="M1472.2,498.7L1472.2,498.7c-0.8-1.3-1.4-2.1-1.7-2.5C1470.8,496.5,1471.3,497.3,1472.2,498.7z"/>
					<path class="st1" d="M1473.2,500c-0.1-0.1-0.1-0.2-0.2-0.3C1473,499.9,1473,500,1473.2,500z"/>
					<path class="st1" d="M1479.7,513.2c-1.6-1.4-4.4-4.6-3.3-0.6C1477.9,513.5,1477.3,511.1,1479.7,513.2z"/>
					<path class="st1" d="M1472.9,502.3c0.6,1,1.2,2.2,1.8,3.2c0.2-0.2,0.3-1.1,1.1-0.4C1474.8,504.2,1473.9,503.2,1472.9,502.3z"/>
					<polygon class="st1" points="1471.5,501.1 1472.9,502.3 1472.2,501.2 					"/>
					<path class="st1" d="M1462.6,485.7c-0.7-0.4-1.4-1-2-1.6c-0.7-0.6-1.3-1.2-2-1.9c0.6,0.9,1.3,1.7,2,2.5c0.7,0.8,1.3,1.7,2,2.5
						C1463,487.2,1464.1,487.4,1462.6,485.7z"/>
					<path class="st1" d="M1467.4,492c-0.1-0.1-0.2-0.2-0.3-0.2C1467.1,492,1467.2,492.1,1467.4,492z"/>
					<path class="st1" d="M1444.4,468.9c0,0.1,0.1,0.3,0.1,0.4c0.1,0,0.1-0.1,0.2-0.1L1444.4,468.9z"/>
					<path class="st1" d="M1462.5,487.6c0.8,1.4,1.7,1.9,2.6,2.3c-0.9-0.8-1.8-1.7-2.6-2.7C1462.2,487.2,1462.1,487.3,1462.5,487.6z
						"/>
					<path class="st1" d="M1454.9,476.7c0.4,0.8,0.9,1.6,1.5,2.5C1456.1,478.3,1455.4,476.7,1454.9,476.7z"/>
					<path class="st1" d="M1467,491.1c0.1,0,0.1,0.1,0.2,0.2C1467.1,490.7,1467,490.8,1467,491.1z"/>
					<path class="st1" d="M1467,491.1c-0.7-0.5-1.3-0.8-1.9-1.2c0.7,0.7,1.3,1.3,2,1.8C1467,491.5,1467,491.3,1467,491.1z"/>
					<path class="st1" d="M1434.8,471.8c0.5-0.4,1.7-0.2,3,0.5c0.7,0.4,1.4,0.8,2,1.4c0.6,0.6,1.2,1.3,1.6,2.1
						c3.1,1.5,4.1-2.8,3.1-6.5c-0.4,0.3-0.7,0.6-4-1c0.7,1.2,5.1,6.3,2.1,5.1c-2-1.3-2.7-2-3-2.6c-0.4-0.6-0.4-1.2-1.1-2.1
						c0.3,1.2-1.2,0.7-2.8,0.2c-1.6-0.5-3.5-0.9-3.7,0.3c1.3,0.5,2.5,1.2,3.7,1.8C1435.6,471.3,1434.1,470.8,1434.8,471.8z"/>
					<path class="st1" d="M1449.6,473.9l1.2,0.9c-1.1-1.4-1.7-2.5-2.8-4.7c-2.3-1.2-3-1.2-3.3-1c1.8,1.7,3.7,3.3,5.4,5L1449.6,473.9
						z"/>
					<path class="st1" d="M1455.7,479.5c-1.7,0-4.7-2-4.1,0.5c1.6,1.4,2.3,1.9,2.9,2c0.6,0.2,1.1,0.1,2.2,0.9
						c-5.1-4.9,1.9,1-1.1-3.2c1.1,0.9,2,1.7,2.9,2.5c-0.8-1-1.5-2.1-2.1-3.1c0,0.1,0,0.1,0.1,0.2l0,0c0,0,0,0,0,0
						c0.1,0.3,0.1,0.5-0.1,0.2c0,0-0.1-0.1-0.1-0.1C1456.1,479.5,1455.9,479.5,1455.7,479.5c-1.2-1.7,0-0.5,0.6-0.1
						c0.1,0,0.1,0,0.2-0.1c0,0,0,0,0,0c-0.9-0.8-1.8-1.5-2.8-2.3l-2.8-2.2C1451.8,476,1453.2,477.3,1455.7,479.5z"/>
					<path class="st1" d="M1472.2,511c0-0.2,0.1-0.3,0.1-0.3C1471.9,510.3,1471.7,510.2,1472.2,511z"/>
					<path class="st1" d="M1471.3,508.2c0.4,0.3,1.1,0.4,1.8,1.8c0.4,1.4-0.5,0.3-0.9,0.6c0.8,0.6,2.6,2.4,1.5-0.5l-0.4-0.3
						c-1.1-2.6-1.7-6.5-1.3-6.2C1471.6,504.9,1471.3,506,1471.3,508.2z"/>
					<path class="st1" d="M1463.9,493.6c-1.3-1.4-2.8-2.7-4.2-4l1.1,2.9l0.4-0.5C1463.1,494.7,1463.3,493.6,1463.9,493.6z"/>
					<path class="st1" d="M1444.3,468l1.5-0.5c-1.3-0.3-2.6-0.5-3.9-0.7L1444.3,468z"/>
					<path class="st1" d="M1438.1,463.3l0.9-0.8c-0.7-0.2-1.4-0.4-2.1-0.6L1438.1,463.3z"/>
					<path class="st1" d="M1219.1,664l1.1,1.2C1219.7,664.6,1219.4,664.2,1219.1,664z"/>
					<path class="st1" d="M1213.7,653.9l-0.7,0C1213.6,654.2,1213.9,654.3,1213.7,653.9z"/>
					<path class="st1" d="M1259.6,455.6c-2.7,0.4-6.1,0.6-5.1,1.5l1.4,0.7C1257.2,456.6,1258.5,456,1259.6,455.6z"/>
					<path class="st1" d="M1195.1,560.9c0.2-0.2,0.3-0.4,0.5-0.6c-0.3-0.7-0.6-1.3-0.9-1.9C1194.9,559.2,1194.9,560,1195.1,560.9z"
						/>
					<path class="st1" d="M1200.1,563.6l-1.4,2.9C1199.1,565.8,1199.6,564.9,1200.1,563.6z"/>
					<path class="st1" d="M1262.4,708.3c0.7,0,1.5,0,2.2-0.1C1262.3,706.6,1263,707.9,1262.4,708.3z"/>
					<path class="st1" d="M1365.6,433.9c-2.1-0.8-3.8-1.2-5.3-1.5C1362.8,433.5,1364.8,434.8,1365.6,433.9z"/>
					<path class="st1" d="M1204.8,666.7c0.7,0.8,1.2,1.1,1.4,0.9C1205.4,666.8,1204.9,666.4,1204.8,666.7z"/>
					<path class="st1" d="M1354,431.9c0.4,0.2,0.8,0.3,1.1,0.4c1.6-0.1,3.3-0.2,5.2,0.1C1358.4,431.6,1356.2,431.1,1354,431.9z"/>
					<path class="st1" d="M1462.3,671c0.1-0.1,0.3-0.3,0.4-0.3C1462.6,670.5,1462.5,670.7,1462.3,671z"/>
					<path class="st1" d="M1498.6,611.5c0,0.7-0.2,1.9-0.3,3C1498.5,613.9,1498.6,613,1498.6,611.5z"/>
					<path class="st1" d="M1411.8,446.7C1413.3,447.4,1412.1,446.7,1411.8,446.7L1411.8,446.7z"/>
					<path class="st1" d="M1416.5,454.9c-0.4,0-0.7,0-0.9,0.3C1415.9,454.9,1416.2,454.9,1416.5,454.9z"/>
					<path class="st1" d="M1337.9,439.7c0,0-0.1,0-0.1,0C1338.2,439.9,1338.1,439.9,1337.9,439.7z"/>
					<path class="st1" d="M1413.7,448.4c-0.5-0.4-1-0.9-1.7-1.3C1412.3,447.3,1412.8,447.7,1413.7,448.4z"/>
					<path class="st1" d="M1413.7,447.7c0.5,0.3,0.9,0.5,1.2,0.8C1415.2,448.3,1415.1,448.1,1413.7,447.7z"/>
					<path class="st1" d="M1409.7,445.8c0.9,0.4,1.6,0.8,2.4,1.2c-0.3-0.2-0.3-0.3-0.2-0.3C1411.3,446.5,1410.7,446.3,1409.7,445.8z
						"/>
					<path class="st1" d="M1362.4,736.5c0.1,0,0.2,0,0.3,0.1C1364.2,735.9,1363.6,736.1,1362.4,736.5z"/>
					<path class="st1" d="M1236.7,491.8c0-0.1,0-0.1,0.1-0.2c-0.1,0-0.1,0.1-0.2,0.1L1236.7,491.8z"/>
					<path class="st1" d="M1233.8,496.5c0.3-2.8,1.3-3.7,2.7-4.7c-1.3-0.4-2.7-0.8-4-1.2C1233,492.6,1233.4,494.6,1233.8,496.5z"/>
					<path class="st1" d="M1235.6,685.9l-1.6-3.6c4.4,2.1,6,4.9,4.9,1.3c-0.8,0.6-1.9,0.2-3-0.6c-1.1-0.9-2.4-2.1-3.5-3.6
						c-1.1-1.4-2.3-2.8-3.4-3.7c-1-0.9-2-1.4-2.9-0.9l-0.7-2.5c0.4,0.6,0.6,0.6,1,1.1c-1.2-5-4.5-1.2-7.4-6.8
						c-0.9-2-1.1-3.7,0.1-2.6l-3.3-3.7c-0.6-1.3,0.2-1.3,0.8,0c-1.3-2.1-2.4-4.3-3.7-6.4l0.1,0c-1.1-0.6-2.9-2.4-3.8-3.3
						c-0.2-2,0.8,0.7,1,0c-0.9-1.1-1.8-2.2-2.6-3.4c0.2-1,0.8-0.8,1.5,0c0.8,0.8,1.6,2.1,2.1,3.4c1.1-2.6,0.5-3.2-0.5-4.3
						c-0.9-1.1-2.3-2.7-2.6-6.9c0.6,1.1,1.2,2.3,1.9,3.4c0.6-1.6,0.4-2.9,0.2-4.5c-0.3-1.6-0.7-3.3-0.7-5.5
						c-0.2,0.6-0.4,2.9-0.8,4.6c-0.4,1.7-1.1,2.8-2.3,0.9c-0.1-1.3-0.5-2.9-2-4.9c1.4-0.5,0.4-2.6-0.5-5.3l1.9-0.3
						c-0.7-1.4-1.2-2-1.8-2.5c-0.5-0.4-1.1-0.7-1.7-1.5c-0.6-3.5,0.7-4.5,1.8-5.5c-0.3-2.7-0.8-1.7-1.3-0.8
						c-0.5,0.9-1.1,1.8-1.9-1.4c0-1.2-0.1-2.3-0.3-3.3c-0.1-1-0.3-2-0.6-3.1c-0.5-2.1-1.3-4.2-2.1-7c0.4-3.3,1.2,0.5,1.7-0.7
						l-1.7-2.8c0-0.7,0.5-0.5,0.7-0.4c-0.7-2.4-1.9-0.1-2.6-4c-1-0.5-0.4-2.5,0.4-5c0.4-1.2,0.8-2.6,0.9-3.9c0.2-1.3,0-2.7-0.5-3.9
						c0.6-1.1,1.1,0.6,1.9,0.3c-0.5-3.3-0.7-4.7-1-6c-0.2-1.3-0.5-2.4-1.2-5.3c0.6-1.5,1.2-3,1.9-4.4c-2,3.1-2.9-1.4-3.6-5.6
						c-0.9,1.1-1.7,2-2.1,2.7l0.1-3.2c0-1.1,0.1-2.1,0.2-3.2c0.5-0.7,1,0.1,1.5,1.3c-0.1-0.5-0.1-0.9-0.2-1.2c1.2-2,2-0.6,2.7,1.1
						c-0.5,0.7-1.1,1.3-1.7,1.9c0.9,1.8,1.9,3.4,3.1,3.3c-0.1-0.4-0.2-1.2-0.2-2.1c0.2,0.5,0.5,0.8,0.7,0.6c0.2-0.2-0.1-0.9-0.3-1.9
						l2.4-0.9l-0.8-0.5l1.5-3.7c0.5-1.2,1.1-2.4,1.7-3.6c-0.1-1.5-0.3-3-0.5-4.5c-0.1-1.5-0.3-3.1-0.3-4.7c0-0.8,0-1.7,0-2.6
						c0-0.9,0.1-1.8,0.3-2.7c0.1-0.9,0.3-1.9,0.5-3c0.2-1,0.5-2.1,0.9-3.2c0.5,2.7,2.2,1.5,3.8,2.3c-1.4,0.7-1.8,2.5-2.2,4.5
						c-0.2,1-0.4,2.1-0.6,3.2c-0.2,1.1-0.5,2.2-0.9,3.3c1-2.2,1.6-1.4,1.7-0.8c0.3-2.8,0.8-5.6,1.2-8.4c0.7,0.4,1.1,0.1,1.5-0.5
						c0.4-0.6,0.9-1.5,1.7-2.4c-1.7,0.1-1.5-1.5-0.8-3.6c0.2-0.5,0.4-1.1,0.6-1.6c0.2-0.6,0.5-1.1,0.7-1.7c0.5-1.1,0.9-2.2,1.1-3
						c1,0.3,1.5,1.5-0.6,5c2.1-1.5,1.9-3.2,1.8-4.9c-0.2-1.7-0.3-3.5,1.7-5c-0.5,0.9-0.9,1.3-0.6,1.9c0.2-1.2,1.2-3.1,2.1-4.3
						c0.9-1.3,1.9-2,1.9-1.2l-0.5,0.9c1-1.4,2.2-3.1,3.4-5c1.2-1.9,2.6-3.8,3.7-5.7c1.1-1.9,2.2-3.6,2.9-5.1
						c0.6-1.5,0.9-2.6,0.6-3.2c0.3,0.2,1.8,2.6,1.9,3.3c0.3-4.8,0.8-9.9,1.7-14.8c0.4,1.2,2.3,1.9,3.7,2.9c1.4,1.1,2.3,2.5,0.8,4.9
						c0.7-0.5,1.4-1,2.2-1.8c0.8-0.8,1.6-1.8,2.6-3.2c-1,0.5-4.2-0.4-3.3-1.5c2.4-0.6,3.1-0.8,3.9-1.2c0.4-0.2,0.8-0.4,1.4-0.7
						c0.6-0.3,1.5-0.7,2.8-1.1c-1.5,0.7-2.5-3-0.4-4.7c0,0.7,2.4,2.4,1.9,3.3l1.3-3.4c0.5-1.1,1-2.2,1.5-3.3
						c-0.9,1.5,1.6,2.4,3.3,2.3c-0.5-0.1,0.6-0.9,2-1.9c1.4-1,3.1-2,3.6-2.6l-2.7,0.9c3.1-1.9,3.8-3.9,4.7-5.9c0.4-1,0.8-2,1.6-3
						c0.7-1,1.7-2,3.4-2.9c-0.4,1.1,0.3,4.8,3.7,3.3c0.1-0.6,0.4-1.6,0.7-2.8c0.3-1.2,0.8-2.7,1.4-4.1c1.3-2.9,3.2-6.2,6.1-8.2
						l1.6,0.4c1.4-1,2.8-2.1,4.3-3.1c-1,1.7-3,4.9-5.1,8c-1,1.5-2,3.2-3,4.6c-1,1.5-1.9,2.7-2.6,3.7c2.8-0.6,1.2,0.7,4.7-1.2
						c1.7,0.2-1.3,2.2-2.3,2.8c2.8-1.2,5.6-2.5,8.5-3.5c-0.6-0.8,0.8-2,2.3-3.2c1.5-1.1,3-2.1,2.5-2.9c-3,1.8-5.7,4-8.5,6
						c-0.6-0.8,0.1-2.7,1.8-4.7c0.9-1,1.9-2.1,3.3-3c1.3-0.9,2.8-1.6,4.5-2.2c1.9,0.1,0.1,3.8,0.5,4.4c0.3-0.5,1.6-1.4,3-2.1
						c1.4-0.7,2.8-1.2,3.2-1.1l-2.3,1.9c1.9-0.2,3.1-1.3,4.4-2.4c1.4-1,2.9-1.8,5.3-1.5c0.8-0.1,2,0.1,3.1,0.4
						c1.1,0.2,1.9,0.4,1.9-0.2c-2.9-1.7-5.3-8.4-4-10.5c0.3,0,2.5,0.1,4.9,0.2c0.6,0,1.2,0.1,1.8,0.1c0.6,0.1,1.2,0.2,1.7,0.2
						c1.1,0.2,1.9,0.4,2.5,0.6c1.5,0.7,0.7,1.9-0.2,3.1c-0.8,1.2-1.7,2.4-0.4,3c0-0.6,1.3-1.5,1.8-1.8c1.7,0.2-0.4,1.8,3.1,0.9
						c0.3-2.1,7.2-0.7,1.4-1.9c1.7-0.5,2.6-0.5,3.6-0.5c1,0,2.1,0.1,4.1-0.1c-0.7-0.6,0.1-1.8,1.6-2.9c1.5-1.1,3.6-2.3,5.4-2.6
						c-0.2,0.5,0.6,1.2,1,1.5c1.8,0,3.4,0.1,4.9,0.1c1.5,0.1,2.9,0.3,4.2,0.5c1.4,0.2,2.7,0.3,4.1,0.5c1.4,0.2,2.9,0.4,4.6,0.5
						c0.6,0.5,3.8,1.4,2.3,2.2c1-0.2,1.9-0.8,4-0.6c3.7,2.3-4.6-0.3-1.8,2.2c0.4-1.1,5.5-1,8.5-1.2c-0.3-1-2-1.4-4-1.4
						c-2,0-4.3,0.3-5.8,0.4c0.1-1.3,1.5-2.4,3.9-3.2c1.2-0.4,2.6-0.8,4.1-1c1.6-0.2,3.3-0.3,5.2-0.2c2.9,0.2,3.4,0.8,3.4,1.2
						c-0.1,0.4-0.7,0.8-0.2,0.7c2.6,0.7,4.5,0.9,6.1,0.9c1.6,0.1,2.7-0.1,3.9-0.3c1.1-0.2,2.2-0.3,3.5-0.1c1.3,0.2,2.8,0.8,4.9,1.9
						c2.9,2.7-0.9,3.1-0.5,4.4c-2.3-0.4-3.9-1.3-5.3-2.1c-1.4-0.7-2.7-1.5-4.2-1.9l3.5,1.8c-1.6,0.1-4.7-0.3-6.2-1.3
						c0.6,0.6,2,1.2,3.8,1.8c0.9,0.3,2,0.6,3.1,1c1.1,0.4,2.3,0.8,3.5,1.2c1.2,0.4,2.5,0.8,3.7,1.3c1.2,0.5,2.5,1,3.7,1.6
						c1.2,0.5,2.4,1,3.4,1.6c1.1,0.6,2,1.2,2.9,1.7c1.5,0.1,4.1,0.6,3.3-0.4l-2.5-0.9c-1.7-2.2,5.3,0.4,2.5-1.5
						c1.8,0.3,3.7,0.7,5.8,1.3c1,0.3,2.1,0.7,3.1,1.2c1,0.5,2,1.2,3,2l-0.1,2.1c0.2-0.5-2.3-2.6-3.8-2.8c1.1,0.2,2.5,1.7,3.9,3
						c0.7,0.7,1.5,1.3,2.3,1.7c0.8,0.4,1.5,0.6,2.3,0.4c-0.8-1-1.5-2-2.3-2.9c1.8,0.5,3.9,1,6,1.7c1,0.4,2.1,0.7,3.1,1.3
						c1,0.6,1.9,1.2,2.8,2c-0.6-2.7-1-0.4-2.4-4.1c0.9,3.7-9.8-6.4-7.5-1.6c-0.8-1.9-1.9-2.8-3.2-3.8c-1.3-1-2.6-2-4.1-3.9
						c-0.2,0.6,0.8,1.7-2.4-0.3c-0.2,0.1-0.7,0.1-1,0.1c-0.1-0.1-0.1-0.1-0.2-0.2c0.1,0.1,0.1,0.1,0.2,0.2c-0.2,0-0.2,0,0.1,0.1
						c0.7,0.7,1.2,1.3,1.3,1.7c-1.2,0.2-3.1-0.4-5-1.1c-1.9-0.6-3.8-1.3-4.9-1.4c-1.9-1.2,1.1-0.3,0.3-1.3c-1.1-0.1-2.1-0.2-3.2-0.2
						c0.3-1.3-4.8-4.3,0.5-3.1l-4.5-1.8c-1.2-0.9-2.7-1.6-4.3-2.3c-1.5-0.6-3.1-1.1-4.3-1.2c-2.1-0.9-6-0.1-3.8-0.6
						c-1.3-0.2-2.5-0.4-3.8-0.6l-3.8-0.4l0-0.3c-3.6-1-7.5-1-11.4-1.5c-4-0.2-8-0.8-12.1-2.3c-1.3,0.1-2.6,0.2-4,0.2
						c-1.5,0.1-3.2,0-5.3-0.2l-0.8-1.2c-1.6,0.1-4.1-0.1-6.3-0.2c-2.2-0.1-4.2-0.2-4.9,0.5c-0.9-0.7-2.4-1-4.1-1.1
						c-0.9,0-1.8,0-2.8,0c-1,0.1-2,0.2-3.1,0.4c-2.1,0.4-4.3,0.7-6.2,1.2c-2,0.5-3.8,0.8-5.2,0.9l0.1,1.5c-0.5,0.1-1,0.2-1.4,0.3
						l-1.4,0.4c-0.9,0.3-1.9,0.5-2.9,0.9c-1,0.3-2,0.7-3,1c-1,0.4-2.1,0.9-3.2,1.3l0.6,1.2c-1.8,1.1-4.5,1.5-7.4,2.2
						c-1.5,0.3-3,0.6-4.6,1c-1.6,0.4-3.1,0.9-4.6,1.6c0.2-0.6,1.8-1.1,3-1.3c-2.1,0-4.1,0.5-6,1.3c-1.9,0.8-3.6,2-5.3,3.1
						c-1.7,1.1-3.3,2.4-5,3.4c-1.7,1-3.4,1.8-5.2,2.2c-1.3,1.3-2.5,1.8-3.7,2.1c0.1-0.1,0.3-0.2,0.3-0.3c-0.2,0.1-0.4,0.2-0.6,0.4
						c-0.8,0.2-1.6,0.4-2.5,0.7c0.8-0.1,1.5-0.3,2.1-0.5c-1.2,0.7-2.8,2-4.3,3.4l-1.5-0.7c-0.1,0.1-0.2,0.2-0.4,0.3
						c-2,0.6-1,1.4,0.5,1.8c-0.7,0.7-1.3,1.5-1.7,2.2c-1.3-0.5-2.3,0.4-3.3,1.4c-0.5,0.5-1.1,1-1.7,1.3c-0.6,0.3-1.3,0.5-2.1,0.4
						c-0.2,0.9-2,2.7-3.8,4.5c-1.6,1.9-3.1,4-2.7,5.3c-0.3-0.2-0.8,0.1,0-0.7c-1.9,1.2-3.7,2.6-4.7,4.5l-2-0.7l-0.9,2.6l-0.8,2.6
						c-2.8,1.3-4.2,1.8-3.2-1.3c-0.8,1.7-1.5,2.8-2,3.7c-0.5,0.9-0.9,1.5-1.2,2c-0.7,1.1-1.4,2.1-2.5,5.1l-0.7-1
						c-1.3,1.7-2.2,5.4-3.8,5.8c-1.2,0.6-2.6,2.2-4.3,4.3c-0.4,0.5-0.9,1.1-1.3,1.7c-0.4,0.6-0.8,1.2-1.3,1.9
						c-0.9,1.3-1.8,2.7-2.7,4.2c-3.6,6-7.3,12.9-10.7,18.3c2.1-0.4,1.1,0.7,0,2.2c-1.1,1.5-2.5,3.3-1.3,4c-1,0.4-2.1,1.8-2-0.3
						c-0.2,0.8-0.4,1.5-0.7,2.2c-0.2,0.7-0.4,1.3-0.7,1.9c-0.5,1.2-0.9,2.2-1.4,3.3c-0.9,2-1.3,3.9-0.8,6.3c-1,0.5-0.8-1.7-1.4-1.2
						c0,0.6,0.1,2.2-0.5,2.7c-0.7,0.5-0.4-1.1-0.5-2.2c-0.4,1.6-0.6,2.9-0.6,3.9c0.1,1.1,0.3,1.8,0.6,2.5c0.7,1.2,1.8,1.8,2.9,2.3
						c-0.9,1.5-1.4,2.6-1.6,3.7c-0.1,1.1,0.1,2.2,0.7,3.5c-1,1-2.1,2.7-1.7-1.3c-0.1,0.6-0.4,1.7-0.7,3c-0.2,0.7-0.3,1.4-0.5,2.2
						c-0.1,0.8-0.3,1.6-0.4,2.4c-0.4,3.2-0.6,6.2,0.4,6.4c-0.5,0.7-0.4,3.1-0.2,3.7c-0.1,1.3-0.2,2.2-0.3,3.1
						c-0.1,0.8-0.1,1.5-0.1,2.2c-0.1,1.4-0.1,2.7-0.1,5.2l0.3-1.4c2.2,2,0.5,4.1,0.9,8.1l-0.2-0.1c-0.4,2.3-0.4,3.7-0.4,4.6
						c0,0.9,0.2,1.4,0.3,1.9c0.1,0.5,0.2,1,0.2,1.9c0,0.5,0,1-0.1,1.8c0,0.7-0.1,1.7-0.2,2.8l1.4-0.7c1.6,0.2,1.4,2.2,1,4.9
						c-0.3,2.6-0.6,5.8,0.4,8.3l0.5-2c0.7,1.3,0.2,3.4-0.6,5.7c-0.7,2.2-1.7,4.6-1.4,6.1c-0.1,0.7-0.7-0.9-1.1-1.7
						c0.3,7.9,2.1,0.5,4.1,5.9c-0.7,1.3-2.9-0.6-1.9,3.2c-0.1,1,1.6,3.5,3.3,6.3c0.9,1.4,1.8,2.9,2.5,4.4c0.3,0.7,0.6,1.5,0.8,2.2
						c0.2,0.7,0.4,1.4,0.4,2.1c0.2-1.4,0.5-2.7,2.1-0.5c0.5,0.9,0.8,2,1.1,3.3c0.2,0.6,0.3,1.3,0.5,1.9c0.2,0.7,0.4,1.3,0.6,2
						c0.8,2.6,1.8,5.1,3.8,6.1c0.1,0.6,0,0.8-0.2,0.9c0.5,0.6,1.2,1.4,1.8,2.3c0.7,0.9,1.4,1.9,2.2,2.8c1.6,1.8,3.1,3.4,4.2,3.8
						c-0.7,1.3-0.1,2.8,0.9,4.4c1.1,1.6,2.6,3.3,4.3,4.9c1.6,1.5,3.2,3,4.2,4.2c1,1.2,1.4,2.2,0.5,2.9c1.1,1.2,2.1,2.4,3.2,3.5
						l3.4,3.4l-0.5,0.1c1,1.2,1.9,2.1,2.8,2.8c0.8,0.7,1.6,1.2,2.3,1.6c1.4,0.8,2.5,1.2,3.7,1.4c0.8,1.1-0.2,0.8-0.5,0.9
						c3,3.2,4.8,5,6.7,6.2c1.9,1.2,3.9,2.1,7.6,3.3l-0.2,1.7c0.5,0.1,1.4,0.8,2.5,1.7c1.1,1,2.5,2.1,4.1,3.4c0.8,0.6,1.6,1.3,2.5,2
						c0.9,0.6,1.9,1.2,2.8,1.8c1,0.6,2,1.1,3,1.6c1,0.5,2.1,0.9,3.2,1.2c-0.2,0.1-0.4,0.3-1.2,0.2c4.8,1.5,9.6,5,14.2,7.4
						c4.5,2.5,8.7,3.9,11.3,2c2.2,0.3,4.4,0.4,6.5,0.6c-3.9-1.3-3.4-1.8-2.4-2.2c1.1-0.4,2.7-0.6,1.2-1.5c1.6,0.3,3.4,1.2,4.5,2
						c1,0.7,1.2,1.4-0.8,1l-0.5-0.4c-2.2,2.5,9.7,3.4,9.1,5.1c8.1,1.6,16.1,2.7,24.1,3.5c2,0.1,4,0.3,6,0.4c2,0.1,4,0.1,5.9,0.1
						c1,0,2,0,3,0c1,0,2-0.1,2.9-0.1c2-0.1,3.9-0.1,5.8-0.4c-0.7-0.7-1.3-1.3-2-2c1.8-0.1,3.5-0.3,5.3-0.5c1.5,0.3,2.1,1.5-1.7,1.9
						c1.1,0.5,2.7,0,4-0.6c1.3-0.6,2.3-1.6,2.3-1.8c3.8-0.2,3.2,0.5,1.9,1.3c-1.3,0.8-3.2,1.6-2.1,1.4l3.1-0.7l-0.7-0.1
						c1.2-0.7,1.8-1.2,2.7-1.7c0.4-0.3,0.9-0.5,1.6-0.7c0.7-0.2,1.5-0.5,2.6-0.7c2.9-0.2,1.8,1,2.9,0.8c0,0.2,0.4,0.1,1.7-0.3
						c2.2-0.5,4.4-1.1,6.6-1.7l-3.1-0.9c1.3-0.8,2.9-1.2,3.6-1.6c0.7-0.4,0.7-0.6-1-1.1c2.6,0.8,8.7-0.9,14.3-3.2
						c1.4-0.5,2.8-1.2,4.1-1.8c1.3-0.6,2.5-1.2,3.6-1.7c2.2-1,3.8-1.9,4.5-2c0.8-0.8,1.6-1.4,2.5-2.1c0.8-0.7,1.7-1.3,2.6-1.9
						c1.8-1.2,3.9-2.3,6-3.6c-1.3,0.4-2.9-0.9,0.9-3c0.2,1.1,0.8,1.4,1.6,1.3c0.8-0.1,1.9-0.5,3.1-1.2c1.2-0.7,2.5-1.4,3.7-2
						c0.6-0.3,1.3-0.6,1.9-0.7c0.6-0.2,1.2-0.3,1.8-0.3c-1.8,0.2,0.6-1.8,2.7-3.8c1.1-1,2-2,2.4-2.7c0.4-0.7,0.1-1-1.3-0.7
						c3-2.2,1.1,1,3.9-0.1c0.7-0.9,1.5-1.7,2.3-2.5c0.8-0.9,1.6-1.7,2.5-2.5c0.9-0.8,1.8-1.6,2.7-2.5c0.9-0.9,1.8-1.7,2.8-2.6
						c0.9-0.9,1.9-1.7,2.9-2.6c0.9-0.9,1.9-1.9,2.8-2.8c1.9-1.9,3.6-4,5.2-6.3c-0.3-0.5-2.1,0.5-1.3-1.8c1.9-0.9,3.7-2,5.5-3.1
						c0.5-1,0.2-1.8,0.2-2.7c0-0.4,0.1-0.9,0.4-1.3c0.3-0.5,0.8-1,1.7-1.6c-0.7,0.2-1.7,0.5-1-0.8c6.9-8.2,11.5-18.3,15.2-28.5
						c3.7-10.3,6.6-20.7,10.7-31.1c-1.5,2.7-1.3,0.8-0.9-1.4c-0.5,1.4-1.3-0.2-2-0.1c1-2.9,2.1-5.8,3.1-8.7
						c-0.9-0.9-0.8-3.3-0.6-5.7c0.1-1.2,0.1-2.3,0-3.2c-0.1-0.9-0.3-1.6-0.8-1.8l0.3,2.9c-1.1-1.9-2.3-0.6-3.7,1
						c-1.5,1.6-3,3.6-4.4,3.2c0.6,1.1,0.6,2.2,0.3,3.5c-0.3,1.3-0.9,2.6-1.5,4c-0.6,1.4-1.1,2.9-1.4,4.5c-0.3,1.6-0.3,3.2,0.3,5
						c-0.8,1.3-0.7-1.4-1.5-0.8c1,1.9,0.7,3.9-0.7,7.4l-0.2-0.5c-0.1,0.6-0.3,1.3-0.4,1.9c-0.1,0.6-0.3,1.2-0.5,1.7
						c-0.3,1.1-0.6,2.1-1,3.1c-0.6,2-1.4,3.7-2.2,5.5c-0.4,0.9-0.8,1.8-1.2,2.7c-0.4,0.9-0.9,1.9-1.4,2.8c-1,2-2.1,4.2-3.5,6.7
						l1.7-0.2c-1.2,2.2-1.8,2.5-2.6,3.4c0.8,3.6,3-6.4,4.1-3c-1,0.5-2,1.7-2.9,3.3c-0.9,1.6-2,3.5-3,5.4c-1,1.9-2.1,3.7-3.2,5.1
						c-1.1,1.4-2.1,2.3-3.1,2.3c-2.1,3.2,2-0.1-0.1,3.2l-1.3,0.4l0.4,1.5c-0.7,1-1.6,1.6-2.3,1.9c-0.7,0.3-1.3,0.3-1.6,0.1
						c0.4-0.4,0.8-1.5,1.2-2.1c-1.4,1-2.6,2.9-3.6,4.7c-1,1.7-2,3.3-2.4,3.6c0.9-0.9,1.8-1.7,2.7-2.6c-0.7,1.1-1.5,2.2-2.3,3.3
						c-0.8,1.1-1.6,2.3-2.5,3.3c-1.8,2.1-3.7,4.4-5.7,6.5c-1,1.1-2,2.1-2.9,3.2c-1,1-2,2-3,3c-1.9,2.1-3.8,4-5.4,6l1,0
						c-0.6,0.8-1.2,1.4-1.7,1.9c-0.5,0.5-1,0.9-1.4,1.2c-0.9,0.7-1.6,1.1-2.3,1.5c-0.7,0.4-1.5,0.8-2.5,1.5c-1,0.6-2.3,1.5-3.9,2.8
						l0.2-0.3c-1,1.6-2.8,3.1-4.8,4.3c1.4-1.8-4.2,0.9-2.3-1.4c-0.8,0.7-1.4,1.3-2,1.7c-0.5,0.5-1,0.8-1.3,1.1c-0.7,0.6-1,1-1.1,1.3
						c-0.2,0.3-0.3,0.7-0.6,1.2c-0.3,0.6-0.7,1.4-1.7,2.5l-1.7-0.4c-0.6,0.9-0.9,1.5-1.5,2.1c-0.6,0.6-1.5,1.4-3.4,2.4
						c2.8-2.3-3.2-0.4-0.2-3.2c-2.3,0.4-4.1,1-5.7,1.8c-1.6,0.7-2.9,1.5-4.1,2.2c-2.3,1.5-4.3,2.5-6.8,1.4c-1.5,2.1,0.5,1.9,2.6,1.3
						c2.1-0.5,4.3-1.7,3.3-0.9c1.1,0.1,0.5,1-0.7,1.9c-1.2,0.9-3.2,1.8-4.6,2.1c-1.4,0.4-2.9-0.1-4.9-0.6c-1-0.2-2.1-0.4-3.4-0.4
						c-0.6,0-1.3,0-2.1,0.2c-0.8,0.1-1.6,0.2-2.4,0.4c0.7-0.1,0.7-0.4,1.4-0.5c-1.4-0.1-2.6,0.5-3.9,1c-0.7,0.3-1.3,0.5-2.1,0.7
						c-0.7,0.1-1.5,0.1-2.4,0c-1.5,2.2-4.2,0.6-4.4,3.1l6.5-1.7c-1.8,0.6-3.4,1.8-5.5,2.8c-2,1-4.5,1.6-7.7,1.3
						c0.4-0.5,2.2-1.4,3.4-1.9c-1.9-0.5-3.4,1-5.4,0.4c0.1-0.6,0.6-0.9,1.4-1.2c0.8-0.3,1.9-0.5,3.1-0.7c1.2-0.2,2.5-0.4,3.8-0.6
						c1.2-0.3,2.4-0.8,3.3-1.4c-1-0.3-2.8,0.5-4.2,0.9c-1.4,0.4-2.2,0.6-1.4-0.8c-1.2,1.8-3,1.9-5,2c-2,0-4.3-0.2-6.6,1.3l0.2-1.4
						c-0.7,0.3-2.3,1-3.7,1l2.5-1.9c-1.9,0.8-3.8,0.5-5.7,0.2c-1.9-0.3-3.7-1-5.5-0.6c3.9,0.1,4.3,0.5,4.2,1.1
						c-0.1,0.6-0.8,1.3,0.9,1.8c-1.2,0.3-2.2,0.4-3.1,0.4c-0.8,0-1.5-0.1-2.1-0.2c-1.2-0.3-1.9-0.8-2.6-1.4
						c-0.7-0.5-1.5-1.2-2.8-1.7c-1.3-0.5-3-0.8-5.7-0.9c1.5,0,5.4,1.3,3,1.8c-1-0.2-2.2-0.5-3.2-0.9c-1.1-0.4-2-0.9-2.6-1.3
						c-7.1-0.6,0.9,1.6-2.2,2.1c-2.2-2-3.6,0.2-6.9,0.2l0.2-1.4c-1-0.3-1.8-0.5-2.4-0.6c-0.6-0.1-1.1-0.2-1.5-0.1
						c-0.7,0.1-1.1,0.4-1.4,0.7c-0.6,0.6-1.1,1.2-4.6-0.2l3.5-1.2c-1.3-0.1-2.6-0.2-3.9-0.4l1.2-1.4c-2.2,0-3.5-0.1-4.9-0.5
						c-1.3-0.3-2.6-0.9-4.4-1.8c0.6,1.3-1.3,2.3-4.8,1.2c-2.1-1.7,1.8-0.8-3.1-2.5c0.7-0.2,1.5-0.5,2.2-0.4c0.8,0.1,1.6,0.4,2.4,1.4
						c0.4-0.4,1.4-0.5,1.8-0.9c-2.2-1.7-6.1-2.5-7.9-3.2c0.6,0.3,1.4,0.7,1.7,1c-1.3-0.1-2.6-0.3-3.8-0.4l-3.8-0.6
						c-0.9-1,0.2-1,1.2-1c-1.4-0.5-2.7-0.3-4.7-1.2c1-0.8,1.4-1.9,4.5-1.1c-2.3-0.5-4.6-1.2-6.9-1.9c-0.2-0.7-2.5-2.9-1.5-2.9
						c-1.5-1.3-3.8-1.9-6.3-2.8c-1.2-0.5-2.5-0.9-3.6-1.5c-1.2-0.6-2.3-1.3-3.2-2.2c-0.3,0-0.9-0.1-1.9-0.6c-1-0.8-1.8-1.6-2.7-2.4
						c-0.8-0.8-1.7-1.7-2.6-2.5c-0.9-0.8-1.8-1.6-2.9-2.3c-1-0.8-2.2-1.5-3.5-2.1c-0.4-1.3-0.7-2.4-1-3.7c-1.8-1.4-1.4-0.1-1.4,0.9
						c0,1-0.2,1.8-3.2-0.5c-2.2-1.6-2.2-2.3-1.8-2.8c0.4-0.5,1.2-0.8,0.7-1.6c-1.3-0.6-3.1-1.3-4.9-2.6c-1.8-1.2-3.4-3-4.4-5.4
						C1233.9,683.7,1234.5,684.9,1235.6,685.9z M1206.5,638.3c0.3,0.5,0.9,1.1,1.3,1.8c0.4,0.7,0.7,1.3,0.5,1.9
						c-1-0.3-1.4-0.7-1.6-1.3C1206.5,640,1206.6,639.3,1206.5,638.3z M1199.7,553.2c0.2,0.9-0.2,2.1-1.1,3.4
						C1198.7,555.5,1199,554.3,1199.7,553.2z M1394.7,441c-0.1,0-0.1,0-0.1,0C1392.2,439.7,1393.1,440.2,1394.7,441z M1399.7,443.5
						c0.6,0,0.6-0.2,0.5-0.5c-0.5,0.2-1.6-0.2-2.9-0.8C1397.5,442.7,1398,443.2,1399.7,443.5z M1380.7,743l-1.1-0.1
						C1381.8,742,1381.2,742.5,1380.7,743z"/>
					<path class="st1" d="M1199.5,563.2c-0.3,0.3-0.6,0.3-0.9,0.3C1198.8,564,1199.1,564.1,1199.5,563.2z"/>
					<path class="st1" d="M1262,708.3c0,0,0.1,0.1,0.1,0.1c0.1,0,0.2-0.1,0.3-0.1L1262,708.3z"/>
					<path class="st1" d="M1318,447.5c-1.1,0-1.7-0.2-2.1-0.4C1315.9,447.4,1316.4,447.7,1318,447.5z"/>
					<path class="st1" d="M1427.1,454.3c-1.1-0.6-2.2-1-3.3-1.5c1.5,0.8,1.9,1.4,2.5,2C1426.4,454.5,1426.1,453.8,1427.1,454.3z"/>
					<path class="st1" d="M1445.7,479.7c0.5,0.2,0.8,0.7,1.2,0.9l0.4-0.6C1445.7,478.6,1444.3,478,1445.7,479.7z"/>
					<path class="st1" d="M1427.3,460.2c-0.2,0.6,0.2,1.1,0.9,1.6c0.4,0.2,0.8,0.5,1.3,0.7c0.5,0.3,1,0.6,1.5,0.9
						c-0.1-0.1-0.2-0.2-0.3-0.2c0.8-0.5,0.6-1-0.2-1.5C1429.7,461.1,1428.5,460.6,1427.3,460.2z"/>
					<path class="st1" d="M1431.5,463.6c0.6,0.4,1.3,0.8,1.8,1.3C1433.9,464.5,1432.7,464.3,1431.5,463.6z"/>
					<path class="st1" d="M1406.5,445.4c0.9,0.8,1.3-1.1,1.7-0.4c0.9-0.4-1.1-0.8-2.5-0.9c-0.7,0-1.3,0.1-1.3,0.3
						C1404.4,444.6,1404.9,444.9,1406.5,445.4z"/>
					<polygon class="st1" points="1426.7,464.6 1426.8,462.9 1425,463.1 					"/>
					<path class="st1" d="M1411,454.2l3.2,2.1c0.1-0.2,0.6-0.2,1.2,0C1413.3,455.2,1411.1,453.8,1411,454.2z"/>
					<path class="st1" d="M1415.3,456.3c1.1,0.6,2.1,1.2,2.8,1.3C1417.6,457.3,1416.3,456.6,1415.3,456.3z"/>
					<path class="st1" d="M1422.1,462.2c-0.3-0.3-0.5-0.6-0.8-0.9l-2.3-1.4C1420.1,460.6,1421.1,461.3,1422.1,462.2z"/>
					<path class="st1" d="M1372.3,440.8l-4.2-0.3c-0.5,0.4,0.6,0.9,2.1,1C1371.3,441.3,1372.9,441.4,1372.3,440.8z"/>
					<path class="st1" d="M1383.5,447.7c-1-0.6-1-0.9-1.4-1.6l-0.6,1.8L1383.5,447.7z"/>
					<path class="st1" d="M1371.9,445.3c-0.5,0.4-6,0.4-1,1.2C1371.4,446.1,1375.5,446.5,1371.9,445.3z"/>
					<polygon class="st1" points="1310.9,443.7 1311.9,443.4 1311.1,440.4 					"/>
					<path class="st1" d="M1264.8,470.8c4.3-1.9-0.1-2.2,4-3.7c0.6-1.2-3.3,1.2-2.7,0.1C1264.1,469.4,1262.6,469.8,1264.8,470.8z"/>
					<path class="st1" d="M1266.1,467.2c0.3-0.3,0.6-0.7,1-1.2C1266.5,466.6,1266.2,467,1266.1,467.2z"/>
					<path class="st1" d="M1501.4,599.7c0.3-1.1,0.5-2.2,0.8-3.3l-1.1,2.1C1501.2,598.9,1501.3,599.3,1501.4,599.7z"/>
					<path class="st1" d="M1499.3,593.3l2-0.7l-1.7-2C1499.6,591.3,1499.8,592.7,1499.3,593.3z"/>
					<path class="st1" d="M1207.8,629.3l-0.5-0.1c-0.4,0.6-0.2,1.3,0.1,2.6L1207.8,629.3z"/>
					<polygon class="st1" points="1222.7,666.2 1222.4,665.6 1221.6,667.6 					"/>
					<path class="st1" d="M1245.4,690.7c-1-1-2.3-1.8-3.2-2.9C1244.4,689.8,1244.1,692.6,1245.4,690.7z"/>
				</g>
			</g>
		</g>
	</g>
</g>
<g>
	<path d="M1074.9,773.4c3.5-4.2,6.8-6.3,9.9-6.3c1.6,0,3,0.4,4.2,1.2c1.2,0.8,2.1,2.1,2.8,4c0.5,1.3,0.7,3.3,0.7,5.9v12.6
		c0,1.9,0.2,3.1,0.5,3.8c0.2,0.5,0.6,1,1.1,1.3s1.5,0.5,2.9,0.5v1.2h-14.6v-1.2h0.6c1.4,0,2.3-0.2,2.9-0.6c0.5-0.4,0.9-1,1.1-1.9
		c0.1-0.3,0.1-1.3,0.1-3v-12.1c0-2.7-0.3-4.6-1-5.8c-0.7-1.2-1.9-1.8-3.5-1.8c-2.6,0-5.1,1.4-7.6,4.2v15.6c0,2,0.1,3.2,0.4,3.7
		c0.3,0.6,0.7,1.1,1.2,1.4c0.5,0.3,1.6,0.4,3.2,0.4v1.2h-14.6v-1.2h0.6c1.5,0,2.5-0.4,3-1.1c0.5-0.8,0.8-2.2,0.8-4.4v-11
		c0-3.5-0.1-5.7-0.2-6.5c-0.2-0.8-0.4-1.3-0.7-1.6c-0.3-0.3-0.8-0.4-1.3-0.4c-0.6,0-1.3,0.2-2.2,0.5l-0.5-1.2l8.9-3.6h1.4V773.4z"/>
	<path d="M1116,793.2c-3,2.3-4.9,3.7-5.7,4.1c-1.2,0.5-2.4,0.8-3.7,0.8c-2,0-3.7-0.7-5-2.1c-1.3-1.4-2-3.2-2-5.5
		c0-1.4,0.3-2.7,1-3.7c0.9-1.5,2.4-2.8,4.6-4.1c2.2-1.3,5.8-2.9,10.9-4.7v-1.2c0-2.9-0.5-5-1.4-6.1c-0.9-1.1-2.3-1.6-4.1-1.6
		c-1.4,0-2.4,0.4-3.2,1.1c-0.8,0.7-1.2,1.6-1.2,2.5l0.1,1.9c0,1-0.3,1.8-0.8,2.3c-0.5,0.5-1.2,0.8-2,0.8c-0.8,0-1.4-0.3-1.9-0.8
		c-0.5-0.6-0.8-1.3-0.8-2.3c0-1.8,0.9-3.5,2.8-5.1s4.5-2.3,8-2.3c2.6,0,4.8,0.4,6.4,1.3c1.3,0.7,2.2,1.7,2.8,3.1
		c0.4,0.9,0.6,2.8,0.6,5.7v10c0,2.8,0.1,4.5,0.2,5.2c0.1,0.6,0.3,1.1,0.5,1.3c0.2,0.2,0.5,0.3,0.9,0.3c0.3,0,0.6-0.1,0.9-0.2
		c0.5-0.3,1.3-1.1,2.6-2.4v1.8c-2.4,3.2-4.7,4.8-6.9,4.8c-1.1,0-1.9-0.4-2.5-1.1S1116.1,795,1116,793.2z M1116,791.1v-11.2
		c-3.2,1.3-5.3,2.2-6.3,2.7c-1.7,0.9-2.9,1.9-3.6,3s-1.1,2.2-1.1,3.4c0,1.5,0.5,2.8,1.4,3.9s2,1.5,3.2,1.5
		C1111.2,794.4,1113.4,793.3,1116,791.1z"/>
	<path d="M1138.8,767.1v23.7c0,1.8,0.1,3.1,0.4,3.7c0.3,0.6,0.7,1.1,1.2,1.4c0.5,0.3,1.5,0.5,2.9,0.5v1.2h-14.3v-1.2
		c1.4,0,2.4-0.1,2.9-0.4s0.9-0.7,1.2-1.4c0.3-0.6,0.4-1.9,0.4-3.7v-11.4c0-3.2-0.1-5.3-0.3-6.2c-0.2-0.7-0.4-1.2-0.7-1.4
		c-0.3-0.3-0.8-0.4-1.3-0.4c-0.6,0-1.3,0.2-2.2,0.5l-0.5-1.2l8.9-3.6H1138.8z M1136.1,751.7c0.9,0,1.7,0.3,2.3,1s1,1.4,1,2.3
		s-0.3,1.7-1,2.3s-1.4,1-2.3,1s-1.7-0.3-2.3-1s-1-1.4-1-2.3s0.3-1.7,1-2.3S1135.2,751.7,1136.1,751.7z"/>
	<path d="M1157.1,751.7v39.2c0,1.8,0.1,3.1,0.4,3.7c0.3,0.6,0.7,1.1,1.2,1.4s1.6,0.5,3.1,0.5v1.2h-14.5v-1.2c1.4,0,2.3-0.1,2.8-0.4
		s0.9-0.7,1.2-1.4s0.4-1.9,0.4-3.7V764c0-3.3-0.1-5.4-0.2-6.1c-0.2-0.8-0.4-1.3-0.7-1.6c-0.3-0.3-0.8-0.4-1.3-0.4
		c-0.6,0-1.3,0.2-2.1,0.5l-0.5-1.1l8.8-3.6H1157.1z"/>
	<path d="M1170.2,779.1c0,4.4,1,7.8,3.2,10.3s4.7,3.7,7.6,3.7c1.9,0,3.6-0.5,5-1.6c1.4-1.1,2.6-2.9,3.6-5.5l1,0.6
		c-0.5,2.9-1.8,5.6-3.9,8c-2.2,2.4-4.9,3.6-8.2,3.6c-3.5,0-6.6-1.4-9.1-4.1c-2.5-2.8-3.8-6.5-3.8-11.1c0-5,1.3-9,3.9-11.8
		s5.8-4.2,9.7-4.2c3.3,0,6,1.1,8.2,3.3s3.2,5.1,3.2,8.7H1170.2z M1170.2,777.2h13.7c-0.1-1.9-0.3-3.2-0.7-4
		c-0.5-1.2-1.3-2.1-2.4-2.8c-1.1-0.7-2.2-1-3.3-1c-1.8,0-3.4,0.7-4.8,2.1C1171.3,772.8,1170.5,774.7,1170.2,777.2z"/>
	<path d="M1215.4,794.2c-1.4,1.5-2.8,2.6-4.2,3.2c-1.4,0.7-2.9,1-4.4,1c-3.2,0-6-1.3-8.4-4c-2.4-2.7-3.6-6.2-3.6-10.4
		s1.3-8.1,4-11.6c2.7-3.5,6.1-5.3,10.3-5.3c2.6,0,4.7,0.8,6.4,2.5v-5.4c0-3.4-0.1-5.4-0.2-6.2c-0.2-0.8-0.4-1.3-0.8-1.6
		s-0.8-0.4-1.3-0.4c-0.6,0-1.3,0.2-2.2,0.5l-0.4-1.1l8.8-3.6h1.5v34.1c0,3.5,0.1,5.6,0.2,6.3c0.2,0.8,0.4,1.3,0.8,1.6
		c0.4,0.3,0.8,0.5,1.2,0.5c0.6,0,1.4-0.2,2.3-0.5l0.4,1.1l-8.8,3.6h-1.5V794.2z M1215.4,791.9v-15.2c-0.1-1.5-0.5-2.8-1.2-4
		s-1.5-2.1-2.6-2.7c-1.1-0.6-2.1-0.9-3.1-0.9c-1.9,0-3.6,0.8-5.1,2.5c-2,2.2-2.9,5.5-2.9,9.8c0,4.3,0.9,7.7,2.8,10
		c1.9,2.3,4,3.5,6.3,3.5C1211.7,794.8,1213.6,793.9,1215.4,791.9z"/>
	<path d="M1254.3,767.1v23.7c0,1.8,0.1,3.1,0.4,3.7c0.3,0.6,0.7,1.1,1.2,1.4c0.5,0.3,1.5,0.5,2.9,0.5v1.2h-14.3v-1.2
		c1.4,0,2.4-0.1,2.9-0.4s0.9-0.7,1.2-1.4c0.3-0.6,0.4-1.9,0.4-3.7v-11.4c0-3.2-0.1-5.3-0.3-6.2c-0.2-0.7-0.4-1.2-0.7-1.4
		c-0.3-0.3-0.8-0.4-1.3-0.4c-0.6,0-1.3,0.2-2.2,0.5l-0.5-1.2l8.9-3.6H1254.3z M1251.6,751.7c0.9,0,1.7,0.3,2.3,1s1,1.4,1,2.3
		s-0.3,1.7-1,2.3s-1.4,1-2.3,1s-1.7-0.3-2.3-1s-1-1.4-1-2.3s0.3-1.7,1-2.3S1250.7,751.7,1251.6,751.7z"/>
	<path d="M1271,758.3v9.7h6.9v2.3h-6.9v19.1c0,1.9,0.3,3.2,0.8,3.9c0.5,0.7,1.3,1,2.1,1c0.7,0,1.4-0.2,2.1-0.7
		c0.7-0.4,1.2-1.1,1.5-1.9h1.3c-0.8,2.1-1.8,3.7-3.2,4.8c-1.4,1.1-2.8,1.6-4.3,1.6c-1,0-2-0.3-2.9-0.8c-0.9-0.5-1.6-1.3-2.1-2.4
		c-0.5-1-0.7-2.6-0.7-4.7v-19.9h-4.7v-1.1c1.2-0.5,2.4-1.3,3.6-2.4c1.2-1.1,2.3-2.5,3.3-4c0.5-0.8,1.2-2.3,2.1-4.5H1271z"/>
	<path d="M1064.7,823h12.4v1.2c-1.1,0.1-1.9,0.3-2.2,0.6c-0.4,0.3-0.5,0.8-0.5,1.4c0,0.7,0.2,1.5,0.5,2.4l6.3,17l6.3-13.8l-1.7-4.4
		c-0.5-1.3-1.2-2.2-2-2.7c-0.5-0.3-1.4-0.5-2.6-0.5V823h14.1v1.2c-1.5,0.1-2.6,0.3-3.3,0.8c-0.4,0.3-0.6,0.9-0.6,1.6
		c0,0.4,0.1,0.9,0.3,1.3l6.7,17l6.2-16.3c0.4-1.2,0.6-2.1,0.6-2.8c0-0.4-0.2-0.8-0.6-1.1c-0.4-0.3-1.2-0.5-2.5-0.5V823h9.3v1.2
		c-1.9,0.3-3.2,1.5-4.1,3.8l-9.9,25.4h-1.3l-7.4-18.9l-8.6,18.9h-1.2l-9.5-24.8c-0.6-1.6-1.2-2.6-1.8-3.2c-0.6-0.5-1.5-1-2.8-1.2
		V823z"/>
	<path d="M1118.9,834.1c0,4.4,1,7.8,3.2,10.3s4.7,3.7,7.6,3.7c1.9,0,3.6-0.5,5-1.6c1.4-1.1,2.6-2.9,3.6-5.5l1,0.6
		c-0.5,2.9-1.8,5.6-3.9,8c-2.2,2.4-4.9,3.6-8.2,3.6c-3.5,0-6.6-1.4-9.1-4.1c-2.5-2.8-3.8-6.5-3.8-11.1c0-5,1.3-9,3.9-11.8
		s5.8-4.2,9.7-4.2c3.3,0,6,1.1,8.2,3.3s3.2,5.1,3.2,8.7H1118.9z M1118.9,832.2h13.7c-0.1-1.9-0.3-3.2-0.7-4
		c-0.5-1.2-1.3-2.1-2.4-2.8c-1.1-0.7-2.2-1-3.3-1c-1.8,0-3.4,0.7-4.8,2.1C1120,827.8,1119.2,829.7,1118.9,832.2z"/>
	<path d="M1151.9,822.1v6.6c2.5-4.4,5-6.6,7.6-6.6c1.2,0,2.2,0.4,2.9,1.1c0.8,0.7,1.2,1.6,1.2,2.5c0,0.8-0.3,1.5-0.8,2.1
		s-1.2,0.9-2,0.9c-0.8,0-1.6-0.4-2.5-1.1c-0.9-0.7-1.6-1.1-2.1-1.1c-0.4,0-0.8,0.2-1.3,0.6c-1,0.9-2,2.3-3,4.4v14.1
		c0,1.6,0.2,2.9,0.6,3.7c0.3,0.6,0.8,1.1,1.5,1.5s1.7,0.6,3.1,0.6v1.2h-15.1v-1.2c1.5,0,2.6-0.2,3.4-0.7c0.5-0.3,0.9-0.9,1.1-1.6
		c0.1-0.4,0.2-1.4,0.2-3.1v-11.4c0-3.4-0.1-5.5-0.2-6.1c-0.1-0.7-0.4-1.1-0.8-1.4s-0.8-0.5-1.4-0.5c-0.7,0-1.4,0.2-2.3,0.5l-0.3-1.2
		l8.9-3.6H1151.9z"/>
	<path d="M1170.2,834.1c0,4.4,1,7.8,3.2,10.3s4.7,3.7,7.6,3.7c1.9,0,3.6-0.5,5-1.6c1.4-1.1,2.6-2.9,3.6-5.5l1,0.6
		c-0.5,2.9-1.8,5.6-3.9,8c-2.2,2.4-4.9,3.6-8.2,3.6c-3.5,0-6.6-1.4-9.1-4.1c-2.5-2.8-3.8-6.5-3.8-11.1c0-5,1.3-9,3.9-11.8
		s5.8-4.2,9.7-4.2c3.3,0,6,1.1,8.2,3.3s3.2,5.1,3.2,8.7H1170.2z M1170.2,832.2h13.7c-0.1-1.9-0.3-3.2-0.7-4
		c-0.5-1.2-1.3-2.1-2.4-2.8c-1.1-0.7-2.2-1-3.3-1c-1.8,0-3.4,0.7-4.8,2.1C1171.3,827.8,1170.4,829.7,1170.2,832.2z"/>
	<path d="M1230.1,822.1v10.1h-1.1c-0.8-3.2-1.9-5.3-3.1-6.4c-1.3-1.1-2.9-1.7-4.9-1.7c-1.5,0-2.7,0.4-3.6,1.2s-1.4,1.7-1.4,2.6
		c0,1.2,0.3,2.2,1,3.1c0.7,0.9,2,1.8,4.1,2.8l4.7,2.3c4.4,2.1,6.5,4.9,6.5,8.4c0,2.7-1,4.8-3,6.5c-2,1.6-4.3,2.5-6.8,2.5
		c-1.8,0-3.9-0.3-6.2-1c-0.7-0.2-1.3-0.3-1.7-0.3c-0.5,0-0.9,0.3-1.2,0.8h-1.1v-10.5h1.1c0.6,3,1.8,5.3,3.4,6.8s3.6,2.3,5.7,2.3
		c1.5,0,2.7-0.4,3.6-1.3c0.9-0.9,1.4-1.9,1.4-3.1c0-1.5-0.5-2.7-1.6-3.7s-3.1-2.3-6.2-3.8s-5.2-2.9-6.1-4.2c-1-1.2-1.5-2.8-1.5-4.6
		c0-2.4,0.8-4.5,2.5-6.1c1.7-1.6,3.8-2.4,6.5-2.4c1.2,0,2.6,0.2,4.2,0.7c1.1,0.3,1.8,0.5,2.2,0.5c0.3,0,0.6-0.1,0.8-0.2
		s0.4-0.5,0.7-1H1230.1z"/>
	<path d="M1251.2,822.1c4.5,0,8.1,1.7,10.8,5.1c2.3,2.9,3.4,6.2,3.4,10c0,2.6-0.6,5.3-1.9,8s-3,4.7-5.2,6.1
		c-2.2,1.4-4.7,2.1-7.4,2.1c-4.4,0-8-1.8-10.6-5.3c-2.2-3-3.3-6.3-3.3-10.1c0-2.7,0.7-5.4,2-8.1c1.3-2.7,3.1-4.7,5.3-5.9
		C1246.4,822.7,1248.7,822.1,1251.2,822.1z M1250.2,824.2c-1.1,0-2.3,0.3-3.4,1c-1.1,0.7-2.1,1.9-2.8,3.6s-1.1,3.9-1.1,6.5
		c0,4.3,0.9,8,2.6,11.1c1.7,3.1,4,4.7,6.8,4.7c2.1,0,3.8-0.9,5.2-2.6s2-4.7,2-8.9c0-5.2-1.1-9.4-3.4-12.4
		C1254.5,825.2,1252.5,824.2,1250.2,824.2z"/>
	<path d="M1064.2,880.9l9.1-3.7h1.2v6.9c1.5-2.6,3.1-4.4,4.6-5.5s3.2-1.6,4.9-1.6c3,0,5.4,1.2,7.4,3.5c2.4,2.8,3.6,6.5,3.6,11.1
		c0,5.1-1.5,9.3-4.4,12.6c-2.4,2.7-5.4,4.1-9.1,4.1c-1.6,0-3-0.2-4.1-0.7c-0.9-0.3-1.8-1-2.9-1.9v9c0,2,0.1,3.3,0.4,3.9
		c0.2,0.5,0.7,1,1.3,1.3c0.6,0.3,1.7,0.5,3.3,0.5v1.2H1064v-1.2h0.8c1.2,0,2.2-0.2,3-0.7c0.4-0.2,0.7-0.6,1-1.1
		c0.2-0.5,0.3-1.9,0.3-4v-27.9c0-1.9-0.1-3.1-0.3-3.6s-0.4-0.9-0.8-1.2s-0.9-0.4-1.5-0.4c-0.5,0-1.2,0.2-2,0.5L1064.2,880.9z
		 M1074.5,886v11c0,2.4,0.1,4,0.3,4.7c0.3,1.2,1,2.3,2.2,3.3c1.2,0.9,2.6,1.4,4.4,1.4c2.1,0,3.9-0.8,5.2-2.5
		c1.7-2.2,2.6-5.3,2.6-9.2c0-4.5-1-8-3-10.4c-1.4-1.7-3-2.5-4.9-2.5c-1,0-2.1,0.3-3.1,0.8C1077.6,882.9,1076.3,884.1,1074.5,886z"/>
	<path d="M1107.9,877.1v6.6c2.5-4.4,5-6.6,7.6-6.6c1.2,0,2.2,0.4,2.9,1.1c0.8,0.7,1.2,1.6,1.2,2.5c0,0.8-0.3,1.5-0.8,2.1
		s-1.2,0.9-2,0.9c-0.8,0-1.6-0.4-2.5-1.1c-0.9-0.7-1.6-1.1-2.1-1.1c-0.4,0-0.8,0.2-1.3,0.6c-1,0.9-2,2.3-3,4.4v14.1
		c0,1.6,0.2,2.9,0.6,3.7c0.3,0.6,0.8,1.1,1.5,1.5s1.7,0.6,3.1,0.6v1.2H1098v-1.2c1.5,0,2.6-0.2,3.4-0.7c0.5-0.3,0.9-0.9,1.1-1.6
		c0.1-0.4,0.2-1.4,0.2-3.1v-11.4c0-3.4-0.1-5.5-0.2-6.1c-0.1-0.7-0.4-1.1-0.8-1.4s-0.8-0.5-1.4-0.5c-0.7,0-1.4,0.2-2.3,0.5l-0.3-1.2
		l8.9-3.6H1107.9z"/>
	<path d="M1135.7,877.1c4.5,0,8.1,1.7,10.8,5.1c2.3,2.9,3.4,6.2,3.4,10c0,2.6-0.6,5.3-1.9,8s-3,4.7-5.2,6.1
		c-2.2,1.4-4.7,2.1-7.4,2.1c-4.4,0-8-1.8-10.6-5.3c-2.2-3-3.3-6.3-3.3-10.1c0-2.7,0.7-5.4,2-8.1c1.3-2.7,3.1-4.7,5.3-5.9
		C1131,877.7,1133.3,877.1,1135.7,877.1z M1134.7,879.2c-1.1,0-2.3,0.3-3.4,1c-1.1,0.7-2.1,1.9-2.8,3.6s-1.1,3.9-1.1,6.5
		c0,4.3,0.9,8,2.6,11.1c1.7,3.1,4,4.7,6.8,4.7c2.1,0,3.8-0.9,5.2-2.6s2-4.7,2-8.9c0-5.2-1.1-9.4-3.4-12.4
		C1139,880.2,1137.1,879.2,1134.7,879.2z"/>
	<path d="M1180.2,878v17.9c0,3.4,0.1,5.5,0.2,6.3c0.2,0.8,0.4,1.3,0.8,1.6c0.4,0.3,0.8,0.5,1.2,0.5c0.7,0,1.4-0.2,2.3-0.5l0.5,1.1
		l-8.8,3.6h-1.5v-6.3c-2.5,2.8-4.5,4.5-5.8,5.2s-2.7,1.1-4.2,1.1c-1.7,0-3.1-0.5-4.3-1.4c-1.2-1-2.1-2.2-2.5-3.7s-0.7-3.6-0.7-6.4
		v-13.2c0-1.4-0.2-2.4-0.5-2.9s-0.7-1-1.3-1.2c-0.6-0.3-1.7-0.4-3.2-0.4V878h10.3v19.8c0,2.8,0.5,4.6,1.4,5.4c1,0.9,2.1,1.3,3.5,1.3
		c0.9,0,2-0.3,3.1-0.9s2.6-1.7,4.2-3.3v-16.7c0-1.7-0.3-2.8-0.9-3.4c-0.6-0.6-1.9-0.9-3.8-1V878H1180.2z"/>
	<path d="M1208.1,904.2c-1.4,1.5-2.8,2.6-4.2,3.2c-1.4,0.7-2.9,1-4.4,1c-3.2,0-6-1.3-8.4-4c-2.4-2.7-3.6-6.2-3.6-10.4
		s1.3-8.1,4-11.6c2.7-3.5,6.1-5.3,10.3-5.3c2.6,0,4.7,0.8,6.4,2.5v-5.4c0-3.4-0.1-5.4-0.2-6.2c-0.2-0.8-0.4-1.3-0.8-1.6
		s-0.8-0.4-1.3-0.4c-0.6,0-1.3,0.2-2.2,0.5l-0.4-1.1l8.8-3.6h1.5v34.1c0,3.5,0.1,5.6,0.2,6.3c0.2,0.8,0.4,1.3,0.8,1.6
		c0.4,0.3,0.8,0.5,1.2,0.5c0.6,0,1.4-0.2,2.3-0.5l0.4,1.1l-8.8,3.6h-1.5V904.2z M1208.1,901.9v-15.2c-0.1-1.5-0.5-2.8-1.2-4
		s-1.5-2.1-2.6-2.7c-1.1-0.6-2.1-0.9-3.1-0.9c-1.9,0-3.6,0.8-5.1,2.5c-2,2.2-2.9,5.5-2.9,9.8c0,4.3,0.9,7.7,2.8,10
		c1.9,2.3,4,3.5,6.3,3.5C1204.4,904.8,1206.3,903.9,1208.1,901.9z"/>
	<path d="M1251.2,877.1c4.5,0,8.1,1.7,10.8,5.1c2.3,2.9,3.4,6.2,3.4,10c0,2.6-0.6,5.3-1.9,8s-3,4.7-5.2,6.1
		c-2.2,1.4-4.7,2.1-7.4,2.1c-4.4,0-8-1.8-10.6-5.3c-2.2-3-3.3-6.3-3.3-10.1c0-2.7,0.7-5.4,2-8.1c1.3-2.7,3.1-4.7,5.3-5.9
		C1246.5,877.7,1248.8,877.1,1251.2,877.1z M1250.2,879.2c-1.1,0-2.3,0.3-3.4,1c-1.1,0.7-2.1,1.9-2.8,3.6s-1.1,3.9-1.1,6.5
		c0,4.3,0.9,8,2.6,11.1c1.7,3.1,4,4.7,6.8,4.7c2.1,0,3.8-0.9,5.2-2.6s2-4.7,2-8.9c0-5.2-1.1-9.4-3.4-12.4
		C1254.5,880.2,1252.6,879.2,1250.2,879.2z"/>
	<path d="M1281.3,880.3v19.4c0,2.8,0.3,4.5,0.9,5.2c0.8,0.9,1.9,1.4,3.2,1.4h2.7v1.2h-17.6v-1.2h1.3c0.9,0,1.6-0.2,2.4-0.6
		s1.2-1,1.5-1.7s0.4-2.1,0.4-4.3v-19.4h-5.7V878h5.7V876c0-2.9,0.5-5.4,1.4-7.5s2.4-3.7,4.3-4.9c1.9-1.3,4.1-1.9,6.6-1.9
		c2.3,0,4.3,0.7,6.2,2.2c1.2,1,1.9,2.1,1.9,3.3c0,0.6-0.3,1.3-0.8,1.8s-1.2,0.9-1.8,0.9c-0.5,0-1-0.2-1.6-0.5
		c-0.5-0.4-1.2-1.1-2-2.3c-0.8-1.2-1.5-2-2.2-2.4s-1.4-0.6-2.2-0.6c-1,0-1.8,0.3-2.5,0.8c-0.7,0.5-1.2,1.3-1.5,2.4
		c-0.3,1.1-0.5,4-0.5,8.6v2.1h7.6v2.3H1281.3z"/>
	<path d="M1334.1,878v17.9c0,3.4,0.1,5.5,0.2,6.3c0.2,0.8,0.4,1.3,0.8,1.6c0.4,0.3,0.8,0.5,1.2,0.5c0.7,0,1.4-0.2,2.3-0.5l0.5,1.1
		l-8.8,3.6h-1.5v-6.3c-2.5,2.8-4.5,4.5-5.8,5.2s-2.7,1.1-4.2,1.1c-1.7,0-3.1-0.5-4.3-1.4c-1.2-1-2.1-2.2-2.5-3.7s-0.7-3.6-0.7-6.4
		v-13.2c0-1.4-0.2-2.4-0.5-2.9s-0.7-1-1.3-1.2c-0.6-0.3-1.7-0.4-3.2-0.4V878h10.3v19.8c0,2.8,0.5,4.6,1.4,5.4c1,0.9,2.1,1.3,3.5,1.3
		c0.9,0,2-0.3,3.1-0.9s2.6-1.7,4.2-3.3v-16.7c0-1.7-0.3-2.8-0.9-3.4c-0.6-0.6-1.9-0.9-3.8-1V878H1334.1z"/>
</g>
</svg>
