<?xml version="1.0" standalone="no"?>
<!DOCTYPE svg PUBLIC "-//W3C//DTD SVG 1.1//EN" "http://www.w3.org/Graphics/SVG/1.1/DTD/svg11.dtd">
<svg xmlns="http://www.w3.org/2000/svg">
<defs >
<font id="EBGaramond" horiz-adv-x="523" ><font-face
    font-family="EB Garamond ExtraBold"
    units-per-em="1000"
    panose-1="0 0 0 0 0 0 0 0 0 0"
    ascent="1007"
    descent="-298"
    alphabetic="0" />
<glyph unicode=" " horiz-adv-x="245" />
<glyph unicode="!" horiz-adv-x="305" d="M137 172Q124 172 120 184T120 225Q130 283 139 331T156 417T169 484T179 530Q185 560 199 587T235 631T285 649Q305 649 319 633T337 585T322 508Q319 499 308 475T278 413T237 329T185 225Q173 202 162 187T137 172ZM83
-14Q58 -14 40 4T22 45Q22 80 49 107T114 135Q146 135 162 115T179 71Q179 37 150 12T83 -14Z" />
<glyph unicode="&quot;" horiz-adv-x="413" d="M140 400Q133 400 133 410T137 429Q144 449 147 464T156 496Q167 531 173 561T187 617Q192 632 205 643T230 660Q252 672 268 678T303 685Q315 685 319 674T318 647Q311 623 295 593T258 532T217 475T182 432Q172
421 159 411T140 400ZM308 400Q301 400 301 410T305 429Q312 449 315 464T324 496Q335 531 341 561T355 617Q360 632 373 643T398 660Q420 672 436 678T471 685Q483 685 487 674T486 647Q479 623 463 593T426 532T385 475T350 432Q340 421 327 411T308 400Z" />
<glyph unicode="#" horiz-adv-x="484" d="M-9 -96Q-16 -96 -20 -90T-21 -77L-19 -72L58 85L0 83Q-11 82 -14 89T-17 104Q-11 132 -2 147T18 170T39 177L110 180L156 286L88 283Q77 282 73 289T70 304Q76 332 85 347T106 370T127 377L203 380L273 523Q280 540 295
545T327 550Q333 550 335 544T335 531Q334 528 333 527T331 523L263 383L382 387L454 534Q461 551 473 556T503 561Q509 561 511 555T512 542Q511 539 510 538T508 534L438 390L497 393Q510 394 515 388T519 371Q515 354 505 338T482 311T459 299L391 296L338 189L409
192Q422 193 427 187T431 170Q427 153 417 137T394 110T371 98L292 95L218 -56Q211 -72 204 -76T180 -80Q173 -80 167 -74T162 -61L163 -56L237 92L118 88L40 -72Q33 -88 20 -92T-9 -96ZM164 182L283 186L335 293L217 289L164 182Z" />
<glyph unicode="$" horiz-adv-x="564" d="M237 -14Q197 -14 163 -10T100 7Q85 13 75 16T61 20Q54 20 47 18T34 12Q27 8 20 4T8 0Q2 0 -7 8T-17 24Q-17 32 -5 57T20 117T39 191Q42 210 47 218T66 226Q81 226 84 210T88 158Q88 127 102 96T146 44T218 23Q259 23
288 38T333 79T349 133Q349 155 340 173T307 216T238 279Q186 323 162 363T138 465Q138 521 170 566T260 637T392 664Q432 664 464 658T519 644Q540 638 552 635T578 631Q594 631 605 637Q613 642 621 645T636 648Q647 648 649 641T645 624Q632 607 617 578T589
518T568 460Q565 450 561 444T545 437Q534 437 530 447T525 481Q525 546 491 587T400 628Q362 628 337 612T300 572T288 524Q288 501 297 483T329 443T394 387Q458 336 480 293T502 199Q502 148 470 99T379 18T237 -14ZM128 -96Q112 -96 110 -86T111 -63L434 703Q439
714 454 719T486 725Q497 725 498 716T493 692L166 -82Q164 -89 153 -92T128 -96Z" />
<glyph unicode="%" horiz-adv-x="750" d="M195 263Q155 263 128 285T95 354T109 468Q122 507 149 541T216 595T300 616Q342 616 367 592T398 524T385 420Q370 371 341 336T275 282T195 263ZM202 297Q215 297 229 316T257 364T280 423Q290 455 296 483T305 534T305
569T291 582Q278 582 263 563T234 514T210 450Q200 417 194 389T186 341T188 309T202 297ZM105 -19Q89 -19 83 -6T87 17L696 653Q704 661 718 665T746 669Q762 669 768 659T765 640L159 8Q146 -6 133 -12T105 -19ZM508 -17Q468 -17 441 5T408 74T422 188Q435 227
462 261T529 315T613 336Q655 336 680 312T711 244T698 140Q683 91 654 56T588 2T508 -17ZM515 17Q528 17 542 36T570 84T593 143Q603 175 609 203T618 254T618 289T604 302Q591 302 576 283T547 234T523 170Q513 137 507 109T499 61T501 29T515 17Z" />
<glyph unicode="&amp;" horiz-adv-x="859" d="M419 -14Q325 -14 250 19T130 112T85 250Q85 322 115 380T197 474T311 508Q372 507 399 481T427 416Q427 391 412 370T372 335T314 321Q265 321 226 347T164 419T141 526Q141 581 170 624T250 693T361 718Q417 717
449 687T481 607Q481 580 466 564T426 547Q413 547 400 560T386 587Q386 610 370 629T333 648Q294 648 266 634T221 592T205 525Q205 365 312 365Q342 365 359 380T376 419Q376 440 360 455T312 471Q244 471 206 428T167 312Q167 262 197 217T290 143T453 115Q539
115 599 142T691 216T723 320Q723 365 691 399T593 432Q558 431 533 407T507 353Q507 334 522 322T560 310Q569 310 577 318T593 334Q601 342 608 347T626 353Q652 353 664 340T677 307Q677 274 655 254T600 234Q539 234 501 266T463 350Q463 411 488 449T556 505T650
523H730Q816 523 850 546T885 624Q885 653 867 667T832 681Q816 681 809 676T802 664Q802 658 806 652T817 641Q826 634 830 625T835 606Q835 587 820 570T777 553Q748 553 733 573T718 620Q718 643 729 665T765 703T825 718Q867 718 898 688T930 591Q930 547 912
509T862 448T788 422Q760 421 754 418T752 409Q766 387 772 359T779 304Q779 205 733 134T606 24T419 -14Z" />
<glyph unicode="&apos;" horiz-adv-x="245" d="M140 400Q133 400 133 410T137 429Q144 449 147 464T156 496Q167 531 173 561T187 617Q192 632 205 643T230 660Q252 672 268 678T303 685Q315 685 319 674T318 647Q311 623 295 593T258 532T217 475T182 432Q172
421 159 411T140 400Z" />
<glyph unicode="(" horiz-adv-x="298" d="M125 -215Q95 -215 71 -169Q50 -129 38 -64T26 74Q26 198 67 315T185 530T369 692Q395 706 414 706Q436 706 436 692Q436 688 433 683T421 671Q350 617 293 544T196 384T134 205T112 22Q112 -37 120 -78T137 -145T146
-188Q146 -199 140 -207T125 -215Z" />
<glyph unicode=")" horiz-adv-x="298" d="M194 706Q224 706 248 660Q269 620 281 555T293 417Q293 293 252 176T134 -39T-50 -201Q-76 -215 -95 -215Q-117 -215 -117 -201Q-117 -197 -113 -192T-102 -180Q-31 -126 26 -53T123 107T185 286T207 469Q207 528 199
569T182 636T173 679Q173 690 179 698T194 706Z" />
<glyph unicode="*" horiz-adv-x="364" d="M236 352Q218 352 210 367T206 401Q208 410 210 418T214 435T218 451T223 468Q216 469 194 467T152 462Q134 460 121 468T108 490Q108 506 118 516T140 527Q148 529 156 531T173 534T189 538T206 542Q203 549 189 565T164
598Q155 612 155 625Q155 638 164 647T186 657Q194 657 201 654T216 642Q227 629 238 617T262 592Q268 609 274 624T289 656Q294 667 303 674T324 682Q341 682 349 668T353 633Q350 622 347 612T340 590T333 568Q338 568 352 571T382 576T409 579Q426 579 435 573T445
552Q445 541 438 529T415 513Q399 509 383 505T349 495Q353 489 367 473T393 443Q398 437 401 430T405 414Q405 403 397 394T375 384Q368 384 360 386T344 396Q333 408 320 420T295 443Q292 437 284 415T268 376Q264 366 256 359T236 352Z" />
<glyph unicode="+" horiz-adv-x="599" d="M294 -12Q290 -12 286 -7T281 5V206Q281 219 268 219H57Q50 219 45 223T40 232Q40 240 43 251T52 272T69 282H267Q277 282 279 285T281 296V478Q281 488 289 495T308 507T328 512Q336 512 340 505T344 489V296Q344 289
347 286T357 282H561Q570 282 577 278T584 266Q584 253 574 236T550 219H357Q344 219 344 206V17Q344 7 335 1T314 -9T294 -12Z" />
<glyph unicode="," horiz-adv-x="280" d="M-49 -166Q-61 -166 -67 -161T-70 -147Q-67 -139 -59 -134T-40 -127Q-13 -123 11 -110T50 -76T65 -36Q65 -22 56 -15T35 -4Q24 0 16 9T7 35Q7 69 31 94T91 119Q128 119 153 96T178 31Q178 -2 160 -37T109 -101T36 -148T-49 -166Z" />
<glyph unicode="-" horiz-adv-x="333" d="M30 163Q23 162 20 165T17 174Q17 203 32 219T61 238Q119 247 183 255T304 267Q315 268 316 263T318 249Q318 241 312 229T296 206T279 194Q221 186 154 177T30 163Z" />
<glyph unicode="." horiz-adv-x="280" d="M70 -34Q42 -34 22 -13T2 35Q2 63 16 87T54 126T106 141Q141 141 159 117T178 66Q178 40 164 17T125 -20T70 -34Z" />
<glyph unicode="/" horiz-adv-x="277" d="M-44 -60Q-55 -59 -61 -52T-63 -38L330 645Q338 659 350 662T379 663Q393 662 398 654T399 639L4 -44Q-3 -57 -16 -59T-44 -60Z" />
<glyph unicode="0" horiz-adv-x="540" d="M249 -14Q194 -14 156 10T99 77T79 178T100 302Q121 371 157 431T240 535T344 605T461 631Q518 631 556 606T613 538T632 438T611 317Q588 243 551 183T465 78T361 10T249 -14ZM278 29Q300 29 322 51T365 112T406 198T442
299Q458 351 467 401T478 493T468 560T433 585Q404 585 374 548T317 449T269 319Q253 267 244 216T233 123T242 55T278 29Z" />
<glyph unicode="1" horiz-adv-x="540" d="M44 -3Q38 -3 34 1T31 12Q33 21 39 26T56 34Q97 44 122 55T157 97L265 445Q277 485 258 500T207 522Q200 524 193 529T189 545Q192 558 204 565T229 573Q272 576 311 583T389 602T466 631Q471 633 476 635T484 637Q492
637 495 634T496 625Q492 613 484 597T468 552L327 98Q322 80 327 69T348 51T387 34Q395 31 400 27T404 13Q403 6 395 2T379 -2Q358 -2 326 -1T262 1T210 2Q190 2 160 1T98 -1T44 -3Z" />
<glyph unicode="2" horiz-adv-x="540" d="M392 -4Q386 -4 370 -4T331 -2T282 -1T229 0Q204 0 164 0T84 -1T16 -2T-15 -3Q-25 -3 -19 5T-8 18L217 202Q285 258 321 300T372 379T387 449Q387 497 362 517T304 537Q264 537 236 518T184 474Q177 467 171 459T160 451Q155
451 152 455T149 470Q149 495 167 523T217 577T290 619T377 634Q455 633 500 597T545 507Q545 468 528 433T482 366T417 302Q402 289 373 267T311 220T246 172T195 134T174 117Q173 115 177 114T187 111Q206 108 227 108T268 107Q289 107 316 108T364 111Q386 114
405 121T441 141T473 175Q478 182 488 189T509 196Q517 196 518 189T514 174Q498 152 483 127T454 78T431 39T420 18Q416 8 405 2T392 -4Z" />
<glyph unicode="3" horiz-adv-x="540" d="M109 -38Q59 -38 32 -26T4 9Q4 33 14 48T40 63Q46 63 57 58T81 44Q98 34 118 26T157 18Q200 18 231 47T281 120T299 211Q299 243 285 264T237 286Q209 286 191 276T165 263Q155 259 147 262T139 276Q139 290 150 300T178
319T205 334Q235 349 264 366T317 403T356 444T371 492Q371 517 356 538T312 559Q273 559 246 533T201 481Q196 473 190 470T180 466Q173 466 166 477T158 499Q158 506 171 526T212 571T281 612T376 629Q424 629 455 613T502 573T518 521Q518 493 500 468T454 422T392
384T327 355Q323 354 323 352T326 349Q362 349 395 334T448 292T469 231Q469 193 446 156T383 87T296 26Q250 0 203 -19T109 -38Z" />
<glyph unicode="4" horiz-adv-x="540" d="M398 -3Q392 -3 388 1T385 12Q388 21 394 26T411 34Q452 43 469 54T496 97L510 142Q512 150 508 153T497 156Q468 156 427 154T343 150T266 148Q262 148 260 156T262 168Q270 176 276 182T289 193T302 207L668 605Q682
619 699 630T728 642H755Q760 642 757 637T750 626T745 620L411 258Q402 249 405 246T415 243H534Q537 243 539 245T543 249L578 363Q584 382 589 389T608 401Q642 415 677 419T725 423Q748 423 746 403T731 344L699 243Q697 236 702 236Q715 235 721 235T737 235Q753
235 764 235T794 237Q799 237 802 235T804 230Q802 222 792 204T772 169T757 153Q745 153 735 153T711 154Q701 154 697 154T685 153Q678 152 674 150T667 139L654 98Q645 70 654 58T700 34Q708 31 711 27T712 13Q710 6 705 2T691 -2Q670 -2 643 -1T590 1T544 2Q514
2 473 0T398 -3Z" />
<glyph unicode="5" horiz-adv-x="540" d="M61 -38Q27 -38 13 -20T-2 18Q-2 31 3 40T15 49Q32 49 44 39T79 18Q90 14 100 12T129 9Q168 9 201 19T258 50T295 98T309 161Q309 191 296 215T255 262T179 309Q154 322 144 327T133 345Q133 350 134 354T136 363Q141
377 154 403T185 459T215 512T233 543Q247 569 264 580T300 595Q319 599 353 604T424 616T491 626T527 630Q544 630 544 608Q544 599 537 580T518 541T488 505T449 488Q432 487 404 486T345 484T290 482T258 480Q251 479 245 474T235 462T230 451Q228 442 236 439Q294
419 344 390T426 322T457 236Q457 176 425 126T338 39T211 -18T61 -38Z" />
<glyph unicode="6" horiz-adv-x="540" d="M237 -14Q139 -14 96 39T52 175Q52 241 84 307T170 434T292 542T435 621T579 661Q599 663 615 662T632 651Q632 641 627 636T600 625Q549 613 493 578T384 492T288 383T220 264T194 150Q194 91 210 60T267 29Q298 29 322
48T360 103T374 194Q373 232 353 252T309 272Q299 272 292 270T276 265Q252 255 252 265T267 293Q284 312 305 325T349 346T391 354Q444 354 477 321T511 230Q511 196 494 154T441 74T355 11T237 -14Z" />
<glyph unicode="7" horiz-adv-x="540" d="M92 -29Q79 -29 69 -20T58 4Q58 13 73 28T101 57L461 472Q469 481 466 483T455 486H253Q227 486 211 478T172 450Q164 442 149 429T116 415Q100 415 103 428T116 458Q133 494 155 534T186 604Q190 616 200 619T216 622Q229
621 255 620T313 616Q340 616 375 616T444 615T497 614Q531 614 557 614T604 615T641 617Q646 617 651 610T654 594Q653 588 637 572T597 529L125 4Q116 -6 106 -17T92 -29Z" />
<glyph unicode="8" horiz-adv-x="540" d="M203 -13Q146 -13 108 6T49 57T27 123Q27 175 53 207T121 261T210 303Q221 308 219 311T212 321Q193 345 176 367T149 410T139 451Q139 486 159 517T214 574T293 614T385 629Q436 629 470 613T523 571T541 518Q542 495
528 468T490 417T432 377Q421 372 409 366T385 353Q373 346 373 343T382 332Q423 288 447 252T472 171Q472 137 450 104T389 45T302 3T203 -13ZM219 25Q258 25 289 54T320 136Q320 167 305 200T260 271Q256 276 254 278T248 281Q246 281 233 273Q203 251 185 226T159
173T150 110Q150 93 157 73T180 39T219 25ZM355 374Q375 390 390 415T415 468T424 521Q424 550 411 569T360 589Q335 589 317 578T288 545T277 493Q277 462 293 432T334 375Q339 370 343 370T355 374Z" />
<glyph unicode="9" horiz-adv-x="542" d="M73 -13Q54 -15 37 -14T20 -3Q20 7 25 12T52 23Q100 35 148 58T242 115T325 191T393 281T438 382T455 492Q455 533 435 559T374 586Q342 586 317 565T277 506T264 424Q265 387 287 365T332 342Q343 342 350 344T365 349Q390
359 390 348Q390 344 387 338T375 324Q355 304 334 290Q320 281 306 275T277 264T250 260Q196 260 163 289T130 377Q130 415 154 458T219 540T315 604T429 629Q475 629 509 606T562 544T582 460Q582 415 563 365T510 265T428 168T325 83T204 20T73 -13Z" />
<glyph unicode=":" horiz-adv-x="280" d="M155 242Q127 242 107 263T87 311Q87 339 101 363T139 402T191 417Q226 417 244 393T263 342Q263 316 249 293T210 256T155 242ZM70 -34Q42 -34 22 -13T2 35Q2 63 16 87T54 126T106 141Q141 141 159 117T178 66Q178 40
164 17T125 -20T70 -34Z" />
<glyph unicode=";" horiz-adv-x="280" d="M-49 -166Q-61 -166 -67 -161T-70 -147Q-67 -139 -59 -134T-40 -127Q-13 -123 11 -110T50 -76T65 -36Q65 -22 56 -15T35 -4Q24 0 16 9T7 35Q7 69 31 94T91 119Q128 119 153 96T178 31Q178 -2 160 -37T109 -101T36 -148T-49
-166ZM155 242Q127 242 107 263T87 311Q87 339 101 363T139 402T191 417Q226 417 244 393T263 342Q263 316 249 293T210 256T155 242Z" />
<glyph unicode="&lt;" horiz-adv-x="600" d="M503 0L85 188Q69 196 52 205T35 220Q35 228 46 246T75 272L498 467Q512 474 519 467T527 447Q527 432 517 419T490 397L137 239Q133 238 133 235T137 229L490 72Q507 65 517 51T527 22Q527 6 519 1T503 0Z" />
<glyph unicode="=" horiz-adv-x="643" d="M64 316Q57 316 53 320T48 329Q48 335 50 346T59 365T76 374H598Q608 374 614 370T621 358Q621 346 612 331T589 316H64ZM64 133Q57 133 53 137T48 146Q48 152 50 163T59 182T76 191H598Q608 191 614 187T621 175Q621
163 612 148T589 133H64Z" />
<glyph unicode="&gt;" horiz-adv-x="600" d="M85 5Q77 1 69 6T61 27Q61 42 71 56T98 77L451 234Q456 236 456 239T451 244L98 402Q82 410 72 423T61 452Q61 461 64 468T78 476Q80 476 82 476T85 474L502 282Q519 275 536 265T554 250Q554 243 543 225T512 197L85 5Z" />
<glyph unicode="?" horiz-adv-x="404" d="M168 177Q161 177 147 189T121 220T109 261Q109 296 120 326T165 382T270 429Q326 445 356 467T386 521Q386 547 370 563T314 580Q300 580 286 572T258 558Q250 554 239 549T216 543Q198 543 186 555T174 588Q174 623
202 642T271 661Q312 661 348 638T407 571T430 467Q430 441 416 414T377 364T321 330L227 293Q200 283 191 273T182 245Q182 237 183 230T185 216Q187 209 189 202T192 189Q192 182 185 180T168 177ZM130 -14Q106 -14 89 4T72 45Q72 81 99 108T161 136Q192 136
207 116T223 72Q223 38 196 12T130 -14Z" />
<glyph unicode="@" horiz-adv-x="800" d="M294 -158Q212 -158 148 -128T46 -43T8 86Q8 162 36 230T115 356T231 455T373 520T529 543Q584 543 632 527T716 480T772 409T792 320Q792 262 767 209T700 113T605 47T499 22Q476 22 464 30T446 49T441 67Q441 83 436
80T423 71Q412 62 391 50T342 27T281 17Q228 17 197 47T166 123Q166 178 192 227T265 314T368 372T487 390Q499 389 511 388T535 383Q546 381 555 378T570 374Q580 373 589 385T608 398Q611 398 622 397T643 393T653 386Q637 363 620 332T594 285L525 146Q516 127
516 111T542 94Q589 94 627 124T689 204T712 312Q712 364 689 402T620 460T509 481Q431 481 356 452T221 371T124 253T88 114Q88 53 117 6T197 -69T318 -96Q388 -96 451 -78T564 -31Q578 -23 589 -18T610 -12Q615 -12 620 -16T625 -29Q625 -41 598 -62T523 -106T417
-143T294 -158ZM333 75Q350 75 368 83T400 105Q410 113 419 124T440 157L493 264Q498 275 501 284T504 301Q505 323 490 334T439 345Q406 345 377 326T325 277T290 211T277 144Q277 112 294 94T333 75Z" />
<glyph unicode="A" horiz-adv-x="766" d="M-45 -5Q-56 -5 -62 -2T-67 12Q-65 22 -58 27T-40 34Q-22 38 3 46T52 67T93 98Q157 171 220 243T348 387T476 532Q495 553 507 574T528 610T543 625Q569 625 595 629T640 644Q657 653 672 662T697 672Q708 672 709 652T706
606L608 112Q602 81 617 63T671 34Q682 31 689 28T697 13Q697 6 686 2T666 -2Q645 -2 617 -1T559 1T507 2Q487 2 458 1T399 -1T347 -3Q327 -3 329 12Q330 21 338 26T356 34Q379 39 395 46T421 66T436 97L466 219Q468 227 465 231T453 236H292Q284 236 278 231T266
219L204 140Q179 108 174 87T181 54T222 34Q231 32 239 27T247 12Q246 5 236 2T215 -2Q182 -2 152 -1T91 1Q62 1 25 -2T-45 -5ZM342 284H465Q473 284 477 286T482 295L529 514Q531 520 531 525T528 530Q527 530 523 528T516 523L332 302Q323 292 324 288T342 284Z"
/>
<glyph unicode="B" horiz-adv-x="639" d="M-32 -5Q-48 -5 -48 7Q-48 14 -40 21T-20 32Q16 43 32 53T59 95L201 551Q212 584 201 597T161 618Q153 620 150 624T146 633Q146 642 154 648T172 655Q205 655 226 653T266 649T312 647Q336 647 356 649T400 652T460 654Q521
654 563 640T628 597T651 526Q651 497 636 471T596 423T537 386T467 363Q463 362 462 359T464 353Q522 334 559 297T596 198Q596 140 570 101T496 39T389 6T259 -4Q221 -4 187 -2T113 0Q93 0 67 -1T14 -3T-32 -5ZM272 30Q302 35 330 54T379 103T414 165T427 230Q427
270 406 299T346 328Q322 328 311 323T295 304L231 99Q228 89 228 76T231 54Q236 46 247 38T272 30ZM352 362Q375 362 392 368T428 382Q460 408 483 447T507 539Q507 572 487 599T436 626Q414 626 402 618T383 589L322 390Q314 362 352 362Z" />
<glyph unicode="C" horiz-adv-x="673" d="M314 -14Q259 -14 212 6T130 63T76 147T57 253Q57 343 92 418T190 548T335 633T513 664Q548 664 575 658T622 644Q641 638 652 635T675 631Q682 631 688 632T701 637Q709 642 716 645T731 648Q741 648 743 642T739 624Q726
607 711 576T684 512T663 452Q660 442 655 436T639 429Q629 429 625 443T622 481Q624 503 618 525T599 567Q583 593 560 610T511 627Q458 627 413 599T334 523T275 416T238 295T225 176Q225 139 233 111T257 64T297 36T353 27Q392 27 429 44T503 95T573 172Q581
183 586 191T599 199Q607 199 612 191T615 172Q608 147 597 116T573 56T549 10T530 -9Q520 -9 515 -6T504 2Q498 6 490 8T465 11Q453 11 439 8T408 -1Q390 -5 367 -9T314 -14Z" />
<glyph unicode="D" horiz-adv-x="729" d="M303 -7Q263 -7 223 -4T151 1T106 4Q86 4 59 3T3 -1T-48 -3Q-54 -3 -58 1T-61 12Q-55 29 -35 34Q-8 40 8 46T34 65T50 97L191 551Q197 574 195 586T181 605T145 618Q137 620 134 625T133 640Q135 647 142 651T156 655Q189
655 231 653T304 650Q324 650 345 651T392 653T454 654Q548 654 612 617T709 519T742 385Q742 306 708 236T613 111T473 25T303 -7ZM302 31Q352 31 399 63T485 149T545 269T568 402Q568 481 551 527T504 594T434 615Q415 615 401 611T379 598T365 572L230 119Q220
86 230 67T262 39T302 31Z" />
<glyph unicode="E" horiz-adv-x="572" d="M-45 -5Q-54 -5 -57 0T-59 11Q-55 26 -33 32Q3 43 20 53T47 95L188 551Q198 583 190 596T149 618Q138 621 134 627T132 639Q134 646 144 650T176 655Q190 655 212 654T258 651T302 649L468 650Q511 650 538 653T580 660T602
663Q610 663 616 658T622 641Q622 628 616 605T603 556T596 509Q596 499 591 494T580 489Q576 489 571 493T564 506Q557 564 543 589T491 614H423Q398 614 381 598T350 532L306 379Q302 366 307 361T324 355H408Q434 355 453 372T488 417Q493 426 501 430T515 435Q520
435 522 429T520 412Q511 390 503 370T489 329Q483 309 478 289T468 246Q464 231 459 225T449 218Q442 218 437 225T432 242Q434 274 428 292T402 311H305Q294 311 287 305T276 288L226 115Q215 78 227 58T280 38H352Q372 38 393 45T432 64Q454 78 473 106T511
163Q516 171 519 173T529 175Q535 175 537 170T540 152Q540 141 532 115T510 58T482 8Q477 1 470 -1T454 -4Q450 -4 424 -4T359 -3T273 -2T182 -1T100 0Q80 0 54 -1T1 -3T-45 -5Z" />
<glyph unicode="F" horiz-adv-x="541" d="M-34 -3Q-40 -3 -44 1T-47 12Q-44 21 -38 26T-21 34Q20 42 37 54T64 97L205 551Q215 583 208 596T171 617Q156 621 153 627T151 639Q153 646 161 650T183 655Q211 655 249 653T318 650H478Q548 650 583 657T634 664Q642
664 649 660T653 643Q652 637 651 631T647 619Q642 599 631 569T614 498Q613 488 608 483T598 478Q593 478 590 482T586 495Q585 521 581 542T567 579Q557 596 540 605T500 616L450 617Q425 618 406 605T379 569Q376 559 368 533T351 476T334 418T323 383Q319 370
327 361T369 351H396Q461 351 498 411Q504 420 511 424T525 429Q530 429 532 423T530 406Q513 365 502 330T483 257Q480 242 475 236T464 229Q457 229 453 236T448 253Q448 284 440 296T413 309Q405 309 388 309T353 309T327 309Q310 309 301 301T288 281L234 98Q228
77 232 64T253 44T303 34Q311 33 314 28T315 13Q313 6 308 2T294 -2Q273 -2 239 -1T172 1T118 2Q88 2 44 0T-34 -3Z" />
<glyph unicode="G" horiz-adv-x="734" d="M328 -14Q253 -14 194 12T99 89T54 208T72 363Q91 424 131 478T230 574T362 640T520 664Q555 664 582 658T629 644Q648 638 659 635T682 631Q689 631 695 632T708 637Q716 642 723 645T738 648Q749 648 751 641T746 624Q733
607 719 578T692 518T672 460Q669 450 664 444T648 437Q626 437 629 481Q631 512 628 537T610 582Q596 602 570 615T514 628Q473 628 432 609T353 551T280 451T220 306Q202 247 204 196T226 106T280 45T360 23Q396 23 422 47T459 103L493 215Q496 226 494 235T478
251Q465 257 447 261T416 269Q408 271 402 277T398 292Q400 299 408 303T424 307Q446 307 476 305T535 300T584 297Q613 297 645 301T725 306Q741 306 736 291Q733 281 727 277T711 270Q679 263 666 252T641 221Q633 206 624 184T608 143T601 117Q601 106 607 97T623
77Q614 59 580 43T500 14T408 -6T328 -14Z" />
<glyph unicode="H" horiz-adv-x="786" d="M-33 -3Q-39 -3 -43 1T-46 12Q-43 21 -37 26T-20 34Q16 42 32 54T59 97L200 551Q210 583 202 596T160 618Q152 620 149 625T148 640Q150 647 157 651T171 655Q193 655 218 654T268 652T313 650Q333 650 361 651T419 653T470
654Q486 654 481 639Q478 629 472 625T455 618Q425 610 409 602T384 582T369 550L314 369Q310 354 325 354H552Q567 354 571 369L626 550Q635 580 627 591T582 618Q575 621 571 625T570 639Q572 647 578 650T591 654Q612 654 640 653T697 651T744 650Q764 650 789
651T841 654T890 655Q896 655 900 651T903 640Q897 623 877 618Q840 609 824 596T797 551L656 97Q646 66 656 54T697 34Q705 32 708 27T709 12Q707 5 700 1T686 -3Q667 -3 642 -2T590 1T544 2Q525 2 496 1T438 -1T387 -2Q372 -2 376 13Q379 23 385 27T402 34Q444
46 461 58T486 98L544 289Q547 297 546 301T536 306H309Q292 306 287 289L229 98Q221 70 230 59T275 34Q283 31 286 27T287 13Q285 6 280 2T266 -2Q245 -2 217 -1T161 1T113 2Q93 2 66 1T13 -1T-33 -3Z" />
<glyph unicode="I" horiz-adv-x="381" d="M-33 -3Q-39 -3 -43 1T-46 12Q-40 29 -20 34Q21 43 38 54T65 97L206 551Q216 583 207 595T160 618Q152 620 149 625T148 640Q150 647 157 651T171 655Q193 655 220 654T273 652T319 650Q339 650 367 651T425 653T476 654Q492
654 487 639Q484 629 478 625T461 618Q431 610 415 602T390 582T375 550L249 142Q237 102 234 82T240 54T272 39Q295 33 301 28T305 13Q303 6 298 2T284 -2Q263 -2 232 -1T170 1T119 2Q89 2 45 0T-33 -3Z" />
<glyph unicode="J" horiz-adv-x="397" d="M-64 -200Q-141 -200 -171 -185T-203 -142Q-203 -111 -192 -90T-162 -69Q-148 -69 -132 -83T-97 -114Q-78 -131 -60 -146T-27 -161Q-11 -161 2 -141T31 -80T65 25L228 551Q238 583 229 596T183 618Q175 620 172 625T171
640Q173 647 180 651T193 655Q215 655 242 654T295 652T342 650Q362 650 390 651T448 653T498 654Q514 654 509 639Q506 629 500 625T484 618Q454 610 438 602T413 582T398 550L244 52Q238 31 226 8T198 -38T161 -83T117 -124Q77 -158 31 -179T-64 -200Z" />
<glyph unicode="K" horiz-adv-x="776" d="M-24 -6Q-33 -6 -41 -1T-47 12Q-41 29 -15 34Q26 42 40 54T65 97L205 551Q215 583 206 596T160 618Q153 620 150 623T147 633Q147 642 156 648T180 655Q197 655 222 654T273 652T319 650Q339 650 367 651T425 653T475
654Q489 654 489 643Q489 631 480 626T461 618Q431 610 415 602T390 582T375 550L320 372Q317 362 321 359T335 356Q355 356 378 368T426 405L573 548Q584 559 591 567T600 582Q604 593 590 601T560 613Q547 615 543 619T538 633Q538 642 545 646T562 651H642Q694
651 741 652T849 654Q871 654 871 639Q871 630 858 625T835 618Q780 614 743 599T674 557Q642 531 607 502T538 443T472 381Q462 371 460 364T462 349Q509 247 546 189T612 98Q632 75 653 62T697 39Q707 35 719 30T732 14Q732 6 723 1T694 -5Q664 -5 638 -4T589
-1T540 1Q516 1 494 1T450 -1T405 -2Q398 -2 390 2T382 14Q382 25 391 30T414 38Q431 41 434 52T433 76T425 101L343 282Q333 303 325 312T312 321Q306 321 304 319T299 311L237 98Q229 70 234 58T274 34Q282 31 288 28T294 16Q294 6 282 1T259 -4Q227 -4 203 -2T159
2T119 4Q89 4 59 -1T-24 -6Z" />
<glyph unicode="L" horiz-adv-x="578" d="M-28 -5Q-37 -5 -40 0T-42 11Q-38 26 -16 32Q20 43 37 53T64 95L205 551Q215 583 206 595T160 618Q152 620 149 625T148 640Q150 647 157 651T170 655Q192 655 219 654T272 652T319 650Q339 650 367 651T425 653T475 654Q491
654 486 639Q483 629 477 625T461 618Q431 610 415 602T390 582T375 550L253 154Q232 85 241 63T279 40H305Q345 40 378 49T437 75Q466 95 487 122T524 184Q528 192 534 198T546 204Q551 204 554 198T558 184Q558 168 552 145T535 96T515 49T495 14Q491 7 486 1T472
-5Q458 -5 419 -4T326 -3T218 -1T117 0Q87 0 44 -2T-28 -5Z" />
<glyph unicode="M" horiz-adv-x="987" d="M352 -14Q346 -14 341 -8T336 9Q336 123 330 230T315 448Q314 458 307 455T295 441Q261 373 231 305T176 168Q162 127 160 99T166 56T197 34Q205 32 213 28T218 13Q216 6 207 2T189 -2Q162 -2 147 -1T120 0T87 1Q64 1
37 0T-9 -2T-28 -3Q-52 -3 -47 12Q-44 21 -34 23T-14 30Q10 39 29 50T69 86T113 161L276 494Q296 535 298 559T280 598T211 624Q199 627 193 630T186 643Q186 654 198 656T221 658Q242 658 279 657T355 655T419 653Q447 653 454 637T461 597T460 548L475 229Q476
220 480 217T494 223Q547 276 598 339T693 465T768 573Q782 594 793 609T811 637Q820 650 832 650H882Q912 650 939 652T989 656T1031 658Q1042 658 1048 656T1054 644Q1054 635 1040 628T999 613Q976 607 960 595T934 565T916 522Q889 419 865 312T818 98Q813
73 828 58T870 34Q878 31 883 27T886 13Q884 6 877 2T862 -2Q841 -2 811 -1T751 1T701 2Q681 2 654 1T600 -1T550 -3Q542 -3 537 1T533 12Q536 21 544 26T562 34Q603 44 621 55T648 97Q665 153 679 207T706 316T733 426Q735 432 732 432T723 424L474 137L378 5Q374
-1 366 -7T352 -14Z" />
<glyph unicode="N" horiz-adv-x="783" d="M3 -3Q-3 -3 -10 1T-15 12Q-12 21 -3 25T16 33Q46 41 66 61T100 115L251 510Q265 547 260 570T231 605T168 620Q155 622 148 627T141 642Q141 648 152 653T174 658Q195 658 229 657T302 655T372 653Q386 653 394 648T408
631L599 199Q601 195 603 191T609 187Q616 187 621 201Q624 208 628 222T639 258T653 305T669 362T684 424T698 490Q712 558 694 584T620 621Q603 624 604 636Q605 643 614 647T630 651Q671 651 701 648T745 645Q765 645 783 647T823 650T869 652Q888 652 888 637Q888
630 877 626T854 619Q830 614 813 605T783 572T755 505Q749 485 742 461T726 408T708 350T689 287T670 223T650 158Q640 127 641 110T656 69Q661 62 666 52T679 34Q687 27 692 24T698 16Q698 6 693 3T676 0Q647 0 628 -2T594 -5T558 -8Q527 -9 512 6T485 52Q479
68 463 106T427 194T385 295T345 390T316 460T305 486Q304 488 302 492T297 496Q293 496 290 489T284 477Q271 445 253 398T217 298T185 197T162 113Q154 75 166 60T220 34Q228 32 235 28T240 13Q238 6 229 2T211 -2Q184 -2 169 -1T142 0T115 1Q92 1 66 0T22 -2T3
-3Z" />
<glyph unicode="O" horiz-adv-x="692" d="M292 -14Q225 -14 171 18T85 108T53 242Q53 325 85 401T175 536T308 629T470 664Q537 664 591 632T678 543T710 408Q710 326 677 250T587 115T454 21T292 -14ZM291 25Q332 25 371 55T444 136T504 247T544 366T559 473Q559
515 550 550T520 607T469 629Q428 629 389 598T317 516T258 405T218 284T203 176Q203 135 212 101T240 46T291 25Z" />
<glyph unicode="P" horiz-adv-x="637" d="M-27 -3Q-33 -3 -39 1T-45 12Q-45 21 -35 26T-14 34Q27 43 44 54T71 97L212 551Q222 583 212 596T169 618Q158 621 152 627T147 639Q149 646 159 650T179 655Q201 655 227 654T280 651T326 650Q342 651 362 652T407 655T458
657Q529 657 579 632T654 565T678 467Q676 416 653 373T589 297T494 247T375 229Q348 229 339 234T329 252Q329 259 335 263T351 268Q361 270 369 271T390 275Q436 283 466 315T512 390T528 474Q528 535 515 565T480 604T433 614Q423 614 415 610T398 588T376 529L242
98Q232 67 248 55T304 34Q312 32 319 28T326 13Q326 6 315 2T292 -2Q271 -2 239 -1T176 1T125 2Q95 2 51 0T-27 -3Z" />
<glyph unicode="Q" horiz-adv-x="703" d="M571 -290Q514 -290 453 -263T333 -204Q281 -176 233 -155T145 -133Q129 -133 115 -135T90 -142Q76 -147 64 -154T43 -162Q35 -162 30 -157T25 -144Q25 -132 44 -119T95 -92T160 -64T226 -37T276 -14Q381 45 443 122T532
289T559 473Q559 522 550 554T522 603T470 620Q429 620 390 592T317 515T258 409T218 290T203 176Q203 137 213 103T248 47T322 25Q334 25 347 26T376 30L341 -11Q329 -12 317 -13T292 -14Q225 -14 171 18T85 108T53 242Q53 325 85 401T175 536T308 629T470 664Q537
664 591 632T678 543T710 408Q710 330 677 261T587 134T453 29Q408 1 370 -19T288 -56T178 -94L179 -87Q206 -73 238 -66T297 -58Q333 -58 380 -77T476 -121Q526 -145 570 -165T644 -186Q673 -186 695 -173T734 -137Q747 -119 757 -119T770 -127T769 -149Q760 -170
740 -194T693 -241T634 -276T571 -290Z" />
<glyph unicode="R" horiz-adv-x="773" d="M-23 -3Q-29 -3 -34 1T-37 12Q-31 29 -11 34Q30 42 47 54T75 97L218 555Q225 577 223 588T209 606T176 618Q165 621 157 626T148 639Q148 647 162 651T186 655Q219 655 240 653T281 649T327 647Q351 647 370 649T413 654T474
657Q543 657 585 637T648 583T668 508Q668 463 643 427T578 366T492 331Q484 328 488 319Q501 287 512 262T535 216T556 174T578 131Q594 98 620 75T682 51Q695 51 706 46T718 28Q718 10 687 5T571 0Q515 0 482 13T431 50T405 100Q395 131 388 155T373 206T356
268Q352 282 344 291T322 300Q314 300 309 295T301 280L245 98Q235 67 249 55T303 34Q311 32 315 28T316 13Q313 6 308 2T295 -2Q274 -2 242 -1T179 1T128 2Q98 2 54 0T-23 -3ZM353 328Q390 328 419 342T468 382T499 444T510 524Q510 565 490 593T441 622Q429 622
421 618T404 594T381 532L329 366Q323 346 330 337T353 328Z" />
<glyph unicode="S" horiz-adv-x="539" d="M227 -14Q189 -14 156 -10T95 7Q81 13 71 16T58 20Q51 20 44 18T32 12Q25 8 19 4T7 0Q1 0 -8 8T-17 24Q-17 32 -6 57T19 117T37 191Q43 226 65 226Q79 226 82 210T86 158Q86 127 99 97T139 48T209 29Q268 29 299 60T331
134Q331 156 323 174T293 217T228 279Q179 323 156 363T132 465Q132 521 163 566T250 637T376 664Q414 664 445 658T498 644Q518 638 530 635T555 631Q570 631 581 637Q589 642 596 645T611 648Q622 648 624 641T619 624Q606 607 592 578T565 518T545 460Q542 450
537 444T521 437Q511 437 507 447T502 481Q502 546 470 585T384 624Q348 624 325 609T291 571T280 524Q280 501 287 483T316 443T378 387Q440 336 461 293T482 199Q482 148 452 99T364 18T227 -14Z" />
<glyph unicode="T" horiz-adv-x="688" d="M127 -3Q121 -3 115 1T111 12Q114 21 122 26T140 34Q181 43 200 54T230 97L363 522Q381 581 381 597T362 613H323Q290 613 256 594T195 549Q188 542 175 529T147 506T121 496Q112 496 111 501T111 514Q113 520 117 527T126
541Q159 579 175 608T205 674Q210 688 217 694T235 700Q246 700 258 691T281 674Q291 668 300 663T328 654T380 650L639 651Q683 651 707 654T743 661T760 667Q782 675 796 687T824 699Q838 699 832 683Q831 679 829 674T824 664Q803 629 788 597T761 529Q755 511
749 502T733 492Q723 492 720 501T715 531Q714 571 698 592T639 613H600Q584 613 573 606T554 580T533 524L400 98Q391 70 403 58T451 34Q459 31 464 27T466 13Q464 6 458 2T443 -2Q422 -2 392 -1T333 1T284 2Q264 2 236 1T178 -1T127 -3Z" />
<glyph unicode="U" horiz-adv-x="715" d="M318 -14Q250 -14 201 6T124 62T89 148T101 256L188 536Q196 562 191 586T161 618Q137 625 141 640Q143 647 152 651T172 655Q205 655 241 653T307 650Q336 650 380 652T455 654Q482 654 477 639Q473 627 455 622T418
608Q400 601 384 583T357 530L262 237Q246 188 257 150T299 90T368 68Q419 68 462 94T538 164T588 260Q604 305 615 342T635 405T646 445Q660 504 661 537T654 588T632 614Q622 620 608 624T596 639Q598 647 607 650T630 654Q656 654 671 653T700 652T731 651Q750
651 762 652T786 654T820 655Q831 655 837 652T840 640Q836 626 807 618Q782 612 766 602T740 575T721 534Q696 461 676 395T633 257Q608 176 567 115T465 20T318 -14Z" />
<glyph unicode="V" horiz-adv-x="735" d="M182 -18Q145 -18 140 21T148 122Q171 235 188 340T217 554Q220 581 211 594T180 615Q164 621 154 624T143 638Q143 646 152 650T177 654Q209 654 251 652T322 650Q342 650 371 651T429 654T481 655Q489 655 497 651T503
640Q500 631 489 626T468 618Q432 610 418 599T397 555L326 176Q325 172 325 171T328 169Q330 169 331 171T336 177L578 464Q622 516 634 547T638 594T604 618Q595 621 587 626T581 640Q583 647 594 650T615 654Q648 654 669 653T721 651Q750 651 775 654T831 657Q842
657 852 653T862 641Q862 631 848 627T824 620Q792 612 763 591T708 540L349 136Q331 115 307 89T257 39T212 -2T182 -18Z" />
<glyph unicode="W" horiz-adv-x="1121" d="M194 -18Q175 -18 166 2T155 55T158 122Q166 179 174 233T189 340T204 447T217 554Q219 572 216 583T203 602T180 615Q164 621 154 624T143 638Q143 646 152 650T177 654Q209 654 245 652T311 650Q331 650 362 651T426
654T480 655Q488 655 496 651T502 640Q499 631 488 626T467 618Q443 613 429 606T407 588T396 555Q382 470 364 381T332 206Q331 196 335 195T346 202L574 478Q591 499 605 520T619 564Q619 586 611 597T582 615Q566 621 556 624T545 638Q545 646 554 650T579 654Q600
654 624 653T671 651T714 650Q734 650 765 651T829 654T883 655Q908 655 908 640Q908 631 897 626T875 618Q839 611 822 599T799 555L735 204Q733 194 737 195T749 205L952 466Q993 518 1003 549T1006 596T981 618Q972 621 964 626T958 640Q960 647 971 650T992
654Q1014 654 1032 653T1069 652T1107 651Q1136 651 1161 654T1217 657Q1228 657 1238 653T1248 641Q1248 631 1234 627T1210 620Q1178 613 1146 591T1087 540L740 141Q705 101 676 66T626 8T589 -14Q572 -14 562 -7T548 16T544 54T551 111Q560 163 572 225T595
348T614 457L351 139Q333 118 314 91T274 39T233 -2T194 -18Z" />
<glyph unicode="X" horiz-adv-x="730" d="M-2 -7Q-13 -7 -24 -4T-35 10Q-35 20 -25 23T-6 30Q8 35 24 43T63 72T117 129L275 315Q289 332 293 345T289 382L236 554Q230 575 219 588T193 609T160 618Q150 619 144 624T138 639Q138 647 144 650T157 654Q207 654
245 651T327 648Q362 648 395 651T466 655Q474 655 483 651T493 640Q493 631 484 626T465 618Q437 611 423 595T417 548L463 394Q467 381 476 381T492 391L576 501Q606 540 615 564T618 602T590 618Q580 620 570 625T560 640Q560 647 569 650T589 654Q612 654 632
652T676 650Q705 650 725 653T777 657Q788 657 799 654T810 640Q810 630 800 627T781 620Q767 616 751 608T719 590T693 568L509 358Q496 342 492 328T495 291L561 92Q566 77 577 66T601 47T626 36Q635 34 648 27T662 10Q662 3 655 -1T637 -5Q595 -5 565 -4T509
-1T448 1Q418 1 388 0T326 -2Q318 -2 309 2T299 13Q299 22 308 27T327 35Q359 43 373 55T379 94L325 283Q321 296 313 296T296 286L190 140Q162 102 159 80T170 48T206 32Q216 30 226 25T236 10Q236 3 227 0T207 -4Q174 -4 156 -2T107 0Q78 0 54 -3T-2 -7Z" />
<glyph unicode="Y" horiz-adv-x="669" d="M119 -6Q106 -6 101 -1T97 11Q99 20 110 25T132 33Q173 41 193 60T222 110L264 246Q274 276 274 300T265 353L204 554Q197 574 187 590T158 613Q139 620 132 624T128 639Q130 647 137 650T152 654Q199 654 235 651T316
648Q345 648 377 651T446 655Q454 655 462 651T468 640Q466 631 455 626T434 618Q385 607 372 591T365 543L407 356Q411 341 414 337T421 333Q425 333 430 337T442 350Q476 391 513 439T587 532Q614 564 613 587T568 618Q558 620 550 625T544 640Q546 647 557 650T578
654Q601 654 624 652T676 649Q707 649 732 653T788 657Q799 657 807 654T812 640Q809 630 800 627T780 620Q759 615 738 606T700 585T670 559Q640 524 611 491T553 425T493 358Q475 339 462 315T438 259L393 111Q381 73 390 59T434 33Q445 30 452 26T457 12Q455
5 446 0T426 -5Q405 -5 377 -3T320 1T272 3Q252 3 225 1T169 -3T119 -6Z" />
<glyph unicode="Z" horiz-adv-x="642" d="M503 -4Q499 -4 475 -4T411 -2T322 0T217 1Q157 1 113 0T35 -3T-30 -7Q-40 -8 -40 6T-35 25Q-21 42 -8 58T19 90T47 122Q97 178 147 237T249 356T351 476T455 594Q461 601 461 608T448 615Q439 615 423 615T390 613T357
611T333 609Q292 603 255 585T183 523Q173 510 163 499T137 488Q128 488 127 493T127 506Q129 512 131 519T137 533Q155 565 165 590T185 641Q192 657 198 663T217 670Q249 670 289 660T379 650Q408 650 430 650T482 650Q510 650 549 651T625 654T684 655Q692 655
695 645T694 630L594 516Q550 466 502 410T404 295T305 179T210 69Q187 43 216 43Q233 43 270 43T341 45Q372 46 397 49T444 58T485 75Q513 90 536 111T583 163Q589 171 594 173T605 175Q611 175 614 171T616 160Q612 147 603 130T583 93T561 54T538 16Q532 6 523
1T503 -4Z" />
<glyph unicode="[" horiz-adv-x="377" d="M9 -201Q-8 -201 -16 -199T-25 -185T-15 -145L229 645Q238 673 245 684T262 698T289 701L478 700Q486 700 491 696T492 679Q488 666 476 661T455 654Q438 653 421 652T387 649Q361 647 343 627T318 587Q301 531 284 475T249
362T214 250T180 138T145 26T110 -87Q103 -107 109 -126T140 -148Q151 -149 162 -150T183 -152T205 -154Q213 -155 221 -160T226 -179Q222 -191 215 -195T200 -200L9 -201Z" />
<glyph unicode="\" horiz-adv-x="395" d="M274 -63Q260 -63 248 -59T233 -42L145 646Q144 653 152 660T174 668Q191 668 201 664T214 645L301 -43Q302 -50 294 -56T274 -63Z" />
<glyph unicode="]" horiz-adv-x="378" d="M393 703Q411 703 419 701T427 687T417 647L173 -143Q164 -171 157 -182T141 -196T113 -199L-76 -198Q-83 -198 -88 -194T-90 -177Q-86 -164 -74 -159T-53 -152Q-36 -150 -19 -149T15 -147Q41 -145 59 -125T84 -85Q101
-29 118 27T153 140T188 252T222 364T257 476T292 589Q299 609 293 628T262 650Q251 651 241 652T219 654T197 656Q189 657 181 662T176 681Q180 693 187 697T202 702L393 703Z" />
<glyph unicode="^" horiz-adv-x="518" d="M69 242Q60 242 53 245T45 259Q45 262 47 266L268 609H276L500 266Q505 258 500 250T478 242Q463 242 451 253T428 279L277 500Q273 505 271 505T267 500L119 279Q109 264 97 253T69 242Z" />
<glyph unicode="_" horiz-adv-x="609" d="M475 -127Q486 -127 491 -132T496 -145Q496 -158 483 -173T455 -188H-106Q-113 -188 -116 -183T-119 -174Q-119 -168 -114 -157T-99 -136T-80 -127H475Z" />
<glyph unicode="`" horiz-adv-x="245" d="M307 469Q300 469 292 474T276 486L165 609Q155 620 149 630T142 650Q142 660 153 672T179 693T205 702Q217 702 226 694T244 665L317 503Q322 492 321 481T307 469Z" />
<glyph unicode="a" horiz-adv-x="552" d="M36 -14Q22 -14 7 -6T-18 14T-28 38Q-28 67 -12 101T46 188T160 325Q201 372 240 402T298 432Q327 432 364 403Q369 398 370 397T373 396Q375 396 375 396T379 403Q385 415 388 421T394 435Q399 447 421 447Q438 447 457
439T489 420T503 399Q503 393 502 392L405 126Q397 102 415 102Q425 102 448 119T497 161Q500 164 500 164T501 164Q506 164 510 159T514 147Q514 131 494 106T441 53Q403 22 367 4T307 -14Q291 -14 274 -5T246 17T235 44Q235 50 240 67Q243 76 247 86T255 106T263
126T272 146Q274 150 270 152T264 152Q215 95 174 58T99 4T36 -14ZM152 101Q168 101 203 131T274 206Q305 244 323 273T341 315Q341 324 319 342Q309 350 298 355T280 361Q265 361 239 343T190 302Q172 284 157 256T132 196T122 137Q122 120 130 111T152 101Z"
/>
<glyph unicode="b" horiz-adv-x="543" d="M190 -14Q129 -14 96 15T63 99Q63 118 67 139T80 188L186 531Q194 558 196 569T199 592Q199 603 191 610T163 624Q143 632 143 640Q143 647 149 651T172 662Q193 669 220 677T274 691T320 702T346 707Q374 707 374 693Q374
680 372 671T364 650Q353 626 343 602T321 547T296 478T266 387T227 264Q225 257 227 256T233 262Q291 345 350 391T456 437Q494 437 520 412T546 351Q546 301 525 250T468 151T386 66T290 8T190 -14ZM221 26Q233 26 250 38T286 71T319 115Q341 150 360 190T392
267T405 322Q405 335 398 342T379 350Q360 350 328 325T257 247Q221 197 201 154T180 88Q180 69 192 48T221 26Z" />
<glyph unicode="c" horiz-adv-x="378" d="M155 -14Q114 -14 81 5T29 57T10 129Q11 180 25 226T65 311T124 378T198 421T283 437Q324 437 350 419T376 371Q376 351 362 332T333 313Q325 313 319 319T301 345Q291 364 278 377T252 391Q231 391 212 374T178 329T153
265T143 191Q142 153 162 131T218 108Q244 108 268 120T309 155Q313 160 318 163T328 167Q338 167 338 156Q338 128 322 98T278 43T218 2T155 -14Z" />
<glyph unicode="d" horiz-adv-x="573" d="M79 -14Q43 -14 20 11T-4 73Q-4 109 10 151T50 239T112 328Q156 381 198 409T279 437Q306 437 329 424T370 399Q374 397 377 396T385 394Q389 394 392 403L435 537Q444 565 447 577T452 591T452 594T451 599Q451 609 441
618T408 635Q397 640 393 643T388 651Q388 658 394 662T417 673Q429 677 454 683T509 694T563 703T596 707Q624 707 624 693Q624 684 622 676T614 650L428 118Q427 114 427 111T426 106Q426 99 431 99Q437 99 452 108T484 131T517 161Q520 164 520 164T521 164Q535
164 535 148Q535 132 520 111T482 69T430 28T376 -2T329 -14Q313 -14 296 -5T268 17T257 44Q257 50 262 67Q267 78 274 93T289 123T301 144T303 143Q306 150 302 151T293 146Q225 64 173 25T79 -14ZM175 95Q194 95 218 111T265 153T309 211T342 273T354 330Q354
356 344 369T313 383Q296 383 274 365T229 318T187 255T157 187T145 127Q145 112 153 104T175 95Z" />
<glyph unicode="e" horiz-adv-x="389" d="M142 -15Q114 -15 82 1T28 46T5 111Q5 176 28 234T91 338T178 410T276 437Q339 437 366 414T394 359Q394 324 371 300T312 258T235 229T157 210Q153 209 151 207T148 201Q147 197 147 193T145 183Q144 148 164 121T226
93Q252 93 275 106T322 145Q333 157 339 157Q348 157 348 146Q348 143 348 139T345 131Q326 94 298 61T231 6T142 -15ZM164 248Q187 255 208 263T247 285T275 318T288 366Q289 377 282 388T260 399Q243 399 227 388T197 357T172 311T157 254Q156 246 164 248Z"
/>
<glyph unicode="f" horiz-adv-x="396" d="M-58 -291Q-136 -291 -169 -265T-202 -209Q-202 -182 -185 -166T-148 -149Q-138 -149 -126 -165T-104 -196Q-93 -212 -82 -227T-51 -242Q-37 -242 -26 -229T-6 -194T12 -143L148 347Q152 365 134 365L75 364Q64 364 60
368T56 383Q56 391 65 404T93 419L154 422Q161 422 165 435L173 459Q203 549 248 603T346 681T445 706Q491 706 523 685T555 630Q555 604 543 580T508 556Q489 556 481 573T465 612Q458 632 448 648T417 665Q401 665 386 646T358 596T335 533Q329 512 325 493T317
457Q316 452 316 448T314 438Q313 428 318 425T331 422Q357 422 379 423T426 425Q437 425 437 410Q437 405 432 395T421 377T411 369L332 366Q313 365 304 360T291 340Q262 234 231 123T170 -96Q161 -129 135 -163T73 -226T3 -273T-58 -291Z" />
<glyph unicode="g" horiz-adv-x="480" d="M123 -290Q60 -290 9 -277T-72 -240T-103 -187Q-103 -158 -78 -135T-11 -94T86 -62Q99 -58 88 -53Q68 -43 51 -24T33 17Q33 41 58 58T120 95Q127 99 130 102T134 108Q134 112 124 117Q107 125 88 140T55 178T42 228Q42
259 56 295T99 363T172 416T274 437Q292 437 311 432T346 419Q363 412 377 406T400 400Q419 400 435 404T465 412T493 416Q500 416 510 411T520 388Q520 371 512 358T491 345Q482 345 472 346T449 349T425 351Q421 351 417 350T415 340Q417 334 417 328T417 315Q417
275 401 236T356 166T287 117T199 98Q189 98 179 99T163 99Q153 94 153 85Q153 75 164 64T191 41Q211 28 236 13T287 -19T338 -51Q363 -67 377 -87T391 -128Q391 -158 368 -187T307 -239T221 -276T123 -290ZM168 -253Q192 -253 215 -245T255 -222T271 -188Q271
-178 264 -167T245 -148Q222 -132 191 -114T140 -86Q134 -83 127 -83Q122 -83 118 -84T109 -87Q63 -100 41 -118T19 -172Q19 -193 33 -211T81 -241T168 -253ZM178 141Q195 139 214 154T250 196T282 254T304 314T313 364Q313 384 306 394T288 404Q273 404 256 388T221
345T190 288T168 230T159 183Q159 161 164 152T178 141Z" />
<glyph unicode="h" horiz-adv-x="579" d="M108 -14Q99 -14 85 -8T58 11T46 39Q46 56 49 73T60 111L193 535Q198 550 200 563T203 590Q203 604 191 611T164 624Q157 627 151 630T144 640Q144 646 149 650T173 662Q185 666 210 673T264 688T316 701T348 707Q356
707 366 706T376 693Q376 680 373 671T366 650L226 235Q224 228 228 228T237 233Q272 289 313 335T397 409T481 437Q524 437 545 411T567 346Q567 293 555 247T521 159T472 83Q465 74 444 58T397 26T347 -2T312 -14Q298 -14 283 -6T258 14T247 34Q247 39 252 51T266
75T284 86Q295 86 300 81T314 67Q322 60 330 54T348 47Q357 47 367 67T386 120T403 190T414 263T419 324Q419 339 414 348T396 358Q384 358 366 338T326 282T278 205T226 118T173 35Q156 9 140 -2T108 -14Z" />
<glyph unicode="i" horiz-adv-x="340" d="M90 -14Q65 -14 45 5T25 44Q25 49 26 54T30 67Q56 126 80 186T129 304Q131 309 125 309Q117 309 107 305T87 294T65 281Q50 273 44 277T38 290Q38 298 52 313T90 347T139 384T188 415T226 434Q242 440 259 433T285 412T290
385L180 111Q179 108 179 105T178 99Q178 96 179 94T183 92Q190 92 209 103T249 130T283 159Q286 162 287 162Q293 162 297 157T301 146Q301 128 279 101T224 48T155 4T90 -14ZM270 758Q246 758 230 776T214 818Q214 854 240 882T304 910Q330 910 344 889T358 845Q358
811 332 785T270 758Z" />
<glyph unicode="j" horiz-adv-x="323" d="M-132 -290Q-187 -290 -209 -273T-230 -233Q-228 -214 -218 -201T-196 -179T-175 -171Q-158 -171 -147 -183T-125 -207Q-116 -218 -107 -226T-83 -234Q-58 -234 -38 -199T1 -108L121 262Q130 291 127 300T115 309Q102
309 91 305T65 294Q53 289 46 291T38 302Q38 311 44 316T61 330Q83 347 115 364T180 395T240 419T278 435Q292 441 307 429T317 402Q312 386 298 356T272 288L162 -48Q145 -100 108 -144T25 -221T-63 -272T-132 -290ZM265 505Q241 505 225 523T209 565Q209 601
235 629T299 657Q325 657 339 636T353 592Q353 558 327 532T265 505Z" />
<glyph unicode="k" horiz-adv-x="552" d="M341 -14Q322 -14 307 -2T284 36L241 166Q237 179 232 184T222 189Q216 189 213 185T205 167Q198 151 192 134T178 99T165 65T151 31Q145 18 126 7T82 -5Q65 -5 45 10T25 53Q25 64 27 74T33 92L175 529Q180 544 184 559T189
590Q189 614 164 624Q157 627 151 630T144 640Q144 646 149 650T173 662Q185 666 209 673T261 688T310 701T341 707Q349 707 359 706T369 693Q369 680 366 671T359 650L238 308Q235 301 240 301T250 305Q275 340 306 370T376 418T457 437Q489 437 507 423T526 381Q526
358 513 335T477 291T426 252T366 221Q356 218 363 202L399 123Q403 116 409 107T425 98Q439 98 461 114T497 149Q502 155 504 158T510 161Q515 161 516 157T518 148Q518 124 501 96T456 43T398 2T341 -14ZM251 213Q276 213 302 225T350 257T385 296T399 331Q399
345 390 350T367 355Q350 355 329 339T288 299T255 255T242 225Q242 221 244 217T251 213Z" />
<glyph unicode="l" horiz-adv-x="319" d="M73 -14Q48 -14 31 5T14 44Q14 52 19 67L184 558Q197 596 192 610T166 628Q150 630 147 634T145 646Q147 653 150 657T166 664Q194 671 226 677T287 688T333 700Q336 701 341 702T351 705T358 706Q364 706 367 698T369
685Q367 678 363 665T354 638L176 127Q175 124 175 121T174 116Q174 103 186 103Q194 103 207 112T236 134T264 161Q265 162 266 163T268 164Q276 164 278 157T281 147Q281 132 267 112T228 69T176 29T121 -2T73 -14Z" />
<glyph unicode="m" horiz-adv-x="840" d="M105 -14Q95 -14 79 -7T52 14T40 48Q41 53 42 58T45 69L154 325Q158 335 156 340T143 346Q134 346 112 340T64 310Q60 305 52 305T43 315Q43 323 50 335T68 361T87 380Q114 403 143 420T222 437Q247 437 262 423T279 385T271
338L214 210Q211 203 216 202T226 208Q262 269 296 321T368 405T449 437Q492 437 510 412T527 349T504 276L495 259Q491 252 498 251T510 257Q538 302 569 343T636 410T716 437Q759 437 774 413T785 351T763 276L698 127Q686 98 701 98Q706 98 715 103T736 116T757
132T773 145Q779 151 785 157T796 163Q799 163 802 159T806 150Q805 139 801 129T789 110Q743 56 684 21T565 -14Q556 -14 542 -8T518 10T514 33L654 335Q662 350 658 359T645 369Q632 369 616 350T578 298Q559 268 534 227T481 138T421 42Q411 27 394 14T361 -6T333
-14Q323 -14 310 -6T288 13T278 35Q278 41 280 51T287 74L398 338Q405 353 403 361T390 370Q379 370 359 349T309 287Q294 265 278 237T245 178T211 113T175 48Q159 18 142 2T105 -14Z" />
<glyph unicode="n" horiz-adv-x="614" d="M128 -14Q119 -14 105 -7T78 12T59 42T61 78L159 322Q167 343 147 343Q141 343 127 342T97 334T65 310Q61 305 53 305T43 315Q43 323 50 335T67 361T85 380Q111 403 147 420T233 437Q261 437 275 423T293 387T287 342L237
219Q234 212 243 211T257 217Q291 278 324 327T395 407T477 437Q520 437 538 414T556 357T544 295L472 127Q460 98 476 98Q481 98 490 103T511 116T531 132T546 145Q552 151 558 157T569 163Q572 163 575 159T579 150Q579 128 564 110Q534 74 496 46T417 2T341
-14Q327 -14 313 -5T291 16T289 42Q322 117 358 189T423 338Q428 352 427 359T415 367Q402 367 387 350T355 307T320 255Q312 243 297 219T264 165T230 107T201 58Q184 28 166 7T128 -14Z" />
<glyph unicode="o" horiz-adv-x="475" d="M165 -14Q124 -14 88 4T30 56T8 134Q8 180 28 232T87 331T182 407T310 437Q380 437 423 399T467 289Q467 243 447 191T388 92T293 16T165 -14ZM185 27Q204 27 223 49T261 109T293 190T315 279T324 360Q324 380 316 389T292
399Q276 399 257 377T220 317T186 236T162 147T152 67Q152 47 161 37T185 27Z" />
<glyph unicode="p" horiz-adv-x="548" d="M-99 -285Q-103 -285 -106 -282T-108 -273Q-107 -265 -102 -261T-88 -255Q-55 -246 -41 -238T-18 -204L147 311Q150 320 152 329T154 343T140 346Q121 341 107 336T70 323Q62 320 53 321T44 334Q44 345 53 352T72 363Q88
369 106 378T162 404Q169 407 175 415T189 446Q206 494 235 517T297 540Q318 540 325 528T325 486L316 451Q314 441 314 435T319 429Q332 432 345 434T374 437Q428 437 465 419T523 370T543 299Q543 245 520 190T456 88T363 14T253 -14Q234 -14 219 -7T196 6Q182
17 175 15T163 -6L111 -194Q105 -213 116 -226T165 -251Q171 -252 176 -256T182 -272Q182 -277 176 -280T162 -284Q145 -284 119 -283T67 -282T26 -281Q1 -281 -35 -283T-99 -285ZM249 25Q267 25 292 45T343 100T386 182T403 281Q403 334 381 357T321 381Q315 381
309 381T297 379L212 111Q208 97 208 83T214 57Q220 43 226 34T249 25Z" />
<glyph unicode="q" horiz-adv-x="558" d="M108 -288Q104 -289 101 -284T99 -274Q100 -266 105 -262T119 -256Q152 -247 166 -239T189 -205Q205 -162 225 -105T266 14T310 135Q313 143 309 143T299 137Q255 79 222 46T160 0T97 -14Q59 -14 33 15T7 89Q7 133 24
177T72 263T140 344Q184 388 235 416T332 444Q347 444 363 437T389 416Q396 407 401 403T412 399Q420 399 430 412L438 424Q456 450 473 459T507 469Q524 469 529 443T514 355L328 -198Q321 -220 331 -231T361 -246Q380 -249 387 -253T395 -265Q395 -270 389 -273T373
-277Q318 -277 269 -278T178 -282T108 -288ZM177 68Q190 68 206 80T240 113T276 159T313 212Q340 253 360 284T381 336Q381 347 375 360T358 383T335 393Q315 393 291 370T243 311T199 233T166 156T154 96Q154 84 159 76T177 68Z" />
<glyph unicode="r" horiz-adv-x="474" d="M101 -14Q91 -14 76 -8T48 9T36 36Q36 42 37 47T40 59L143 325Q147 335 144 340T131 346Q109 346 97 337T69 315Q64 311 56 311T47 320Q45 343 65 366T117 407Q141 421 168 429T221 437Q249 437 262 422T276 380T262 319L225
233Q222 226 227 225T237 231Q271 292 303 338T369 410T443 437Q476 437 494 418T512 370Q512 342 499 316T467 274T432 258Q420 258 414 268T402 301Q398 319 392 333T373 348Q354 348 336 323T295 257Q288 245 275 221T245 167T212 109T184 60Q167 30 144 8T101
-14Z" />
<glyph unicode="s" horiz-adv-x="326" d="M79 -14Q32 -14 4 6T-24 61Q-24 87 -13 106T21 125Q29 125 39 115T63 90Q78 75 97 57T135 39Q149 39 154 46T161 69Q162 83 146 107T112 154Q93 180 79 211T64 273Q64 299 83 327T131 380T189 421T237 437Q265 437 290
426T333 398T350 369Q350 357 339 340T314 311T286 298Q273 298 262 308T243 330Q233 345 219 355T190 366Q177 366 170 357T163 339Q163 331 172 319T194 291T220 259Q253 218 266 194T280 144Q280 125 263 99T218 46T153 3T79 -14Z" />
<glyph unicode="t" horiz-adv-x="380" d="M100 -14Q83 -14 68 -3T44 23T34 51Q34 56 35 63T44 89L138 338Q145 357 140 363T127 369L77 371Q59 372 55 379T51 392Q51 394 58 403T77 420T102 428H153Q169 428 174 433T188 455L217 512Q226 529 240 544T270 569T299
579Q317 579 322 563T323 530L300 451Q296 435 300 431T315 426Q327 426 341 425T375 421Q399 418 403 413T408 399Q408 396 402 389T379 379Q368 378 356 377T325 374Q306 373 296 369T281 353L210 155Q202 132 202 122T206 109T215 107Q227 107 246 121T286 153T320
184Q321 185 322 186T324 187Q330 187 334 182T338 171Q338 156 323 133T281 85T224 37T160 0T100 -14Z" />
<glyph unicode="u" horiz-adv-x="615" d="M124 -14Q102 -14 84 5T58 49T59 96L150 299Q157 314 156 321T146 328Q140 328 124 319T91 297T67 278Q52 263 43 263T34 273Q34 284 40 294T53 313Q83 349 116 377T183 421T253 437Q269 437 284 423T307 389T308 353Q292
317 265 260T201 125Q194 111 196 102T208 92Q218 92 237 114T280 170T330 240Q345 260 359 281T386 325T412 366Q431 396 446 416T480 437Q502 437 519 425T544 397T546 364L453 113Q451 107 451 101T456 94Q463 94 483 106T525 136T561 166Q564 169 565 169Q571
169 575 164T579 153Q579 138 563 117T520 73T463 31T404 -1T354 -14Q341 -14 329 -5T310 19T303 44Q303 49 305 54T310 67Q317 83 326 103T346 148T369 204Q372 212 367 212T357 206Q333 170 305 132T246 60T184 7T124 -14Z" />
<glyph unicode="v" horiz-adv-x="492" d="M163 -14Q122 -14 97 2T65 49T73 121L134 289Q139 303 134 306T126 310Q115 310 98 301T73 285Q66 279 60 275T51 270Q36 270 36 283Q36 288 42 297T59 320Q73 337 97 357T149 395T203 425T248 437Q262 437 273 428T292
406T296 385L219 139Q209 105 215 90T250 74Q268 74 293 93T343 142T383 205T399 266Q399 293 390 310T366 342Q356 352 350 360T344 379Q344 388 362 401T405 426T444 437Q461 437 474 417T487 351Q487 310 468 266T419 178T352 98Q308 52 260 19T163 -14Z" />
<glyph unicode="w" horiz-adv-x="710" d="M141 -14Q112 -14 90 5T62 61T77 150L132 289Q137 303 134 306T128 310Q122 310 106 304T76 289Q69 285 62 281T52 276Q38 276 38 291Q38 296 43 306T61 328Q77 343 100 361T151 397T203 426T246 437Q266 437 278 427T291
393T274 323L203 139Q190 105 203 90T237 74Q249 74 264 85T295 116T325 163T352 222Q357 234 359 245T362 269T365 296T372 331Q373 339 381 354T402 382Q418 397 432 405T478 413Q492 413 502 405T515 377T507 319Q498 288 480 259T448 203Q438 184 432 164T427
127Q428 105 439 90T475 74Q498 74 520 91T562 137T593 199T605 266Q605 287 601 301T588 332Q579 350 572 361T565 378Q565 386 582 400T621 425T659 437Q676 437 690 417T704 351Q704 310 686 265T638 176T574 93Q534 47 487 17T396 -14Q358 -14 336 6T310 60T320
136L324 95Q302 61 275 37T215 -1T141 -14Z" />
<glyph unicode="x" horiz-adv-x="510" d="M36 -14Q9 -14 -3 1T-15 36Q-15 52 -8 68T11 94T35 105Q40 105 46 100T57 89Q62 85 69 81T87 77Q97 77 108 83T131 102Q138 110 149 122T172 148T190 170Q195 178 196 183T195 199L157 325Q155 333 152 337T143 342Q131
342 114 329T78 293Q76 291 73 290T67 288Q63 288 60 290T56 299Q56 319 67 342T98 387T144 423T201 437Q228 437 242 417T267 367L296 278Q300 266 309 279L366 358Q398 403 423 420T471 437Q498 437 516 417T534 381Q534 362 525 347T504 322T482 312Q469 312
465 316T455 328Q451 335 446 340T430 345Q423 345 411 341T379 317Q365 303 351 283T323 240Q318 231 315 223T316 202L342 104Q347 87 352 82T364 77Q371 77 386 88T420 128Q425 135 432 135Q436 135 438 132T441 122Q441 107 430 84T400 39T355 1T303 -14Q275
-14 256 7T231 49Q227 68 222 93T212 138Q211 143 209 145T201 141Q188 123 176 103T151 65Q125 28 94 7T36 -14Z" />
<glyph unicode="y" horiz-adv-x="499" d="M-46 -289Q-76 -289 -101 -272T-126 -221Q-126 -202 -117 -184T-93 -154T-61 -142Q-50 -142 -37 -149T-12 -166Q1 -175 15 -183T49 -191Q78 -191 105 -164T151 -93Q169 -52 178 2T187 115Q187 200 178 250T156 322T134
344Q126 344 116 331T96 302T81 276Q79 272 74 264T62 255Q59 255 56 262T53 283Q53 312 67 340T104 392T153 430T202 444Q233 444 250 424T281 365Q295 322 305 253T310 84Q309 66 313 67T325 81Q360 148 370 228T379 417Q379 426 393 435T416 444Q426 444 442
435T473 410T487 374Q487 312 451 230T350 55T199 -130Q159 -173 114 -209T28 -267T-46 -289Z" />
<glyph unicode="z" horiz-adv-x="485" d="M273 -33Q242 -33 216 -19T169 11Q147 27 129 40T93 54Q68 54 53 36T38 -5Q38 -15 33 -17T22 -20Q13 -20 7 -9T-1 12Q-2 23 3 38T25 66L321 316L360 312Q344 298 315 289T269 280Q248 280 229 294T192 325Q177 338 164
348T137 358Q123 358 117 343T111 310Q111 296 114 286T123 267Q132 255 123 247Q115 240 98 234T73 227Q66 227 56 238T45 272Q45 309 62 331T110 377Q125 389 146 403T190 427T225 437Q248 437 265 431T307 417Q327 410 348 405T390 400Q406 400 414 404T436
420Q442 425 451 431T469 438Q475 438 482 433T489 422Q489 415 477 401T450 374L156 106L128 117Q142 129 156 140T185 151Q209 151 230 137T271 106Q291 89 311 75T351 60Q361 60 368 68T379 91T384 123Q384 143 385 158T397 173Q411 173 426 160T441 116Q441
96 422 71T374 22T318 -17T273 -33Z" />
<glyph unicode="{" horiz-adv-x="397" d="M227 -152Q183 -152 143 -145T73 -121T33 -80T35 -19Q45 6 58 39T83 107T104 169Q117 211 109 232T68 266Q58 271 50 273T42 288Q42 298 54 303T83 315Q108 324 125 332T156 359T180 413Q193 454 203 499T222 581Q230
616 256 641T321 683T404 706T493 714Q504 714 510 708T514 691Q510 679 496 676T470 673Q418 673 385 654T337 586Q332 570 326 539T314 476T300 422Q284 369 235 332T128 283Q122 282 128 279Q180 268 207 231T217 140Q211 119 198 87T172 24T154 -24Q140 -72
158 -88T228 -114Q240 -116 251 -117T262 -131Q262 -142 250 -147T227 -152Z" />
<glyph unicode="|" horiz-adv-x="279" d="M101 -289Q91 -289 84 -280T77 -261V644Q77 660 89 671T118 690T149 701T168 705Q179 705 187 698T196 679V-241Q196 -257 184 -266T155 -281T123 -287T101 -289Z" />
<glyph unicode="}" horiz-adv-x="397" d="M213 714Q257 714 297 707T367 683T407 642T405 581Q395 556 382 523T357 455T336 393Q323 351 332 331T372 296Q383 292 390 290T398 274Q398 264 386 259T357 247Q332 239 315 230T284 203T260 149Q247 108 237 64T218
-19Q210 -54 184 -79T119 -121T36 -144T-53 -152Q-63 -152 -70 -146T-74 -129Q-70 -117 -56 -114T-30 -111Q23 -111 55 -92T103 -24Q108 -7 114 23T127 86T140 140Q157 193 205 230T312 279Q318 280 312 283Q260 294 234 331T223 422Q230 444 243 476T268 539T286
586Q300 634 282 650T212 676Q200 678 189 679T178 693Q178 704 190 709T213 714Z" />
<glyph unicode="~" horiz-adv-x="555" d="M95 254Q88 254 80 268T72 287Q72 293 85 312T120 352T168 390T221 406Q244 406 268 398T320 381Q343 374 368 368T422 361Q442 361 461 368T497 384Q512 392 519 399T534 406Q542 406 549 392T557 373Q557 367 544 348T509
308T461 270T408 254Q389 254 366 260T319 274Q291 283 262 291T207 299Q181 299 156 288T115 265T95 254Z" />
<glyph unicode="&#xa0;" horiz-adv-x="245" />
<glyph unicode="&#xa1;" horiz-adv-x="306" d="M186 308Q200 308 204 296T203 255Q193 197 184 149T167 63T154 -4T144 -50Q138 -79 124 -106T88 -151T38 -169Q19 -169 4 -153T-13 -105T1 -28Q4 -19 15 5T45 67T86 152T138 255Q150 278 161 293T186 308ZM240 494Q266
494 283 476T301 435Q301 400 274 373T209 345Q177 345 161 366T144 409Q144 443 173 468T240 494Z" />
<glyph unicode="&#xa2;" horiz-adv-x="439" d="M120 -82Q111 -82 106 -77T105 -62L126 -11Q74 3 44 46T13 155Q13 204 36 253T101 344T196 411T309 436L332 492Q337 503 347 508T368 514Q376 514 379 508T378 492L354 435Q379 433 405 423T451 397T470 364Q470
351 458 338T428 315T394 306Q383 306 375 309T361 323Q353 341 346 353T329 372L225 117Q231 116 238 116T252 115Q290 115 326 129T383 167Q392 177 401 177Q411 177 410 167T402 145Q364 74 308 33T171 -14L151 -62Q146 -71 137 -76T120 -82ZM183 127L287 380Q256
379 230 364T185 323T156 267T146 206Q146 180 156 159T183 127Z" />
<glyph unicode="&#xa3;" horiz-adv-x="649" d="M109 287Q102 286 96 291T89 304Q89 313 99 326T122 340L504 365Q512 366 517 360T522 348Q522 341 509 327T479 312L109 287ZM357 -37Q314 -37 282 -21T224 14Q196 35 173 53T124 71Q93 49 74 32T37 -4Q27 -14 11
-12T-17 1T-30 27Q-30 49 -7 73T53 115T130 135Q152 168 169 207T202 291T233 387Q253 450 292 505T393 594T538 629Q601 629 634 611T677 566T677 512T646 467T595 448Q583 448 580 452T576 464Q576 472 587 486T599 527Q599 550 587 567T546 585Q524 585 506
576T471 542T436 473T396 360Q381 312 357 268T300 192T227 150Q225 149 225 147T227 143Q265 143 290 129T336 96Q357 77 376 61T423 44Q453 44 479 61T506 112Q506 129 497 139T487 163Q487 183 502 193T533 204Q558 204 570 191T583 145Q583 116 568 85T524
26T453 -19T357 -37Z" />
<glyph unicode="&#xa4;" horiz-adv-x="502" d="M208 54Q160 54 125 73T71 125T51 202Q51 254 76 303T142 391T235 454T339 477Q392 477 426 457T476 402T493 327Q493 281 473 233T416 145T326 79T208 54ZM22 49Q9 49 -2 65T-12 92Q-11 96 -1 104L78 164L113 112L35
54Q30 50 28 50T22 49ZM397 49Q388 49 380 61L332 126L382 163L431 97Q436 91 436 89T437 84Q437 72 424 61T397 49ZM227 115Q265 115 301 131T366 175T413 238T430 311Q430 357 400 386T320 416Q281 416 245 400T179 355T133 292T115 221Q115 175 145 145T227
115ZM163 363L105 441Q103 445 103 448Q103 459 119 472T148 482Q154 481 156 477L213 400L163 363ZM463 376L425 426L495 477Q499 479 502 480T509 482Q526 482 537 469T545 441Q544 436 541 432L463 376Z" />
<glyph unicode="&#xa5;" horiz-adv-x="665" d="M115 -6Q102 -6 97 -1T93 11Q95 20 106 25T128 33Q169 41 189 60T218 110L240 181H132Q125 181 119 186T113 199Q114 208 124 220T148 233L256 232L260 246Q262 253 264 259T267 273H165Q158 273 152 278T146 291Q147
300 157 312T181 325H267Q266 332 265 339T261 353L200 554Q193 575 182 592T144 618Q136 621 131 625T128 639Q130 647 137 650T152 654Q199 654 233 651T312 648Q341 648 373 651T442 655Q450 655 458 651T464 640Q462 631 451 626T430 618Q381 607 368 591T361
543L395 366Q398 351 401 347T409 343Q413 343 418 347T430 360Q453 387 477 417T527 478T576 539Q602 570 599 592T555 618Q545 619 537 625T531 640Q533 647 544 650T565 654Q595 654 619 652T672 649Q703 649 728 653T784 657Q795 657 803 654T808 640Q805 630
796 627T776 620Q755 615 736 606T700 584T671 557Q626 505 581 455T488 353Q482 346 476 339T465 323H557Q565 323 570 317T574 305Q573 298 559 285T529 272H439L426 232L529 231Q537 231 542 225T546 213Q545 206 531 193T501 180H410L389 111Q377 73 386 59T430
33Q441 30 448 26T453 12Q451 5 442 0T422 -5Q401 -5 373 -3T316 1T268 3Q248 3 221 1T165 -3T115 -6Z" />
<glyph unicode="&#xa6;" horiz-adv-x="281" d="M103 -290Q93 -290 86 -281T79 -262V124Q79 140 91 151T120 170T151 181T170 185Q181 185 189 178T198 159V-242Q198 -258 186 -267T157 -282T125 -288T103 -290ZM101 251Q91 251 84 260T77 279V644Q77 660 89 671T118
690T149 701T168 705Q179 705 187 698T196 679V299Q196 283 184 274T155 259T123 253T101 251Z" />
<glyph unicode="&#xa7;" horiz-adv-x="453" d="M41 -148Q9 -148 -11 -139T-32 -114Q-32 -101 -21 -83T7 -51T35 -37Q48 -37 58 -42T78 -56Q89 -64 103 -71T139 -78Q161 -78 177 -68T203 -40T213 4Q213 47 190 84T140 159Q114 196 92 233T69 311Q69 356 86 389T133
449T197 500Q220 539 253 571T325 621T402 640Q426 640 450 634T491 617T508 592Q508 581 494 564T462 533T434 519Q427 519 418 528T398 548Q387 559 374 568T344 578Q324 578 306 568T278 541T267 504Q267 468 292 434T346 362Q372 329 392 292T413 209Q413 153
379 92T292 -22Q253 -61 211 -89T126 -133T41 -148ZM283 66Q283 62 287 62T292 66Q305 89 314 114T324 164Q324 204 307 237T267 300Q252 321 238 341T213 383T200 429Q200 433 197 432T191 429Q174 415 165 395T156 339Q156 308 177 275T223 207Q238 185 252 162T274
115T283 66Z" />
<glyph unicode="&#xa8;" horiz-adv-x="490" d="M431 490Q406 490 391 506T376 548Q376 575 391 596T429 630T479 643Q507 643 522 628T538 586Q538 547 507 519T431 490ZM227 490Q202 490 187 506T172 548Q172 575 187 596T225 630T275 643Q303 643 318 628T334
586Q334 547 303 519T227 490Z" />
<glyph unicode="&#xa9;" horiz-adv-x="684" d="M376 15Q312 15 256 39T156 106T89 206T65 327Q65 392 89 448T156 547T256 614T377 639Q442 639 498 615T597 548T664 449T689 327Q689 263 665 206T597 107T498 40T376 15ZM390 134Q332 134 283 158T203 224T173
321Q173 371 201 414T282 485T405 512Q433 512 461 506T510 488Q516 486 519 483T523 472Q526 448 526 432T527 395Q527 385 521 380T507 374Q501 374 496 378T488 390Q484 401 481 410T469 429Q459 440 443 448T401 457Q351 457 329 420T306 331Q306 287 315 255T344
206T401 188Q437 188 457 203T493 254Q497 263 503 266T516 267Q530 264 530 247Q530 226 527 212T519 175Q517 168 513 168T503 164Q483 154 455 144T390 134ZM376 68Q429 68 475 88T556 144T610 227T630 327Q630 379 611 425T556 505T476 560T377 580Q325 580
279 560T198 506T144 425T124 327Q124 274 143 227T197 145T278 89T376 68Z" />
<glyph unicode="&#xaa;" horiz-adv-x="361" d="M35 159Q28 159 23 164T17 175Q17 183 26 194T48 206H288Q294 206 300 202T306 190Q306 180 293 170T265 159H35ZM129 286Q101 286 83 300T64 335Q64 373 89 392T154 424L224 447Q240 452 245 457T254 475L260 497Q265
513 265 522T247 532Q240 532 232 530T217 522Q211 517 211 508T208 493Q207 489 195 483T167 472T138 464T119 460Q113 460 114 466T119 481Q127 493 136 504T168 529Q184 539 207 549T257 567T304 575Q351 575 369 548T373 473L336 368Q332 357 333 346T345 334Q351
334 357 337T368 343Q370 345 373 345Q375 345 377 343T379 339Q379 331 369 323T354 311Q339 301 322 294T283 286Q265 286 253 291T234 305T221 325H220Q205 312 182 299T129 286ZM191 338Q194 338 198 339T205 342Q207 344 209 346T212 353L232 411Q234 416
231 418T223 418Q206 411 195 401T177 365Q173 356 175 347T191 338Z" />
<glyph unicode="&#xab;" horiz-adv-x="622" d="M283 15Q272 15 265 23T253 36Q230 63 210 83T169 120T125 153T73 187Q59 196 53 200T47 210Q47 217 56 223T72 231Q136 259 185 286T279 345T378 414Q383 418 388 421T401 425Q415 425 412 416T401 395Q359 347
322 316T252 262T189 219Q180 213 180 211T185 203Q203 184 221 162T258 111T293 43Q298 33 293 24T283 15ZM494 15Q483 15 476 23T464 36Q441 63 421 83T380 120T336 153T284 187Q270 196 264 200T258 210Q258 217 267 223T283 231Q347 259 396 286T490 345T589
414Q594 418 599 421T612 425Q626 425 623 416T612 395Q570 347 533 316T463 262T400 219Q391 213 391 211T396 203Q414 184 432 162T469 111T504 43Q509 33 504 24T494 15Z" />
<glyph unicode="&#xac;" horiz-adv-x="600" d="M497 42Q492 42 487 48T482 62V299Q482 315 467 315H50Q43 315 37 320T30 330Q30 339 33 353T45 378T65 389H538Q549 389 552 383T556 368V76Q556 64 545 57T520 46T497 42Z" />
<glyph unicode="&#xad;" horiz-adv-x="333" d="M30 163Q23 162 20 165T17 174Q17 203 32 219T61 238Q119 247 183 255T304 267Q315 268 316 263T318 249Q318 241 312 229T296 206T279 194Q221 186 154 177T30 163Z" />
<glyph unicode="&#xae;" horiz-adv-x="719" d="M394 15Q330 15 274 39T174 106T107 206T83 327Q83 392 107 448T174 547T274 614T395 639Q460 639 516 615T615 548T682 449T707 327Q707 263 683 206T615 107T516 40T394 15ZM394 68Q447 68 493 88T574 144T628
227T648 327Q648 379 629 425T574 505T494 560T395 580Q343 580 297 560T216 506T162 425T142 327Q142 274 161 227T215 145T296 89T394 68ZM519 170Q504 170 486 181T448 211T412 255T382 308Q380 313 377 315T369 318Q366 318 365 316T363 309V227Q363 212 372
206T404 195Q409 194 412 192T416 182Q416 177 413 173T405 169Q389 169 361 170T317 172Q307 172 293 172T265 170T239 169Q236 169 232 173T228 182Q228 188 231 191T240 195Q260 200 267 206T274 227V441Q274 452 272 458T262 468T243 475Q232 476 232 486Q232
493 242 493Q268 493 282 491T317 489Q336 489 348 491T391 493Q455 493 488 474T521 413Q521 379 502 362T460 334Q458 333 458 331T459 327Q477 284 500 259T545 222T580 211Q583 211 585 209T587 202Q587 189 571 180T519 170ZM380 355Q410 355 424 369T438
402Q438 431 425 443T386 456Q371 456 366 452T360 438V370Q360 363 365 359T380 355Z" />
<glyph unicode="&#xaf;" horiz-adv-x="367" d="M136 510Q126 510 123 515T120 529Q120 546 130 561T153 586T175 596H436Q460 596 460 582Q460 570 451 553T428 523T401 510H136Z" />
<glyph unicode="&#xb0;" horiz-adv-x="359" d="M280 376Q234 376 199 398T144 456T124 531Q124 571 143 603T198 655T280 675Q326 675 360 656T413 604T433 531Q433 492 414 457T360 399T280 376ZM279 436Q313 436 337 461T362 525Q362 564 338 588T279 613Q244
613 220 589T195 525Q195 486 219 461T279 436Z" />
<glyph unicode="&#xb1;" horiz-adv-x="600" d="M284 126Q280 126 276 131T271 143V344Q271 357 258 357H47Q40 357 35 361T30 370Q30 381 36 398T59 416H257Q267 416 269 419T271 430V600Q271 610 278 617T295 629T314 634Q322 634 326 627T330 611V430Q330 423
333 420T343 416H547Q556 416 563 412T570 400Q570 387 560 372T536 357H343Q330 357 330 344V155Q330 139 313 133T284 126ZM49 29Q42 29 36 34T30 44Q30 51 33 62T44 83T63 93H545Q556 93 564 88T572 75Q572 61 561 45T534 29H49Z" />
<glyph unicode="&#xb2;" horiz-adv-x="352" d="M354 438Q344 438 305 439T224 441Q203 441 176 441T130 439T109 438Q100 438 100 445Q100 450 107 455L157 498Q238 568 280 608T323 682Q323 696 312 706T282 716Q262 716 243 703T213 679Q208 673 204 669T194
664Q186 664 186 670T188 683Q198 710 222 731T278 763T340 775Q384 775 409 757T435 697Q435 672 414 649T367 603Q358 596 336 582T290 552T247 527T228 515Q227 514 229 513T236 512H337Q354 512 372 524T403 552Q406 556 411 560T424 564Q432 564 433 560T427
544Q411 522 399 501T379 466T371 452Q369 447 364 443T354 438Z" />
<glyph unicode="&#xb3;" horiz-adv-x="306" d="M165 435Q140 435 124 442T111 463Q115 475 122 486T138 498Q146 498 153 493T168 483Q174 477 184 471T200 465Q213 465 229 476T258 508T270 551Q270 568 261 587T235 607Q211 607 202 598T187 589Q180 589 178
592T175 602Q175 607 183 614T203 627T221 637Q271 657 289 671T308 701Q308 713 300 722T271 731Q254 731 240 723T214 707Q208 703 204 700T198 696Q194 696 192 701T190 711Q192 715 208 730T253 760T324 775Q363 775 383 757T403 715Q403 689 375 670T312 643Q310
642 310 641T311 640Q340 640 359 618T379 569Q379 542 359 518T307 475T237 446T165 435Z" />
<glyph unicode="&#xb4;" horiz-adv-x="245" d="M158 469Q145 469 144 480T148 503L221 665Q230 685 239 693T260 702Q271 702 286 693T312 672T323 650Q323 640 317 630T300 609L189 486Q182 479 174 474T158 469Z" />
<glyph unicode="&#xb5;" horiz-adv-x="586" d="M19 -289Q-3 -289 -15 -276T-33 -243T-38 -208Q-38 -182 -32 -148T-16 -76T5 0Q10 13 22 40T41 92Q44 102 52 130T70 198T92 278T112 355T127 413Q131 425 143 431T168 437Q195 437 218 424T253 394T262 362Q259
352 246 328T215 273T177 211T141 157Q137 147 134 140T131 129Q131 116 142 100T176 84Q205 86 232 105T285 154T332 213Q350 263 365 305T398 397Q406 420 415 428T438 437Q455 437 479 428T521 406T539 377Q539 368 528 347T498 295T453 231T399 163Q390 135
408 121T459 106Q477 106 496 114T530 130T548 139Q553 139 555 136T558 127Q558 84 536 52T481 3T418 -15Q398 -15 380 -2T353 35T349 89Q351 97 353 105T360 121L357 122Q353 116 338 95T301 49T258 6T216 -13Q180 -13 163 4T125 46Q121 50 114 60T100 79T89
88Q82 88 78 83T68 63Q65 55 61 39T55 3T52 -38Q52 -65 61 -96T86 -149Q97 -164 106 -176T115 -200Q115 -209 104 -223T77 -253T45 -278T19 -289Z" />
<glyph unicode="&#xb6;" horiz-adv-x="612" d="M116 -287Q58 -287 22 -258T-14 -184Q-14 -134 7 -100T64 -47T141 -29Q173 -29 194 -44T215 -94Q215 -127 194 -147T142 -168Q129 -168 116 -163T91 -151Q83 -146 75 -142T57 -138Q46 -138 40 -148T33 -174Q33 -196
52 -218T117 -240Q184 -240 228 -200T294 -90L341 56Q344 64 342 70T332 76Q236 76 168 116T74 230T78 402Q103 485 142 534T238 608T374 640T558 648Q590 648 622 647T679 643T712 639Q720 637 721 628T720 609Q716 599 710 589T696 579Q693 579 684 581T659 587T624
592T582 595Q573 595 564 587T552 568L352 -78Q336 -130 309 -178T235 -256T116 -287ZM342 124Q346 124 350 127T357 138L501 583Q501 584 501 584T501 585Q501 590 495 591T483 593Q463 593 445 590T408 568T369 506T322 384Q282 260 282 199Q282 159 297 142T342
124Z" />
<glyph unicode="&#xb7;" horiz-adv-x="267" d="M114 127Q86 127 66 148T46 196Q46 224 60 248T98 287T150 302Q185 302 203 278T222 227Q222 201 208 178T169 141T114 127Z" />
<glyph unicode="&#xb8;" horiz-adv-x="245" d="M-33 -281Q-58 -281 -79 -271T-113 -245T-126 -215Q-126 -176 -95 -176Q-80 -176 -67 -184T-40 -203Q-25 -215 -16 -223T6 -231Q15 -231 19 -226T24 -212Q24 -198 14 -190T-8 -169Q-20 -158 -32 -142T-45 -113Q-45
-96 -25 -72T26 -24T85 17H126Q89 -9 76 -26T62 -57Q62 -67 72 -78T95 -100Q109 -113 118 -125T127 -150Q127 -166 112 -188T72 -231T20 -267T-33 -281Z" />
<glyph unicode="&#xb9;" horiz-adv-x="255" d="M117 438Q113 438 111 440T109 447Q111 453 115 456T124 461Q147 466 151 470T160 486L220 684Q227 705 215 715T192 727Q181 729 184 739Q190 755 206 756Q244 759 278 760T344 774Q346 775 350 777T357 779Q366
779 364 772Q363 766 359 759T349 734L272 487Q269 477 270 473T291 461Q296 459 298 457T298 448Q297 444 295 442T287 439Q278 439 261 439T226 440T200 441Q187 441 160 440T117 438Z" />
<glyph unicode="&#xba;" horiz-adv-x="397" d="M46 159Q39 159 34 164T28 175Q28 183 37 194T59 206H306Q312 206 318 202T324 190Q324 180 311 170T283 159H46ZM214 293Q141 293 109 337T94 445Q107 489 139 519T217 566T315 582Q387 582 418 540T433 432Q423
393 395 362T322 312T214 293ZM234 333Q248 333 258 342T277 365T292 397T305 432Q314 459 316 484T313 525T292 542Q279 542 268 533T248 509T233 477T221 444Q213 416 212 391T215 349T234 333Z" />
<glyph unicode="&#xbb;" horiz-adv-x="622" d="M344 425Q355 425 362 417T374 404Q397 377 417 357T458 320T502 287T554 253Q568 244 574 240T580 230Q580 223 571 217T555 209Q491 181 442 154T348 95T249 26Q244 22 239 19T226 15Q212 15 215 25T226 45Q268
93 305 124T375 178T438 221Q447 227 447 229T442 237Q424 257 406 279T369 330T334 397Q330 408 334 416T344 425ZM133 425Q144 425 151 417T163 404Q186 377 206 357T247 320T291 287T343 253Q357 244 363 240T369 230Q369 223 360 217T344 209Q280 181 231 154T137
95T38 26Q33 22 28 19T15 15Q1 15 4 25T15 45Q57 93 94 124T164 178T227 221Q236 227 236 229T231 237Q213 257 195 279T158 330T123 397Q119 408 123 416T133 425Z" />
<glyph unicode="&#xbc;" horiz-adv-x="696" d="M68 278Q64 278 62 280T60 287Q62 293 66 296T75 301Q98 306 102 310T111 326L171 524Q178 545 166 555T143 567Q132 569 135 579Q141 595 157 596Q195 599 229 600T295 614Q297 615 301 617T308 619Q317 619 315
612Q314 606 310 599T300 574L223 327Q220 317 221 313T242 301Q247 299 249 297T249 288Q248 284 246 282T238 279Q229 279 212 279T177 280T151 281Q138 281 111 280T68 278ZM70 -19Q54 -19 48 -6T52 17L661 653Q669 661 683 665T711 669Q727 669 733 659T730
640L124 8Q111 -6 98 -12T70 -19ZM480 -9Q468 -9 471 -1L496 78Q499 89 487 89Q450 89 410 88T331 87Q327 87 327 91T332 101Q378 142 433 186T540 271Q554 282 585 301T642 341Q650 347 657 351T668 355Q671 355 671 353T671 346L605 139Q603 134 610 134Q627
134 638 134T653 135Q659 135 658 128Q657 119 646 105T630 91Q623 91 615 91T599 91Q590 91 587 84L572 31Q570 25 558 18T529 5T499 -5T480 -9ZM426 135H508Q512 135 514 139L542 224Q542 225 541 225T539 224Q527 215 504 199T458 166T425 139Q423 135 426 135Z"
/>
<glyph unicode="&#xbd;" horiz-adv-x="733" d="M68 278Q64 278 62 280T60 287Q62 293 66 296T75 301Q98 306 102 310T111 326L171 524Q178 545 166 555T143 567Q132 569 135 579Q141 595 157 596Q195 599 229 600T295 614Q297 615 301 617T308 619Q317 619 315
612Q314 606 310 599T300 574L223 327Q220 317 221 313T242 301Q247 299 249 297T249 288Q248 284 246 282T238 279Q229 279 212 279T177 280T151 281Q138 281 111 280T68 278ZM67 -19Q51 -19 45 -6T49 17L658 653Q666 661 680 665T708 669Q724 669 730 659T727
640L121 8Q108 -6 95 -12T67 -19ZM595 -16Q585 -16 546 -15T465 -13Q444 -13 417 -13T371 -15T350 -16Q341 -16 341 -9Q341 -4 348 1L398 44Q479 114 521 154T564 228Q564 242 553 252T523 262Q503 262 484 249T454 225Q449 219 445 215T435 210Q427 210 427 216T429
229Q439 256 463 277T519 309T581 321Q625 321 650 303T676 243Q676 218 655 195T608 149Q599 142 577 128T531 98T488 73T469 61Q468 60 470 59T477 58H578Q595 58 613 70T644 98Q647 102 652 106T665 110Q673 110 674 106T668 90Q652 68 640 47T620 12T612 -2Q610
-7 605 -11T595 -16Z" />
<glyph unicode="&#xbe;" horiz-adv-x="711" d="M115 275Q90 275 74 282T61 303Q65 315 72 326T88 338Q96 338 103 333T118 323Q124 317 134 311T150 305Q163 305 179 316T208 348T220 391Q220 408 211 427T185 447Q161 447 152 438T137 429Q130 429 128 432T125
442Q125 447 133 454T153 467T171 477Q221 497 239 511T258 541Q258 553 250 562T221 571Q204 571 190 563T164 547Q158 543 154 540T148 536Q144 536 142 541T140 551Q142 555 158 570T203 600T274 615Q313 615 333 597T353 555Q353 529 325 510T262 483Q260 482
260 481T261 480Q290 480 309 458T329 409Q329 382 309 358T257 315T187 286T115 275ZM90 -19Q74 -19 68 -6T72 17L681 653Q689 661 703 665T731 669Q747 669 753 659T750 640L144 8Q131 -6 118 -12T90 -19ZM495 -9Q483 -9 486 -1L511 78Q514 89 502 89Q465 89
425 88T346 87Q342 87 342 91T347 101Q393 142 448 186T555 271Q569 282 600 301T657 341Q665 347 672 351T683 355Q686 355 686 353T686 346L620 139Q618 134 625 134Q642 134 653 134T668 135Q674 135 673 128Q672 119 661 105T645 91Q638 91 630 91T614 91Q605
91 602 84L587 31Q585 25 573 18T544 5T514 -5T495 -9ZM441 135H523Q527 135 529 139L557 224Q557 225 556 225T554 224Q542 215 519 199T473 166T440 139Q438 135 441 135Z" />
<glyph unicode="&#xbf;" horiz-adv-x="404" d="M255 306Q263 306 277 294T302 263T314 222Q314 188 303 158T258 102T153 54Q98 38 68 16T37 -38Q37 -63 53 -80T109 -97Q123 -97 137 -89T165 -75Q173 -71 185 -66T207 -60Q225 -60 237 -72T249 -105Q249 -139 221
-158T152 -178Q112 -178 76 -155T16 -87T-7 16Q-7 43 7 70T47 119T102 153L196 190Q223 201 232 211T241 238Q241 246 241 253T238 267Q237 275 234 281T231 294Q231 302 238 304T255 306ZM293 497Q317 497 334 479T351 438Q351 402 324 375T262 347Q231 347 216
368T200 411Q200 445 228 471T293 497Z" />
<glyph unicode="&#xc0;" horiz-adv-x="766" d="M-45 -5Q-56 -5 -62 -2T-67 12Q-65 22 -58 27T-40 34Q-22 38 3 46T52 67T93 98Q157 171 220 243T348 387T476 532Q495 553 507 574T528 610T543 625Q569 625 595 629T640 644Q657 653 672 662T697 672Q708 672 709
652T706 606L608 112Q602 81 617 63T671 34Q682 31 689 28T697 13Q697 6 686 2T666 -2Q645 -2 617 -1T559 1T507 2Q487 2 458 1T399 -1T347 -3Q327 -3 329 12Q330 21 338 26T356 34Q379 39 395 46T421 66T436 97L466 219Q468 227 465 231T453 236H292Q284 236 278
231T266 219L204 140Q179 108 174 87T181 54T222 34Q231 32 239 27T247 12Q246 5 236 2T215 -2Q182 -2 152 -1T91 1Q62 1 25 -2T-45 -5ZM342 284H465Q473 284 477 286T482 295L529 514Q531 520 531 525T528 530Q527 530 523 528T516 523L332 302Q323 292 324 288T342
284ZM703 693Q700 693 693 693T675 698Q632 718 585 741T496 785Q478 794 475 806Q473 814 487 823T520 841T545 851Q566 857 581 843Q614 813 641 782T701 724Q715 713 715 703Q715 693 703 693Z" />
<glyph unicode="&#xc1;" horiz-adv-x="766" d="M-45 -5Q-56 -5 -62 -2T-67 12Q-65 22 -58 27T-40 34Q-22 38 3 46T52 67T93 98Q157 171 220 243T348 387T476 532Q495 553 507 574T528 610T543 625Q569 625 595 629T640 644Q657 653 672 662T697 672Q708 672 709
652T706 606L608 112Q602 81 617 63T671 34Q682 31 689 28T697 13Q697 6 686 2T666 -2Q645 -2 617 -1T559 1T507 2Q487 2 458 1T399 -1T347 -3Q327 -3 329 12Q330 21 338 26T356 34Q379 39 395 46T421 66T436 97L466 219Q468 227 465 231T453 236H292Q284 236 278
231T266 219L204 140Q179 108 174 87T181 54T222 34Q231 32 239 27T247 12Q246 5 236 2T215 -2Q182 -2 152 -1T91 1Q62 1 25 -2T-45 -5ZM342 284H465Q473 284 477 286T482 295L529 514Q531 520 531 525T528 530Q527 530 523 528T516 523L332 302Q323 292 324 288T342
284ZM615 681Q603 681 601 689Q600 696 610 712Q633 749 656 782T708 850Q720 865 742 865Q750 865 769 861T805 849T820 832Q819 820 802 808Q764 780 722 749T641 691Q632 685 625 683T615 681Z" />
<glyph unicode="&#xc2;" horiz-adv-x="766" d="M-45 -5Q-56 -5 -62 -2T-67 12Q-65 22 -58 27T-40 34Q-22 38 3 46T52 67T93 98Q157 171 220 243T348 387T476 532Q495 553 507 574T528 610T543 625Q569 625 595 629T640 644Q657 653 672 662T697 672Q708 672 709
652T706 606L608 112Q602 81 617 63T671 34Q682 31 689 28T697 13Q697 6 686 2T666 -2Q645 -2 617 -1T559 1T507 2Q487 2 458 1T399 -1T347 -3Q327 -3 329 12Q330 21 338 26T356 34Q379 39 395 46T421 66T436 97L466 219Q468 227 465 231T453 236H292Q284 236 278
231T266 219L204 140Q179 108 174 87T181 54T222 34Q231 32 239 27T247 12Q246 5 236 2T215 -2Q182 -2 152 -1T91 1Q62 1 25 -2T-45 -5ZM342 284H465Q473 284 477 286T482 295L529 514Q531 520 531 525T528 530Q527 530 523 528T516 523L332 302Q323 292 324 288T342
284ZM512 692Q491 692 496 705Q499 713 510 721L643 817Q666 834 678 840T704 847Q719 847 727 841T748 817L826 722Q830 718 830 714T829 705Q826 691 808 691Q799 691 778 700T733 720T694 740Q682 747 668 740Q654 734 632 726T587 710T543 697T512 692Z" />
<glyph unicode="&#xc3;" horiz-adv-x="766" d="M-45 -5Q-56 -5 -62 -2T-67 12Q-65 22 -58 27T-40 34Q-22 38 3 46T52 67T93 98Q157 171 220 243T348 387T476 532Q495 553 507 574T528 610T543 625Q569 625 595 629T640 644Q657 653 672 662T697 672Q708 672 709
652T706 606L608 112Q602 81 617 63T671 34Q682 31 689 28T697 13Q697 6 686 2T666 -2Q645 -2 617 -1T559 1T507 2Q487 2 458 1T399 -1T347 -3Q327 -3 329 12Q330 21 338 26T356 34Q379 39 395 46T421 66T436 97L466 219Q468 227 465 231T453 236H292Q284 236 278
231T266 219L204 140Q179 108 174 87T181 54T222 34Q231 32 239 27T247 12Q246 5 236 2T215 -2Q182 -2 152 -1T91 1Q62 1 25 -2T-45 -5ZM342 284H465Q473 284 477 286T482 295L529 514Q531 520 531 525T528 530Q527 530 523 528T516 523L332 302Q323 292 324 288T342
284ZM532 691Q527 691 520 697T513 707Q513 713 522 729T544 765T570 797T590 811Q609 811 631 810T676 807Q695 806 717 805T764 804Q775 804 783 810T799 824Q807 832 811 839T819 846Q824 846 833 839T842 827Q842 823 838 816T824 796Q813 780 804 765T785
735Q779 726 770 724T754 721Q745 721 721 723T668 727T613 731T579 733Q571 733 564 727T550 712Q544 704 539 698T532 691Z" />
<glyph unicode="&#xc4;" horiz-adv-x="766" d="M-45 -5Q-56 -5 -62 -2T-67 12Q-65 22 -58 27T-40 34Q-22 38 3 46T52 67T93 98Q157 171 220 243T348 387T476 532Q495 553 507 574T528 610T543 625Q569 625 595 629T640 644Q657 653 672 662T697 672Q708 672 709
652T706 606L608 112Q602 81 617 63T671 34Q682 31 689 28T697 13Q697 6 686 2T666 -2Q645 -2 617 -1T559 1T507 2Q487 2 458 1T399 -1T347 -3Q327 -3 329 12Q330 21 338 26T356 34Q379 39 395 46T421 66T436 97L466 219Q468 227 465 231T453 236H292Q284 236 278
231T266 219L204 140Q179 108 174 87T181 54T222 34Q231 32 239 27T247 12Q246 5 236 2T215 -2Q182 -2 152 -1T91 1Q62 1 25 -2T-45 -5ZM342 284H465Q473 284 477 286T482 295L529 514Q531 520 531 525T528 530Q527 530 523 528T516 523L332 302Q323 292 324 288T342
284ZM763 686Q736 686 718 704T699 746Q699 783 727 811T800 839Q828 839 845 819T863 773Q863 750 849 730T813 698T763 686ZM565 686Q537 686 519 704T501 746Q501 784 530 811T602 839Q629 839 646 819T664 773Q664 739 635 713T565 686Z" />
<glyph unicode="&#xc5;" horiz-adv-x="766" d="M-45 -5Q-56 -5 -62 -2T-67 12Q-65 22 -58 27T-40 34Q-22 38 3 46T52 67T93 98Q157 171 220 243T348 387T476 532Q495 553 507 574T528 610T543 625Q569 625 595 629T640 644Q657 653 672 662T697 672Q708 672 709
652T706 606L608 112Q602 81 617 63T671 34Q682 31 689 28T697 13Q697 6 686 2T666 -2Q645 -2 617 -1T559 1T507 2Q487 2 458 1T399 -1T347 -3Q327 -3 329 12Q330 21 338 26T356 34Q379 39 395 46T421 66T436 97L466 219Q468 227 465 231T453 236H292Q284 236 278
231T266 219L204 140Q179 108 174 87T181 54T222 34Q231 32 239 27T247 12Q246 5 236 2T215 -2Q182 -2 152 -1T91 1Q62 1 25 -2T-45 -5ZM342 284H465Q473 284 477 286T482 295L529 514Q531 520 531 525T528 530Q527 530 523 528T516 523L332 302Q323 292 324 288T342
284ZM653 695Q615 695 584 712T553 760Q553 810 593 839T692 869Q716 869 739 862T778 839T793 803Q793 752 753 724T653 695ZM666 728Q695 728 710 750T725 796Q725 812 712 822T681 832Q652 832 636 811T619 765Q619 749 633 739T666 728Z" />
<glyph unicode="&#xc6;" horiz-adv-x="913" d="M-46 -5Q-57 -5 -63 -2T-67 12Q-64 22 -56 26T-38 34Q-6 43 22 60T69 98L522 599Q526 604 525 607T519 612L474 620Q453 624 453 639Q453 647 461 651T482 655Q504 655 537 654T602 652T655 650Q686 650 720 650T788
649Q842 649 877 652T933 659T966 663Q974 663 980 659T985 642Q982 612 977 574T963 508Q960 498 954 493T943 488Q938 488 934 492T928 505Q926 532 923 549T913 579Q906 591 890 602T846 613H769Q741 613 726 596T705 557Q698 530 690 499T673 437T657 379Q653
366 658 361T675 355Q696 355 717 355T760 355Q786 355 804 374T838 417Q845 426 852 430T865 435Q870 435 872 429T870 412Q861 390 854 370T839 329Q833 309 828 289T818 246Q814 231 809 225T799 218Q792 218 787 225T782 242Q784 274 777 292T750 311Q727 311
703 311T656 311Q645 311 638 305T627 288Q614 245 599 192T571 95Q563 67 571 56T605 44H692Q712 44 733 49T772 67Q794 81 813 103T849 148Q855 156 860 158T872 160Q878 160 881 156T882 145Q876 127 863 102T835 51T808 8Q804 1 796 -1T780 -4Q775 -4 741 -4T657
-2T553 -1T453 0Q433 0 407 -1T354 -3T308 -5Q299 -5 296 0T294 11Q298 26 320 32Q356 42 373 53T400 95Q411 130 423 168T446 241Q448 247 447 253T435 259H302Q294 259 287 256T271 242Q255 222 235 197T198 149T169 109Q153 85 152 71T164 48T203 34Q212 32
216 27T218 12Q216 5 210 2T193 -2Q160 -2 130 -1T70 1Q41 1 14 -2T-46 -5ZM349 307H452Q461 307 465 311T471 320L528 526Q529 530 529 533T525 537Q521 537 516 531L339 325Q329 314 334 311T349 307Z" />
<glyph unicode="&#xc7;" horiz-adv-x="673" d="M314 -14Q259 -14 212 6T130 63T76 147T57 253Q57 343 92 418T190 548T335 633T513 664Q548 664 575 658T622 644Q641 638 652 635T675 631Q682 631 688 632T701 637Q709 642 716 645T731 648Q741 648 743 642T739
624Q726 607 711 576T684 512T663 452Q660 442 655 436T639 429Q629 429 625 443T622 481Q624 503 618 525T599 567Q583 593 560 610T511 627Q458 627 413 599T334 523T275 416T238 295T225 176Q225 139 233 111T257 64T297 36T353 27Q392 27 429 44T503 95T573
172Q581 183 586 191T599 199Q607 199 612 191T615 172Q608 147 597 116T573 56T549 10T530 -9Q520 -9 515 -6T504 2Q498 6 490 8T465 11Q453 11 439 8T408 -1Q390 -5 367 -9T314 -14ZM239 -281Q214 -281 193 -271T159 -245T146 -215Q146 -176 177 -176Q192 -176
205 -184T232 -203Q247 -215 256 -223T278 -231Q287 -231 291 -226T296 -212Q296 -198 286 -190T264 -169Q252 -158 240 -142T227 -113Q227 -96 247 -72T298 -24T357 17H398Q361 -9 348 -26T334 -57Q334 -67 344 -78T367 -100Q381 -113 390 -125T399 -150Q399 -166
384 -188T344 -231T292 -267T239 -281Z" />
<glyph unicode="&#xc8;" horiz-adv-x="572" d="M-45 -5Q-54 -5 -57 0T-59 11Q-55 26 -33 32Q3 43 20 53T47 95L188 551Q198 583 190 596T149 618Q138 621 134 627T132 639Q134 646 144 650T176 655Q190 655 212 654T258 651T302 649L468 650Q511 650 538 653T580
660T602 663Q610 663 616 658T622 641Q622 628 616 605T603 556T596 509Q596 499 591 494T580 489Q576 489 571 493T564 506Q557 564 543 589T491 614H423Q398 614 381 598T350 532L306 379Q302 366 307 361T324 355H408Q434 355 453 372T488 417Q493 426 501 430T515
435Q520 435 522 429T520 412Q511 390 503 370T489 329Q483 309 478 289T468 246Q464 231 459 225T449 218Q442 218 437 225T432 242Q434 274 428 292T402 311H305Q294 311 287 305T276 288L226 115Q215 78 227 58T280 38H352Q372 38 393 45T432 64Q454 78 473
106T511 163Q516 171 519 173T529 175Q535 175 537 170T540 152Q540 141 532 115T510 58T482 8Q477 1 470 -1T454 -4Q450 -4 424 -4T359 -3T273 -2T182 -1T100 0Q80 0 54 -1T1 -3T-45 -5ZM448 693Q445 693 438 693T420 698Q377 718 330 741T241 785Q223 794 220
806Q218 814 232 823T265 841T290 851Q311 857 326 843Q359 813 386 782T446 724Q460 713 460 703Q460 693 448 693Z" />
<glyph unicode="&#xc9;" horiz-adv-x="572" d="M-45 -5Q-54 -5 -57 0T-59 11Q-55 26 -33 32Q3 43 20 53T47 95L188 551Q198 583 190 596T149 618Q138 621 134 627T132 639Q134 646 144 650T176 655Q190 655 212 654T258 651T302 649L468 650Q511 650 538 653T580
660T602 663Q610 663 616 658T622 641Q622 628 616 605T603 556T596 509Q596 499 591 494T580 489Q576 489 571 493T564 506Q557 564 543 589T491 614H423Q398 614 381 598T350 532L306 379Q302 366 307 361T324 355H408Q434 355 453 372T488 417Q493 426 501 430T515
435Q520 435 522 429T520 412Q511 390 503 370T489 329Q483 309 478 289T468 246Q464 231 459 225T449 218Q442 218 437 225T432 242Q434 274 428 292T402 311H305Q294 311 287 305T276 288L226 115Q215 78 227 58T280 38H352Q372 38 393 45T432 64Q454 78 473
106T511 163Q516 171 519 173T529 175Q535 175 537 170T540 152Q540 141 532 115T510 58T482 8Q477 1 470 -1T454 -4Q450 -4 424 -4T359 -3T273 -2T182 -1T100 0Q80 0 54 -1T1 -3T-45 -5ZM360 681Q348 681 346 689Q345 696 355 712Q378 749 401 782T453 850Q465
865 487 865Q495 865 514 861T550 849T565 832Q564 820 547 808Q509 780 467 749T386 691Q377 685 370 683T360 681Z" />
<glyph unicode="&#xca;" horiz-adv-x="572" d="M-45 -5Q-54 -5 -57 0T-59 11Q-55 26 -33 32Q3 43 20 53T47 95L188 551Q198 583 190 596T149 618Q138 621 134 627T132 639Q134 646 144 650T176 655Q190 655 212 654T258 651T302 649L468 650Q511 650 538 653T580
660T602 663Q610 663 616 658T622 641Q622 628 616 605T603 556T596 509Q596 499 591 494T580 489Q576 489 571 493T564 506Q557 564 543 589T491 614H423Q398 614 381 598T350 532L306 379Q302 366 307 361T324 355H408Q434 355 453 372T488 417Q493 426 501 430T515
435Q520 435 522 429T520 412Q511 390 503 370T489 329Q483 309 478 289T468 246Q464 231 459 225T449 218Q442 218 437 225T432 242Q434 274 428 292T402 311H305Q294 311 287 305T276 288L226 115Q215 78 227 58T280 38H352Q372 38 393 45T432 64Q454 78 473
106T511 163Q516 171 519 173T529 175Q535 175 537 170T540 152Q540 141 532 115T510 58T482 8Q477 1 470 -1T454 -4Q450 -4 424 -4T359 -3T273 -2T182 -1T100 0Q80 0 54 -1T1 -3T-45 -5ZM257 692Q236 692 241 705Q244 713 255 721L388 817Q411 834 423 840T449
847Q464 847 472 841T493 817L571 722Q575 718 575 714T574 705Q571 691 553 691Q544 691 523 700T478 720T439 740Q427 747 413 740Q399 734 377 726T332 710T288 697T257 692Z" />
<glyph unicode="&#xcb;" horiz-adv-x="572" d="M-45 -5Q-54 -5 -57 0T-59 11Q-55 26 -33 32Q3 43 20 53T47 95L188 551Q198 583 190 596T149 618Q138 621 134 627T132 639Q134 646 144 650T176 655Q190 655 212 654T258 651T302 649L468 650Q511 650 538 653T580
660T602 663Q610 663 616 658T622 641Q622 628 616 605T603 556T596 509Q596 499 591 494T580 489Q576 489 571 493T564 506Q557 564 543 589T491 614H423Q398 614 381 598T350 532L306 379Q302 366 307 361T324 355H408Q434 355 453 372T488 417Q493 426 501 430T515
435Q520 435 522 429T520 412Q511 390 503 370T489 329Q483 309 478 289T468 246Q464 231 459 225T449 218Q442 218 437 225T432 242Q434 274 428 292T402 311H305Q294 311 287 305T276 288L226 115Q215 78 227 58T280 38H352Q372 38 393 45T432 64Q454 78 473
106T511 163Q516 171 519 173T529 175Q535 175 537 170T540 152Q540 141 532 115T510 58T482 8Q477 1 470 -1T454 -4Q450 -4 424 -4T359 -3T273 -2T182 -1T100 0Q80 0 54 -1T1 -3T-45 -5ZM508 686Q481 686 463 704T444 746Q444 783 472 811T545 839Q573 839 590
819T608 773Q608 750 594 730T558 698T508 686ZM310 686Q282 686 264 704T246 746Q246 784 275 811T347 839Q374 839 391 819T409 773Q409 739 380 713T310 686Z" />
<glyph unicode="&#xcc;" horiz-adv-x="381" d="M-33 -3Q-39 -3 -43 1T-46 12Q-40 29 -20 34Q21 43 38 54T65 97L206 551Q216 583 207 595T160 618Q152 620 149 625T148 640Q150 647 157 651T171 655Q193 655 220 654T273 652T319 650Q339 650 367 651T425 653T476
654Q492 654 487 639Q484 629 478 625T461 618Q431 610 415 602T390 582T375 550L249 142Q237 102 234 82T240 54T272 39Q295 33 301 28T305 13Q303 6 298 2T284 -2Q263 -2 232 -1T170 1T119 2Q89 2 45 0T-33 -3ZM376 693Q373 693 366 693T348 698Q305 718 258
741T169 785Q151 794 148 806Q146 814 160 823T193 841T218 851Q239 857 254 843Q287 813 314 782T374 724Q388 713 388 703Q388 693 376 693Z" />
<glyph unicode="&#xcd;" horiz-adv-x="381" d="M-33 -3Q-39 -3 -43 1T-46 12Q-40 29 -20 34Q21 43 38 54T65 97L206 551Q216 583 207 595T160 618Q152 620 149 625T148 640Q150 647 157 651T171 655Q193 655 220 654T273 652T319 650Q339 650 367 651T425 653T476
654Q492 654 487 639Q484 629 478 625T461 618Q431 610 415 602T390 582T375 550L249 142Q237 102 234 82T240 54T272 39Q295 33 301 28T305 13Q303 6 298 2T284 -2Q263 -2 232 -1T170 1T119 2Q89 2 45 0T-33 -3ZM288 681Q276 681 274 689Q273 696 283 712Q306
749 329 782T381 850Q393 865 415 865Q423 865 442 861T478 849T493 832Q492 820 475 808Q437 780 395 749T314 691Q305 685 298 683T288 681Z" />
<glyph unicode="&#xce;" horiz-adv-x="381" d="M-33 -3Q-39 -3 -43 1T-46 12Q-40 29 -20 34Q21 43 38 54T65 97L206 551Q216 583 207 595T160 618Q152 620 149 625T148 640Q150 647 157 651T171 655Q193 655 220 654T273 652T319 650Q339 650 367 651T425 653T476
654Q492 654 487 639Q484 629 478 625T461 618Q431 610 415 602T390 582T375 550L249 142Q237 102 234 82T240 54T272 39Q295 33 301 28T305 13Q303 6 298 2T284 -2Q263 -2 232 -1T170 1T119 2Q89 2 45 0T-33 -3ZM185 692Q164 692 169 705Q172 713 183 721L316
817Q339 834 351 840T377 847Q392 847 400 841T421 817L499 722Q503 718 503 714T502 705Q499 691 481 691Q472 691 451 700T406 720T367 740Q355 747 341 740Q327 734 305 726T260 710T216 697T185 692Z" />
<glyph unicode="&#xcf;" horiz-adv-x="381" d="M-33 -3Q-39 -3 -43 1T-46 12Q-40 29 -20 34Q21 43 38 54T65 97L206 551Q216 583 207 595T160 618Q152 620 149 625T148 640Q150 647 157 651T171 655Q193 655 220 654T273 652T319 650Q339 650 367 651T425 653T476
654Q492 654 487 639Q484 629 478 625T461 618Q431 610 415 602T390 582T375 550L249 142Q237 102 234 82T240 54T272 39Q295 33 301 28T305 13Q303 6 298 2T284 -2Q263 -2 232 -1T170 1T119 2Q89 2 45 0T-33 -3ZM436 686Q409 686 391 704T372 746Q372 783 400
811T473 839Q501 839 518 819T536 773Q536 750 522 730T486 698T436 686ZM238 686Q210 686 192 704T174 746Q174 784 203 811T275 839Q302 839 319 819T337 773Q337 739 308 713T238 686Z" />
<glyph unicode="&#xd0;" horiz-adv-x="729" d="M58 304Q45 304 43 314T44 335Q48 349 58 357T82 366H383Q393 366 399 360T401 347Q391 328 375 316T344 304H58ZM303 -7Q263 -7 223 -4T151 1T106 4Q86 4 59 3T3 -1T-48 -3Q-54 -3 -58 1T-61 12Q-55 29 -35 34Q-8
40 8 46T34 65T50 97L191 551Q197 574 195 586T181 605T145 618Q137 620 134 625T133 640Q135 647 142 651T156 655Q189 655 231 653T304 650Q324 650 345 651T392 653T454 654Q548 654 612 617T709 519T742 385Q742 306 708 236T613 111T473 25T303 -7ZM302 31Q352
31 399 63T485 149T545 269T568 402Q568 481 551 527T504 594T434 615Q415 615 401 611T379 598T365 572L230 119Q220 86 230 67T262 39T302 31Z" />
<glyph unicode="&#xd1;" horiz-adv-x="783" d="M3 -3Q-3 -3 -10 1T-15 12Q-12 21 -3 25T16 33Q46 41 66 61T100 115L251 510Q265 547 260 570T231 605T168 620Q155 622 148 627T141 642Q141 648 152 653T174 658Q195 658 229 657T302 655T372 653Q386 653 394
648T408 631L599 199Q601 195 603 191T609 187Q616 187 621 201Q624 208 628 222T639 258T653 305T669 362T684 424T698 490Q712 558 694 584T620 621Q603 624 604 636Q605 643 614 647T630 651Q671 651 701 648T745 645Q765 645 783 647T823 650T869 652Q888 652
888 637Q888 630 877 626T854 619Q830 614 813 605T783 572T755 505Q749 485 742 461T726 408T708 350T689 287T670 223T650 158Q640 127 641 110T656 69Q661 62 666 52T679 34Q687 27 692 24T698 16Q698 6 693 3T676 0Q647 0 628 -2T594 -5T558 -8Q527 -9 512
6T485 52Q479 68 463 106T427 194T385 295T345 390T316 460T305 486Q304 488 302 492T297 496Q293 496 290 489T284 477Q271 445 253 398T217 298T185 197T162 113Q154 75 166 60T220 34Q228 32 235 28T240 13Q238 6 229 2T211 -2Q184 -2 169 -1T142 0T115 1Q92
1 66 0T22 -2T3 -3ZM409 691Q404 691 397 697T390 707Q390 713 399 729T421 765T447 797T467 811Q486 811 508 810T553 807Q572 806 594 805T641 804Q652 804 660 810T676 824Q684 832 688 839T696 846Q701 846 710 839T719 827Q719 823 715 816T701 796Q690 780
681 765T662 735Q656 726 647 724T631 721Q622 721 598 723T545 727T490 731T456 733Q448 733 441 727T427 712Q421 704 416 698T409 691Z" />
<glyph unicode="&#xd2;" horiz-adv-x="692" d="M292 -14Q225 -14 171 18T85 108T53 242Q53 325 85 401T175 536T308 629T470 664Q537 664 591 632T678 543T710 408Q710 326 677 250T587 115T454 21T292 -14ZM291 25Q332 25 371 55T444 136T504 247T544 366T559
473Q559 515 550 550T520 607T469 629Q428 629 389 598T317 516T258 405T218 284T203 176Q203 135 212 101T240 46T291 25ZM550 693Q547 693 540 693T522 698Q479 718 432 741T343 785Q325 794 322 806Q320 814 334 823T367 841T392 851Q413 857 428 843Q461 813
488 782T548 724Q562 713 562 703Q562 693 550 693Z" />
<glyph unicode="&#xd3;" horiz-adv-x="692" d="M292 -14Q225 -14 171 18T85 108T53 242Q53 325 85 401T175 536T308 629T470 664Q537 664 591 632T678 543T710 408Q710 326 677 250T587 115T454 21T292 -14ZM291 25Q332 25 371 55T444 136T504 247T544 366T559
473Q559 515 550 550T520 607T469 629Q428 629 389 598T317 516T258 405T218 284T203 176Q203 135 212 101T240 46T291 25ZM462 681Q450 681 448 689Q447 696 457 712Q480 749 503 782T555 850Q567 865 589 865Q597 865 616 861T652 849T667 832Q666 820 649 808Q611
780 569 749T488 691Q479 685 472 683T462 681Z" />
<glyph unicode="&#xd4;" horiz-adv-x="692" d="M292 -14Q225 -14 171 18T85 108T53 242Q53 325 85 401T175 536T308 629T470 664Q537 664 591 632T678 543T710 408Q710 326 677 250T587 115T454 21T292 -14ZM291 25Q332 25 371 55T444 136T504 247T544 366T559
473Q559 515 550 550T520 607T469 629Q428 629 389 598T317 516T258 405T218 284T203 176Q203 135 212 101T240 46T291 25ZM359 692Q338 692 343 705Q346 713 357 721L490 817Q513 834 525 840T551 847Q566 847 574 841T595 817L673 722Q677 718 677 714T676 705Q673
691 655 691Q646 691 625 700T580 720T541 740Q529 747 515 740Q501 734 479 726T434 710T390 697T359 692Z" />
<glyph unicode="&#xd5;" horiz-adv-x="692" d="M292 -14Q225 -14 171 18T85 108T53 242Q53 325 85 401T175 536T308 629T470 664Q537 664 591 632T678 543T710 408Q710 326 677 250T587 115T454 21T292 -14ZM291 25Q332 25 371 55T444 136T504 247T544 366T559
473Q559 515 550 550T520 607T469 629Q428 629 389 598T317 516T258 405T218 284T203 176Q203 135 212 101T240 46T291 25ZM379 691Q374 691 367 697T360 707Q360 713 369 729T391 765T417 797T437 811Q456 811 478 810T523 807Q542 806 564 805T611 804Q622 804
630 810T646 824Q654 832 658 839T666 846Q671 846 680 839T689 827Q689 823 685 816T671 796Q660 780 651 765T632 735Q626 726 617 724T601 721Q592 721 568 723T515 727T460 731T426 733Q418 733 411 727T397 712Q391 704 386 698T379 691Z" />
<glyph unicode="&#xd6;" horiz-adv-x="692" d="M292 -14Q225 -14 171 18T85 108T53 242Q53 325 85 401T175 536T308 629T470 664Q537 664 591 632T678 543T710 408Q710 326 677 250T587 115T454 21T292 -14ZM291 25Q332 25 371 55T444 136T504 247T544 366T559
473Q559 515 550 550T520 607T469 629Q428 629 389 598T317 516T258 405T218 284T203 176Q203 135 212 101T240 46T291 25ZM610 686Q583 686 565 704T546 746Q546 783 574 811T647 839Q675 839 692 819T710 773Q710 750 696 730T660 698T610 686ZM412 686Q384 686
366 704T348 746Q348 784 377 811T449 839Q476 839 493 819T511 773Q511 739 482 713T412 686Z" />
<glyph unicode="&#xd7;" horiz-adv-x="568" d="M464 49Q454 49 445 58L303 199Q294 208 284 198L150 63Q146 59 141 57T131 54Q124 54 116 68T107 98Q107 110 113 116L240 242Q246 248 246 252T240 262L109 395Q103 401 103 409Q103 421 110 433T123 451Q127 455
134 454T145 448L285 306Q290 302 294 302T303 306L445 448Q451 454 458 454Q464 454 467 451Q473 445 480 433T487 409Q487 401 481 395L348 261Q339 252 348 243L482 111Q489 104 489 92Q489 82 482 66T464 49Z" />
<glyph unicode="&#xd8;" horiz-adv-x="692" d="M18 -14Q-1 -14 -13 0T-26 27Q-26 50 -8 63L116 162L172 199L581 537L623 562L737 652Q745 658 752 661T765 664Q778 664 786 654T794 629Q794 601 777 587L667 499L592 446L183 103L144 79L43 -4Q37 -9 31 -11T18
-14ZM292 -14Q225 -14 171 18T85 108T53 242Q53 325 85 401T175 536T308 629T470 664Q537 664 591 632T678 543T710 408Q710 326 677 250T587 115T454 21T292 -14ZM291 25Q332 25 371 55T444 136T504 247T544 366T559 473Q559 515 550 550T520 607T469 629Q428
629 389 598T317 516T258 405T218 284T203 176Q203 135 212 101T240 46T291 25Z" />
<glyph unicode="&#xd9;" horiz-adv-x="715" d="M318 -14Q250 -14 201 6T124 62T89 148T101 256L188 536Q196 562 191 586T161 618Q137 625 141 640Q143 647 152 651T172 655Q205 655 241 653T307 650Q336 650 380 652T455 654Q482 654 477 639Q473 627 455 622T418
608Q400 601 384 583T357 530L262 237Q246 188 257 150T299 90T368 68Q419 68 462 94T538 164T588 260Q604 305 615 342T635 405T646 445Q660 504 661 537T654 588T632 614Q622 620 608 624T596 639Q598 647 607 650T630 654Q656 654 671 653T700 652T731 651Q750
651 762 652T786 654T820 655Q831 655 837 652T840 640Q836 626 807 618Q782 612 766 602T740 575T721 534Q696 461 676 395T633 257Q608 176 567 115T465 20T318 -14ZM592 693Q589 693 582 693T564 698Q521 718 474 741T385 785Q367 794 364 806Q362 814 376 823T409
841T434 851Q455 857 470 843Q503 813 530 782T590 724Q604 713 604 703Q604 693 592 693Z" />
<glyph unicode="&#xda;" horiz-adv-x="715" d="M318 -14Q250 -14 201 6T124 62T89 148T101 256L188 536Q196 562 191 586T161 618Q137 625 141 640Q143 647 152 651T172 655Q205 655 241 653T307 650Q336 650 380 652T455 654Q482 654 477 639Q473 627 455 622T418
608Q400 601 384 583T357 530L262 237Q246 188 257 150T299 90T368 68Q419 68 462 94T538 164T588 260Q604 305 615 342T635 405T646 445Q660 504 661 537T654 588T632 614Q622 620 608 624T596 639Q598 647 607 650T630 654Q656 654 671 653T700 652T731 651Q750
651 762 652T786 654T820 655Q831 655 837 652T840 640Q836 626 807 618Q782 612 766 602T740 575T721 534Q696 461 676 395T633 257Q608 176 567 115T465 20T318 -14ZM504 681Q492 681 490 689Q489 696 499 712Q522 749 545 782T597 850Q609 865 631 865Q639 865
658 861T694 849T709 832Q708 820 691 808Q653 780 611 749T530 691Q521 685 514 683T504 681Z" />
<glyph unicode="&#xdb;" horiz-adv-x="715" d="M318 -14Q250 -14 201 6T124 62T89 148T101 256L188 536Q196 562 191 586T161 618Q137 625 141 640Q143 647 152 651T172 655Q205 655 241 653T307 650Q336 650 380 652T455 654Q482 654 477 639Q473 627 455 622T418
608Q400 601 384 583T357 530L262 237Q246 188 257 150T299 90T368 68Q419 68 462 94T538 164T588 260Q604 305 615 342T635 405T646 445Q660 504 661 537T654 588T632 614Q622 620 608 624T596 639Q598 647 607 650T630 654Q656 654 671 653T700 652T731 651Q750
651 762 652T786 654T820 655Q831 655 837 652T840 640Q836 626 807 618Q782 612 766 602T740 575T721 534Q696 461 676 395T633 257Q608 176 567 115T465 20T318 -14ZM401 692Q380 692 385 705Q388 713 399 721L532 817Q555 834 567 840T593 847Q608 847 616 841T637
817L715 722Q719 718 719 714T718 705Q715 691 697 691Q688 691 667 700T622 720T583 740Q571 747 557 740Q543 734 521 726T476 710T432 697T401 692Z" />
<glyph unicode="&#xdc;" horiz-adv-x="715" d="M318 -14Q250 -14 201 6T124 62T89 148T101 256L188 536Q196 562 191 586T161 618Q137 625 141 640Q143 647 152 651T172 655Q205 655 241 653T307 650Q336 650 380 652T455 654Q482 654 477 639Q473 627 455 622T418
608Q400 601 384 583T357 530L262 237Q246 188 257 150T299 90T368 68Q419 68 462 94T538 164T588 260Q604 305 615 342T635 405T646 445Q660 504 661 537T654 588T632 614Q622 620 608 624T596 639Q598 647 607 650T630 654Q656 654 671 653T700 652T731 651Q750
651 762 652T786 654T820 655Q831 655 837 652T840 640Q836 626 807 618Q782 612 766 602T740 575T721 534Q696 461 676 395T633 257Q608 176 567 115T465 20T318 -14ZM652 686Q625 686 607 704T588 746Q588 783 616 811T689 839Q717 839 734 819T752 773Q752 750
738 730T702 698T652 686ZM454 686Q426 686 408 704T390 746Q390 784 419 811T491 839Q518 839 535 819T553 773Q553 739 524 713T454 686Z" />
<glyph unicode="&#xdd;" horiz-adv-x="669" d="M119 -6Q106 -6 101 -1T97 11Q99 20 110 25T132 33Q173 41 193 60T222 110L264 246Q274 276 274 300T265 353L204 554Q197 574 187 590T158 613Q139 620 132 624T128 639Q130 647 137 650T152 654Q199 654 235 651T316
648Q345 648 377 651T446 655Q454 655 462 651T468 640Q466 631 455 626T434 618Q385 607 372 591T365 543L407 356Q411 341 414 337T421 333Q425 333 430 337T442 350Q476 391 513 439T587 532Q614 564 613 587T568 618Q558 620 550 625T544 640Q546 647 557 650T578
654Q601 654 624 652T676 649Q707 649 732 653T788 657Q799 657 807 654T812 640Q809 630 800 627T780 620Q759 615 738 606T700 585T670 559Q640 524 611 491T553 425T493 358Q475 339 462 315T438 259L393 111Q381 73 390 59T434 33Q445 30 452 26T457 12Q455
5 446 0T426 -5Q405 -5 377 -3T320 1T272 3Q252 3 225 1T169 -3T119 -6ZM468 681Q456 681 454 689Q453 696 463 712Q486 749 509 782T561 850Q573 865 595 865Q603 865 622 861T658 849T673 832Q672 820 655 808Q617 780 575 749T494 691Q485 685 478 683T468 681Z"
/>
<glyph unicode="&#xde;" horiz-adv-x="629" d="M-33 -3Q-39 -3 -43 1T-46 12Q-40 29 -20 34Q21 43 38 54T65 97L206 551Q216 583 207 595T160 618Q152 620 149 625T148 640Q150 647 157 651T171 655Q193 655 220 654T273 652T319 650Q339 650 367 651T425 653T476
654Q492 654 487 639Q484 629 478 625T461 618Q431 610 415 602T390 582T375 550L369 529L288 551Q312 553 346 555T420 558Q490 558 539 533T615 463T638 360Q636 312 612 270T547 197T450 147T330 129Q303 129 293 135T283 153Q283 160 289 164T305 169Q315 171
323 172T345 174Q385 179 412 201T457 253T481 314T489 367Q489 425 476 457T441 502T399 515Q386 515 377 509T358 484T336 425L235 98Q227 70 236 59T281 34Q289 31 292 27T293 13Q291 6 286 2T272 -2Q251 -2 223 -1T167 1T119 2Q89 2 45 0T-33 -3Z" />
<glyph unicode="&#xdf;" horiz-adv-x="580" d="M-92 -291Q-123 -291 -152 -285T-200 -261T-219 -215Q-219 -188 -202 -169T-165 -149Q-155 -149 -145 -160T-125 -185Q-113 -201 -100 -221T-68 -242Q-43 -242 -29 -213T3 -110Q11 -77 18 -45T34 21T49 87T65 153Q76
201 88 249T111 347Q142 477 206 555T357 670T537 706Q617 706 652 684T688 623Q688 595 674 573T636 531T588 496T540 466Q515 449 492 433T455 399T441 357Q441 342 449 324T468 286T488 248Q502 221 518 193T534 138Q534 117 515 88T463 32Q438 13 407 0T342
-14Q298 -14 269 5T240 56Q240 79 252 99T284 119Q296 119 308 108T328 83Q340 67 352 51T380 34Q394 34 403 44T413 69Q413 90 403 114T376 161Q357 189 343 217T329 273Q329 315 346 347T389 404T442 451Q470 474 492 494T531 533T555 572T564 614Q564 638 550
653T501 669Q459 669 423 650T357 594T305 506T268 391Q256 337 241 271T211 138T183 17Q168 -52 139 -108T72 -206T-8 -269T-92 -291Z" />
<glyph unicode="&#xe0;" horiz-adv-x="552" d="M348 469Q341 469 333 474T317 486L206 609Q196 620 190 630T183 650Q183 660 194 672T220 693T246 702Q258 702 267 694T285 665L358 503Q363 492 362 481T348 469ZM36 -14Q22 -14 7 -6T-18 14T-28 38Q-28 67 -12
101T46 188T160 325Q201 372 240 402T298 432Q327 432 364 403Q369 398 370 397T373 396Q375 396 375 396T379 403Q385 415 388 421T394 435Q399 447 421 447Q438 447 457 439T489 420T503 399Q503 393 502 392L405 126Q397 102 415 102Q425 102 448 119T497 161Q500
164 500 164T501 164Q506 164 510 159T514 147Q514 131 494 106T441 53Q403 22 367 4T307 -14Q291 -14 274 -5T246 17T235 44Q235 50 240 67Q243 76 247 86T255 106T263 126T272 146Q274 150 270 152T264 152Q215 95 174 58T99 4T36 -14ZM152 101Q168 101 203 131T274
206Q305 244 323 273T341 315Q341 324 319 342Q309 350 298 355T280 361Q265 361 239 343T190 302Q172 284 157 256T132 196T122 137Q122 120 130 111T152 101Z" />
<glyph unicode="&#xe1;" horiz-adv-x="552" d="M36 -14Q22 -14 7 -6T-18 14T-28 38Q-28 67 -12 101T46 188T160 325Q201 372 240 402T298 432Q327 432 364 403Q369 398 370 397T373 396Q375 396 375 396T379 403Q385 415 388 421T394 435Q399 447 421 447Q438
447 457 439T489 420T503 399Q503 393 502 392L405 126Q397 102 415 102Q425 102 448 119T497 161Q500 164 500 164T501 164Q506 164 510 159T514 147Q514 131 494 106T441 53Q403 22 367 4T307 -14Q291 -14 274 -5T246 17T235 44Q235 50 240 67Q243 76 247 86T255
106T263 126T272 146Q274 150 270 152T264 152Q215 95 174 58T99 4T36 -14ZM152 101Q168 101 203 131T274 206Q305 244 323 273T341 315Q341 324 319 342Q309 350 298 355T280 361Q265 361 239 343T190 302Q172 284 157 256T132 196T122 137Q122 120 130 111T152
101ZM320 469Q307 469 306 480T310 503L383 665Q392 685 401 693T422 702Q433 702 448 693T474 672T485 650Q485 640 479 630T462 609L351 486Q344 479 336 474T320 469Z" />
<glyph unicode="&#xe2;" horiz-adv-x="552" d="M403 698Q413 698 418 688T429 655Q434 638 439 622T449 589T458 556T466 522Q470 504 465 491T444 477Q428 477 412 512Q406 525 397 542T374 579Q370 585 362 579Q339 559 317 541T281 511Q262 495 249 486T228
477Q217 477 217 490Q217 496 220 504T232 522Q251 545 271 567T311 612T351 657Q368 677 380 687T403 698ZM36 -14Q22 -14 7 -6T-18 14T-28 38Q-28 67 -12 101T46 188T160 325Q201 372 240 402T298 432Q327 432 364 403Q369 398 370 397T373 396Q375 396 375 396T379
403Q385 415 388 421T394 435Q399 447 421 447Q438 447 457 439T489 420T503 399Q503 393 502 392L405 126Q397 102 415 102Q425 102 448 119T497 161Q500 164 500 164T501 164Q506 164 510 159T514 147Q514 131 494 106T441 53Q403 22 367 4T307 -14Q291 -14 274
-5T246 17T235 44Q235 50 240 67Q243 76 247 86T255 106T263 126T272 146Q274 150 270 152T264 152Q215 95 174 58T99 4T36 -14ZM152 101Q168 101 203 131T274 206Q305 244 323 273T341 315Q341 324 319 342Q309 350 298 355T280 361Q265 361 239 343T190 302Q172
284 157 256T132 196T122 137Q122 120 130 111T152 101Z" />
<glyph unicode="&#xe3;" horiz-adv-x="552" d="M36 -14Q22 -14 7 -6T-18 14T-28 38Q-28 67 -12 101T46 188T160 325Q201 372 240 402T298 432Q327 432 364 403Q369 398 370 397T373 396Q375 396 375 396T379 403Q385 415 388 421T394 435Q399 447 421 447Q438
447 457 439T489 420T503 399Q503 393 502 392L405 126Q397 102 415 102Q425 102 448 119T497 161Q500 164 500 164T501 164Q506 164 510 159T514 147Q514 131 494 106T441 53Q403 22 367 4T307 -14Q291 -14 274 -5T246 17T235 44Q235 50 240 67Q243 76 247 86T255
106T263 126T272 146Q274 150 270 152T264 152Q215 95 174 58T99 4T36 -14ZM152 101Q168 101 203 131T274 206Q305 244 323 273T341 315Q341 324 319 342Q309 350 298 355T280 361Q265 361 239 343T190 302Q172 284 157 256T132 196T122 137Q122 120 130 111T152
101ZM218 467Q214 467 205 475T195 487Q195 493 207 511T236 550T268 587T290 603Q300 603 314 600T362 595Q385 594 404 593T432 591Q450 591 467 611Q477 623 481 629T490 636Q495 636 504 629T513 616Q513 612 507 604T492 583Q481 567 470 549T449 516Q443
507 434 505T418 502Q409 502 388 503T342 506T296 509T265 511Q254 511 246 500Q233 482 228 475T218 467Z" />
<glyph unicode="&#xe4;" horiz-adv-x="552" d="M36 -14Q22 -14 7 -6T-18 14T-28 38Q-28 67 -12 101T46 188T160 325Q201 372 240 402T298 432Q327 432 364 403Q369 398 370 397T373 396Q375 396 375 396T379 403Q385 415 388 421T394 435Q399 447 421 447Q438
447 457 439T489 420T503 399Q503 393 502 392L405 126Q397 102 415 102Q425 102 448 119T497 161Q500 164 500 164T501 164Q506 164 510 159T514 147Q514 131 494 106T441 53Q403 22 367 4T307 -14Q291 -14 274 -5T246 17T235 44Q235 50 240 67Q243 76 247 86T255
106T263 126T272 146Q274 150 270 152T264 152Q215 95 174 58T99 4T36 -14ZM152 101Q168 101 203 131T274 206Q305 244 323 273T341 315Q341 324 319 342Q309 350 298 355T280 361Q265 361 239 343T190 302Q172 284 157 256T132 196T122 137Q122 120 130 111T152
101ZM438 490Q413 490 398 506T383 548Q383 575 398 596T436 630T486 643Q514 643 529 628T545 586Q545 547 514 519T438 490ZM234 490Q209 490 194 506T179 548Q179 575 194 596T232 630T282 643Q310 643 325 628T341 586Q341 547 310 519T234 490Z" />
<glyph unicode="&#xe5;" horiz-adv-x="552" d="M36 -14Q22 -14 7 -6T-18 14T-28 38Q-28 67 -12 101T46 188T160 325Q201 372 240 402T298 432Q327 432 364 403Q369 398 370 397T373 396Q375 396 375 396T379 403Q385 415 388 421T394 435Q399 447 421 447Q438
447 457 439T489 420T503 399Q503 393 502 392L405 126Q397 102 415 102Q425 102 448 119T497 161Q500 164 500 164T501 164Q506 164 510 159T514 147Q514 131 494 106T441 53Q403 22 367 4T307 -14Q291 -14 274 -5T246 17T235 44Q235 50 240 67Q243 76 247 86T255
106T263 126T272 146Q274 150 270 152T264 152Q215 95 174 58T99 4T36 -14ZM152 101Q168 101 203 131T274 206Q305 244 323 273T341 315Q341 324 319 342Q309 350 298 355T280 361Q265 361 239 343T190 302Q172 284 157 256T132 196T122 137Q122 120 130 111T152
101ZM337 480Q303 480 276 497T249 546Q249 583 268 613T321 662T395 680Q429 680 456 663T483 613Q483 577 464 547T412 499T337 480ZM352 518Q370 518 384 532T407 566T416 601Q416 618 407 628T380 638Q362 638 348 625T324 593T315 558Q315 541 324 530T352
518Z" />
<glyph unicode="&#xe6;" horiz-adv-x="575" d="M35 -14Q24 -14 10 -8T-14 10T-25 39Q-25 89 4 142T83 245T194 335Q235 361 276 382T358 416T440 429L366 358Q325 357 289 347T210 306Q185 288 164 261T131 203T119 147Q119 121 127 111T146 101Q160 101 183 122T233
173L246 134Q200 82 165 49T99 1T35 -14ZM347 -15Q322 -15 293 2T243 50T222 124Q222 185 241 241T294 342T374 411T473 437Q528 437 552 414T577 359Q577 324 555 298T500 254T431 230T367 227Q359 228 359 218Q359 208 357 200T355 182Q355 148 376 121T427 93Q450
93 471 106T511 145Q522 157 527 157Q535 157 535 146Q535 143 535 139T532 131Q516 94 490 61T429 6T347 -15ZM375 262Q384 262 400 268T433 287T463 320T477 368Q477 379 473 389T456 399Q443 399 431 390T407 364T387 323T369 268Q368 262 375 262Z" />
<glyph unicode="&#xe7;" horiz-adv-x="378" d="M155 -14Q114 -14 81 5T29 57T10 129Q11 180 25 226T65 311T124 378T198 421T283 437Q324 437 350 419T376 371Q376 351 362 332T333 313Q325 313 319 319T301 345Q291 364 278 377T252 391Q231 391 212 374T178
329T153 265T143 191Q142 153 162 131T218 108Q244 108 268 120T309 155Q313 160 318 163T328 167Q338 167 338 156Q338 128 322 98T278 43T218 2T155 -14ZM52 -281Q27 -281 6 -271T-28 -245T-41 -215Q-41 -176 -10 -176Q5 -176 18 -184T45 -203Q60 -215 69 -223T91
-231Q100 -231 104 -226T109 -212Q109 -198 99 -190T77 -169Q65 -158 53 -142T40 -113Q40 -96 60 -72T111 -24T170 17H211Q174 -9 161 -26T147 -57Q147 -67 157 -78T180 -100Q194 -113 203 -125T212 -150Q212 -166 197 -188T157 -231T105 -267T52 -281Z" />
<glyph unicode="&#xe8;" horiz-adv-x="389" d="M310 469Q303 469 295 474T279 486L168 609Q158 620 152 630T145 650Q145 660 156 672T182 693T208 702Q220 702 229 694T247 665L320 503Q325 492 324 481T310 469ZM142 -15Q114 -15 82 1T28 46T5 111Q5 176 28
234T91 338T178 410T276 437Q339 437 366 414T394 359Q394 324 371 300T312 258T235 229T157 210Q153 209 151 207T148 201Q147 197 147 193T145 183Q144 148 164 121T226 93Q252 93 275 106T322 145Q333 157 339 157Q348 157 348 146Q348 143 348 139T345 131Q326
94 298 61T231 6T142 -15ZM164 248Q187 255 208 263T247 285T275 318T288 366Q289 377 282 388T260 399Q243 399 227 388T197 357T172 311T157 254Q156 246 164 248Z" />
<glyph unicode="&#xe9;" horiz-adv-x="389" d="M142 -15Q114 -15 82 1T28 46T5 111Q5 176 28 234T91 338T178 410T276 437Q339 437 366 414T394 359Q394 324 371 300T312 258T235 229T157 210Q153 209 151 207T148 201Q147 197 147 193T145 183Q144 148 164 121T226
93Q252 93 275 106T322 145Q333 157 339 157Q348 157 348 146Q348 143 348 139T345 131Q326 94 298 61T231 6T142 -15ZM164 248Q187 255 208 263T247 285T275 318T288 366Q289 377 282 388T260 399Q243 399 227 388T197 357T172 311T157 254Q156 246 164 248ZM282
469Q269 469 268 480T272 503L345 665Q354 685 363 693T384 702Q395 702 410 693T436 672T447 650Q447 640 441 630T424 609L313 486Q306 479 298 474T282 469Z" />
<glyph unicode="&#xea;" horiz-adv-x="389" d="M365 698Q375 698 380 688T391 655Q396 638 401 622T411 589T420 556T428 522Q432 504 427 491T406 477Q390 477 374 512Q368 525 359 542T336 579Q332 585 324 579Q301 559 279 541T243 511Q224 495 211 486T190
477Q179 477 179 490Q179 496 182 504T194 522Q213 545 233 567T273 612T313 657Q330 677 342 687T365 698ZM142 -15Q114 -15 82 1T28 46T5 111Q5 176 28 234T91 338T178 410T276 437Q339 437 366 414T394 359Q394 324 371 300T312 258T235 229T157 210Q153 209
151 207T148 201Q147 197 147 193T145 183Q144 148 164 121T226 93Q252 93 275 106T322 145Q333 157 339 157Q348 157 348 146Q348 143 348 139T345 131Q326 94 298 61T231 6T142 -15ZM164 248Q187 255 208 263T247 285T275 318T288 366Q289 377 282 388T260 399Q243
399 227 388T197 357T172 311T157 254Q156 246 164 248Z" />
<glyph unicode="&#xeb;" horiz-adv-x="389" d="M142 -15Q114 -15 82 1T28 46T5 111Q5 176 28 234T91 338T178 410T276 437Q339 437 366 414T394 359Q394 324 371 300T312 258T235 229T157 210Q153 209 151 207T148 201Q147 197 147 193T145 183Q144 148 164 121T226
93Q252 93 275 106T322 145Q333 157 339 157Q348 157 348 146Q348 143 348 139T345 131Q326 94 298 61T231 6T142 -15ZM164 248Q187 255 208 263T247 285T275 318T288 366Q289 377 282 388T260 399Q243 399 227 388T197 357T172 311T157 254Q156 246 164 248ZM400
490Q375 490 360 506T345 548Q345 575 360 596T398 630T448 643Q476 643 491 628T507 586Q507 547 476 519T400 490ZM196 490Q171 490 156 506T141 548Q141 575 156 596T194 630T244 643Q272 643 287 628T303 586Q303 547 272 519T196 490Z" />
<glyph unicode="&#xec;" horiz-adv-x="340" d="M279 466Q272 466 264 471T248 483L137 606Q127 617 121 627T114 647Q114 657 125 669T151 690T177 699Q189 699 198 691T216 662L289 500Q294 489 293 478T279 466ZM90 -14Q65 -14 45 5T25 44Q25 49 26 54T30 67Q56
126 80 186T129 304Q131 309 125 309Q117 309 107 305T87 294T65 281Q50 273 44 277T38 290Q38 298 52 313T90 347T139 384T188 415T226 434Q242 440 259 433T285 412T290 385L180 111Q179 108 179 105T178 99Q178 96 179 94T183 92Q190 92 209 103T249 130T283
159Q286 162 287 162Q293 162 297 157T301 146Q301 128 279 101T224 48T155 4T90 -14Z" />
<glyph unicode="&#xed;" horiz-adv-x="340" d="M90 -14Q65 -14 45 5T25 44Q25 49 26 54T30 67Q56 126 80 186T129 304Q131 309 125 309Q117 309 107 305T87 294T65 281Q50 273 44 277T38 290Q38 298 52 313T90 347T139 384T188 415T226 434Q242 440 259 433T285
412T290 385L180 111Q179 108 179 105T178 99Q178 96 179 94T183 92Q190 92 209 103T249 130T283 159Q286 162 287 162Q293 162 297 157T301 146Q301 128 279 101T224 48T155 4T90 -14ZM251 466Q238 466 237 477T241 500L314 662Q323 682 332 690T353 699Q364 699
379 690T405 669T416 647Q416 637 410 627T393 606L282 483Q275 476 267 471T251 466Z" />
<glyph unicode="&#xee;" horiz-adv-x="340" d="M334 695Q344 695 349 685T360 652Q365 635 370 619T380 586T389 553T397 519Q401 501 396 488T375 474Q359 474 343 509Q337 522 328 539T305 576Q301 582 293 576Q270 556 248 538T212 508Q193 492 180 483T159
474Q148 474 148 487Q148 493 151 501T163 519Q182 542 202 564T242 609T282 654Q299 674 311 684T334 695ZM90 -14Q65 -14 45 5T25 44Q25 49 26 54T30 67Q56 126 80 186T129 304Q131 309 125 309Q117 309 107 305T87 294T65 281Q50 273 44 277T38 290Q38 298 52
313T90 347T139 384T188 415T226 434Q242 440 259 433T285 412T290 385L180 111Q179 108 179 105T178 99Q178 96 179 94T183 92Q190 92 209 103T249 130T283 159Q286 162 287 162Q293 162 297 157T301 146Q301 128 279 101T224 48T155 4T90 -14Z" />
<glyph unicode="&#xef;" horiz-adv-x="340" d="M90 -14Q65 -14 45 5T25 44Q25 49 26 54T30 67Q56 126 80 186T129 304Q131 309 125 309Q117 309 107 305T87 294T65 281Q50 273 44 277T38 290Q38 298 52 313T90 347T139 384T188 415T226 434Q242 440 259 433T285
412T290 385L180 111Q179 108 179 105T178 99Q178 96 179 94T183 92Q190 92 209 103T249 130T283 159Q286 162 287 162Q293 162 297 157T301 146Q301 128 279 101T224 48T155 4T90 -14ZM369 487Q344 487 329 503T314 545Q314 572 329 593T367 627T417 640Q445 640
460 625T476 583Q476 544 445 516T369 487ZM165 487Q140 487 125 503T110 545Q110 572 125 593T163 627T213 640Q241 640 256 625T272 583Q272 544 241 516T165 487Z" />
<glyph unicode="&#xf0;" horiz-adv-x="456" d="M132 -14Q94 -14 63 4T16 54T2 124Q6 174 26 228T83 330T170 407T285 437Q293 437 299 436T312 433Q317 432 321 431T328 429Q333 429 336 446T339 477Q339 508 333 529L226 473Q213 467 206 473T199 487Q201 504
205 518T223 540L322 591Q312 623 297 640T255 663Q239 667 232 671T224 683Q224 696 235 700T263 705Q317 705 358 686T426 634L521 682Q527 686 538 684T550 671Q550 658 545 642T523 617L457 583Q479 526 479 464Q479 401 461 334T410 205T334 94T239 15T132
-14ZM155 27Q174 27 195 49T238 109T277 190T308 279T323 360Q325 380 318 389T295 399Q279 399 258 377T216 317T175 236T142 147T126 67Q124 47 132 37T155 27Z" />
<glyph unicode="&#xf1;" horiz-adv-x="614" d="M128 -14Q119 -14 105 -7T78 12T59 42T61 78L159 322Q167 343 147 343Q141 343 127 342T97 334T65 310Q61 305 53 305T43 315Q43 323 50 335T67 361T85 380Q111 403 147 420T233 437Q261 437 275 423T293 387T287
342L237 219Q234 212 243 211T257 217Q291 278 324 327T395 407T477 437Q520 437 538 414T556 357T544 295L472 127Q460 98 476 98Q481 98 490 103T511 116T531 132T546 145Q552 151 558 157T569 163Q572 163 575 159T579 150Q579 128 564 110Q534 74 496 46T417
2T341 -14Q327 -14 313 -5T291 16T289 42Q322 117 358 189T423 338Q428 352 427 359T415 367Q402 367 387 350T355 307T320 255Q312 243 297 219T264 165T230 107T201 58Q184 28 166 7T128 -14ZM260 467Q256 467 247 475T237 487Q237 493 249 511T278 550T310 587T332
603Q342 603 356 600T404 595Q427 594 446 593T474 591Q492 591 509 611Q519 623 523 629T532 636Q537 636 546 629T555 616Q555 612 549 604T534 583Q523 567 512 549T491 516Q485 507 476 505T460 502Q451 502 430 503T384 506T338 509T307 511Q296 511 288 500Q275
482 270 475T260 467Z" />
<glyph unicode="&#xf2;" horiz-adv-x="475" d="M347 469Q340 469 332 474T316 486L205 609Q195 620 189 630T182 650Q182 660 193 672T219 693T245 702Q257 702 266 694T284 665L357 503Q362 492 361 481T347 469ZM165 -14Q124 -14 88 4T30 56T8 134Q8 180 28
232T87 331T182 407T310 437Q380 437 423 399T467 289Q467 243 447 191T388 92T293 16T165 -14ZM185 27Q204 27 223 49T261 109T293 190T315 279T324 360Q324 380 316 389T292 399Q276 399 257 377T220 317T186 236T162 147T152 67Q152 47 161 37T185 27Z" />
<glyph unicode="&#xf3;" horiz-adv-x="475" d="M165 -14Q124 -14 88 4T30 56T8 134Q8 180 28 232T87 331T182 407T310 437Q380 437 423 399T467 289Q467 243 447 191T388 92T293 16T165 -14ZM185 27Q204 27 223 49T261 109T293 190T315 279T324 360Q324 380 316
389T292 399Q276 399 257 377T220 317T186 236T162 147T152 67Q152 47 161 37T185 27ZM319 469Q306 469 305 480T309 503L382 665Q391 685 400 693T421 702Q432 702 447 693T473 672T484 650Q484 640 478 630T461 609L350 486Q343 479 335 474T319 469Z" />
<glyph unicode="&#xf4;" horiz-adv-x="475" d="M402 698Q412 698 417 688T428 655Q433 638 438 622T448 589T457 556T465 522Q469 504 464 491T443 477Q427 477 411 512Q405 525 396 542T373 579Q369 585 361 579Q338 559 316 541T280 511Q261 495 248 486T227
477Q216 477 216 490Q216 496 219 504T231 522Q250 545 270 567T310 612T350 657Q367 677 379 687T402 698ZM165 -14Q124 -14 88 4T30 56T8 134Q8 180 28 232T87 331T182 407T310 437Q380 437 423 399T467 289Q467 243 447 191T388 92T293 16T165 -14ZM185 27Q204
27 223 49T261 109T293 190T315 279T324 360Q324 380 316 389T292 399Q276 399 257 377T220 317T186 236T162 147T152 67Q152 47 161 37T185 27Z" />
<glyph unicode="&#xf5;" horiz-adv-x="475" d="M165 -14Q124 -14 88 4T30 56T8 134Q8 180 28 232T87 331T182 407T310 437Q380 437 423 399T467 289Q467 243 447 191T388 92T293 16T165 -14ZM185 27Q204 27 223 49T261 109T293 190T315 279T324 360Q324 380 316
389T292 399Q276 399 257 377T220 317T186 236T162 147T152 67Q152 47 161 37T185 27ZM204 467Q200 467 191 475T181 487Q181 493 193 511T222 550T254 587T276 603Q286 603 300 600T348 595Q371 594 390 593T418 591Q436 591 453 611Q463 623 467 629T476 636Q481
636 490 629T499 616Q499 612 493 604T478 583Q467 567 456 549T435 516Q429 507 420 505T404 502Q395 502 374 503T328 506T282 509T251 511Q240 511 232 500Q219 482 214 475T204 467Z" />
<glyph unicode="&#xf6;" horiz-adv-x="475" d="M165 -14Q124 -14 88 4T30 56T8 134Q8 180 28 232T87 331T182 407T310 437Q380 437 423 399T467 289Q467 243 447 191T388 92T293 16T165 -14ZM185 27Q204 27 223 49T261 109T293 190T315 279T324 360Q324 380 316
389T292 399Q276 399 257 377T220 317T186 236T162 147T152 67Q152 47 161 37T185 27ZM437 490Q412 490 397 506T382 548Q382 575 397 596T435 630T485 643Q513 643 528 628T544 586Q544 547 513 519T437 490ZM233 490Q208 490 193 506T178 548Q178 575 193 596T231
630T281 643Q309 643 324 628T340 586Q340 547 309 519T233 490Z" />
<glyph unicode="&#xf7;" horiz-adv-x="597" d="M70 259Q63 259 57 263T51 272Q51 278 54 289T65 308T84 317H567Q578 317 585 313T593 302Q593 289 583 274T556 259H70ZM327 64Q297 64 275 85T253 137Q253 169 275 191T327 213Q359 213 381 191T403 137Q403 107
381 86T327 64ZM326 349Q296 349 274 370T252 422Q252 454 274 476T326 498Q358 498 380 476T402 422Q402 392 380 371T326 349Z" />
<glyph unicode="&#xf8;" horiz-adv-x="445" d="M-9 -14Q-20 -13 -30 -6T-39 11Q-36 34 -23 44L47 102L93 132L332 347L382 377L445 429Q450 433 456 435T469 437Q479 436 482 429T485 411Q485 403 481 393T468 375L396 314L326 265L107 61L74 42L19 -4Q13 -9 8
-12T-9 -14ZM165 -14Q124 -14 88 4T30 56T8 134Q8 180 28 232T87 331T182 407T310 437Q380 437 423 399T467 289Q467 243 447 191T388 92T293 16T165 -14ZM185 27Q204 27 223 49T261 109T293 190T315 279T324 360Q324 380 316 389T292 399Q276 399 257 377T220
317T186 236T162 147T152 67Q152 47 161 37T185 27Z" />
<glyph unicode="&#xf9;" horiz-adv-x="615" d="M425 469Q418 469 410 474T394 486L283 609Q273 620 267 630T260 650Q260 660 271 672T297 693T323 702Q335 702 344 694T362 665L435 503Q440 492 439 481T425 469ZM124 -14Q102 -14 84 5T58 49T59 96L150 299Q157
314 156 321T146 328Q140 328 124 319T91 297T67 278Q52 263 43 263T34 273Q34 284 40 294T53 313Q83 349 116 377T183 421T253 437Q269 437 284 423T307 389T308 353Q292 317 265 260T201 125Q194 111 196 102T208 92Q218 92 237 114T280 170T330 240Q345 260
359 281T386 325T412 366Q431 396 446 416T480 437Q502 437 519 425T544 397T546 364L453 113Q451 107 451 101T456 94Q463 94 483 106T525 136T561 166Q564 169 565 169Q571 169 575 164T579 153Q579 138 563 117T520 73T463 31T404 -1T354 -14Q341 -14 329 -5T310
19T303 44Q303 49 305 54T310 67Q317 83 326 103T346 148T369 204Q372 212 367 212T357 206Q333 170 305 132T246 60T184 7T124 -14Z" />
<glyph unicode="&#xfa;" horiz-adv-x="615" d="M124 -14Q102 -14 84 5T58 49T59 96L150 299Q157 314 156 321T146 328Q140 328 124 319T91 297T67 278Q52 263 43 263T34 273Q34 284 40 294T53 313Q83 349 116 377T183 421T253 437Q269 437 284 423T307 389T308
353Q292 317 265 260T201 125Q194 111 196 102T208 92Q218 92 237 114T280 170T330 240Q345 260 359 281T386 325T412 366Q431 396 446 416T480 437Q502 437 519 425T544 397T546 364L453 113Q451 107 451 101T456 94Q463 94 483 106T525 136T561 166Q564 169 565
169Q571 169 575 164T579 153Q579 138 563 117T520 73T463 31T404 -1T354 -14Q341 -14 329 -5T310 19T303 44Q303 49 305 54T310 67Q317 83 326 103T346 148T369 204Q372 212 367 212T357 206Q333 170 305 132T246 60T184 7T124 -14ZM397 469Q384 469 383 480T387
503L460 665Q469 685 478 693T499 702Q510 702 525 693T551 672T562 650Q562 640 556 630T539 609L428 486Q421 479 413 474T397 469Z" />
<glyph unicode="&#xfb;" horiz-adv-x="615" d="M480 698Q490 698 495 688T506 655Q511 638 516 622T526 589T535 556T543 522Q547 504 542 491T521 477Q505 477 489 512Q483 525 474 542T451 579Q447 585 439 579Q416 559 394 541T358 511Q339 495 326 486T305
477Q294 477 294 490Q294 496 297 504T309 522Q328 545 348 567T388 612T428 657Q445 677 457 687T480 698ZM124 -14Q102 -14 84 5T58 49T59 96L150 299Q157 314 156 321T146 328Q140 328 124 319T91 297T67 278Q52 263 43 263T34 273Q34 284 40 294T53 313Q83
349 116 377T183 421T253 437Q269 437 284 423T307 389T308 353Q292 317 265 260T201 125Q194 111 196 102T208 92Q218 92 237 114T280 170T330 240Q345 260 359 281T386 325T412 366Q431 396 446 416T480 437Q502 437 519 425T544 397T546 364L453 113Q451 107
451 101T456 94Q463 94 483 106T525 136T561 166Q564 169 565 169Q571 169 575 164T579 153Q579 138 563 117T520 73T463 31T404 -1T354 -14Q341 -14 329 -5T310 19T303 44Q303 49 305 54T310 67Q317 83 326 103T346 148T369 204Q372 212 367 212T357 206Q333 170
305 132T246 60T184 7T124 -14Z" />
<glyph unicode="&#xfc;" horiz-adv-x="615" d="M124 -14Q102 -14 84 5T58 49T59 96L150 299Q157 314 156 321T146 328Q140 328 124 319T91 297T67 278Q52 263 43 263T34 273Q34 284 40 294T53 313Q83 349 116 377T183 421T253 437Q269 437 284 423T307 389T308
353Q292 317 265 260T201 125Q194 111 196 102T208 92Q218 92 237 114T280 170T330 240Q345 260 359 281T386 325T412 366Q431 396 446 416T480 437Q502 437 519 425T544 397T546 364L453 113Q451 107 451 101T456 94Q463 94 483 106T525 136T561 166Q564 169 565
169Q571 169 575 164T579 153Q579 138 563 117T520 73T463 31T404 -1T354 -14Q341 -14 329 -5T310 19T303 44Q303 49 305 54T310 67Q317 83 326 103T346 148T369 204Q372 212 367 212T357 206Q333 170 305 132T246 60T184 7T124 -14ZM515 490Q490 490 475 506T460
548Q460 575 475 596T513 630T563 643Q591 643 606 628T622 586Q622 547 591 519T515 490ZM311 490Q286 490 271 506T256 548Q256 575 271 596T309 630T359 643Q387 643 402 628T418 586Q418 547 387 519T311 490Z" />
<glyph unicode="&#xfd;" horiz-adv-x="499" d="M-46 -289Q-76 -289 -101 -272T-126 -221Q-126 -202 -117 -184T-93 -154T-61 -142Q-50 -142 -37 -149T-12 -166Q1 -175 15 -183T49 -191Q78 -191 105 -164T151 -93Q169 -52 178 2T187 115Q187 200 178 250T156 322T134
344Q126 344 116 331T96 302T81 276Q79 272 74 264T62 255Q59 255 56 262T53 283Q53 312 67 340T104 392T153 430T202 444Q233 444 250 424T281 365Q295 322 305 253T310 84Q309 66 313 67T325 81Q360 148 370 228T379 417Q379 426 393 435T416 444Q426 444 442
435T473 410T487 374Q487 312 451 230T350 55T199 -130Q159 -173 114 -209T28 -267T-46 -289ZM298 469Q285 469 284 480T288 503L361 665Q370 685 379 693T400 702Q411 702 426 693T452 672T463 650Q463 640 457 630T440 609L329 486Q322 479 314 474T298 469Z"
/>
<glyph unicode="&#xfe;" horiz-adv-x="548" d="M-131 -285Q-135 -285 -138 -282T-140 -273Q-139 -265 -134 -261T-120 -255Q-87 -246 -72 -238T-50 -204L188 531Q193 546 197 561T201 592Q201 606 190 612T165 624Q158 627 152 630T145 640Q145 646 150 650T174
662Q186 666 210 673T262 688T311 701T342 707Q350 707 360 706T370 693Q370 680 367 671T360 650Q348 612 335 574T307 496T278 418T251 340T227 263Q225 256 227 256T233 261Q272 323 311 362T389 419T460 437Q494 437 520 414T546 346Q546 291 527 238T472 140T391
60T291 6T181 -14Q161 -14 138 -9T103 0L143 37L76 -203Q70 -225 88 -234T134 -255Q140 -257 142 -260T143 -273Q142 -278 138 -281T127 -284Q110 -284 85 -283T34 -282T-6 -281Q-31 -281 -67 -283T-131 -285ZM226 27Q236 27 252 38T287 70T321 117Q333 136 347
163T374 220T395 277T404 322Q404 330 402 336T395 346T381 350Q363 350 337 329T284 275T233 206T194 137T179 85Q179 64 194 46T226 27Z" />
<glyph unicode="&#xff;" horiz-adv-x="499" d="M-46 -289Q-76 -289 -101 -272T-126 -221Q-126 -202 -117 -184T-93 -154T-61 -142Q-50 -142 -37 -149T-12 -166Q1 -175 15 -183T49 -191Q78 -191 105 -164T151 -93Q169 -52 178 2T187 115Q187 200 178 250T156 322T134
344Q126 344 116 331T96 302T81 276Q79 272 74 264T62 255Q59 255 56 262T53 283Q53 312 67 340T104 392T153 430T202 444Q233 444 250 424T281 365Q295 322 305 253T310 84Q309 66 313 67T325 81Q360 148 370 228T379 417Q379 426 393 435T416 444Q426 444 442
435T473 410T487 374Q487 312 451 230T350 55T199 -130Q159 -173 114 -209T28 -267T-46 -289ZM416 490Q391 490 376 506T361 548Q361 575 376 596T414 630T464 643Q492 643 507 628T523 586Q523 547 492 519T416 490ZM212 490Q187 490 172 506T157 548Q157 575
172 596T210 630T260 643Q288 643 303 628T319 586Q319 547 288 519T212 490Z" />
<glyph unicode="&#x2013;" horiz-adv-x="650" d="M43 181Q36 181 33 186T30 195Q32 201 38 212T53 233T73 242H600Q611 242 616 238T619 226Q615 213 601 197T572 181H43Z" />
<glyph unicode="&#x2014;" horiz-adv-x="962" d="M28 181Q21 181 18 186T15 195Q17 201 23 212T38 233T58 242H927Q938 242 943 238T946 226Q942 213 928 197T899 181H28Z" />
<glyph unicode="&#x2018;" horiz-adv-x="280" d="M361 691Q373 691 379 686T382 672Q379 664 371 659T352 652Q325 649 301 635T262 602T247 561Q247 548 256 541T277 529Q288 525 296 516T305 490Q305 456 281 431T221 406Q184 406 159 430T134 494Q134 527 152
562T203 626T276 673T361 691Z" />
<glyph unicode="&#x2019;" horiz-adv-x="280" d="M128 406Q116 406 110 411T107 425Q110 433 118 438T137 445Q164 449 188 462T227 496T242 536Q242 550 233 557T212 568Q201 572 193 581T184 607Q184 641 208 666T268 691Q305 691 330 668T355 603Q355 570 337
535T286 471T213 424T128 406Z" />
<glyph unicode="&#x201a;" horiz-adv-x="280" d="M-49 -166Q-61 -166 -67 -161T-70 -147Q-67 -139 -59 -134T-40 -127Q-13 -123 11 -110T50 -76T65 -36Q65 -22 56 -15T35 -4Q24 0 16 9T7 35Q7 69 31 94T91 119Q128 119 153 96T178 31Q178 -2 160 -37T109 -101T36
-148T-49 -166Z" />
<glyph unicode="&#x201c;" horiz-adv-x="488" d="M569 692Q581 692 587 687T590 673Q587 665 579 660T560 653Q533 650 509 636T470 603T455 562Q455 549 464 542T485 530Q496 526 504 517T513 491Q513 457 489 432T429 407Q392 407 367 431T342 495Q342 528 360
563T411 627T484 674T569 692ZM361 692Q373 692 379 687T382 673Q379 665 371 660T352 653Q325 650 301 636T262 603T247 562Q247 549 256 542T277 530Q288 526 296 517T305 491Q305 457 281 432T221 407Q184 407 159 431T134 495Q134 528 152 563T203 627T276
674T361 692Z" />
<glyph unicode="&#x201d;" horiz-adv-x="488" d="M128 407Q116 407 110 412T107 426Q110 434 118 439T137 446Q164 450 188 463T227 497T242 537Q242 551 233 558T212 569Q201 573 193 582T184 608Q184 642 208 667T268 692Q305 692 330 669T355 604Q355 571 337
536T286 472T213 425T128 407ZM336 407Q324 407 318 412T315 426Q318 434 326 439T345 446Q372 450 396 463T435 497T450 537Q450 551 441 558T420 569Q409 573 401 582T392 608Q392 642 416 667T476 692Q513 692 538 669T563 604Q563 571 545 536T494 472T421
425T336 407Z" />
<glyph unicode="&#x201e;" horiz-adv-x="488" d="M-49 -166Q-61 -166 -67 -161T-70 -147Q-67 -139 -59 -134T-40 -127Q-13 -123 11 -110T50 -76T65 -36Q65 -22 56 -15T35 -4Q24 0 16 9T7 35Q7 69 31 94T91 119Q128 119 153 96T178 31Q178 -2 160 -37T109 -101T36
-148T-49 -166ZM159 -166Q147 -166 141 -161T138 -147Q141 -139 149 -134T168 -127Q195 -123 219 -110T258 -76T273 -36Q273 -22 264 -15T243 -4Q232 0 224 9T215 35Q215 69 239 94T299 119Q336 119 361 96T386 31Q386 -2 368 -37T317 -101T244 -148T159 -166Z"
/>
<glyph unicode="&#x2022;" horiz-adv-x="380" d="M198 200Q165 200 138 217T94 261T77 321Q77 370 102 412T170 481T261 508Q303 508 331 488T374 438T389 376Q389 329 363 289T294 225T198 200Z" />
<glyph unicode="&#x2039;" horiz-adv-x="411" d="M283 15Q272 15 265 23T253 36Q230 63 210 83T169 120T125 153T73 187Q59 196 53 200T47 210Q47 217 56 223T72 231Q136 259 185 286T279 345T378 414Q383 418 388 421T401 425Q415 425 412 416T401 395Q359 347
322 316T252 262T189 219Q180 213 180 211T185 203Q203 184 221 162T258 111T293 43Q298 33 293 24T283 15Z" />
<glyph unicode="&#x203a;" horiz-adv-x="411" d="M133 425Q144 425 151 417T163 404Q186 377 206 357T247 320T291 287T343 253Q357 244 363 240T369 230Q369 223 360 217T344 209Q280 181 231 154T137 95T38 26Q33 22 28 19T15 15Q1 15 4 25T15 45Q57 93 94 124T164
178T227 221Q236 227 236 229T231 237Q213 257 195 279T158 330T123 397Q119 408 123 416T133 425Z" />
</font>
</defs>
</svg>
