<?xml version="1.0" standalone="no"?>
<!DOCTYPE svg PUBLIC "-//W3C//DTD SVG 1.1//EN" "http://www.w3.org/Graphics/SVG/1.1/DTD/svg11.dtd">
<svg xmlns="http://www.w3.org/2000/svg">
<defs >
<font id="SourceSerifPro" horiz-adv-x="524" ><font-face
    font-family="Source Serif Pro ExtraLight"
    units-per-em="1000"
    panose-1="2 4 2 3 5 4 5 2 2 4"
    ascent="918"
    descent="-335"
    alphabetic="0" />
<glyph unicode=" " glyph-name="space" horiz-adv-x="220" />
<glyph unicode="!" glyph-name="exclam" horiz-adv-x="290" d="M134 160L180 414Q197 506 208 564T228 667Q232 690 251 690Q267 690 267 676Q267 666 262 639T243 556T206 405T147 160H134ZM81 22Q81 36 91 45T115 55Q128 55 135 47T142 28Q142 13 133 4T109
-5Q96 -5 89 3T81 22Z" />
<glyph unicode="&quot;" glyph-name="quotedbl" horiz-adv-x="348" d="M201 747Q209 747 212 741T216 725Q216 719 211 695T192 617T157 470H141L157 586Q163 633 167 664T175 720Q181 747 201 747ZM355 747Q363 747 366 741T370 725Q370 719 365 695T346 617T311
470H295L311 586Q317 633 321 664T329 720Q335 747 355 747Z" />
<glyph unicode="#" glyph-name="numbersign" horiz-adv-x="560" d="M178 235H387L442 444H233L178 235ZM94 0L149 208H47L52 235H156L211 444H108L113 470H218L266 654H288L240 470H449L497 654H519L471 470H574L569 444H464L409 235H513L508 208H402L347 0H325L380
208H171L116 0H94Z" />
<glyph unicode="$" glyph-name="dollar" horiz-adv-x="510" d="M184 -115L206 -12Q130 -5 94 35T53 130Q58 146 75 146Q82 146 89 143T98 126L105 51Q125 33 150 22T210 7L277 323L264 331Q203 369 177 410T150 501Q150 556 178 592T248 648T336 667Q340 667 343
667T351 667L370 758H392L372 664Q428 656 461 621T502 527Q500 520 496 516T482 512Q461 512 456 543L448 607Q432 624 413 633T368 645L303 339L328 324Q397 282 418 240T440 152Q440 95 412 59T338 5T234 -13Q233 -13 232 -13T228 -13L206 -115H184ZM310 303L296
311L232 6H238Q286 6 326 22T390 71T414 152Q414 184 406 208T375 255T310 303ZM282 352L284 351L346 647Q343 647 340 647T333 647Q287 647 252 628T196 577T176 507Q176 452 201 419T282 352Z" />
<glyph unicode="%" glyph-name="percent" horiz-adv-x="870" d="M217 -12L200 0L708 665L724 653L217 -12ZM183 256Q140 256 112 289T83 386Q83 462 106 526T167 628T254 667Q295 667 323 635T352 535Q352 459 329 396T267 294T183 256ZM185 273Q222 273 253 308T304
403T324 536Q324 598 302 624T251 650Q215 650 183 615T131 520T111 388Q111 327 132 300T185 273ZM661 -9Q618 -9 590 24T561 121Q561 197 584 261T645 363T732 402Q773 402 801 370T830 270Q830 194 807 131T745 29T661 -9ZM663 8Q700 8 731 43T782 138T802 271Q802
333 780 359T729 385Q693 385 661 350T609 255T589 123Q589 62 610 35T663 8Z" />
<glyph unicode="&amp;" glyph-name="ampersand" horiz-adv-x="668" d="M296 -13Q216 -13 163 15T85 92T59 199Q59 253 82 298T144 375T232 416Q218 436 210 462T201 519Q201 561 222 600T286 665T395 690Q447 690 474 672T513 621Q512 605 496 605Q489 605 483
609T469 625L446 666Q422 672 395 672Q339 672 302 651T246 595T227 521Q227 490 237 465T263 420Q267 421 271 421T279 421Q303 421 322 412T342 392Q342 383 336 376T314 368Q275 368 244 402Q192 391 157 360T105 286T87 199Q87 148 111 105T183 36T297 10Q392
10 446 55T501 175Q501 225 468 254T393 292L397 313Q483 313 537 330T623 382T676 470L702 461Q672 383 611 341T452 296Q486 280 504 249T522 178Q522 117 493 75T414 10T296 -13Z" />
<glyph unicode="&apos;" glyph-name="quotesingle" horiz-adv-x="194" d="M201 747Q209 747 212 741T216 725Q216 719 211 695T192 617T157 470H141L157 586Q163 633 167 664T175 720Q181 747 201 747Z" />
<glyph unicode="(" glyph-name="parenleft" horiz-adv-x="333" d="M212 -206Q142 -120 115 -25T87 168Q87 268 115 367T213 563T405 756L416 742Q299 644 234 551T142 365T115 169Q115 76 137 -11T225 -195L212 -206Z" />
<glyph unicode=")" glyph-name="parenright" horiz-adv-x="333" d="M164 756Q235 671 262 576T289 382Q289 283 261 184T163 -13T-29 -206L-40 -192Q77 -93 142 -1T234 186T261 381Q261 474 239 561T151 745L164 756Z" />
<glyph unicode="*" glyph-name="asterisk" horiz-adv-x="468" d="M274 758Q288 758 292 737Q294 722 299 684T311 560Q366 595 399 616T450 648T478 658Q494 658 494 644Q494 635 482 626T432 599T317 549Q399 485 431 457T463 416Q463 400 448 400Q440 400 426
412T385 454T310 541Q273 442 256 401T222 360Q216 360 211 364T206 376Q206 385 214 401T242 452T298 545Q211 548 169 551T113 561T99 578Q99 585 104 590T120 595Q129 595 167 588T299 557Q277 640 267 679T256 736Q256 758 274 758Z" />
<glyph unicode="+" glyph-name="plus" horiz-adv-x="530" d="M283 103V325H75V347H283V564H307V347H515V325H307V103H283Z" />
<glyph unicode="," glyph-name="comma" horiz-adv-x="290" d="M11 -169L4 -157Q92 -106 118 -14L103 -1Q93 7 90 13T87 28Q87 40 95 47T114 55Q131 55 141 43Q142 38 142 34T143 24Q143 -31 108 -85T11 -169Z" />
<glyph unicode="-" glyph-name="hyphen" horiz-adv-x="310" d="M56 235V261H286V235H56Z" />
<glyph unicode="." glyph-name="period" horiz-adv-x="290" d="M113 -5Q100 -5 93 3T85 22Q85 36 95 45T119 55Q132 55 139 47T146 28Q146 13 137 4T113 -5Z" />
<glyph unicode="/" glyph-name="slash" horiz-adv-x="325" d="M-70 -160L377 710H402L-43 -160H-70Z" />
<glyph unicode="0" glyph-name="zero" horiz-adv-x="510" d="M235 -13Q192 -13 156 10T98 79T76 195Q76 289 97 374T157 525T245 629T353 667Q395 667 430 644T488 575T510 459Q510 363 489 278T430 127T342 24T235 -13ZM238 7Q290 7 334 42T412 140T463 283T482
454Q482 522 464 564T415 627T350 647Q299 647 254 611T176 511T123 368T104 198Q104 99 143 53T238 7Z" />
<glyph unicode="1" glyph-name="one" horiz-adv-x="510" d="M200 618L374 667L385 655L351 509L291 213Q282 167 273 120T254 26L408 20L404 0H70L75 20L227 26L351 633L196 598L200 618Z" />
<glyph unicode="2" glyph-name="two" horiz-adv-x="510" d="M44 0L48 22L173 135Q266 219 325 275T416 372T461 447T474 519Q474 575 438 611T327 647Q284 647 243 626T183 561L185 497Q186 481 179 472T161 463Q145 463 139 478Q144 543 172 585T243 647T335
667Q413 667 457 627T502 522Q502 481 488 444T439 365T343 265T189 124L81 28H443L437 0H44Z" />
<glyph unicode="3" glyph-name="three" horiz-adv-x="510" d="M247 -13Q198 -13 159 5T97 60T77 156Q82 171 96 171Q116 171 114 150L111 75Q135 38 171 23T251 7Q300 7 341 26T408 84T433 183Q433 254 390 287T273 321H233L237 341H276Q321 341 366 361T441 421T471
516Q471 573 441 610T338 647Q301 647 265 633T205 590L194 521Q191 500 172 500Q165 500 159 506T154 525Q174 602 223 634T342 667Q425 667 462 624T499 517Q499 474 476 435T413 369T324 332Q392 324 426 283T461 182Q461 114 429 71T348 7T247 -13Z" />
<glyph unicode="4" glyph-name="four" horiz-adv-x="510" d="M516 209H397L350 -20H324L370 209H49L53 229L472 662H489L402 235H521L516 209ZM87 235H376L452 610L87 235Z" />
<glyph unicode="5" glyph-name="five" horiz-adv-x="510" d="M245 -13Q200 -13 164 4T108 59T91 154Q95 168 109 168Q129 168 127 148L124 73Q146 38 175 23T246 7Q301 7 344 30T413 99T439 215Q439 271 419 306T366 357T293 374Q262 374 234 368T178 350L163
354L242 654H533L527 626H255L188 375Q210 383 237 388T299 394Q376 394 421 346T467 216Q467 139 436 88T355 12T245 -13Z" />
<glyph unicode="6" glyph-name="six" horiz-adv-x="510" d="M117 201Q117 152 132 108T180 35T268 7Q316 7 355 31T418 99T442 203Q442 282 403 323T291 365Q198 365 128 303Q123 278 120 253T117 201ZM265 -13Q208 -13 169 14T109 90T89 199Q89 297 124 380T221
526T367 626T547 667L548 651Q447 642 363 599T219 487T134 327Q201 385 296 385Q380 385 425 337T470 202Q470 140 444 92T372 15T265 -13Z" />
<glyph unicode="7" glyph-name="seven" horiz-adv-x="510" d="M94 5L486 626H131L137 654H516L512 634L126 0H100L94 5Z" />
<glyph unicode="8" glyph-name="eight" horiz-adv-x="510" d="M175 497Q175 468 185 444T222 396T298 342Q389 380 430 424T472 524Q472 582 436 614T337 647Q292 647 256 627T197 574T175 497ZM251 -13Q171 -13 125 23T78 125Q78 192 125 242T270 329Q223 359
197 385T160 437T149 494Q149 545 174 584T242 645T337 667Q409 667 452 629T496 526Q496 408 315 332Q395 285 426 245T457 152Q457 104 432 67T360 9T251 -13ZM102 130Q102 69 143 38T256 7Q339 7 385 47T431 149Q431 182 420 207T377 258T288 319Q102 250 102
130Z" />
<glyph unicode="9" glyph-name="nine" horiz-adv-x="510" d="M407 454Q407 381 446 340T556 298Q599 298 639 315T719 362Q725 403 725 448Q725 543 689 595T583 647Q536 647 496 622T431 553T407 454ZM313 4Q490 48 588 130T714 339Q673 310 633 294T549 278Q471
278 425 326T378 452Q378 511 406 559T481 637T585 667Q665 667 709 610T753 451Q753 268 647 153T318 -13L313 4Z" />
<glyph unicode=":" glyph-name="colon" horiz-adv-x="300" d="M113 -5Q100 -5 93 3T85 22Q85 36 95 45T119 55Q132 55 139 47T146 28Q146 13 137 4T113 -5ZM188 359Q175 359 168 367T160 386Q160 400 170 409T194 419Q207 419 214 411T221 392Q221 377 212 368T188 359Z" />
<glyph unicode=";" glyph-name="semicolon" horiz-adv-x="300" d="M188 359Q175 359 168 367T160 386Q160 400 170 409T194 419Q207 419 214 411T221 392Q221 377 212 368T188 359ZM11 -169L4 -157Q92 -106 118 -14L103 -1Q93 7 90 13T87 28Q87 40 95 47T114 55Q131
55 141 43Q142 38 142 34T143 24Q143 -31 108 -85T11 -169Z" />
<glyph unicode="&lt;" glyph-name="less" horiz-adv-x="530" d="M88 327V346L451 564L461 547L111 336L461 125L451 108L88 327Z" />
<glyph unicode="=" glyph-name="equal" horiz-adv-x="530" d="M518 481H78V503H518V481ZM518 425H78V447H518V425Z" />
<glyph unicode="&gt;" glyph-name="greater" horiz-adv-x="530" d="M462 345V326L99 108L89 125L439 336L89 547L99 564L462 345Z" />
<glyph unicode="?" glyph-name="question" horiz-adv-x="383" d="M68 20Q68 33 76 41T99 50Q113 50 121 42T130 20Q130 9 122 0T99 -10Q85 -10 77 -1T68 20ZM97 146Q99 206 104 240T119 293T146 329Q158 341 186 361T259 410Q311 442 340 464T381 510T394 565Q394
612 364 641T278 670Q261 670 243 668T209 660L188 618Q179 598 161 598Q152 598 148 604T144 617Q152 646 188 668T282 690Q345 690 383 657T421 564Q421 521 404 492T353 439T271 386Q228 361 203 342T162 307Q150 295 141 280T126 234T117 145L97 146Z" />
<glyph unicode="@" glyph-name="at" horiz-adv-x="835" d="M291 173Q291 120 310 98T360 76Q401 76 439 110T521 198L572 445Q562 456 549 460T522 465Q475 465 433 438T359 368T309 273T291 173ZM560 54Q521 54 512 84T511 152L516 176Q479 125 439 90T354 54Q318
54 291 78T263 166Q263 220 285 276T345 380T429 456T524 485Q542 485 557 480T582 462L600 485L607 480L537 152Q527 106 536 90T568 74Q600 74 639 93T714 151T773 248T796 383Q796 457 766 516T676 609T525 644Q437 644 357 611T215 515T118 363T82 163Q82 74
116 7T214 -97T370 -135Q426 -135 467 -126T552 -97L556 -112Q512 -134 465 -144T363 -155Q263 -155 194 -115T90 -3T54 159Q54 274 92 367T197 526T348 628T526 664Q623 664 688 626T787 523T820 382Q820 299 795 237T729 135T644 74T560 54Z" />
<glyph unicode="A" glyph-name="A" horiz-adv-x="651" d="M-27 0L-23 20L59 26L396 677H416L506 25L608 20L604 0H356L360 20L472 26L443 247H199L86 26L175 20L171 0H-27ZM209 267H440L393 628L209 267Z" />
<glyph unicode="B" glyph-name="B" horiz-adv-x="558" d="M125 657L129 677H322Q434 677 485 641T537 546Q537 474 494 423T349 354Q438 344 478 305T518 209Q518 110 453 55T260 0H11L15 20L120 27L184 364Q198 435 210 507T234 651L125 657ZM203 313Q176 168
152 22H265Q368 22 428 67T489 200Q489 270 436 306T265 343H209L203 313ZM307 655H267L212 363H276Q394 363 451 409T509 537Q509 576 491 602T428 641T307 655Z" />
<glyph unicode="C" glyph-name="C" horiz-adv-x="601" d="M353 -15Q266 -15 201 20T101 122T65 279Q65 372 93 447T173 578T291 662T438 692Q496 692 539 679T623 639L601 500H577L585 631Q553 653 519 661T433 670Q360 670 299 641T192 560T122 437T97 280Q97
192 130 131T221 39T355 7Q395 7 430 15T502 43L543 177H567L537 32Q487 5 445 -5T353 -15Z" />
<glyph unicode="D" glyph-name="D" horiz-adv-x="668" d="M125 657L129 677H340Q493 677 574 603T655 393Q655 280 608 191T470 51T253 0H11L15 20L120 27L184 364Q198 435 210 507T234 651L125 657ZM203 313Q176 168 152 22H244Q371 22 455 70T581 203T623 393Q623
520 552 587T339 655H267L203 313Z" />
<glyph unicode="E" glyph-name="E" horiz-adv-x="570" d="M125 657L129 677H587L568 524H544L553 655H267L210 353H408L436 450H455L414 234H395L404 331H206L203 313Q176 168 152 22H467L508 153H532L493 0H11L15 20L120 27L184 364Q198 435 210 507T234 651L125 657Z" />
<glyph unicode="F" glyph-name="F" horiz-adv-x="548" d="M125 657L129 677H599L580 524H556L565 655H267L210 353H408L436 450H455L414 234H395L404 331H206L203 313Q190 242 177 170T153 26L267 20L263 0H11L15 20L120 27L184 364Q198 435 210 507T234 651L125 657Z" />
<glyph unicode="G" glyph-name="G" horiz-adv-x="664" d="M65 278Q65 372 93 448T171 579T289 663T435 692Q506 692 555 677T645 633L623 494H599L607 625Q573 649 533 659T434 670Q334 670 258 621T140 484T97 278Q97 192 131 132T226 39T363 7Q412 7 449 18T526
51L533 97Q541 146 550 195T568 294L449 300L453 320H683L679 300L600 294L553 38Q502 11 460 -2T362 -15Q274 -15 207 20T103 121T65 278Z" />
<glyph unicode="H" glyph-name="H" horiz-adv-x="765" d="M556 657L560 677H808L804 657L697 650L634 313Q621 242 608 170T584 26L694 20L690 0H442L446 20L551 27L612 348H210L203 313Q190 242 177 170T153 26L263 20L259 0H11L15 20L120 27L184 364Q198 435
210 507T234 651L125 657L129 677H377L373 657L266 650L214 370H616Q630 440 641 510T665 651L556 657Z" />
<glyph unicode="I" glyph-name="I" horiz-adv-x="334" d="M125 657L129 677H377L373 657L266 650L203 313Q190 242 177 170T153 26L263 20L259 0H11L15 20L120 27L184 364Q198 435 210 507T234 651L125 657Z" />
<glyph unicode="J" glyph-name="J" horiz-adv-x="401" d="M194 657L198 677H454L450 657L343 651L278 302Q271 265 267 242T259 201T251 166Q229 62 180 11T72 -41Q35 -41 13 -31T-14 -4Q-13 4 -7 10T12 17Q24 17 41 10T97 -18Q149 2 180 53T229 198Q238 244 246
289T264 380Q273 427 284 493T311 650L194 657Z" />
<glyph unicode="K" glyph-name="K" horiz-adv-x="653" d="M477 657L481 677H709L705 657L623 651L335 387L533 27L630 20L626 0H398L402 20L502 26L310 365L193 257Q183 199 173 142T153 26L263 20L259 0H11L15 20L120 27L184 364Q198 435 210 507T234 651L125
657L129 677H377L373 657L266 650L203 313Q202 308 201 303T199 292L592 651L477 657Z" />
<glyph unicode="L" glyph-name="L" horiz-adv-x="538" d="M125 657L129 677H377L373 657L266 650L203 313Q176 168 152 22H445L488 163H512L471 0H11L15 20L120 27L184 364Q198 435 210 507T234 651L125 657Z" />
<glyph unicode="M" glyph-name="M" horiz-adv-x="906" d="M11 0L15 20L109 27L254 649L155 657L159 677H287L423 46L801 677H932L928 657L828 651L776 310Q766 238 758 168T738 26L845 20L841 0H603L607 20L708 27L793 620L421 0H402L271 616L133 27L233 20L229 0H11Z" />
<glyph unicode="N" glyph-name="N" horiz-adv-x="726" d="M553 657L557 677H785L781 657L693 650L572 10V9L568 -10H548L247 614L136 27L253 20L249 0H16L20 20L112 27L230 649L228 653L125 657L129 677H251L555 45L669 650L553 657Z" />
<glyph unicode="O" glyph-name="O" horiz-adv-x="654" d="M303 -15Q225 -15 172 21T91 119T64 259Q64 350 91 429T165 567T273 659T405 692Q487 692 540 656T618 558T644 418Q644 325 618 246T546 109T437 18T303 -15ZM307 7Q370 7 425 37T522 122T587 249T611
405Q611 484 589 543T521 636T401 670Q336 670 281 637T184 548T119 420T96 271Q96 196 118 137T188 42T307 7Z" />
<glyph unicode="P" glyph-name="P" horiz-adv-x="551" d="M346 655H267L203 313L202 305H291Q377 305 430 331T508 401T533 498Q533 578 490 616T346 655ZM125 657L129 677H355Q464 677 513 632T563 497Q563 438 533 390T444 313T299 285H198Q186 221 175 156T153
26L267 20L263 0H11L15 20L120 27L184 364Q198 435 210 507T234 651L125 657Z" />
<glyph unicode="Q" glyph-name="Q" horiz-adv-x="654" d="M307 7Q370 7 425 37T522 122T587 249T611 405Q611 484 589 543T521 636T401 670Q336 670 281 637T184 548T119 420T96 271Q96 196 118 137T188 42T307 7ZM303 -15H302Q306 -121 358 -170T496 -219Q543
-219 577 -205T646 -166L654 -181Q623 -209 583 -227T484 -245Q387 -245 332 -184T273 -13Q205 -6 158 31T88 127T64 259Q64 350 91 429T165 567T273 659T405 692Q487 692 540 656T618 558T644 418Q644 325 618 246T546 109T437 18T303 -15Z" />
<glyph unicode="R" glyph-name="R" horiz-adv-x="623" d="M338 655H267L207 336H335Q390 336 433 359T500 423T525 512Q525 578 484 616T338 655ZM125 657L129 677H352Q455 677 504 635T554 516Q554 466 529 423T460 353T355 320Q381 312 394 290T427 224L516
22L614 18L610 0Q601 -1 584 -3T544 -5Q514 -5 503 2T481 34L406 211Q387 258 372 280T338 309T284 316H203Q190 244 177 172T153 26L267 20L263 0H11L15 20L120 27L184 364Q198 435 210 507T234 651L125 657Z" />
<glyph unicode="S" glyph-name="S" horiz-adv-x="514" d="M40 44L59 165H81L76 48Q109 26 141 17T217 7Q306 7 358 47T411 155Q411 191 398 217T354 269T274 332Q203 385 175 426T147 517Q147 575 174 613T246 672T342 692Q379 692 405 687T455 672T506 646L483
524H461L471 636Q437 656 407 663T339 670Q295 670 258 653T198 602T175 522Q175 487 186 462T222 413T291 356Q344 317 376 287T424 227T439 157Q439 103 410 65T331 6T215 -15Q158 -15 114 2T40 44Z" />
<glyph unicode="T" glyph-name="T" horiz-adv-x="614" d="M90 514L131 677H665L644 514H620L630 655H407L343 313Q330 242 317 170T293 26L407 20L403 0H151L155 20L260 27L324 364Q338 437 350 509T374 655H157L114 514H90Z" />
<glyph unicode="U" glyph-name="U" horiz-adv-x="725" d="M538 657L542 677H778L774 657L677 650L601 246Q584 155 553 97T469 12T338 -15Q251 -15 197 28T142 160Q142 199 151 247L172 361Q186 434 199 506T224 651L125 657L129 677H367L363 657L256 650L181
254Q172 203 172 165Q171 86 219 49T343 11Q411 11 457 34T533 113T582 272L654 650L538 657Z" />
<glyph unicode="V" glyph-name="V" horiz-adv-x="610" d="M489 657L492 677H720L717 657L625 650L282 -10H262L162 651L68 657L71 677H310L307 657L193 651L283 35L597 651L489 657Z" />
<glyph unicode="W" glyph-name="W" horiz-adv-x="886" d="M765 657L768 677H996L993 657L890 650L608 -10H588L513 612L228 -10H208L161 651L68 657L71 677H299L296 657L191 650L232 44L509 651L415 657L418 677H646L643 657L538 650L611 41L864 650L765 657Z" />
<glyph unicode="X" glyph-name="X" horiz-adv-x="622" d="M453 657L456 677H684L681 657L592 651L356 348L488 26L579 20L575 0H347L351 20L456 26L335 321L108 27L220 20L216 0H-12L-8 20L78 26L327 341L200 651L114 657L117 677H345L342 657L232 650L348 367L564
650L453 657Z" />
<glyph unicode="Y" glyph-name="Y" horiz-adv-x="558" d="M67 657L71 677H294L290 657L181 651L309 295L552 650L442 657L446 677H669L665 657L578 650L316 271Q304 210 293 149T270 27L388 20L384 0H116L120 20L240 27L286 271L148 651L67 657Z" />
<glyph unicode="Z" glyph-name="Z" horiz-adv-x="542" d="M86 514L125 677H578L574 657L34 22H450L498 163H520L479 0H-6L-2 20L540 655H154L108 514H86Z" />
<glyph unicode="[" glyph-name="bracketleft" horiz-adv-x="291" d="M38 -159Q55 -82 70 -2T100 158L144 398Q159 477 173 556T200 715H347L343 693L226 687Q211 617 198 544T170 398L126 158Q113 86 100 14T74 -131L189 -137L185 -159H38Z" />
<glyph unicode="\" glyph-name="backslash" horiz-adv-x="282" d="M222 -160H199L110 710H131L222 -160Z" />
<glyph unicode="]" glyph-name="bracketright" horiz-adv-x="291" d="M297 715Q281 638 266 558T235 398L191 158Q176 79 162 0T135 -159H-12L-8 -137L109 -131Q124 -60 138 12T165 158L209 398Q223 470 236 542T261 687L146 693L150 715H297Z" />
<glyph unicode="^" glyph-name="asciicircum" horiz-adv-x="530" d="M106 226L270 490H292L465 226L445 213L281 460L126 213L106 226Z" />
<glyph unicode="_" glyph-name="underscore" horiz-adv-x="510" d="M0 -26V0H430V-26H0Z" />
<glyph unicode="`" glyph-name="grave" horiz-adv-x="400" d="M370 550L357 543Q341 566 321 593T284 646T254 689Q242 706 236 716T230 733Q230 741 235 744T248 747Q256 747 262 739T279 711Q290 692 306 664T339 606T370 550Z" />
<glyph unicode="a" glyph-name="a" horiz-adv-x="515" d="M87 123Q87 62 109 37T166 12Q214 12 257 51T351 152L411 437Q398 450 384 455T353 460Q310 460 271 440T199 387Q165 353 140 309T101 216T87 123ZM159 -13Q133 -13 110 -1T73 39T59 116Q59 166 75 217T121
316T189 401T270 461T358 483Q398 483 421 457L438 483L446 477L366 99Q363 85 359 68T355 35Q355 22 363 18T385 13Q412 13 442 37T501 101L512 92Q482 46 448 17T373 -13Q354 -13 342 -1T329 32Q329 49 332 62T340 99L346 127Q303 69 258 28T159 -13Z" />
<glyph unicode="b" glyph-name="b" horiz-adv-x="491" d="M98 78Q98 47 113 30T167 12Q195 12 234 25T314 77Q349 111 377 157T421 255T437 356Q437 410 420 434T370 458Q318 458 261 417T141 307L119 205Q112 173 108 152T101 115T98 78ZM157 -13Q117 -13 94
10T71 76Q71 109 79 142T94 207L204 717L79 719L82 733L223 748L233 738L147 332Q179 375 219 409T299 463T375 483Q416 483 440 457T465 364Q465 311 448 258T400 156T331 69T247 9T157 -13Z" />
<glyph unicode="c" glyph-name="c" horiz-adv-x="408" d="M212 -13Q175 -13 143 5T90 61T69 159Q69 222 90 280T148 384T230 456T324 483Q359 483 385 464T417 425Q418 418 412 413T400 408Q393 408 388 411T371 425L327 467Q278 464 236 437T162 366T114 271T96
169Q96 90 129 51T221 12Q265 12 300 35T367 100L378 92Q346 43 306 15T212 -13Z" />
<glyph unicode="d" glyph-name="d" horiz-adv-x="543" d="M89 114Q89 60 107 36T156 12Q210 12 264 56T382 170L435 436Q417 449 400 454T366 460Q314 460 266 432T180 357Q139 305 114 241T89 114ZM394 99Q391 85 389 69T386 40Q386 13 415 13Q441 13 471 36T532
100L542 92Q511 47 477 17T401 -13Q382 -13 371 -2T359 31Q359 48 361 62T368 99L378 148Q345 105 306 68T228 9T151 -13Q111 -13 86 13T61 106Q61 159 78 212T127 314T198 401T283 461T373 483Q412 483 439 460L490 717L369 719L372 733L511 748L521 738L394 99Z"
/>
<glyph unicode="e" glyph-name="e" horiz-adv-x="408" d="M320 464Q280 464 241 440T171 376T120 287T97 187Q236 226 313 283T390 406Q390 435 371 449T320 464ZM211 -13Q175 -13 143 4T91 59T70 162Q70 221 90 278T147 381T229 455T326 483Q362 483 388 465T414
408Q414 335 330 273T96 170Q96 91 129 52T221 12Q265 12 300 34T367 100L378 92Q346 43 305 15T211 -13Z" />
<glyph unicode="f" glyph-name="f" horiz-adv-x="301" d="M391 758Q430 758 454 740T484 700Q485 693 479 688T464 683Q457 683 453 686T437 700L397 740Q325 737 282 682T218 502Q217 495 216 489T214 475H360L356 450L210 453Q194 350 178 248T145 41Q135 -18
126 -62T102 -139T60 -201Q32 -231 7 -243T-50 -255Q-76 -255 -98 -240T-128 -206Q-128 -185 -110 -185Q-97 -185 -80 -200L-42 -237Q-14 -233 6 -221T47 -184Q68 -159 81 -130T103 -60T122 41Q139 145 155 247T185 453H63L67 469L188 475Q190 482 190 488T192
502Q205 597 234 653T305 733T391 758Z" />
<glyph unicode="g" glyph-name="g" horiz-adv-x="466" d="M219 167Q261 167 295 191T350 255T371 339Q371 395 348 429T267 463Q224 463 190 437T135 370T115 283Q115 227 141 197T219 167ZM89 277Q89 335 113 381T180 455T275 483Q319 483 349 457T386 382Q397
444 422 468T469 493Q480 493 489 490Q492 486 492 479Q492 466 474 454T416 428Q409 412 405 393T396 344Q383 242 333 195T214 147Q161 147 129 175Q99 150 90 130T81 95Q81 74 94 61T138 43L271 24Q346 14 372 -12T399 -77Q399 -116 370 -155T285 -219T155 -245Q76
-245 31 -217T-15 -130Q-15 -77 22 -39T112 23Q81 31 70 49T58 86Q58 138 120 184Q89 217 89 277ZM13 -125Q13 -171 50 -198T160 -225Q218 -225 266 -207T343 -157T372 -84Q372 -61 364 -45T331 -17T258 1L131 19Q75 -9 44 -43T13 -125Z" />
<glyph unicode="h" glyph-name="h" horiz-adv-x="521" d="M65 -5L59 0L164 517Q175 567 184 617T202 717L81 719L84 733L225 748L235 738L158 362Q196 400 236 427T313 468T375 483Q408 483 424 466T440 419Q440 396 435 374T423 321L371 99Q368 85 364 69T360
38Q360 13 389 13Q415 13 445 36T506 100L516 92Q485 47 451 17T375 -13Q357 -13 345 -2T333 28Q333 48 336 62T345 99L397 324Q402 348 407 371T412 414Q412 458 369 458Q330 458 280 432T154 339L127 207Q117 155 107 104T86 0L65 -5Z" />
<glyph unicode="i" glyph-name="i" horiz-adv-x="286" d="M98 28Q98 48 101 62T110 99L186 452L62 454L65 468L205 483L218 473L136 99Q133 85 129 69T125 38Q125 13 154 13Q180 13 210 36T271 100L281 92Q250 47 216 17T140 -13Q122 -13 110 -2T98 28ZM233 666Q222
666 213 673T204 694Q204 711 215 720T237 729Q249 729 257 722T266 702Q266 685 255 676T233 666Z" />
<glyph unicode="j" glyph-name="j" horiz-adv-x="251" d="M233 666Q222 666 213 673T204 694Q204 711 215 720T237 729Q249 729 257 722T266 702Q266 685 255 676T233 666ZM-72 -259L-75 -244Q-49 -237 -25 -223T24 -181Q53 -148 73 -100T109 34L189 452L62 454L65
468L205 483L218 473L131 27Q120 -30 108 -73T76 -149T24 -212Q0 -234 -23 -244T-72 -259Z" />
<glyph unicode="k" glyph-name="k" horiz-adv-x="444" d="M55 0L160 517Q171 567 180 617T198 717L77 719L80 733L221 748L231 738L136 272L435 482Q442 481 446 477T451 467Q451 461 449 457T436 447L149 266L168 261Q210 251 233 228T281 155L331 55Q342 34
360 26T403 16L456 15L454 1Q436 -3 421 -5T394 -7Q362 -7 340 8T304 54L254 156Q240 185 228 202T198 231T154 249L133 255L123 207Q113 155 103 104T82 0L61 -5L55 0Z" />
<glyph unicode="l" glyph-name="l" horiz-adv-x="250" d="M108 -13Q90 -13 78 -1T66 31Q66 48 68 62T75 99L160 517Q171 567 180 617T198 717L77 719L80 733L221 748L231 738L101 99Q98 85 96 69T93 40Q93 13 122 13Q148 13 178 36T239 100L249 92Q218 47 184
17T108 -13Z" />
<glyph unicode="m" glyph-name="m" horiz-adv-x="805" d="M659 -13Q641 -13 629 -2T617 28Q617 48 620 62T629 99L681 324Q686 348 691 371T697 414Q697 458 654 458Q628 458 601 448T539 413T454 343Q452 333 450 323T445 302L424 207Q413 155 403 104T381 0L360
-5L354 0L423 324Q428 348 433 371T439 414Q439 458 396 458Q357 458 311 432T190 340L160 207Q148 155 138 104T117 0L96 -5L90 0L186 452L62 454L65 468L203 483L216 473L194 363Q250 419 307 451T402 483Q435 483 451 466T467 421Q467 400 459 366Q515 422 568
452T660 483Q693 483 709 466T725 419Q725 396 720 374T707 321L655 99Q652 85 648 69T644 38Q644 13 673 13Q699 13 729 36T790 100L800 92Q769 47 735 17T659 -13Z" />
<glyph unicode="n" glyph-name="n" horiz-adv-x="556" d="M117 0L96 -5L90 0L186 452L62 454L65 468L203 483L216 473L194 363Q251 419 311 451T410 483Q443 483 459 466T475 419Q475 396 470 374T458 321L406 99Q403 85 399 69T395 38Q395 13 424 13Q450 13 480
36T541 100L551 92Q520 47 486 17T410 -13Q392 -13 380 -2T368 28Q368 48 371 62T380 99L432 324Q437 348 442 371T447 414Q447 458 404 458Q365 458 315 432T190 340L160 207Q148 155 138 104T117 0Z" />
<glyph unicode="o" glyph-name="o" horiz-adv-x="484" d="M215 -13Q181 -13 147 3T89 58T66 161Q66 218 83 275T133 379T208 454T303 483Q343 483 376 465T431 409T452 306Q452 243 434 186T384 84T308 13T215 -13ZM218 7Q262 7 299 33T365 103T408 197T424 298Q424
384 390 423T302 463Q255 463 217 436T152 364T109 268T94 166Q94 84 130 46T218 7Z" />
<glyph unicode="p" glyph-name="p" horiz-adv-x="528" d="M-51 -245L-48 -225L42 -220L186 452L62 454L65 468L206 483L219 473L189 336Q221 378 260 411T338 464T412 483Q453 483 477 457T502 364Q502 311 485 258T439 156T370 69T288 9T199 -13Q179 -13 158
-7T118 12Q101 -67 90 -120T69 -219L175 -225L172 -245H-51ZM407 458Q356 458 301 418T184 311L124 39Q144 24 165 18T209 11Q259 11 305 40T388 116Q428 167 451 231T474 356Q474 410 457 434T407 458Z" />
<glyph unicode="q" glyph-name="q" horiz-adv-x="496" d="M89 114Q89 60 107 36T156 12Q209 12 261 53T375 162L433 437Q416 449 399 454T366 460Q322 460 281 440T205 384Q171 349 145 304T104 210T89 114ZM151 -13Q111 -13 86 13T61 106Q61 159 78 212T127 314T198
401T283 461T373 483Q415 483 443 456L460 483L468 477L358 -38Q348 -83 339 -128T320 -219L416 -225L413 -245H190L193 -225L294 -220L370 138Q337 97 300 63T224 8T151 -13Z" />
<glyph unicode="r" glyph-name="r" horiz-adv-x="380" d="M90 0L186 452L62 454L65 468L201 483L214 473L183 318Q205 361 231 398T287 459T348 483Q395 483 408 462Q405 435 382 435Q367 435 354 440T325 454L317 459Q283 437 247 391T176 282L160 207Q149 155
139 104T117 0L96 -5L90 0Z" />
<glyph unicode="s" glyph-name="s" horiz-adv-x="371" d="M319 118Q319 54 276 21T169 -13Q116 -13 87 6T43 73Q45 81 50 87T62 93Q79 93 84 77L104 19Q118 12 134 10T169 7Q227 7 260 37T294 111Q294 142 275 169T212 227Q168 257 145 286T122 356Q122 415 161
449T263 483Q309 483 338 463T376 413Q376 406 370 401T357 396Q350 396 344 399T332 414L313 454Q292 463 268 463Q209 463 178 435T147 363Q147 323 166 301T225 249Q278 211 298 182T319 118Z" />
<glyph unicode="t" glyph-name="t" horiz-adv-x="320" d="M108 99L181 443L183 453H60L64 469L189 475L221 609H243L214 475H357L353 450L210 453L134 99Q131 85 128 69T124 38Q124 13 153 13Q179 13 209 36T270 100L280 92Q249 47 215 17T139 -13Q121 -13 109
-2T97 28Q97 48 100 62T108 99Z" />
<glyph unicode="u" glyph-name="u" horiz-adv-x="543" d="M157 -13Q128 -13 112 3T95 55Q95 84 102 120T116 186L175 453L65 455L68 469L194 484L207 474L146 205Q142 185 136 157T126 102T122 59Q122 39 132 27T167 14Q198 14 249 36T375 126L407 276Q418 324
427 372T446 469L467 483L475 477L395 99Q392 85 388 68T384 39Q384 13 414 13Q440 13 470 36T531 100L541 92Q510 47 476 17T403 -13Q383 -13 371 -1T358 33Q358 49 361 62T369 99L370 103Q306 41 256 14T157 -13Z" />
<glyph unicode="v" glyph-name="v" horiz-adv-x="461" d="M194 -5Q192 84 190 153T184 281T171 395Q165 433 156 445T132 457Q115 457 95 443T49 376L36 382Q62 438 86 460T141 483Q166 483 180 465T200 396Q210 314 212 229T216 30Q279 106 325 176T402 314Q408
328 413 341T424 374L422 391Q421 402 419 419T416 447Q416 464 424 473T442 483Q452 483 457 478Q462 468 462 447Q462 428 456 394T422 306Q389 240 337 162T205 -7L198 -8L194 -5Z" />
<glyph unicode="w" glyph-name="w" horiz-adv-x="728" d="M196 -5Q194 84 192 153T186 281T174 395Q169 433 158 445T132 457Q115 457 95 443T49 376L36 382Q62 438 86 460T141 483Q166 483 180 465T201 396Q210 317 213 233T218 40Q284 142 342 247T450 470H463Q467
398 470 342T475 236T480 138T483 33Q525 83 558 126T618 215T672 314Q678 328 683 342T694 372L689 402Q688 414 686 427T684 449Q684 466 692 474T709 483Q719 483 724 478Q729 468 729 447Q729 428 723 395T690 306Q650 224 599 149T473 -7L465 -8L461 -5Q458
81 455 145T449 268T442 394Q407 315 348 211T208 -7L200 -8L196 -5Z" />
<glyph unicode="x" glyph-name="x" horiz-adv-x="536" d="M7 54Q7 77 26 77Q39 77 46 65L80 5Q100 7 116 15T146 42Q168 69 192 105T240 178T283 244L247 394Q238 432 225 444T195 457Q169 457 151 440T108 375L95 382Q117 438 146 460T200 483Q229 483 246 464T274
395L303 272Q338 331 368 373T420 440Q440 462 461 472T503 483Q525 483 541 470T564 432Q564 424 558 417T541 409Q536 409 531 411T521 421L497 464Q465 458 435 426Q401 388 369 340T308 249L343 99Q354 53 366 33T406 13Q429 13 460 37T520 101L531 92Q500
45 466 16T403 -13Q366 -13 350 11T318 99L289 221Q255 163 224 115T161 28Q142 5 121 -4T81 -13Q56 -13 36 5T7 54Z" />
<glyph unicode="y" glyph-name="y" horiz-adv-x="465" d="M-78 -207Q-75 -195 -67 -190T-48 -185Q-39 -185 -30 -188T-8 -203L9 -218Q32 -207 53 -191T98 -152Q154 -96 209 -15Q205 76 199 147T187 279T171 395Q165 433 157 445T132 457Q116 457 96 443T49 376L36
382Q62 439 87 461T141 483Q167 483 180 465T200 396Q211 314 218 224T230 18Q271 88 307 158T369 286T405 374Q420 420 428 443T443 475T458 483Q474 483 474 467Q474 462 472 454T464 431Q453 404 441 380T409 315Q371 240 344 187T293 92T245 10Q211 -43 180
-84T111 -165Q80 -196 43 -220T-18 -245Q-40 -245 -56 -236T-78 -207Z" />
<glyph unicode="z" glyph-name="z" horiz-adv-x="431" d="M89 324L110 461L136 483Q208 472 279 458T421 426L438 479L463 483L467 479Q460 448 441 422T392 364Q348 317 297 274T189 184T76 77Q133 35 172 20T254 4Q286 4 314 15T364 43Q354 73 354 94Q354 129
377 132Q386 128 390 119T394 86Q394 54 373 30T319 -9T250 -23Q199 -23 157 -2T65 62L45 -4L20 -8L16 -4Q23 24 39 52T73 100Q121 151 175 196T289 292T411 410Q343 422 274 432T133 453L103 322L89 324Z" />
<glyph unicode="{" glyph-name="braceleft" horiz-adv-x="348" d="M38 268L42 288Q123 295 160 326T197 406Q197 432 191 467T185 539Q185 621 227 668T376 715H411L406 693L369 691Q306 688 272 671T224 619T211 531Q211 500 215 473T219 419Q219 389 207 360T165
308T85 278Q133 271 152 248T171 196Q171 174 162 145T139 82T117 12T107 -62Q107 -96 128 -114T205 -135L252 -137L247 -159H202Q135 -159 107 -136T79 -70Q79 -33 90 5T115 80T140 144T151 191Q151 223 126 243T38 268Z" />
<glyph unicode="|" glyph-name="bar" horiz-adv-x="240" d="M121 -250V750H147V-250H121Z" />
<glyph unicode="}" glyph-name="braceright" horiz-adv-x="348" d="M354 288L350 268Q269 261 232 230T195 150Q195 125 201 90T207 17Q207 -65 165 -112T16 -159H-19L-14 -137L23 -135Q87 -131 121 -114T168 -63T181 25Q181 57 177 84T173 137Q173 168 185 197T227
248T307 278Q259 286 240 308T221 360Q221 382 230 411T253 474T275 544T285 618Q285 653 264 671T187 691L140 693L145 715H190Q257 715 285 692T313 626Q313 589 302 551T277 476T252 412T241 365Q241 334 267 314T354 288Z" />
<glyph unicode="~" glyph-name="asciitilde" horiz-adv-x="530" d="M296 349Q316 328 334 319T376 309Q408 309 428 330T455 395L475 392Q471 347 445 317T375 287Q344 287 321 300T274 338Q253 360 237 370T194 380Q161 380 140 360T113 294L93 297Q97 344 124
373T194 402Q226 402 250 387T296 349Z" />
<glyph unicode="&#xa0;" glyph-name="space" horiz-adv-x="220" />
<glyph unicode="&#xa1;" glyph-name="exclamdown" horiz-adv-x="290" d="M184 318L138 64Q122 -27 110 -86T90 -189Q86 -212 67 -212Q51 -212 51 -198Q51 -187 56 -161T75 -78T112 74T171 318H184ZM237 456Q237 442 227 433T203 423Q190 423 183 431T176 450Q176
465 186 474T209 483Q223 483 230 475T237 456Z" />
<glyph unicode="&#xa2;" glyph-name="cent" horiz-adv-x="510" d="M234 -50H211L235 68Q188 76 154 118T120 242Q120 299 136 353T182 452T250 525T334 560L356 667H380L359 562Q468 562 483 445Q480 425 465 425Q453 425 449 432T442 449L424 524Q396 543 357
543Q356 543 356 543T355 543L263 90Q265 90 267 90T272 90Q316 90 351 113T418 178L429 170Q397 121 357 93T263 65Q262 65 261 65T257 65L234 -50ZM147 247Q147 180 172 142T240 93L330 541Q288 534 255 506T197 435T160 344T147 247Z" />
<glyph unicode="&#xa3;" glyph-name="sterling" horiz-adv-x="510" d="M22 0L26 22Q119 93 160 159T202 302H71L75 326H200Q196 353 186 379T166 434T156 493Q156 540 178 579T245 643T351 667Q389 667 423 653T481 606T507 513Q503 505 497 501T484 497Q474 497
467 507T460 533Q460 553 460 567T462 597Q441 627 410 637T349 647Q273 647 229 606T184 494Q184 464 193 436T212 380T227 326H396L391 302H228Q227 224 183 157T64 28H427L421 0H22Z" />
<glyph unicode="&#xa4;" glyph-name="currency" horiz-adv-x="510" d="M144 336Q144 294 163 262T215 212T286 194Q325 194 357 213T407 264T426 336Q426 378 407 410T357 460T286 478Q247 478 215 460T164 410T144 336ZM121 336Q121 370 132 398T163 446L126
475Q101 493 85 507T69 534Q69 542 75 547T88 553Q101 553 114 538T146 496L176 458Q221 498 286 498Q350 498 396 458L424 495Q442 520 456 536T483 552Q491 552 496 547T502 533Q502 520 487 507T445 475L408 446Q428 425 439 397T450 336Q450 302 439 274T407
225L444 197Q469 179 485 165T501 138Q501 131 496 125T482 119Q469 119 456 135T424 176L395 213Q348 174 286 174Q221 174 175 214L146 177Q128 152 114 136T87 120Q80 120 74 126T68 139Q68 152 84 165T125 197L162 226Q143 247 132 275T121 336Z" />
<glyph unicode="&#xa5;" glyph-name="yen" horiz-adv-x="510" d="M61 141L66 165H236L255 260H86L91 284H252L169 628L102 634L107 654H301L296 634L194 627L276 287L493 627L397 634L402 654H591L586 634L519 627L297 284H450L445 260H281V260Q269 203 262 165H425L420
141H257Q250 109 246 84T235 27L342 20L337 0H93L98 20L207 27L231 141H61Z" />
<glyph unicode="&#xa6;" glyph-name="brokenbar" horiz-adv-x="240" d="M123 -250V200H149V-250H123ZM149 320H123V750H149V320Z" />
<glyph unicode="&#xa7;" glyph-name="section" horiz-adv-x="464" d="M354 690Q400 690 429 670T467 620Q467 613 461 608T448 603Q441 603 435 606T423 621L404 661Q383 670 359 670Q300 670 269 642T238 570Q238 531 255 509T313 458L348 433Q402 395 422 363T442
292Q442 221 389 181T255 133Q293 105 308 78T323 15Q323 -43 280 -75T173 -108Q120 -108 91 -89T47 -22Q49 -14 54 -8T66 -2Q83 -2 88 -18L108 -76Q122 -83 138 -85T173 -88Q231 -88 264 -59T298 13Q298 46 280 73T216 132L183 156Q140 188 118 219T96 292Q96
360 147 402T281 451Q250 474 232 501T213 567Q213 623 252 656T354 690ZM199 174L235 148Q320 154 369 193T418 287Q418 320 400 350T337 412L301 437Q213 431 167 393T120 295Q120 255 138 231T199 174Z" />
<glyph unicode="&#xa8;" glyph-name="dieresis" horiz-adv-x="400" d="M219 664Q209 664 201 670T193 690Q193 705 203 714T225 723Q236 723 243 717T251 698Q251 682 241 673T219 664ZM396 664Q386 664 378 670T370 690Q370 705 380 714T402 723Q413 723 420
717T428 698Q428 682 418 673T396 664Z" />
<glyph unicode="&#xa9;" glyph-name="copyright" horiz-adv-x="779" d="M397 9Q468 9 532 33T647 105T726 221T755 375Q755 467 718 532T614 633T463 668Q393 668 329 643T214 571T134 456T105 303Q105 210 142 145T246 44T397 9ZM401 -13Q308 -13 236 24T122
130T80 298Q80 390 111 463T195 586T317 663T459 690Q553 690 625 653T738 547T780 379Q780 287 749 214T665 91T543 14T401 -13ZM419 127Q366 127 326 151T264 219T242 319Q242 389 271 441T350 523T462 553Q500 553 530 546T588 521L573 427H558L563 509Q542
523 520 528T462 534Q408 534 365 507T297 432T272 320Q272 267 292 228T347 168T421 147Q444 147 464 152T505 168L529 243H543L526 155Q496 140 472 134T419 127Z" />
<glyph unicode="&#xaa;" glyph-name="ordfeminine" horiz-adv-x="355" d="M145 520Q145 482 160 466T197 449Q228 449 256 473T319 537L358 721Q343 735 318 735Q284 735 253 716T197 664T159 594T145 520ZM335 428Q322 428 314 436T305 459Q305 470 306 479T312
505L315 517Q285 480 255 454T189 428Q163 428 142 446T121 512Q121 554 138 596T185 675T251 733T324 755Q350 755 366 737L381 756L387 751L334 505Q332 495 330 485T327 464Q327 456 333 453T347 450Q364 450 384 465T424 506L433 499Q413 469 389 449T335 428Z"
/>
<glyph unicode="&#xab;" glyph-name="guillemotleft" horiz-adv-x="545" d="M259 48L68 245L71 260L319 457L330 442L109 253L273 61L259 48ZM459 48L268 245L271 260L519 457L530 442L309 253L473 61L459 48Z" />
<glyph unicode="&#xac;" glyph-name="logicalnot" horiz-adv-x="530" d="M63 360V382H501V175H477V360H63Z" />
<glyph unicode="&#xad;" glyph-name="hyphen" horiz-adv-x="310" d="M56 235V261H286V235H56Z" />
<glyph unicode="&#xae;" glyph-name="registered" horiz-adv-x="458" d="M283 338Q334 338 377 361T448 429T475 535Q475 609 431 650T319 692Q269 692 225 668T154 600T127 495Q127 421 171 380T283 338ZM281 318Q205 318 155 363T105 492Q105 561 135 610T215
686T322 712Q397 712 447 667T497 538Q497 469 467 420T388 344T281 318ZM314 610H294L277 522H300Q330 522 344 537T359 572Q359 589 350 599T314 610ZM243 610L245 622H318Q347 622 364 609T382 572Q382 549 365 533T319 515Q332 512 338 504T350 482L368 433L397
431L394 419Q387 418 383 418T370 418Q355 418 350 421T342 433L326 479Q320 496 313 503T293 510H275L261 432L288 431L285 419H207L210 431L237 432L269 609L243 610Z" />
<glyph unicode="&#xaf;" glyph-name="overscore" horiz-adv-x="400" d="M191 631L197 657H417L411 631H191Z" />
<glyph unicode="&#xb0;" glyph-name="degree" horiz-adv-x="313" d="M242 482Q279 482 304 507T330 575Q330 618 305 643T242 668Q206 668 180 643T154 575Q154 532 180 507T242 482ZM242 460Q196 460 163 491T129 575Q129 626 162 658T242 690Q287 690 321 658T355
575Q355 523 321 492T242 460Z" />
<glyph unicode="&#xb1;" glyph-name="plusminus" horiz-adv-x="530" d="M481 0H41V22H481V0ZM249 103V325H41V347H249V564H273V347H481V325H273V103H249Z" />
<glyph unicode="&#xb2;" glyph-name="two.sups" horiz-adv-x="326" d="M104 437L108 459Q189 532 238 579T313 655T346 704T355 745Q355 780 334 801T272 822Q251 822 231 814T197 787L196 746Q195 716 176 716Q163 716 159 730Q165 787 199 813T279 839Q330 839
356 814T383 749Q383 725 373 703T337 651T262 577T137 464H346L340 437H104Z" />
<glyph unicode="&#xb3;" glyph-name="three.sups" horiz-adv-x="326" d="M225 428Q180 428 150 452T121 532Q125 543 137 543Q153 543 153 522L152 474Q167 458 186 452T227 445Q270 445 300 470T330 548Q330 589 304 609T217 630L221 647Q277 647 315 672T354
747Q354 782 336 802T280 822Q238 822 209 796L203 755Q200 734 184 734Q178 734 173 738T168 752Q179 797 209 818T284 839Q334 839 357 813T381 749Q381 708 351 678T277 638Q317 632 338 608T360 547Q360 506 341 480T292 441T225 428Z" />
<glyph unicode="&#xb4;" glyph-name="acute" horiz-adv-x="400" d="M230 550Q244 576 261 606T294 664T321 711Q332 730 338 738T352 747Q359 748 364 745T370 733Q371 726 365 716T346 689Q335 672 317 647T280 594T243 543L230 550Z" />
<glyph unicode="&#xb5;" glyph-name="mu" horiz-adv-x="536" d="M436 -13Q408 -13 396 3T384 49Q384 62 386 77T392 110L393 114Q357 54 312 21T221 -13Q182 -13 155 12T117 79L66 -185L45 -190L39 -185L104 110L177 476L197 481L205 475Q185 383 165 292T126
115Q140 57 164 36T229 14Q273 14 316 49T400 147L467 476L487 481L495 475L414 121Q409 99 407 83T405 53Q405 28 415 21T439 13Q461 13 484 28T530 69L539 59Q519 34 492 11T436 -13Z" />
<glyph unicode="&#xb6;" glyph-name="paragraph" horiz-adv-x="602" d="M458 653L370 178Q303 186 250 212T165 288T134 414Q134 492 172 551T288 643T485 677H670L667 657L556 650L469 180Q455 102 441 25T414 -130H386L531 653H458Z" />
<glyph unicode="&#xb7;" glyph-name="middot" horiz-adv-x="290" d="M170 302Q157 302 150 310T142 329Q142 343 152 352T176 362Q189 362 196 354T203 335Q203 320 194 311T170 302Z" />
<glyph unicode="&#xb8;" glyph-name="cedilla" horiz-adv-x="400" d="M111 -84L154 0H170L134 -72Q175 -86 197 -103T220 -150Q220 -181 194 -199T124 -218Q80 -218 51 -201L57 -187Q88 -200 124 -200Q154 -200 174 -187T194 -151Q194 -124 175 -111T111 -84Z" />
<glyph unicode="&#xb9;" glyph-name="one.sups" horiz-adv-x="326" d="M329 437H120L123 452L214 458L286 808L194 792L197 809L311 839L318 832L298 744L239 458L332 452L329 437Z" />
<glyph unicode="&#xba;" glyph-name="ordmasculine" horiz-adv-x="333" d="M230 428Q206 428 182 439T142 476T126 543Q126 594 147 643T204 723T288 755Q330 755 361 728T392 639Q392 584 371 536T313 458T230 428ZM232 444Q272 444 302 473T349 545T367 632Q367
688 345 713T287 739Q246 739 215 710T167 636T150 547Q150 493 174 469T232 444Z" />
<glyph unicode="&#xbb;" glyph-name="guillemotright" horiz-adv-x="545" d="M319 457L510 260L507 245L259 48L248 63L469 252L305 444L319 457ZM119 457L310 260L307 245L59 48L48 63L269 252L105 444L119 457Z" />
<glyph unicode="&#xbc;" glyph-name="onequarter" horiz-adv-x="870" d="M237 -12L220 0L728 665L744 653L237 -12ZM292 265H83L86 280L177 286L249 636L157 620L160 637L274 667L281 660L261 572L202 286L295 280L292 265ZM833 115H757L731 -10H707L732 115H544L548
133L798 400H816L762 138H837L833 115ZM574 138H737L781 358L574 138Z" />
<glyph unicode="&#xbd;" glyph-name="onehalf" horiz-adv-x="870" d="M217 -12L200 0L708 665L724 653L217 -12ZM292 265H83L86 280L177 286L249 636L157 620L160 637L274 667L281 660L261 572L202 286L295 280L292 265ZM545 0L549 22Q630 95 679 142T754 218T787
267T796 308Q796 343 775 364T713 385Q692 385 672 377T638 350L637 309Q636 279 617 279Q604 279 600 293Q606 350 640 376T720 402Q771 402 797 377T824 312Q824 288 814 266T778 214T703 140T578 27H787L781 0H545Z" />
<glyph unicode="&#xbe;" glyph-name="threequarters" horiz-adv-x="870" d="M247 -12L230 0L738 665L754 653L247 -12ZM188 256Q143 256 113 280T84 360Q88 371 100 371Q116 371 116 350L115 302Q130 286 149 280T190 273Q233 273 263 298T293 376Q293 417 267
437T180 458L184 475Q240 475 278 500T317 575Q317 610 299 630T243 650Q201 650 172 624L166 583Q163 562 147 562Q141 562 136 566T131 580Q142 625 172 646T247 667Q297 667 320 641T344 577Q344 536 314 506T240 466Q280 460 301 436T323 375Q323 334 304 308T255
269T188 256ZM833 115H757L731 -10H707L732 115H544L548 133L798 400H816L762 138H837L833 115ZM574 138H737L781 358L574 138Z" />
<glyph unicode="&#xbf;" glyph-name="questiondown" horiz-adv-x="383" d="M342 453Q342 440 334 432T311 423Q297 423 289 431T280 453Q280 464 288 473T311 483Q325 483 333 474T342 453ZM313 327Q311 267 306 233T291 180T264 144Q252 132 224 112T151 63Q100
32 71 9T29 -37T16 -92Q16 -139 46 -168T132 -197Q149 -197 167 -195T201 -187L222 -145Q231 -125 249 -125Q258 -125 262 -131T266 -144Q259 -173 223 -195T128 -217Q65 -217 27 -184T-11 -91Q-11 -47 6 -19T57 34T139 87Q182 113 207 131T248 166Q261 179 270
194T285 239T293 328L313 327Z" />
<glyph unicode="&#xc0;" glyph-name="Agrave" horiz-adv-x="651" d="M-27 0L-23 20L59 26L396 677H416L506 25L608 20L604 0H356L360 20L472 26L443 247H199L86 26L175 20L171 0H-27ZM209 267H440L393 628L209 267ZM429 741L421 730Q392 747 363 765T307 801Q282
818 272 825T261 842Q261 859 279 859Q287 859 296 853T326 828Q349 809 375 787T429 741Z" />
<glyph unicode="&#xc1;" glyph-name="Aacute" horiz-adv-x="651" d="M-27 0L-23 20L59 26L396 677H416L506 25L608 20L604 0H356L360 20L472 26L443 247H199L86 26L175 20L171 0H-27ZM209 267H440L393 628L209 267ZM378 740Q407 760 436 780T490 817Q513 832 523
837T540 842Q558 840 556 823Q555 814 544 807T507 788Q477 774 447 759T385 728L378 740Z" />
<glyph unicode="&#xc2;" glyph-name="Acircumflex" horiz-adv-x="651" d="M-27 0L-23 20L59 26L396 677H416L506 25L608 20L604 0H356L360 20L472 26L443 247H199L86 26L175 20L171 0H-27ZM209 267H440L393 628L209 267ZM431 837L551 725L541 715L420 800L283
715L277 725L417 837H431Z" />
<glyph unicode="&#xc3;" glyph-name="Atilde" horiz-adv-x="651" d="M-27 0L-23 20L59 26L396 677H416L506 25L608 20L604 0H356L360 20L472 26L443 247H199L86 26L175 20L171 0H-27ZM209 267H440L393 628L209 267ZM258 753Q272 793 298 819T360 845Q389 845 406
833T440 802Q456 786 469 775T504 764Q550 764 585 837L600 832Q586 793 560 767T499 741Q468 741 452 753T418 783Q402 802 390 812T355 822Q330 822 310 803T273 748L258 753Z" />
<glyph unicode="&#xc4;" glyph-name="Adieresis" horiz-adv-x="651" d="M-27 0L-23 20L59 26L396 677H416L506 25L608 20L604 0H356L360 20L472 26L443 247H199L86 26L175 20L171 0H-27ZM209 267H440L393 628L209 267ZM307 756Q296 756 288 762T279 784Q279 801
290 810T313 819Q325 819 333 812T341 792Q341 775 330 766T307 756ZM502 756Q491 756 483 762T474 784Q474 801 485 810T508 819Q520 819 528 812T536 792Q536 775 525 766T502 756Z" />
<glyph unicode="&#xc5;" glyph-name="Aring" horiz-adv-x="651" d="M-27 0L-23 20L59 26L396 677H416L506 25L608 20L604 0H356L360 20L472 26L443 247H199L86 26L175 20L171 0H-27ZM209 267H440L393 628L209 267ZM413 721Q379 721 359 742T338 796Q338 824 352
844T387 876T429 887Q461 887 482 867T504 814Q504 771 475 746T413 721ZM414 741Q442 741 461 762T480 811Q480 834 467 850T428 867Q402 867 382 846T362 798Q362 776 375 759T414 741Z" />
<glyph unicode="&#xc6;" glyph-name="AE" horiz-adv-x="893" d="M507 364Q521 435 533 507T557 650L546 651L267 267H489L507 364ZM-27 0L-23 20L61 26L521 652L428 657L432 677H910L891 524H867L876 655H590L533 353H731L759 450H778L737 234H718L727 331H529L526
313Q499 168 475 22H790L831 153H855L816 0H334L338 20L443 27L485 247H253L91 25L175 20L171 0H-27Z" />
<glyph unicode="&#xc7;" glyph-name="Ccedilla" horiz-adv-x="601" d="M353 -15Q266 -15 201 20T101 122T65 279Q65 372 93 447T173 578T291 662T438 692Q496 692 539 679T623 639L601 500H577L585 631Q553 653 519 661T433 670Q360 670 299 641T192 560T122 437T97
280Q97 192 130 131T221 39T355 7Q395 7 430 15T502 43L543 177H567L537 32Q487 5 445 -5T353 -15ZM302 -84L345 0H361L325 -72Q366 -86 388 -103T411 -150Q411 -181 385 -199T315 -218Q271 -218 242 -201L248 -187Q279 -200 315 -200Q345 -200 365 -187T385 -151Q385
-124 366 -111T302 -84Z" />
<glyph unicode="&#xc8;" glyph-name="Egrave" horiz-adv-x="570" d="M125 657L129 677H587L568 524H544L553 655H267L210 353H408L436 450H455L414 234H395L404 331H206L203 313Q176 168 152 22H467L508 153H532L493 0H11L15 20L120 27L184 364Q198 435 210 507T234
651L125 657ZM424 741L416 730Q387 747 358 765T302 801Q277 818 267 825T256 842Q256 859 274 859Q282 859 291 853T321 828Q344 809 370 787T424 741Z" />
<glyph unicode="&#xc9;" glyph-name="Eacute" horiz-adv-x="570" d="M125 657L129 677H587L568 524H544L553 655H267L210 353H408L436 450H455L414 234H395L404 331H206L203 313Q176 168 152 22H467L508 153H532L493 0H11L15 20L120 27L184 364Q198 435 210 507T234
651L125 657ZM353 740Q382 760 411 780T465 817Q488 832 498 837T515 842Q533 840 531 823Q530 814 519 807T482 788Q452 774 422 759T360 728L353 740Z" />
<glyph unicode="&#xca;" glyph-name="Ecircumflex" horiz-adv-x="570" d="M125 657L129 677H587L568 524H544L553 655H267L210 353H408L436 450H455L414 234H395L404 331H206L203 313Q176 168 152 22H467L508 153H532L493 0H11L15 20L120 27L184 364Q198 435 210
507T234 651L125 657ZM406 840L526 728L516 718L395 803L258 718L252 728L392 840H406Z" />
<glyph unicode="&#xcb;" glyph-name="Edieresis" horiz-adv-x="570" d="M125 657L129 677H587L568 524H544L553 655H267L210 353H408L436 450H455L414 234H395L404 331H206L203 313Q176 168 152 22H467L508 153H532L493 0H11L15 20L120 27L184 364Q198 435 210
507T234 651L125 657ZM302 756Q291 756 283 762T274 784Q274 801 285 810T308 819Q320 819 328 812T336 792Q336 775 325 766T302 756ZM497 756Q486 756 478 762T469 784Q469 801 480 810T503 819Q515 819 523 812T531 792Q531 775 520 766T497 756Z" />
<glyph unicode="&#xcc;" glyph-name="Igrave" horiz-adv-x="334" d="M125 657L129 677H377L373 657L266 650L203 313Q190 242 177 170T153 26L263 20L259 0H11L15 20L120 27L184 364Q198 435 210 507T234 651L125 657ZM284 741L276 730Q247 747 218 765T162 801Q137
818 127 825T116 842Q116 859 134 859Q142 859 151 853T181 828Q204 809 230 787T284 741Z" />
<glyph unicode="&#xcd;" glyph-name="Iacute" horiz-adv-x="334" d="M125 657L129 677H377L373 657L266 650L203 313Q190 242 177 170T153 26L263 20L259 0H11L15 20L120 27L184 364Q198 435 210 507T234 651L125 657ZM220 740Q249 760 278 780T332 817Q355 832
365 837T382 842Q400 840 398 823Q397 814 386 807T349 788Q319 774 289 759T227 728L220 740Z" />
<glyph unicode="&#xce;" glyph-name="Icircumflex" horiz-adv-x="334" d="M125 657L129 677H377L373 657L266 650L203 313Q190 242 177 170T153 26L263 20L259 0H11L15 20L120 27L184 364Q198 435 210 507T234 651L125 657ZM282 842L402 730L392 720L271 805L134
720L128 730L268 842H282Z" />
<glyph unicode="&#xcf;" glyph-name="Idieresis" horiz-adv-x="334" d="M183 756Q172 756 164 762T155 784Q155 801 166 810T189 819Q201 819 209 812T217 792Q217 775 206 766T183 756ZM348 756Q337 756 329 762T320 784Q320 801 331 810T354 819Q366 819 374
812T382 792Q382 775 371 766T348 756ZM125 657L129 677H377L373 657L266 650L203 313Q190 242 177 170T153 26L263 20L259 0H11L15 20L120 27L184 364Q198 435 210 507T234 651L125 657Z" />
<glyph unicode="&#xd0;" glyph-name="Eth" horiz-adv-x="668" d="M125 657L129 677H340Q493 677 574 603T655 393Q655 280 608 191T470 51T253 0H11L15 20L120 27L179 336H56L61 358H183L184 364Q198 435 210 507T234 651L125 657ZM404 336H207L203 313Q176 168
152 22H244Q371 22 455 70T581 203T623 393Q623 520 552 587T339 655H267L211 358H407L404 336Z" />
<glyph unicode="&#xd1;" glyph-name="Ntilde" horiz-adv-x="726" d="M553 657L557 677H785L781 657L693 650L572 10V9L568 -10H548L247 614L136 27L253 20L249 0H16L20 20L112 27L230 649L228 653L125 657L129 677H251L555 45L669 650L553 657ZM309 753Q323 793
349 819T411 845Q440 845 457 833T491 802Q507 786 520 775T555 764Q601 764 636 837L651 832Q637 793 611 767T550 741Q519 741 503 753T469 783Q453 802 441 812T406 822Q381 822 361 803T324 748L309 753Z" />
<glyph unicode="&#xd2;" glyph-name="Ograve" horiz-adv-x="654" d="M303 -15Q225 -15 172 21T91 119T64 259Q64 350 91 429T165 567T273 659T405 692Q487 692 540 656T618 558T644 418Q644 325 618 246T546 109T437 18T303 -15ZM307 7Q370 7 425 37T522 122T587
249T611 405Q611 484 589 543T521 636T401 670Q336 670 281 637T184 548T119 420T96 271Q96 196 118 137T188 42T307 7ZM451 741L443 730Q414 747 385 765T329 801Q304 818 294 825T283 842Q283 859 301 859Q309 859 318 853T348 828Q371 809 397 787T451 741Z"
/>
<glyph unicode="&#xd3;" glyph-name="Oacute" horiz-adv-x="654" d="M303 -15Q225 -15 172 21T91 119T64 259Q64 350 91 429T165 567T273 659T405 692Q487 692 540 656T618 558T644 418Q644 325 618 246T546 109T437 18T303 -15ZM307 7Q370 7 425 37T522 122T587
249T611 405Q611 484 589 543T521 636T401 670Q336 670 281 637T184 548T119 420T96 271Q96 196 118 137T188 42T307 7ZM400 740Q429 760 458 780T512 817Q535 832 545 837T562 842Q580 840 578 823Q577 814 566 807T529 788Q499 774 469 759T407 728L400 740Z"
/>
<glyph unicode="&#xd4;" glyph-name="Ocircumflex" horiz-adv-x="654" d="M303 -15Q225 -15 172 21T91 119T64 259Q64 350 91 429T165 567T273 659T405 692Q487 692 540 656T618 558T644 418Q644 325 618 246T546 109T437 18T303 -15ZM307 7Q370 7 425 37T522
122T587 249T611 405Q611 484 589 543T521 636T401 670Q336 670 281 637T184 548T119 420T96 271Q96 196 118 137T188 42T307 7ZM430 842L550 730L540 720L419 805L282 720L276 730L416 842H430Z" />
<glyph unicode="&#xd5;" glyph-name="Otilde" horiz-adv-x="654" d="M303 -15Q225 -15 172 21T91 119T64 259Q64 350 91 429T165 567T273 659T405 692Q487 692 540 656T618 558T644 418Q644 325 618 246T546 109T437 18T303 -15ZM307 7Q370 7 425 37T522 122T587
249T611 405Q611 484 589 543T521 636T401 670Q336 670 281 637T184 548T119 420T96 271Q96 196 118 137T188 42T307 7ZM270 753Q284 793 310 819T372 845Q401 845 418 833T452 802Q468 786 481 775T516 764Q562 764 597 837L612 832Q598 793 572 767T511 741Q480
741 464 753T430 783Q414 802 402 812T367 822Q342 822 322 803T285 748L270 753Z" />
<glyph unicode="&#xd6;" glyph-name="Odieresis" horiz-adv-x="654" d="M303 -15Q225 -15 172 21T91 119T64 259Q64 350 91 429T165 567T273 659T405 692Q487 692 540 656T618 558T644 418Q644 325 618 246T546 109T437 18T303 -15ZM307 7Q370 7 425 37T522 122T587
249T611 405Q611 484 589 543T521 636T401 670Q336 670 281 637T184 548T119 420T96 271Q96 196 118 137T188 42T307 7ZM320 756Q309 756 301 762T292 784Q292 801 303 810T326 819Q338 819 346 812T354 792Q354 775 343 766T320 756ZM515 756Q504 756 496 762T487
784Q487 801 498 810T521 819Q533 819 541 812T549 792Q549 775 538 766T515 756Z" />
<glyph unicode="&#xd7;" glyph-name="multiply" horiz-adv-x="530" d="M474 142L296 320L117 141L101 157L280 336L101 515L117 531L296 352L474 530L490 514L312 336L490 158L474 142Z" />
<glyph unicode="&#xd8;" glyph-name="Oslash" horiz-adv-x="654" d="M699 681L605 584Q625 550 634 508T644 418Q644 325 618 246T546 109T437 18T303 -15Q239 -15 192 9T115 77L24 -17L8 -1L102 97Q64 165 64 259Q64 350 91 429T165 567T273 659T405 692Q470
692 517 669T593 604L683 697L699 681ZM95 271Q95 177 122 117L575 585Q524 670 401 670Q336 670 280 637T183 548T118 420T95 271ZM307 7Q371 7 426 37T523 122T588 249T612 405Q612 454 606 493T586 564L133 95Q159 52 202 30T307 7Z" />
<glyph unicode="&#xd9;" glyph-name="Ugrave" horiz-adv-x="725" d="M538 657L542 677H778L774 657L677 650L601 246Q584 155 553 97T469 12T338 -15Q251 -15 197 28T142 160Q142 199 151 247L172 361Q186 434 199 506T224 651L125 657L129 677H367L363 657L256
650L181 254Q172 203 172 165Q171 86 219 49T343 11Q411 11 457 34T533 113T582 272L654 650L538 657ZM488 741L480 730Q451 747 422 765T366 801Q341 818 331 825T320 842Q320 859 338 859Q346 859 355 853T385 828Q408 809 434 787T488 741Z" />
<glyph unicode="&#xda;" glyph-name="Uacute" horiz-adv-x="725" d="M538 657L542 677H778L774 657L677 650L601 246Q584 155 553 97T469 12T338 -15Q251 -15 197 28T142 160Q142 199 151 247L172 361Q186 434 199 506T224 651L125 657L129 677H367L363 657L256
650L181 254Q172 203 172 165Q171 86 219 49T343 11Q411 11 457 34T533 113T582 272L654 650L538 657ZM430 740Q459 760 488 780T542 817Q565 832 575 837T592 842Q610 840 608 823Q607 814 596 807T559 788Q529 774 499 759T437 728L430 740Z" />
<glyph unicode="&#xdb;" glyph-name="Ucircumflex" horiz-adv-x="725" d="M538 657L542 677H778L774 657L677 650L601 246Q584 155 553 97T469 12T338 -15Q251 -15 197 28T142 160Q142 199 151 247L172 361Q186 434 199 506T224 651L125 657L129 677H367L363 657L256
650L181 254Q172 203 172 165Q171 86 219 49T343 11Q411 11 457 34T533 113T582 272L654 650L538 657ZM481 842L601 730L591 720L470 805L333 720L327 730L467 842H481Z" />
<glyph unicode="&#xdc;" glyph-name="Udieresis" horiz-adv-x="725" d="M538 657L542 677H778L774 657L677 650L601 246Q584 155 553 97T469 12T338 -15Q251 -15 197 28T142 160Q142 199 151 247L172 361Q186 434 199 506T224 651L125 657L129 677H367L363 657L256
650L181 254Q172 203 172 165Q171 86 219 49T343 11Q411 11 457 34T533 113T582 272L654 650L538 657ZM373 756Q362 756 354 762T345 784Q345 801 356 810T379 819Q391 819 399 812T407 792Q407 775 396 766T373 756ZM568 756Q557 756 549 762T540 784Q540 801
551 810T574 819Q586 819 594 812T602 792Q602 775 591 766T568 756Z" />
<glyph unicode="&#xdd;" glyph-name="Yacute" horiz-adv-x="558" d="M67 657L71 677H294L290 657L181 651L309 295L552 650L442 657L446 677H669L665 657L578 650L316 271Q304 210 293 149T270 27L388 20L384 0H116L120 20L240 27L286 271L148 651L67 657ZM348
735Q377 755 406 775T460 812Q483 827 493 832T510 837Q528 835 526 818Q525 809 514 802T477 783Q447 769 417 754T355 723L348 735Z" />
<glyph unicode="&#xde;" glyph-name="Thorn" horiz-adv-x="560" d="M203 313Q197 281 191 248T180 183H285Q373 183 426 208T503 277T527 375Q527 442 480 477T330 513H240L203 313ZM125 657L129 677H377L373 657L266 650L244 535H339Q449 535 503 492T557 374Q557
314 527 266T438 191T293 163H176Q170 129 164 95T153 26L263 20L259 0H11L15 20L120 27L184 364Q198 435 210 507T234 651L125 657Z" />
<glyph unicode="&#xdf;" glyph-name="germandbls" horiz-adv-x="509" d="M120 41Q139 157 156 272T190 502Q196 544 209 588T247 671T310 734T404 758Q464 758 495 729T526 652Q526 613 500 575T414 486Q368 448 346 420T323 350Q323 317 338 296T389 249Q442
211 462 182T483 118Q483 54 440 21T333 -13Q280 -13 251 6T207 73Q209 81 214 87T226 93Q243 93 248 77L268 19Q282 12 298 10T333 7Q391 7 424 37T458 111Q458 142 439 169T376 227Q301 277 301 346Q301 381 313 405T348 452T401 500Q440 534 461 558T491 603T500
651Q500 691 476 715T403 739Q356 739 324 718T270 662T236 585T216 502Q198 387 181 272T143 41Q133 -18 124 -62T100 -139T58 -201Q30 -231 5 -243T-52 -255Q-78 -255 -100 -240T-130 -206Q-130 -185 -112 -185Q-99 -185 -82 -200L-44 -237Q-16 -233 4 -221T45
-184Q66 -159 79 -130T101 -60T120 41Z" />
<glyph unicode="&#xe0;" glyph-name="agrave" horiz-adv-x="515" d="M87 123Q87 62 109 37T166 12Q214 12 257 51T351 152L411 437Q398 450 384 455T353 460Q310 460 271 440T199 387Q165 353 140 309T101 216T87 123ZM159 -13Q133 -13 110 -1T73 39T59 116Q59
166 75 217T121 316T189 401T270 461T358 483Q398 483 421 457L438 483L446 477L366 99Q363 85 359 68T355 35Q355 22 363 18T385 13Q412 13 442 37T501 101L512 92Q482 46 448 17T373 -13Q354 -13 342 -1T329 32Q329 49 332 62T340 99L346 127Q303 69 258 28T159
-13ZM374 550L361 543Q345 566 325 593T288 646T258 689Q246 706 240 716T234 733Q234 741 239 744T252 747Q260 747 266 739T283 711Q294 692 310 664T343 606T374 550Z" />
<glyph unicode="&#xe1;" glyph-name="aacute" horiz-adv-x="515" d="M87 123Q87 62 109 37T166 12Q214 12 257 51T351 152L411 437Q398 450 384 455T353 460Q310 460 271 440T199 387Q165 353 140 309T101 216T87 123ZM159 -13Q133 -13 110 -1T73 39T59 116Q59
166 75 217T121 316T189 401T270 461T358 483Q398 483 421 457L438 483L446 477L366 99Q363 85 359 68T355 35Q355 22 363 18T385 13Q412 13 442 37T501 101L512 92Q482 46 448 17T373 -13Q354 -13 342 -1T329 32Q329 49 332 62T340 99L346 127Q303 69 258 28T159
-13ZM352 550Q366 576 383 606T416 664T443 711Q454 730 460 738T474 747Q481 748 486 745T492 733Q493 726 487 716T468 689Q457 672 439 647T402 594T365 543L352 550Z" />
<glyph unicode="&#xe2;" glyph-name="acircumflex" horiz-adv-x="515" d="M87 123Q87 62 109 37T166 12Q214 12 257 51T351 152L411 437Q398 450 384 455T353 460Q310 460 271 440T199 387Q165 353 140 309T101 216T87 123ZM159 -13Q133 -13 110 -1T73 39T59 116Q59
166 75 217T121 316T189 401T270 461T358 483Q398 483 421 457L438 483L446 477L366 99Q363 85 359 68T355 35Q355 22 363 18T385 13Q412 13 442 37T501 101L512 92Q482 46 448 17T373 -13Q354 -13 342 -1T329 32Q329 49 332 62T340 99L346 127Q303 69 258 28T159
-13ZM473 553L390 699L255 553L245 562L391 739H405L485 562L473 553Z" />
<glyph unicode="&#xe3;" glyph-name="atilde" horiz-adv-x="515" d="M87 123Q87 62 109 37T166 12Q214 12 257 51T351 152L411 437Q398 450 384 455T353 460Q310 460 271 440T199 387Q165 353 140 309T101 216T87 123ZM159 -13Q133 -13 110 -1T73 39T59 116Q59
166 75 217T121 316T189 401T270 461T358 483Q398 483 421 457L438 483L446 477L366 99Q363 85 359 68T355 35Q355 22 363 18T385 13Q412 13 442 37T501 101L512 92Q482 46 448 17T373 -13Q354 -13 342 -1T329 32Q329 49 332 62T340 99L346 127Q303 69 258 28T159
-13ZM212 603Q226 650 249 671T303 692Q326 692 341 681T378 647Q401 625 412 617T440 609Q456 609 474 625T511 681L524 674Q490 587 437 587Q418 587 401 597T361 632Q341 654 328 662T299 670Q278 670 259 654T225 597L212 603Z" />
<glyph unicode="&#xe4;" glyph-name="adieresis" horiz-adv-x="515" d="M87 123Q87 62 109 37T166 12Q214 12 257 51T351 152L411 437Q398 450 384 455T353 460Q310 460 271 440T199 387Q165 353 140 309T101 216T87 123ZM159 -13Q133 -13 110 -1T73 39T59 116Q59
166 75 217T121 316T189 401T270 461T358 483Q398 483 421 457L438 483L446 477L366 99Q363 85 359 68T355 35Q355 22 363 18T385 13Q412 13 442 37T501 101L512 92Q482 46 448 17T373 -13Q354 -13 342 -1T329 32Q329 49 332 62T340 99L346 127Q303 69 258 28T159
-13ZM282 659Q272 659 264 665T256 685Q256 700 266 709T288 718Q299 718 306 712T314 693Q314 677 304 668T282 659ZM459 659Q449 659 441 665T433 685Q433 700 443 709T465 718Q476 718 483 712T491 693Q491 677 481 668T459 659Z" />
<glyph unicode="&#xe5;" glyph-name="aring" horiz-adv-x="515" d="M87 123Q87 62 109 37T166 12Q214 12 257 51T351 152L411 437Q398 450 384 455T353 460Q310 460 271 440T199 387Q165 353 140 309T101 216T87 123ZM159 -13Q133 -13 110 -1T73 39T59 116Q59
166 75 217T121 316T189 401T270 461T358 483Q398 483 421 457L438 483L446 477L366 99Q363 85 359 68T355 35Q355 22 363 18T385 13Q412 13 442 37T501 101L512 92Q482 46 448 17T373 -13Q354 -13 342 -1T329 32Q329 49 332 62T340 99L346 127Q303 69 258 28T159
-13ZM371 565Q337 565 315 587T293 642Q293 689 323 714T389 739Q421 739 444 718T467 662Q467 632 453 610T416 577T371 565ZM372 585Q403 585 423 606T443 660Q443 683 428 701T387 719Q357 719 337 698T317 644Q317 622 331 604T372 585Z" />
<glyph unicode="&#xe6;" glyph-name="ae" horiz-adv-x="680" d="M87 123Q87 62 109 37T166 12Q214 12 257 42T344 124Q343 133 343 142T342 162Q342 235 374 305T457 422Q435 442 409 451T353 460Q310 460 271 440T199 387Q165 353 140 309T101 216T87 123ZM592
464Q552 464 513 440T443 376T392 287T369 187Q508 226 585 283T662 406Q662 435 643 449T592 464ZM483 -13Q437 -13 399 14T347 107Q305 55 258 21T159 -13Q133 -13 110 -1T73 39T59 116Q59 166 75 217T121 316T189 401T270 461T358 483Q439 483 474 436Q502 458
533 470T598 483Q634 483 660 465T686 408Q686 335 602 273T368 170Q368 91 401 52T493 12Q537 12 572 34T639 100L650 92Q618 43 577 15T483 -13Z" />
<glyph unicode="&#xe7;" glyph-name="ccedilla" horiz-adv-x="408" d="M212 -13Q175 -13 143 5T90 61T69 159Q69 222 90 280T148 384T230 456T324 483Q359 483 385 464T417 425Q418 418 412 413T400 408Q393 408 388 411T371 425L327 467Q278 464 236 437T162
366T114 271T96 169Q96 90 129 51T221 12Q265 12 300 35T367 100L378 92Q346 43 306 15T212 -13ZM171 -84L214 0H230L194 -72Q235 -86 257 -103T280 -150Q280 -181 254 -199T184 -218Q140 -218 111 -201L117 -187Q148 -200 184 -200Q214 -200 234 -187T254 -151Q254
-124 235 -111T171 -84Z" />
<glyph unicode="&#xe8;" glyph-name="egrave" horiz-adv-x="408" d="M320 464Q280 464 241 440T171 376T120 287T97 187Q236 226 313 283T390 406Q390 435 371 449T320 464ZM211 -13Q175 -13 143 4T91 59T70 162Q70 221 90 278T147 381T229 455T326 483Q362 483
388 465T414 408Q414 335 330 273T96 170Q96 91 129 52T221 12Q265 12 300 34T367 100L378 92Q346 43 305 15T211 -13ZM346 550L333 543Q317 566 297 593T260 646T230 689Q218 706 212 716T206 733Q206 741 211 744T224 747Q232 747 238 739T255 711Q266 692 282
664T315 606T346 550Z" />
<glyph unicode="&#xe9;" glyph-name="eacute" horiz-adv-x="408" d="M320 464Q280 464 241 440T171 376T120 287T97 187Q236 226 313 283T390 406Q390 435 371 449T320 464ZM211 -13Q175 -13 143 4T91 59T70 162Q70 221 90 278T147 381T229 455T326 483Q362 483
388 465T414 408Q414 335 330 273T96 170Q96 91 129 52T221 12Q265 12 300 34T367 100L378 92Q346 43 305 15T211 -13ZM312 550Q326 576 343 606T376 664T403 711Q414 730 420 738T434 747Q441 748 446 745T452 733Q453 726 447 716T428 689Q417 672 399 647T362
594T325 543L312 550Z" />
<glyph unicode="&#xea;" glyph-name="ecircumflex" horiz-adv-x="408" d="M320 464Q280 464 241 440T171 376T120 287T97 187Q236 226 313 283T390 406Q390 435 371 449T320 464ZM211 -13Q175 -13 143 4T91 59T70 162Q70 221 90 278T147 381T229 455T326 483Q362
483 388 465T414 408Q414 335 330 273T96 170Q96 91 129 52T221 12Q265 12 300 34T367 100L378 92Q346 43 305 15T211 -13ZM440 553L357 699L222 553L212 562L358 739H372L452 562L440 553Z" />
<glyph unicode="&#xeb;" glyph-name="edieresis" horiz-adv-x="408" d="M320 464Q280 464 241 440T171 376T120 287T97 187Q236 226 313 283T390 406Q390 435 371 449T320 464ZM211 -13Q175 -13 143 4T91 59T70 162Q70 221 90 278T147 381T229 455T326 483Q362
483 388 465T414 408Q414 335 330 273T96 170Q96 91 129 52T221 12Q265 12 300 34T367 100L378 92Q346 43 305 15T211 -13ZM263 664Q253 664 245 670T237 690Q237 705 247 714T269 723Q280 723 287 717T295 698Q295 682 285 673T263 664ZM440 664Q430 664 422 670T414
690Q414 705 424 714T446 723Q457 723 464 717T472 698Q472 682 462 673T440 664Z" />
<glyph unicode="&#xec;" glyph-name="igrave" horiz-adv-x="286" d="M98 28Q98 48 101 62T110 99L186 452L62 454L65 468L205 483L218 473L136 99Q133 85 129 69T125 38Q125 13 154 13Q180 13 210 36T271 100L281 92Q250 47 216 17T140 -13Q122 -13 110 -2T98
28ZM212 550L199 543Q183 566 163 593T126 646T96 689Q84 706 78 716T72 733Q72 741 77 744T90 747Q98 747 104 739T121 711Q132 692 148 664T181 606T212 550Z" />
<glyph unicode="&#xed;" glyph-name="iacute" horiz-adv-x="286" d="M98 28Q98 48 101 62T110 99L186 452L62 454L65 468L205 483L218 473L136 99Q133 85 129 69T125 38Q125 13 154 13Q180 13 210 36T271 100L281 92Q250 47 216 17T140 -13Q122 -13 110 -2T98
28ZM209 550Q223 576 240 606T273 664T300 711Q311 730 317 738T331 747Q338 748 343 745T349 733Q350 726 344 716T325 689Q314 672 296 647T259 594T222 543L209 550Z" />
<glyph unicode="&#xee;" glyph-name="icircumflex" horiz-adv-x="286" d="M98 28Q98 48 101 62T110 99L186 452L62 454L65 468L205 483L218 473L136 99Q133 85 129 69T125 38Q125 13 154 13Q180 13 210 36T271 100L281 92Q250 47 216 17T140 -13Q122 -13 110 -2T98
28ZM315 553L232 699L97 553L87 562L233 739H247L327 562L315 553Z" />
<glyph unicode="&#xef;" glyph-name="idieresis" horiz-adv-x="286" d="M149 664Q139 664 131 670T123 690Q123 705 133 714T155 723Q166 723 173 717T181 698Q181 682 171 673T149 664ZM306 664Q296 664 288 670T280 690Q280 705 290 714T312 723Q323 723 330
717T338 698Q338 682 328 673T306 664ZM98 28Q98 48 101 62T110 99L186 452L62 454L65 468L205 483L218 473L136 99Q133 85 129 69T125 38Q125 13 154 13Q180 13 210 36T271 100L281 92Q250 47 216 17T140 -13Q122 -13 110 -2T98 28Z" />
<glyph unicode="&#xf0;" glyph-name="eth" horiz-adv-x="468" d="M204 -13Q170 -13 137 3T81 57T58 157Q58 215 76 272T127 377T205 454T302 483Q342 483 374 463T423 399Q411 533 333 635L196 554L187 568L323 648Q300 676 272 700T211 744L220 758Q291 719 340
659L477 740L486 726L351 646Q398 585 422 506T446 325Q446 256 427 195T375 87T298 14T204 -13ZM207 7Q251 7 290 34T358 107T405 207T422 318Q422 398 386 430T299 463Q252 463 213 436T145 363T101 265T85 162Q85 82 120 45T207 7Z" />
<glyph unicode="&#xf1;" glyph-name="ntilde" horiz-adv-x="556" d="M117 0L96 -5L90 0L186 452L62 454L65 468L203 483L216 473L194 363Q251 419 311 451T410 483Q443 483 459 466T475 419Q475 396 470 374T458 321L406 99Q403 85 399 69T395 38Q395 13 424 13Q450
13 480 36T541 100L551 92Q520 47 486 17T410 -13Q392 -13 380 -2T368 28Q368 48 371 62T380 99L432 324Q437 348 442 371T447 414Q447 458 404 458Q365 458 315 432T190 340L160 207Q148 155 138 104T117 0ZM217 603Q231 650 254 671T308 692Q331 692 346 681T383
647Q406 625 417 617T445 609Q461 609 479 625T516 681L529 674Q495 587 442 587Q423 587 406 597T366 632Q346 654 333 662T304 670Q283 670 264 654T230 597L217 603Z" />
<glyph unicode="&#xf2;" glyph-name="ograve" horiz-adv-x="484" d="M215 -13Q181 -13 147 3T89 58T66 161Q66 218 83 275T133 379T208 454T303 483Q343 483 376 465T431 409T452 306Q452 243 434 186T384 84T308 13T215 -13ZM218 7Q262 7 299 33T365 103T408
197T424 298Q424 384 390 423T302 463Q255 463 217 436T152 364T109 268T94 166Q94 84 130 46T218 7ZM340 550L327 543Q311 566 291 593T254 646T224 689Q212 706 206 716T200 733Q200 741 205 744T218 747Q226 747 232 739T249 711Q260 692 276 664T309 606T340
550Z" />
<glyph unicode="&#xf3;" glyph-name="oacute" horiz-adv-x="484" d="M215 -13Q181 -13 147 3T89 58T66 161Q66 218 83 275T133 379T208 454T303 483Q343 483 376 465T431 409T452 306Q452 243 434 186T384 84T308 13T215 -13ZM218 7Q262 7 299 33T365 103T408
197T424 298Q424 384 390 423T302 463Q255 463 217 436T152 364T109 268T94 166Q94 84 130 46T218 7ZM306 550Q320 576 337 606T370 664T397 711Q408 730 414 738T428 747Q435 748 440 745T446 733Q447 726 441 716T422 689Q411 672 393 647T356 594T319 543L306
550Z" />
<glyph unicode="&#xf4;" glyph-name="ocircumflex" horiz-adv-x="484" d="M215 -13Q181 -13 147 3T89 58T66 161Q66 218 83 275T133 379T208 454T303 483Q343 483 376 465T431 409T452 306Q452 243 434 186T384 84T308 13T215 -13ZM218 7Q262 7 299 33T365 103T408
197T424 298Q424 384 390 423T302 463Q255 463 217 436T152 364T109 268T94 166Q94 84 130 46T218 7ZM429 553L346 699L211 553L201 562L347 739H361L441 562L429 553Z" />
<glyph unicode="&#xf5;" glyph-name="otilde" horiz-adv-x="484" d="M215 -13Q181 -13 147 3T89 58T66 161Q66 218 83 275T133 379T208 454T303 483Q343 483 376 465T431 409T452 306Q452 243 434 186T384 84T308 13T215 -13ZM218 7Q262 7 299 33T365 103T408
197T424 298Q424 384 390 423T302 463Q255 463 217 436T152 364T109 268T94 166Q94 84 130 46T218 7ZM189 603Q203 650 226 671T280 692Q303 692 318 681T355 647Q378 625 389 617T417 609Q433 609 451 625T488 681L501 674Q467 587 414 587Q395 587 378 597T338
632Q318 654 305 662T276 670Q255 670 236 654T202 597L189 603Z" />
<glyph unicode="&#xf6;" glyph-name="odieresis" horiz-adv-x="484" d="M215 -13Q181 -13 147 3T89 58T66 161Q66 218 83 275T133 379T208 454T303 483Q343 483 376 465T431 409T452 306Q452 243 434 186T384 84T308 13T215 -13ZM218 7Q262 7 299 33T365 103T408
197T424 298Q424 384 390 423T302 463Q255 463 217 436T152 364T109 268T94 166Q94 84 130 46T218 7ZM260 664Q250 664 242 670T234 690Q234 705 244 714T266 723Q277 723 284 717T292 698Q292 682 282 673T260 664ZM437 664Q427 664 419 670T411 690Q411 705 421
714T443 723Q454 723 461 717T469 698Q469 682 459 673T437 664Z" />
<glyph unicode="&#xf7;" glyph-name="divide" horiz-adv-x="530" d="M295 115Q281 115 273 124T264 145Q264 158 272 166T295 175Q309 175 317 167T326 145Q326 134 318 125T295 115ZM295 492Q281 492 273 501T264 522Q264 535 272 543T295 552Q309 552 317 544T326
522Q326 511 318 502T295 492ZM515 325H75V347H515V325Z" />
<glyph unicode="&#xf8;" glyph-name="oslash" horiz-adv-x="484" d="M512 480L434 402Q442 383 447 359T452 306Q452 243 434 186T384 84T308 13T215 -13Q181 -13 146 3T89 60L4 -24L-11 -10L80 80Q66 114 66 161Q66 218 83 275T133 379T208 454T303 483Q339 483
371 468T424 421L498 494L512 480ZM92 166Q92 147 94 130T99 99L407 404Q391 436 364 449T302 463Q255 463 217 436T150 364T107 268T92 166ZM218 7Q263 7 300 33T366 103T410 197T426 298Q426 324 423 345T415 384L107 78Q123 39 152 23T218 7Z" />
<glyph unicode="&#xf9;" glyph-name="ugrave" horiz-adv-x="543" d="M157 -13Q128 -13 112 3T95 55Q95 84 102 120T116 186L175 453L65 455L68 469L194 484L207 474L146 205Q142 185 136 157T126 102T122 59Q122 39 132 27T167 14Q198 14 249 36T375 126L407 276Q418
324 427 372T446 469L467 483L475 477L395 99Q392 85 388 68T384 39Q384 13 414 13Q440 13 470 36T531 100L541 92Q510 47 476 17T403 -13Q383 -13 371 -1T358 33Q358 49 361 62T369 99L370 103Q306 41 256 14T157 -13ZM350 540L337 533Q321 556 301 583T264 636T234
679Q222 696 216 706T210 723Q210 731 215 734T228 737Q236 737 242 729T259 701Q270 682 286 654T319 596T350 540Z" />
<glyph unicode="&#xfa;" glyph-name="uacute" horiz-adv-x="543" d="M157 -13Q128 -13 112 3T95 55Q95 84 102 120T116 186L175 453L65 455L68 469L194 484L207 474L146 205Q142 185 136 157T126 102T122 59Q122 39 132 27T167 14Q198 14 249 36T375 126L407 276Q418
324 427 372T446 469L467 483L475 477L395 99Q392 85 388 68T384 39Q384 13 414 13Q440 13 470 36T531 100L541 92Q510 47 476 17T403 -13Q383 -13 371 -1T358 33Q358 49 361 62T369 99L370 103Q306 41 256 14T157 -13ZM320 550Q334 576 351 606T384 664T411 711Q422
730 428 738T442 747Q449 748 454 745T460 733Q461 726 455 716T436 689Q425 672 407 647T370 594T333 543L320 550Z" />
<glyph unicode="&#xfb;" glyph-name="ucircumflex" horiz-adv-x="543" d="M157 -13Q128 -13 112 3T95 55Q95 84 102 120T116 186L175 453L65 455L68 469L194 484L207 474L146 205Q142 185 136 157T126 102T122 59Q122 39 132 27T167 14Q198 14 249 36T375 126L407
276Q418 324 427 372T446 469L467 483L475 477L395 99Q392 85 388 68T384 39Q384 13 414 13Q440 13 470 36T531 100L541 92Q510 47 476 17T403 -13Q383 -13 371 -1T358 33Q358 49 361 62T369 99L370 103Q306 41 256 14T157 -13ZM443 553L360 699L225 553L215 562L361
739H375L455 562L443 553Z" />
<glyph unicode="&#xfc;" glyph-name="udieresis" horiz-adv-x="543" d="M157 -13Q128 -13 112 3T95 55Q95 84 102 120T116 186L175 453L65 455L68 469L194 484L207 474L146 205Q142 185 136 157T126 102T122 59Q122 39 132 27T167 14Q198 14 249 36T375 126L407
276Q418 324 427 372T446 469L467 483L475 477L395 99Q392 85 388 68T384 39Q384 13 414 13Q440 13 470 36T531 100L541 92Q510 47 476 17T403 -13Q383 -13 371 -1T358 33Q358 49 361 62T369 99L370 103Q306 41 256 14T157 -13ZM266 664Q256 664 248 670T240 690Q240
705 250 714T272 723Q283 723 290 717T298 698Q298 682 288 673T266 664ZM443 664Q433 664 425 670T417 690Q417 705 427 714T449 723Q460 723 467 717T475 698Q475 682 465 673T443 664Z" />
<glyph unicode="&#xfd;" glyph-name="yacute" horiz-adv-x="465" d="M-78 -207Q-75 -195 -67 -190T-48 -185Q-39 -185 -30 -188T-8 -203L9 -218Q32 -207 53 -191T98 -152Q154 -96 209 -15Q205 76 199 147T187 279T171 395Q165 433 157 445T132 457Q116 457 96
443T49 376L36 382Q62 439 87 461T141 483Q167 483 180 465T200 396Q211 314 218 224T230 18Q271 88 307 158T369 286T405 374Q420 420 428 443T443 475T458 483Q474 483 474 467Q474 462 472 454T464 431Q453 404 441 380T409 315Q371 240 344 187T293 92T245
10Q211 -43 180 -84T111 -165Q80 -196 43 -220T-18 -245Q-40 -245 -56 -236T-78 -207ZM328 550Q342 576 359 606T392 664T419 711Q430 730 436 738T450 747Q457 748 462 745T468 733Q469 726 463 716T444 689Q433 672 415 647T378 594T341 543L328 550Z" />
<glyph unicode="&#xfe;" glyph-name="thorn" horiz-adv-x="509" d="M390 458Q338 458 282 417T164 308L107 39Q127 24 148 18T192 11Q242 11 288 40T371 116Q411 167 434 231T457 356Q457 410 440 434T390 458ZM158 -225L155 -245H-68L-65 -225L25 -220L184 517Q195
569 204 620T222 717L101 719L104 733L245 748L255 738L169 332Q201 375 240 409T320 463T395 483Q436 483 460 457T485 364Q485 311 468 258T422 156T353 69T271 9T182 -13Q162 -13 141 -7T101 12Q94 -19 86 -60T68 -143T52 -219L158 -225Z" />
<glyph unicode="&#xff;" glyph-name="ydieresis" horiz-adv-x="465" d="M-78 -207Q-75 -195 -67 -190T-48 -185Q-39 -185 -30 -188T-8 -203L9 -218Q32 -207 53 -191T98 -152Q154 -96 209 -15Q205 76 199 147T187 279T171 395Q165 433 157 445T132 457Q116 457
96 443T49 376L36 382Q62 439 87 461T141 483Q167 483 180 465T200 396Q211 314 218 224T230 18Q271 88 307 158T369 286T405 374Q420 420 428 443T443 475T458 483Q474 483 474 467Q474 462 472 454T464 431Q453 404 441 380T409 315Q371 240 344 187T293 92T245
10Q211 -43 180 -84T111 -165Q80 -196 43 -220T-18 -245Q-40 -245 -56 -236T-78 -207ZM277 659Q267 659 259 665T251 685Q251 700 261 709T283 718Q294 718 301 712T309 693Q309 677 299 668T277 659ZM454 659Q444 659 436 665T428 685Q428 700 438 709T460 718Q471
718 478 712T486 693Q486 677 476 668T454 659Z" />
<glyph unicode="&#x2013;" glyph-name="endash" horiz-adv-x="510" d="M56 235V261H486V235H56Z" />
<glyph unicode="&#x2014;" glyph-name="emdash" horiz-adv-x="810" d="M56 235V261H786V235H56Z" />
<glyph unicode="&#x2018;" glyph-name="quoteleft" horiz-adv-x="229" d="M191 522Q181 522 174 526Q167 536 164 551T161 577Q161 627 190 669T262 752L273 741Q237 704 216 675T184 601L199 585Q217 567 217 552Q217 540 209 531T191 522Z" />
<glyph unicode="&#x2019;" glyph-name="quoteright" horiz-adv-x="229" d="M218 723Q228 723 235 719Q242 709 245 694T248 668Q248 619 219 577T147 493L136 504Q172 542 193 571T225 644L210 660Q192 678 192 693Q192 705 200 714T218 723Z" />
<glyph unicode="&#x201a;" glyph-name="quotesinglbase" horiz-adv-x="290" d="M101 53Q111 53 118 49Q125 39 128 24T131 -2Q131 -51 102 -93T30 -177L19 -166Q55 -128 76 -99T108 -26L93 -10Q75 8 75 23Q75 35 83 44T101 53Z" />
<glyph unicode="&#x201c;" glyph-name="quotedblleft" horiz-adv-x="404" d="M191 522Q181 522 174 526Q167 536 164 551T161 577Q161 627 190 669T262 752L273 741Q237 704 216 675T184 601L199 585Q217 567 217 552Q217 540 209 531T191 522ZM366 522Q356 522
349 526Q342 536 339 551T336 577Q336 627 365 669T437 752L448 741Q412 704 391 675T359 601L374 585Q392 567 392 552Q392 540 384 531T366 522Z" />
<glyph unicode="&#x201d;" glyph-name="quotedblright" horiz-adv-x="404" d="M393 723Q403 723 410 719Q417 709 420 694T423 668Q423 619 394 577T322 493L311 504Q347 542 368 571T400 644L385 660Q367 678 367 693Q367 705 375 714T393 723ZM218 723Q228 723
235 719Q242 709 245 694T248 668Q248 619 219 577T147 493L136 504Q172 542 193 571T225 644L210 660Q192 678 192 693Q192 705 200 714T218 723Z" />
<glyph unicode="&#x201e;" glyph-name="quotedblbase" horiz-adv-x="465" d="M276 53Q286 53 293 49Q300 39 303 24T306 -2Q306 -51 277 -93T205 -177L194 -166Q230 -128 251 -99T283 -26L268 -10Q250 8 250 23Q250 35 258 44T276 53ZM101 53Q111 53 118 49Q125
39 128 24T131 -2Q131 -51 102 -93T30 -177L19 -166Q55 -128 76 -99T108 -26L93 -10Q75 8 75 23Q75 35 83 44T101 53Z" />
<glyph unicode="&#x2022;" glyph-name="bullet" horiz-adv-x="300" d="M181 292Q153 292 137 311T121 351Q121 382 142 402T195 422Q222 422 237 405T253 364Q253 331 233 312T181 292Z" />
<glyph unicode="&#x2039;" glyph-name="guilsinglleft" horiz-adv-x="345" d="M259 48L68 245L71 260L319 457L330 442L109 253L273 61L259 48Z" />
<glyph unicode="&#x203a;" glyph-name="guilsinglright" horiz-adv-x="345" d="M119 457L310 260L307 245L59 48L48 63L269 252L105 444L119 457Z" />
</font>
</defs>
</svg>
